<?xml version="1.0" standalone="no"?>
<!DOCTYPE svg PUBLIC "-//W3C//DTD SVG 20010904//EN"
 "http://www.w3.org/TR/2001/REC-SVG-20010904/DTD/svg10.dtd">
<svg version="1.0" xmlns="http://www.w3.org/2000/svg"
 width="2044.000000pt" height="1045.000000pt" viewBox="0 0 2044.000000 1045.000000"
 preserveAspectRatio="xMidYMid meet">
<metadata>
Created by potrace 1.14, written by Peter Selinger 2001-2017
</metadata>
<g transform="translate(0.000000,1045.000000) scale(0.100000,-0.100000)"
fill="#000000" stroke="none">
<path d="M6330 10436 c-16 -7 -20 -19 -21 -60 -1 -170 -8 -269 -22 -317 -9
-30 -23 -98 -32 -150 -8 -53 -29 -134 -46 -180 -17 -46 -35 -102 -40 -124 -9
-38 -42 -115 -116 -273 -26 -55 -32 -77 -23 -87 8 -9 57 -14 178 -18 100 -3
189 -11 222 -20 30 -8 82 -20 115 -27 33 -7 83 -19 110 -27 203 -59 226 -63
247 -52 13 7 16 17 12 33 -3 13 0 29 8 37 25 25 28 49 13 92 -18 52 -19 111
-2 124 6 6 24 13 38 16 36 9 185 -11 220 -28 15 -8 38 -15 49 -15 12 0 34 -7
48 -15 32 -17 83 -36 209 -75 117 -36 131 -45 139 -78 3 -15 8 -35 10 -44 3
-10 -8 -46 -24 -81 -37 -79 -51 -144 -57 -266 -5 -93 -5 -95 22 -124 26 -27
96 -65 151 -82 20 -6 32 -35 15 -35 -41 1 -311 109 -423 169 -52 28 -104 56
-115 61 -11 6 -40 22 -65 37 -69 41 -331 173 -342 173 -6 0 -55 23 -111 50
-55 28 -113 50 -127 50 -15 0 -30 3 -33 7 -7 7 -167 50 -227 61 -19 4 -125 7
-235 6 -191 0 -205 -2 -317 -31 -133 -36 -239 -82 -336 -147 -89 -59 -97 -69
-132 -165 -33 -89 -40 -188 -20 -289 15 -80 106 -200 200 -265 25 -17 47 -34
51 -39 3 -4 30 -20 60 -35 67 -34 81 -60 77 -138 -4 -66 -33 -134 -74 -172
-14 -12 -40 -55 -60 -95 -30 -62 -34 -79 -28 -113 4 -22 8 -53 10 -70 9 -98
29 -162 69 -220 48 -68 152 -161 244 -219 69 -42 67 -39 110 -182 32 -103 38
-164 22 -207 -11 -28 -74 -68 -116 -73 -154 -18 -319 -131 -450 -309 -17 -22
-38 -49 -47 -59 -10 -11 -18 -25 -18 -32 0 -6 -7 -18 -16 -25 -9 -7 -20 -22
-26 -34 -28 -60 -86 -159 -95 -162 -16 -6 -43 26 -43 50 0 30 -38 89 -53 84
-19 -6 -19 -47 -1 -112 9 -33 22 -89 30 -125 25 -122 53 -196 101 -263 27 -37
54 -69 62 -72 8 -3 37 10 65 29 85 58 234 94 264 64 10 -10 4 -17 -30 -33 -34
-16 -44 -26 -46 -49 -4 -36 10 -46 69 -46 37 0 57 8 107 41 68 46 95 48 100 7
2 -15 11 -29 20 -32 9 -2 78 -7 152 -11 74 -4 141 -12 148 -17 8 -7 10 -25 6
-57 -7 -54 1 -65 58 -75 42 -8 108 -37 178 -78 25 -15 64 -30 88 -34 53 -8 69
-30 84 -113 8 -44 9 -74 0 -113 -6 -29 -13 -66 -17 -83 -17 -86 -86 -238 -139
-310 -68 -91 -124 -226 -136 -331 -13 -105 2 -373 24 -433 9 -24 16 -52 16
-63 0 -25 36 -134 58 -175 53 -98 83 -166 80 -181 -2 -11 -25 -24 -65 -38 -71
-23 -93 -39 -93 -65 0 -51 -52 -16 -66 45 -3 15 -16 51 -29 80 -13 28 -26 76
-30 106 -4 30 -13 95 -22 144 -11 69 -13 136 -9 294 4 113 11 223 16 246 13
59 18 143 9 157 -9 15 -149 -3 -258 -35 -65 -18 -79 -27 -114 -68 -31 -37 -43
-62 -52 -111 -6 -34 -8 -72 -4 -82 17 -43 9 -74 -26 -110 -33 -32 -85 -49 -85
-26 0 4 -19 32 -42 61 -40 51 -42 56 -46 136 -5 89 9 138 63 224 12 19 28 53
35 75 16 51 53 91 110 120 135 68 174 94 197 129 28 43 35 79 19 101 -13 18
-14 18 -44 -3 -16 -12 -34 -22 -39 -22 -4 0 -37 -21 -73 -46 -180 -126 -254
-167 -325 -183 -121 -27 -122 -27 -163 -99 -20 -37 -45 -80 -54 -97 -10 -16
-23 -42 -30 -58 -7 -15 -16 -27 -19 -27 -4 0 -24 -16 -45 -35 -24 -23 -47 -35
-65 -35 -54 0 -59 -6 -52 -74 5 -60 4 -63 -25 -88 -20 -16 -48 -28 -83 -32
-34 -5 -63 -16 -83 -33 -28 -24 -36 -25 -103 -20 -72 5 -123 26 -212 85 -39
26 -71 29 -71 7 0 -59 102 -181 187 -221 61 -30 92 -30 189 1 43 14 86 25 94
25 9 0 27 -18 40 -41 56 -93 96 -147 145 -199 28 -30 54 -60 56 -65 6 -15 94
-85 106 -85 6 0 16 -7 23 -15 7 -9 32 -24 54 -35 23 -10 56 -30 75 -44 19 -14
41 -26 48 -26 7 0 21 -4 31 -9 9 -5 31 -13 47 -18 28 -8 30 -12 30 -58 -1 -52
-7 -63 -75 -136 -19 -20 -43 -49 -53 -63 -17 -24 -278 -206 -296 -206 -13 0
-111 -108 -111 -122 0 -17 62 -51 130 -71 30 -9 99 -19 153 -23 76 -4 100 -10
104 -22 4 -9 -2 -22 -13 -31 -11 -9 -32 -36 -46 -60 -49 -82 -173 -215 -224
-241 -16 -8 -31 -17 -34 -20 -25 -26 -102 -62 -166 -80 -44 -12 -86 -27 -95
-33 -15 -11 -99 -178 -99 -196 0 -18 -93 -79 -137 -90 -27 -7 -70 -19 -98 -27
-27 -8 -129 -32 -225 -55 -96 -23 -182 -43 -190 -46 -191 -72 -315 -125 -350
-152 -19 -15 -52 -36 -73 -46 -21 -10 -49 -32 -63 -50 -23 -31 -24 -36 -24
-219 0 -210 7 -242 62 -276 28 -17 35 -18 53 -6 43 28 55 88 49 246 -6 141 -5
146 17 179 42 61 269 163 467 211 70 17 150 37 177 45 28 7 79 19 115 25 102
19 219 65 279 110 46 35 111 102 111 114 0 6 12 35 27 64 25 50 31 55 129 102
57 27 123 67 147 90 24 22 48 40 53 40 24 0 197 205 249 295 16 28 35 56 42
63 7 7 16 24 19 38 9 34 29 43 136 54 51 6 127 19 168 30 41 11 84 20 95 20
18 0 85 23 200 67 81 31 171 76 215 107 56 40 141 89 145 84 1 -1 18 -39 36
-83 18 -44 57 -115 86 -158 29 -43 53 -81 53 -85 0 -6 57 -72 107 -125 54 -56
148 -133 188 -153 28 -14 57 -29 65 -34 8 -4 46 -21 85 -37 97 -40 97 -49 6
-187 l-46 -68 0 -117 c0 -111 1 -119 28 -159 43 -66 61 -58 87 40 12 46 36
112 52 148 17 36 37 80 45 98 16 36 32 110 40 187 6 54 -13 149 -33 165 -6 6
-36 13 -65 16 -36 4 -68 16 -94 34 -22 15 -75 46 -119 69 -43 23 -99 59 -124
81 -24 22 -49 40 -53 40 -5 0 -16 14 -24 31 -9 16 -31 47 -48 67 -37 43 -42
51 -97 152 -23 41 -44 89 -47 105 -4 17 -19 56 -35 87 -15 31 -28 61 -28 67 0
6 -11 35 -25 65 -49 107 -49 107 -19 131 26 21 30 33 57 170 7 33 19 70 28 83
15 21 22 22 80 17 35 -3 80 -7 99 -10 69 -10 369 24 470 53 19 6 63 18 98 28
l63 17 32 -38 c30 -36 107 -203 107 -233 0 -7 19 -49 42 -94 58 -111 84 -123
263 -123 73 0 143 5 160 12 17 6 57 19 90 28 33 9 90 32 127 51 63 31 98 42
98 29 0 -20 -36 -84 -66 -119 -70 -82 -85 -95 -141 -127 -32 -18 -65 -38 -73
-45 -27 -23 -172 -62 -250 -67 -41 -3 -83 -8 -92 -12 -23 -9 -35 -52 -47 -166
-15 -131 4 -280 48 -381 65 -153 52 -330 -35 -451 -19 -26 -34 -51 -34 -55 0
-4 -13 -23 -30 -42 -16 -19 -29 -42 -30 -50 0 -9 -19 -41 -42 -73 -24 -31 -51
-83 -60 -114 -24 -79 -33 -159 -19 -167 14 -9 51 11 51 28 0 25 110 156 131
156 4 0 47 -52 95 -115 49 -63 96 -117 104 -120 46 -14 90 -95 90 -162 0 -45
20 -122 39 -153 21 -34 36 -45 102 -80 81 -42 202 -176 256 -282 57 -114 80
-166 97 -218 8 -25 28 -81 46 -125 73 -185 82 -211 87 -235 2 -14 17 -41 33
-60 l29 -35 118 1 c104 1 129 5 213 33 52 18 104 40 115 50 11 10 30 22 42 25
43 13 40 81 -4 116 -32 25 -113 27 -196 5 -131 -34 -215 -26 -210 21 1 10 -4
37 -12 59 -8 22 -19 65 -25 97 -17 87 -120 279 -184 344 -23 23 -59 60 -81 83
-41 43 -68 64 -187 146 l-68 45 2 78 c2 59 -3 87 -18 119 -22 48 -119 140
-179 171 -22 11 -77 52 -122 91 -68 59 -85 80 -102 126 -30 79 -27 109 13 158
18 23 37 53 41 66 4 14 15 33 25 44 10 10 21 40 24 65 4 26 12 79 18 118 12
78 -2 287 -27 399 -20 90 -45 238 -45 268 0 45 63 70 254 101 137 22 175 32
214 55 76 47 82 46 169 -2 43 -24 94 -53 113 -63 19 -10 37 -21 40 -24 3 -3
21 -17 40 -32 19 -14 49 -39 65 -55 17 -15 51 -44 75 -63 87 -69 290 -288 290
-313 0 -7 22 -36 49 -66 28 -29 59 -73 71 -98 12 -25 35 -66 53 -93 49 -73 68
-110 92 -175 12 -33 39 -94 59 -136 20 -42 36 -85 36 -96 0 -11 9 -45 21 -74
32 -81 35 -90 52 -144 21 -63 86 -310 93 -350 3 -16 13 -64 23 -105 11 -41 27
-124 36 -185 10 -60 21 -117 26 -126 12 -24 103 -33 153 -15 55 19 65 49 55
167 -17 209 -48 406 -73 478 -9 24 -16 53 -16 65 0 11 -19 73 -41 136 -22 63
-44 129 -48 145 -4 17 -22 61 -39 98 -18 38 -32 71 -32 73 0 8 -86 183 -113
229 -69 121 -166 261 -227 327 -69 76 -78 112 -33 129 34 13 21 27 -45 50
-126 45 -198 86 -363 209 -100 75 -187 129 -289 178 -121 59 -124 62 -124 126
1 38 12 76 38 137 42 94 77 214 69 235 -7 18 -14 18 -55 0 -18 -8 -60 -24 -93
-36 -33 -12 -76 -29 -95 -37 -56 -25 -173 -51 -192 -44 -9 3 -80 66 -157 139
-145 138 -174 178 -187 263 -7 43 27 143 52 153 8 3 14 12 14 21 0 8 17 34 38
58 93 103 150 198 152 250 0 27 34 20 52 -10 9 -16 32 -58 51 -95 20 -37 55
-93 79 -125 23 -32 64 -89 90 -128 27 -38 79 -104 118 -145 38 -41 84 -93 101
-115 56 -73 381 -395 397 -395 3 0 27 -18 53 -40 26 -22 51 -40 54 -40 4 0 26
-16 49 -35 24 -19 46 -35 50 -35 11 0 290 -162 301 -175 19 -23 74 -45 111
-45 28 0 48 9 80 36 27 22 49 32 56 28 7 -5 43 -32 81 -60 48 -37 90 -60 147
-78 43 -14 86 -26 94 -26 25 0 73 67 96 134 12 36 30 76 40 88 l18 23 29 -21
c15 -11 47 -46 71 -77 70 -91 167 -116 330 -82 72 15 195 65 206 84 4 5 32 23
64 39 31 16 97 50 146 76 48 25 96 46 106 46 9 0 25 -9 36 -21 10 -11 40 -37
67 -56 57 -42 176 -178 234 -270 23 -36 51 -75 62 -87 10 -11 24 -40 30 -63 7
-24 16 -43 22 -43 5 0 17 -17 25 -37 8 -21 23 -56 34 -78 10 -22 28 -65 40
-95 11 -30 27 -69 35 -87 8 -17 15 -35 15 -41 0 -5 16 -44 35 -86 19 -43 35
-82 35 -89 0 -7 6 -24 14 -38 7 -15 37 -93 66 -175 29 -82 59 -158 66 -169 8
-11 14 -27 14 -36 0 -17 62 -140 130 -259 103 -180 123 -213 141 -231 10 -10
19 -25 19 -31 0 -7 45 -61 101 -121 100 -106 212 -198 279 -229 19 -9 80 -37
136 -62 55 -26 117 -49 137 -53 42 -6 39 0 56 -134 14 -108 36 -176 70 -214
15 -16 42 -52 61 -80 43 -62 45 -64 105 -96 66 -36 159 -49 265 -38 113 11
126 15 190 64 62 48 160 140 160 151 0 4 15 25 33 48 18 23 45 67 60 99 15 32
33 59 40 62 6 2 278 6 603 9 l591 5 25 -27 c14 -15 44 -63 67 -107 54 -101
180 -233 260 -272 73 -34 183 -47 284 -34 73 10 81 13 145 67 95 80 124 111
167 178 66 104 83 204 45 269 -12 20 -23 62 -27 99 -4 53 -2 72 15 109 22 46
52 84 88 109 103 73 271 239 280 277 11 43 -11 53 -144 63 -66 5 -153 17 -194
26 -40 9 -95 20 -123 25 -137 23 -320 96 -480 190 -57 34 -56 34 -230 -5 -66
-15 -174 -33 -240 -41 -66 -8 -156 -19 -200 -24 -44 -5 -174 -15 -290 -21
-235 -14 -660 -1 -840 25 -55 7 -170 23 -255 35 -168 23 -249 44 -362 91 -81
34 -139 82 -121 100 7 7 35 2 99 -21 123 -44 166 -55 339 -84 495 -83 818 -99
1235 -61 191 17 405 49 515 77 22 5 80 16 128 24 86 15 89 15 135 -7 26 -13
66 -35 89 -50 81 -50 223 -98 565 -189 106 -28 138 -32 355 -41 360 -15 441 0
584 108 89 67 104 100 71 159 -48 89 -73 145 -67 154 3 5 28 16 56 24 88 26
188 135 227 247 15 45 33 235 38 410 5 161 1 169 -91 177 -31 2 -58 8 -60 12
-3 5 1 37 9 72 8 34 17 133 20 218 6 158 -4 269 -29 325 -8 17 -20 46 -28 65
-17 42 -137 182 -229 269 -71 67 -193 150 -268 185 -48 22 -165 27 -301 11
-64 -7 -66 -6 -100 25 -44 40 -92 61 -153 66 -45 3 -63 -3 -191 -66 -88 -44
-153 -70 -173 -70 -32 0 -56 10 -232 93 -47 22 -103 42 -126 45 -74 8 -154
-49 -228 -163 -50 -77 -96 -154 -96 -163 0 -4 -23 -39 -51 -77 -61 -84 -115
-121 -195 -136 -70 -13 -77 -18 -104 -74 -47 -96 -53 -247 -14 -344 21 -52 28
-89 32 -173 2 -58 1 -115 -3 -125 -4 -10 -7 -32 -6 -48 1 -17 -3 -78 -8 -135
-7 -61 -8 -118 -3 -135 12 -42 5 -58 -19 -45 -54 29 -86 155 -93 370 -8 233
-36 324 -120 387 -25 18 -60 60 -84 101 -23 38 -52 76 -65 85 -13 9 -30 22
-38 29 -77 75 -250 112 -651 138 -128 9 -196 19 -305 47 -15 4 -23 -1 -28 -16
-9 -28 6 -51 66 -105 67 -60 144 -84 314 -97 375 -28 401 -33 507 -102 78 -50
114 -90 138 -155 23 -61 14 -127 -24 -173 -77 -91 -226 -209 -264 -209 -12 0
-28 22 -50 64 -31 64 -52 96 -82 123 -120 108 -212 148 -373 163 -62 6 -132
14 -157 18 l-45 7 -72 145 c-40 80 -91 191 -113 247 -36 91 -40 111 -40 188 0
78 2 88 25 111 32 32 45 57 45 89 0 29 -19 40 -54 31 -33 -8 -83 -87 -97 -154
-13 -62 -15 -181 -4 -234 9 -48 87 -210 174 -363 47 -84 47 -103 0 -116 -42
-11 -172 -79 -227 -118 -92 -65 -163 -174 -133 -204 8 -8 23 2 54 34 94 99
227 147 425 154 168 6 286 -6 315 -33 12 -11 39 -25 60 -32 20 -6 37 -15 37
-18 0 -4 15 -14 32 -22 18 -7 52 -33 75 -57 60 -60 70 -113 22 -113 -11 0 -37
-9 -57 -19 -36 -19 -76 -36 -117 -51 -11 -4 -37 -15 -58 -24 -21 -9 -42 -16
-48 -16 -6 0 -35 -11 -65 -25 -30 -14 -61 -25 -69 -25 -8 0 -34 -11 -58 -25
-24 -13 -71 -33 -104 -45 l-59 -20 -60 24 c-54 22 -77 25 -220 27 -87 1 -167
6 -176 10 -11 6 -19 28 -23 66 -9 73 -35 141 -128 326 -41 81 -78 167 -81 190
-9 60 -20 75 -42 57 -14 -13 -16 -28 -11 -105 3 -49 12 -108 20 -130 28 -75
76 -240 91 -310 28 -138 34 -151 84 -193 58 -48 86 -53 294 -58 88 -1 166 -8
178 -14 29 -15 26 -48 -17 -162 -35 -95 -37 -98 -67 -98 -32 1 -50 9 -159 73
-120 69 -200 44 -228 -70 -16 -67 -16 -429 0 -548 18 -124 57 -236 102 -286
15 -17 33 -43 39 -59 7 -17 24 -33 41 -39 29 -10 48 -36 35 -48 -9 -9 -65 11
-149 53 -37 19 -77 34 -87 34 -10 0 -22 5 -25 10 -4 6 -32 26 -63 46 -72 46
-173 143 -222 215 -21 31 -63 89 -94 129 -30 41 -58 86 -61 102 -4 15 -15 38
-26 52 -11 14 -31 51 -46 83 -14 32 -38 85 -53 118 -44 95 -122 285 -141 345
-15 48 -60 174 -119 335 -10 28 -40 97 -67 155 -27 58 -58 125 -68 150 -10 25
-24 52 -29 60 -6 8 -20 31 -30 50 -84 155 -245 339 -358 409 -46 28 -48 52 -7
82 27 19 157 69 180 69 4 0 24 11 43 24 70 47 78 64 52 114 -20 38 -55 68 -97
81 -47 15 -88 60 -100 107 -4 22 -9 88 -9 147 0 177 -26 208 -219 267 -66 20
-82 21 -145 13 -71 -10 -212 -63 -231 -88 -6 -6 -35 -28 -65 -48 -30 -20 -80
-54 -110 -77 -30 -22 -62 -43 -70 -47 -8 -4 -19 -12 -25 -19 -10 -12 -126 -54
-151 -54 -6 0 -19 11 -28 25 -9 14 -24 25 -33 25 -15 0 -104 24 -147 39 -10 4
-26 25 -35 48 -25 64 -148 185 -261 257 -25 16 -56 37 -70 48 -14 10 -54 39
-90 63 -128 90 -244 184 -285 232 -16 20 -46 54 -65 77 -19 23 -45 62 -58 86
-36 69 -42 75 -122 109 -76 31 -96 49 -185 159 -19 24 -35 49 -35 55 0 7 -7
24 -14 39 -14 27 -42 111 -105 311 -32 104 -112 277 -167 364 -39 61 -109 134
-156 163 -63 39 -199 100 -288 131 -50 16 -102 37 -118 45 -15 7 -33 14 -40
14 -15 0 -64 26 -112 59 -40 27 -130 112 -130 122 0 3 19 19 43 34 37 25 162
149 317 315 96 104 150 191 150 246 0 12 4 25 9 28 5 3 12 18 16 33 3 16 13
42 20 58 7 17 32 77 55 134 53 133 64 154 107 202 21 23 33 45 29 54 -5 13
-10 13 -48 -1 -52 -20 -121 -84 -193 -179 -80 -106 -96 -120 -181 -162 -72
-35 -86 -38 -154 -36 -41 0 -95 6 -120 12 -25 6 -93 11 -151 11 -106 0 -159
-12 -191 -43 -7 -7 -47 -36 -88 -65 -55 -37 -93 -55 -143 -66 -77 -18 -186
-21 -249 -6 -156 35 -223 54 -333 93 -85 29 -219 67 -240 67 -8 0 -15 -3 -15
-7 1 -20 17 -31 204 -142 23 -13 102 -54 176 -91 118 -58 147 -68 225 -79 84
-11 97 -11 170 9 44 12 123 44 175 73 206 111 231 121 300 121 49 0 297 -48
309 -60 15 -15 -126 -214 -153 -214 -7 0 -25 -14 -41 -30 -16 -17 -57 -47 -90
-66 -33 -19 -80 -48 -105 -64 -25 -15 -54 -29 -65 -29 -11 -1 -36 -12 -56 -25
-88 -60 -251 -79 -436 -51 -65 10 -131 25 -147 33 -16 8 -53 22 -82 32 -30 11
-59 23 -66 29 -58 48 -78 61 -92 61 -51 0 25 -94 124 -153 102 -61 186 -102
240 -118 25 -7 57 -21 72 -31 41 -28 175 -44 252 -30 103 19 191 12 231 -19
18 -14 -20 -262 -47 -309 -5 -8 -14 -35 -21 -59 -7 -25 -17 -46 -23 -48 -6 -2
-31 22 -54 54 -24 32 -54 69 -65 83 -36 41 -38 59 -8 86 34 31 25 49 -36 81
-23 12 -50 32 -61 46 -23 29 -69 50 -101 45 -28 -4 -95 -88 -111 -140 -16 -53
0 -68 68 -68 60 0 69 -9 66 -60 -5 -66 -80 -182 -130 -201 -24 -9 -65 2 -82
22 -3 3 -35 23 -72 43 -37 21 -78 52 -89 69 -12 18 -36 48 -54 67 -37 41 -123
159 -146 200 -8 15 -34 50 -56 77 -22 26 -48 64 -58 83 -10 19 -33 54 -51 77
-19 23 -34 46 -34 51 0 5 -11 22 -25 38 -14 16 -59 76 -102 134 -42 58 -93
125 -113 150 -20 25 -42 61 -50 80 -23 63 -74 175 -82 180 -18 14 -38 84 -38
137 l0 58 -58 28 c-72 35 -85 46 -153 132 -66 83 -114 203 -133 329 -14 96
-10 115 36 147 27 20 49 25 122 29 61 3 91 9 94 18 2 7 -28 45 -66 84 -70 70
-70 70 -77 136 -6 65 -1 154 10 172 3 5 10 31 15 59 26 136 36 156 110 211
171 127 457 179 715 132 33 -6 105 -16 160 -22 110 -12 199 -23 317 -40 80
-11 168 -42 168 -59 0 -5 10 -13 23 -17 12 -4 36 -17 53 -30 17 -13 35 -24 39
-24 4 0 33 -12 64 -27 63 -30 120 -51 401 -149 25 -9 94 -33 153 -54 59 -21
117 -46 128 -56 25 -23 46 -95 64 -224 15 -108 17 -132 35 -385 6 -82 13 -158
16 -167 9 -30 85 -24 125 9 33 28 82 124 92 183 10 55 -8 234 -36 360 -14 63
-29 143 -32 177 -7 60 -7 62 16 67 13 2 49 9 80 16 31 6 86 27 123 46 53 28
66 40 66 59 0 36 -53 75 -103 75 -48 0 -150 -15 -218 -32 -55 -13 -115 -4
-128 21 -7 12 -4 44 9 102 10 46 26 127 35 179 29 164 64 308 91 368 14 31 32
76 39 99 7 23 22 55 34 71 11 17 21 37 21 45 0 20 42 80 114 162 123 140 151
205 125 297 -8 31 -28 52 -102 111 -104 82 -168 125 -319 210 -36 21 -72 44
-78 52 -7 8 -16 15 -21 15 -5 0 -38 14 -74 30 -36 17 -70 30 -75 30 -6 0 -10
4 -10 9 0 8 -117 68 -225 116 -72 32 -288 98 -370 114 -74 14 -1045 20 -1075
7z m1151 -191 c98 -14 165 -28 270 -59 45 -14 190 -86 219 -110 8 -7 28 -17
43 -24 37 -16 42 -35 23 -85 -9 -24 -16 -49 -16 -57 0 -28 -96 -206 -135 -250
-27 -31 -125 -176 -125 -186 0 -4 -10 -34 -22 -67 l-22 -59 -56 5 c-63 7 -144
27 -229 56 -31 11 -71 22 -89 26 -18 4 -60 18 -92 31 -32 13 -91 27 -129 30
-39 4 -76 12 -81 19 -8 9 -4 28 13 66 43 98 56 134 62 174 11 75 78 260 111
311 24 36 34 63 34 91 0 33 5 43 33 64 17 13 43 27 57 30 14 4 25 7 26 8 0 0
47 -6 105 -14z m-398 -4709 c8 -20 116 -101 170 -126 26 -12 49 -26 52 -30 8
-13 -24 -80 -41 -87 -8 -3 -24 3 -36 13 -33 30 -106 131 -121 166 -8 18 -21
39 -30 47 -10 7 -17 17 -17 22 0 14 17 10 23 -5z m-376 -111 c63 -32 90 -107
103 -287 10 -146 29 -201 81 -240 49 -36 76 -40 215 -28 153 13 403 83 454
126 9 8 47 30 85 50 91 47 161 101 235 180 32 35 63 64 69 64 41 0 -22 -201
-87 -278 -21 -24 -52 -65 -69 -90 -62 -88 -143 -152 -194 -152 -10 0 -36 -9
-56 -20 -21 -11 -47 -20 -59 -20 -31 0 -89 -43 -89 -65 0 -16 7 -20 35 -19 59
1 160 25 263 62 66 23 101 32 108 25 10 -10 -34 -115 -60 -147 -16 -19 -49
-118 -55 -166 -9 -64 -27 -109 -61 -155 -41 -55 -187 -205 -200 -205 -6 0 -29
-13 -51 -29 -21 -15 -59 -35 -84 -44 -25 -9 -76 -27 -115 -41 -111 -40 -282
-60 -475 -53 -134 4 -171 2 -203 -10 -47 -19 -54 -14 -90 72 -74 176 -53 419
56 655 14 30 30 66 36 80 6 14 40 66 76 115 36 50 70 101 76 115 7 17 9 106 6
273 -6 269 -8 261 50 232z m4280 -1360 c41 -17 75 -53 103 -107 11 -20 24 -39
29 -42 5 -3 12 -23 15 -43 4 -21 9 -46 12 -55 6 -20 -48 -84 -79 -94 -12 -3
-31 -14 -42 -24 -31 -27 -60 -33 -75 -15 -11 14 -6 23 35 65 48 48 48 49 31
74 -21 34 -36 33 -72 -5 -31 -33 -128 -89 -153 -89 -31 0 -140 -59 -156 -84
-19 -28 -17 -74 6 -158 13 -52 3 -78 -32 -78 -40 0 -28 -72 14 -86 19 -6 95
40 189 115 193 156 279 203 388 211 138 9 226 -25 128 -50 -73 -19 -283 -129
-304 -159 -7 -10 -38 -35 -68 -56 -31 -21 -56 -42 -56 -47 0 -4 -6 -8 -14 -8
-8 0 -36 -15 -62 -33 -75 -51 -152 -84 -227 -100 -94 -19 -222 -2 -275 38 -21
15 -49 35 -64 44 -16 9 -28 21 -28 26 0 6 11 51 24 100 49 186 76 276 90 304
14 27 80 80 237 191 238 168 319 201 406 165z m-764 -242 c44 -6 44 7 4 -138
-39 -141 -57 -194 -67 -200 -6 -3 -10 -17 -10 -29 0 -13 -7 -29 -14 -36 -8 -6
-23 -33 -32 -58 -10 -26 -27 -63 -39 -82 -12 -19 -34 -62 -49 -95 -42 -93 -40
-90 -82 -88 -21 2 -42 7 -48 13 -5 5 -17 10 -25 11 -28 1 -106 64 -109 88 -2
14 22 73 58 145 89 172 141 270 151 281 5 5 9 15 9 22 0 16 45 87 93 145 37
45 37 45 80 36 23 -5 59 -12 80 -15z m6000 -10 c39 -27 130 -144 147 -189 17
-43 53 -84 98 -110 40 -24 51 -26 121 -21 42 3 90 9 107 12 24 5 37 2 59 -18
41 -35 38 -103 -9 -172 -55 -82 -58 -92 -54 -175 2 -64 7 -81 24 -96 32 -28
134 -153 134 -164 0 -6 -15 -27 -32 -47 -18 -21 -40 -51 -49 -68 -14 -27 -22
-53 -59 -193 -10 -40 -33 -63 -47 -48 -3 3 2 34 11 68 29 101 31 198 7 327
-11 63 -25 119 -31 126 -5 6 -21 42 -35 79 -32 85 -131 258 -180 313 -43 50
-189 161 -296 227 -78 48 -127 65 -186 66 -18 0 -33 4 -33 10 0 10 97 75 145
97 41 18 111 8 158 -24z m-751 -3 c48 -16 95 -33 105 -39 10 -5 39 -15 66 -22
70 -17 79 -43 15 -41 -50 3 -165 -28 -202 -53 -18 -12 -49 -28 -68 -34 -20 -7
-44 -21 -53 -31 -10 -11 -25 -20 -33 -20 -12 0 -87 -55 -177 -131 -36 -30
-129 -123 -198 -197 -37 -40 -72 -70 -77 -67 -14 9 -12 52 5 109 19 63 39 84
84 92 104 17 168 65 249 188 28 43 52 83 52 87 0 17 121 189 133 189 7 0 51
-13 99 -30z m1033 -10 c51 -7 119 -32 190 -70 67 -36 84 -46 102 -63 10 -8 30
-20 45 -26 32 -12 102 -97 119 -146 7 -19 17 -35 21 -35 4 0 8 -8 8 -17 0 -10
11 -51 25 -92 14 -41 30 -104 35 -140 10 -78 17 -328 8 -336 -7 -7 -208 191
-208 205 0 5 14 29 30 54 39 58 60 126 60 200 0 94 -74 226 -155 276 -29 17
-200 50 -263 50 -68 0 -112 44 -112 113 0 39 8 50 29 41 9 -4 39 -10 66 -14z
m-567 -221 c54 -12 168 -64 197 -90 72 -65 84 -79 157 -179 32 -43 62 -114
107 -247 37 -110 48 -339 27 -557 -6 -56 -4 -54 -71 -91 -27 -15 -61 -35 -75
-45 -14 -10 -52 -30 -85 -45 -33 -15 -62 -30 -65 -35 -12 -18 -179 -114 -244
-140 -39 -16 -86 -36 -104 -46 -18 -9 -97 -29 -174 -44 -106 -22 -146 -34
-164 -51 -13 -12 -24 -28 -24 -35 0 -29 -65 -32 -137 -5 -58 21 -111 61 -193
147 -92 97 -142 198 -155 314 -3 30 -11 82 -17 115 -15 82 4 316 31 383 10 26
29 72 40 102 24 60 49 101 128 206 45 60 92 107 216 215 54 46 202 132 242
140 51 10 303 2 363 -12z m-1440 -748 c0 -165 24 -374 48 -428 8 -17 14 -38
14 -46 0 -9 5 -19 10 -22 6 -4 19 -23 29 -43 32 -63 98 -129 157 -157 63 -30
74 -49 74 -133 0 -54 21 -101 68 -150 18 -20 5 -32 -33 -32 -81 0 -166 67
-194 152 -7 21 -16 40 -21 43 -5 3 -14 22 -20 43 -36 112 -107 216 -178 259
-20 13 -40 23 -44 23 -3 0 -16 -16 -27 -36 -20 -33 -21 -41 -10 -90 10 -46 10
-56 -5 -80 -16 -24 -21 -25 -64 -19 -26 4 -72 15 -102 26 -58 20 -116 24 -140
9 -12 -7 -11 -12 5 -31 11 -12 29 -26 40 -31 11 -5 38 -20 60 -33 140 -83 230
-103 315 -69 48 19 65 10 74 -39 3 -18 24 -56 47 -86 22 -29 38 -56 34 -59 -3
-4 -61 -7 -128 -8 -67 -1 -157 -7 -199 -13 -74 -10 -195 -3 -243 15 -44 17
-98 71 -121 122 -18 41 -28 52 -46 52 -13 0 -29 -5 -36 -12 -15 -15 -15 -65
-1 -107 7 -19 8 -36 3 -41 -8 -8 -334 19 -439 36 -22 3 -60 18 -83 32 -39 22
-43 28 -38 54 8 41 86 147 143 194 25 21 65 56 88 77 23 20 48 37 54 37 7 0
29 13 49 29 20 16 48 32 62 36 14 4 32 13 40 20 8 7 47 28 85 47 140 70 314
163 340 183 15 11 48 37 73 58 26 20 50 37 53 37 10 0 113 130 131 165 15 29
26 62 49 154 18 74 27 30 27 -138z m1275 -1799 c80 -29 144 -72 158 -107 7
-16 19 -36 28 -43 25 -20 22 -229 -4 -301 -36 -98 -137 -154 -315 -175 -96
-11 -190 36 -274 139 -73 88 -84 248 -25 336 52 75 70 91 160 134 86 42 99 45
154 41 33 -2 86 -13 118 -24z m-2263 -33 c36 -12 74 -31 85 -43 12 -12 28 -25
37 -29 18 -6 50 -64 75 -136 20 -59 11 -116 -37 -217 -31 -66 -47 -87 -82
-111 -94 -64 -215 -81 -315 -44 -111 40 -163 140 -179 341 -8 98 11 141 89
205 86 70 183 80 327 34z"/>
<path d="M15407 3343 c-10 -19 -16 -59 -9 -69 8 -14 170 -47 203 -42 33 4 37
37 8 60 -41 32 -109 58 -154 58 -24 0 -46 -3 -48 -7z"/>
<path d="M15289 3016 c-47 -17 -119 -75 -124 -100 -2 -12 -11 -57 -21 -100
-12 -60 -15 -111 -11 -205 8 -206 45 -309 150 -414 95 -96 199 -126 337 -96
48 10 53 15 93 77 58 91 77 149 87 265 7 75 6 115 -5 166 -19 91 -63 208 -90
238 -43 48 -50 55 -116 103 -100 73 -211 98 -300 66z m199 -108 c99 -61 148
-155 162 -313 10 -105 2 -151 -42 -247 -36 -78 -54 -88 -153 -88 -61 0 -63 1
-108 48 -127 130 -159 204 -158 365 0 92 3 115 24 161 24 51 61 88 102 99 37
10 139 -4 173 -25z"/>
<path d="M16010 2863 c0 -61 23 -239 32 -250 15 -18 55 -16 62 3 11 28 6 168
-7 190 -38 65 -87 97 -87 57z"/>
<path d="M6643 8531 c-50 -9 -111 -50 -165 -110 -45 -51 -58 -79 -58 -122 0
-40 25 -38 46 4 22 43 53 77 84 90 14 6 103 13 197 17 143 5 176 9 190 23 16
15 15 18 -2 37 -41 45 -81 61 -167 65 -46 2 -102 0 -125 -4z"/>
<path d="M5904 8396 c-27 -12 -32 -20 -37 -62 -3 -27 -2 -52 2 -57 4 -4 50
-10 102 -14 118 -7 134 2 123 76 -4 25 -11 52 -16 59 -14 16 -134 15 -174 -2z"/>
<path d="M7817 8122 c-37 -41 -12 -122 40 -133 49 -10 73 12 73 65 0 73 -70
115 -113 68z"/>
<path d="M6773 8010 c-29 -17 -33 -25 -33 -63 0 -53 27 -87 70 -87 63 0 93 93
45 144 -29 31 -40 32 -82 6z"/>
<path d="M7443 7844 c-3 -8 4 -28 16 -44 16 -23 21 -44 21 -94 l0 -65 -47 -21
c-36 -16 -61 -20 -98 -17 -36 4 -55 1 -67 -10 -17 -15 -16 -17 3 -44 30 -42
67 -58 153 -64 l75 -5 55 47 c59 52 76 85 76 146 0 48 -49 121 -110 161 -45
30 -68 33 -77 10z"/>
<path d="M7740 7536 c0 -24 33 -54 90 -83 61 -31 54 -29 163 -44 44 -6 82 -7
85 -4 12 11 -35 42 -75 50 -44 8 -206 75 -211 87 -6 14 -52 9 -52 -6z"/>
<path d="M7095 7427 c-16 -13 -50 -34 -75 -48 -25 -13 -60 -35 -78 -48 -18
-13 -65 -40 -104 -60 -116 -58 -95 -86 39 -51 107 27 193 73 235 123 47 57 50
64 43 87 -8 26 -23 25 -60 -3z"/>
<path d="M3675 7184 c-27 -19 -55 -38 -61 -43 -6 -5 -25 -12 -42 -16 -50 -10
-251 -99 -316 -138 -68 -41 -151 -118 -172 -159 -20 -38 -41 -47 -82 -36 -39
11 -160 6 -212 -9 -37 -11 -78 -30 -279 -133 -73 -37 -141 -65 -167 -68 -44
-5 -64 -26 -44 -46 6 -6 46 -10 93 -10 64 1 95 7 143 27 245 104 323 114 436
56 67 -34 106 -37 141 -9 34 27 41 52 26 94 -12 33 -11 37 22 80 19 24 41 47
49 50 8 3 36 21 62 40 25 19 73 44 105 55 190 65 227 85 303 163 69 70 87 103
69 124 -15 18 -15 18 -74 -22z"/>
<path d="M1733 6591 c-41 -10 -130 -57 -166 -87 -16 -13 -33 -24 -38 -24 -5 0
-9 -6 -9 -12 0 -7 -11 -26 -24 -43 l-24 -30 -75 15 c-63 13 -86 14 -143 3 -82
-14 -147 -32 -154 -42 -3 -4 -25 -15 -50 -25 -62 -24 -120 -65 -120 -86 0 -42
82 -69 132 -44 15 8 29 13 31 12 6 -5 77 36 77 44 0 17 97 51 146 51 42 0 60
-6 100 -34 99 -69 141 -82 184 -59 27 14 43 73 36 133 l-6 52 46 35 c26 19 52
37 58 40 61 28 127 75 124 89 -4 18 -71 25 -125 12z"/>
<path d="M4984 6392 c-12 -8 -54 -96 -54 -113 0 -10 -34 -99 -49 -129 -28 -54
-70 -298 -56 -321 4 -5 -1 -12 -9 -15 -14 -5 -86 60 -86 78 0 4 -10 18 -22 32
-13 13 -34 39 -48 56 -46 57 -116 78 -124 38 -33 -172 -44 -349 -28 -450 12
-76 63 -173 95 -182 14 -3 18 -10 14 -23 -28 -85 -70 -200 -78 -208 -5 -5 -9
-17 -9 -26 0 -20 -25 -75 -84 -184 -24 -44 -71 -133 -105 -198 -34 -65 -77
-140 -96 -166 -19 -27 -35 -56 -35 -65 0 -9 -9 -35 -20 -56 -11 -22 -23 -60
-26 -84 -6 -39 -4 -46 19 -60 34 -23 122 -32 142 -16 9 8 15 29 15 55 0 26 6
48 15 55 8 7 15 18 15 24 0 7 11 23 24 35 13 12 31 36 39 54 9 18 45 91 80
162 35 72 76 163 90 202 44 122 160 364 183 384 8 7 24 29 34 48 25 48 135
154 188 182 46 23 69 56 59 83 -4 9 -14 16 -24 16 -43 1 -60 31 -68 120 -16
171 -6 374 26 559 11 65 12 121 2 121 -5 0 -13 -4 -19 -8z m-290 -680 c4 -10
24 -37 47 -61 47 -48 63 -91 45 -116 -17 -23 -72 -11 -88 18 -14 24 -36 119
-37 155 -1 27 25 30 33 4z"/>
<path d="M2521 5792 c-25 -12 -38 -28 -48 -57 -7 -22 -17 -49 -22 -60 -5 -11
-17 -43 -25 -70 -19 -61 -39 -74 -118 -81 -102 -9 -234 -94 -226 -147 4 -27
34 -34 56 -13 19 16 102 31 232 41 86 7 163 33 173 59 3 8 -5 24 -19 37 -13
12 -24 29 -24 36 0 17 38 84 97 171 24 34 43 68 43 76 0 30 -66 34 -119 8z"/>
<path d="M2213 4825 c-12 -9 -36 -42 -53 -74 -18 -32 -45 -71 -60 -86 -26 -25
-32 -27 -57 -17 -94 37 -221 -5 -211 -70 3 -22 5 -23 88 -20 63 3 107 -2 167
-17 85 -22 122 -26 124 -13 0 4 2 18 4 32 2 14 8 57 13 95 12 84 18 100 49
131 20 20 22 28 13 39 -16 19 -50 19 -77 0z"/>
<path d="M12055 3200 c-146 -13 -185 -21 -185 -37 0 -11 7 -13 32 -8 18 4 113
8 213 10 149 1 179 4 177 16 -2 7 -9 17 -15 21 -14 9 -110 8 -222 -2z"/>
<path d="M17454 3169 c-3 -6 -2 -15 4 -21 5 -5 135 -16 288 -24 154 -7 349
-18 434 -23 85 -5 283 -10 440 -10 304 -1 839 -11 930 -17 30 -2 177 -6 325
-9 149 -4 276 -9 284 -11 77 -25 -234 -35 -999 -33 -289 0 -581 3 -650 5 -69
2 -293 4 -498 4 -377 2 -538 -5 -510 -21 24 -13 261 -29 518 -34 540 -11 757
-20 793 -34 29 -11 29 -11 26 -94 -1 -45 -4 -86 -6 -92 -3 -10 -120 -11 -878
-7 -321 1 -381 0 -390 -10 -11 -11 258 -35 517 -46 158 -7 201 -13 187 -26 -2
-2 -147 -6 -321 -8 -215 -2 -321 -7 -329 -15 -21 -21 14 -28 136 -29 457 -5
993 -18 1011 -25 12 -4 38 -22 58 -39 33 -29 36 -37 36 -84 0 -51 -27 -127
-50 -141 -11 -7 -494 -19 -1177 -29 -204 -3 -233 -8 -233 -41 0 -8 11 -22 25
-33 28 -23 112 -30 440 -37 116 -3 284 -10 375 -15 91 -6 413 -12 715 -14 303
-2 602 -9 665 -15 256 -25 355 -31 567 -31 251 0 253 0 253 74 0 86 39 80
-541 82 -389 1 -554 5 -677 17 -90 9 -167 19 -173 22 -22 14 -1 257 24 282 9
8 74 9 262 2 138 -5 320 -12 405 -14 85 -2 250 -7 365 -10 209 -6 210 -6 239
17 73 58 79 72 47 124 l-19 31 -258 6 c-745 19 -968 20 -989 4 -18 -14 -18
-17 -5 -31 19 -18 347 -37 738 -41 145 -2 266 -6 270 -9 42 -42 -320 -54 -898
-30 -52 2 -107 4 -122 4 -17 1 -36 12 -52 31 -22 26 -26 40 -26 97 1 39 7 77
15 92 8 14 14 35 15 47 0 12 8 29 17 39 16 15 40 16 273 10 603 -15 792 -17
900 -9 l115 8 3 44 c4 51 -22 118 -47 125 -9 3 -119 7 -246 10 -126 3 -297 8
-380 11 -82 3 -487 8 -900 10 -412 3 -851 10 -975 15 -297 12 -357 12 -366 -1z"/>
<path d="M1730 3163 c-255 -18 -356 -24 -480 -31 -174 -9 -599 -6 -914 5 -270
10 -284 9 -292 -23 -15 -59 -43 -57 529 -49 455 5 1022 8 1082 6 11 -1 27 -6
35 -11 33 -20 -13 -35 -163 -52 -125 -14 -242 -17 -659 -17 -592 0 -787 -14
-728 -51 9 -6 290 -9 743 -7 615 2 732 1 749 -11 18 -13 20 -23 16 -99 -2 -61
-7 -86 -18 -93 -8 -5 -89 -10 -180 -10 -471 -2 -1360 -19 -1382 -26 -27 -8
-29 -33 -5 -48 19 -13 78 -24 130 -25 35 -2 16 -21 -20 -21 -61 0 -83 -10 -83
-35 0 -14 7 -26 18 -29 9 -3 103 -10 207 -15 180 -8 380 -5 920 17 201 8 271
20 249 42 -9 9 -933 32 -946 24 -10 -7 -48 5 -48 15 0 4 33 13 73 21 56 11
194 14 620 15 328 1 551 5 557 11 5 5 11 95 12 199 3 158 5 190 17 190 31 0
42 -123 36 -375 -4 -133 -2 -263 3 -300 10 -67 3 -100 -22 -100 -8 0 -17 7
-20 16 -15 39 -36 150 -36 190 0 25 -7 61 -15 81 -15 34 -17 36 -32 20 -14
-14 -17 -33 -14 -98 1 -44 -1 -110 -5 -145 -10 -100 6 -96 -376 -95 -178 0
-535 3 -795 7 l-471 7 -11 -39 c-15 -53 -14 -119 2 -132 18 -16 162 -31 312
-33 123 -2 216 6 420 33 55 7 237 13 465 14 206 0 645 2 975 3 330 2 742 7
915 12 173 4 412 11 530 13 118 3 334 10 480 15 146 6 332 11 414 12 82 0 155
3 163 6 15 6 17 29 4 37 -5 3 -141 10 -302 16 -491 16 -528 19 -546 46 -8 13
-19 39 -23 58 -10 45 5 197 21 207 7 4 71 10 143 13 420 19 624 27 816 32 295
8 362 18 310 44 -65 34 -756 30 -1065 -6 -160 -18 -282 -37 -291 -45 -7 -5
-14 -26 -17 -47 -26 -184 -35 -234 -45 -244 -20 -20 -30 26 -34 164 -4 153
-16 184 -74 200 -16 5 -123 6 -239 4 -115 -3 -370 -8 -565 -11 -195 -3 -418
-10 -495 -15 -158 -11 -279 -30 -268 -41 13 -13 207 -14 723 -4 704 14 833 13
855 -5 16 -13 17 -27 11 -150 -4 -74 -10 -138 -14 -141 -13 -13 -1421 -27
-1440 -15 -5 3 -64 6 -131 7 -67 1 -123 5 -126 9 -13 21 -14 366 -2 477 8 68
12 133 10 147 -3 13 0 27 6 30 5 4 205 9 443 11 238 3 469 7 513 10 44 3 235
5 425 6 262 1 355 4 385 15 31 10 42 11 51 1 7 -7 14 -60 17 -118 6 -114 22
-163 57 -174 46 -14 1130 11 1130 27 0 5 -19 9 -42 9 -24 0 -81 2 -128 4 -47
2 -269 6 -495 10 -282 4 -418 10 -435 18 -23 11 -25 18 -28 87 -1 46 3 85 11
100 12 24 18 25 123 31 105 6 169 21 134 33 -8 2 -46 7 -85 10 -177 13 -211
27 -146 61 25 12 99 15 490 14 253 0 472 3 487 7 l28 7 -25 10 c-86 33 -1018
41 -2292 18 l-537 -9 -48 24 c-47 24 -79 27 -212 17z m1996 -107 c4 -9 3 -20
-1 -24 -7 -8 -166 -8 -895 -3 -256 2 -572 0 -702 -4 -176 -6 -238 -5 -238 4 0
6 0 14 -1 19 0 4 9 9 21 12 12 3 424 7 916 9 823 3 894 2 900 -13z"/>
<path d="M11853 3063 c-18 -7 -16 -24 7 -48 15 -15 22 -46 31 -120 6 -55 12
-102 15 -104 9 -10 34 24 35 48 1 46 34 136 51 139 14 3 16 -7 15 -65 0 -37 3
-93 7 -125 11 -73 3 -106 -29 -114 -13 -3 -30 -13 -37 -21 -10 -13 -7 -20 19
-42 39 -34 45 -50 48 -144 2 -84 12 -105 41 -89 15 8 18 25 18 105 1 91 2 96
29 121 31 29 35 29 211 30 84 1 120 5 123 13 6 16 -23 22 -147 27 -192 8 -232
25 -137 57 26 8 49 18 52 21 3 2 -14 11 -37 18 -24 8 -51 21 -62 29 -22 19
-46 71 -46 102 0 33 38 77 85 99 33 15 43 24 38 36 -4 11 -15 15 -36 11 -27
-4 -178 6 -252 17 -16 2 -36 2 -42 -1z"/>
<path d="M9010 3035 c0 -8 1 -15 3 -16 1 0 70 -2 152 -4 83 -2 176 -7 208 -10
52 -5 57 -4 57 13 0 25 -54 32 -262 32 -134 0 -158 -2 -158 -15z"/>
<path d="M7164 2945 c-15 -37 49 -204 91 -240 31 -27 187 -210 202 -238 13
-23 18 -55 18 -112 0 -90 -11 -125 -87 -274 -69 -135 -89 -205 -78 -278 4 -32
13 -70 18 -84 14 -35 51 -62 68 -48 11 9 94 211 115 281 37 125 53 238 52 370
-1 163 -15 250 -54 327 -16 31 -29 63 -29 72 0 27 -25 42 -49 30 -38 -21 -70
-12 -115 29 -24 23 -47 53 -51 67 -11 45 -64 113 -87 113 -5 0 -11 -7 -14 -15z"/>
<path d="M9778 2798 l-3 -61 -55 -20 c-37 -12 -98 -21 -182 -26 -129 -7 -156
-15 -145 -45 5 -12 22 -16 74 -17 37 0 91 -4 118 -7 l50 -7 2 -40 c0 -22 4
-105 7 -185 3 -80 6 -150 6 -156 0 -18 33 -24 235 -40 403 -31 550 -35 965
-24 223 6 452 15 510 20 58 6 134 10 170 10 75 0 100 11 82 33 -8 9 -42 16
-94 20 -46 4 -137 11 -203 16 -66 5 -345 9 -620 9 -324 0 -537 4 -605 12 -58
7 -134 15 -170 19 l-65 6 -3 45 c-7 85 9 229 26 250 19 21 -62 19 997 35 384
6 475 10 475 25 0 20 -34 25 -190 27 -277 2 -272 2 -268 15 3 7 19 16 36 20
18 5 32 13 32 19 0 21 -53 25 -270 22 -124 -2 -320 -3 -437 -3 -207 0 -257 -8
-198 -30 14 -6 115 -10 223 -11 194 0 278 -10 202 -22 -97 -16 -572 -24 -624
-11 -23 5 -26 11 -26 48 0 56 -18 116 -35 116 -10 0 -15 -17 -17 -62z"/>
<path d="M7006 2378 c-9 -12 -16 -28 -16 -34 0 -7 -20 -39 -44 -72 -24 -33
-52 -75 -62 -93 -9 -19 -32 -51 -50 -72 -19 -20 -34 -42 -34 -47 0 -6 -20 -32
-44 -58 -24 -26 -55 -67 -70 -91 -15 -24 -36 -46 -47 -48 -10 -3 -19 -12 -19
-20 0 -22 -34 -61 -241 -272 -102 -105 -221 -217 -265 -250 -43 -34 -88 -68
-99 -76 -11 -9 -45 -32 -75 -52 -30 -19 -75 -52 -100 -72 -43 -35 -144 -101
-156 -101 -3 0 -22 -11 -42 -25 -20 -14 -45 -25 -54 -25 -10 0 -18 -4 -18 -9
0 -5 -24 -21 -52 -34 -108 -51 -167 -77 -175 -77 -4 -1 -26 -9 -48 -20 -22
-11 -48 -19 -57 -20 -10 0 -46 -11 -80 -24 -59 -21 -207 -58 -358 -87 -39 -8
-163 -14 -314 -15 -157 -1 -252 -6 -259 -13 -5 -5 -11 -48 -11 -95 -1 -80 1
-86 30 -122 40 -50 72 -60 230 -72 185 -15 479 7 629 46 22 6 69 18 105 27 36
10 79 23 95 30 17 7 57 23 90 35 129 49 291 129 461 226 61 35 116 64 122 64
6 0 12 3 14 8 2 4 21 20 43 36 92 68 395 350 395 368 0 3 32 39 71 79 39 41
85 94 102 119 17 25 49 68 72 95 22 28 49 61 58 75 68 100 110 166 115 179 3
9 10 23 17 31 6 8 18 31 25 50 7 19 21 46 31 60 9 14 23 45 30 70 7 25 16 49
21 55 4 5 8 15 8 23 0 8 7 28 15 45 21 46 45 145 45 187 0 20 5 41 12 48 9 9
9 18 0 37 -14 31 -26 32 -46 3z"/>
<path d="M12175 2223 c-74 -4 -97 -15 -77 -35 31 -31 400 -60 497 -39 39 8 48
48 13 55 -34 8 -286 26 -327 24 -20 -1 -67 -4 -106 -5z"/>
<path d="M3812 1118 c-5 -7 -22 -47 -37 -88 -14 -41 -32 -82 -40 -90 -26 -29
-96 -178 -102 -216 -6 -47 -28 -115 -48 -154 -38 -74 -50 -240 -20 -287 30
-47 81 -88 142 -112 32 -13 83 -38 113 -54 204 -113 212 -116 281 -117 57 0
71 4 102 27 84 66 40 148 -93 173 -122 24 -157 34 -220 66 -92 47 -118 77
-130 150 -6 32 -8 77 -5 99 8 54 43 189 66 250 26 69 49 178 49 228 0 82 -33
154 -58 125z"/>
<path d="M10330 1029 c-25 -23 -63 -58 -85 -78 -22 -21 -89 -81 -150 -135 -60
-54 -144 -131 -186 -170 -42 -39 -97 -81 -121 -94 -60 -30 -143 -29 -245 2
-118 36 -169 46 -221 45 -61 0 -111 -18 -129 -46 -17 -26 -27 -20 122 -74 50
-17 131 -49 180 -70 117 -50 202 -57 325 -27 89 21 187 65 220 98 10 10 32 26
48 34 38 19 197 188 271 286 31 41 61 80 67 85 6 6 25 31 43 56 27 39 30 49
22 72 -12 30 -32 43 -81 51 -31 6 -40 2 -80 -35z"/>
</g>
</svg>
