<?xml version="1.0" standalone="no"?>
<!DOCTYPE svg PUBLIC "-//W3C//DTD SVG 20010904//EN"
 "http://www.w3.org/TR/2001/REC-SVG-20010904/DTD/svg10.dtd">
<svg version="1.0" xmlns="http://www.w3.org/2000/svg"
 width="731.000000pt" height="961.000000pt" viewBox="0 0 731.000000 961.000000"
 preserveAspectRatio="xMidYMid meet">
<metadata>
Created by potrace 1.14, written by Peter Selinger 2001-2017
</metadata>
<g transform="translate(0.000000,961.000000) scale(0.100000,-0.100000)"
fill="#000000" stroke="none">
<path d="M2954 9592 c-39 -36 -105 -61 -228 -87 -69 -14 -147 -35 -173 -46
-60 -25 -113 -61 -113 -75 0 -26 -134 -121 -203 -143 -19 -7 -49 -23 -67 -36
-19 -14 -39 -25 -46 -25 -28 0 -208 -102 -251 -142 -58 -55 -108 -132 -117
-183 -4 -22 -14 -51 -21 -65 -7 -14 -18 -36 -24 -50 -26 -55 -43 -81 -62 -93
-10 -6 -19 -21 -19 -33 0 -11 -11 -31 -25 -44 -14 -13 -25 -31 -25 -40 0 -9
-10 -26 -23 -38 -12 -12 -38 -52 -57 -89 -18 -38 -42 -85 -53 -106 -28 -56
-36 -254 -12 -291 10 -14 23 -26 29 -26 19 0 53 -41 71 -85 33 -77 -4 -194
-102 -324 -18 -24 -33 -52 -33 -61 0 -10 -9 -29 -20 -43 -45 -57 -36 -189 20
-327 11 -25 22 -55 25 -68 9 -30 55 -72 80 -72 48 0 56 46 29 165 -19 84 -29
195 -20 231 9 34 34 28 56 -13 10 -18 22 -39 29 -46 19 -23 82 -147 75 -147
-4 0 0 -8 10 -19 9 -10 41 -56 70 -102 92 -143 157 -209 207 -209 27 0 28 22
4 55 -38 51 -66 115 -63 143 2 18 16 35 46 55 60 40 78 85 61 156 -20 85 -100
191 -143 191 -25 -1 -56 -22 -56 -39 0 -24 34 -63 71 -81 40 -21 47 -34 51
-92 1 -28 -3 -42 -17 -53 -27 -20 -85 -18 -114 4 -22 17 -23 23 -16 67 12 79
9 86 -56 143 -74 67 -106 132 -119 244 -11 93 2 154 49 237 17 30 35 65 41 77
16 38 68 63 131 63 64 0 83 -14 134 -95 31 -48 64 -59 96 -32 36 29 79 165
125 392 24 121 29 130 77 145 57 16 132 67 255 172 57 48 109 88 116 88 35 0
146 46 185 76 33 25 54 34 83 34 41 0 121 -39 137 -67 5 -10 15 -13 30 -8 19
6 22 12 16 33 -10 43 -72 130 -105 147 -16 9 -30 18 -30 21 0 33 155 190 197
200 15 4 33 11 39 15 6 5 31 12 56 15 56 8 95 -11 140 -67 18 -23 42 -51 53
-63 11 -12 25 -34 32 -48 6 -14 21 -29 32 -33 27 -8 37 -49 20 -83 -7 -15 -14
-49 -14 -77 -2 -66 -21 -122 -45 -128 -20 -5 -40 -61 -40 -112 0 -17 -9 -47
-20 -68 -11 -20 -20 -46 -20 -56 0 -11 -6 -26 -14 -33 -7 -8 -21 -28 -30 -46
-9 -17 -34 -50 -56 -73 -22 -23 -40 -44 -40 -45 0 -2 -16 -28 -35 -58 -19 -29
-31 -56 -28 -60 3 -3 -6 -34 -22 -68 -82 -187 -87 -197 -120 -212 -18 -9 -40
-16 -47 -16 -21 0 -44 29 -58 75 -13 40 -25 55 -47 55 -21 0 -49 -134 -33
-160 5 -8 41 -32 82 -55 62 -35 73 -45 70 -66 -20 -188 -13 -295 25 -340 18
-21 33 -29 51 -27 43 5 107 153 147 338 20 94 48 171 108 290 49 99 158 277
190 310 8 8 35 41 61 72 62 78 192 201 308 293 52 41 114 78 223 133 113 57
284 111 430 137 232 40 205 36 373 51 98 8 257 -8 352 -37 36 -10 69 -19 74
-19 12 0 76 -29 184 -83 161 -81 314 -219 362 -327 6 -14 27 -56 45 -95 35
-72 57 -140 48 -148 -2 -3 1 -16 8 -29 36 -67 56 -378 34 -523 -8 -49 -17
-108 -21 -130 -7 -48 -50 -198 -69 -240 -7 -16 -25 -61 -41 -98 -15 -37 -36
-77 -46 -89 -10 -12 -21 -33 -25 -47 -3 -14 -12 -33 -20 -41 -8 -8 -19 -23
-26 -32 -7 -10 -35 -22 -67 -28 -67 -13 -184 -69 -188 -92 -5 -27 34 -31 93
-9 31 12 69 21 85 21 32 0 81 -18 92 -35 15 -20 7 -78 -18 -131 -25 -54 -117
-164 -136 -164 -27 0 -268 -122 -286 -145 -37 -44 -47 -47 -94 -31 -24 8 -70
27 -103 41 -33 15 -84 34 -112 41 -29 8 -79 21 -110 29 -32 9 -116 26 -188 38
-117 19 -164 22 -460 21 -247 0 -361 -4 -455 -16 -69 -10 -194 -22 -278 -28
-151 -12 -154 -11 -176 10 -25 22 -63 96 -91 172 -9 26 -21 50 -26 53 -5 4 -9
15 -9 25 0 24 18 28 130 34 47 2 105 9 130 14 25 6 61 13 81 17 23 3 48 18 74
45 55 57 73 53 120 -25 28 -45 49 -68 70 -75 16 -6 38 -19 50 -29 131 -121
449 -144 627 -46 35 20 86 47 113 61 49 25 97 56 143 91 29 22 102 129 102
149 0 21 -37 17 -60 -6 -11 -11 -24 -20 -28 -20 -5 0 -33 -17 -63 -39 -30 -21
-97 -64 -149 -97 -79 -49 -105 -59 -160 -66 -39 -5 -87 -4 -120 3 -30 5 -80
15 -110 20 -64 12 -201 64 -247 93 -18 12 -37 33 -42 49 -6 15 -14 27 -19 27
-6 0 -12 10 -16 23 -3 13 -24 38 -47 57 -64 51 -117 52 -244 2 -177 -70 -306
-91 -351 -57 -10 8 -30 15 -44 15 -38 0 -146 68 -188 118 -78 90 -188 202
-199 202 -22 0 -14 -57 12 -88 14 -17 25 -33 25 -37 0 -3 13 -25 29 -48 46
-67 88 -150 95 -187 24 -121 60 -260 68 -260 5 0 18 -21 29 -47 11 -27 34 -69
50 -95 25 -39 28 -50 19 -67 -6 -12 -17 -21 -24 -21 -15 0 -40 27 -49 51 -5
15 -30 17 -209 17 -196 1 -265 8 -378 42 -96 28 -223 127 -275 216 -17 28 -33
44 -45 44 -28 0 -26 -32 5 -80 14 -22 25 -46 25 -53 0 -7 4 -17 9 -23 15 -15
-6 -53 -41 -73 -49 -28 -103 -70 -156 -121 -26 -25 -59 -53 -75 -63 -15 -9
-27 -24 -27 -32 0 -8 -18 -29 -40 -46 -22 -18 -40 -38 -40 -44 0 -6 -15 -25
-32 -42 -36 -34 -78 -97 -78 -118 0 -7 -11 -27 -25 -43 -14 -17 -25 -35 -25
-42 0 -7 -15 -51 -34 -99 -19 -47 -35 -95 -35 -106 -1 -11 -1 -28 -2 -38 0
-10 -5 -31 -11 -45 -15 -39 -21 -198 -8 -237 6 -19 30 -49 55 -70 25 -20 51
-42 59 -51 31 -31 275 -153 308 -154 7 -1 38 -14 68 -30 30 -17 60 -30 67 -30
15 0 78 -36 123 -71 19 -15 51 -30 70 -33 53 -8 125 -22 235 -44 109 -23 330
-53 550 -76 262 -28 681 -19 900 19 44 7 87 13 95 13 30 0 200 31 217 41 10 5
54 17 98 26 44 9 152 41 241 71 89 29 168 54 175 54 16 0 117 -107 123 -130 7
-23 46 -160 59 -205 13 -43 15 -247 3 -307 -4 -21 -12 -38 -19 -38 -7 0 -26
-14 -44 -30 -18 -17 -34 -30 -37 -30 -2 0 -37 -15 -78 -34 -107 -50 -195 -83
-260 -98 -32 -7 -58 -16 -58 -20 0 -4 -17 -10 -37 -14 -21 -4 -61 -17 -90 -30
-28 -13 -59 -24 -67 -24 -9 0 -16 -4 -16 -9 0 -5 -21 -12 -47 -16 -27 -3 -79
-13 -118 -20 -60 -13 -271 -39 -505 -63 -116 -12 -731 -8 -775 6 -22 7 -78 15
-125 18 -73 5 -301 58 -450 105 -35 11 -159 63 -235 98 -22 10 -56 25 -75 32
-19 7 -47 21 -62 31 -14 10 -30 18 -34 18 -4 0 -24 11 -43 23 -20 13 -62 41
-93 61 -31 20 -60 41 -63 46 -3 6 -17 10 -31 10 -17 0 -24 -5 -24 -19 0 -11 5
-23 10 -26 6 -4 19 -24 30 -44 41 -81 301 -309 424 -373 18 -9 38 -23 45 -32
8 -9 21 -16 31 -16 9 0 35 -12 56 -28 39 -28 125 -71 267 -136 42 -19 80 -43
84 -52 4 -10 -3 -35 -15 -58 -12 -23 -22 -44 -22 -48 0 -12 -60 -137 -69 -142
-5 -3 -15 -30 -21 -58 -7 -29 -24 -74 -37 -100 -14 -26 -27 -67 -30 -90 -3
-24 -14 -55 -24 -70 -25 -35 -24 -42 16 -118 19 -36 39 -76 46 -90 6 -14 22
-50 36 -80 29 -63 25 -56 98 -177 30 -51 55 -97 55 -102 0 -6 4 -11 9 -11 5 0
22 -21 37 -48 50 -86 107 -172 114 -172 6 0 32 -36 82 -115 7 -11 29 -42 49
-70 49 -67 60 -91 53 -109 -4 -12 -2 -15 9 -10 10 3 22 -4 33 -23 30 -46 83
-113 133 -168 11 -11 22 -29 25 -40 3 -11 28 -43 54 -71 26 -28 63 -73 82 -99
19 -26 52 -64 73 -83 20 -19 37 -41 37 -47 0 -7 36 -49 80 -93 44 -45 80 -86
80 -91 0 -6 16 -29 36 -51 37 -41 48 -85 24 -100 -7 -4 -186 -8 -399 -7 -332
0 -396 -2 -456 -17 -98 -24 -245 -76 -277 -98 -16 -10 -41 -26 -56 -37 -16
-10 -79 -35 -142 -55 -62 -21 -125 -43 -139 -50 -14 -8 -42 -17 -61 -21 -19
-4 -69 -22 -110 -40 -136 -59 -286 -111 -380 -131 -71 -15 -261 -34 -272 -28
-4 3 -44 9 -90 15 -46 5 -101 18 -123 28 -22 10 -56 25 -76 34 l-37 16 24 103
c13 57 28 114 33 128 5 14 15 50 22 80 6 30 16 64 22 74 5 11 11 37 13 58 1
22 7 44 12 51 5 7 12 37 15 67 4 30 13 84 22 120 32 133 50 426 34 555 -13
106 -56 233 -114 340 -18 33 -44 80 -57 106 -26 48 -78 128 -112 170 -12 14
-29 36 -38 50 -64 89 -95 135 -150 217 -34 50 -65 92 -70 92 -4 0 -8 6 -8 13
0 8 -10 22 -21 33 -12 10 -31 39 -43 64 -12 25 -38 73 -59 106 -20 34 -37 66
-37 71 0 5 -9 28 -21 52 -11 23 -27 72 -35 109 -8 37 -28 119 -44 183 -16 64
-34 156 -40 205 -27 226 -13 546 30 684 11 36 20 74 20 84 0 22 36 145 56 193
8 17 14 35 14 41 0 22 119 272 158 331 23 36 42 70 42 77 0 7 11 25 24 41 13
15 32 42 42 59 31 51 120 178 144 204 8 9 44 49 80 90 36 40 75 84 87 97 37
39 46 62 32 80 -13 15 -39 14 -104 -4 -44 -12 -132 -81 -259 -205 -61 -59
-118 -113 -127 -120 -22 -18 -119 -147 -119 -159 0 -5 -7 -9 -15 -9 -8 0 -15
-5 -15 -11 0 -6 -10 -25 -22 -42 -13 -18 -30 -44 -38 -59 -8 -15 -36 -58 -62
-96 -27 -39 -48 -74 -48 -79 0 -5 -11 -20 -24 -32 -14 -13 -29 -42 -35 -65 -5
-22 -23 -74 -40 -115 -17 -40 -31 -81 -31 -90 0 -9 -4 -21 -9 -26 -11 -13 -68
-229 -86 -330 -23 -125 -40 -514 -27 -589 6 -33 14 -92 18 -129 4 -37 11 -70
15 -73 5 -3 9 -23 9 -46 0 -42 66 -237 100 -296 11 -17 36 -71 56 -120 21 -48
43 -94 51 -103 7 -8 13 -19 13 -24 0 -5 6 -16 13 -24 8 -9 20 -32 27 -51 7
-19 21 -44 31 -55 10 -11 31 -50 48 -86 17 -36 38 -72 47 -80 8 -7 34 -49 56
-93 22 -45 51 -95 64 -113 13 -17 24 -37 24 -44 0 -7 11 -24 25 -39 13 -14 54
-84 91 -155 37 -72 70 -132 74 -135 4 -3 10 -30 14 -60 4 -30 13 -62 21 -70
19 -22 65 -161 65 -197 0 -17 7 -36 15 -43 8 -7 15 -26 15 -44 0 -17 4 -87 9
-156 6 -74 6 -162 1 -215 -5 -49 -9 -137 -10 -195 -1 -82 -5 -111 -19 -135
-16 -25 -32 -119 -33 -190 -1 -69 59 -163 114 -178 15 -4 28 -13 28 -20 -1
-16 -110 -125 -141 -140 -13 -7 -26 -23 -29 -37 -7 -29 -40 -41 -40 -14 0 14
-3 15 -12 6 -10 -10 -10 -15 2 -22 12 -7 11 -12 -5 -30 -30 -33 -33 -144 -5
-188 11 -18 28 -35 38 -39 9 -3 26 -14 37 -23 11 -10 43 -25 70 -33 28 -8 76
-24 107 -36 44 -16 63 -19 83 -11 15 6 41 10 58 10 40 0 142 -32 187 -58 19
-11 61 -25 93 -32 74 -15 86 -6 83 58 -2 67 -38 126 -90 147 -22 10 -53 23
-68 31 -14 8 -35 14 -47 14 -24 0 -70 20 -89 37 -7 7 -18 13 -23 13 -13 0 -2
63 19 115 31 78 104 195 120 196 31 1 177 19 232 28 30 5 82 10 116 10 52 1
67 -3 100 -27 21 -16 45 -36 53 -46 20 -24 209 -113 256 -120 132 -20 196 -5
157 37 -24 27 -59 43 -154 73 -177 55 -274 120 -205 139 62 17 284 88 299 96
10 5 23 9 30 9 7 0 25 7 40 14 16 8 63 26 105 41 43 14 87 30 98 34 11 5 49
19 85 32 36 12 69 26 75 31 5 4 22 8 37 8 15 0 45 6 65 14 66 25 295 84 368
95 142 22 313 33 335 21 35 -19 53 -84 74 -278 18 -157 25 -176 75 -202 85
-43 147 -19 137 54 -29 225 -30 531 -1 711 8 50 21 133 29 185 41 260 150 666
241 900 45 116 126 268 174 330 40 50 81 116 118 188 31 62 34 96 7 90 -15 -3
-224 -206 -224 -218 0 -3 -24 -33 -53 -66 -29 -32 -58 -70 -65 -84 -7 -14 -33
-53 -58 -85 -24 -33 -44 -66 -44 -73 0 -8 -11 -27 -25 -44 -13 -16 -30 -47
-36 -68 -7 -22 -16 -40 -20 -40 -4 0 -20 -33 -35 -72 -15 -40 -34 -80 -41 -89
-7 -8 -13 -19 -13 -24 0 -9 -27 -71 -61 -140 -10 -22 -19 -47 -19 -55 0 -17
-24 -90 -44 -135 -17 -36 -33 -109 -43 -190 -10 -78 -27 -81 -79 -15 -21 29
-53 68 -69 88 -17 20 -44 57 -60 81 -37 54 -53 77 -130 177 -33 44 -64 86 -70
95 -36 58 -71 107 -87 124 -11 11 -34 43 -51 72 -46 76 -126 194 -143 210 -8
8 -14 19 -14 24 0 5 -15 28 -33 52 -18 24 -39 58 -46 75 -7 18 -18 32 -23 32
-8 0 -86 150 -101 196 -4 11 -21 37 -37 59 -60 78 -62 83 -67 164 -4 58 -2 93
9 123 8 24 21 61 28 83 7 22 24 64 37 93 42 93 93 246 93 281 l0 34 63 -7 c34
-4 89 -11 122 -16 199 -31 680 -36 863 -10 94 13 105 8 167 -84 99 -144 178
-245 254 -326 33 -36 62 -67 63 -70 11 -21 134 -123 179 -149 32 -17 60 -38
63 -47 11 -29 6 -67 -11 -86 -10 -11 -26 -35 -38 -53 -11 -19 -48 -73 -83
-120 -34 -48 -62 -91 -62 -97 0 -5 -17 -40 -39 -76 -78 -135 -131 -255 -178
-404 -8 -27 -19 -48 -24 -48 -5 0 -9 -15 -9 -33 0 -18 -8 -55 -18 -82 -35 -97
-80 -334 -96 -505 -5 -49 -19 -350 -18 -375 3 -60 25 -274 33 -325 6 -36 15
-103 19 -150 4 -47 11 -101 15 -121 l7 -37 -95 -7 c-52 -4 -114 -5 -138 -3
-63 7 -383 47 -456 57 -80 12 -103 6 -103 -26 0 -33 65 -109 120 -141 25 -14
52 -31 60 -37 35 -27 107 -38 233 -36 128 2 128 2 254 51 112 45 130 49 163
40 27 -7 40 -19 53 -45 9 -20 17 -43 17 -53 1 -27 25 -52 51 -52 13 0 49 7 79
16 30 9 69 19 85 23 56 13 66 108 25 226 -9 28 -23 70 -30 95 -6 25 -16 53
-21 62 -5 10 -9 30 -9 44 0 15 -4 43 -9 63 -51 194 -63 699 -22 891 5 25 15
78 20 118 17 111 69 322 91 365 11 22 20 45 20 54 0 23 41 142 75 218 18 39
38 88 45 110 7 22 16 44 21 49 5 6 9 42 9 81 0 68 29 186 51 209 5 6 9 23 9
38 0 21 5 28 19 28 10 0 24 -6 30 -14 6 -8 22 -16 34 -19 12 -3 56 -19 97 -37
73 -30 274 -91 368 -111 100 -20 220 -42 277 -49 33 -4 119 -15 190 -24 183
-24 255 -33 375 -46 58 -6 121 -15 140 -20 19 -6 51 -10 71 -10 64 0 67 -18
16 -112 -24 -46 -68 -117 -98 -160 -30 -42 -89 -127 -132 -190 -42 -62 -95
-138 -117 -168 -23 -30 -55 -75 -72 -99 -55 -78 -49 -179 17 -266 19 -25 35
-51 35 -58 0 -16 -93 -117 -107 -117 -6 0 -13 -6 -15 -12 -6 -16 -2 -145 13
-423 6 -116 10 -217 10 -225 -3 -100 1 -236 7 -281 10 -67 -3 -226 -19 -246
-31 -37 -109 -57 -284 -73 -122 -12 -126 -12 -173 -30 -38 -14 -48 -31 -51
-83 -2 -41 25 -89 61 -108 29 -16 220 -39 318 -39 101 0 214 20 266 47 59 30
74 58 79 147 7 125 -24 686 -55 980 l-20 189 42 56 c54 72 59 78 83 104 34 37
23 102 -41 249 -19 43 -34 86 -34 98 0 32 143 303 182 347 11 11 41 61 66 110
26 49 57 107 68 129 12 21 36 83 54 137 26 76 38 98 54 102 12 2 127 13 256
25 303 27 408 50 556 121 127 60 218 127 212 156 -2 10 -54 42 -134 82 -171
86 -247 145 -373 290 -60 69 -241 312 -241 324 0 3 -17 36 -38 74 -72 126
-108 198 -132 258 -13 33 -36 85 -52 116 -15 31 -28 61 -28 67 0 14 -52 103
-86 147 -13 17 -24 34 -24 38 0 3 -20 35 -45 72 -24 36 -47 75 -50 86 -4 10
-11 19 -16 19 -5 0 -9 8 -9 18 0 10 -5 23 -11 29 -6 6 -13 49 -16 95 -5 78 -4
87 24 143 17 33 33 83 37 110 4 28 18 77 31 110 20 51 23 69 16 117 -11 82
-39 109 -74 71 -8 -10 -18 -31 -22 -48 -4 -16 -9 -37 -13 -45 -3 -8 -13 -37
-21 -65 -17 -51 -26 -60 -170 -168 -54 -40 -72 -77 -50 -103 11 -13 25 -15 69
-11 53 6 102 -8 72 -20 -7 -3 -25 -15 -40 -28 -44 -37 -199 -113 -255 -125
-29 -6 -95 -15 -147 -20 -52 -5 -124 -19 -160 -30 -36 -11 -93 -23 -126 -27
l-61 -5 0 65 c0 60 -10 101 -55 232 -72 213 -82 266 -59 333 20 60 91 131 167
170 74 37 116 80 207 207 84 117 166 200 213 215 19 6 64 12 100 13 106 3 97
16 -59 86 -56 25 -71 37 -83 66 -8 20 -39 66 -69 103 -88 110 -84 131 31 161
38 11 87 26 109 36 50 21 145 112 193 185 20 30 39 57 43 60 3 3 22 30 40 60
l34 55 -3 117 c-2 107 0 118 17 128 23 12 97 158 142 280 33 87 52 161 70 264
5 33 12 63 14 66 15 24 24 281 14 381 -12 121 -51 322 -67 342 -5 6 -15 30
-22 52 -21 65 -54 129 -87 171 -16 21 -37 53 -46 69 -8 17 -47 66 -85 110
-128 147 -401 308 -594 351 -161 36 -443 67 -528 58 -25 -2 -127 -11 -228 -19
-101 -9 -208 -22 -240 -30 -31 -8 -87 -15 -125 -15 -61 0 -72 3 -98 28 -29 26
-47 73 -55 140 -16 124 -77 195 -179 207 -75 10 -140 0 -199 -30 -76 -38 -91
-35 -176 45 -93 87 -215 171 -297 205 -80 32 -217 36 -249 7z m-1766 -8885 c3
-17 -22 -54 -78 -115 -62 -68 -120 -153 -120 -176 0 -28 -24 -46 -51 -39 -27
7 -24 49 6 81 52 58 93 109 121 151 40 60 48 73 62 99 16 27 55 27 60 -1z"/>
<path d="M4272 8760 c-42 -10 -49 -17 -36 -38 12 -19 131 -66 192 -76 73 -11
81 39 14 94 -31 25 -45 30 -87 29 -27 -1 -65 -5 -83 -9z"/>
<path d="M5107 8729 c-27 -15 -20 -28 26 -48 113 -51 150 -61 227 -61 81 0 92
3 83 26 -12 32 -74 54 -178 64 -58 5 -113 14 -123 19 -11 6 -24 6 -35 0z"/>
<path d="M4941 8493 c-31 -4 -111 -46 -111 -59 0 -3 5 -14 10 -24 16 -30 71
-40 168 -30 48 6 93 10 99 10 22 0 89 -73 113 -125 31 -63 59 -105 71 -105 21
0 46 62 48 118 1 82 -38 148 -110 185 -45 22 -70 27 -154 31 -55 2 -115 2
-134 -1z"/>
<path d="M3918 8203 c-32 -47 -43 -99 -27 -124 11 -19 80 5 118 40 54 51 35
131 -32 131 -20 0 -34 -11 -59 -47z"/>
<path d="M4752 7986 c-57 -29 -91 -72 -92 -117 0 -46 17 -68 61 -75 29 -5 41
-1 67 21 60 50 76 108 47 165 -18 35 -25 35 -83 6z"/>
<path d="M3795 7892 c-17 -11 -49 -36 -70 -56 -22 -20 -47 -38 -56 -41 -9 -3
-24 -32 -34 -66 -10 -34 -33 -78 -50 -100 -28 -35 -164 -139 -183 -139 -20 0
-132 -82 -132 -97 0 -14 9 -15 66 -10 79 8 134 32 192 86 48 45 99 60 146 43
17 -6 56 -14 86 -17 49 -5 62 -2 115 27 49 27 60 38 60 58 0 23 -4 25 -46 26
-112 4 -120 38 -50 211 19 49 19 53 3 72 -17 21 -17 21 -47 3z"/>
<path d="M4704 7749 c-16 -26 32 -64 115 -91 45 -15 95 -37 112 -49 33 -23 62
-19 57 8 -4 25 -130 107 -193 127 -61 19 -81 20 -91 5z"/>
<path d="M4140 7497 c0 -14 54 -156 75 -197 23 -44 109 -134 150 -156 136 -74
186 -83 291 -54 44 12 96 31 117 42 65 33 43 43 -94 43 -113 1 -130 3 -198 30
-40 16 -86 42 -101 57 -33 33 -91 111 -114 153 -27 52 -54 76 -91 82 -19 3
-35 3 -35 0z"/>
<path d="M1213 7262 c-27 -57 -33 -83 -39 -173 -6 -101 -5 -108 17 -138 31
-42 65 -63 89 -56 23 7 25 27 6 63 -43 84 -46 145 -10 240 24 66 25 72 10 101
-9 17 -22 31 -29 31 -6 0 -26 -30 -44 -68z"/>
<path d="M1032 7161 c-27 -23 -36 -42 -53 -112 -10 -46 -27 -105 -36 -130 -13
-38 -14 -56 -5 -109 22 -121 114 -270 167 -270 29 0 40 28 20 50 -28 30 -64
113 -66 149 -5 107 -3 228 5 246 10 22 36 136 39 175 3 36 -30 36 -71 1z"/>
<path d="M2446 7002 c-12 -19 89 -144 168 -208 26 -21 62 -51 80 -65 48 -40
180 -78 230 -65 19 5 56 52 56 72 0 14 -38 34 -64 34 -57 0 -214 66 -239 100
-7 8 -43 35 -82 60 -38 24 -79 52 -91 62 -21 19 -49 24 -58 10z"/>
<path d="M1875 6803 c-128 -18 -319 -95 -352 -143 -8 -11 -20 -20 -28 -20 -19
0 -191 -176 -219 -225 -13 -22 -47 -86 -76 -142 -28 -57 -57 -103 -64 -103
-27 0 -156 161 -156 196 0 8 -5 14 -11 14 -5 0 -15 13 -20 29 -10 29 -39 44
-64 35 -17 -7 -30 -118 -20 -181 4 -27 17 -61 30 -78 28 -37 143 -156 170
-175 24 -18 53 -59 83 -118 15 -30 22 -61 22 -102 0 -32 5 -62 11 -65 6 -4 38
-9 72 -12 47 -4 80 -15 133 -44 75 -41 98 -47 110 -28 7 12 -102 119 -122 119
-6 0 -30 14 -52 30 -23 17 -47 30 -53 30 -32 0 45 272 118 415 63 124 67 131
103 180 50 67 175 190 242 236 31 21 94 51 140 66 104 33 119 45 93 73 -18 20
-29 21 -90 13z"/>
<path d="M823 6761 c-7 -11 -9 -41 -6 -82 5 -54 12 -71 42 -106 37 -46 55 -52
86 -29 14 10 17 17 8 27 -5 8 -13 34 -17 58 -8 52 -64 151 -86 151 -8 0 -20
-8 -27 -19z"/>
<path d="M1373 5936 c-31 -35 -41 -57 -36 -76 9 -36 106 -41 147 -9 29 23 33
54 10 87 -22 32 -92 31 -121 -2z"/>
<path d="M5687 5757 c-9 -7 -23 -34 -31 -61 -9 -27 -27 -72 -40 -100 -13 -28
-26 -58 -30 -66 -14 -31 -32 -58 -77 -111 -77 -90 -88 -131 -44 -151 22 -10
32 -7 78 24 28 20 59 39 69 44 26 14 96 108 119 159 35 79 25 253 -16 268 -7
3 -20 0 -28 -6z"/>
<path d="M5860 5721 c-5 -11 -10 -33 -10 -50 0 -72 -70 -239 -126 -302 -17
-19 -9 -46 16 -54 46 -15 83 16 161 132 19 28 34 134 30 203 -5 75 -46 116
-71 71z"/>
<path d="M5993 5629 c-7 -7 -10 -30 -6 -60 6 -50 -14 -169 -28 -169 -4 0 -10
-14 -14 -30 -4 -17 -15 -36 -26 -43 -10 -6 -19 -21 -19 -32 0 -19 -73 -105
-89 -105 -4 0 -18 11 -31 25 -27 29 -48 32 -57 9 -6 -16 -4 -22 43 -116 24
-48 32 -57 49 -52 39 13 95 66 128 122 37 64 87 177 87 196 0 7 13 53 30 102
16 49 30 92 30 96 0 3 -12 20 -26 37 -27 32 -52 39 -71 20z"/>
<path d="M2639 569 c-59 -8 -171 -40 -224 -63 -92 -40 -260 -96 -295 -99 -19
-2 -51 -11 -70 -22 -30 -15 -58 -18 -180 -18 -80 0 -187 3 -238 8 -126 10
-135 0 -62 -66 92 -83 244 -139 378 -139 61 0 97 8 208 45 73 25 139 45 146
45 7 0 26 7 41 15 15 8 49 19 75 24 47 9 164 50 212 74 14 6 55 31 91 54 87
56 97 79 54 126 -28 29 -40 30 -136 16z"/>
<path d="M4765 379 c-71 -9 -216 -40 -300 -64 -33 -9 -80 -21 -105 -27 -71
-15 -110 -24 -185 -43 -106 -26 -157 -33 -315 -40 -173 -9 -190 -16 -190 -79
0 -31 7 -52 28 -79 15 -20 32 -38 37 -40 6 -3 55 1 110 8 55 6 109 12 120 13
122 4 328 27 400 43 50 12 117 27 150 34 33 8 94 22 135 31 133 30 355 108
380 134 3 3 22 16 42 30 62 41 58 67 -13 81 -52 10 -210 9 -294 -2z"/>
</g>
</svg>
