<?xml version="1.0" standalone="no"?>
<!DOCTYPE svg PUBLIC "-//W3C//DTD SVG 20010904//EN"
 "http://www.w3.org/TR/2001/REC-SVG-20010904/DTD/svg10.dtd">
<svg version="1.0" xmlns="http://www.w3.org/2000/svg"
 width="797.000000pt" height="812.000000pt" viewBox="0 0 797.000000 812.000000"
 preserveAspectRatio="xMidYMid meet">
<metadata>
Created by potrace 1.14, written by Peter Selinger 2001-2017
</metadata>
<g transform="translate(0.000000,812.000000) scale(0.100000,-0.100000)"
fill="#000000" stroke="none">
<path d="M2918 8099 c-30 -22 -48 -58 -67 -129 -7 -25 -21 -73 -32 -106 -10
-34 -19 -70 -19 -81 0 -32 28 -78 55 -93 29 -16 75 -82 75 -109 0 -10 -7 -24
-15 -31 -17 -14 -20 -66 -5 -75 6 -3 10 -14 10 -24 0 -10 7 -24 15 -31 8 -7
29 -38 46 -69 18 -31 47 -80 66 -108 19 -29 41 -69 49 -89 16 -39 54 -97 67
-102 4 -2 7 -10 7 -18 0 -7 14 -36 30 -62 17 -27 30 -53 30 -58 0 -5 -21 -32
-47 -59 -62 -65 -84 -138 -57 -184 l18 -30 111 112 c123 124 281 252 335 272
19 7 67 25 105 40 61 24 86 27 204 30 137 3 156 9 143 44 -14 39 -57 81 -98
97 -74 28 -232 9 -318 -39 -28 -15 -109 -44 -176 -63 -67 -18 -100 -12 -100
19 0 13 -4 27 -9 32 -13 15 -101 184 -101 195 0 6 -11 27 -24 48 -14 20 -37
65 -52 99 l-27 63 63 62 c71 71 88 104 66 126 -12 13 -22 11 -77 -17 -40 -20
-77 -31 -104 -31 -39 0 -43 3 -63 44 -25 49 -28 114 -9 154 23 45 40 120 33
145 -4 19 -16 27 -50 36 -54 13 -46 14 -78 -10z"/>
<path d="M6490 7825 c-7 -8 -19 -15 -26 -15 -7 0 -33 -9 -56 -19 -45 -21 -239
-96 -323 -127 -57 -20 -102 -48 -127 -78 -19 -23 -24 -71 -8 -81 6 -3 10 -17
10 -31 0 -20 -9 -29 -46 -44 -25 -11 -52 -20 -59 -20 -7 0 -26 -11 -42 -24
-15 -13 -46 -31 -68 -40 -22 -9 -49 -25 -60 -35 -11 -10 -71 -44 -134 -75 -62
-32 -120 -64 -128 -72 -8 -8 -20 -14 -27 -14 -7 0 -34 -14 -62 -32 -46 -30
-113 -67 -194 -108 -19 -10 -64 -36 -100 -58 -36 -22 -101 -59 -145 -82 -44
-23 -103 -57 -132 -76 -28 -19 -56 -34 -62 -34 -6 0 -31 -15 -55 -32 -24 -18
-85 -55 -136 -83 -131 -71 -148 -81 -162 -92 -7 -6 -33 -21 -58 -34 -25 -13
-58 -33 -75 -44 -16 -12 -47 -30 -68 -41 -21 -10 -48 -29 -59 -41 -17 -19 -19
-25 -8 -38 16 -19 39 -19 46 -1 3 8 22 17 42 21 20 4 68 24 105 46 38 21 70
39 73 39 3 0 75 34 279 130 44 20 132 63 195 94 63 31 118 56 123 56 4 0 24
10 45 23 20 13 58 31 85 41 26 10 47 22 47 27 0 5 5 9 10 9 6 0 106 47 223
104 117 57 228 111 247 120 19 9 42 20 50 25 14 8 194 94 265 127 17 7 68 32
115 54 47 23 123 57 170 77 47 19 103 46 125 59 23 13 59 30 80 37 22 8 79 33
126 56 47 22 95 41 105 41 11 0 28 -13 39 -29 19 -27 211 -191 224 -191 3 0
25 -18 49 -39 24 -22 64 -52 90 -67 44 -26 94 -64 153 -120 14 -13 28 -24 30
-24 3 0 55 -33 115 -73 61 -40 132 -81 159 -91 70 -27 175 -97 175 -117 0 -12
-11 -20 -32 -24 -18 -4 -37 -11 -43 -15 -10 -7 -66 -28 -355 -130 -178 -63
-271 -98 -284 -109 -6 -5 -38 -16 -71 -26 -32 -9 -68 -23 -79 -31 -11 -8 -27
-14 -34 -14 -8 0 -36 -11 -64 -25 -27 -14 -56 -25 -65 -25 -8 0 -46 -15 -84
-34 -39 -19 -84 -38 -102 -41 -32 -7 -108 -39 -179 -77 -21 -10 -68 -30 -105
-43 -82 -28 -99 -36 -228 -100 -55 -28 -121 -59 -147 -69 -27 -10 -48 -21 -48
-26 0 -5 -15 -12 -32 -15 -18 -4 -51 -20 -72 -36 -22 -16 -45 -29 -51 -29 -7
0 -34 -12 -61 -26 -27 -15 -87 -47 -134 -72 -47 -25 -103 -55 -125 -66 -22
-11 -42 -23 -45 -26 -9 -11 -144 -84 -187 -102 -35 -14 -45 -15 -55 -4 -8 7
-24 18 -36 25 -12 6 -33 29 -47 49 -13 20 -37 53 -52 74 -15 20 -45 59 -66 86
-28 37 -77 77 -185 148 -80 53 -155 99 -167 102 -11 3 -25 12 -31 20 -5 7 -48
27 -95 43 -155 55 -278 42 -404 -41 -22 -15 -73 -49 -113 -76 -41 -27 -87 -56
-103 -64 -16 -8 -29 -19 -29 -23 0 -5 -38 -46 -85 -92 -47 -46 -85 -88 -85
-95 0 -6 -15 -30 -34 -53 -42 -53 -127 -202 -137 -242 -4 -16 -19 -61 -33
-100 l-25 -70 41 -37 c23 -21 48 -38 56 -38 19 0 100 -46 127 -72 11 -10 41
-35 68 -55 26 -19 47 -40 47 -46 0 -5 -21 -29 -46 -53 -44 -41 -46 -45 -42
-86 8 -67 33 -109 93 -157 31 -25 54 -48 53 -53 -2 -5 -35 -23 -73 -41 -79
-36 -253 -132 -332 -183 -29 -19 -57 -34 -61 -34 -5 0 -37 -17 -70 -37 -34
-21 -81 -49 -105 -63 -52 -30 -167 -104 -184 -119 -7 -6 -17 -11 -22 -11 -6 0
-14 -6 -18 -13 -4 -7 -50 -40 -101 -72 -51 -33 -108 -73 -127 -90 -18 -16 -45
-37 -58 -45 -64 -38 -124 -80 -195 -136 -42 -34 -95 -71 -118 -82 -22 -11 -46
-28 -53 -36 -8 -9 -17 -16 -22 -16 -8 0 -116 -68 -159 -101 -14 -10 -55 -39
-91 -63 -36 -24 -79 -56 -95 -72 -17 -16 -46 -36 -65 -45 -19 -9 -59 -39 -89
-66 -30 -27 -73 -60 -95 -73 -22 -13 -69 -49 -105 -81 -61 -52 -203 -162 -285
-219 -48 -33 -115 -85 -140 -107 -33 -30 -103 -83 -111 -83 -3 0 -27 -17 -53
-38 -25 -21 -73 -55 -106 -77 -33 -21 -73 -47 -90 -58 -16 -11 -61 -53 -99
-94 -58 -63 -111 -104 -131 -103 -3 0 -17 -3 -31 -6 -33 -8 -48 7 -51 54 -1
20 -6 87 -12 147 -6 61 -13 153 -16 205 -5 95 -13 149 -60 380 -28 142 -29
159 -13 246 l11 62 91 69 c50 37 105 80 121 94 17 15 71 61 120 103 50 42 110
93 134 114 24 20 58 46 76 57 18 11 88 65 156 120 68 55 144 114 167 130 24
17 67 47 95 67 29 20 90 62 137 94 47 31 108 72 135 90 28 19 56 34 63 34 6 0
12 5 12 10 0 6 5 10 10 10 6 0 34 19 64 43 29 23 82 64 117 92 35 27 71 55 79
62 8 8 49 38 90 68 88 64 84 61 135 103 51 42 49 40 121 87 206 134 250 162
278 178 17 11 41 28 53 39 25 23 50 39 102 63 19 8 54 32 79 52 34 28 52 36
76 33 74 -6 165 -4 177 6 8 6 34 17 59 24 25 8 55 22 68 31 12 9 45 20 73 24
28 4 59 15 69 25 10 10 24 53 33 107 36 193 117 347 276 522 13 14 28 33 35
41 6 8 27 27 47 42 39 29 139 48 255 48 63 0 134 20 134 38 0 4 -24 14 -52 21
-67 17 -240 102 -283 139 -11 10 -31 24 -45 30 -14 7 -32 16 -40 22 -29 18
-129 61 -179 76 -90 26 -186 -4 -301 -96 -49 -39 -130 -80 -159 -80 -19 0 -51
-29 -51 -47 0 -12 -54 -84 -100 -133 -54 -57 -111 -139 -131 -188 -11 -26 -24
-54 -29 -63 -13 -24 13 -92 41 -105 13 -7 39 -16 57 -22 49 -16 62 10 62 120
0 87 0 87 33 112 19 15 41 26 49 26 30 0 48 35 48 91 0 75 25 104 110 125 35
9 73 22 85 29 11 7 32 15 48 19 15 4 27 11 27 16 0 5 14 25 31 45 29 33 35 35
93 35 76 0 129 -19 221 -77 11 -7 28 -16 38 -19 46 -17 -19 -107 -110 -153
-23 -12 -81 -59 -129 -105 -82 -81 -87 -89 -115 -171 -16 -47 -29 -95 -29
-106 0 -11 -6 -32 -14 -47 -7 -15 -17 -45 -21 -67 -8 -45 -38 -102 -69 -128
-12 -10 -43 -28 -71 -42 -66 -32 -138 -27 -345 25 -85 22 -188 45 -227 51 -86
14 -93 30 -25 55 26 10 52 21 57 25 6 5 40 15 75 23 100 22 145 41 145 63 0
16 -9 18 -109 16 -101 -3 -114 -5 -182 -38 -41 -20 -74 -40 -74 -45 0 -6 -6
-10 -14 -10 -22 0 -196 -166 -196 -187 0 -31 57 -43 202 -43 195 -1 296 -35
220 -74 -16 -8 -48 -31 -71 -50 -24 -20 -49 -36 -55 -36 -7 0 -21 -10 -32 -21
-16 -19 -56 -47 -116 -84 -45 -27 -115 -75 -177 -120 -38 -27 -98 -70 -133
-94 -35 -25 -86 -62 -114 -83 -28 -21 -56 -38 -62 -38 -7 0 -31 -15 -55 -32
-24 -18 -63 -46 -86 -63 -24 -16 -63 -45 -87 -62 -24 -18 -47 -33 -50 -33 -2
0 -15 -9 -27 -21 -12 -11 -35 -28 -52 -36 -16 -9 -32 -19 -35 -23 -3 -4 -37
-30 -76 -56 -39 -27 -113 -78 -164 -113 -51 -35 -123 -88 -159 -118 -77 -63
-68 -57 -151 -112 -36 -24 -79 -56 -97 -70 -147 -122 -259 -182 -278 -151 -11
18 23 77 65 111 59 48 130 122 130 137 0 32 -171 -1 -216 -43 -7 -5 -32 -26
-58 -45 -25 -19 -52 -49 -61 -67 -23 -47 -19 -112 8 -153 47 -69 44 -82 -25
-142 -35 -29 -77 -66 -94 -81 -29 -26 -101 -77 -148 -104 -29 -17 -34 -52 -25
-184 4 -62 8 -145 9 -184 1 -38 5 -108 10 -155 6 -47 21 -204 36 -350 28 -296
49 -459 65 -508 19 -59 65 -64 155 -16 25 13 53 24 62 24 9 0 31 9 47 20 17
11 35 20 42 20 7 0 79 33 160 73 81 40 168 81 193 92 25 11 47 22 50 25 3 3
37 21 75 40 39 20 120 61 180 92 61 31 151 76 200 101 50 24 137 69 195 98 58
30 132 66 165 81 33 15 86 38 118 52 31 14 81 37 110 50 118 54 196 86 207 86
6 0 42 14 78 31 37 17 84 34 105 36 l37 6 0 -61 c0 -54 -7 -76 -59 -185 -51
-107 -63 -125 -87 -131 -16 -4 -51 -18 -79 -30 -119 -55 -262 -86 -390 -86
-118 0 -125 -3 -125 -49 1 -59 46 -99 143 -128 45 -12 91 -23 103 -23 13 0 35
-5 51 -11 15 -7 36 -13 45 -14 26 -3 58 -35 58 -60 0 -21 -67 -95 -86 -95 -6
0 -19 -9 -29 -20 -10 -11 -37 -25 -59 -31 -23 -6 -63 -19 -91 -29 -27 -10 -72
-21 -99 -24 -80 -10 -92 -31 -54 -91 39 -58 113 -84 326 -111 148 -19 220 -15
311 16 33 11 90 23 128 26 60 5 71 4 95 -16 20 -15 28 -31 28 -53 0 -18 7 -41
15 -51 8 -11 15 -27 15 -36 0 -9 18 -36 40 -61 22 -24 40 -48 40 -52 0 -10 99
-155 111 -163 33 -20 -34 -70 -82 -60 -16 3 -53 21 -81 41 -61 41 -100 44
-193 18 -77 -21 -285 -21 -370 0 -33 8 -96 22 -140 31 -44 9 -109 24 -145 32
-80 18 -283 38 -314 30 -18 -4 -30 -24 -55 -88 -18 -46 -40 -101 -51 -123 -55
-120 -67 -206 -31 -237 32 -27 60 -39 111 -47 42 -7 52 -5 66 10 15 17 15 25
4 78 -14 66 -12 79 22 166 45 114 65 129 114 80 28 -28 27 -48 -3 -130 -8 -22
-23 -70 -33 -107 -21 -78 -59 -148 -96 -177 -20 -15 -41 -21 -81 -21 -47 0
-66 -7 -146 -53 -51 -29 -103 -60 -117 -68 -89 -51 -214 -170 -260 -249 -55
-94 -66 -154 -51 -287 25 -231 63 -327 145 -364 22 -10 52 -19 65 -19 38 0 97
39 115 76 29 62 21 98 -53 224 -71 123 -67 192 22 331 80 125 118 179 125 179
5 0 26 16 48 36 92 83 161 107 157 54 -2 -34 -22 -112 -32 -125 -5 -5 -16 -32
-26 -60 -10 -27 -22 -54 -25 -60 -4 -5 -11 -35 -14 -66 -11 -90 26 -154 114
-198 19 -10 71 -36 115 -59 44 -22 119 -52 165 -67 47 -15 99 -33 115 -40 50
-23 340 -75 411 -75 37 0 81 -5 98 -11 24 -9 77 -7 221 5 254 21 372 39 453
69 37 14 102 37 145 52 42 15 92 37 110 49 17 12 43 27 57 34 14 6 48 25 75
41 28 17 63 37 79 46 15 9 55 37 88 61 33 24 65 44 72 44 6 0 23 12 38 28 14
15 43 43 64 62 65 59 157 168 176 207 10 20 27 46 38 58 57 61 150 318 150
416 0 61 17 87 62 94 33 6 44 3 64 -16 34 -32 51 -74 57 -135 6 -83 33 -124
103 -159 155 -78 217 -155 280 -345 8 -25 19 -67 24 -95 14 -85 38 -183 49
-204 6 -11 11 -29 11 -41 0 -26 29 -121 41 -134 5 -6 9 -17 9 -25 1 -42 122
-183 194 -225 l47 -27 182 6 c248 8 305 18 321 60 9 25 9 25 -36 45 -36 15
-55 17 -113 10 -38 -4 -99 -15 -134 -24 -45 -12 -67 -14 -74 -7 -7 7 -7 14 -2
20 15 15 108 49 193 72 42 11 90 27 106 35 34 16 95 18 151 3 22 -6 63 -15 91
-20 28 -5 71 -16 95 -25 101 -37 255 -66 319 -59 68 7 213 42 260 62 170 73
259 129 403 255 84 72 38 144 -91 142 -52 0 -67 -5 -90 -26 -28 -26 -144 -98
-158 -98 -4 0 -15 -6 -23 -14 -9 -8 -41 -24 -71 -37 -30 -13 -66 -31 -80 -41
-14 -9 -73 -31 -131 -48 -91 -26 -123 -30 -220 -30 -120 0 -192 16 -197 43 -4
17 136 117 164 117 9 0 29 11 46 25 16 14 35 25 43 25 7 0 39 16 71 35 32 19
63 35 70 35 6 0 31 16 55 35 24 19 49 35 54 35 6 0 26 14 45 30 l35 29 -1 143
c-1 192 -47 462 -104 603 -4 11 -22 61 -40 110 -18 50 -53 133 -78 185 -25 52
-54 115 -66 140 -20 44 -56 93 -118 157 -17 17 -35 40 -42 51 -6 10 -24 42
-41 70 -22 38 -39 55 -64 63 -19 7 -46 22 -60 35 -14 13 -29 24 -32 24 -4 0
-33 20 -65 45 -32 25 -70 49 -83 52 -14 3 -41 17 -60 30 -33 22 -174 93 -185
93 -3 0 -27 13 -53 28 -48 27 -179 82 -199 82 -5 0 -19 7 -31 15 l-21 15 33
87 c45 119 69 244 80 421 4 56 11 102 16 102 12 0 52 -45 114 -128 26 -34 50
-62 53 -62 8 0 54 -43 89 -81 11 -13 36 -34 55 -47 18 -12 61 -42 94 -67 34
-25 64 -45 67 -45 4 0 22 -11 42 -24 20 -14 53 -30 73 -37 20 -6 43 -16 50
-22 16 -12 90 -40 186 -68 60 -18 89 -21 220 -17 108 3 167 9 206 22 159 52
253 88 325 126 44 23 107 52 140 64 52 19 69 32 122 96 35 41 76 81 93 89 29
14 31 14 69 -23 59 -58 177 -80 301 -56 45 8 50 13 93 80 28 44 62 153 54 174
-13 34 -37 29 -86 -17 -40 -37 -59 -47 -119 -61 -39 -9 -84 -16 -99 -16 -48 0
-107 21 -135 48 -24 22 -28 34 -28 81 0 31 4 63 9 70 17 26 -6 48 -54 56 -55
8 -109 -15 -177 -74 -85 -76 -146 -85 -308 -50 -52 11 -106 23 -120 26 -48 10
-155 55 -187 79 -17 13 -36 24 -40 24 -26 0 -78 80 -119 180 -28 68 -54 99
-92 110 -41 11 -72 -2 -72 -30 0 -89 163 -327 268 -392 21 -12 57 -38 82 -57
74 -56 224 -115 314 -123 16 -2 31 -8 33 -15 8 -22 -200 -106 -297 -119 -14
-2 -101 -11 -193 -20 -131 -12 -175 -13 -197 -4 -15 6 -34 10 -41 9 -65 -13
-362 112 -498 210 -69 49 -197 174 -234 228 -39 58 -52 47 -102 -87 -18 -49
-37 -105 -62 -190 -17 -59 -38 -114 -53 -142 -6 -10 -10 -26 -10 -35 0 -19
-44 -138 -80 -216 l-22 -49 -41 6 c-80 11 -409 24 -500 20 -51 -3 -129 -10
-175 -15 -46 -6 -86 -8 -90 -4 -7 6 36 44 50 45 21 0 173 82 253 135 50 33
106 69 126 80 113 62 340 298 434 451 53 86 135 242 135 257 0 4 13 35 29 69
40 86 70 164 82 218 5 25 20 81 33 125 39 131 70 294 102 530 22 165 31 198
70 240 31 34 37 37 71 30 28 -5 55 -23 103 -71 36 -35 71 -64 78 -64 26 0 42
96 24 143 -4 10 -30 40 -57 68 l-50 51 -85 -6 c-180 -13 -164 -16 -176 29 -11
35 -41 161 -65 265 -4 19 -15 64 -23 100 -23 96 -23 96 42 128 31 16 96 50
144 76 85 46 298 133 348 143 14 3 45 11 70 18 88 27 217 40 385 39 l170 -1
125 -47 c155 -58 151 -55 258 -131 273 -191 411 -358 532 -643 42 -98 79 -350
75 -512 -3 -148 -13 -220 -32 -220 -14 0 -17 6 -27 53 -5 20 -12 27 -30 27
-35 0 -50 -38 -42 -105 8 -73 22 -105 89 -207 45 -69 54 -88 50 -116 -8 -47
-46 -64 -138 -61 -85 4 -110 -9 -100 -50 16 -64 82 -111 158 -111 41 0 123 31
150 56 15 13 29 41 33 61 4 21 18 69 31 106 35 97 53 172 53 216 0 21 9 83 20
137 10 54 21 156 23 227 3 105 7 131 22 147 10 11 26 20 36 20 24 0 71 58 67
84 -2 17 -12 22 -53 26 -101 10 -138 55 -185 225 -12 44 -26 89 -30 100 -32
82 -46 113 -59 130 -9 11 -25 38 -36 60 -25 51 -110 167 -164 225 -24 25 -54
57 -68 72 -14 15 -66 60 -116 100 -49 40 -124 106 -166 147 -42 40 -86 80 -98
88 -38 25 -28 47 35 76 31 15 86 45 122 66 36 22 90 54 120 72 30 17 66 40 80
51 57 42 228 153 273 175 26 13 47 27 47 31 0 4 23 21 51 37 28 17 80 49 116
73 35 23 67 42 69 42 3 0 31 17 62 38 31 21 84 53 117 71 32 18 71 40 85 50
14 10 46 27 72 39 83 38 98 85 48 153 -54 75 -149 135 -447 284 -51 25 -93 50
-93 55 0 5 -9 12 -21 15 -11 4 -57 30 -102 57 -45 28 -107 66 -137 84 -30 19
-86 58 -124 89 -38 30 -73 55 -76 55 -4 0 -18 10 -32 23 -140 124 -163 140
-260 177 -81 31 -106 59 -110 123 -3 55 -23 73 -48 42z m480 -1553 c0 -4 -36
-29 -80 -56 -44 -27 -84 -54 -88 -60 -4 -7 -24 -22 -45 -35 -20 -12 -56 -38
-78 -57 -65 -54 -201 -123 -272 -138 -88 -19 -347 -9 -347 13 0 10 58 37 100
46 19 4 46 14 60 21 31 17 181 74 195 74 6 0 27 9 48 20 20 11 41 20 47 20 6
0 29 8 53 19 75 33 206 81 221 81 8 0 36 10 63 21 81 36 123 46 123 31z
m-4240 -2458 c-16 -26 -30 -54 -30 -61 0 -7 -9 -21 -21 -31 -11 -9 -27 -33
-35 -51 -8 -19 -27 -51 -42 -70 -35 -47 -122 -193 -122 -207 0 -22 -37 -43
-127 -73 -50 -17 -97 -31 -103 -31 -6 0 -72 -29 -146 -65 -74 -36 -137 -65
-140 -65 -3 0 -46 -20 -97 -44 -102 -48 -262 -100 -278 -91 -12 8 7 35 25 35
12 0 179 108 226 147 58 48 89 71 113 87 34 21 62 43 94 74 13 12 26 22 29 22
4 0 37 27 76 60 38 33 87 69 109 80 21 11 39 25 39 30 0 6 7 10 16 10 9 0 40
21 68 48 58 53 169 131 290 205 25 16 46 33 46 37 0 10 34 18 38 9 2 -4 -11
-28 -28 -55z"/>
<path d="M5436 7482 c-3 -5 -24 -15 -48 -22 -50 -17 -222 -113 -258 -145 -24
-21 -69 -46 -193 -107 -69 -35 -66 -35 -235 44 -75 35 -103 33 -198 -13 -70
-34 -142 -103 -178 -171 -31 -59 -46 -203 -27 -261 23 -67 53 -46 133 93 15
25 43 62 63 83 32 32 44 37 82 37 24 0 58 -8 76 -17 23 -12 57 -17 117 -17 85
-1 85 -1 165 49 44 27 82 52 85 55 7 8 238 163 264 177 11 6 48 21 81 34 82
30 111 53 125 95 11 32 10 40 -7 62 -21 29 -38 38 -47 24z"/>
<path d="M2528 7435 c-26 -7 -63 -22 -82 -34 -36 -23 -156 -159 -188 -215 -40
-69 -43 -77 -30 -94 11 -16 30 -49 66 -119 10 -18 21 -35 27 -38 5 -4 25 -40
45 -80 20 -41 43 -80 50 -86 8 -6 14 -19 14 -29 0 -9 18 -38 40 -63 22 -25 40
-50 40 -57 0 -6 9 -23 20 -37 11 -14 20 -32 20 -39 0 -7 12 -28 28 -46 28 -34
43 -58 73 -116 32 -61 95 -90 138 -63 29 18 -10 230 -54 298 -8 12 -15 28 -15
35 0 13 -141 255 -179 306 -32 43 -69 122 -92 197 -18 59 -18 60 2 81 14 15
37 23 75 27 78 8 128 35 132 71 5 40 -5 73 -28 96 -23 23 -36 23 -102 5z"/>
<path d="M3896 6631 c-71 -36 -118 -68 -134 -89 l-25 -33 25 -26 c24 -23 27
-24 49 -10 13 8 47 20 74 27 28 7 64 22 80 33 38 25 94 88 95 105 0 13 -39 53
-50 50 -3 0 -54 -26 -114 -57z"/>
<path d="M1655 6624 c-122 -69 -137 -82 -180 -159 -40 -72 -55 -154 -32 -174
9 -7 43 -69 77 -139 34 -70 66 -136 73 -147 19 -33 117 -224 169 -328 26 -54
48 -108 48 -119 0 -11 -19 -48 -42 -81 -40 -60 -41 -62 -29 -102 7 -22 19 -62
26 -88 15 -51 89 -146 115 -146 8 0 30 12 49 28 l34 28 -21 35 c-44 71 -24
150 62 251 l49 59 -23 76 c-13 43 -27 82 -31 87 -3 6 -16 37 -28 69 -12 33
-30 71 -39 85 -10 14 -27 46 -37 71 -11 25 -45 92 -76 150 -31 58 -71 137 -89
175 -17 39 -41 88 -51 110 -41 87 -22 114 86 122 70 5 83 10 107 34 51 50 29
129 -41 149 -59 16 -72 13 -176 -46z"/>
<path d="M1341 6029 c-36 -14 -123 -91 -155 -137 -22 -33 -26 -47 -21 -73 7
-33 109 -225 142 -269 30 -39 162 -311 169 -347 17 -87 -97 3 -173 137 -75
132 -111 177 -160 200 -53 25 -111 27 -120 4 -8 -21 -12 -11 168 -361 l89
-173 -39 -27 c-68 -49 -99 -155 -72 -250 11 -38 69 -113 87 -113 7 0 30 21 51
46 37 45 38 49 43 143 5 91 7 100 37 138 18 22 44 44 58 47 18 5 26 15 31 41
8 43 16 50 84 63 93 18 108 27 121 72 12 38 10 49 -20 138 -34 101 -50 136
-161 367 -38 77 -76 157 -85 179 l-17 38 46 47 c47 48 59 84 30 95 -24 9 -106
6 -133 -5z"/>
<path d="M5440 5425 c-8 -10 -11 -57 -8 -149 3 -117 6 -138 24 -162 34 -46 52
-53 75 -25 11 14 17 32 14 45 -3 11 -7 64 -9 116 -5 110 -14 168 -29 177 -21
13 -56 11 -67 -2z"/>
<path d="M5252 5304 c-32 -22 -29 -83 8 -161 27 -59 52 -79 62 -50 3 6 2 56
-1 110 -4 71 -10 100 -21 107 -20 13 -22 13 -48 -6z"/>
<path d="M6645 5093 c-11 -3 -44 -16 -73 -31 -60 -28 -83 -61 -62 -87 10 -12
35 -15 125 -14 149 1 175 -11 407 -190 33 -26 35 -26 49 0 9 18 5 29 -28 77
-69 101 -151 186 -221 228 -30 19 -51 23 -107 23 -38 -1 -79 -3 -90 -6z"/>
<path d="M995 4703 c-35 -9 -145 -82 -171 -113 -15 -17 -46 -44 -69 -60 -47
-32 -59 -58 -69 -147 -5 -39 -2 -61 10 -85 32 -63 71 -65 132 -8 46 44 45 42
43 115 -3 60 24 105 119 203 74 76 76 113 5 95z"/>
<path d="M6757 4482 c-48 -53 -38 -141 23 -202 16 -16 23 -17 49 -7 34 13 51
48 51 109 0 86 -78 150 -123 100z"/>
<path d="M6834 3770 c-12 -4 -75 -16 -140 -25 -66 -9 -147 -20 -180 -25 -34
-6 -78 -10 -98 -10 -87 0 -104 -49 -29 -82 40 -17 60 -20 137 -16 50 3 107 12
126 21 19 8 66 23 104 31 81 19 139 57 134 89 -3 24 -22 30 -54 17z"/>
<path d="M7218 3533 c-15 -16 -32 -41 -37 -56 -24 -62 -5 -193 30 -215 27 -17
37 -8 45 36 3 20 15 63 25 94 26 77 25 144 0 158 -28 15 -34 13 -63 -17z"/>
</g>
</svg>
