<?xml version="1.0" standalone="no"?>
<!DOCTYPE svg PUBLIC "-//W3C//DTD SVG 20010904//EN"
 "http://www.w3.org/TR/2001/REC-SVG-20010904/DTD/svg10.dtd">
<svg version="1.0" xmlns="http://www.w3.org/2000/svg"
 width="1538.000000pt" height="738.000000pt" viewBox="0 0 1538.000000 738.000000"
 preserveAspectRatio="xMidYMid meet">
<metadata>
Created by potrace 1.14, written by Peter Selinger 2001-2017
</metadata>
<g transform="translate(0.000000,738.000000) scale(0.100000,-0.100000)"
fill="#000000" stroke="none">
<path d="M4815 7369 c-164 -11 -199 -28 -210 -103 -20 -140 -29 -177 -89 -396
-33 -120 -165 -405 -215 -465 -9 -11 -32 -42 -50 -70 -19 -27 -39 -54 -45 -60
-19 -17 -61 -79 -74 -107 -11 -26 -16 -28 -70 -28 -70 0 -236 47 -302 85 -75
43 -82 49 -128 90 -24 22 -50 43 -57 47 -19 11 -27 -33 -20 -116 13 -148 27
-211 66 -293 41 -87 83 -136 150 -178 45 -29 48 -46 16 -89 -52 -70 -104 -204
-114 -291 -3 -27 -12 -56 -21 -62 -20 -16 -35 -178 -36 -389 -1 -198 -1 -198
96 -192 45 4 75 11 87 23 11 9 37 26 60 38 22 12 60 37 86 55 40 28 44 35 35
52 -14 26 -21 25 -80 -11 -77 -47 -81 -42 -76 108 5 161 20 281 46 363 11 36
25 83 31 105 6 22 29 78 50 125 21 47 39 90 39 96 0 6 9 19 20 29 24 21 91 16
120 -10 10 -9 27 -15 37 -13 16 3 18 14 18 88 l0 84 165 -2 c284 -4 408 -21
452 -60 22 -19 17 -27 -33 -52 -25 -13 -39 -27 -39 -40 0 -32 54 -25 133 16
117 60 158 45 274 -102 18 -22 50 -53 73 -69 38 -26 42 -27 57 -12 15 15 15
19 -2 59 -10 24 -27 62 -39 85 -28 58 -15 71 51 50 26 -9 95 -26 153 -38 166
-34 334 -87 419 -132 79 -42 109 -64 168 -125 33 -34 57 -69 63 -93 6 -21 15
-41 20 -44 15 -9 12 -51 -3 -64 -11 -8 -18 -6 -33 10 -16 17 -26 20 -64 14
-66 -10 -103 -31 -155 -86 -49 -52 -55 -82 -23 -103 22 -13 104 14 167 56 49
33 86 32 117 -3 15 -17 18 -35 16 -100 -3 -96 -29 -160 -98 -233 -24 -26 -44
-52 -44 -57 0 -5 -9 -9 -19 -9 -10 0 -41 -18 -68 -41 -26 -22 -70 -48 -97 -57
-65 -22 -73 -38 -57 -102 l13 -50 -34 -39 c-39 -45 -43 -49 -128 -133 -78 -76
-160 -169 -160 -181 0 -4 -7 -10 -15 -13 -9 -4 -28 -27 -42 -53 -15 -25 -31
-48 -35 -52 -16 -11 -88 -113 -88 -125 0 -7 -18 -34 -40 -59 -22 -26 -47 -62
-55 -81 -7 -18 -19 -39 -24 -46 -15 -18 -77 -107 -102 -145 -12 -18 -28 -33
-37 -33 -45 0 -194 77 -215 111 -16 25 1 87 29 105 23 16 29 15 117 -15 101
-34 135 -38 143 -17 13 35 -40 84 -129 118 -92 37 -150 21 -187 -51 -22 -44
-46 -71 -63 -71 -16 0 -97 73 -97 87 0 14 15 20 76 28 27 4 70 20 97 36 26 16
51 29 55 29 4 0 18 8 32 18 13 9 49 31 79 48 57 31 67 47 56 91 -5 23 -9 24
-48 18 -23 -3 -78 -23 -122 -44 -44 -21 -98 -45 -120 -54 -108 -42 -348 -36
-386 9 -6 8 -19 14 -28 14 -21 0 -89 52 -234 178 -88 77 -107 99 -113 129 -8
45 8 60 75 68 84 10 136 25 150 45 27 39 98 13 161 -60 75 -86 271 -126 427
-85 68 18 191 74 288 130 39 23 115 65 170 95 101 53 135 76 135 92 0 15 -45
8 -90 -16 -25 -13 -90 -47 -145 -75 -148 -77 -223 -101 -340 -108 -96 -6 -226
8 -250 26 -5 4 -37 18 -70 31 -56 22 -124 57 -135 70 -3 3 -24 18 -48 34 l-44
30 -126 -32 c-203 -52 -366 -57 -445 -15 -40 21 -130 119 -172 185 -51 82 -91
57 -48 -30 29 -58 25 -88 -10 -78 -12 3 -112 20 -222 37 -195 29 -504 85 -635
114 -36 8 -102 23 -147 34 -78 18 -133 18 -133 1 0 -5 -9 -11 -19 -15 -11 -3
-23 -16 -27 -28 -4 -12 -17 -31 -29 -42 -11 -11 -30 -33 -41 -49 -51 -76 -106
-164 -120 -196 -9 -19 -27 -58 -40 -87 -13 -29 -31 -81 -40 -115 -9 -35 -21
-68 -26 -75 -30 -37 -48 -492 -21 -538 8 -13 30 -23 75 -31 34 -6 86 -18 113
-26 28 -8 82 -23 120 -32 39 -10 95 -25 125 -33 54 -15 163 -41 285 -67 33 -7
76 -18 95 -24 19 -6 71 -16 115 -22 44 -6 100 -15 125 -20 25 -5 106 -17 180
-25 74 -9 170 -21 214 -26 43 -6 208 -9 365 -8 l286 2 8 -72 c5 -39 7 -77 4
-85 -5 -13 -84 -36 -277 -80 -58 -13 -127 -32 -155 -41 -27 -9 -79 -25 -115
-37 -64 -20 -160 -60 -190 -79 -8 -5 -35 -19 -60 -31 -24 -11 -69 -38 -100
-58 -30 -21 -70 -45 -87 -54 -18 -9 -33 -21 -33 -26 0 -5 -17 -18 -37 -29 -21
-11 -56 -37 -78 -58 -68 -65 -195 -213 -233 -272 -20 -31 -52 -72 -69 -91 -18
-19 -45 -57 -59 -85 -15 -27 -30 -52 -34 -55 -3 -3 -15 -23 -26 -45 -11 -22
-37 -71 -56 -110 -39 -75 -64 -137 -79 -198 -5 -21 -16 -49 -25 -62 -23 -35
-76 -261 -78 -330 -1 -74 26 -130 64 -130 22 0 28 11 63 120 22 66 50 143 62
170 88 202 113 254 133 284 12 19 22 39 22 44 0 11 9 25 96 156 27 41 54 81
59 90 74 117 308 333 475 435 40 25 76 49 79 54 6 7 132 75 213 114 92 43 311
110 408 124 25 4 92 17 150 31 111 26 152 31 320 38 123 6 398 -11 438 -26 15
-6 52 -15 82 -20 30 -4 71 -15 90 -23 19 -8 78 -31 130 -52 52 -21 116 -50
141 -66 25 -15 51 -28 56 -28 6 0 41 -25 79 -55 89 -72 105 -76 145 -36 43 43
103 43 185 0 32 -17 66 -37 74 -43 8 -7 41 -25 74 -41 l59 -29 33 37 c19 20
34 43 34 51 0 9 -22 21 -57 31 -54 16 -128 51 -184 88 -15 10 -49 20 -76 24
-43 5 -55 2 -91 -22 l-42 -27 -52 33 c-29 18 -60 38 -68 45 -20 15 -255 135
-300 152 -19 8 -75 27 -123 43 -116 38 -120 41 -142 88 -10 23 -22 41 -27 41
-4 0 -8 4 -8 10 0 5 -11 26 -25 46 -14 20 -25 44 -25 53 0 9 -14 36 -30 61
-16 25 -30 51 -30 59 0 19 -109 304 -121 316 -13 13 -11 25 6 25 8 0 39 -31
69 -69 31 -39 74 -85 97 -103 22 -18 54 -45 69 -60 16 -14 38 -29 49 -33 12
-3 27 -12 34 -19 21 -22 90 -54 130 -61 46 -9 51 -18 48 -73 -3 -52 7 -62 62
-62 74 0 95 59 36 103 -36 26 -36 43 1 87 17 19 30 42 30 52 0 9 13 32 28 50
29 33 107 151 132 198 7 14 34 54 60 90 26 36 58 85 70 110 13 25 25 47 29 50
3 3 11 12 16 22 10 16 122 165 152 202 26 33 32 3 11 -59 -16 -48 -21 -87 -21
-200 -1 -77 4 -174 10 -215 15 -94 77 -324 93 -345 4 -5 11 -24 14 -40 4 -17
20 -51 36 -75 17 -25 30 -50 30 -55 0 -6 18 -37 40 -70 22 -33 40 -63 40 -67
0 -10 92 -132 102 -136 5 -2 8 -8 8 -12 0 -5 11 -25 24 -45 14 -20 28 -50 31
-67 8 -34 165 -219 237 -279 59 -49 179 -129 194 -129 6 0 17 -6 23 -13 14
-17 187 -90 266 -112 33 -9 85 -25 115 -35 31 -10 101 -25 157 -34 108 -16
135 -27 154 -63 7 -13 16 -23 19 -23 4 0 19 -18 33 -39 15 -22 44 -57 65 -79
22 -22 49 -54 61 -71 55 -78 210 -110 299 -63 54 28 83 28 119 -1 133 -109
324 -132 689 -82 360 49 396 46 432 -28 12 -23 31 -87 43 -142 45 -210 63
-255 105 -255 37 0 90 60 98 112 6 42 -19 189 -43 251 -6 16 -14 60 -18 99 -5
58 -11 77 -34 102 l-27 31 -163 -2 c-91 -1 -253 -11 -364 -23 -147 -16 -256
-22 -410 -21 l-209 1 -23 29 c-42 54 -90 65 -256 63 l-148 -2 -65 52 c-35 28
-64 55 -64 58 0 4 -9 17 -20 30 -11 12 -18 26 -15 30 3 4 69 11 147 15 78 4
164 13 192 20 28 7 71 16 96 20 25 4 106 23 180 42 74 19 151 39 170 43 19 5
66 21 105 35 38 14 77 25 86 25 9 0 33 15 55 34 34 30 39 38 38 76 -2 51 -13
60 -81 60 -55 0 -66 3 -183 58 -166 76 -247 117 -285 142 -22 15 -54 32 -72
39 -17 7 -34 19 -37 27 -3 8 -12 14 -20 14 -13 0 -236 210 -236 223 0 3 -23
36 -50 72 -28 36 -50 72 -50 79 0 7 -16 43 -35 80 -19 37 -35 74 -35 81 0 7
-14 48 -30 89 -29 71 -59 215 -75 348 -5 49 -4 58 12 66 23 12 114 31 173 36
25 2 95 9 157 16 173 19 260 -3 304 -78 12 -20 30 -30 81 -43 37 -10 77 -23
90 -30 26 -14 105 -33 228 -54 65 -11 114 -28 210 -75 69 -33 136 -68 150 -76
14 -8 65 -35 114 -59 78 -39 97 -45 151 -44 77 1 154 -30 194 -78 24 -29 27
-40 21 -68 -11 -47 -43 -96 -82 -125 -51 -37 -146 -100 -153 -100 -14 0 -116
-82 -126 -103 -6 -12 -22 -31 -35 -42 -36 -30 -56 -120 -50 -224 9 -141 37
-185 101 -161 29 11 30 16 9 66 -31 73 -4 249 42 277 7 4 18 23 24 42 15 45
54 75 96 75 33 0 34 -2 34 -38 0 -35 -45 -118 -87 -160 -35 -36 -45 -75 -41
-154 3 -43 10 -84 16 -90 7 -7 12 -19 12 -27 0 -9 21 -42 47 -74 46 -56 47
-57 97 -56 113 1 156 44 118 117 -25 48 -49 53 -63 14 -16 -46 -39 -49 -71
-11 -34 40 -36 73 -6 93 46 32 115 17 180 -39 38 -32 116 -75 137 -75 14 0 31
59 31 111 0 61 -17 79 -76 79 -105 0 -142 45 -164 197 -12 89 -12 93 10 135
12 23 33 74 46 113 14 38 29 78 35 88 46 84 76 139 96 176 13 25 29 52 36 60
8 9 40 57 71 106 32 50 73 110 92 135 19 25 41 60 49 78 19 39 58 44 76 10 7
-13 42 -50 78 -83 130 -120 161 -155 193 -222 29 -62 32 -76 31 -159 -1 -65
-7 -105 -21 -140 -25 -61 -78 -201 -104 -273 -15 -43 -18 -71 -14 -145 2 -50
10 -115 17 -144 11 -46 11 -55 -4 -69 -15 -15 -18 -15 -40 0 -14 9 -33 37 -42
64 -30 85 -34 93 -49 93 -9 0 -20 -16 -26 -40 -16 -58 9 -148 56 -205 42 -51
60 -59 116 -50 42 7 86 45 112 96 19 38 32 32 65 -25 17 -32 53 -73 81 -95 28
-22 62 -54 76 -70 14 -17 30 -31 34 -31 5 0 44 -22 87 -48 76 -47 154 -76 300
-112 60 -15 109 -18 281 -17 l209 2 36 -27 c19 -16 39 -28 42 -28 4 0 25 -16
48 -35 22 -19 45 -35 51 -35 5 0 37 -13 70 -29 34 -16 68 -31 76 -35 8 -3 35
-18 60 -32 25 -14 87 -41 138 -61 50 -20 92 -41 92 -47 0 -6 -15 -20 -34 -30
-54 -29 -162 -165 -224 -281 -25 -47 -70 -172 -82 -230 -13 -61 -14 -284 -2
-340 15 -70 40 -136 62 -160 10 -11 21 -30 24 -42 4 -11 13 -24 21 -27 8 -3
28 -23 44 -46 45 -62 157 -149 246 -191 109 -50 213 -71 376 -76 145 -5 224 8
297 48 20 10 40 19 44 19 5 0 29 15 55 34 94 66 300 142 458 168 120 19 390
17 505 -5 100 -19 156 -35 178 -51 37 -27 44 65 17 199 -15 68 -14 70 10 117
l25 47 -22 16 c-13 8 -34 15 -48 15 -31 0 -103 27 -225 85 -52 25 -106 50
-120 55 -44 17 -19 33 41 27 29 -3 54 -1 56 4 2 5 61 18 131 29 213 33 329 68
442 133 39 23 84 53 102 68 17 15 35 28 40 30 5 2 34 40 64 84 42 61 60 98 74
155 10 41 29 98 41 125 38 81 121 191 187 246 71 59 267 160 347 179 30 7 64
19 75 26 11 8 29 14 40 14 26 1 138 61 143 77 2 7 -16 24 -40 39 -40 24 -80
72 -119 143 -8 16 -27 43 -42 61 -34 40 -34 62 -1 106 48 63 83 40 134 -89 17
-45 44 -95 60 -112 62 -68 100 -174 114 -324 3 -30 10 -59 16 -65 5 -5 10 -18
10 -28 0 -26 40 -58 71 -58 34 0 79 19 80 34 4 37 -4 163 -11 171 -4 6 -11 32
-15 60 -6 43 -14 56 -69 110 -59 57 -65 66 -105 180 -58 165 -79 204 -129 242
-80 61 -177 39 -231 -53 l-20 -34 -88 0 c-56 0 -130 -10 -203 -25 -198 -44
-239 -57 -284 -92 -16 -13 -33 -23 -38 -23 -6 0 -21 -9 -35 -20 -18 -14 -42
-20 -77 -21 -86 -1 -143 -14 -187 -45 -23 -16 -57 -38 -75 -49 -38 -24 -105
-74 -119 -90 -33 -38 -106 -57 -164 -43 -40 9 -52 8 -80 -7 -18 -9 -57 -19
-86 -22 -51 -5 -52 -5 -74 30 -28 45 -62 52 -263 52 -124 0 -150 -3 -164 -17
-15 -15 -15 -17 5 -28 12 -6 30 -8 41 -5 22 7 111 -22 161 -53 20 -12 41 -22
46 -22 6 0 16 -6 22 -14 19 -23 130 -56 187 -56 36 0 59 6 77 20 21 17 41 20
124 21 54 0 112 6 128 12 47 19 140 75 160 97 10 11 23 20 29 20 6 0 29 18 51
40 22 21 45 39 52 40 6 0 35 12 65 27 32 16 75 28 108 31 49 4 59 1 95 -26 52
-40 61 -50 92 -97 29 -44 64 -129 67 -159 3 -41 -23 -24 -52 34 -17 34 -43 75
-57 93 -14 18 -36 44 -48 59 -13 17 -40 32 -68 40 -41 10 -50 9 -73 -5 -14
-10 -26 -27 -26 -38 0 -28 18 -59 35 -59 19 0 52 -45 60 -83 4 -18 12 -38 19
-46 19 -24 13 -278 -7 -325 -9 -21 -17 -47 -17 -57 0 -48 -131 -248 -163 -249
-4 0 -33 -17 -65 -39 -87 -59 -242 -108 -412 -132 -36 -5 -90 -14 -120 -19
-176 -32 -411 -20 -582 31 -133 39 -334 107 -376 127 -49 24 -58 7 -65 -118
-7 -145 -8 -145 89 -146 96 -1 120 -8 128 -38 7 -28 56 -49 95 -40 14 4 40 19
56 34 75 68 102 74 172 34 26 -14 80 -32 122 -40 41 -8 80 -19 88 -25 22 -19
3 -31 -45 -27 l-47 3 -7 -40 c-4 -22 -7 -67 -7 -100 -1 -73 -25 -203 -40 -218
-18 -18 -46 5 -49 40 -2 17 4 48 12 68 32 76 12 215 -35 241 -13 7 -29 13 -35
14 -10 0 -44 -67 -84 -170 -12 -30 -27 -68 -35 -85 -7 -16 -19 -47 -27 -68
-30 -86 -180 -237 -236 -237 -13 0 -33 -5 -45 -12 -70 -37 -339 -50 -451 -22
-174 45 -330 170 -378 304 -39 108 -48 331 -19 485 13 67 71 197 104 234 45
49 120 101 160 112 23 6 49 16 57 23 26 21 63 35 127 50 34 8 66 17 73 21 6 4
47 15 92 26 45 11 86 23 92 28 6 5 43 21 81 36 39 15 85 38 102 52 68 50 157
139 169 169 7 18 31 46 54 64 40 32 40 32 40 101 0 50 -6 79 -21 109 -27 52
-38 170 -18 186 15 11 159 40 249 49 30 4 82 14 115 24 33 10 80 22 105 25 80
12 388 94 428 115 9 4 75 28 146 52 117 39 131 47 149 77 l20 34 66 -6 c71 -8
164 -35 190 -57 9 -8 29 -22 45 -33 15 -10 42 -33 58 -52 17 -19 38 -34 48
-34 26 0 60 60 60 104 0 50 -22 90 -93 163 -50 53 -58 65 -47 78 7 8 18 15 25
15 7 0 36 15 64 33 27 17 89 57 137 87 47 30 94 62 104 70 11 8 51 35 89 60
56 35 71 49 71 68 0 22 -3 24 -29 19 -88 -18 -384 -171 -477 -247 -17 -14 -46
-36 -63 -50 -51 -39 -57 -58 -30 -87 13 -13 38 -31 56 -39 45 -22 106 -114 74
-114 -5 0 -14 7 -22 16 -21 26 -81 51 -155 67 -83 17 -100 27 -135 75 -41 57
-119 202 -119 221 0 30 188 230 351 374 42 37 80 67 85 67 21 1 76 59 71 74
-9 23 -36 20 -82 -9 -22 -13 -51 -30 -65 -37 -40 -21 -151 -103 -210 -157 -30
-27 -70 -62 -87 -76 -18 -15 -33 -32 -33 -39 0 -6 -12 -23 -28 -36 -15 -14
-41 -42 -57 -63 l-30 -38 -130 -10 c-162 -12 -368 -32 -600 -59 -263 -31 -456
-48 -664 -58 -106 -6 -135 -4 -139 6 -5 14 37 112 48 112 12 0 30 101 30 172
0 86 -29 144 -90 183 -57 36 -68 71 -73 235 l-4 140 51 1 c138 3 135 36 -4 46
-92 6 -95 7 -137 46 -46 42 -63 42 -63 -2 0 -20 -8 -34 -26 -46 -20 -13 -23
-19 -13 -31 6 -8 19 -14 29 -14 38 0 54 -36 58 -132 4 -79 8 -97 33 -137 16
-25 29 -53 29 -62 0 -9 -20 -32 -45 -50 -48 -37 -70 -76 -60 -108 11 -36 43
-23 133 52 64 53 106 27 106 -68 0 -42 -9 -70 -53 -155 -59 -119 -95 -162
-178 -217 -93 -61 -105 -78 -98 -143 4 -42 1 -66 -16 -110 -12 -30 -28 -62
-34 -70 -17 -22 -58 -144 -93 -282 -6 -21 -8 -46 -5 -56 2 -10 -2 -24 -10 -30
-11 -9 -34 -5 -108 20 -112 38 -169 70 -192 110 -23 41 -22 47 18 88 41 42 57
96 31 106 -9 4 -24 0 -34 -9 -65 -57 -207 -92 -331 -82 -240 20 -446 127 -519
269 -38 74 -72 156 -72 176 0 10 -5 31 -11 47 -12 33 -32 188 -32 253 0 53 36
230 56 280 8 19 18 51 22 70 9 42 105 190 166 255 58 62 91 78 143 71 38 -6
42 -4 53 21 6 16 14 48 18 71 6 39 12 46 44 59 20 8 63 27 96 43 83 39 172 72
295 110 58 18 119 38 135 45 76 32 419 99 584 114 113 11 140 19 127 40 -19
30 -477 -10 -741 -66 -38 -8 -90 -18 -115 -23 -25 -5 -74 -16 -110 -25 -36
-10 -81 -19 -100 -22 -19 -3 -48 -16 -63 -29 -15 -13 -45 -28 -67 -34 -50 -13
-148 -58 -156 -71 -3 -6 -25 -19 -48 -30 -95 -44 -287 -210 -347 -300 -13 -20
-50 -75 -81 -122 -32 -47 -58 -95 -58 -107 0 -12 -9 -42 -21 -67 -12 -26 -32
-89 -46 -142 -23 -90 -24 -107 -19 -281 3 -102 10 -214 16 -249 13 -78 11 -81
-81 -81 -52 0 -70 4 -87 20 -33 31 -36 60 -23 224 12 161 7 203 -28 240 -11
12 -27 38 -35 58 -18 41 -54 80 -170 183 -44 39 -92 83 -108 100 -60 63 -62
144 -4 231 20 29 36 60 36 67 0 8 9 40 21 73 14 42 19 76 17 117 -5 68 -17 80
-103 98 -119 24 -184 69 -454 317 -42 38 -162 109 -199 118 -15 4 -48 18 -75
31 -26 13 -70 25 -97 28 -46 3 -93 23 -205 83 -35 19 -141 68 -200 93 -65 27
-294 96 -364 109 -25 5 -77 16 -116 25 -226 49 -692 62 -905 25 -69 -12 -139
-28 -157 -36 -17 -8 -35 -14 -41 -14 -15 0 -176 -66 -277 -114 -49 -23 -117
-52 -150 -63 -33 -12 -84 -31 -112 -44 -29 -13 -56 -20 -59 -16 -9 9 33 55 58
63 28 9 21 40 -17 78 -41 41 -42 47 -13 86 29 40 36 126 14 183 -29 76 -142
168 -303 248 -57 28 -103 55 -103 60 0 33 241 -37 350 -101 28 -16 54 -30 58
-30 4 0 39 -27 77 -60 39 -33 73 -60 76 -60 4 0 9 -10 12 -22 3 -13 12 -41 21
-63 35 -92 16 -169 -55 -220 -58 -41 -56 -60 4 -49 60 10 75 23 98 84 11 30
25 60 30 66 5 6 14 37 20 67 13 72 -4 132 -58 208 -59 84 -213 216 -273 234
-14 4 -36 14 -49 22 -25 16 -80 34 -181 59 -30 7 -86 22 -125 34 -38 11 -81
20 -96 20 -34 0 -89 19 -89 31 0 6 84 7 208 3 229 -8 243 -5 203 44 -37 47
-44 73 -32 118 13 53 60 147 135 271 113 188 124 209 156 285 44 106 51 111
100 59 22 -23 40 -48 40 -55 0 -13 -48 -86 -81 -121 -56 -61 -85 -104 -138
-209 -80 -155 -105 -246 -98 -352 4 -68 15 -112 33 -133 6 -7 44 31 44 43 0 7
16 49 35 95 19 46 41 107 50 136 8 29 28 80 45 113 16 34 30 63 30 66 0 5 37
59 134 201 50 72 56 85 56 132 0 35 -5 55 -14 60 -8 4 -21 20 -28 34 -23 44
-68 98 -160 190 -92 93 -192 164 -298 211 -36 17 -81 38 -100 48 -69 35 -461
150 -620 181 -25 5 -65 14 -90 20 -25 6 -115 14 -200 19 -85 5 -168 10 -185
12 -16 2 -75 0 -130 -3z m455 -155 c52 -8 111 -21 130 -29 43 -16 165 -44 243
-55 32 -5 70 -16 83 -25 22 -14 24 -22 23 -73 -1 -44 -8 -68 -31 -106 -28 -47
-30 -58 -13 -98 6 -15 2 -18 -20 -18 -18 0 -41 -13 -66 -37 -32 -31 -39 -45
-39 -75 0 -21 -7 -56 -17 -79 -13 -33 -14 -48 -5 -70 5 -16 7 -27 2 -24 -4 3
-18 -4 -31 -14 -19 -15 -21 -22 -13 -42 9 -19 6 -27 -21 -50 l-31 -28 -150 40
c-179 48 -212 55 -379 83 l-129 21 -10 33 c-14 49 6 97 74 182 97 121 100 132
105 322 2 89 4 164 4 165 3 7 208 -10 291 -23z m-398 -820 c217 -37 387 -85
480 -135 10 -5 24 -9 31 -9 8 0 22 -9 32 -20 17 -18 17 -21 1 -46 -10 -14 -33
-35 -52 -46 -62 -37 -78 -112 -30 -143 25 -16 114 -35 161 -35 33 0 46 -12 26
-25 -10 -6 -294 18 -416 34 -167 23 -297 43 -400 62 -60 10 -125 19 -144 19
-65 0 -278 47 -226 50 6 0 67 2 136 3 149 3 161 8 153 70 -6 42 -5 42 48 78
l53 36 -3 61 -4 62 31 0 c17 0 73 -7 123 -16z m-1127 -294 c10 -17 95 -56 160
-75 85 -24 175 -65 175 -81 0 -7 -12 -22 -26 -33 -22 -17 -41 -21 -106 -21
-44 0 -88 4 -98 10 -23 12 -150 184 -150 203 0 11 38 9 45 -3z m5843 -1774
c40 -12 78 -28 84 -34 8 -8 -3 -40 -41 -117 -28 -59 -51 -108 -51 -110 0 -18
-109 -181 -152 -226 -9 -10 -26 -35 -38 -56 -31 -58 -41 -73 -96 -143 -28 -36
-63 -82 -78 -102 -28 -37 -28 -37 -58 -22 -16 8 -36 13 -44 10 -8 -3 -25 -1
-39 4 -39 15 -31 49 32 141 58 85 98 154 152 264 16 33 37 71 45 85 8 14 45
88 82 165 36 77 71 146 76 153 15 17 43 15 126 -12z m4896 -1825 c10 -9 30
-40 43 -69 13 -29 33 -66 44 -81 17 -23 19 -34 12 -62 -10 -36 -43 -54 -43
-23 0 34 -41 102 -95 159 -51 53 -65 82 -48 99 10 10 65 -4 87 -23z"/>
<path d="M1706 5775 c-9 -9 -16 -25 -16 -35 0 -10 -9 -39 -20 -65 -11 -26 -20
-63 -20 -83 0 -21 -4 -53 -10 -71 -12 -43 -14 -221 -5 -361 7 -96 11 -110 44
-165 44 -74 89 -114 135 -122 44 -7 56 15 34 61 -27 53 -58 166 -69 245 -13
98 -24 173 -43 289 -13 81 -13 98 0 134 18 53 19 162 0 177 -11 9 -18 8 -30
-4z"/>
<path d="M1498 5573 c-17 -20 -73 -171 -89 -242 -6 -25 -15 -102 -19 -170 -5
-68 -11 -126 -13 -128 -3 -2 -33 -10 -68 -19 -78 -18 -109 -26 -224 -60 -49
-14 -115 -32 -145 -40 -30 -8 -77 -21 -105 -29 -27 -8 -66 -17 -85 -20 -19 -3
-73 -15 -120 -25 -135 -31 -339 -52 -475 -49 -130 2 -155 -4 -155 -42 0 -34
39 -47 140 -48 52 -1 109 -4 126 -7 74 -13 467 39 691 92 57 13 108 24 114 24
13 0 71 26 165 73 68 34 101 32 90 -6 -3 -12 -9 -62 -12 -112 -5 -80 -3 -94
16 -123 32 -51 53 -40 62 32 4 32 18 74 30 94 46 75 77 150 86 208 5 32 7 151
5 264 -2 132 1 227 9 268 13 69 3 96 -24 65z"/>
<path d="M4177 5240 c-15 -12 -27 -26 -27 -31 0 -5 -11 -26 -24 -47 -27 -44
-48 -128 -39 -163 7 -31 32 -59 61 -70 34 -13 182 -13 195 0 6 6 18 11 27 11
9 0 22 11 28 25 15 33 1 40 -75 36 -121 -6 -149 39 -98 156 14 31 25 66 23 78
-4 28 -39 30 -71 5z"/>
<path d="M1999 4886 c-51 -49 -123 -139 -158 -201 -55 -94 -65 -113 -86 -170
-110 -289 -140 -351 -169 -359 -12 -3 -84 -11 -161 -17 -114 -9 -176 -8 -335
5 -245 20 -359 41 -555 102 -54 17 -62 20 -145 57 -30 14 -66 28 -80 32 -29 9
-66 35 -123 88 -44 40 -81 46 -100 16 -7 -12 -4 -24 13 -47 13 -18 29 -32 34
-32 6 0 38 -25 71 -55 33 -30 65 -55 71 -55 6 0 17 -7 24 -15 16 -19 173 -103
235 -126 27 -10 70 -25 95 -34 127 -47 351 -82 565 -87 91 -3 123 1 185 20 90
27 196 46 216 38 10 -4 14 -25 14 -84 0 -86 3 -92 59 -111 50 -16 58 -4 66
102 6 84 63 336 85 377 5 10 14 35 19 56 5 22 28 92 50 157 61 173 139 268
247 300 27 8 49 20 49 27 0 16 -83 60 -115 60 -16 0 -42 -16 -71 -44z"/>
<path d="M4557 4879 c7 -36 32 -87 56 -114 10 -11 39 -49 65 -84 53 -72 101
-103 151 -99 46 4 50 22 9 39 -45 18 -105 75 -128 118 -10 20 -27 45 -39 55
-12 11 -21 23 -21 28 0 12 -76 88 -89 88 -6 0 -8 -11 -4 -31z"/>
<path d="M230 4576 c0 -12 7 -31 15 -43 12 -18 29 -22 112 -27 103 -7 201 5
214 26 22 34 -52 54 -228 61 -110 4 -113 4 -113 -17z"/>
<path d="M11729 4516 c-3 -4 -35 -13 -70 -21 -137 -30 -200 -67 -229 -132 -16
-37 -18 -48 -8 -55 15 -9 17 -9 114 26 95 34 189 53 306 62 113 8 113 8 113
-8 0 -11 -150 -47 -199 -48 -10 0 -39 -10 -63 -22 -33 -17 -43 -27 -41 -42 3
-20 10 -21 103 -21 55 0 122 -4 148 -9 44 -8 49 -7 54 12 6 24 29 31 108 33
33 0 85 4 115 9 30 5 105 14 165 20 66 7 116 17 124 25 12 12 11 15 -10 18
-52 11 -249 27 -316 27 -120 0 -106 28 27 55 112 22 158 41 141 58 -9 9 -88
13 -294 15 -155 2 -285 1 -288 -2z"/>
<path d="M11138 4200 c-36 -27 -68 -57 -72 -66 -15 -40 35 -47 60 -8 17 26 62
54 87 54 7 0 46 -21 85 -46 74 -47 114 -54 120 -22 2 10 -15 36 -40 61 -95 96
-141 101 -240 27z"/>
<path d="M14421 3642 c-71 -73 -151 -174 -151 -189 0 -40 106 25 145 89 5 9
27 37 49 62 62 75 25 109 -43 38z"/>
<path d="M10585 3629 c-40 -12 -55 -35 -55 -85 0 -35 5 -47 30 -67 31 -27 82
-43 100 -32 18 11 11 46 -15 77 -30 36 -31 40 -5 63 11 10 20 26 20 37 0 20
-24 23 -75 7z"/>
<path d="M14515 3516 c-42 -16 -175 -97 -175 -106 0 -4 -9 -10 -20 -13 -23 -6
-27 -35 -7 -43 36 -14 312 121 312 153 0 14 -8 18 -40 20 -22 0 -53 -4 -70
-11z"/>
<path d="M10835 3388 c-22 -4 -56 -10 -75 -13 -42 -8 -138 -50 -162 -72 -19
-17 -25 -53 -9 -53 5 0 30 10 56 21 43 19 60 21 158 15 233 -13 244 -15 277
-53 22 -25 30 -44 30 -73 0 -36 -3 -41 -41 -60 -22 -12 -66 -25 -97 -30 -31
-5 -62 -16 -70 -24 -12 -12 -12 -16 7 -25 56 -31 254 41 298 108 28 41 28 63
4 118 -46 101 -226 169 -376 141z"/>
<path d="M9426 2595 c-6 -15 12 -65 23 -65 4 0 15 -14 25 -31 12 -20 24 -29
35 -26 9 2 22 -2 29 -10 33 -35 112 1 112 50 0 40 -21 54 -100 66 -41 7 -79
16 -84 22 -15 14 -33 11 -40 -6z"/>
<path d="M5367 2373 c-12 -20 -17 -270 -7 -303 6 -19 15 -63 20 -98 4 -35 17
-94 29 -130 11 -37 30 -105 41 -152 26 -99 26 -99 79 -211 35 -73 57 -102 153
-201 113 -115 206 -198 306 -273 28 -21 52 -43 52 -47 0 -5 10 -13 23 -19 30
-13 103 -59 132 -82 33 -26 180 -117 240 -148 144 -74 181 -93 220 -109 22 -9
60 -26 85 -37 25 -11 65 -26 90 -33 25 -7 70 -23 100 -36 160 -65 394 -124
690 -174 249 -42 635 -45 894 -6 76 12 107 21 139 43 22 15 54 36 72 45 72 38
145 163 113 194 -11 11 -24 12 -63 4 -28 -6 -70 -15 -95 -20 -25 -4 -57 -13
-72 -19 -15 -6 -87 -15 -160 -22 -73 -6 -136 -13 -139 -15 -5 -3 -511 -18
-599 -18 -134 0 -436 62 -640 131 -120 40 -176 60 -196 71 -10 6 -55 25 -99
43 -44 18 -85 37 -91 41 -6 4 -60 33 -120 64 -132 68 -167 87 -174 95 -5 6
-79 56 -111 75 -11 6 -27 18 -36 26 -10 9 -33 23 -50 32 -40 20 -293 271 -293
291 0 4 -20 30 -44 58 -46 54 -95 130 -120 183 -8 17 -22 36 -30 44 -9 7 -16
18 -16 25 0 7 -7 19 -16 26 -20 17 -118 219 -167 344 -19 50 -39 120 -45 156
-13 87 -49 169 -73 169 -10 0 -20 -3 -22 -7z"/>
<path d="M4454 1679 c-19 -5 -77 -53 -145 -119 -125 -120 -125 -120 -219 -95
-30 8 -74 15 -97 15 -39 0 -46 -4 -91 -57 -27 -32 -81 -92 -121 -133 -39 -41
-87 -97 -105 -125 -18 -27 -43 -59 -55 -69 -12 -11 -31 -36 -43 -55 -12 -20
-35 -50 -52 -66 -44 -43 -160 -193 -181 -235 -10 -19 -23 -39 -30 -45 -6 -5
-43 -52 -81 -102 -81 -109 -96 -114 -171 -56 -56 42 -260 142 -308 150 -42 7
-83 -19 -102 -65 -13 -31 -12 -36 3 -53 9 -10 35 -27 58 -38 22 -11 65 -39 94
-61 85 -63 190 -111 260 -117 91 -8 129 15 222 133 41 53 106 133 143 178 38
44 101 122 142 171 40 50 84 102 98 117 14 16 30 34 34 42 4 7 33 42 63 76 30
34 61 70 67 79 86 114 187 230 206 236 12 4 32 -3 56 -19 52 -36 112 -35 172
2 24 16 82 70 128 120 76 84 87 92 120 92 29 0 44 -7 72 -36 45 -47 200 -171
266 -213 89 -56 205 -107 293 -130 168 -43 463 -42 507 1 13 13 13 17 -2 31
-12 12 -36 16 -103 16 -81 0 -172 14 -253 39 -19 6 -54 16 -79 23 -51 15 -273
100 -337 129 -24 11 -46 20 -51 20 -7 0 -67 50 -187 158 -75 67 -121 82 -191
61z"/>
<path d="M1549 1432 c-45 -45 -56 -81 -39 -123 16 -39 198 -224 230 -234 14
-4 29 -13 35 -20 15 -17 163 -115 174 -115 6 0 32 -14 58 -30 26 -17 53 -30
61 -30 13 0 128 -44 197 -75 40 -18 126 -35 178 -35 59 0 109 32 105 67 -3 30
-10 34 -93 61 -194 64 -381 154 -423 205 -8 9 -37 30 -65 48 -51 32 -79 58
-187 180 -69 77 -146 139 -172 139 -11 0 -38 -17 -59 -38z"/>
<path d="M9266 1002 c-4 -6 -2 -31 4 -57 6 -25 15 -128 21 -228 16 -265 11
-277 -151 -431 -14 -13 -53 -43 -88 -66 -66 -44 -82 -64 -82 -101 0 -27 32
-77 67 -103 23 -17 29 -17 67 -5 39 12 104 53 173 108 17 15 49 39 71 54 23
17 48 48 61 75 12 26 27 55 32 65 5 9 14 51 20 93 18 130 -20 289 -115 484
-50 101 -69 129 -80 112z"/>
<path d="M13848 950 c-9 -6 -20 -25 -24 -43 -10 -45 -22 -193 -26 -317 -3 -99
-5 -107 -33 -144 -42 -55 -93 -76 -185 -76 -81 0 -100 -9 -100 -47 0 -54 116
-71 247 -35 74 20 126 54 157 104 28 46 41 175 28 283 -7 51 -12 131 -12 177
0 98 -12 121 -52 98z"/>
<path d="M4936 333 c-1 -1 -195 -3 -432 -4 -342 -1 -462 -5 -593 -19 -147 -17
-196 -29 -179 -45 12 -12 193 -26 433 -34 476 -15 950 0 1525 49 184 15 205
19 188 36 -11 11 -101 14 -476 16 -255 2 -465 2 -466 1z"/>
<path d="M10575 312 c-2 -2 -57 -5 -122 -7 -157 -4 -407 -23 -463 -35 -25 -5
-80 -12 -123 -15 -52 -5 -83 -12 -94 -23 -16 -16 -8 -17 113 -23 71 -3 183 -5
249 -3 66 2 239 6 385 9 225 5 798 46 838 60 30 11 7 24 -50 30 -66 6 -727 13
-733 7z"/>
<path d="M9811 117 c-151 -5 -250 -12 -258 -18 -17 -14 -17 -39 0 -39 12 -1
147 -4 657 -15 151 -3 372 -10 490 -15 118 -5 323 -10 455 -11 132 0 336 -2
453 -3 178 -2 215 0 219 12 3 8 0 18 -7 22 -7 4 -119 11 -249 14 -242 7 -655
24 -771 32 -75 5 -496 22 -645 26 -55 2 -210 0 -344 -5z"/>
</g>
</svg>
