<?xml version="1.0" standalone="no"?>
<!DOCTYPE svg PUBLIC "-//W3C//DTD SVG 20010904//EN"
 "http://www.w3.org/TR/2001/REC-SVG-20010904/DTD/svg10.dtd">
<svg version="1.0" xmlns="http://www.w3.org/2000/svg"
 width="1123.000000pt" height="946.000000pt" viewBox="0 0 1123.000000 946.000000"
 preserveAspectRatio="xMidYMid meet">
<metadata>
Created by potrace 1.14, written by Peter Selinger 2001-2017
</metadata>
<g transform="translate(0.000000,946.000000) scale(0.100000,-0.100000)"
fill="#000000" stroke="none">
<path d="M6478 9445 c-94 -14 -271 -60 -303 -80 -11 -6 -45 -20 -75 -30 -63
-21 -176 -78 -205 -105 -11 -9 -54 -36 -95 -59 -42 -22 -89 -55 -105 -72 -17
-17 -54 -42 -83 -55 -29 -13 -67 -38 -85 -56 -18 -18 -49 -46 -70 -63 -81 -66
-59 -153 24 -97 14 9 49 32 77 50 29 19 52 38 52 43 0 5 6 9 13 9 6 0 34 16
60 36 27 19 92 58 145 86 53 27 108 58 122 67 14 9 63 32 110 51 47 18 103 41
125 51 62 27 126 47 170 54 22 3 78 16 125 28 70 17 113 21 240 20 253 -1 441
-34 540 -94 8 -5 26 -14 40 -20 14 -6 45 -27 70 -48 25 -21 58 -46 75 -57 32
-21 119 -98 144 -128 9 -10 31 -35 49 -55 34 -37 152 -205 152 -216 0 -3 25
-49 56 -101 36 -61 60 -92 66 -86 16 16 13 147 -4 184 -9 18 -24 53 -32 78 -9
25 -32 70 -51 100 -19 30 -35 58 -35 62 0 13 -89 119 -141 168 -61 58 -164
140 -175 140 -5 0 -22 11 -38 25 -16 14 -33 25 -38 25 -5 0 -25 10 -46 23 -86
53 -250 105 -399 127 -95 13 -366 11 -475 -5z"/>
<path d="M10395 9260 c-88 -12 -392 -33 -645 -45 -58 -3 -175 -12 -260 -20
-85 -8 -181 -16 -213 -18 -59 -4 -101 -27 -82 -46 6 -5 75 -5 165 0 85 4 372
9 636 11 446 2 483 1 508 -16 35 -22 30 -46 -12 -68 -18 -9 -41 -23 -51 -32
-10 -9 -35 -16 -59 -16 -32 0 -49 7 -77 31 -36 32 -36 32 -123 26 -48 -3 -98
-8 -112 -11 -98 -22 -951 -37 -988 -17 -11 6 -33 30 -49 53 -41 61 -94 77
-253 78 -69 0 -165 -7 -215 -15 -49 -8 -134 -15 -187 -15 -88 0 -98 -2 -112
-22 -37 -52 19 -56 418 -32 96 6 134 -3 110 -25 -20 -19 -338 -41 -493 -34
-129 5 -153 4 -175 -10 -14 -9 -51 -20 -83 -23 -77 -9 -103 -20 -103 -43 0
-33 81 -40 195 -16 44 10 158 18 311 21 l240 7 22 -28 c33 -42 45 -101 36
-170 l-9 -59 -50 -18 c-44 -16 -80 -18 -290 -17 -169 2 -249 -2 -270 -10 -54
-22 -94 -73 -65 -83 5 -1 61 0 122 4 62 3 231 7 375 7 309 1 297 -3 291 99 -4
77 12 92 30 28 25 -95 81 -114 278 -97 121 11 215 4 236 -17 17 -17 -6 -39
-48 -47 -32 -6 -111 -42 -138 -64 -6 -5 -22 -12 -36 -16 -14 -4 -82 -36 -153
-71 -197 -97 -371 -169 -472 -193 -55 -14 -85 -35 -85 -62 0 -10 -7 -24 -14
-32 -17 -16 -132 -32 -158 -22 -10 4 -28 28 -41 55 -30 59 -67 121 -85 139
-11 12 -16 11 -30 -3 -15 -15 -15 -21 5 -84 12 -37 32 -114 43 -171 19 -94 20
-114 10 -215 -12 -118 -62 -358 -87 -416 -8 -19 -24 -52 -34 -73 -10 -21 -19
-45 -19 -54 0 -18 -38 -78 -82 -131 -15 -18 -28 -37 -28 -43 0 -18 -95 -146
-152 -207 -169 -177 -273 -256 -460 -349 -82 -40 -108 -58 -108 -73 0 -10 5
-22 10 -25 17 -10 -17 -56 -77 -105 -30 -25 -84 -70 -120 -101 -60 -52 -155
-106 -243 -138 -99 -36 -166 -46 -310 -44 -188 2 -278 17 -387 66 -12 5 -30 6
-40 3 -16 -7 -15 -10 12 -31 30 -25 112 -67 198 -104 27 -11 96 -30 153 -42
96 -20 114 -21 200 -10 52 6 113 18 137 27 23 9 62 22 87 29 40 12 137 60 150
75 3 3 24 18 48 33 65 42 235 216 261 267 25 50 50 74 131 127 30 20 66 46 80
58 14 13 39 31 56 42 17 10 65 40 105 67 41 28 91 59 111 70 69 38 153 90 158
97 5 7 41 28 140 82 30 16 74 42 97 58 23 16 88 53 145 82 166 86 282 149 298
162 8 7 175 93 370 191 195 98 393 197 440 221 47 24 137 69 200 99 63 30 129
62 145 70 17 9 100 52 185 97 85 44 169 89 185 101 l30 21 -25 4 c-14 1 -38
-4 -55 -12 -16 -8 -66 -30 -110 -48 -44 -18 -89 -39 -100 -46 -11 -7 -25 -13
-32 -13 -8 0 -60 -22 -117 -50 -57 -27 -110 -50 -118 -50 -8 0 -33 -9 -55 -20
-44 -21 -76 -18 -71 7 3 13 169 124 208 139 178 68 620 285 680 334 25 20 86
57 137 83 112 55 213 123 213 142 0 26 -21 26 -66 0 -42 -25 -47 -25 -63 -11
-22 20 -25 20 -64 2 -18 -8 -70 -30 -117 -49 -223 -91 -272 -113 -370 -162
-58 -29 -127 -63 -155 -74 -27 -12 -62 -28 -77 -36 -14 -8 -33 -15 -41 -15 -8
0 -31 -13 -52 -30 -21 -16 -44 -30 -51 -30 -15 0 -131 -59 -171 -88 -15 -10
-46 -25 -68 -32 -22 -7 -47 -18 -55 -26 -8 -7 -26 -17 -40 -23 -14 -6 -70 -35
-125 -65 -198 -109 -215 -116 -243 -105 -40 15 -77 1 -120 -47 -35 -37 -47
-44 -79 -44 -41 0 -72 -17 -122 -67 -71 -72 -195 -142 -318 -178 -48 -15 -92
-31 -97 -36 -6 -5 -21 -9 -34 -9 -23 0 -24 2 -17 48 7 55 77 299 94 331 12 22
265 151 297 151 28 0 52 -19 59 -47 14 -58 53 -71 81 -28 15 22 15 30 0 86
-20 79 -39 108 -78 116 -22 4 -34 15 -44 39 -19 44 -9 64 30 64 25 0 46 -15
107 -73 80 -75 99 -101 99 -137 0 -29 28 -37 51 -13 17 17 18 25 9 72 -17 92
-15 99 33 118 23 9 71 32 106 50 35 18 69 33 76 33 7 0 53 20 103 45 50 25 95
45 100 45 6 0 30 11 53 25 24 14 51 25 59 25 8 0 31 8 50 19 19 10 46 22 60
26 14 4 41 18 60 30 19 12 46 25 60 30 14 4 66 27 117 51 51 24 97 44 102 44
9 0 68 26 186 80 90 42 408 171 495 202 46 16 89 33 95 37 5 5 27 11 47 15 44
8 53 -4 64 -83 5 -42 12 -55 30 -63 72 -33 107 68 58 162 -7 14 -21 42 -30 63
-10 23 -33 49 -55 63 -22 13 -51 43 -66 67 -29 46 -63 132 -63 159 0 9 -10 26
-22 38 -24 22 -93 25 -213 10z"/>
<path d="M3127 8930 c-15 -5 -47 -18 -70 -29 -31 -15 -63 -21 -110 -21 -36 0
-68 -4 -72 -9 -6 -10 -133 -101 -141 -101 -8 0 -137 -109 -189 -161 -27 -27
-77 -71 -111 -98 -33 -27 -76 -69 -95 -92 -19 -24 -50 -60 -70 -79 -55 -56
-153 -189 -183 -250 -15 -30 -38 -75 -51 -100 -39 -73 -73 -152 -85 -200 -7
-25 -16 -54 -21 -65 -11 -24 -36 -137 -50 -225 -11 -71 -5 -153 14 -186 14
-23 100 -104 112 -104 5 0 22 -11 39 -23 17 -13 84 -50 149 -83 116 -58 171
-100 244 -187 30 -35 37 -38 75 -35 l43 3 -5 -40 c-9 -69 -4 -297 7 -365 10
-60 53 -161 78 -185 6 -5 23 -27 39 -47 15 -21 38 -41 51 -44 36 -9 31 -38 -8
-52 -36 -13 -121 -74 -149 -107 -9 -11 -35 -40 -57 -64 -58 -61 -128 -153
-143 -187 -36 -86 -72 -86 -160 1 -37 36 -71 65 -77 65 -5 0 -22 -5 -36 -12
-24 -11 -25 -15 -24 -87 1 -139 28 -231 96 -339 52 -81 53 -85 42 -148 -6 -33
-13 -79 -16 -102 -3 -24 -12 -46 -19 -49 -21 -8 -108 16 -166 46 -123 64 -193
104 -199 113 -3 5 -37 27 -75 50 -47 28 -81 41 -109 42 l-40 1 1 -70 c0 -81
23 -166 51 -198 11 -12 25 -36 31 -54 11 -32 82 -136 102 -148 5 -3 10 -14 10
-24 0 -18 89 -109 148 -150 17 -12 32 -28 32 -35 0 -13 -40 -44 -116 -87 -58
-34 -136 -85 -154 -101 -28 -24 -89 -73 -135 -108 -43 -33 -146 -130 -171
-161 -6 -8 -20 -21 -30 -30 -32 -26 -151 -162 -178 -201 -54 -80 -72 -104
-103 -138 -35 -38 -123 -169 -123 -183 0 -4 -24 -49 -54 -100 -47 -82 -127
-242 -176 -352 -9 -22 -26 -60 -37 -85 -45 -100 -52 -117 -63 -165 -7 -27 -23
-73 -36 -102 -13 -28 -24 -58 -24 -66 0 -7 -11 -41 -25 -75 -34 -83 -35 -196
-4 -236 20 -26 22 -26 40 -10 11 9 19 22 19 27 0 10 48 117 76 169 8 14 14 31
14 38 0 14 220 457 246 496 11 16 27 45 37 64 9 19 34 61 54 93 21 32 67 105
103 163 36 57 99 149 140 203 41 54 88 116 105 137 37 49 103 127 153 179 21
22 44 49 52 61 8 11 42 42 75 68 33 27 69 58 80 71 38 42 180 162 215 181 19
10 66 42 105 70 84 61 114 78 123 69 4 -4 10 -59 14 -123 15 -233 48 -487 84
-642 8 -36 24 -114 35 -175 11 -60 36 -159 54 -220 19 -60 41 -137 50 -170 30
-108 129 -252 186 -270 27 -9 27 -8 45 66 8 35 19 78 24 95 6 17 10 37 10 45
0 8 13 35 28 60 15 24 34 60 42 79 58 148 256 345 398 396 60 21 132 17 187
-11 36 -18 52 -21 62 -13 18 14 16 78 -3 154 -21 85 -17 108 21 114 19 3 47
23 75 53 71 75 169 152 334 259 6 4 38 20 71 36 33 16 69 33 80 40 11 6 72 33
135 61 118 50 200 66 324 62 54 -2 120 -25 114 -40 -1 -6 -19 -20 -38 -33 -49
-33 -96 -106 -103 -162 -8 -58 20 -151 60 -200 34 -41 105 -89 166 -112 96
-36 113 -38 174 -24 86 20 114 34 158 79 21 23 45 41 52 41 24 0 103 -64 103
-83 0 -11 -15 -36 -33 -56 -23 -25 -37 -55 -46 -96 -12 -53 -11 -68 5 -137 13
-55 24 -80 36 -84 11 -3 18 -15 18 -29 0 -57 167 -135 302 -140 81 -4 122 15
188 84 39 42 50 48 77 44 68 -10 108 -98 129 -283 7 -69 14 -128 14 -132 0
-16 34 -38 59 -38 32 0 71 37 71 68 0 12 -9 59 -20 105 -12 55 -16 94 -11 113
7 28 10 29 87 35 43 4 95 10 115 14 26 5 39 3 45 -7 13 -21 27 -136 28 -231 1
-101 -5 -93 107 -133 41 -14 79 -30 84 -34 6 -4 23 -10 40 -14 16 -4 50 -23
76 -42 26 -19 51 -34 55 -34 24 -1 214 -216 214 -241 0 -5 11 -26 24 -47 13
-21 27 -53 31 -72 4 -19 15 -46 25 -60 26 -37 41 -120 47 -265 4 -109 2 -147
-16 -234 -12 -57 -26 -112 -32 -122 -5 -10 -9 -26 -9 -36 0 -10 -22 -46 -49
-81 -27 -34 -51 -66 -53 -70 -7 -17 -171 -151 -209 -171 -82 -43 -215 -89
-274 -95 -33 -4 -86 -9 -117 -12 -63 -7 -255 13 -264 27 -3 5 -11 9 -19 9 -42
0 -150 68 -222 139 -103 103 -162 197 -228 366 -39 98 -90 194 -126 233 -24
27 -35 32 -58 27 -24 -5 -40 7 -157 123 -71 70 -158 161 -194 202 -73 85 -395
409 -453 458 -38 31 -67 41 -67 23 0 -15 41 -81 50 -81 4 0 20 -19 34 -42 14
-24 60 -79 102 -123 118 -124 211 -231 238 -274 14 -22 30 -42 36 -46 13 -8
13 -25 0 -25 -15 0 -49 31 -214 196 -160 160 -319 304 -335 304 -5 0 -12 -4
-16 -10 -6 -9 8 -33 78 -131 17 -25 55 -80 83 -120 29 -41 59 -81 69 -89 9 -8
35 -40 56 -72 22 -32 44 -58 49 -58 5 0 22 -19 36 -42 15 -24 44 -59 65 -78
43 -40 149 -162 149 -171 0 -3 26 -33 58 -66 31 -33 91 -95 133 -139 53 -56
80 -93 92 -126 8 -26 29 -66 46 -88 17 -22 44 -57 60 -78 38 -50 74 -130 67
-148 -8 -21 -76 -7 -98 20 -10 11 -23 39 -30 61 -7 23 -29 55 -51 75 -137 124
-345 357 -442 495 -16 23 -51 66 -76 96 -47 55 -115 140 -179 225 -55 73 -107
131 -215 241 -64 66 -113 126 -137 170 -20 37 -37 71 -38 75 -1 15 42 45 79
57 38 11 75 51 133 144 21 32 24 87 5 87 -18 0 -105 -47 -184 -101 -134 -91
-180 -105 -263 -84 -31 8 -70 22 -88 30 -24 12 -36 14 -52 5 -26 -14 -25 -22
6 -51 29 -27 84 -105 84 -119 0 -14 114 -240 164 -325 82 -141 171 -221 286
-257 65 -21 96 -22 106 -6 8 13 -48 68 -70 68 -14 0 -122 109 -168 171 -51 67
-108 197 -108 246 0 30 26 12 77 -54 12 -15 49 -62 83 -103 34 -41 67 -82 73
-90 7 -9 32 -40 57 -70 25 -30 70 -89 100 -130 30 -41 58 -79 62 -85 4 -5 36
-45 70 -89 35 -43 81 -104 102 -135 22 -31 78 -104 125 -163 47 -59 97 -123
111 -142 14 -20 47 -59 74 -88 26 -29 75 -89 108 -133 33 -44 80 -102 104
-128 24 -26 44 -52 44 -57 0 -14 145 -154 206 -200 70 -52 114 -121 114 -176
0 -33 4 -44 19 -49 23 -7 70 10 77 29 11 29 -44 123 -90 155 -70 48 -107 129
-133 289 -5 31 -4 32 28 32 63 -1 138 -46 251 -152 64 -59 72 -71 74 -106 2
-43 26 -87 56 -103 23 -12 171 -39 218 -39 19 0 64 -10 100 -21 87 -28 225
-28 310 1 32 11 69 20 80 20 11 0 80 33 152 74 219 121 257 147 345 230 60 56
66 65 54 80 -18 21 -49 15 -134 -25 -67 -32 -147 -87 -206 -141 -33 -30 -82
-67 -145 -108 -13 -8 -35 -23 -49 -33 -14 -10 -34 -17 -44 -15 -15 3 -17 12
-15 48 5 56 10 62 69 79 53 16 91 36 179 95 79 52 106 74 195 162 88 87 97 88
170 23 53 -48 84 -58 107 -35 18 18 20 13 -57 148 -25 44 -7 61 130 123 31 14
60 25 66 25 19 0 55 48 49 67 -3 10 -29 38 -56 61 -56 48 -86 51 -77 6 5 -29
-24 -68 -60 -79 -18 -5 -24 -1 -29 21 -4 15 -1 50 6 78 7 29 14 150 17 277 l6
227 -31 68 c-16 38 -38 89 -48 114 -26 61 -117 196 -154 227 -17 13 -30 30
-30 36 0 7 -25 32 -56 57 -30 25 -63 52 -72 60 -44 39 -167 113 -228 138 -62
26 -70 32 -99 85 -42 76 -58 151 -57 269 1 106 -8 151 -37 182 -36 40 -35 62
4 103 51 54 74 120 110 318 9 50 21 94 25 99 5 5 32 0 62 -12 135 -51 241 -66
362 -53 99 12 95 10 234 78 173 83 226 120 315 220 86 97 188 386 211 595 6
56 -11 77 -48 60 -19 -9 -24 -20 -29 -74 -14 -147 -68 -291 -158 -424 -87
-127 -144 -182 -258 -246 -178 -100 -439 -116 -566 -33 -51 33 -226 177 -283
233 -30 28 -59 52 -64 52 -18 0 -2 -101 26 -163 15 -35 45 -77 77 -108 l52
-51 -11 -102 c-12 -115 -36 -186 -62 -186 -15 0 -19 19 -30 131 -10 97 -17
132 -28 137 -27 10 -42 -28 -42 -105 0 -40 -7 -115 -16 -165 -9 -51 -17 -136
-18 -188 0 -82 3 -101 22 -133 25 -42 28 -79 10 -94 -21 -17 -109 -41 -173
-48 -33 -4 -70 -9 -82 -12 -17 -4 -25 2 -37 26 -9 16 -16 40 -16 53 0 34 44
76 93 88 64 17 67 18 67 35 0 13 -12 15 -71 13 -60 -2 -73 1 -85 17 -8 10 -14
26 -14 34 0 15 -46 223 -75 336 -7 28 -21 85 -31 128 -22 92 -30 108 -44 87
-20 -28 0 -241 38 -400 12 -51 20 -122 21 -177 l0 -92 -37 -11 c-20 -5 -42
-10 -48 -10 -24 0 -45 41 -60 120 -18 96 -35 135 -67 151 -117 61 -198 199
-218 374 -5 44 -13 110 -17 147 -4 37 -4 74 0 83 8 13 13 13 41 -1 18 -9 40
-23 49 -31 28 -25 206 -64 269 -60 80 7 129 36 129 77 0 11 -77 33 -88 26 -10
-6 -213 63 -261 88 -97 51 -212 140 -257 197 -27 34 -56 69 -64 79 -85 97
-220 463 -220 599 0 93 25 73 50 -39 32 -147 60 -187 79 -112 49 190 63 274
52 317 -6 24 -11 54 -11 67 0 23 -45 180 -60 209 -4 8 -21 40 -36 70 -16 30
-45 76 -66 102 -21 27 -38 52 -38 57 0 4 15 30 34 58 80 116 144 274 199 497
44 172 57 237 51 246 -12 20 -25 6 -51 -48 -31 -66 -75 -136 -111 -175 -48
-52 -264 -141 -381 -157 -68 -9 -89 -6 -131 16 -14 7 -42 13 -63 13 -35 0 -47
-9 -150 -108 -116 -112 -147 -130 -312 -183 -46 -15 -302 -19 -377 -6 -38 6
-48 5 -48 -5 0 -8 12 -19 28 -26 15 -6 56 -28 92 -47 148 -80 264 -88 425 -26
66 25 164 82 205 119 44 38 52 42 102 42 45 0 63 5 95 29 22 16 45 42 52 59
11 27 16 30 49 26 20 -2 76 -5 124 -8 79 -5 128 -19 128 -39 0 -10 -42 -101
-50 -107 -3 -3 -17 -23 -30 -45 -69 -116 -172 -195 -348 -268 -156 -65 -229
-82 -352 -83 -105 -1 -105 -1 -102 -25 6 -57 111 -98 274 -106 60 -3 112 -11
117 -17 12 -14 -40 -126 -83 -181 -17 -22 -40 -53 -51 -70 -21 -34 -180 -192
-208 -206 -14 -8 -25 -2 -55 32 -20 23 -72 78 -116 123 -43 45 -95 101 -115
126 -20 24 -61 71 -91 103 -30 32 -67 77 -81 100 -15 23 -68 82 -118 131 -105
102 -131 140 -131 189 0 20 -4 38 -9 41 -5 3 -44 13 -86 21 -104 20 -150 45
-209 113 -56 65 -78 130 -69 205 7 57 30 73 112 80 63 6 88 25 72 55 -10 20
-58 42 -91 42 -9 0 -26 10 -38 23 -30 32 -29 107 3 243 22 93 40 151 116 367
9 27 32 65 51 85 19 20 46 55 60 77 15 22 46 60 69 85 23 25 65 69 93 99 64
69 249 218 313 252 115 63 132 70 255 109 53 17 132 33 175 37 109 8 115 1 85
-115 -45 -174 -22 -196 85 -82 39 42 74 70 86 70 22 0 98 -64 109 -92 4 -10
12 -18 17 -18 10 0 92 -110 133 -179 59 -100 138 -271 138 -297 0 -8 9 -33 19
-57 10 -23 40 -105 66 -182 26 -77 53 -153 60 -170 7 -16 16 -44 20 -62 3 -17
13 -37 20 -43 22 -19 76 18 104 70 23 43 23 49 13 140 -10 91 -73 313 -91 325
-5 2 -12 20 -15 39 -4 18 -15 41 -26 51 -11 10 -20 24 -20 31 0 18 -32 84 -41
84 -4 0 -14 17 -23 38 -22 49 -57 106 -83 134 -11 13 -22 28 -24 35 -6 18
-150 173 -161 173 -6 0 -22 12 -38 28 -15 15 -38 34 -51 43 -21 14 -22 19 -12
42 10 22 9 30 -8 51 -19 24 -27 25 -117 28 -91 3 -97 4 -100 25 -4 24 47 150
79 195 35 49 65 201 48 246 -21 56 -37 56 -97 -1 -30 -28 -69 -75 -88 -104
-19 -28 -43 -54 -54 -58 -11 -3 -20 -10 -20 -14 0 -14 -70 -81 -111 -106 -21
-14 -52 -25 -69 -25 -28 0 -141 57 -180 92 -9 7 -36 26 -60 43 -141 93 -365
300 -418 384 -9 14 -32 47 -51 74 -31 41 -39 47 -71 46 -19 0 -47 -4 -63 -9z
m-242 -357 c1 -51 15 -66 89 -93 28 -11 46 -25 57 -47 9 -18 37 -51 63 -75
l47 -43 -26 -29 c-14 -16 -25 -32 -25 -36 0 -3 -58 -64 -130 -135 -71 -71
-130 -134 -130 -139 0 -5 -17 -24 -37 -41 -21 -18 -58 -67 -83 -109 -25 -42
-49 -76 -53 -76 -5 0 -27 14 -49 32 -23 18 -53 39 -69 47 -155 87 -279 191
-279 236 0 32 130 187 288 343 80 78 149 142 154 142 5 0 43 20 86 45 87 51
97 49 97 -22z m416 -439 c8 -8 19 -14 24 -14 4 0 23 -11 41 -25 18 -14 39 -25
46 -25 8 0 19 -5 26 -12 15 -15 -3 -38 -29 -38 -25 0 -186 -86 -227 -121 -18
-16 -45 -35 -60 -43 -52 -27 -268 -261 -299 -323 -16 -32 -36 -59 -46 -61 -22
-4 -22 19 -1 61 11 20 18 65 21 127 4 91 6 96 39 137 43 52 125 134 189 188
26 22 64 56 85 75 39 36 53 46 105 80 31 21 58 19 86 -6z"/>
<path d="M7246 8561 c-3 -5 -18 -12 -33 -16 -44 -11 -160 -111 -198 -170 -19
-30 -39 -55 -45 -55 -17 0 -11 -37 6 -44 10 -4 56 -4 104 0 l86 7 14 -32 c7
-18 22 -43 33 -57 10 -14 31 -48 46 -77 15 -30 41 -62 61 -75 62 -41 102 -12
62 45 -17 25 -62 104 -111 198 -9 17 -24 41 -34 55 -24 34 -21 73 7 107 33 40
58 92 52 109 -6 15 -42 19 -50 5z"/>
<path d="M9870 8349 c-19 -5 -84 -11 -145 -12 l-109 -2 -7 -35 c-11 -53 -31
-62 -129 -58 l-85 3 -2 -40 c-2 -27 -9 -46 -24 -57 -29 -24 -42 -23 -89 8 -59
39 -101 12 -84 -53 8 -29 -28 -39 -85 -23 -55 14 -71 2 -71 -54 0 -44 13 -66
39 -66 9 0 79 28 156 61 77 34 158 70 180 79 22 10 51 21 65 25 14 4 59 25
101 46 41 22 81 39 87 39 11 0 111 44 215 95 77 38 69 66 -13 44z"/>
<path d="M6722 8145 c-12 -9 -41 -42 -64 -73 -39 -52 -42 -63 -52 -148 -11
-103 2 -169 35 -179 44 -14 65 37 49 115 -10 49 -9 62 9 115 24 68 41 85 86
85 51 0 134 -107 149 -195 15 -82 18 -186 6 -201 -21 -24 -89 -17 -154 16 -70
36 -106 39 -106 10 0 -65 94 -121 242 -145 31 -5 39 -2 57 21 12 15 21 32 21
40 0 7 6 25 14 41 26 52 41 128 39 198 -3 110 -17 146 -84 210 -89 85 -198
125 -247 90z"/>
<path d="M3563 7705 c-59 -30 -116 -84 -144 -137 -50 -96 -79 -228 -51 -228 4
0 19 19 34 43 35 53 93 113 149 153 43 30 133 64 169 64 22 0 80 47 80 64 0 7
-11 23 -25 36 -21 20 -39 25 -93 27 -56 3 -76 -1 -119 -22z"/>
<path d="M6259 7707 c-41 -28 -57 -75 -58 -173 -2 -131 60 -267 107 -238 29
18 27 92 -4 160 -36 80 -36 150 1 182 14 12 33 22 42 22 9 0 45 -25 80 -55 36
-30 71 -55 78 -55 41 0 35 90 -8 131 -56 54 -177 67 -238 26z"/>
<path d="M5982 7528 c-28 -35 -102 -152 -108 -171 -3 -12 -12 -29 -18 -37 -7
-8 -21 -35 -31 -60 -11 -25 -32 -66 -47 -91 -34 -57 -36 -98 -5 -127 38 -35
55 -28 83 33 13 31 24 62 24 70 0 30 31 47 73 40 l40 -7 -7 33 c-7 36 -8 116
-1 146 2 10 11 48 21 85 16 64 15 98 -4 98 -5 0 -14 -6 -20 -12z"/>
<path d="M6544 7506 c-16 -13 -18 -24 -15 -88 8 -153 8 -151 -20 -165 -19 -9
-41 -10 -85 -3 -48 8 -61 7 -74 -5 -18 -19 -8 -37 42 -77 37 -31 91 -44 132
-34 61 15 112 157 103 284 -7 98 -32 125 -83 88z"/>
<path d="M11012 7405 c-51 -28 -52 -20 23 -154 40 -72 103 -149 127 -157 17
-5 27 0 46 21 26 31 25 68 -3 122 -8 15 -15 38 -15 51 0 15 -20 44 -53 78 -57
57 -80 64 -125 39z"/>
<path d="M4377 7193 c-3 -10 -5 -36 -6 -58 -1 -86 -28 -148 -79 -180 -38 -24
-40 -38 -7 -53 76 -35 157 4 194 92 22 53 23 61 10 98 -28 87 -99 150 -112
101z"/>
<path d="M5990 7092 l0 -57 73 -73 c69 -67 97 -86 97 -62 0 10 -106 217 -123
238 -5 6 -18 12 -28 12 -16 0 -19 -8 -19 -58z"/>
<path d="M4604 6955 c-10 -24 3 -43 43 -65 21 -11 52 -30 70 -41 17 -11 54
-22 82 -26 46 -5 51 -4 51 13 0 28 -13 43 -46 53 -59 19 -137 50 -160 66 -29
19 -33 19 -40 0z"/>
<path d="M4056 6780 c-91 -84 -161 -169 -148 -182 16 -16 45 -1 118 61 100 84
150 171 100 171 -8 0 -39 -23 -70 -50z"/>
<path d="M8557 6675 c-52 -131 -125 -243 -225 -342 -41 -41 -238 -173 -258
-173 -8 0 -28 -7 -43 -15 -16 -8 -73 -26 -127 -41 -84 -23 -120 -27 -239 -27
-77 -1 -173 3 -212 7 -61 7 -73 6 -73 -6 0 -20 70 -53 167 -78 62 -16 114 -21
220 -22 162 -1 260 19 370 77 130 69 289 220 357 340 9 17 27 48 39 70 29 51
74 178 82 230 4 26 1 46 -7 58 -12 16 -18 7 -51 -78z"/>
<path d="M7790 5570 c-18 -28 -69 -84 -114 -126 -114 -105 -258 -177 -411
-204 -129 -24 -206 -25 -260 -4 -22 9 -61 22 -87 29 -26 8 -64 25 -85 39 -21
14 -42 26 -47 26 -5 0 -17 6 -25 14 -28 25 -148 86 -170 86 -28 0 -27 -19 4
-64 43 -63 146 -156 227 -205 51 -30 218 -71 292 -71 78 0 227 18 241 30 5 4
27 11 47 15 43 8 161 76 210 121 44 41 150 163 164 189 6 11 23 42 37 69 52
95 32 142 -23 56z"/>
<path d="M3710 3879 c0 -9 55 -86 71 -99 3 -3 25 -27 49 -55 99 -116 324 -339
455 -450 32 -27 72 -63 89 -78 17 -15 38 -33 46 -40 20 -17 68 -47 75 -47 21
0 -15 42 -243 289 -53 57 -103 112 -110 122 -7 11 -20 19 -28 19 -8 0 -14 4
-14 8 0 12 -177 192 -234 238 -131 106 -156 121 -156 93z"/>
<path d="M4452 3820 c-29 -33 -59 -75 -67 -95 -20 -45 -20 -105 -1 -105 14 0
48 40 72 85 6 11 25 47 42 79 59 109 35 128 -46 36z"/>
<path d="M3490 3831 c0 -34 138 -192 226 -259 43 -33 84 -42 84 -19 0 15 -286
297 -301 297 -5 0 -9 -9 -9 -19z"/>
<path d="M6880 3791 c0 -18 -125 -144 -208 -209 -100 -78 -171 -124 -225 -147
-56 -23 -46 -46 28 -61 53 -11 67 -10 127 8 81 24 202 102 251 161 60 74 117
169 117 197 0 15 -8 34 -18 43 -19 18 -72 23 -72 8z"/>
<path d="M3335 3576 c-28 -7 -71 -22 -96 -34 -25 -12 -50 -22 -55 -22 -30 0
-210 -200 -240 -268 -13 -28 -35 -69 -49 -90 -13 -20 -31 -57 -40 -82 -8 -24
-22 -51 -29 -60 -7 -8 -19 -32 -26 -53 -6 -21 -25 -63 -40 -94 -16 -31 -26
-62 -23 -69 8 -22 49 -16 81 11 17 14 32 25 35 25 11 0 77 -107 77 -124 0 -16
13 -46 53 -121 9 -16 28 -54 42 -84 37 -79 89 -147 179 -235 102 -98 159 -137
270 -182 104 -42 208 -60 263 -45 21 6 82 11 135 11 74 0 100 4 112 16 35 35
11 54 -69 54 -35 0 -173 31 -260 58 -108 33 -270 155 -429 321 -117 121 -126
131 -126 140 0 4 -21 30 -46 57 -25 27 -57 67 -72 89 -14 22 -37 53 -49 68
-13 16 -23 39 -23 53 0 32 35 122 55 143 9 9 45 66 80 126 118 204 164 245
280 245 70 0 256 -57 287 -88 7 -7 18 -12 26 -12 8 0 26 -7 40 -15 83 -45 190
-77 277 -81 100 -6 135 5 101 31 -10 8 -39 17 -65 21 -194 26 -253 54 -389
179 -57 52 -112 95 -121 95 -9 0 -26 7 -37 15 -23 17 -42 17 -109 1z"/>
<path d="M5035 3405 c-82 -56 -111 -86 -164 -169 -54 -83 -65 -133 -38 -170
27 -36 55 -16 103 72 24 46 57 101 72 124 15 22 32 48 37 57 6 9 23 33 39 54
25 33 30 67 9 67 -5 0 -31 -16 -58 -35z"/>
<path d="M2261 3074 c-30 -25 -80 -73 -112 -108 -60 -64 -229 -282 -229 -294
0 -4 -17 -32 -38 -63 -20 -31 -46 -71 -57 -90 -11 -18 -33 -53 -50 -79 -16
-26 -39 -61 -50 -79 -54 -88 -67 -94 -156 -67 -66 20 -218 30 -251 17 -78 -30
29 -124 162 -142 30 -4 88 -13 129 -19 63 -11 77 -11 106 3 33 16 106 110 132
170 7 16 26 46 42 66 16 20 44 64 62 96 40 74 101 162 155 223 23 26 49 63 59
82 10 19 37 57 61 85 24 27 62 87 84 133 60 122 44 143 -49 66z"/>
<path d="M5544 2900 c-67 -29 -135 -117 -209 -269 -30 -63 -34 -77 -22 -88 7
-8 21 -11 30 -8 9 4 52 62 97 130 44 68 105 150 135 182 30 32 55 61 55 65 0
13 -43 7 -86 -12z"/>
<path d="M3600 2605 c0 -9 13 -43 28 -78 25 -52 45 -76 131 -151 143 -124 207
-165 277 -176 98 -16 244 30 244 76 0 8 -6 14 -12 15 -7 0 -59 2 -115 4 -91 3
-109 7 -179 39 -42 20 -96 53 -119 73 -23 21 -55 48 -71 60 -16 12 -58 51 -94
87 -65 65 -90 80 -90 51z"/>
<path d="M1180 2481 c-25 -11 -80 -39 -123 -62 -171 -96 -180 -99 -367 -130
-371 -62 -458 -71 -525 -60 -98 17 -121 15 -145 -16 -18 -23 -21 -36 -16 -73
4 -25 14 -53 24 -63 27 -26 112 -46 237 -53 90 -5 116 -4 141 9 16 8 59 21 94
27 93 17 296 68 355 90 42 15 99 43 231 114 12 7 46 29 76 49 52 36 59 38 159
44 152 9 171 25 98 84 -74 61 -154 74 -239 40z"/>
<path d="M6010 2418 c-115 -67 -170 -146 -170 -246 0 -92 54 -237 105 -284 11
-10 42 -30 69 -44 116 -61 326 -15 430 95 24 25 29 40 34 99 3 52 0 76 -12
101 -23 43 -49 38 -57 -10 -11 -69 -67 -129 -148 -157 -53 -19 -92 -14 -133
14 -35 24 -88 84 -88 99 0 4 -8 19 -19 33 -42 61 -29 172 29 259 43 64 27 80
-40 41z"/>
<path d="M4334 2175 c-7 -18 28 -94 59 -127 12 -13 38 -44 57 -68 19 -25 41
-51 48 -59 26 -27 98 -124 137 -185 22 -35 60 -90 85 -124 84 -113 135 -186
144 -207 6 -11 24 -38 41 -60 17 -22 43 -58 58 -80 15 -22 43 -60 62 -85 19
-25 42 -58 51 -74 21 -37 136 -188 185 -242 20 -23 40 -51 44 -63 5 -17 13
-21 33 -19 25 3 27 7 30 51 2 38 -3 62 -27 110 -30 61 -100 164 -119 176 -6 3
-48 62 -94 131 -82 124 -133 194 -233 320 -28 36 -82 105 -120 154 -117 148
-133 167 -258 299 -66 70 -127 136 -134 147 -17 24 -41 26 -49 5z"/>
<path d="M7177 1353 c-10 -9 -8 -52 3 -72 5 -10 16 -53 25 -96 16 -77 16 -77
-6 -99 -72 -69 -239 -193 -408 -303 -83 -54 -165 -108 -183 -120 -18 -12 -57
-38 -86 -58 l-54 -36 -101 11 c-56 5 -131 15 -167 21 -191 32 -290 51 -335 64
-139 41 -346 88 -394 89 -52 1 -54 0 -72 -34 -23 -44 -16 -80 17 -80 35 0 90
-54 131 -129 49 -89 82 -139 120 -181 18 -19 38 -51 44 -70 20 -60 85 -146
124 -164 43 -21 89 -18 93 6 7 34 -74 169 -150 253 -23 24 -79 100 -95 128
-16 28 -5 50 21 43 12 -3 53 -12 91 -21 39 -8 79 -19 90 -24 11 -5 38 -12 60
-16 22 -3 63 -13 90 -20 72 -20 359 -64 435 -66 63 -2 150 22 150 41 0 5 9 11
20 15 11 3 37 21 59 38 22 18 70 50 107 72 37 22 78 51 92 63 14 13 41 33 61
44 31 18 75 48 189 133 61 45 140 109 192 155 30 26 70 61 88 76 l32 29 -31
60 c-44 82 -63 108 -142 187 -62 62 -92 79 -110 61z"/>
<path d="M6180 925 c-11 -13 -11 -29 -1 -88 17 -97 41 -156 73 -180 41 -31 58
-17 58 45 -1 43 -10 69 -48 142 -26 49 -52 91 -58 93 -6 2 -17 -3 -24 -12z"/>
<path d="M5987 907 c-3 -8 -2 -49 2 -91 6 -65 11 -80 36 -106 32 -33 60 -39
69 -14 10 26 -16 154 -38 187 -23 35 -60 47 -69 24z"/>
<path d="M5019 889 c-39 -9 -116 -46 -124 -59 -11 -17 9 -40 51 -61 37 -19 48
-21 70 -11 35 17 124 94 124 109 0 29 -52 39 -121 22z"/>
<path d="M6405 890 c-9 -14 4 -88 16 -96 5 -3 9 -14 9 -24 0 -27 58 -90 82
-90 17 0 19 5 15 33 -15 105 -95 220 -122 177z"/>
<path d="M5260 524 c-30 -8 -66 -12 -78 -9 -23 6 -52 -9 -52 -26 0 -14 70 -74
95 -81 29 -7 120 18 158 44 31 22 35 48 9 71 -22 20 -59 21 -132 1z"/>
<path d="M5585 167 c-11 -7 -46 -22 -77 -32 -50 -16 -60 -17 -83 -5 -18 10
-28 11 -36 3 -15 -15 0 -41 55 -91 36 -33 53 -42 81 -42 48 0 71 13 123 69 49
53 59 76 42 96 -15 19 -79 19 -105 2z"/>
</g>
</svg>
