<?xml version="1.0" standalone="no"?>
<!DOCTYPE svg PUBLIC "-//W3C//DTD SVG 20010904//EN"
 "http://www.w3.org/TR/2001/REC-SVG-20010904/DTD/svg10.dtd">
<svg version="1.0" xmlns="http://www.w3.org/2000/svg"
 width="820.000000pt" height="999.000000pt" viewBox="0 0 820.000000 999.000000"
 preserveAspectRatio="xMidYMid meet">
<metadata>
Created by potrace 1.14, written by Peter Selinger 2001-2017
</metadata>
<g transform="translate(0.000000,999.000000) scale(0.100000,-0.100000)"
fill="#000000" stroke="none">
<path d="M3355 9977 c-93 -36 -103 -64 -110 -293 -5 -182 -24 -388 -46 -504
-5 -30 -14 -89 -18 -130 -4 -41 -12 -84 -18 -95 -5 -11 -15 -47 -22 -80 -7
-33 -17 -73 -23 -90 -6 -16 -12 -43 -15 -60 -8 -50 -71 -171 -104 -199 -38
-33 -97 -36 -124 -6 -10 11 -27 22 -39 26 -11 4 -63 40 -114 81 -110 88 -146
110 -206 128 -51 16 -61 9 -83 -54 -25 -72 -14 -138 32 -193 14 -16 25 -38 25
-48 0 -11 16 -28 38 -41 58 -36 211 -200 212 -228 0 -13 -13 -38 -29 -56 -15
-18 -36 -61 -47 -95 -13 -43 -27 -69 -46 -83 -22 -16 -25 -24 -17 -39 15 -27
-13 -153 -49 -219 -18 -34 -41 -60 -63 -72 -79 -43 -100 -93 -119 -286 -16
-155 3 -269 67 -390 18 -35 32 -66 29 -68 -2 -2 -40 -10 -83 -17 -44 -7 -94
-20 -113 -29 -18 -9 -42 -17 -53 -17 -10 0 -48 -16 -83 -35 -177 -98 -296
-206 -310 -283 -3 -20 -19 -64 -34 -98 -35 -76 -38 -91 -51 -244 -21 -239 -9
-431 37 -605 7 -27 15 -72 18 -100 l6 -49 -58 -56 c-32 -30 -75 -64 -95 -75
-20 -11 -37 -25 -37 -32 0 -7 -4 -13 -9 -13 -24 0 -35 -70 -36 -215 0 -138 -2
-153 -22 -186 -13 -20 -23 -45 -23 -55 0 -25 -78 -154 -124 -207 -57 -65 -96
-118 -96 -133 0 -7 -17 -33 -37 -57 -51 -60 -94 -116 -115 -147 -9 -14 -32
-43 -52 -64 l-36 -40 0 -96 c0 -82 -3 -101 -20 -123 -11 -14 -20 -31 -20 -37
0 -7 -16 -28 -36 -47 -85 -79 -183 -229 -183 -280 -1 -43 -34 -60 -133 -69
-72 -6 -139 5 -218 37 -24 10 -140 147 -140 167 0 5 -22 30 -50 56 -45 42 -54
46 -98 46 -58 0 -91 -21 -133 -89 -27 -42 -29 -52 -29 -149 0 -100 14 -192 30
-192 4 0 10 -10 13 -23 7 -27 88 -111 147 -153 25 -18 80 -49 122 -69 95 -46
148 -89 148 -119 0 -12 -13 -50 -30 -84 -29 -61 -77 -190 -106 -287 -8 -27
-21 -63 -29 -80 -8 -16 -30 -95 -51 -175 -20 -80 -43 -158 -53 -175 -13 -24
-16 -60 -16 -180 0 -132 2 -154 20 -183 50 -84 206 -84 329 -1 l65 43 11 86
c6 47 15 94 20 105 5 11 34 83 65 159 63 156 87 264 66 290 -21 25 -44 19 -86
-19 -43 -40 -53 -39 -109 9 -35 30 -38 37 -43 97 -6 73 21 192 56 250 12 19
21 44 21 57 0 28 27 82 40 82 33 0 241 -69 257 -86 54 -53 293 8 293 75 0 14
-101 61 -133 61 -12 0 -58 11 -102 25 -44 14 -90 25 -102 25 -23 0 -112 26
-213 62 -30 11 -75 26 -100 34 -57 18 -142 58 -161 76 -8 7 -24 18 -34 24 -37
21 -104 159 -86 177 5 5 21 -4 37 -22 32 -37 103 -71 146 -71 16 0 42 -7 59
-15 22 -12 66 -16 169 -18 l139 -2 38 37 c55 54 89 52 145 -9 155 -167 335
-329 436 -391 76 -46 142 -105 142 -127 0 -22 -73 -164 -142 -275 -15 -25 -41
-70 -57 -101 -17 -31 -36 -63 -44 -70 -7 -8 -25 -34 -40 -59 -15 -25 -39 -58
-54 -75 -16 -16 -34 -42 -42 -57 -20 -39 -286 -305 -324 -324 -18 -9 -41 -24
-52 -34 -22 -20 -137 -80 -153 -80 -6 0 -22 -14 -37 -31 -33 -40 -27 -76 21
-125 19 -19 37 -34 40 -34 9 0 123 61 126 68 2 4 19 14 38 23 47 22 132 84
195 142 29 26 57 47 63 47 7 0 55 43 107 95 87 88 199 236 241 317 9 18 34 53
54 78 25 30 50 81 75 149 51 144 69 182 99 214 33 34 58 34 116 1 138 -79 256
-12 320 180 11 35 28 70 36 76 8 7 14 18 14 24 0 24 71 148 104 181 19 18 37
43 41 55 3 11 11 20 16 20 5 0 9 10 9 21 0 12 11 42 23 68 23 44 48 97 97 204
12 26 26 47 31 47 5 0 9 8 9 18 0 16 34 94 69 162 24 45 101 254 115 310 9 36
22 89 31 118 9 35 15 105 15 200 1 133 11 213 30 235 6 7 60 -64 60 -80 1 -5
9 -26 20 -48 11 -22 19 -47 20 -56 0 -9 3 -19 7 -22 9 -9 39 -96 63 -184 20
-69 20 -72 3 -110 -10 -21 -21 -40 -25 -43 -23 -17 -80 -112 -94 -155 -9 -27
-20 -54 -25 -60 -5 -5 -9 -21 -9 -36 0 -15 -7 -32 -15 -39 -8 -7 -15 -22 -15
-34 0 -11 -7 -34 -16 -51 -8 -16 -20 -52 -25 -80 -5 -27 -16 -75 -25 -105 -20
-71 -56 -197 -82 -285 -11 -38 -25 -95 -32 -125 -6 -30 -22 -75 -35 -100 -12
-25 -26 -56 -30 -70 -9 -28 -37 -61 -140 -160 -102 -99 -113 -108 -138 -121
-12 -7 -45 -32 -73 -56 -28 -23 -56 -43 -61 -43 -5 0 -18 -10 -29 -21 -10 -12
-37 -33 -59 -47 -37 -23 -146 -128 -188 -181 -38 -47 -97 -159 -97 -183 0 -9
-4 -19 -9 -22 -15 -10 -34 -170 -28 -242 6 -74 22 -112 79 -187 54 -71 98
-100 186 -123 64 -17 110 -10 254 37 48 16 99 29 113 29 23 0 25 -3 19 -22 -9
-25 -9 -24 0 -188 7 -134 21 -290 36 -410 6 -47 13 -114 16 -150 2 -36 11 -92
20 -125 9 -33 20 -80 24 -105 12 -70 29 -119 70 -200 38 -76 64 -100 122 -114
32 -7 105 19 117 43 6 10 6 50 1 96 -10 86 -23 230 -40 420 -6 66 -18 139 -27
161 -11 32 -12 47 -4 62 8 14 8 44 1 99 -16 121 -57 657 -53 693 1 8 4 102 7
210 3 107 14 260 25 340 11 80 22 192 26 250 13 215 58 335 178 472 42 48 93
99 114 115 36 27 52 40 91 73 10 9 38 23 63 33 26 10 62 32 80 50 41 40 69 58
179 115 47 24 104 58 127 75 23 18 65 46 94 62 28 17 65 42 83 56 17 14 45 33
62 42 28 15 135 116 205 193 48 54 116 163 135 214 16 44 21 51 43 48 16 -2
41 -22 69 -58 43 -53 93 -108 228 -253 35 -38 88 -87 117 -110 29 -23 60 -48
68 -55 8 -7 28 -22 46 -35 35 -25 106 -76 143 -105 14 -10 36 -22 50 -25 14
-4 37 -18 53 -32 47 -44 216 -103 372 -130 50 -9 104 -22 122 -30 17 -9 45
-18 62 -21 16 -4 38 -15 47 -25 9 -11 25 -19 34 -19 20 0 98 -103 105 -139 3
-14 14 -60 25 -101 11 -41 26 -115 35 -165 8 -49 22 -124 30 -165 23 -120 24
-126 45 -320 30 -284 45 -568 45 -865 -1 -284 -19 -655 -34 -683 -5 -9 -12
-78 -15 -153 -6 -116 -5 -140 9 -170 22 -46 46 -60 105 -61 73 0 116 32 153
117 10 21 26 166 52 450 17 182 20 451 7 603 -6 81 -5 95 10 109 16 14 21 12
60 -20 57 -47 86 -57 164 -57 58 0 72 4 122 36 31 20 60 43 65 50 4 7 14 20
22 28 25 25 62 108 74 165 12 57 5 197 -10 207 -5 3 -9 15 -9 27 0 12 -10 54
-21 94 -17 56 -33 84 -70 127 -27 30 -49 62 -49 71 0 28 -59 161 -99 222 -21
32 -98 117 -172 188 -170 166 -218 216 -224 236 -9 27 -38 33 -56 11 -15 -19
-17 -16 -38 57 -38 130 -85 240 -192 456 -60 119 -73 145 -143 260 -19 33 -43
76 -53 95 -10 19 -21 37 -24 40 -4 3 -16 23 -28 45 -12 22 -38 67 -58 100 -81
134 -134 241 -129 260 4 20 37 107 72 195 10 25 26 56 36 69 10 13 18 28 18
34 0 13 71 117 80 117 4 0 10 -51 13 -112 6 -134 22 -221 53 -305 13 -34 24
-71 24 -83 0 -12 10 -43 23 -69 13 -25 49 -100 81 -166 73 -150 95 -193 116
-225 9 -14 34 -54 55 -90 21 -36 53 -84 72 -107 18 -23 47 -68 64 -100 17 -32
37 -65 44 -73 49 -55 95 -191 95 -280 0 -53 47 -122 80 -118 24 3 25 5 20 63
-3 33 -5 117 -5 187 0 145 1 146 80 173 27 9 54 20 60 24 5 5 42 19 80 31 226
72 523 210 623 288 22 18 45 32 51 32 15 0 121 -109 121 -124 0 -6 9 -17 20
-24 12 -7 20 -23 20 -40 0 -23 -20 -49 -96 -125 -53 -53 -100 -97 -105 -97 -5
0 -31 -16 -58 -35 -26 -19 -53 -35 -58 -35 -6 0 -27 -14 -48 -30 -59 -47 -382
-201 -579 -276 -61 -24 -78 -46 -53 -71 15 -15 34 -18 127 -16 128 3 130 2
130 -95 0 -41 5 -63 15 -72 8 -7 15 -19 15 -27 0 -13 106 -233 133 -277 79
-127 115 -184 164 -259 32 -48 67 -106 79 -128 11 -22 33 -52 50 -67 34 -33
104 -114 154 -180 40 -53 59 -60 185 -68 74 -6 97 -4 123 10 44 22 48 39 22
76 -16 23 -37 35 -81 47 -36 10 -72 28 -92 47 -31 28 -45 47 -87 112 -8 13
-36 54 -61 91 -25 38 -66 102 -90 143 -24 41 -49 83 -56 95 -7 11 -17 32 -24
48 -6 15 -15 27 -19 27 -5 0 -12 10 -16 23 -3 12 -45 101 -91 197 -157 326
-155 319 -129 368 10 20 36 37 93 61 181 76 333 171 431 270 37 36 71 73 77
82 5 8 25 37 43 64 35 53 38 70 21 130 -12 43 -46 91 -120 170 -73 77 -86 97
-93 142 -10 57 -62 199 -85 231 -10 15 -35 62 -55 105 -21 42 -42 77 -47 77
-5 0 -9 4 -9 9 0 5 -16 33 -36 62 -20 30 -54 90 -75 134 -22 44 -48 96 -59
115 -11 19 -18 44 -15 56 2 11 5 53 6 91 2 95 -31 191 -77 222 -18 12 -38 35
-44 52 -7 16 -16 29 -19 29 -9 0 -105 119 -146 180 -33 49 -33 48 -24 275 6
128 -5 308 -20 365 -6 19 -17 73 -26 118 -8 46 -22 90 -30 99 -8 8 -15 25 -15
38 0 13 -4 27 -10 30 -5 3 -10 15 -10 25 0 26 -90 198 -157 298 -62 93 -152
184 -223 225 -99 57 -290 85 -465 67 l-50 -5 4 55 c1 30 9 66 16 80 7 14 29
61 49 105 32 72 35 84 25 117 -6 25 -23 47 -47 65 -20 15 -41 34 -45 40 -4 7
-14 13 -21 13 -7 0 -31 17 -54 38 -36 34 -42 45 -42 80 0 52 19 66 115 82 96
16 171 38 185 55 7 8 18 15 25 15 23 0 58 81 59 137 1 42 -4 56 -24 78 -40 42
-124 80 -210 95 -25 4 -79 16 -120 28 -41 11 -115 23 -165 27 -49 3 -133 11
-185 17 -52 5 -275 11 -495 13 -287 2 -441 7 -545 19 -183 20 -380 51 -445 70
-80 23 -167 47 -200 55 -16 5 -57 22 -90 38 -33 17 -79 36 -102 43 -43 13 -56
36 -28 47 9 3 45 -4 81 -16 35 -11 71 -21 79 -21 8 0 15 -4 15 -10 0 -5 9 -10
19 -10 11 0 32 -5 48 -12 15 -6 55 -19 88 -28 33 -10 87 -25 120 -35 87 -25
225 -54 340 -70 55 -8 136 -20 180 -27 107 -15 508 -15 610 0 160 25 196 26
285 4 113 -28 212 -37 238 -23 24 13 42 67 42 127 0 22 4 65 9 95 6 30 15 88
22 129 12 78 36 189 63 297 9 35 29 84 45 110 34 59 93 146 101 153 25 19 89
142 95 182 8 56 -10 87 -81 131 -25 15 -47 34 -50 42 -4 8 -12 15 -19 15 -8 0
-26 11 -42 24 -29 25 -56 41 -163 97 -36 18 -67 36 -70 40 -3 3 -35 18 -72 32
-36 15 -88 38 -115 51 -26 14 -79 34 -118 46 -38 12 -92 30 -120 41 -27 10
-74 23 -103 29 -30 5 -57 12 -61 15 -8 4 -65 21 -161 46 -64 17 -502 74 -652
85 -59 5 -96 3 -116 -5 -24 -10 -45 -9 -112 3 -95 19 -133 19 -175 3z m888
-298 c26 -5 68 -9 92 -9 49 0 190 -43 211 -65 19 -19 17 -64 -5 -111 -18 -38
-45 -149 -41 -169 5 -23 -1 -34 -21 -40 -11 -4 -27 -23 -36 -43 -9 -21 -20
-47 -26 -59 -5 -12 -7 -31 -4 -43 4 -14 -4 -32 -24 -54 -22 -25 -29 -44 -29
-74 0 -23 -5 -44 -11 -47 -6 -4 -8 -22 -4 -45 6 -33 3 -41 -17 -54 -65 -42
-204 -58 -328 -37 -30 6 -93 16 -140 25 -129 22 -191 29 -232 27 -21 -1 -38 2
-38 8 0 5 13 45 28 88 48 131 53 146 66 193 7 25 18 54 24 65 6 11 20 56 31
100 36 141 43 169 63 237 12 41 17 79 13 97 l-6 29 193 -5 c106 -2 215 -9 241
-14z m1044 -494 c3 -9 -1 -23 -10 -33 -23 -26 -97 -203 -97 -233 0 -8 -4 -19
-9 -24 -9 -11 -63 -185 -77 -249 -11 -47 -31 -58 -40 -21 -12 49 70 441 103
493 14 22 98 82 115 82 5 0 11 -7 15 -15z m-2148 -968 c35 -12 66 -28 68 -35
3 -7 -6 -29 -19 -50 -52 -78 -59 -94 -64 -140 -2 -26 -7 -63 -9 -83 -4 -27 0
-40 15 -54 19 -17 21 -17 60 9 22 15 60 55 84 89 60 85 100 124 154 148 40 19
51 20 85 9 54 -16 101 -55 140 -115 65 -102 147 -188 174 -183 26 5 28 55 4
119 -12 30 -21 57 -21 62 0 4 19 7 43 7 23 1 61 4 83 9 58 11 354 -9 354 -24
0 -6 -13 -24 -30 -40 -16 -16 -30 -35 -30 -42 0 -8 -6 -16 -14 -19 -24 -9 -40
-61 -28 -89 17 -37 52 -32 108 18 27 23 51 46 53 51 13 30 81 89 129 112 88
42 144 33 265 -40 81 -49 99 -57 112 -46 8 7 15 20 15 30 0 33 34 50 111 56
57 4 79 2 93 -9 31 -23 64 -170 86 -387 12 -118 30 -229 42 -253 12 -23 41
-15 86 24 31 27 75 38 86 21 11 -18 -30 -256 -57 -327 -18 -48 -90 -136 -132
-160 -39 -23 -140 -122 -165 -161 -30 -47 -18 -119 22 -140 19 -10 34 -12 41
-6 15 12 77 26 77 17 0 -9 -54 -54 -65 -55 -6 0 -27 -11 -48 -25 -20 -14 -90
-53 -155 -86 -112 -58 -121 -61 -207 -66 -97 -6 -230 15 -272 42 -12 8 -31 15
-42 15 -11 0 -26 7 -34 14 -8 8 -41 28 -73 43 -33 16 -80 41 -106 56 -45 27
-49 28 -125 18 -84 -10 -172 -38 -201 -64 -9 -8 -38 -25 -63 -35 -26 -11 -50
-25 -53 -31 -12 -20 -193 -101 -246 -111 -154 -29 -268 3 -405 113 -16 13 -41
28 -55 32 -14 4 -41 16 -60 28 -19 11 -57 23 -85 26 -61 7 -65 24 -8 32 61 8
76 24 68 73 -3 22 -12 47 -19 56 -7 8 -21 34 -31 58 -18 42 -75 102 -96 102
-21 0 -91 70 -115 114 -61 114 -96 274 -98 448 l-1 83 29 -3 c16 -2 46 -12 67
-23 43 -22 102 -25 116 -6 19 25 34 99 43 220 5 68 14 146 21 173 23 101 51
200 64 229 89 198 92 200 234 152z m1211 -2000 c114 -47 204 -69 313 -76 18
-2 4 -22 -25 -37 -18 -9 -35 -20 -38 -24 -3 -4 -32 -20 -64 -34 -33 -15 -71
-36 -84 -47 -14 -10 -35 -19 -47 -19 -12 0 -33 -8 -46 -19 -47 -37 -221 -90
-364 -110 -77 -11 -260 -6 -343 10 -81 16 -237 92 -273 134 -17 19 -58 54 -90
77 -55 38 -70 60 -51 72 4 3 41 -4 82 -15 113 -29 245 -18 377 33 171 66 163
64 213 31 25 -17 58 -33 74 -37 41 -10 112 17 176 67 63 50 55 50 190 -6z
m-32 -520 c23 -28 -72 -167 -114 -167 -21 0 -94 46 -94 58 0 5 15 22 33 38 72
67 152 99 175 71z m-343 -76 c-4 -26 -2 -49 8 -68 16 -31 104 -117 127 -125
16 -5 14 -11 -48 -148 -36 -81 -98 -160 -125 -160 -25 1 -65 58 -146 212 -73
139 -71 146 44 173 101 23 122 48 90 109 -19 35 -12 46 26 46 30 0 31 -1 24
-39z m-2660 -1933 c70 -68 143 -136 162 -153 19 -16 53 -46 76 -65 22 -19 60
-54 83 -77 24 -24 48 -43 54 -43 7 0 35 -15 63 -34 72 -47 175 -93 229 -101
70 -11 74 -15 55 -73 -9 -27 -21 -86 -26 -130 -5 -48 -17 -95 -28 -114 -17
-28 -25 -33 -54 -31 -19 1 -52 7 -74 13 -47 14 -169 73 -205 99 -14 10 -51 35
-82 56 -32 21 -58 41 -58 44 0 3 -12 12 -27 18 -16 7 -75 54 -133 104 -58 50
-127 110 -155 133 -27 22 -82 72 -122 110 -70 67 -73 71 -67 105 9 51 39 106
70 130 15 12 36 40 46 63 22 50 36 68 53 68 6 0 69 -55 140 -122z m4593 -586
c2 -17 15 -53 29 -79 14 -26 31 -65 39 -86 7 -20 27 -57 44 -81 16 -25 30 -47
30 -51 0 -10 53 -79 67 -88 7 -4 20 -22 29 -40 18 -35 56 -89 122 -173 57 -72
123 -206 131 -270 12 -89 -3 -193 -39 -261 -82 -156 -117 -167 -218 -68 -60
59 -66 70 -76 124 -7 39 -8 111 -3 203 12 237 -8 353 -80 447 -18 24 -33 54
-33 67 0 56 -37 275 -56 332 -17 52 -18 65 -1 60 6 -3 13 -19 15 -36z m-3518
-531 c0 -5 -6 -42 -14 -82 -8 -41 -20 -141 -26 -224 -7 -82 -16 -155 -20 -160
-5 -6 -12 -66 -15 -135 -6 -103 -11 -131 -28 -157 -38 -56 -214 -119 -311
-111 -34 3 -42 8 -60 43 -18 34 -21 57 -20 152 1 104 3 115 34 180 18 37 44
82 57 98 90 110 129 152 227 247 61 58 122 118 135 132 25 26 41 33 41 17z"/>
<path d="M3470 7694 c-49 -34 -58 -93 -25 -169 13 -29 32 -56 42 -58 65 -19
80 -18 110 7 53 45 51 167 -4 228 -23 26 -81 22 -123 -8z"/>
<path d="M4589 7688 c-55 -46 -59 -110 -13 -180 22 -35 28 -38 70 -38 38 0 50
5 75 33 16 17 32 42 35 55 9 33 -4 86 -27 116 -17 22 -28 26 -73 26 -29 0 -59
-6 -67 -12z"/>
<path d="M4210 7305 c-7 -8 -16 -35 -21 -59 -4 -24 -18 -65 -30 -90 -19 -41
-27 -47 -75 -63 -47 -15 -58 -15 -96 -2 -24 7 -60 29 -80 47 l-38 34 -10 -24
c-8 -18 -5 -36 14 -83 31 -76 70 -116 151 -154 109 -52 177 -36 235 56 42 66
63 145 58 220 -3 55 -8 67 -38 98 -37 39 -51 43 -70 20z"/>
<path d="M4382 7048 c-27 -27 -12 -58 68 -137 44 -43 80 -85 80 -93 0 -7 8
-21 18 -29 9 -9 36 -37 60 -61 48 -52 84 -63 139 -45 48 16 51 30 11 64 -18
15 -53 50 -78 76 -204 219 -261 262 -298 225z"/>
<path d="M3600 6964 c-36 -24 -77 -57 -92 -74 -15 -16 -31 -30 -36 -30 -12 0
-180 -166 -223 -220 -45 -56 -53 -80 -35 -106 14 -18 16 -18 46 -1 18 9 38 17
45 17 15 0 172 153 285 278 41 45 83 85 92 88 14 4 18 16 18 50 0 57 -14 56
-100 -2z"/>
<path d="M1755 3158 c-29 -16 -35 -28 -34 -73 0 -48 35 -93 92 -120 36 -17 38
-17 57 0 33 30 21 162 -17 190 -22 17 -71 19 -98 3z"/>
<path d="M8019 4098 c-42 -61 -104 -119 -186 -174 -45 -30 -88 -54 -94 -54 -7
0 -31 -9 -53 -20 -58 -27 -164 -60 -196 -60 -15 0 -38 -8 -50 -18 -47 -38 8
-92 93 -92 60 0 188 34 261 69 34 17 75 33 91 37 17 4 44 18 62 31 18 14 34
20 37 14 4 -5 -10 -42 -31 -81 -35 -69 -74 -106 -131 -127 -9 -4 -30 -17 -45
-30 -16 -13 -39 -23 -51 -23 -12 0 -32 -9 -44 -20 -12 -11 -27 -20 -34 -20 -7
0 -29 -8 -48 -18 -19 -11 -47 -22 -62 -26 -47 -11 -178 -74 -178 -85 0 -6 -7
-11 -15 -11 -18 0 -145 -118 -145 -135 0 -19 -34 -45 -61 -45 -33 -1 -117 -24
-129 -36 -13 -13 -1 -26 43 -46 40 -19 185 -26 203 -9 5 5 33 16 62 26 29 9
94 42 143 72 55 34 94 52 99 47 5 -5 15 -45 21 -89 6 -44 17 -114 26 -155 8
-41 21 -124 28 -183 8 -60 18 -114 22 -120 4 -7 13 -59 20 -117 6 -58 16 -123
22 -145 18 -71 34 -211 27 -246 -15 -80 -18 -139 -7 -153 25 -30 61 -28 97 4
19 16 39 30 44 30 16 0 50 78 50 115 0 20 -9 73 -20 118 -33 140 -51 218 -71
322 -20 107 -37 186 -69 330 -61 275 -68 349 -35 385 10 11 28 20 40 20 26 0
106 41 137 70 12 11 27 20 33 20 13 0 116 123 138 166 9 17 23 36 31 43 20 17
59 103 81 178 33 111 10 212 -58 253 -46 29 -72 25 -98 -12z"/>
<path d="M6308 3480 c-29 -22 -36 -56 -18 -90 13 -24 72 -60 99 -60 32 0 61
53 54 99 -7 47 -22 61 -69 68 -30 4 -45 0 -66 -17z"/>
<path d="M7400 2735 c-9 -10 -9 -23 -2 -47 14 -43 32 -166 32 -215 0 -27 10
-53 36 -91 38 -58 73 -78 105 -62 26 14 24 43 -7 106 -14 29 -29 76 -34 106
-25 162 -86 257 -130 203z"/>
<path d="M4237 2583 c-15 -27 -85 -296 -102 -398 -9 -49 -22 -119 -30 -155 -8
-36 -23 -139 -34 -230 -18 -144 -26 -223 -46 -430 -12 -119 -27 -358 -31 -473
-2 -71 -7 -134 -11 -140 -4 -6 -10 -92 -13 -192 -7 -181 -15 -222 -52 -253
-19 -15 -261 -18 -315 -3 -24 6 -47 19 -52 29 -22 38 -30 44 -67 53 -46 10
-160 -3 -266 -31 -40 -11 -87 -20 -103 -20 -17 0 -35 -4 -40 -9 -14 -12 -115
-38 -236 -61 -57 -10 -120 -24 -139 -30 -19 -6 -87 -13 -151 -17 -118 -6 -198
3 -309 35 -114 33 -231 4 -264 -65 -9 -19 -16 -55 -16 -81 0 -84 77 -139 140
-100 15 9 36 9 96 -1 137 -23 620 -3 699 29 11 5 56 20 100 34 166 54 232 76
285 97 30 11 71 25 90 31 19 5 49 14 66 19 17 5 35 9 41 9 22 0 43 -32 43 -64
0 -57 13 -63 145 -71 176 -10 320 -8 362 6 42 13 74 43 101 92 16 30 17 84 17
707 1 463 4 695 12 740 6 36 17 112 23 170 6 58 18 123 25 145 7 22 16 64 19
94 3 29 7 56 10 58 10 10 26 -9 26 -30 0 -12 9 -60 20 -107 31 -133 83 -543
95 -745 3 -49 9 -171 15 -270 18 -312 42 -516 69 -590 11 -28 22 -73 26 -100
4 -28 16 -67 27 -88 21 -42 21 -42 173 -37 100 3 341 42 357 58 15 15 1 112
-22 150 l-20 32 -141 0 c-126 0 -145 2 -179 21 -45 25 -47 31 -55 169 -3 58
-10 125 -15 150 -5 25 -14 97 -20 160 -13 140 -39 305 -75 485 -8 39 -17 90
-20 114 -3 24 -12 56 -20 72 -8 15 -15 48 -15 71 0 24 -7 70 -15 101 -8 31
-24 105 -35 165 -29 156 -57 292 -69 332 -6 19 -11 49 -11 66 0 18 -7 54 -14
80 -8 27 -23 87 -33 133 -16 76 -33 107 -46 84z"/>
<path d="M5128 427 c-18 -14 -24 -60 -12 -91 7 -19 150 -98 209 -116 22 -7 45
-16 51 -21 5 -5 37 -15 70 -23 32 -7 71 -19 86 -25 95 -37 871 -28 973 12 l40
16 -2 56 c-2 63 -34 139 -64 156 -14 7 -75 5 -207 -6 -292 -25 -730 -12 -952
30 -137 25 -173 27 -192 12z"/>
</g>
</svg>
