<?xml version="1.0" standalone="no"?>
<!DOCTYPE svg PUBLIC "-//W3C//DTD SVG 20010904//EN"
 "http://www.w3.org/TR/2001/REC-SVG-20010904/DTD/svg10.dtd">
<svg version="1.0" xmlns="http://www.w3.org/2000/svg"
 width="862.000000pt" height="878.000000pt" viewBox="0 0 862.000000 878.000000"
 preserveAspectRatio="xMidYMid meet">
<metadata>
Created by potrace 1.14, written by Peter Selinger 2001-2017
</metadata>
<g transform="translate(0.000000,878.000000) scale(0.100000,-0.100000)"
fill="#000000" stroke="none">
<path d="M5576 8769 c-17 -4 -40 -20 -53 -34 -13 -14 -28 -25 -33 -25 -6 0
-10 -6 -10 -13 0 -8 -11 -24 -24 -36 -50 -47 -53 -156 -6 -206 12 -13 45 -35
74 -49 96 -48 176 -105 187 -133 22 -57 23 -100 0 -136 -30 -49 -27 -63 21
-82 31 -12 93 -18 245 -24 l202 -8 63 -41 c83 -53 130 -63 164 -31 13 12 24
28 24 36 0 34 64 143 114 193 63 65 146 128 186 142 66 22 30 65 -51 59 -41
-2 -47 0 -53 21 -8 31 -94 84 -251 153 -16 7 -50 19 -75 25 -25 7 -66 21 -93
31 -26 10 -74 23 -107 30 -54 10 -62 10 -93 -10 -47 -29 -117 -28 -160 2 -17
12 -65 50 -106 85 -78 65 -99 71 -165 51z m73 -158 c6 -10 23 -23 39 -29 37
-13 82 -57 82 -81 0 -69 -80 -64 -152 10 -48 49 -60 83 -36 107 18 18 56 14
67 -7z m516 -82 c21 -6 53 -21 70 -33 62 -46 165 -96 209 -102 55 -8 68 -22
64 -65 -3 -29 -8 -34 -38 -40 -42 -9 -66 2 -74 35 -8 31 -44 66 -68 66 -10 0
-45 -13 -77 -30 -52 -26 -61 -35 -77 -77 -9 -26 -21 -52 -26 -57 -4 -6 -8 -18
-8 -27 0 -29 -15 -31 -118 -19 -121 14 -178 38 -187 79 -11 50 21 171 46 171
5 0 21 12 35 27 66 72 156 98 249 72z"/>
<path d="M1612 8521 c-18 -5 -58 -31 -90 -58 -31 -27 -82 -67 -112 -87 -30
-21 -57 -42 -60 -47 -6 -8 -150 -104 -247 -163 -27 -16 -78 -49 -115 -72 -36
-24 -78 -46 -92 -50 -14 -3 -26 -10 -26 -15 0 -4 -28 -24 -62 -44 -86 -49 -86
-49 -148 -78 -30 -14 -65 -35 -77 -47 -12 -11 -28 -20 -35 -21 -7 0 -35 -13
-63 -29 -27 -16 -70 -39 -95 -52 -175 -91 -209 -111 -215 -125 -14 -39 47
-263 163 -588 21 -60 49 -139 62 -175 12 -36 26 -69 31 -74 5 -6 9 -18 9 -27
0 -9 11 -41 24 -70 12 -30 26 -71 29 -93 3 -21 12 -46 20 -55 8 -9 19 -41 26
-71 6 -30 17 -66 24 -80 40 -78 50 -122 43 -194 -8 -89 7 -166 40 -205 13 -16
24 -33 24 -38 0 -4 12 -24 28 -43 56 -71 83 -161 89 -295 4 -88 9 -117 26
-145 12 -19 27 -39 34 -43 7 -4 13 -12 13 -18 0 -5 18 -25 40 -45 22 -20 43
-47 46 -59 9 -38 -13 -100 -41 -113 -23 -11 -25 -17 -25 -76 0 -132 109 -288
243 -350 106 -48 278 -64 467 -42 67 8 80 6 115 -12 53 -27 90 -68 105 -117 6
-22 14 -47 17 -55 4 -8 7 -38 7 -66 2 -94 32 -114 173 -114 59 0 75 3 80 17 8
20 -30 53 -61 53 -11 1 -32 7 -45 14 -27 15 -28 22 -31 211 -2 112 11 203 41
283 10 29 19 60 19 70 0 9 7 30 15 46 8 15 15 35 15 42 0 8 5 14 10 14 6 0 10
4 10 9 0 13 15 46 43 96 25 45 58 55 108 35 29 -13 35 -21 22 -34 -9 -9 -40
-149 -53 -236 -24 -174 -10 -528 25 -600 7 -14 18 -53 25 -88 7 -34 18 -66 24
-69 6 -4 44 -6 86 -5 41 2 149 -5 240 -14 91 -10 245 -18 343 -19 98 -1 181
-5 184 -9 15 -14 44 -146 54 -241 6 -55 13 -190 16 -300 l5 -201 -111 -52
c-61 -28 -116 -52 -123 -53 -7 0 -60 -24 -118 -52 -105 -53 -149 -93 -164
-154 -4 -12 -19 -42 -34 -65 -16 -24 -45 -81 -66 -128 -21 -47 -48 -105 -61
-130 -13 -25 -38 -74 -55 -110 -16 -36 -34 -72 -39 -81 -5 -8 -22 -40 -37 -70
-15 -30 -38 -68 -51 -85 -13 -17 -23 -34 -23 -38 0 -15 -84 -136 -95 -136 -8
0 -18 45 -29 133 -10 72 -35 195 -56 272 -74 269 -102 464 -85 600 8 72 17 86
74 116 23 12 47 33 52 46 14 36 11 119 -5 158 -29 68 -39 73 -181 86 -212 19
-324 22 -341 8 -8 -6 -22 -27 -30 -46 -23 -48 -6 -126 43 -199 84 -124 84
-122 72 -279 -9 -120 -14 -145 -36 -182 -30 -52 -41 -58 -113 -67 -30 -4 -111
-14 -180 -22 -69 -9 -146 -17 -171 -19 -26 -1 -57 -8 -69 -15 -20 -11 -168
-13 -420 -6 l-45 1 -7 -104 c-4 -57 -11 -125 -17 -150 -5 -25 -17 -86 -27
-136 -9 -49 -22 -104 -29 -122 -8 -18 -16 -63 -19 -100 -8 -82 -15 -128 -27
-168 -18 -62 -47 -214 -65 -342 l-18 -133 23 -24 c22 -23 31 -25 111 -24 48 0
93 -3 100 -7 12 -8 11 -77 -10 -691 -11 -318 -9 -333 44 -383 l25 -24 546 5
c300 3 545 3 546 -1 0 -3 4 -53 8 -111 5 -64 15 -118 25 -138 15 -29 21 -32
59 -30 23 1 89 -1 147 -5 551 -37 1206 -63 1800 -72 575 -8 1386 -30 1550 -41
41 -3 161 -5 265 -4 337 4 408 3 550 -9 77 -7 383 -14 680 -17 556 -5 834 -15
989 -35 126 -16 253 3 307 46 l38 30 -2 430 c-2 428 10 757 38 1045 8 80 17
206 21 280 9 184 25 209 145 226 101 13 139 63 139 181 0 65 -3 78 -30 115
-16 22 -30 45 -30 50 0 4 -24 45 -53 91 -30 45 -62 96 -73 113 -10 17 -31 49
-45 70 -55 83 -159 252 -159 259 0 5 -6 16 -14 24 -8 9 -31 48 -51 86 -20 39
-42 75 -49 80 -13 11 -46 68 -83 140 -25 51 -29 58 -76 136 l-28 47 19 48 c23
58 36 118 53 239 7 50 18 107 26 128 16 49 63 93 107 101 20 4 38 11 41 16 3
5 -1 52 -9 103 -14 81 -41 159 -76 217 -5 8 -21 36 -36 62 -30 53 -61 77 -111
88 -31 7 -39 3 -106 -52 -40 -33 -79 -68 -89 -77 -9 -9 -31 -27 -49 -41 -19
-14 -55 -46 -81 -71 -41 -39 -48 -51 -48 -85 0 -32 8 -47 46 -89 45 -49 46
-51 40 -102 -3 -28 -9 -58 -12 -67 -10 -26 -32 -18 -50 17 -9 17 -27 43 -40
57 -12 14 -41 66 -64 115 -39 84 -62 133 -87 180 -17 31 -89 196 -103 235 -8
19 -19 42 -27 51 -7 8 -13 22 -13 30 0 8 -14 32 -30 53 -17 22 -30 44 -30 49
0 5 -11 22 -25 39 -14 16 -25 35 -25 42 0 7 -16 29 -35 50 -31 34 -39 38 -68
32 -74 -14 -139 -36 -203 -71 -77 -42 -182 -65 -195 -43 -5 7 -9 29 -9 49 0
42 -50 245 -73 299 -16 37 -80 100 -163 160 -75 54 -115 87 -230 190 -62 56
-182 190 -214 240 -16 25 -39 57 -51 71 -11 15 -26 36 -32 47 -7 11 -29 51
-51 88 -21 38 -49 85 -61 105 -13 20 -30 56 -38 80 -9 24 -25 62 -36 84 -12
21 -21 45 -21 53 0 8 -6 28 -14 45 -25 58 -54 161 -72 252 -9 50 -20 99 -25
110 -4 11 -17 42 -28 69 -12 27 -21 53 -21 58 0 6 -8 22 -19 36 -28 41 -71
155 -74 198 -2 33 2 40 26 52 18 8 30 24 34 42 7 39 27 45 167 45 128 0 122
-3 146 62 11 30 14 31 83 38 188 18 207 30 207 129 -1 79 -32 261 -54 312 -67
153 -98 203 -159 258 -61 55 -142 116 -152 116 -4 0 -25 9 -48 19 -59 27 -81
29 -85 10 -2 -10 16 -30 46 -53 42 -30 102 -91 130 -131 27 -39 77 -159 91
-220 5 -22 27 -106 50 -187 22 -81 38 -153 35 -161 -6 -17 -64 -28 -104 -20
-26 5 -29 11 -39 67 -6 35 -11 78 -11 97 0 45 -34 176 -67 264 -31 83 -114
188 -178 225 -24 14 -54 33 -67 42 -12 10 -47 36 -76 57 -30 22 -59 46 -65 54
-15 18 -121 97 -131 97 -4 0 -35 19 -69 43 -34 24 -89 57 -122 74 -33 16 -76
38 -95 48 -92 47 -110 55 -127 55 -11 0 -23 4 -29 8 -18 17 -230 80 -344 103
-101 21 -143 24 -345 24 -145 0 -247 -4 -275 -12 -25 -6 -79 -20 -120 -29 -90
-21 -96 -25 -103 -67 -4 -17 -13 -63 -22 -102 -8 -38 -15 -81 -15 -94 0 -21
-13 -68 -42 -156 -6 -16 -16 -52 -23 -80 -7 -27 -23 -75 -35 -105 -12 -30 -24
-65 -27 -77 -3 -12 -11 -28 -19 -34 -8 -6 -14 -19 -14 -28 0 -28 -41 -141 -51
-141 -5 0 -9 -6 -9 -13 0 -7 -10 -30 -22 -52 -11 -22 -25 -53 -29 -70 -4 -16
-14 -48 -23 -70 -14 -37 -17 -40 -50 -37 -20 2 -69 17 -109 33 -127 54 -176
69 -217 69 -35 0 -40 -3 -40 -22 0 -75 49 -145 163 -231 46 -34 51 -62 39
-204 l-9 -110 -50 -49 c-28 -27 -69 -64 -91 -81 -48 -39 -59 -68 -70 -193 -7
-70 -16 -110 -36 -150 -25 -52 -26 -58 -16 -124 6 -39 20 -84 30 -102 11 -17
20 -39 20 -48 0 -10 22 -40 49 -68 42 -43 53 -50 76 -44 21 5 34 0 61 -24 19
-16 39 -30 45 -30 5 0 16 -15 24 -34 15 -36 100 -118 148 -143 57 -29 142 -52
223 -58 78 -7 82 -6 89 14 8 25 -1 41 -21 41 -29 0 -127 40 -159 65 -19 14
-43 25 -54 25 -22 0 -61 52 -61 81 0 17 10 20 170 49 43 8 77 21 167 61 23 10
44 19 47 19 10 0 232 153 256 177 13 14 36 31 50 38 14 7 35 25 47 39 12 14
40 30 61 36 47 12 65 31 60 62 -2 18 -10 24 -38 26 -30 2 -53 -10 -150 -77
-63 -44 -153 -101 -200 -127 -47 -26 -87 -50 -90 -53 -23 -27 -122 -67 -205
-83 -114 -21 -218 -21 -293 1 -70 21 -71 22 -86 69 -8 26 -18 62 -21 80 -4 21
-12 32 -24 32 -25 0 -39 -35 -47 -118 -5 -60 -9 -72 -22 -70 -44 8 -83 131
-68 210 11 59 78 108 148 108 26 0 66 43 95 100 29 59 27 62 -42 80 -65 17
-85 28 -85 48 0 20 29 52 48 52 11 0 82 78 82 91 0 6 78 175 122 266 6 12 24
38 41 59 30 36 31 36 86 30 103 -12 162 -35 208 -82 23 -24 49 -44 58 -44 17
0 35 37 28 56 -10 27 -13 27 442 -6 83 -6 184 -16 225 -22 41 -5 102 -13 135
-18 82 -10 247 -56 320 -90 33 -15 76 -32 96 -39 20 -6 45 -21 54 -31 10 -11
27 -20 37 -20 10 0 21 -7 24 -15 4 -8 13 -15 21 -15 7 0 25 -11 38 -25 20 -20
25 -34 25 -78 0 -71 -16 -114 -44 -121 -12 -3 -49 -8 -81 -12 -66 -8 -188 -55
-221 -85 -11 -10 -24 -19 -30 -19 -5 0 -31 -22 -59 -49 -44 -43 -64 -66 -117
-133 -9 -10 -37 -18 -82 -22 -60 -6 -164 -37 -334 -100 -24 -9 -55 -25 -70
-35 -15 -10 -52 -35 -82 -55 -113 -76 -112 -75 -242 -214 -31 -33 -65 -73 -75
-89 -9 -15 -35 -50 -55 -76 -21 -27 -38 -54 -38 -60 0 -7 -22 -36 -48 -65 -64
-72 -94 -78 -261 -55 -151 22 -226 21 -266 -1 -16 -9 -35 -16 -42 -16 -6 0
-27 -18 -46 -41 -33 -38 -99 -86 -142 -103 -11 -4 -92 -9 -179 -12 -156 -4
-161 -5 -187 -30 -33 -31 -62 -29 -149 12 -44 20 -64 24 -105 19 -46 -5 -53
-3 -82 24 -40 37 -87 125 -79 147 5 12 14 15 36 10 17 -3 63 -1 103 4 39 5
135 14 212 20 77 6 192 18 255 26 63 8 149 19 190 24 82 11 105 27 90 63 -9
22 -31 147 -49 272 -20 133 -103 527 -167 790 -20 83 -40 169 -45 192 -14 70
-40 152 -50 158 -5 4 -9 17 -9 31 0 26 -31 157 -79 334 -16 58 -33 128 -39
155 -5 28 -14 64 -20 80 -6 17 -21 75 -33 130 -16 69 -36 126 -67 185 -25 47
-53 102 -63 122 -11 20 -23 39 -28 42 -18 12 -157 -17 -256 -52 -55 -19 -134
-46 -175 -59 -41 -14 -104 -35 -140 -48 -140 -49 -207 -67 -265 -71 -33 -2
-52 -1 -42 2 9 3 17 9 17 13 0 9 100 52 165 72 22 6 62 22 89 35 28 13 57 24
65 24 9 0 25 7 35 15 11 8 27 15 36 15 9 0 60 23 113 50 103 53 150 62 197 36
29 -17 60 -5 60 23 0 28 -29 80 -54 96 -19 13 -29 13 -67 2 -24 -8 -62 -25
-84 -39 -67 -42 -153 -84 -315 -153 -85 -37 -180 -81 -210 -99 -84 -51 -119
-66 -194 -87 -37 -11 -121 -47 -185 -81 -64 -33 -138 -67 -166 -74 -57 -16
-121 -18 -129 -5 -9 13 26 38 64 45 53 10 159 59 165 76 3 9 43 27 94 43 48
16 94 35 102 42 8 8 41 27 75 44 33 16 66 37 74 45 7 9 16 16 21 16 4 0 28 14
53 30 24 17 62 38 83 46 63 26 154 92 222 161 68 69 88 75 109 30 8 -16 20
-31 28 -34 20 -7 44 15 44 41 0 24 -43 120 -57 129 -19 12 -88 16 -121 8z
m2828 -191 c19 -5 67 -15 105 -23 39 -8 108 -29 155 -46 47 -18 113 -41 146
-52 34 -10 67 -26 74 -34 7 -8 17 -15 22 -15 34 0 250 -123 303 -172 16 -15
42 -33 57 -39 35 -14 44 -40 21 -59 -29 -24 -100 -123 -108 -150 -4 -14 -21
-50 -36 -81 -16 -31 -29 -63 -29 -71 0 -7 -6 -22 -14 -33 -7 -11 -17 -36 -21
-55 -4 -19 -16 -46 -25 -60 -12 -16 -16 -35 -13 -53 3 -17 0 -34 -9 -45 -10
-11 -14 -32 -12 -59 3 -39 2 -43 -19 -43 -13 0 -27 3 -30 6 -26 26 -150 62
-327 95 -65 12 -348 11 -465 -1 -55 -6 -149 -17 -210 -25 -60 -8 -148 -17
-193 -21 -92 -7 -292 3 -292 15 0 5 48 11 108 14 274 17 364 26 378 38 16 13
16 22 -2 115 -5 28 -3 32 37 50 34 15 63 19 136 17 51 -1 107 -6 125 -11 96
-29 147 -42 188 -47 25 -4 59 -11 75 -16 163 -48 241 -75 302 -105 114 -57
148 -31 58 44 -27 23 -57 49 -66 57 -9 8 -18 15 -22 15 -3 0 -45 18 -93 41
-95 45 -136 58 -299 94 -60 13 -139 31 -175 40 -36 9 -85 19 -108 22 -50 7
-61 22 -38 55 13 17 15 36 10 84 -6 53 -2 72 25 146 17 46 31 91 31 100 0 14
67 161 91 198 5 8 15 26 21 40 26 52 35 54 138 30z m-2288 -317 c18 -21 63
-178 84 -293 3 -14 9 -41 14 -60 5 -19 13 -55 19 -80 6 -25 27 -112 47 -195
54 -221 125 -534 131 -578 3 -20 9 -40 14 -43 5 -3 9 -20 9 -39 0 -18 8 -61
19 -96 10 -35 29 -113 41 -174 12 -60 28 -130 36 -155 7 -25 20 -76 28 -115
23 -104 42 -179 87 -332 11 -40 18 -77 15 -82 -3 -5 -52 -14 -108 -20 -57 -7
-145 -19 -196 -27 -51 -8 -110 -14 -130 -14 -21 0 -53 -5 -72 -11 -19 -5 -93
-16 -165 -24 -71 -8 -173 -19 -225 -24 -52 -6 -162 -13 -243 -15 l-149 -3 -36
40 c-46 49 -134 133 -187 178 -22 19 -46 42 -53 52 -7 9 -22 17 -32 17 -10 0
-23 6 -27 13 -8 14 -119 101 -138 108 -5 2 -29 15 -51 29 -39 23 -42 28 -55
95 -7 38 -23 88 -36 110 -56 97 -84 161 -143 330 -35 99 -67 184 -71 190 -5 5
-9 20 -9 32 0 13 -7 38 -16 55 -9 17 -42 106 -74 197 -32 91 -65 184 -73 206
-26 68 -87 270 -87 286 0 17 39 39 68 39 9 0 76 16 147 36 126 35 208 56 290
74 22 5 92 20 155 35 63 14 140 30 172 34 31 5 61 12 68 16 7 4 37 11 68 15
110 16 280 55 397 91 39 11 93 27 120 34 28 8 70 20 95 28 25 8 65 20 90 26
25 7 59 16 75 21 48 13 71 11 87 -7z m2523 -832 c280 -43 401 -100 515 -243
40 -50 60 -85 64 -112 12 -70 -8 -67 -81 13 -73 80 -199 169 -302 214 -116 50
-257 93 -340 102 -236 28 -261 33 -228 44 22 8 286 -5 372 -18z m-3802 -1199
c16 -9 124 -112 241 -228 213 -211 286 -271 364 -298 46 -16 61 -14 107 18 23
16 49 21 128 24 109 5 117 1 117 -53 0 -36 45 -109 98 -157 28 -27 28 -52 -1
-103 -34 -61 -64 -152 -77 -234 -15 -103 -32 -120 -81 -83 -35 28 -132 43
-224 35 -44 -3 -138 -6 -210 -7 -121 0 -134 2 -187 27 -35 17 -70 44 -93 72
-32 38 -36 49 -30 77 4 18 27 61 51 95 24 35 44 71 44 82 0 15 -29 63 -50 81
-3 3 -16 18 -28 34 -32 42 -28 81 13 127 44 49 45 86 6 174 -24 52 -52 87
-139 174 -114 113 -153 168 -130 182 7 5 22 2 33 -7 11 -8 33 -22 48 -32z
m2322 -542 c16 -18 16 -22 2 -42 -13 -21 -73 -91 -149 -176 -16 -18 -41 -59
-55 -90 -25 -54 -26 -61 -24 -241 2 -204 3 -201 -64 -201 -146 1 -207 304
-104 515 18 38 59 101 76 118 85 84 146 113 294 136 3 1 14 -8 24 -19z m1194
-634 c6 -7 29 -16 50 -20 83 -13 94 -79 18 -116 -70 -34 -213 -127 -265 -171
-18 -16 -37 -29 -42 -29 -6 0 -35 -20 -66 -45 -30 -25 -60 -45 -66 -45 -7 0
-28 -11 -47 -24 -20 -13 -69 -45 -110 -71 -40 -27 -88 -63 -106 -80 -18 -18
-42 -38 -53 -44 -12 -6 -29 -26 -38 -43 -9 -17 -27 -41 -40 -53 -13 -12 -24
-30 -24 -39 0 -9 -6 -19 -14 -22 -8 -3 -19 -19 -25 -36 -14 -40 -23 -30 -32
35 -3 29 -14 86 -23 129 -10 42 -16 100 -14 129 4 65 29 87 108 96 36 4 81 19
128 44 40 22 78 39 85 39 7 0 27 10 46 23 19 12 48 31 66 42 63 40 163 111
206 147 193 163 231 186 258 154z m2678 -168 c11 -24 34 -72 51 -108 17 -36
40 -92 51 -125 51 -153 163 -420 183 -435 8 -6 60 -99 83 -148 17 -35 62 -67
107 -77 44 -10 38 -49 -20 -113 -39 -44 -57 -56 -112 -72 -36 -11 -88 -20
-117 -20 -43 0 -56 4 -80 28 -16 16 -45 32 -66 36 -47 9 -114 -9 -127 -34 -6
-11 -16 -20 -24 -20 -35 0 -176 -158 -190 -213 -4 -16 -12 -29 -19 -31 -7 -2
-43 -13 -82 -25 -38 -12 -99 -30 -135 -41 -168 -51 -220 -76 -206 -98 12 -21
83 -19 176 5 120 31 248 42 253 22 27 -98 58 -140 134 -184 51 -31 68 -31 156
-3 49 16 82 35 115 65 25 24 52 43 59 43 8 0 56 5 108 10 144 17 315 71 400
129 25 17 55 31 65 31 23 0 61 -68 91 -163 11 -34 23 -64 27 -67 12 -9 92
-177 92 -194 0 -9 5 -16 10 -16 6 0 10 -5 10 -12 0 -6 7 -19 16 -29 8 -9 39
-67 69 -128 29 -62 57 -117 63 -124 5 -7 12 -19 16 -27 3 -8 20 -35 36 -60 80
-121 77 -140 -25 -140 -67 0 -78 -6 -89 -55 -4 -16 -16 -39 -26 -50 -26 -29
-39 -100 -50 -280 -6 -88 -15 -189 -20 -225 -18 -125 -40 -296 -50 -395 -6
-55 -15 -136 -20 -180 -39 -311 -42 -366 -39 -612 2 -138 1 -254 -2 -257 -3
-3 -36 -8 -75 -11 -38 -3 -88 -8 -112 -11 -63 -8 -643 -7 -742 1 -47 4 -247
12 -445 18 -369 12 -627 5 -826 -22 -130 -18 -375 -5 -499 26 l-35 9 3 164 c2
91 12 255 23 365 11 110 24 252 29 315 5 63 16 149 24 190 8 41 19 111 25 155
14 111 39 279 52 345 5 30 14 78 19 105 5 28 17 85 27 128 13 62 14 80 4 90
-10 9 -16 8 -28 -8 -32 -42 -110 -231 -133 -325 -19 -74 -36 -129 -43 -136 -4
-4 -7 -14 -7 -23 0 -9 -9 -34 -19 -56 -11 -22 -23 -49 -26 -59 -5 -17 -12 -18
-83 -12 -42 4 -90 9 -107 11 -107 15 -303 25 -426 22 -127 -4 -177 -11 -296
-43 -18 -5 -16 -41 3 -48 9 -3 66 -6 127 -6 67 0 134 -6 167 -15 41 -11 117
-15 305 -15 138 0 255 -4 262 -8 13 -8 3 -145 -17 -224 -13 -54 -27 -68 -78
-79 -20 -4 -59 -15 -87 -23 -82 -24 -187 -53 -235 -65 -25 -7 -79 -21 -120
-32 -41 -11 -151 -33 -245 -49 -93 -16 -208 -36 -255 -45 -108 -19 -351 -54
-455 -66 -115 -12 -127 -16 -123 -48 3 -23 9 -27 48 -33 117 -17 242 -1 480
64 170 46 247 58 398 58 l124 0 58 36 c44 27 72 37 113 40 31 2 75 8 99 15 24
6 52 10 63 10 11 0 35 4 52 10 19 6 56 8 89 3 l56 -7 -4 -261 c-5 -244 -7
-265 -28 -316 -38 -91 -14 -85 -402 -99 -188 -7 -419 -16 -513 -20 -214 -10
-1199 -7 -1322 4 l-92 8 -16 46 c-15 46 -20 201 -10 316 5 64 74 371 115 510
35 120 25 152 -53 179 -46 15 -79 17 -261 12 -133 -3 -213 -9 -222 -17 -7 -6
-16 -27 -19 -48 -4 -20 -10 -45 -15 -56 -11 -28 -29 -124 -70 -390 -6 -33 -10
-119 -9 -190 0 -107 -4 -143 -21 -200 -12 -39 -24 -76 -26 -83 -5 -18 -79 -15
-94 3 -11 13 -11 25 -1 63 7 26 17 88 22 137 13 128 53 398 89 610 24 138 32
196 37 265 6 87 14 106 45 113 36 9 189 74 201 86 6 6 16 11 22 11 6 0 49 16
95 36 176 74 227 93 290 109 162 41 182 49 192 71 6 13 16 25 22 27 12 5 217
-20 256 -31 39 -11 50 -46 50 -167 0 -248 39 -404 113 -457 28 -20 44 -23 128
-23 83 0 100 3 119 20 36 33 40 58 30 188 -5 67 -14 212 -21 322 -6 110 -15
238 -19 285 -9 100 0 118 36 75 50 -60 160 -167 191 -186 41 -26 127 -37 139
-18 17 26 34 84 34 115 0 36 -24 75 -116 181 -36 43 -73 92 -81 108 -9 17 -31
48 -49 69 -19 22 -34 44 -34 50 0 5 -6 17 -14 25 -40 44 -156 354 -175 466 -6
39 -17 93 -23 121 -15 74 -5 424 15 489 8 28 20 74 26 103 10 49 43 124 101
227 81 146 311 389 431 456 16 9 35 21 42 28 18 15 129 71 141 71 5 0 30 10
54 21 39 20 55 21 146 16 113 -6 318 -54 370 -87 36 -22 136 -123 136 -138 0
-5 10 -14 23 -20 12 -7 49 -34 82 -62 33 -27 71 -55 84 -60 13 -6 36 -20 52
-31 16 -11 42 -22 60 -24 17 -2 33 -5 35 -7 6 -7 -12 -26 -56 -57 -89 -63
-126 -85 -190 -117 -36 -18 -78 -42 -95 -53 -16 -12 -36 -21 -44 -21 -7 0 -41
-13 -75 -30 -34 -16 -103 -45 -154 -64 -155 -59 -168 -70 -140 -115 9 -14 8
-26 -2 -51 -17 -42 -85 -123 -110 -132 -25 -9 -40 -47 -40 -100 0 -32 7 -47
34 -74 33 -33 35 -38 37 -112 2 -109 14 -204 32 -243 8 -19 24 -59 36 -89 12
-31 37 -73 56 -95 19 -21 35 -45 35 -52 0 -13 -13 -36 -86 -148 -48 -74 -60
-120 -40 -150 13 -20 25 -25 59 -25 70 0 119 50 209 209 46 84 41 110 -49 230
-18 24 -33 50 -33 56 0 7 -14 39 -30 70 -28 54 -30 64 -29 164 1 115 -17 183
-52 202 -44 23 -10 67 84 109 24 11 56 29 71 41 23 18 26 26 20 53 -3 17 -15
40 -25 52 -10 11 -19 34 -19 51 0 28 5 33 48 48 185 66 428 170 462 199 8 7
44 28 80 47 36 19 69 40 73 47 4 6 12 12 17 12 5 0 38 18 72 40 91 58 98 63
127 85 14 11 51 37 81 58 100 68 202 146 299 231 64 55 83 64 166 78 33 5 69
13 80 18 11 4 36 14 55 21 19 6 60 23 90 37 30 13 96 39 146 57 50 18 101 39
112 46 34 21 37 2 6 -38 -16 -20 -40 -56 -54 -80 -14 -23 -70 -109 -125 -190
-55 -81 -103 -156 -108 -166 -4 -10 -22 -36 -40 -57 -18 -22 -40 -52 -47 -67
-8 -15 -25 -42 -37 -59 -13 -17 -23 -35 -23 -41 0 -5 -9 -18 -20 -28 -11 -10
-20 -23 -20 -29 0 -5 -11 -26 -23 -45 -39 -58 -119 -183 -146 -226 -14 -22
-33 -49 -43 -60 -16 -17 -42 -54 -113 -164 -5 -8 -16 -21 -22 -29 -7 -7 -13
-17 -13 -22 0 -4 -26 -39 -57 -78 -32 -38 -65 -79 -73 -92 -18 -27 -96 -128
-151 -195 -23 -27 -49 -63 -60 -80 -83 -132 -105 -170 -129 -225 -14 -30 -38
-77 -55 -105 -36 -59 -57 -98 -82 -145 -10 -19 -35 -57 -55 -85 -21 -27 -38
-55 -38 -62 0 -17 -39 -21 -280 -28 -211 -5 -282 -13 -303 -34 -16 -16 10 -40
52 -46 20 -3 51 -13 69 -21 19 -8 104 -25 190 -39 318 -49 307 -50 349 2 13
16 38 46 56 68 18 22 44 56 57 75 13 19 27 37 31 40 3 3 14 21 24 40 10 19 35
60 56 91 22 31 39 59 39 63 0 3 16 30 35 61 20 30 39 63 42 73 4 9 25 44 48
77 22 33 67 104 99 158 32 54 73 117 90 140 31 42 62 86 81 115 9 14 64 78
105 121 23 25 77 95 81 106 2 6 22 37 43 70 22 33 51 78 64 100 14 22 33 52
44 67 10 15 18 30 18 33 0 4 13 25 28 48 73 107 122 184 122 191 0 6 49 85 91
147 9 14 29 49 44 77 15 29 31 55 36 58 5 3 20 29 34 57 26 54 43 83 108 189
20 33 37 66 37 73 0 7 8 23 19 36 10 13 35 56 54 96 23 45 60 96 101 137 80
82 104 86 133 24z m-3691 -489 c2 -52 8 -134 13 -184 5 -49 7 -93 5 -96 -2 -3
3 -93 12 -200 8 -107 19 -259 24 -339 13 -205 29 -385 34 -401 3 -8 7 -56 10
-107 3 -52 10 -131 16 -175 5 -45 17 -179 25 -297 21 -298 43 -577 51 -625 3
-22 10 -94 15 -160 4 -66 11 -141 15 -166 5 -37 3 -47 -10 -52 -43 -17 -55 40
-86 438 -5 55 -15 161 -24 235 -8 74 -20 185 -26 245 -5 61 -15 142 -20 180
-6 39 -12 102 -14 140 -6 106 -25 306 -30 324 -3 9 -10 84 -16 166 -6 83 -15
177 -20 210 -8 52 -26 231 -60 600 -5 55 -14 132 -21 170 -6 39 -9 92 -7 120
3 49 4 50 48 66 25 10 49 14 53 9 5 -4 10 -50 13 -101z m-1469 -960 c2 -101 8
-197 13 -213 6 -16 10 -40 10 -54 0 -14 4 -39 9 -56 6 -17 17 -62 25 -101 8
-38 24 -101 36 -140 12 -38 26 -88 30 -110 10 -54 33 -114 93 -244 23 -51 24
-123 2 -157 -8 -13 -15 -31 -15 -41 0 -10 -23 -47 -50 -82 -28 -36 -50 -70
-50 -77 0 -8 -9 -18 -20 -24 -11 -6 -20 -16 -20 -21 0 -6 -10 -24 -22 -39 -60
-75 -68 -86 -68 -96 0 -6 -13 -28 -30 -49 -16 -21 -30 -44 -30 -52 0 -7 -6
-24 -14 -36 -24 -36 -36 -126 -20 -142 23 -23 80 -36 140 -33 l56 3 5 -124 c5
-127 -4 -200 -48 -406 -11 -49 -27 -138 -36 -198 -16 -104 -17 -107 -42 -107
-156 -3 -300 -11 -361 -21 -41 -7 -151 -13 -245 -13 -140 -1 -179 3 -220 17
-38 14 -66 17 -115 12 -36 -3 -71 -2 -77 3 -8 5 -14 39 -15 92 -3 76 0 162 17
520 3 58 7 172 10 253 5 146 5 149 -20 181 -27 36 -101 66 -161 66 -42 0 -51
17 -36 68 20 72 34 125 42 171 25 131 38 217 50 321 6 63 14 121 16 129 9 30
22 -8 38 -114 10 -60 26 -150 36 -200 10 -49 21 -101 23 -115 11 -55 48 -197
59 -223 13 -33 53 -67 80 -67 22 0 63 19 133 60 28 17 57 33 65 36 53 23 144
54 200 68 36 10 86 24 111 32 26 8 100 19 165 24 172 13 204 21 268 68 32 22
75 43 97 47 29 5 39 11 39 26 0 32 -31 39 -116 29 -156 -19 -230 -30 -274 -39
-25 -5 -74 -15 -110 -21 -36 -6 -87 -18 -115 -25 -151 -43 -266 -80 -317 -102
-31 -14 -63 -23 -71 -20 -8 3 -17 20 -20 39 -10 63 -80 331 -127 483 -10 33
-26 94 -36 135 -9 41 -25 101 -35 133 -13 41 -16 64 -9 82 9 23 15 25 72 26
127 2 399 26 498 44 41 7 111 19 155 25 44 6 98 16 120 22 22 6 50 12 62 14
74 9 90 52 99 274 5 122 11 165 27 203 11 26 25 46 31 44 7 -2 12 -66 13 -188z
m1278 109 c2 -13 9 -90 15 -173 16 -219 20 -267 27 -295 3 -14 7 -56 9 -95 2
-38 8 -115 14 -170 6 -55 15 -149 20 -210 14 -165 27 -281 34 -303 12 -38 -15
-46 -249 -77 -60 -7 -146 -17 -190 -21 -179 -15 -326 -55 -415 -113 -8 -6 -33
-18 -55 -28 -22 -9 -62 -30 -88 -45 -26 -15 -52 -28 -57 -28 -5 0 -33 -11 -62
-23 -29 -13 -69 -30 -88 -37 -19 -7 -41 -18 -48 -23 -8 -6 -16 -7 -22 -1 -5 5
3 27 22 54 16 25 39 63 49 85 11 22 31 60 46 85 61 103 68 116 143 275 11 22
26 51 34 65 15 25 99 193 120 239 17 38 208 416 261 516 26 50 55 99 66 111
10 11 19 27 19 35 0 9 10 25 23 36 24 21 151 83 172 83 7 0 23 8 36 19 13 10
42 24 64 31 22 7 44 16 50 21 17 17 45 9 50 -13z m-519 -2111 c3 -8 -2 -34
-10 -58 -7 -24 -17 -73 -21 -109 -3 -36 -15 -103 -25 -150 -10 -47 -23 -128
-29 -180 -6 -52 -18 -129 -26 -170 -8 -41 -19 -104 -25 -140 -7 -36 -17 -71
-22 -77 -13 -16 -69 -16 -133 1 -59 15 -64 29 -45 135 10 54 16 227 20 547 l0
42 83 7 c129 10 176 31 163 73 -6 17 -21 20 -119 28 -62 5 -112 13 -112 19 0
6 34 13 75 17 60 6 171 20 213 27 4 0 10 -5 13 -12z"/>
<path d="M1837 7782 c-10 -10 -17 -28 -17 -41 0 -31 -25 -37 -66 -15 l-35 19
-37 -43 c-20 -23 -41 -42 -47 -42 -5 0 -23 16 -38 35 -23 29 -34 35 -66 35
-53 0 -66 -35 -36 -94 8 -15 15 -32 15 -36 0 -13 70 -130 102 -171 31 -40 72
-57 94 -38 8 6 20 32 28 58 7 25 19 47 27 49 8 1 24 -16 37 -38 18 -32 28 -40
51 -40 22 0 31 8 49 44 19 38 22 60 22 173 0 113 -2 132 -18 146 -24 22 -45
21 -65 -1z"/>
<path d="M1134 7660 c-21 -16 -44 -30 -51 -30 -15 0 -33 -63 -33 -117 0 -43
17 -93 32 -93 4 0 8 -7 8 -15 0 -21 99 -82 152 -95 157 -36 225 9 233 154 5
92 -18 140 -89 191 -47 33 -54 35 -131 35 -75 0 -85 -2 -121 -30z"/>
<path d="M855 7579 c-9 -17 -17 -44 -17 -61 -1 -32 -35 -62 -59 -53 -8 3 -24
25 -34 48 -16 34 -28 45 -62 56 -47 17 -73 5 -73 -32 0 -23 54 -206 77 -259
16 -38 61 -68 102 -68 21 0 51 53 51 90 0 10 7 23 15 30 19 16 49 -8 74 -60
17 -36 54 -62 77 -53 23 8 25 38 9 104 -9 35 -23 98 -31 139 -18 94 -32 128
-55 140 -33 18 -58 11 -74 -21z"/>
<path d="M1463 7190 c-41 -17 -77 -86 -81 -154 -5 -76 18 -128 73 -171 32 -23
46 -27 102 -27 66 0 111 16 161 57 37 31 42 55 25 126 -16 69 -41 104 -107
146 -43 28 -135 40 -173 23z"/>
<path d="M1133 7122 c-45 -12 -65 -23 -77 -42 -18 -32 -12 -43 36 -63 39 -16
69 -62 82 -124 4 -17 14 -37 23 -44 8 -7 19 -23 24 -36 11 -30 39 -29 72 1
l26 24 -20 63 c-27 90 -25 136 6 161 26 20 30 34 17 54 -13 20 -122 24 -189 6z"/>
<path d="M1895 6753 c-16 -8 -42 -27 -58 -41 -29 -28 -85 -34 -112 -12 -22 18
-59 8 -72 -22 -17 -33 -10 -49 28 -70 29 -17 30 -19 23 -70 -4 -29 -10 -57
-14 -63 -16 -22 -22 -77 -10 -105 22 -52 80 -48 80 6 0 31 33 64 65 64 13 0
58 -16 99 -35 113 -53 152 -46 142 24 -6 46 -20 64 -87 109 -70 47 -72 50 -48
113 31 82 32 88 19 104 -15 18 -17 18 -55 -2z"/>
<path d="M1413 6664 c-3 -9 -3 -58 0 -109 10 -142 66 -255 128 -255 40 0 55
31 40 82 -7 21 -10 42 -7 47 3 4 -3 23 -13 42 -9 19 -28 63 -41 99 -31 87 -90
139 -107 94z"/>
<path d="M1195 6643 c-19 -4 -54 -19 -115 -47 -29 -14 -29 -22 -2 -121 46
-170 75 -245 93 -245 9 0 24 -3 32 -6 24 -9 44 22 58 91 12 61 16 68 46 80 62
26 31 95 -43 95 -37 0 -60 20 -42 38 7 7 17 12 23 12 16 0 45 33 45 52 0 19
-42 58 -61 57 -8 -1 -23 -3 -34 -6z"/>
<path d="M1840 6138 c-36 -11 -78 -22 -93 -23 -33 -2 -47 -19 -47 -55 1 -34
20 -56 57 -64 42 -9 55 -27 87 -119 29 -79 53 -107 93 -107 40 0 62 73 33 115
-3 6 -14 31 -24 57 l-18 48 45 53 c52 60 50 78 -9 103 -41 17 -44 17 -124 -8z"/>
<path d="M1507 6083 c-9 -18 -11 -36 -6 -48 4 -11 8 -38 8 -60 1 -26 16 -70
45 -125 36 -72 47 -85 70 -88 40 -5 57 14 51 57 -15 95 -29 150 -53 196 -48
96 -89 120 -115 68z"/>
<path d="M6535 2760 c-38 -19 -45 -51 -44 -206 1 -75 -4 -130 -11 -144 -6 -12
-32 -31 -58 -42 -40 -17 -77 -21 -242 -27 -184 -7 -240 -16 -240 -40 0 -43
139 -51 305 -18 128 25 169 22 178 -13 3 -11 0 -55 -5 -100 -10 -76 -12 -81
-45 -101 -22 -14 -58 -23 -99 -27 -77 -6 -101 -25 -52 -41 18 -5 49 -13 68
-16 71 -13 74 -20 61 -143 -10 -93 -9 -113 4 -138 8 -16 15 -35 15 -41 0 -17
-41 -26 -88 -21 -20 3 -48 1 -61 -4 -23 -8 -24 -11 -17 -79 13 -143 -6 -138
507 -140 335 -1 413 1 420 12 12 20 -1 28 -72 46 -49 12 -144 17 -418 22 -249
4 -355 9 -358 17 -2 6 4 15 14 19 10 4 173 11 363 15 l345 8 52 -26 c50 -25
53 -25 72 -8 48 44 62 118 41 226 -11 59 2 162 24 192 16 22 77 48 111 48 25
0 44 24 31 38 -4 4 -30 7 -57 8 -70 1 -83 17 -69 80 6 26 16 51 21 55 6 3 73
7 149 8 76 1 154 6 172 12 18 5 49 9 68 9 80 0 141 36 93 54 -9 4 -89 2 -177
-5 -165 -11 -245 -8 -291 13 -31 14 -31 33 6 163 30 109 37 250 13 276 -9 10
-25 19 -35 19 -10 0 -20 4 -24 9 -15 25 -155 41 -395 43 -202 3 -250 0 -275
-12z m450 -485 l99 -2 8 -28 c19 -74 -31 -88 -310 -90 -160 -1 -215 2 -223 11
-24 30 28 100 86 115 16 5 77 6 135 2 58 -3 150 -7 205 -8z m68 -222 c10 -6 1
-182 -15 -290 -10 -69 -11 -71 -42 -77 -44 -8 -517 -29 -523 -23 -4 5 42 338
54 386 l6 24 255 -7 c141 -4 260 -10 265 -13z"/>
<path d="M4441 2275 c-32 -47 -35 -60 -50 -215 -10 -107 -32 -149 -135 -252
-33 -33 -186 -139 -307 -213 -48 -29 -66 -65 -50 -102 6 -16 25 -37 42 -47 28
-17 32 -17 92 3 35 12 87 37 116 56 29 19 55 35 58 35 13 0 142 101 191 150
102 101 125 189 120 457 -3 162 -4 168 -25 171 -15 2 -29 -9 -52 -43z"/>
<path d="M1108 1473 c-10 -2 -18 -14 -18 -25 0 -12 -10 -53 -22 -92 -20 -63
-22 -93 -22 -261 0 -206 12 -293 46 -327 19 -19 29 -20 131 -15 71 4 115 10
123 19 15 16 41 655 28 667 -11 10 -191 41 -225 40 -13 -1 -32 -3 -41 -6z
m133 -358 c-2 -163 -6 -224 -16 -234 -35 -36 -55 35 -55 191 0 64 5 140 11
170 6 29 13 63 15 76 4 17 10 22 27 20 l22 -3 -4 -220z"/>
<path d="M6810 8288 c-40 -11 -84 -42 -126 -89 -16 -17 -37 -39 -47 -48 -10
-9 -29 -41 -44 -71 -14 -30 -33 -64 -43 -75 -10 -11 -20 -36 -23 -55 -16 -105
-49 -183 -92 -213 -27 -20 -46 -22 -202 -27 -94 -3 -175 -9 -179 -13 -13 -13
11 -42 37 -45 42 -4 113 -25 127 -36 8 -6 69 -10 142 -11 118 0 131 2 157 22
34 27 70 48 100 57 18 6 36 -6 101 -71 77 -77 161 -152 255 -227 40 -33 47
-44 47 -74 0 -54 -46 -136 -91 -162 -21 -11 -44 -29 -51 -39 -7 -10 -39 -33
-71 -50 -70 -38 -244 -111 -264 -111 -19 0 -93 -38 -93 -49 0 -16 36 -39 110
-72 75 -33 75 -33 240 -33 180 0 189 3 365 85 157 74 315 235 381 387 26 60
54 155 54 184 0 41 18 69 66 108 24 19 59 48 77 63 17 16 42 36 54 44 28 18
48 81 39 118 -9 34 -77 99 -133 126 -24 12 -50 34 -58 49 -10 20 -29 33 -65
45 -27 9 -52 21 -56 26 -11 19 -80 40 -112 35 -39 -6 -112 -75 -132 -124 -9
-24 -11 -60 -7 -128 6 -83 5 -94 -10 -94 -16 0 -107 38 -153 65 -14 8 -43 24
-65 36 -22 12 -76 49 -120 83 -44 34 -99 74 -122 89 -45 29 -53 47 -28 67 26
22 104 155 111 189 10 49 -9 58 -76 39z m-47 -435 c52 -32 165 -123 191 -152
11 -12 44 -35 73 -52 57 -33 63 -43 34 -58 -14 -8 -25 -6 -43 8 -31 25 -110
73 -173 107 -96 51 -155 111 -155 159 0 22 25 18 73 -12z"/>
<path d="M4453 6949 c-24 -17 -43 -34 -43 -39 0 -4 17 -15 38 -23 32 -13 46
-13 102 -1 76 15 86 10 100 -52 19 -82 14 -107 -35 -155 -59 -58 -100 -79
-155 -79 -50 0 -90 -22 -90 -49 0 -21 26 -46 56 -53 34 -8 133 11 162 31 100
69 184 118 227 133 27 9 51 21 53 27 5 14 -39 30 -75 28 -28 -2 -28 -2 -34 71
-4 50 -12 81 -25 100 -31 41 -110 79 -179 85 -55 5 -64 3 -102 -24z"/>
<path d="M3237 6533 c-12 -12 -7 -54 9 -82 36 -61 122 -99 244 -107 122 -8
320 36 320 71 0 20 -20 23 -227 29 -195 5 -209 8 -284 67 -38 30 -51 34 -62
22z"/>
<path d="M653 4138 c-12 -15 -33 -166 -33 -243 0 -27 -4 -56 -9 -63 -6 -11
-61 -13 -255 -13 -136 0 -251 3 -255 5 -4 3 -15 0 -24 -7 -13 -10 -16 -57 -22
-332 -3 -176 -10 -360 -16 -410 -5 -49 -10 -139 -10 -200 0 -60 -4 -175 -10
-255 -17 -246 -10 -783 10 -803 5 -5 76 -10 158 -11 146 -1 148 -1 151 22 4
25 8 24 -77 28 -35 1 -77 8 -93 15 l-29 12 5 291 c3 160 6 489 8 731 2 448 16
777 34 795 6 6 107 12 234 15 283 7 260 5 291 17 46 16 63 73 64 206 0 65 4
123 8 130 14 21 91 15 113 -9 17 -19 19 -38 20 -158 0 -75 1 -141 2 -147 3
-15 86 -38 112 -31 36 9 78 -12 84 -41 2 -15 5 -173 5 -352 0 -179 0 -328 0
-332 2 -17 41 -28 59 -17 17 10 19 29 22 163 2 83 3 239 4 346 l0 195 -30 50
c-28 47 -33 50 -75 53 -54 3 -87 19 -95 46 -4 11 -8 73 -9 138 -2 124 -6 138
-54 162 -37 19 -274 22 -288 4z"/>
<path d="M346 3315 c-9 -10 -16 -58 -21 -164 -7 -146 -6 -151 18 -205 36 -78
79 -84 124 -19 32 47 43 105 43 235 0 147 -3 152 -93 161 -41 4 -61 2 -71 -8z"/>
<path d="M313 2283 c-17 -6 -16 -24 2 -59 11 -21 15 -63 15 -155 0 -70 3 -140
6 -157 10 -51 58 -53 68 -4 13 64 37 355 29 362 -10 10 -104 20 -120 13z"/>
</g>
</svg>
