<?xml version="1.0" standalone="no"?>
<!DOCTYPE svg PUBLIC "-//W3C//DTD SVG 20010904//EN"
 "http://www.w3.org/TR/2001/REC-SVG-20010904/DTD/svg10.dtd">
<svg version="1.0" xmlns="http://www.w3.org/2000/svg"
 width="1763.000000pt" height="905.000000pt" viewBox="0 0 1763.000000 905.000000"
 preserveAspectRatio="xMidYMid meet">
<metadata>
Created by potrace 1.14, written by Peter Selinger 2001-2017
</metadata>
<g transform="translate(0.000000,905.000000) scale(0.100000,-0.100000)"
fill="#000000" stroke="none">
<path d="M13690 9031 c-5 -11 -10 -26 -10 -34 0 -32 -41 -28 -53 5 -3 9 -15
21 -26 27 -29 16 -66 -37 -57 -82 4 -18 11 -77 17 -132 13 -128 17 -145 33
-145 20 0 36 45 36 100 0 52 12 69 35 50 11 -9 15 -37 15 -110 0 -102 10 -127
44 -114 18 7 20 15 35 134 12 98 5 288 -11 307 -16 19 -46 16 -58 -6z"/>
<path d="M13461 9006 c-16 -19 -12 -256 5 -287 12 -22 12 -22 23 16 13 43 32
265 24 278 -7 12 -40 8 -52 -7z"/>
<path d="M10330 8875 c-21 -25 -3 -60 48 -93 27 -17 56 -34 64 -37 42 -16 58
-126 22 -156 -8 -6 -14 -17 -14 -24 0 -16 -83 -118 -132 -163 -21 -19 -38 -39
-38 -44 0 -5 -11 -24 -24 -41 -36 -47 -72 -135 -80 -195 -6 -48 -3 -59 32
-130 46 -92 117 -192 137 -192 27 0 35 -34 21 -86 -21 -77 -50 -124 -132 -210
-118 -123 -134 -153 -134 -243 0 -109 20 -153 107 -237 84 -80 83 -78 59 -234
-19 -120 -16 -157 19 -194 49 -53 109 -19 119 69 3 28 8 96 12 151 6 97 5 105
-20 157 -15 30 -43 69 -62 86 -19 17 -34 37 -33 44 1 25 69 141 120 203 103
128 167 282 155 373 -14 104 -32 136 -104 184 -92 61 -101 74 -104 134 -3 57
0 60 159 223 115 117 127 135 152 205 18 54 21 77 15 123 -13 109 -46 168
-146 263 -70 67 -187 101 -218 64z"/>
<path d="M13558 8510 c-80 -14 -236 -72 -275 -103 -56 -44 -187 -183 -227
-242 l-49 -69 10 -88 c8 -73 15 -93 39 -124 16 -20 34 -45 40 -55 34 -59 115
-119 160 -119 53 0 64 8 64 51 0 43 -20 63 -82 80 -26 7 -43 19 -53 39 -18 35
-20 127 -3 184 14 49 122 187 177 227 22 15 42 32 45 38 3 5 21 13 39 16 17 4
34 11 37 14 9 13 178 41 247 41 60 0 78 -5 138 -37 83 -44 135 -89 135 -119 0
-12 7 -27 15 -34 42 -35 -12 -139 -152 -289 -57 -60 -64 -84 -33 -101 16 -9
36 -2 107 35 99 52 166 112 224 200 48 73 51 121 14 194 -27 54 -133 166 -168
177 -12 4 -33 14 -47 23 -35 23 -122 49 -207 61 -81 11 -127 11 -195 0z"/>
<path d="M13548 8282 c-35 -19 -82 -50 -105 -68 -23 -19 -46 -34 -52 -34 -6 0
-11 -3 -11 -8 0 -4 -13 -22 -30 -40 -71 -78 -76 -142 -20 -252 28 -55 28 -55
35 -320 4 -157 11 -270 17 -277 17 -21 47 -15 53 10 14 62 20 423 8 553 -18
208 -21 190 50 266 70 75 114 98 199 101 76 3 104 -23 113 -103 12 -103 68
-122 80 -27 9 73 -2 135 -30 162 -24 24 -97 49 -187 63 -55 8 -60 7 -120 -26z"/>
<path d="M13709 8164 c-8 -10 -12 -41 -11 -92 2 -42 -2 -120 -8 -172 -24 -215
-30 -458 -15 -567 7 -46 11 -53 30 -53 12 0 27 6 33 13 12 15 21 856 9 875
-11 16 -22 15 -38 -4z"/>
<path d="M13574 8116 c-11 -9 -20 -34 -25 -75 -5 -47 -12 -66 -28 -77 -24 -17
-28 -58 -9 -99 9 -19 9 -40 0 -86 -10 -52 -9 -65 5 -86 13 -20 17 -58 20 -188
4 -183 11 -218 45 -213 18 2 25 12 31 43 10 50 22 724 13 758 -7 31 -28 40
-52 23z"/>
<path d="M11843 7480 c-37 -22 -40 -35 -18 -87 10 -22 17 -82 20 -157 3 -67 7
-136 10 -154 6 -40 45 -109 80 -142 l26 -24 157 17 c115 12 170 14 206 7 82
-17 103 -46 80 -111 -12 -34 -29 -55 -77 -91 -35 -26 -72 -50 -82 -54 -27 -10
-91 -59 -139 -106 -40 -39 -40 -39 -20 -59 19 -19 23 -19 82 -5 33 8 80 26
104 40 24 14 66 36 93 50 28 13 60 33 71 43 66 56 134 232 120 308 -7 35 -51
74 -120 103 -42 19 -203 27 -277 14 -35 -6 -90 -14 -123 -17 l-59 -7 8 29 c22
86 7 241 -31 317 -8 16 -14 37 -14 48 0 21 -34 58 -52 58 -7 0 -28 -9 -45 -20z"/>
<path d="M12022 7449 c-33 -13 -37 -35 -19 -93 10 -28 26 -94 38 -146 11 -52
24 -99 29 -104 14 -14 96 3 115 24 27 29 17 170 -16 235 -35 71 -94 105 -147
84z"/>
<path d="M11640 7400 c-21 -13 -19 -111 4 -175 21 -60 91 -125 136 -125 37 0
42 17 24 87 -8 32 -20 75 -25 96 -11 40 -86 127 -110 127 -8 0 -21 -5 -29 -10z"/>
<path d="M13520 7234 c-149 -19 -253 -64 -291 -128 -12 -20 -30 -36 -47 -40
-34 -7 -60 -30 -94 -83 -15 -23 -43 -57 -61 -76 -33 -32 -34 -37 -38 -118 -8
-200 3 -271 53 -346 28 -41 115 -123 131 -123 5 0 15 -7 23 -15 9 -8 31 -15
50 -15 55 0 44 31 -42 123 -42 45 -82 93 -88 107 -6 14 -19 37 -30 53 -30 44
-25 118 13 178 17 28 31 53 31 55 0 3 18 32 40 64 59 86 157 180 231 220 61
33 68 35 164 34 126 -1 239 -37 283 -90 49 -60 96 -164 96 -214 0 -61 -22
-161 -40 -181 -8 -8 -14 -24 -14 -34 0 -28 -69 -106 -108 -122 -52 -22 -58 -7
-33 76 37 121 27 261 -19 261 -27 0 -60 -35 -60 -64 0 -26 -15 -108 -31 -166
-6 -23 -6 -58 2 -105 13 -83 13 -159 -1 -315 -14 -153 -2 -318 23 -334 14 -9
21 -7 32 7 21 28 28 99 29 297 1 102 5 193 10 204 5 10 37 31 70 47 73 33 113
68 199 174 36 44 75 91 87 104 27 29 41 112 29 175 -13 72 -60 183 -91 218
-15 18 -28 35 -28 38 0 10 -105 77 -133 86 -12 3 -26 10 -32 14 -27 21 -237
43 -315 34z"/>
<path d="M11424 7143 c-6 -5 -17 -25 -25 -45 -10 -31 -11 -49 -1 -96 7 -32 12
-76 12 -98 -1 -36 -5 -42 -60 -81 -33 -24 -64 -43 -68 -43 -5 0 -31 -11 -60
-25 -28 -14 -68 -29 -89 -34 -183 -47 -291 -90 -329 -133 -43 -47 -74 -104
-74 -134 0 -38 24 -123 54 -189 13 -27 29 -65 36 -83 25 -65 93 -80 204 -46
45 13 97 29 116 35 41 12 105 9 105 -6 0 -5 -18 -16 -40 -23 -22 -7 -48 -21
-58 -31 -17 -17 -18 -24 -6 -77 18 -85 39 -121 134 -233 95 -111 105 -131 105
-204 0 -42 -5 -56 -27 -79 -23 -24 -34 -28 -83 -28 -123 0 -202 -47 -215 -128
-3 -20 -13 -52 -21 -70 -8 -18 -14 -59 -14 -91 0 -41 -5 -62 -15 -71 -9 -7
-14 -19 -11 -26 3 -7 0 -28 -5 -46 -13 -42 -38 -158 -47 -223 -12 -84 4 -494
21 -545 8 -25 20 -70 27 -100 19 -87 52 -193 67 -215 7 -11 13 -26 13 -34 0
-38 171 -351 192 -351 4 0 16 -17 27 -37 20 -41 77 -103 154 -169 44 -39 64
-84 36 -84 -6 0 -26 -16 -45 -35 -18 -19 -38 -35 -42 -35 -11 0 -152 -138
-152 -149 0 -4 -8 -12 -19 -17 -26 -12 -148 -157 -205 -243 -26 -39 -52 -73
-57 -77 -6 -3 -21 -31 -35 -62 -14 -31 -29 -59 -33 -62 -20 -12 -126 -305
-152 -420 -26 -116 -27 -126 -12 -151 24 -40 91 -69 197 -85 82 -12 144 -27
147 -36 0 -2 3 -68 5 -148 6 -189 21 -343 39 -383 8 -18 17 -45 20 -61 6 -26
8 -28 43 -22 20 4 91 9 157 12 138 7 261 -12 335 -49 38 -20 45 -28 45 -53 l0
-29 -135 3 c-108 2 -153 -1 -225 -18 -49 -11 -108 -24 -129 -29 -22 -5 -45
-15 -50 -23 -6 -7 -40 -28 -76 -47 -36 -19 -77 -42 -92 -53 -14 -10 -33 -18
-42 -18 -9 0 -22 -11 -28 -25 -6 -14 -19 -25 -29 -25 -9 0 -19 -3 -21 -7 -5
-12 -159 -147 -188 -166 -18 -12 -79 -21 -217 -32 -106 -8 -203 -19 -215 -24
-13 -4 -57 -11 -98 -15 -41 -4 -106 -18 -145 -30 -38 -13 -108 -34 -155 -47
-47 -13 -119 -43 -160 -66 -41 -24 -81 -43 -88 -43 -27 0 -70 -31 -132 -94
-36 -37 -67 -72 -69 -79 -2 -7 -14 -23 -26 -37 -56 -63 -127 -259 -101 -278 6
-4 61 -6 121 -4 108 4 111 4 123 30 6 14 12 30 12 35 0 15 33 81 57 113 13 17
23 35 23 41 0 5 16 18 35 29 19 10 35 22 35 27 0 4 19 17 43 28 23 11 69 34
102 51 33 17 76 34 95 38 19 4 67 22 105 38 91 40 221 69 370 82 66 6 143 15
170 19 28 5 122 9 210 10 545 5 881 12 960 20 66 7 94 6 106 -2 9 -7 42 -32
74 -57 32 -25 71 -53 88 -63 16 -10 50 -34 75 -52 25 -19 51 -35 58 -35 7 0
26 -11 42 -25 17 -14 34 -25 39 -25 5 0 30 -13 56 -30 26 -16 52 -30 58 -30 6
0 29 -8 52 -19 203 -91 396 -152 612 -192 130 -24 841 -11 885 16 4 2 38 9 76
15 63 10 185 52 209 72 5 4 18 8 29 8 11 0 38 8 60 19 23 10 60 26 82 34 129
49 319 206 513 425 30 33 164 248 198 317 97 197 171 448 199 677 18 141 14
556 -6 668 -6 36 -15 88 -19 115 -10 65 -36 164 -77 295 -17 58 -37 130 -44
162 -9 47 -20 66 -70 121 -40 43 -78 73 -117 92 -51 24 -191 57 -308 72 -22 2
-51 8 -65 13 -14 4 -43 13 -65 19 -22 6 -71 20 -110 31 -105 31 -208 50 -320
56 -111 7 -326 -10 -395 -31 -25 -7 -75 -19 -112 -25 -37 -7 -73 -18 -79 -26
-6 -8 -16 -14 -21 -14 -5 0 -39 -13 -75 -30 -35 -16 -70 -30 -76 -30 -7 0 -34
-14 -62 -30 -27 -16 -68 -38 -89 -50 -22 -12 -46 -29 -54 -36 -7 -8 -18 -14
-23 -14 -5 0 -43 -23 -83 -50 -40 -27 -76 -50 -80 -50 -8 0 -67 -52 -117 -103
-21 -20 -42 -37 -47 -37 -9 0 -83 -70 -148 -141 -49 -53 -129 -126 -153 -138
-11 -7 -21 -18 -21 -26 0 -8 -15 -30 -32 -50 -18 -19 -52 -56 -75 -82 -24 -27
-68 -75 -98 -108 -30 -32 -55 -62 -55 -66 0 -4 -6 -14 -14 -22 -8 -7 -29 -38
-47 -68 -19 -30 -43 -69 -55 -87 -13 -18 -25 -46 -29 -62 -4 -17 -14 -36 -24
-42 -17 -13 -72 -120 -86 -168 -4 -14 -16 -36 -26 -49 -11 -13 -19 -32 -19
-41 0 -10 -7 -23 -15 -30 -8 -6 -17 -22 -21 -33 -4 -12 -19 -40 -35 -62 -15
-22 -31 -52 -35 -68 -8 -33 -20 -42 -38 -28 -37 31 -171 58 -426 88 l-65 8 -8
175 c-4 96 -9 209 -10 250 -5 117 -43 166 -136 175 -20 2 -72 7 -116 11 -107
9 -128 18 -119 47 8 26 40 102 59 137 11 21 33 75 77 192 5 15 18 34 29 44 10
9 19 23 19 31 0 7 5 13 10 13 6 0 10 4 10 9 0 7 63 114 103 174 34 52 190 213
251 260 16 12 45 36 65 53 54 45 218 145 301 183 25 12 53 26 63 31 51 30 282
106 422 139 185 44 517 69 592 44 23 -8 45 -22 49 -31 4 -9 12 -70 19 -134 9
-88 16 -123 30 -138 20 -22 45 -26 61 -10 5 5 49 23 97 39 48 17 99 39 114 50
14 12 31 21 38 21 7 0 32 16 55 35 23 19 46 35 50 35 5 0 12 10 15 22 10 28
-28 57 -75 58 -19 0 -77 -16 -128 -37 -111 -44 -124 -40 -132 33 -12 115 -86
170 -293 220 -39 9 -46 33 -16 56 65 51 159 143 165 161 3 11 1 29 -5 41 -6
11 -26 64 -45 116 -75 212 -85 228 -126 202 -40 -25 -106 -12 -217 42 -66 33
-122 41 -166 27 -19 -7 -46 -9 -60 -6 -22 6 -27 16 -41 78 -9 40 -21 122 -26
182 -6 61 -15 148 -21 195 -6 47 -14 130 -18 185 -4 55 -20 188 -34 295 -43
311 -50 394 -44 472 6 82 21 123 67 186 17 24 33 55 35 70 10 78 18 92 112
213 96 123 123 178 123 252 0 54 -25 122 -54 146 -12 10 -23 10 -50 1 -20 -6
-38 -15 -41 -19 -2 -5 -6 -42 -9 -82 -4 -87 -20 -152 -41 -169 -8 -7 -15 -20
-15 -30 0 -10 -7 -23 -15 -30 -8 -7 -27 -34 -42 -61 -14 -27 -30 -49 -34 -49
-9 0 -108 -131 -129 -170 -7 -14 -19 -29 -26 -35 -18 -14 -45 -159 -42 -219
l3 -48 -74 -30 c-65 -26 -86 -30 -169 -29 -122 0 -129 3 -143 54 -15 59 -74
165 -115 208 -41 42 -54 83 -54 164 0 102 38 194 95 234 39 26 60 27 92 1 33
-26 89 -36 108 -20 29 24 9 189 -50 424 -14 54 -25 105 -25 112 0 7 -16 46
-36 88 -45 97 -53 142 -28 150 38 11 100 9 125 -5 32 -17 95 -91 105 -122 3
-12 14 -31 23 -42 44 -50 84 -207 97 -377 6 -85 16 -96 73 -83 53 11 63 34 63
137 0 101 -11 178 -37 248 -9 25 -23 66 -31 92 -8 26 -25 60 -37 75 -13 15
-29 43 -37 61 -21 52 -183 134 -315 158 -38 7 -83 15 -100 19 -16 3 -35 2 -41
-2z m23 -504 c7 -13 13 -37 13 -53 0 -17 7 -58 16 -94 9 -35 14 -65 12 -68 -3
-2 -36 -11 -74 -20 -86 -21 -219 -61 -245 -75 -11 -5 -72 -21 -136 -35 -117
-24 -143 -22 -143 11 0 6 -11 34 -25 61 -14 27 -25 52 -25 56 0 9 139 88 155
88 7 0 26 7 42 15 26 13 145 59 308 118 39 14 75 25 80 23 6 -1 16 -13 22 -27z
m556 -5618 c7 -7 2 -28 -15 -63 -14 -29 -34 -81 -44 -116 -13 -43 -25 -64 -39
-69 -28 -9 -761 -4 -914 7 -2 0 3 8 12 18 9 9 20 27 24 38 4 12 39 46 77 76
57 46 85 60 161 83 50 15 116 30 146 34 82 10 581 3 592 -8z"/>
<path d="M13560 6998 c-25 -6 -57 -19 -72 -29 -14 -10 -29 -19 -32 -19 -32 0
-164 -126 -172 -164 -4 -17 -13 -40 -21 -52 -21 -32 -12 -142 12 -160 11 -8
24 -13 30 -11 19 7 35 52 35 105 0 51 2 56 57 113 31 32 62 59 69 59 7 0 21 8
31 19 28 29 110 51 188 51 72 0 72 0 117 -45 67 -66 86 -60 66 24 -7 30 -22
60 -38 76 -42 41 -167 56 -270 33z"/>
<path d="M13531 6738 c-10 -28 -19 -117 -26 -263 -3 -55 -10 -145 -16 -200
-11 -101 -22 -296 -21 -370 1 -22 -5 -119 -13 -215 -7 -96 -11 -188 -8 -203 6
-30 -5 -76 -38 -162 -10 -28 -19 -64 -19 -81 0 -19 -9 -41 -24 -57 -14 -15
-36 -41 -50 -59 -44 -57 -132 -148 -144 -148 -6 0 -18 -15 -27 -32 -8 -18 -30
-49 -48 -68 -45 -49 -73 -91 -92 -136 -9 -21 -24 -48 -34 -59 -10 -11 -21 -33
-25 -49 -4 -15 -15 -40 -26 -55 -10 -15 -21 -53 -25 -88 -3 -35 -12 -78 -20
-97 -28 -66 -18 -246 16 -313 11 -21 19 -46 19 -58 1 -32 46 -154 74 -195 38
-58 168 -200 183 -200 8 0 26 -12 40 -26 43 -44 208 -114 267 -114 12 0 41 -8
66 -17 69 -24 273 -34 333 -15 58 18 80 48 45 61 -13 4 -70 12 -128 16 -111 7
-294 37 -372 60 -48 14 -129 65 -187 117 -35 33 -161 219 -161 240 0 7 -9 39
-20 70 -15 45 -17 68 -11 105 15 83 51 257 61 288 5 17 18 61 30 99 24 78 62
164 97 215 42 62 122 139 158 152 30 11 37 11 56 -7 32 -29 39 -48 29 -82 -7
-28 -91 -148 -113 -163 -15 -10 -20 -115 -8 -165 16 -64 37 -88 107 -120 49
-23 74 -28 150 -29 50 -1 97 -6 104 -10 15 -9 60 -104 60 -127 0 -10 6 -32 14
-50 8 -18 18 -46 21 -62 8 -38 132 -161 220 -217 72 -46 163 -78 297 -103 81
-15 102 -10 112 29 8 31 14 31 93 0 73 -30 104 -26 134 16 28 39 13 65 -43 73
-24 4 -59 17 -79 29 -45 28 -109 84 -109 95 0 5 -7 15 -16 22 -20 18 -41 68
-60 149 -12 49 -16 119 -16 271 0 294 -26 425 -84 425 -16 0 -19 -8 -20 -55 0
-35 -14 -94 -36 -160 -66 -195 -72 -289 -27 -423 32 -95 93 -210 145 -273 35
-44 60 -91 52 -99 -8 -9 -132 32 -183 61 -96 53 -175 126 -239 221 -67 100
-95 278 -90 573 1 109 -1 138 -13 152 -14 16 -18 16 -54 -2 -42 -22 -113 -26
-171 -10 -52 15 -113 87 -128 151 -14 57 -6 162 17 224 15 41 44 135 67 215 7
27 18 45 27 45 11 0 15 -22 19 -100 3 -65 11 -113 23 -137 9 -21 17 -45 17
-54 0 -24 137 -156 184 -178 21 -10 53 -19 70 -20 29 -1 31 2 34 37 3 33 -2
43 -36 75 -21 20 -57 50 -80 65 -30 20 -42 35 -42 52 0 26 42 71 75 82 11 3
36 16 55 29 19 13 100 48 180 79 115 45 158 57 207 58 57 2 65 -1 95 -29 60
-57 149 -56 193 2 22 29 29 48 34 95 1 10 165 9 181 -1 12 -7 10 -16 -10 -60
-28 -59 -20 -76 32 -66 32 6 66 34 148 121 32 34 38 36 80 32 66 -6 369 -81
410 -102 14 -6 46 -18 72 -25 26 -7 53 -19 59 -26 6 -8 17 -14 24 -14 7 0 23
-8 36 -18 13 -11 37 -22 53 -26 53 -13 220 -151 304 -251 13 -16 32 -44 42
-65 10 -20 26 -42 34 -49 9 -8 16 -19 16 -26 0 -6 16 -52 36 -101 85 -215 108
-362 89 -566 -17 -174 -30 -221 -96 -349 -27 -54 -49 -104 -49 -113 0 -8 -9
-20 -20 -26 -11 -6 -20 -16 -20 -22 0 -14 -102 -140 -166 -204 -42 -42 -82
-77 -180 -153 -5 -4 -26 -13 -46 -20 -19 -6 -57 -27 -84 -46 -27 -19 -52 -35
-56 -35 -4 0 -40 -15 -80 -34 -40 -18 -89 -37 -108 -41 -19 -4 -42 -13 -50
-21 -9 -7 -51 -29 -93 -49 -75 -35 -96 -59 -62 -71 37 -15 272 49 365 99 25
13 81 38 125 56 74 31 149 82 285 195 30 25 78 64 107 86 29 22 56 46 60 53 8
13 57 73 116 139 15 18 27 35 27 39 0 4 6 14 13 21 19 21 77 118 77 131 0 6 9
29 20 51 40 84 80 315 74 434 -7 155 -15 238 -30 297 -29 116 -70 233 -97 280
-9 17 -32 58 -50 92 -32 61 -122 186 -169 233 -80 81 -188 170 -206 170 -6 0
-32 20 -60 45 -27 25 -56 45 -63 45 -7 0 -72 29 -144 65 -72 35 -149 68 -171
74 -21 5 -91 28 -154 50 -63 23 -123 41 -132 41 -24 0 -46 37 -50 85 -5 52
-14 65 -43 65 -33 0 -52 -22 -60 -70 -11 -62 -30 -70 -259 -101 -273 -37 -382
-56 -441 -75 -79 -25 -154 -44 -174 -44 -23 0 -118 -42 -146 -64 -71 -57 -152
-98 -201 -103 -51 -6 -52 -5 -76 31 -22 36 -25 37 -66 32 -33 -4 -46 -2 -60
12 -16 16 -17 28 -10 98 34 346 40 464 42 764 1 302 0 325 -16 328 -12 2 -21
-5 -27 -20z"/>
<path d="M13401 6676 c-27 -29 -47 -134 -42 -226 8 -134 3 -230 -18 -340 -37
-199 -39 -275 -10 -324 21 -36 56 -49 64 -23 2 6 6 75 8 152 3 77 12 217 21
310 20 218 34 446 28 463 -7 19 -26 14 -51 -12z"/>
<path d="M10612 6450 c-26 -24 -28 -52 -7 -110 8 -23 15 -64 15 -90 0 -44 4
-51 42 -84 68 -59 147 -42 113 24 -7 14 -16 41 -20 60 -4 19 -11 40 -15 45 -4
6 -16 36 -26 68 -17 55 -52 107 -72 107 -4 0 -18 -9 -30 -20z"/>
<path d="M10455 6396 c-17 -12 -19 -25 -16 -92 2 -77 4 -80 44 -124 67 -73 85
-84 116 -73 22 8 26 14 24 45 -1 20 -11 51 -23 70 -11 18 -20 41 -20 51 0 10
-14 44 -30 77 -32 64 -55 75 -95 46z"/>
<path d="M14131 5359 c-24 -5 -54 -15 -67 -24 -13 -8 -29 -15 -35 -15 -7 0
-32 -21 -57 -47 -39 -43 -43 -51 -37 -83 7 -37 11 -43 59 -100 43 -51 97 -79
221 -112 61 -17 122 -37 138 -46 29 -18 59 -9 65 19 8 41 -154 159 -218 159
-29 0 -80 40 -80 62 0 11 10 20 25 24 35 9 139 -2 205 -20 32 -9 92 -16 146
-16 78 0 96 3 125 23 28 19 35 30 37 64 4 54 -15 73 -76 73 -26 0 -114 11
-196 25 -159 26 -185 28 -255 14z"/>
<path d="M15097 5202 c-38 -42 -10 -92 51 -92 118 0 195 -80 253 -263 12 -40
29 -82 37 -95 9 -13 22 -38 31 -55 19 -38 59 -47 96 -23 l23 15 -19 41 c-14
30 -19 62 -20 127 0 128 -15 178 -67 230 -83 81 -204 133 -312 133 -42 0 -61
-5 -73 -18z"/>
<path d="M8245 5015 c-22 -13 -50 -29 -62 -34 -33 -15 -123 -115 -181 -201
-39 -58 -102 -182 -102 -200 0 -6 -9 -28 -20 -50 -11 -22 -20 -50 -20 -63 0
-12 -4 -27 -9 -32 -4 -6 -20 -50 -35 -100 -15 -49 -32 -103 -38 -120 -5 -16
-13 -43 -17 -60 -4 -16 -15 -44 -24 -62 -10 -18 -17 -38 -17 -45 0 -7 -16 -33
-35 -57 -19 -24 -35 -47 -35 -50 0 -4 -13 -15 -30 -24 -16 -10 -30 -24 -30
-32 0 -8 -8 -19 -18 -24 -25 -13 -272 -259 -272 -271 0 -4 -11 -21 -24 -37
-34 -41 -73 -139 -78 -202 -4 -44 -2 -57 17 -79 44 -51 100 2 178 168 19 41
44 86 56 99 11 13 21 29 21 35 0 12 60 56 76 56 18 0 163 148 198 203 41 64
109 206 173 362 12 28 33 78 47 111 14 34 26 68 26 77 0 8 6 20 14 26 8 6 24
35 36 64 12 28 39 79 60 113 20 34 40 73 44 87 6 26 87 133 118 155 10 7 18
20 18 28 0 8 4 14 9 14 15 0 35 62 33 99 -2 20 -11 44 -20 53 -16 16 -19 16
-57 -7z"/>
<path d="M8706 4918 c-9 -12 -16 -27 -16 -31 0 -5 -57 -67 -127 -137 -145
-143 -186 -188 -228 -245 -17 -22 -35 -44 -42 -50 -23 -20 -83 -105 -83 -119
0 -7 -16 -30 -35 -50 -19 -21 -35 -42 -35 -47 0 -5 -13 -28 -30 -51 -16 -22
-30 -47 -30 -53 0 -7 -16 -36 -36 -65 -19 -28 -42 -70 -50 -91 -7 -22 -25 -61
-39 -87 -13 -26 -41 -90 -60 -142 -20 -52 -43 -108 -50 -123 -8 -16 -15 -37
-15 -48 0 -11 -8 -36 -19 -57 -20 -41 -36 -138 -26 -165 9 -23 73 -34 90 -16
7 8 37 61 67 119 31 58 68 128 83 155 15 28 48 88 72 135 46 88 121 212 159
265 11 17 34 55 49 85 16 30 46 76 67 102 21 26 38 52 38 58 0 7 11 26 26 44
50 61 90 114 129 171 22 32 59 80 83 105 23 26 59 70 80 98 20 28 63 79 95
115 70 79 73 101 15 127 -60 27 -113 26 -132 -2z"/>
<path d="M14845 4796 c-61 -28 -94 -90 -76 -139 10 -26 69 -47 133 -47 47 0
97 44 104 90 11 74 -85 130 -161 96z"/>
<path d="M16540 4213 c-71 -4 -97 -19 -121 -65 -23 -46 -24 -96 -3 -127 16
-22 21 -23 94 -17 78 6 234 -15 255 -35 5 -5 17 -9 27 -9 24 0 186 -78 217
-104 86 -73 149 -148 175 -207 90 -205 133 -422 138 -687 2 -132 2 -133 -25
-157 -15 -15 -28 -40 -32 -62 -3 -21 -15 -72 -26 -114 -11 -41 -24 -104 -29
-140 -5 -35 -15 -84 -23 -109 -54 -160 -113 -317 -148 -390 -23 -47 -60 -123
-82 -170 -22 -47 -44 -92 -48 -100 -65 -128 -83 -162 -109 -200 -16 -25 -30
-50 -30 -56 0 -6 -25 -49 -55 -94 -30 -45 -55 -87 -55 -93 0 -6 -11 -25 -25
-43 -14 -18 -25 -41 -25 -52 0 -10 -11 -29 -25 -42 -15 -14 -25 -35 -25 -51 0
-15 -7 -34 -15 -43 -8 -8 -15 -17 -15 -20 0 -3 -11 -17 -25 -32 -14 -15 -28
-39 -31 -53 -6 -24 -27 -62 -74 -132 -10 -14 -32 -53 -49 -87 -17 -34 -35 -62
-40 -62 -5 0 -16 -18 -24 -39 -9 -22 -21 -42 -27 -46 -6 -4 -21 -28 -34 -53
-12 -26 -53 -99 -89 -162 -65 -112 -77 -143 -58 -154 5 -4 40 0 78 8 68 14 68
15 168 119 108 113 185 202 185 213 0 3 12 21 28 39 15 18 37 48 50 67 13 18
60 86 105 150 79 113 150 221 192 292 11 19 41 69 67 113 25 43 56 94 67 113
20 33 30 54 54 110 6 14 18 33 25 42 41 49 201 386 254 533 6 17 30 82 53 145
62 172 66 183 75 215 5 17 20 64 34 105 77 222 93 292 105 445 6 83 11 179 11
214 0 135 -49 346 -100 438 -17 29 -30 60 -30 68 0 8 -4 15 -9 15 -5 0 -20 17
-32 38 -59 97 -279 342 -308 342 -5 0 -23 11 -40 25 -41 35 -167 99 -243 123
-71 23 -190 43 -240 40 -18 -1 -58 -3 -88 -5z"/>
<path d="M8338 4059 c-8 -22 9 -45 49 -67 83 -43 200 -117 373 -235 14 -10 50
-34 80 -54 30 -20 57 -39 60 -43 3 -4 28 -24 55 -45 28 -20 65 -53 83 -71 18
-19 39 -34 46 -34 15 0 64 -39 99 -77 11 -13 25 -23 30 -23 9 0 26 -13 132
-106 28 -23 70 -59 95 -80 25 -20 49 -42 53 -50 4 -8 13 -14 18 -14 6 0 41
-29 77 -64 84 -81 81 -79 151 -151 31 -33 85 -86 119 -117 34 -31 62 -61 62
-66 0 -4 10 -17 23 -29 12 -11 40 -41 62 -68 22 -26 77 -86 122 -133 45 -47
89 -103 99 -124 9 -20 25 -40 34 -43 16 -5 90 -108 90 -125 0 -4 7 -13 15 -20
18 -15 68 -88 91 -133 9 -18 20 -34 23 -37 14 -11 87 -117 103 -150 21 -42 36
-66 63 -100 11 -15 44 -73 73 -131 89 -173 104 -198 123 -204 35 -11 41 3 34
79 -12 117 -65 255 -161 421 -44 75 -114 228 -114 249 0 22 -51 140 -74 171
-13 17 -29 44 -37 60 -25 50 -42 78 -74 120 -17 22 -57 81 -90 130 -52 78
-288 335 -410 446 -94 85 -274 237 -325 274 -76 55 -272 208 -292 228 -10 9
-22 17 -27 17 -4 0 -20 11 -35 25 -15 14 -58 41 -94 61 -37 19 -80 43 -97 53
-16 11 -72 40 -122 66 -51 26 -93 50 -93 54 0 6 -32 22 -85 41 -16 6 -39 14
-50 19 -82 38 -205 72 -311 87 -30 5 -43 3 -46 -7z"/>
<path d="M8992 3889 c2 -15 33 -36 113 -78 61 -31 129 -69 152 -84 24 -15 45
-27 47 -27 2 0 34 -19 70 -42 189 -123 260 -175 363 -265 55 -49 115 -99 132
-111 28 -22 117 -106 329 -313 114 -112 185 -195 177 -209 -3 -5 2 -10 14 -10
11 0 26 -8 33 -19 17 -23 115 -135 151 -171 15 -15 27 -32 27 -37 0 -6 23 -32
50 -57 42 -39 54 -45 65 -36 17 14 20 71 6 85 -5 6 -29 48 -54 95 -68 130 -68
130 -137 219 -36 46 -74 96 -86 112 -18 25 -84 96 -174 188 -29 30 -117 105
-175 151 -22 18 -42 35 -45 39 -15 23 -309 226 -341 236 -13 4 -38 18 -54 31
-17 12 -41 28 -55 33 -14 6 -38 20 -55 31 -16 11 -46 27 -65 36 -19 9 -54 29
-77 44 -22 15 -52 31 -65 35 -12 4 -34 16 -47 26 -13 11 -28 19 -33 19 -6 0
-33 12 -62 26 -76 38 -167 74 -188 74 -14 0 -18 -6 -16 -21z"/>
<path d="M4600 3879 c-25 -5 -79 -16 -120 -24 -41 -8 -109 -20 -150 -25 -41
-6 -95 -18 -120 -26 -25 -9 -142 -26 -260 -39 -118 -13 -255 -34 -305 -46
l-90 -22 -37 -56 c-21 -32 -38 -66 -38 -77 0 -11 -7 -29 -15 -40 -17 -22 -21
-209 -5 -219 6 -3 10 -24 10 -46 0 -22 7 -56 15 -77 44 -104 146 -148 365
-157 118 -6 190 -15 190 -26 0 -4 -12 -16 -27 -27 -94 -67 -303 -278 -338
-342 -69 -126 -80 -182 -37 -188 36 -5 77 16 109 56 29 36 113 169 113 179 0
10 95 95 139 125 24 16 78 43 120 60 42 16 81 33 86 38 6 4 28 13 50 20 22 7
49 19 60 26 11 8 25 14 33 14 37 0 288 128 301 154 5 11 15 73 21 136 10 100
15 120 41 159 16 25 32 55 35 66 6 24 -25 322 -41 393 -6 24 -26 27 -105 11z
m-35 -264 l0 -70 -135 -3 c-74 -1 -162 -9 -195 -16 -33 -8 -80 -17 -105 -20
-64 -7 -182 -67 -200 -101 -14 -26 -13 -28 13 -51 24 -21 38 -24 106 -24 65 0
81 -3 96 -20 14 -16 16 -26 8 -52 l-9 -33 -214 3 c-270 3 -275 4 -289 44 -18
51 -24 130 -17 211 7 73 8 75 45 95 73 42 144 53 336 53 163 0 273 10 300 28
12 7 198 29 235 27 24 -1 25 -3 25 -71z m-165 -265 c60 0 92 -24 96 -71 2 -19
5 -45 6 -59 3 -21 -5 -29 -52 -53 -33 -17 -67 -27 -85 -25 -32 3 -31 -1 -51
140 -8 56 0 82 22 74 9 -3 37 -6 64 -6z"/>
<path d="M4755 3870 c-4 -7 -2 -38 4 -71 21 -112 30 -174 36 -244 9 -100 24
-156 50 -185 39 -43 53 -73 60 -126 3 -28 16 -66 28 -84 12 -18 30 -44 39 -58
24 -36 144 -103 273 -151 114 -43 155 -62 191 -86 20 -14 40 -25 45 -25 13 0
92 -81 136 -140 76 -101 175 -205 207 -217 52 -20 76 -16 76 11 0 13 -7 29
-15 36 -8 7 -39 49 -69 94 -70 105 -260 299 -309 315 -19 6 -57 44 -57 56 0
30 55 39 235 40 161 0 184 2 219 20 53 28 73 83 85 231 11 141 1 187 -65 284
-52 79 -104 130 -164 161 -40 22 -63 25 -220 31 -171 6 -278 21 -390 52 -50
14 -224 45 -342 61 -30 4 -49 2 -53 -5z m403 -201 c70 -12 168 -27 217 -35 50
-8 146 -17 215 -21 112 -5 128 -8 157 -30 52 -40 82 -104 89 -194 11 -123 -16
-159 -116 -159 -20 0 -50 -4 -66 -10 -32 -11 -243 -30 -260 -23 -16 6 -11 143
6 153 8 5 43 12 78 16 65 7 92 22 92 54 0 25 -52 67 -98 80 -51 13 -264 17
-389 6 -85 -7 -103 -7 -107 5 -2 8 -7 54 -10 103 l-5 88 35 -7 c20 -3 93 -15
162 -26z m58 -360 c4 -6 8 -39 9 -73 1 -33 5 -69 9 -78 10 -22 3 -22 -71 -3
-67 17 -103 51 -103 96 0 46 31 69 94 69 30 0 58 -5 62 -11z"/>
<path d="M15280 3671 c-25 -4 -36 -12 -38 -27 -4 -31 15 -42 109 -60 99 -19
127 -39 109 -75 -22 -43 -43 -59 -74 -59 -17 0 -42 -7 -55 -17 -47 -32 -146
-45 -256 -32 -55 6 -104 15 -110 19 -11 8 -117 40 -134 40 -6 0 -15 -9 -21
-20 -8 -15 -7 -26 6 -45 9 -14 22 -25 29 -25 7 0 23 -8 36 -19 102 -80 473
-95 569 -23 66 50 107 121 117 202 5 42 3 47 -33 79 -58 53 -162 78 -254 62z"/>
<path d="M7567 3464 c-18 -10 -39 -38 -58 -77 -16 -34 -44 -89 -61 -122 -16
-33 -33 -78 -36 -100 -2 -22 -10 -51 -17 -65 -7 -14 -15 -61 -19 -106 -6 -73
-4 -84 15 -108 11 -14 25 -26 31 -26 6 0 29 -14 52 -31 23 -16 64 -45 91 -62
28 -18 70 -50 93 -71 23 -22 57 -48 75 -59 17 -11 39 -29 47 -41 8 -11 34 -39
59 -62 74 -69 67 -72 -191 -72 -123 -1 -270 -3 -328 -6 -58 -3 -256 -8 -440
-11 -184 -3 -447 -8 -585 -10 -137 -3 -513 -7 -835 -10 -322 -2 -641 -7 -710
-10 -69 -3 -285 -8 -480 -11 -195 -3 -499 -9 -675 -12 -202 -5 -361 -4 -430 3
-60 6 -141 7 -180 4 -38 -4 -297 -10 -575 -14 -278 -4 -561 -9 -630 -11 -208
-7 -1334 -7 -1497 1 -100 4 -158 3 -171 -4 -26 -14 -82 -113 -98 -175 -7 -27
-11 -76 -9 -110 14 -190 21 -773 14 -1136 0 -14 2 -95 5 -180 5 -156 8 -552 4
-580 -2 -8 1 -44 5 -79 9 -68 38 -111 75 -111 41 0 49 28 75 290 21 218 12
1307 -13 1515 -4 39 -9 133 -9 211 -2 123 0 142 16 156 15 13 67 17 338 22
176 4 478 11 670 16 322 8 705 14 1705 25 522 6 1081 14 1575 25 231 4 546 9
700 9 655 3 1642 14 2525 27 360 5 412 4 462 -11 32 -9 60 -20 63 -26 4 -5 8
-73 11 -151 3 -79 9 -183 15 -231 5 -49 9 -299 8 -555 -1 -257 -2 -552 -3
-657 -1 -226 11 -585 19 -607 4 -10 25 -19 55 -23 56 -8 86 -1 94 21 5 14 -3
235 -19 514 -11 201 -27 685 -26 805 3 384 22 484 71 371 10 -24 23 -45 28
-47 10 -4 25 -31 67 -121 15 -32 31 -58 36 -58 4 0 16 -17 25 -37 9 -21 27
-60 40 -87 13 -28 24 -56 24 -62 0 -7 6 -17 14 -21 22 -13 75 -110 88 -161 7
-26 20 -56 29 -67 19 -22 59 -109 59 -128 0 -7 10 -24 23 -38 23 -26 40 -52
68 -106 42 -82 281 -322 358 -360 31 -15 58 -29 61 -30 3 -2 14 3 24 10 15 11
16 18 5 62 -6 28 -23 70 -38 95 -14 25 -33 58 -41 74 -8 16 -26 41 -40 56 -58
62 -111 152 -117 198 -3 26 -14 59 -24 74 -11 14 -19 29 -19 33 0 4 -16 25
-35 48 -19 22 -35 49 -35 59 0 10 -6 21 -14 24 -8 3 -19 18 -25 32 -6 15 -21
43 -32 62 -12 19 -36 62 -54 95 -45 85 -98 179 -104 185 -4 3 -23 39 -43 80
-21 41 -54 102 -73 135 -20 33 -46 80 -58 105 -13 25 -40 71 -60 102 -20 31
-37 63 -37 71 0 8 -9 22 -21 33 -12 10 -29 35 -39 55 -10 19 -37 59 -59 87
-23 28 -41 56 -41 61 0 5 -6 11 -13 14 -8 3 -31 31 -52 62 -52 79 -240 264
-325 320 -24 17 -52 38 -62 48 -10 9 -22 17 -26 17 -5 0 -19 10 -32 22 -41 39
-88 67 -195 118 -58 28 -109 59 -115 69 -13 25 -13 98 0 106 6 3 10 15 10 26
0 10 4 27 9 37 4 9 17 44 28 77 30 87 43 123 70 187 19 45 22 62 13 78 -22 41
-73 51 -123 24z"/>
<path d="M12473 3370 c-35 -8 -94 -48 -130 -88 -18 -20 -23 -37 -23 -81 0 -53
2 -58 43 -94 63 -58 119 -81 180 -73 56 6 82 25 127 96 46 71 38 167 -15 195
-11 6 -31 18 -45 26 -31 20 -94 29 -137 19z"/>
<path d="M12065 3086 c-54 -26 -76 -42 -97 -75 -25 -38 -27 -49 -21 -99 7 -64
30 -92 91 -110 140 -42 222 30 207 182 -8 86 -17 104 -60 122 -43 18 -37 19
-120 -20z"/>
<path d="M4790 2940 c-36 -4 -111 -8 -168 -9 -88 -1 -110 -5 -151 -26 -27 -13
-60 -39 -72 -57 -13 -18 -29 -39 -36 -46 -16 -17 -27 -94 -20 -145 7 -54 48
-88 142 -119 64 -21 85 -23 260 -21 l190 2 72 37 c142 74 189 153 145 247 -27
57 -77 108 -122 124 -47 17 -160 23 -240 13z m214 -120 c25 -12 46 -26 46 -33
0 -21 -72 -75 -129 -96 -99 -37 -338 -53 -411 -28 -27 9 -36 18 -38 39 -4 32
38 78 70 78 10 0 37 9 59 21 49 24 129 36 260 38 77 1 106 -3 143 -19z"/>
<path d="M11751 2818 c-102 -27 -151 -99 -151 -223 0 -93 7 -98 129 -93 75 3
95 8 154 38 82 41 137 98 137 138 0 29 -35 72 -59 72 -7 0 -32 13 -56 30 -52
36 -108 50 -154 38z"/>
<path d="M11459 2465 c-2 -2 -24 -6 -47 -9 -46 -5 -115 -46 -139 -82 -20 -31
-27 -112 -14 -162 13 -45 53 -79 133 -110 35 -14 40 -13 90 13 32 16 66 44 85
71 31 42 32 46 26 111 -3 38 -12 79 -19 93 -11 23 -106 85 -115 75z"/>
<path d="M3993 1480 c-2 -3 -584 -6 -1291 -6 -1261 -2 -1477 -7 -1550 -35 -12
-5 -27 -21 -33 -36 -14 -37 -37 -434 -34 -593 4 -229 26 -725 33 -760 8 -34 9
-35 63 -38 l56 -3 9 193 c10 212 12 652 4 933 l-5 180 140 5 c77 3 318 3 535
0 217 -3 1286 -6 2375 -8 1089 -1 2162 -4 2385 -5 l405 -3 1 -79 c1 -44 6
-161 12 -260 18 -292 35 -651 36 -778 2 -136 11 -156 73 -158 98 -3 100 -1 91
113 -4 51 -9 275 -12 498 -5 396 -14 574 -36 675 -6 28 -13 69 -17 93 -11 84
144 76 -1645 77 -875 0 -1592 -2 -1595 -5z"/>
<path d="M15475 891 c-33 -20 -98 -51 -145 -68 -107 -38 -290 -93 -310 -93 -8
0 -38 -14 -67 -30 -43 -25 -53 -36 -59 -65 -7 -40 7 -65 37 -65 26 0 180 38
201 50 9 5 52 17 95 26 42 8 95 26 118 39 22 12 56 28 76 34 20 6 45 20 56 30
11 10 28 21 39 25 25 8 91 72 99 96 8 26 -24 60 -55 59 -14 0 -52 -18 -85 -38z"/>
</g>
</svg>
