<?xml version="1.0" standalone="no"?>
<!DOCTYPE svg PUBLIC "-//W3C//DTD SVG 20010904//EN"
 "http://www.w3.org/TR/2001/REC-SVG-20010904/DTD/svg10.dtd">
<svg version="1.0" xmlns="http://www.w3.org/2000/svg"
 width="1349.000000pt" height="954.000000pt" viewBox="0 0 1349.000000 954.000000"
 preserveAspectRatio="xMidYMid meet">
<metadata>
Created by potrace 1.14, written by Peter Selinger 2001-2017
</metadata>
<g transform="translate(0.000000,954.000000) scale(0.100000,-0.100000)"
fill="#000000" stroke="none">
<path d="M7129 9529 c-85 -7 -191 -23 -304 -47 -22 -5 -68 -21 -102 -35 -34
-15 -68 -27 -75 -27 -13 0 -240 -109 -248 -120 -3 -3 -21 -16 -40 -29 -50 -33
-236 -226 -249 -259 -6 -15 -27 -38 -46 -51 -19 -13 -35 -28 -35 -34 0 -5 -12
-26 -26 -45 -38 -49 -84 -138 -99 -191 -7 -25 -25 -77 -40 -116 -15 -38 -29
-79 -33 -90 -3 -11 -12 -26 -19 -33 -7 -7 -13 -19 -13 -27 0 -7 -15 -35 -33
-61 -62 -90 -62 -90 -25 -124 27 -25 35 -42 45 -98 13 -79 16 -162 5 -179 -4
-7 -55 -35 -112 -64 -115 -56 -215 -116 -272 -164 -20 -16 -58 -46 -84 -65
-27 -19 -69 -54 -94 -77 -25 -24 -48 -43 -52 -43 -3 0 -41 -34 -85 -75 -43
-42 -86 -83 -96 -93 -10 -9 -21 -20 -25 -24 -7 -8 -80 -67 -132 -106 -57 -44
-35 -125 69 -248 14 -16 37 -44 50 -62 13 -18 38 -47 55 -66 17 -19 41 -48 54
-65 13 -17 29 -31 36 -31 6 0 32 -20 56 -45 44 -45 124 -99 243 -163 151 -82
195 -102 237 -108 l45 -6 79 88 c43 49 103 118 135 153 31 35 76 82 100 105
25 22 54 50 65 62 12 11 37 31 56 44 19 13 42 32 51 43 9 11 27 19 40 19 44 0
273 -82 317 -112 23 -17 46 -30 51 -30 4 0 18 -11 31 -25 13 -14 27 -25 32
-25 4 0 45 -18 92 -40 46 -22 88 -40 92 -40 21 0 104 -69 118 -98 9 -18 16
-34 16 -36 0 -2 -51 -34 -112 -72 -62 -37 -132 -84 -155 -103 -23 -20 -69 -58
-102 -86 -34 -27 -64 -59 -67 -70 -4 -11 -17 -29 -31 -40 -27 -22 -62 -77 -93
-145 -12 -25 -25 -52 -30 -62 -12 -21 -60 -216 -72 -293 -13 -83 -13 -333 1
-434 10 -73 32 -168 73 -306 20 -68 97 -225 138 -279 167 -221 304 -343 395
-354 59 -6 75 13 75 89 0 75 -14 107 -91 214 -20 28 -43 65 -53 82 -9 18 -28
49 -42 70 -14 21 -37 63 -50 93 -14 30 -37 80 -51 110 -33 72 -68 180 -82 253
-6 32 -13 62 -15 66 -11 17 -8 401 4 476 19 128 69 282 122 377 27 48 55 93
62 101 7 7 15 18 17 24 2 7 42 53 87 103 103 111 128 124 237 117 81 -5 133
-21 307 -98 37 -17 82 -35 100 -40 61 -18 181 -21 349 -8 165 12 166 12 222
-11 32 -13 57 -26 57 -29 0 -3 16 -24 35 -46 19 -22 35 -49 35 -60 0 -18 -85
-103 -144 -145 -69 -48 -305 -331 -306 -367 0 -7 -13 -39 -29 -70 -42 -84 -81
-170 -81 -181 0 -5 -15 -59 -34 -120 -19 -61 -41 -155 -50 -209 -22 -137 -37
-376 -25 -416 5 -17 9 -70 9 -117 0 -47 8 -128 16 -180 9 -52 20 -122 24 -155
10 -70 20 -120 49 -227 12 -43 21 -79 21 -81 0 -2 15 -19 33 -38 22 -23 36
-49 40 -76 6 -34 12 -43 37 -51 36 -13 95 -5 111 15 9 11 9 44 0 141 -35 366
-38 605 -12 857 11 110 27 223 36 250 8 28 15 60 15 73 0 13 16 78 36 145 49
168 49 166 72 217 53 115 62 137 62 146 0 6 15 28 33 50 19 21 36 47 40 57 15
41 120 187 179 248 68 70 165 125 263 147 28 7 79 19 116 27 138 32 295 21
449 -30 277 -92 374 -119 510 -141 47 -7 128 -21 180 -29 108 -18 453 -15 550
5 97 20 214 51 247 66 17 8 38 14 46 14 9 0 18 4 22 9 3 5 19 12 36 16 17 4
69 28 117 53 68 36 108 68 185 144 53 53 97 101 97 107 0 6 9 18 19 28 28 26
118 201 131 253 21 84 29 125 30 149 0 27 -7 26 -105 -10 -79 -29 -153 -45
-287 -64 -44 -6 -48 -5 -48 15 0 31 32 87 90 159 47 59 51 67 48 110 l-3 46
-40 -2 c-22 -2 -51 -7 -65 -12 -14 -5 -65 -21 -115 -36 -49 -15 -101 -31 -115
-37 -32 -13 -175 -38 -217 -38 -77 0 -198 92 -274 210 -49 75 -49 75 -29 92
18 15 41 16 183 12 268 -7 494 -24 639 -46 158 -25 171 -21 209 55 36 69 69
107 95 107 13 0 48 -9 78 -21 47 -17 61 -18 97 -9 43 12 91 55 135 123 22 34
27 36 47 26 76 -40 260 -203 327 -289 19 -25 45 -56 58 -68 12 -12 22 -29 22
-39 0 -9 13 -43 28 -77 16 -34 34 -87 41 -120 27 -122 57 -161 125 -161 47 0
98 32 134 83 25 34 42 149 42 277 l0 93 30 4 c16 3 60 -3 97 -13 146 -37 392
-41 533 -10 25 6 77 16 115 22 67 11 72 14 127 73 32 33 60 69 64 79 3 9 10
17 15 17 5 0 18 9 29 20 28 28 28 112 0 140 -20 20 -20 20 -67 -13 -60 -41
-101 -84 -119 -124 -8 -18 -22 -36 -31 -42 -34 -17 -270 -51 -362 -51 -176 0
-349 28 -456 75 -16 7 -48 19 -70 26 -22 8 -54 24 -71 36 -32 24 -74 31 -74
12 0 -6 14 -40 31 -75 42 -89 56 -144 64 -252 6 -77 4 -96 -9 -117 -29 -44
-30 -42 -117 155 -55 127 -204 290 -323 354 -35 19 -73 40 -83 46 -10 6 -36
16 -58 24 -36 12 -40 16 -37 42 10 98 12 294 4 384 -11 127 -5 140 51 110 20
-11 43 -20 49 -20 7 0 31 -14 52 -30 22 -17 47 -30 55 -30 9 0 33 -11 53 -25
20 -14 42 -25 47 -25 10 0 100 -47 144 -74 46 -29 269 -146 278 -146 6 0 29
-9 52 -21 63 -30 110 -47 237 -81 95 -25 135 -31 229 -32 76 -1 115 3 118 10
5 14 -66 45 -235 101 -160 52 -249 92 -300 131 -33 25 -101 62 -116 62 -3 0
-31 16 -63 35 -32 19 -65 35 -73 35 -8 0 -46 16 -85 35 -38 19 -75 35 -81 35
-6 0 -22 8 -35 18 -13 10 -67 33 -119 51 -52 19 -124 45 -160 59 -56 21 -159
52 -238 69 -12 3 -29 0 -37 -7 -13 -11 -13 -16 1 -42 43 -83 60 -253 35 -358
-28 -116 -72 -265 -81 -274 -6 -6 -10 -21 -10 -35 0 -51 -92 -108 -115 -71 -3
5 5 101 19 212 14 112 28 241 30 288 8 131 -17 268 -58 321 -12 15 -29 41 -38
58 -9 17 -27 35 -40 40 -74 28 -245 64 -433 91 -214 31 -902 16 -1075 -24 -14
-3 -56 -8 -95 -11 -38 -3 -95 -8 -125 -11 -40 -4 -66 -1 -95 11 -63 27 -183
31 -277 10 l-81 -19 -66 23 c-36 12 -100 40 -141 61 -116 58 -251 97 -345 99
-47 1 -84 7 -91 14 -5 7 -19 37 -29 67 -10 30 -38 93 -62 139 -24 46 -43 90
-43 98 0 7 -22 37 -50 66 -127 134 -170 182 -170 189 0 5 -5 8 -10 8 -6 0 -21
9 -33 21 -49 46 -176 137 -242 174 -38 21 -81 47 -95 56 -14 10 -43 22 -65 28
-22 5 -67 18 -100 29 -130 44 -194 49 -406 31z m261 -149 c114 -33 164 -53
199 -79 19 -14 48 -30 65 -36 35 -12 214 -148 286 -217 25 -24 77 -78 115
-122 39 -43 79 -89 91 -102 11 -13 34 -44 49 -69 16 -25 36 -47 46 -50 9 -3
22 -25 29 -51 l13 -46 -61 -57 c-73 -68 -90 -103 -67 -137 18 -28 67 -31 130
-9 64 23 117 19 146 -11 22 -23 24 -34 23 -107 -1 -52 -7 -95 -17 -117 -30
-65 -69 -125 -109 -165 -22 -22 -46 -53 -55 -70 -8 -16 -21 -37 -28 -45 -7 -8
-17 -30 -23 -47 -10 -29 -8 -36 14 -62 50 -60 30 -144 -94 -386 -59 -116 -168
-252 -336 -420 -48 -48 -200 -155 -221 -155 -5 0 -22 -6 -37 -14 -36 -19 -228
-39 -297 -30 -134 16 -297 63 -319 92 -47 61 126 176 306 202 42 6 104 15 137
20 33 5 89 12 125 16 91 9 198 55 248 107 43 46 154 150 254 239 75 66 123
148 133 224 6 44 4 54 -17 79 -35 40 -54 28 -116 -69 -82 -127 -281 -316 -351
-332 -14 -4 -40 -15 -58 -26 -52 -31 -168 -50 -355 -57 -169 -6 -178 -7 -202
-30 -14 -14 -26 -29 -26 -36 0 -25 -98 -108 -162 -136 -100 -44 -193 -55 -341
-40 -67 7 -135 16 -152 21 -16 5 -57 14 -90 21 -67 14 -125 43 -125 65 0 11
16 14 66 14 50 0 75 5 100 21 40 24 42 41 12 89 -33 55 -109 210 -138 285 -4
11 -17 45 -28 75 -33 85 -72 271 -79 376 -7 116 11 230 39 245 13 7 56 6 134
-2 167 -18 201 3 126 80 -28 29 -63 49 -133 76 -52 20 -104 41 -116 46 -13 5
-23 16 -23 25 0 20 48 181 64 214 7 14 30 61 51 105 79 163 214 344 305 407
14 10 51 35 84 58 32 22 66 40 76 40 9 0 28 9 42 19 32 26 229 81 293 82 28 1
64 5 80 9 48 12 224 0 295 -20z"/>
<path d="M7819 8991 c-22 -21 -39 -48 -39 -59 0 -26 25 -52 50 -52 28 0 52
-29 46 -56 -4 -13 0 -29 9 -37 13 -14 19 -14 55 0 35 14 40 20 40 48 0 21 -13
49 -40 85 -22 29 -40 61 -40 70 0 17 -19 40 -33 40 -5 0 -27 -17 -48 -39z"/>
<path d="M6972 8864 c-22 -6 -55 -20 -74 -31 -18 -11 -64 -37 -101 -57 -38
-21 -82 -49 -99 -64 -39 -35 -85 -128 -83 -167 3 -44 3 -43 29 -60 34 -23 57
-8 97 62 40 69 55 83 136 123 77 37 164 41 243 10 71 -28 125 -26 155 5 36 35
32 70 -10 108 -68 60 -213 95 -293 71z"/>
<path d="M6956 8424 c-19 -18 -20 -53 -5 -109 19 -66 62 -75 103 -22 35 46 35
98 0 126 -32 25 -76 27 -98 5z"/>
<path d="M6293 7938 c-29 -7 -33 -13 -33 -42 0 -18 7 -53 16 -79 13 -39 20
-47 40 -47 34 0 74 42 74 77 0 65 -45 106 -97 91z"/>
<path d="M6594 7859 c-14 -15 -19 -36 -19 -73 1 -85 13 -125 51 -162 35 -33
37 -34 123 -34 86 0 89 1 143 40 66 47 108 114 108 171 0 30 -4 39 -21 44 -25
8 -66 -11 -74 -35 -3 -9 -20 -31 -39 -49 l-34 -33 -63 16 c-75 20 -84 26 -115
88 -13 26 -28 48 -33 48 -4 0 -16 -9 -27 -21z"/>
<path d="M7073 7729 c-19 -19 -16 -57 5 -67 42 -22 238 -45 346 -40 127 6 236
37 236 68 0 15 -17 18 -157 24 -248 11 -325 15 -373 21 -30 4 -49 2 -57 -6z"/>
<path d="M6570 7463 c-11 -21 -31 -56 -44 -78 -14 -23 -27 -57 -31 -78 -6 -33
-5 -37 19 -43 46 -11 111 59 136 149 9 32 8 43 -5 63 -23 35 -51 30 -75 -13z"/>
<path d="M4659 6988 c-30 -71 1 -221 64 -312 106 -151 257 -309 355 -370 51
-32 175 -76 215 -76 54 0 149 70 173 128 14 33 13 38 -2 49 -13 9 -23 9 -48
-2 -59 -25 -142 -46 -160 -39 -9 4 -30 18 -45 33 -15 14 -70 60 -121 101 -51
41 -105 88 -119 104 -14 16 -37 39 -50 50 -106 93 -149 156 -163 239 -11 68
-43 127 -69 127 -9 0 -23 -15 -30 -32z"/>
<path d="M4370 6940 c-19 -4 -59 -13 -87 -19 -29 -6 -72 -19 -95 -29 -24 -10
-57 -24 -74 -31 -48 -19 -160 -140 -189 -204 -26 -57 -55 -154 -55 -186 0 -10
-7 -32 -16 -49 -8 -18 -22 -74 -31 -125 -28 -171 -28 -165 2 -197 33 -34 47
-98 32 -143 -5 -18 -31 -75 -56 -127 -45 -94 -46 -96 -45 -190 2 -94 2 -96 50
-185 47 -86 51 -90 89 -96 77 -13 113 22 151 141 19 64 49 110 70 110 18 0 18
-16 -2 -78 -9 -28 -14 -58 -10 -68 9 -24 65 -11 95 23 21 24 23 34 18 85 -4
42 -13 68 -31 93 -14 18 -26 38 -26 43 0 13 72 113 106 147 57 57 149 131 177
143 51 22 57 17 57 -45 0 -58 24 -205 37 -226 4 -7 22 -31 40 -54 37 -45 75
-63 133 -63 42 0 124 26 139 44 6 7 13 53 17 102 6 93 23 192 49 284 8 30 24
91 34 135 10 44 22 88 26 98 13 30 -3 67 -28 67 -37 0 -122 -103 -139 -169
-12 -47 -34 -178 -45 -265 -5 -47 -13 -72 -24 -79 -20 -12 -30 -4 -74 63 -37
56 -40 128 -8 206 40 101 38 184 -5 184 -9 0 -22 -8 -28 -18 -7 -10 -37 -34
-69 -52 -31 -19 -79 -53 -107 -75 -28 -22 -78 -59 -112 -82 -33 -24 -72 -53
-86 -66 -14 -13 -37 -31 -52 -40 -15 -10 -46 -42 -68 -72 -22 -30 -49 -62 -59
-72 -27 -26 -109 -179 -116 -217 -16 -83 -43 -71 -51 25 -6 56 -2 77 26 159
18 52 46 122 62 155 37 76 49 181 24 216 -20 30 -20 78 0 188 25 129 42 181
79 236 37 56 160 185 175 185 6 0 33 15 60 34 28 19 76 44 108 56 75 27 124
52 129 66 2 7 -3 19 -12 28 -18 17 -118 21 -185 6z"/>
<path d="M10848 6033 c-9 -10 -19 -35 -22 -56 -15 -83 -88 -211 -197 -344 -31
-37 -61 -78 -67 -90 -7 -12 -21 -24 -31 -28 -11 -3 -23 -14 -26 -24 -3 -9 -24
-28 -46 -40 -23 -13 -55 -36 -73 -51 -43 -37 -80 -53 -241 -104 -371 -117
-470 -161 -598 -265 -70 -57 -78 -71 -96 -171 -13 -71 -10 -108 16 -188 22
-67 17 -72 -102 -101 -116 -28 -129 -36 -221 -129 -79 -79 -94 -107 -133 -237
-35 -116 -42 -158 -51 -313 -6 -87 -12 -167 -15 -178 -8 -36 -55 -48 -148 -39
-129 13 -206 9 -228 -11 -24 -21 -24 -59 -1 -103 14 -27 28 -37 74 -52 79 -26
174 -39 299 -39 90 0 108 3 122 18 10 10 17 23 17 29 0 5 12 38 26 74 50 122
80 261 90 407 8 132 39 247 77 287 10 11 31 38 47 60 47 68 163 170 227 199
43 20 49 36 56 149 5 80 11 106 32 141 29 49 34 52 120 72 86 20 147 38 255
77 98 36 257 104 275 118 6 4 45 26 87 48 43 22 85 46 93 53 43 35 162 162
196 210 70 97 114 160 130 189 9 15 23 39 32 53 46 70 108 335 90 383 -7 19
-47 16 -65 -4z"/>
<path d="M7334 4442 c-38 -12 -106 -82 -219 -222 -128 -159 -246 -255 -340
-275 -39 -8 -75 -42 -75 -70 0 -59 65 -125 122 -125 113 1 256 84 331 193 20
29 79 138 131 243 52 105 102 196 110 204 23 18 20 47 -6 54 -26 6 -25 6 -54
-2z"/>
<path d="M4053 3994 c-8 -21 32 -53 67 -54 14 -1 63 -26 110 -55 47 -30 101
-63 120 -72 19 -10 37 -22 39 -26 1 -5 26 -19 55 -32 49 -23 170 -89 191 -104
10 -8 114 -51 220 -91 33 -13 62 -26 65 -29 6 -8 70 -39 195 -96 145 -67 165
-78 165 -92 0 -14 -13 -23 -55 -39 -16 -6 -91 -35 -165 -63 -74 -29 -162 -61
-195 -72 -65 -21 -63 -20 -180 -73 -45 -20 -86 -36 -93 -36 -7 0 -20 -4 -30
-9 -22 -13 -265 -105 -317 -121 -22 -7 -44 -16 -50 -19 -13 -9 -101 -42 -195
-73 -41 -14 -133 -47 -205 -73 -71 -26 -166 -59 -210 -75 -44 -16 -111 -40
-150 -55 -38 -14 -86 -31 -105 -37 -19 -5 -46 -16 -60 -23 -31 -16 -94 -40
-142 -55 -47 -14 -68 -37 -43 -47 27 -10 147 28 435 138 47 17 132 47 190 66
58 19 121 41 140 48 19 7 76 25 125 40 152 46 267 87 331 117 34 15 65 28 69
28 13 0 229 87 294 119 34 16 85 37 114 47 29 9 66 22 82 29 113 47 297 110
395 135 19 4 62 16 95 25 l60 17 80 -30 c44 -17 118 -47 165 -67 47 -20 101
-43 120 -50 19 -7 53 -23 75 -34 21 -12 45 -21 51 -21 7 0 43 -15 80 -34 83
-40 204 -97 259 -120 99 -43 355 -164 443 -210 34 -19 111 -51 138 -60 12 -4
29 -15 39 -26 10 -11 28 -20 40 -20 12 0 34 -9 48 -20 14 -11 32 -20 40 -20 9
0 19 -5 23 -11 3 -6 27 -20 53 -30 43 -19 212 -99 291 -139 125 -63 278 -138
425 -209 94 -45 215 -104 271 -132 55 -27 104 -49 107 -49 4 0 61 -27 129 -60
67 -33 127 -60 132 -60 6 -1 29 -9 51 -20 22 -11 44 -19 49 -20 5 0 17 -6 25
-13 9 -8 41 -24 71 -36 30 -12 80 -35 110 -50 30 -16 73 -34 95 -41 22 -7 44
-16 50 -21 15 -14 55 -10 61 6 4 8 0 23 -7 32 -15 17 -250 133 -272 133 -7 0
-21 6 -32 14 -11 7 -47 25 -80 39 -33 14 -130 59 -217 101 -86 42 -162 76
-170 76 -7 0 -27 9 -44 19 -17 10 -93 47 -170 81 -135 60 -248 114 -289 137
-11 6 -60 30 -110 53 -49 24 -130 62 -180 86 -49 23 -139 66 -200 94 -60 28
-135 63 -165 79 -30 15 -86 44 -125 63 -38 20 -88 44 -110 53 -22 10 -101 47
-175 82 -173 83 -300 143 -325 153 -35 14 -179 81 -220 103 -22 11 -47 24 -55
27 -8 4 -31 14 -50 23 -19 8 -62 29 -96 45 -34 17 -97 44 -140 62 -144 57
-164 68 -164 90 0 11 8 23 18 27 9 3 42 16 72 28 30 13 123 48 205 80 83 31
164 62 180 69 17 8 46 17 65 21 19 4 71 23 115 42 44 19 109 44 145 55 72 23
96 40 85 58 -9 14 -23 11 -150 -34 -55 -20 -185 -65 -290 -101 -104 -35 -215
-74 -245 -85 -184 -71 -292 -110 -309 -110 -7 0 -65 23 -130 51 -129 57 -133
59 -316 151 -162 81 -267 131 -280 134 -10 2 -370 175 -458 220 -26 13 -55 24
-65 24 -10 0 -33 11 -52 25 -39 29 -68 32 -77 9z"/>
<path d="M8480 3793 c-52 -10 -148 -57 -220 -109 -111 -81 -136 -102 -239
-203 -142 -138 -180 -156 -408 -186 -193 -25 -308 -52 -325 -76 -8 -13 -3 -93
8 -123 10 -27 131 -56 236 -56 54 0 183 18 213 30 150 59 245 118 347 213 28
26 53 47 57 47 11 0 107 103 260 278 162 183 169 203 71 185z"/>
<path d="M30 3601 c-28 -27 -30 -34 -30 -104 l0 -75 52 -42 c28 -22 72 -53 96
-68 25 -15 59 -40 76 -56 17 -16 58 -40 91 -54 33 -13 67 -29 75 -36 8 -7 60
-34 115 -61 55 -26 116 -58 135 -70 19 -12 51 -27 70 -34 19 -6 71 -30 115
-52 44 -23 101 -52 127 -65 25 -13 49 -28 52 -33 4 -5 23 -15 44 -22 20 -6 46
-19 57 -29 11 -10 32 -20 48 -24 15 -4 37 -21 49 -40 22 -33 45 -45 168 -87
72 -26 192 -80 208 -96 7 -7 18 -13 23 -13 12 0 194 -89 264 -130 28 -16 102
-55 165 -87 63 -33 170 -88 238 -124 68 -35 135 -70 150 -78 15 -7 44 -24 64
-38 20 -14 52 -33 70 -43 18 -10 49 -27 68 -38 19 -10 73 -39 120 -64 47 -25
112 -60 145 -78 33 -18 73 -40 89 -48 16 -8 54 -31 85 -51 31 -20 80 -47 109
-61 28 -13 52 -27 52 -32 0 -4 7 -8 16 -8 9 0 50 -20 91 -44 40 -25 84 -48 96
-52 12 -4 33 -14 47 -23 43 -29 64 -41 90 -52 14 -6 34 -18 45 -28 11 -10 38
-27 60 -38 114 -58 145 -76 145 -84 0 -5 5 -9 11 -9 19 0 123 -52 180 -91 53
-36 105 -67 145 -86 36 -18 79 -39 99 -50 11 -5 34 -17 50 -26 58 -30 99 -52
109 -60 42 -31 174 -110 236 -141 41 -21 84 -43 95 -50 37 -21 215 -121 253
-141 20 -12 56 -33 79 -48 24 -15 47 -27 52 -27 5 0 11 -3 13 -7 4 -10 37 -28
220 -120 81 -41 153 -80 160 -87 12 -11 160 -86 171 -86 2 0 49 -25 103 -56
54 -30 116 -64 139 -74 22 -10 55 -30 74 -44 19 -14 42 -26 51 -26 9 0 37 -13
62 -29 66 -42 139 -73 173 -73 37 0 90 21 142 56 21 14 43 26 50 26 7 0 59 22
115 48 57 27 121 57 143 67 47 20 153 72 175 85 8 5 103 52 210 105 176 87
394 196 555 278 78 40 72 36 205 100 256 122 288 137 295 137 8 0 127 54 160
72 29 16 110 57 276 137 80 39 163 82 183 96 20 14 42 25 49 25 7 0 28 11 47
23 19 13 47 27 61 30 14 4 42 17 61 31 20 13 47 27 59 31 13 4 40 16 59 28 19
11 112 59 205 107 94 48 224 115 290 150 66 35 138 72 160 83 22 11 42 22 45
26 3 3 37 22 75 42 39 20 104 54 147 77 42 22 86 43 98 47 11 4 48 22 81 41
34 19 67 34 73 34 7 0 21 9 31 20 10 11 22 20 26 20 12 0 143 61 159 75 8 7
44 27 80 46 36 19 66 37 68 41 2 5 9 8 15 8 15 0 267 127 322 162 22 14 51 29
65 33 14 4 63 29 110 54 47 26 134 71 195 101 155 78 234 164 223 242 -2 19
-9 23 -33 22 -32 -2 -199 -76 -210 -94 -3 -6 -15 -10 -26 -10 -11 0 -39 -11
-62 -24 -23 -13 -53 -27 -67 -31 -14 -4 -39 -18 -57 -31 -17 -13 -37 -24 -43
-24 -7 0 -29 -8 -49 -18 -20 -11 -70 -35 -111 -54 -130 -62 -324 -158 -360
-178 -19 -11 -120 -61 -225 -111 -104 -50 -320 -156 -480 -234 -467 -229 -698
-341 -735 -355 -19 -8 -46 -21 -60 -30 -14 -9 -46 -25 -72 -35 -26 -10 -53
-24 -59 -31 -6 -7 -26 -16 -45 -20 -19 -3 -37 -10 -39 -15 -3 -4 -31 -20 -63
-34 -124 -58 -710 -346 -772 -380 -21 -11 -78 -38 -220 -104 -14 -6 -50 -25
-80 -41 -30 -17 -82 -43 -115 -57 -33 -15 -169 -80 -302 -145 -132 -65 -245
-118 -251 -118 -5 0 -45 -20 -88 -44 -44 -24 -90 -47 -104 -51 -14 -4 -32 -13
-40 -20 -8 -7 -64 -33 -125 -60 -122 -52 -233 -103 -312 -143 -49 -24 -56 -25
-100 -14 -50 13 -235 104 -337 166 -33 20 -68 36 -78 36 -10 0 -18 4 -18 9 0
4 -26 20 -57 35 -32 15 -69 34 -83 42 -14 7 -45 23 -70 35 -79 36 -125 61
-140 74 -8 7 -105 59 -215 116 -110 56 -229 120 -265 142 -91 55 -122 73 -230
129 -52 27 -113 60 -135 72 -22 13 -65 37 -95 53 -30 17 -84 49 -120 70 -36
22 -106 60 -157 85 -50 25 -105 55 -121 67 -17 11 -33 21 -36 21 -4 0 -35 18
-68 40 -34 22 -66 40 -70 40 -5 0 -30 15 -56 33 -26 18 -80 50 -121 70 -40 21
-85 46 -100 55 -14 10 -55 33 -91 52 -97 50 -133 71 -150 84 -8 7 -22 16 -30
20 -8 3 -33 17 -55 30 -22 13 -69 39 -105 57 -36 18 -104 57 -152 86 -48 29
-129 75 -180 103 -51 28 -100 55 -108 60 -8 5 -37 19 -65 31 -27 12 -59 30
-70 39 -11 10 -40 29 -65 42 -25 14 -69 39 -98 57 -30 17 -68 38 -85 46 -18 8
-41 20 -52 27 -70 43 -93 56 -114 63 -13 4 -82 40 -153 81 -72 41 -132 74
-135 74 -2 0 -37 20 -77 45 -41 25 -77 45 -80 45 -3 0 -43 21 -88 47 -97 54
-329 177 -375 198 -17 8 -51 28 -75 44 -24 15 -54 32 -68 36 -14 4 -32 13 -40
19 -8 7 -53 31 -99 55 -47 23 -90 46 -97 52 -17 14 -440 232 -473 243 -9 3
-36 18 -61 34 -25 15 -67 36 -95 46 -27 11 -87 38 -131 61 -53 27 -102 45
-138 49 -53 7 -58 6 -86 -23z"/>
<path d="M10000 3348 c-52 -85 -31 -173 33 -139 29 16 62 108 53 146 -5 20
-13 25 -36 25 -23 0 -35 -8 -50 -32z"/>
<path d="M10253 3253 c-8 -21 49 -71 127 -111 30 -16 69 -36 85 -45 17 -9 64
-32 106 -51 135 -60 208 -97 220 -112 6 -8 20 -14 31 -14 10 0 36 -9 56 -20
98 -51 276 -115 293 -105 22 14 7 45 -31 65 -22 11 -40 25 -40 30 0 5 -10 12
-22 16 -12 3 -62 28 -111 55 -50 27 -107 54 -127 59 -20 5 -127 55 -237 110
-111 55 -208 100 -216 100 -9 0 -36 9 -62 20 -57 24 -64 25 -72 3z"/>
<path d="M8695 3079 c-10 -15 36 -56 73 -65 15 -4 61 -24 103 -44 41 -21 86
-41 99 -45 13 -4 45 -20 72 -36 27 -16 54 -29 60 -29 6 0 99 -43 207 -96 108
-52 223 -108 256 -124 33 -15 103 -48 155 -73 52 -24 124 -58 160 -75 36 -16
108 -50 160 -75 177 -85 212 -97 224 -78 14 23 -17 44 -182 126 -97 48 -204
101 -237 118 -69 36 -220 110 -345 169 -84 40 -104 49 -137 67 -10 6 -54 26
-98 46 -44 20 -102 47 -130 60 -27 13 -70 31 -95 40 -25 9 -72 30 -105 45
-133 63 -228 90 -240 69z"/>
<path d="M5158 2476 c-59 -6 -111 -15 -116 -21 -9 -10 -5 -55 18 -220 6 -44
13 -120 16 -170 2 -49 8 -112 13 -140 5 -27 13 -77 16 -110 14 -119 80 -290
119 -305 40 -15 156 -32 180 -26 13 3 37 -1 55 -10 59 -29 279 -39 456 -21 53
6 54 23 15 277 -36 231 -43 261 -59 270 -27 14 -268 31 -333 24 -79 -9 -100
-28 -88 -81 5 -21 11 -50 14 -64 4 -20 24 -37 76 -68 38 -23 70 -48 70 -55 0
-8 -8 -24 -18 -36 -15 -19 -24 -21 -64 -15 -55 8 -113 52 -122 92 -4 16 -13
82 -20 148 -12 103 -19 146 -38 224 -2 8 12 25 31 38 31 21 43 23 109 18 40
-2 99 -11 130 -19 90 -24 196 -19 214 8 25 38 -29 207 -75 235 -11 7 -54 15
-96 17 -42 3 -109 9 -149 14 -89 12 -212 11 -354 -4z"/>
<path d="M6035 2429 c-98 -16 -98 -16 -91 -57 9 -62 33 -248 55 -422 28 -233
51 -398 63 -445 8 -35 15 -43 52 -58 62 -26 232 -44 478 -52 253 -8 229 -19
248 123 14 101 9 154 -32 317 -11 44 -22 94 -25 110 -2 17 -10 44 -18 60 -29
67 -52 172 -60 281 -3 52 -8 62 -37 87 -18 16 -43 33 -55 37 -23 10 -369 31
-468 29 -33 -1 -82 -5 -110 -10z m75 -111 c0 -21 50 -388 60 -443 5 -27 16
-96 24 -153 9 -56 21 -110 27 -120 6 -10 41 -26 78 -37 66 -19 66 -19 31 -26
-46 -10 -130 7 -146 29 -7 9 -18 55 -24 102 -6 47 -15 108 -20 135 -5 28 -14
100 -20 160 -6 61 -16 133 -20 160 -15 83 -23 183 -15 194 9 15 25 14 25 -1z
m342 -125 c27 -24 36 -73 47 -251 6 -90 16 -181 22 -202 18 -58 9 -67 -65 -75
-77 -9 -106 -3 -141 28 -24 21 -26 30 -47 255 -15 167 -18 236 -11 243 31 31
162 32 195 2z"/>
<path d="M3242 2398 c-27 -27 -13 -61 48 -120 33 -32 60 -61 60 -65 0 -3 18
-33 40 -67 108 -166 174 -213 283 -201 57 6 67 4 127 -26 36 -19 70 -37 75
-41 33 -27 88 -61 142 -88 34 -18 64 -38 67 -46 3 -8 13 -14 23 -14 10 0 32
-9 48 -20 17 -12 46 -28 65 -36 19 -8 37 -19 40 -23 3 -5 68 -41 145 -81 77
-39 147 -77 155 -85 8 -7 26 -16 40 -20 14 -4 38 -18 53 -31 16 -13 35 -24 44
-24 8 0 42 -16 74 -35 33 -19 66 -35 73 -35 7 0 21 -8 30 -19 9 -10 30 -21 45
-24 16 -3 42 -17 59 -31 16 -15 37 -26 45 -26 9 0 18 -4 22 -10 3 -5 86 -49
184 -98 233 -116 258 -132 357 -229 46 -46 91 -83 101 -83 10 0 34 -13 53 -28
19 -16 55 -39 80 -52 25 -14 54 -32 65 -41 24 -20 153 -89 166 -89 6 0 19 -9
30 -19 23 -21 190 -91 219 -91 30 0 30 27 -1 66 -34 44 -35 50 -9 64 20 11 85
5 105 -10 16 -11 101 -30 137 -30 40 0 58 15 58 47 0 17 -11 29 -44 46 -80 40
-309 154 -386 192 -41 20 -115 58 -165 86 -130 71 -316 165 -344 174 -14 4
-29 11 -35 16 -31 26 -124 82 -182 110 -35 18 -67 36 -70 40 -2 4 -21 13 -42
20 -20 6 -44 17 -52 24 -8 6 -64 38 -125 70 -113 59 -125 66 -210 120 -27 18
-97 53 -155 80 -58 26 -114 55 -125 64 -26 22 -240 141 -255 141 -6 0 -29 12
-53 27 -23 15 -64 39 -92 54 -27 14 -82 44 -121 66 -40 22 -83 43 -98 47 -27
7 -56 51 -56 86 0 12 -4 30 -10 40 -10 18 -142 87 -195 101 -16 4 -79 28 -140
52 -142 57 -138 55 -155 66 -73 43 -211 66 -238 39z m2537 -1419 c36 -17 78
-37 93 -45 14 -8 31 -14 38 -14 33 0 230 -111 230 -130 0 -5 -10 -12 -22 -16
-13 -3 -31 -14 -41 -22 -17 -15 -24 -13 -100 25 -45 23 -107 53 -137 67 -67
32 -88 49 -123 101 -29 42 -34 65 -16 65 6 0 41 -14 78 -31z"/>
</g>
</svg>
