<?xml version="1.0" standalone="no"?>
<!DOCTYPE svg PUBLIC "-//W3C//DTD SVG 20010904//EN"
 "http://www.w3.org/TR/2001/REC-SVG-20010904/DTD/svg10.dtd">
<svg version="1.0" xmlns="http://www.w3.org/2000/svg"
 width="1543.000000pt" height="984.000000pt" viewBox="0 0 1543.000000 984.000000"
 preserveAspectRatio="xMidYMid meet">
<metadata>
Created by potrace 1.14, written by Peter Selinger 2001-2017
</metadata>
<g transform="translate(0.000000,984.000000) scale(0.100000,-0.100000)"
fill="#000000" stroke="none">
<path d="M7806 9793 c-20 -25 -36 -49 -36 -52 0 -3 -13 -15 -30 -26 -16 -11
-37 -34 -47 -52 -10 -18 -21 -33 -24 -33 -4 0 -29 -28 -56 -62 -62 -78 -230
-250 -303 -309 -59 -48 -135 -99 -147 -99 -16 0 -139 -86 -170 -118 -18 -19
-33 -40 -33 -49 0 -8 16 -29 35 -46 28 -25 35 -38 35 -68 0 -21 4 -40 9 -43 5
-3 14 -27 21 -53 14 -56 22 -63 76 -63 52 0 155 69 190 127 13 22 35 48 49 57
63 41 180 24 240 -34 36 -35 181 -159 212 -181 12 -8 28 -36 35 -62 l12 -47
-39 -41 c-22 -22 -52 -47 -68 -55 -28 -15 -77 -83 -77 -107 0 -7 29 -39 64
-71 60 -53 111 -89 347 -241 51 -33 109 -78 129 -99 128 -143 149 -153 194
-93 15 19 26 39 26 45 0 31 325 266 455 329 100 49 239 125 255 140 12 11 14
38 12 141 -3 117 -5 131 -30 172 -15 25 -34 61 -43 80 -33 72 -149 250 -246
380 -134 178 -328 377 -421 432 -22 13 -64 40 -93 60 -46 31 -95 56 -214 109
-67 29 -239 79 -274 79 -5 0 -25 -21 -45 -47z m410 -230 c71 -32 109 -60 238
-178 154 -141 206 -217 159 -231 -10 -3 -63 -27 -118 -54 -55 -26 -110 -51
-122 -54 -13 -4 -26 -20 -33 -40 -6 -18 -29 -53 -51 -77 -22 -24 -53 -63 -70
-86 -16 -24 -37 -43 -45 -43 -19 0 -69 -54 -84 -91 -14 -32 -57 -53 -87 -42
-12 4 -68 51 -125 103 -57 52 -140 126 -185 164 -57 47 -83 76 -83 91 0 25 28
56 185 200 66 61 135 125 155 143 19 19 39 37 45 40 6 4 16 20 23 35 7 17 27
34 48 43 26 11 41 26 55 59 11 25 24 45 28 45 5 0 35 -12 67 -27z m798 -1050
c9 -21 1 -30 -52 -58 -103 -55 -181 -105 -206 -134 -11 -11 -23 -21 -28 -21
-4 0 -17 -8 -28 -17 -11 -10 -44 -37 -72 -61 -29 -23 -77 -63 -106 -87 -29
-25 -57 -45 -62 -45 -5 0 -16 -13 -25 -30 -18 -34 -35 -39 -35 -10 0 11 4 20
9 20 5 0 19 15 30 33 46 75 219 226 312 272 54 27 161 103 168 118 6 16 63 45
77 40 7 -2 15 -11 18 -20z"/>
<path d="M6592 9354 c-12 -8 -32 -36 -43 -62 -27 -59 -36 -218 -20 -380 11
-118 32 -182 70 -216 14 -13 21 -31 21 -54 0 -33 -1 -34 -32 -28 -18 3 -44 9
-58 12 -59 15 -231 22 -320 13 -95 -10 -137 -20 -198 -45 -43 -18 -125 -18
-187 2 -73 22 -185 35 -207 23 -20 -11 -24 -50 -8 -78 5 -10 28 -26 50 -35 35
-14 39 -19 31 -35 -6 -10 -29 -26 -51 -35 -46 -18 -208 -173 -234 -224 -9 -18
-21 -32 -27 -32 -5 0 -14 -12 -19 -26 -10 -25 -42 -68 -108 -144 -18 -21 -41
-64 -52 -96 -11 -32 -33 -72 -48 -89 -16 -16 -40 -46 -54 -65 -14 -19 -35 -45
-47 -57 -69 -73 -43 -212 47 -251 48 -20 348 -30 381 -13 26 15 28 56 4 105
-21 41 -28 44 -43 16 -10 -18 -18 -20 -78 -15 -116 10 -127 14 -151 46 l-23
31 33 35 c42 43 87 63 159 72 60 7 59 5 44 79 -9 47 34 129 113 216 35 38 63
72 63 77 0 5 7 9 16 9 18 0 18 -2 -16 -94 -19 -54 -20 -60 -5 -82 29 -44 84
-30 163 41 48 43 53 51 50 84 -3 30 -10 39 -43 58 -22 13 -50 22 -62 20 -13
-2 -28 2 -35 10 -10 13 -5 22 28 52 56 50 86 71 100 71 6 0 39 -34 73 -76 81
-98 91 -97 112 21 8 50 21 104 27 120 7 17 14 35 17 41 5 17 183 29 410 28
200 0 323 -16 433 -55 30 -10 60 -19 67 -19 8 0 67 -32 131 -71 143 -86 220
-163 300 -297 81 -135 106 -220 107 -354 0 -64 -5 -113 -11 -121 -6 -7 -14
-33 -18 -57 -4 -25 -13 -54 -21 -66 -7 -12 -11 -28 -8 -36 3 -8 -10 -47 -30
-86 -19 -39 -35 -76 -35 -81 0 -5 -7 -11 -14 -14 -8 -3 -20 -24 -26 -45 -14
-52 -39 -83 -104 -126 -67 -44 -102 -103 -84 -141 14 -31 35 -31 92 -1 94 50
181 77 225 70 48 -8 51 -19 16 -71 -135 -209 -277 -313 -458 -337 -42 -6 -67
-21 -67 -42 0 -23 41 -37 109 -36 166 1 412 158 511 326 28 49 35 72 38 128 5
83 -17 152 -59 186 -16 13 -29 29 -29 37 0 21 64 114 83 121 11 3 26 -1 36
-10 10 -9 22 -16 27 -16 6 0 20 -9 32 -20 22 -21 145 -100 215 -138 39 -22 52
-23 159 -20 112 4 120 6 190 41 104 53 172 107 176 139 2 14 -6 62 -17 106
-29 110 -28 132 5 132 14 0 34 -4 44 -10 28 -15 53 -2 46 24 -4 11 -9 42 -13
68 -12 92 -99 219 -249 360 -50 47 -200 162 -266 203 -26 17 -94 60 -150 97
-57 37 -108 68 -115 68 -6 0 -24 11 -40 24 -15 12 -66 45 -113 72 -101 57
-304 191 -413 271 -116 86 -283 266 -356 385 -38 63 -121 262 -121 292 0 29
-22 86 -33 86 -7 0 -23 -7 -35 -16z m876 -1113 c42 -22 88 -44 102 -50 14 -6
32 -15 40 -21 8 -5 31 -16 50 -25 19 -8 49 -24 65 -35 17 -11 46 -28 66 -39
19 -11 41 -27 48 -35 8 -9 18 -16 24 -16 48 0 377 -330 377 -379 0 -9 4 -21
10 -27 20 -20 60 -139 60 -180 0 -24 5 -55 11 -70 7 -20 7 -42 -2 -76 -10 -43
-17 -53 -63 -81 -102 -65 -245 -89 -314 -53 l-33 17 40 39 c93 90 121 221 80
375 -12 48 -28 92 -34 99 -6 6 -14 18 -17 27 -10 26 -152 191 -194 226 -22 17
-58 47 -81 65 -23 18 -75 59 -115 91 -40 32 -106 80 -145 108 -40 27 -73 56
-73 64 0 22 13 19 98 -24z"/>
<path d="M1634 9306 c-44 -24 -82 -56 -199 -168 -61 -58 -76 -80 -105 -150
-31 -76 -34 -91 -33 -183 0 -98 1 -102 45 -190 65 -129 84 -160 173 -286 113
-160 127 -193 132 -309 5 -141 32 -369 50 -415 8 -22 22 -65 32 -95 21 -66 91
-210 101 -210 4 0 13 -13 19 -28 13 -30 144 -156 219 -209 58 -42 120 -65 163
-61 70 6 39 71 -69 142 -126 83 -213 208 -249 361 -19 82 -62 323 -74 415 -5
41 -13 98 -18 125 -10 63 -68 221 -92 257 -11 14 -19 30 -19 36 0 5 -12 26
-26 48 -14 21 -34 52 -43 68 -9 17 -29 49 -44 72 -24 36 -67 136 -67 156 0 18
23 5 72 -39 29 -27 78 -72 110 -102 48 -45 60 -52 73 -41 21 17 19 63 -4 108
-11 20 -72 86 -136 146 -117 110 -156 159 -137 178 20 20 58 -2 167 -98 60
-52 119 -101 130 -106 11 -6 24 -17 28 -24 12 -20 45 -17 57 5 18 34 -32 111
-129 197 -96 87 -136 133 -122 147 10 10 66 -16 96 -45 208 -198 289 -258 388
-292 53 -18 97 -21 97 -7 0 25 -107 136 -323 336 -76 69 -92 95 -61 95 19 0
114 -60 114 -71 0 -5 15 -16 33 -25 17 -9 48 -31 67 -50 92 -90 152 -144 158
-144 4 0 30 -27 57 -60 28 -33 65 -77 84 -98 18 -20 42 -55 53 -77 12 -22 29
-51 39 -64 22 -28 25 -61 6 -61 -8 0 -52 28 -98 63 -120 89 -146 103 -221 122
-67 17 -69 17 -138 -6 -67 -22 -71 -25 -95 -73 -18 -37 -25 -66 -25 -110 0
-113 8 -135 56 -164 28 -17 52 -43 70 -75 24 -44 27 -62 34 -210 4 -93 13
-175 20 -192 7 -16 19 -45 27 -63 51 -118 192 -250 288 -272 89 -20 98 9 24
78 -102 94 -180 255 -194 401 l-7 74 44 -7 c34 -5 48 -3 58 8 17 21 -4 52
-107 159 -100 105 -161 204 -170 275 -5 42 -3 53 10 58 23 8 110 -22 179 -63
72 -42 202 -169 211 -205 4 -15 18 -44 32 -64 14 -20 25 -44 25 -53 0 -9 7
-34 14 -56 21 -60 46 -177 62 -290 7 -55 19 -122 25 -150 6 -27 19 -88 29
-135 10 -47 30 -111 44 -143 14 -32 26 -63 26 -71 0 -16 -254 -247 -295 -268
-17 -9 -39 -26 -50 -38 -11 -12 -58 -50 -105 -83 -46 -33 -90 -66 -97 -73 -17
-16 -16 -45 1 -69 12 -17 18 -18 52 -7 92 28 315 176 370 243 38 48 217 211
261 239 27 17 51 26 61 22 25 -9 101 -68 135 -105 59 -64 56 -111 -11 -154
-15 -10 -38 -31 -52 -48 -14 -16 -36 -38 -49 -50 -13 -11 -56 -52 -95 -91 -39
-39 -80 -76 -90 -81 -11 -6 -47 -36 -80 -66 -180 -165 -258 -227 -285 -227
-16 0 -131 -103 -131 -117 0 -20 46 -107 86 -162 18 -27 34 -53 34 -58 0 -5
11 -20 25 -33 14 -13 25 -28 25 -33 0 -5 24 -34 53 -65 98 -104 352 -365 365
-376 15 -13 294 -281 427 -411 113 -111 165 -155 180 -155 6 0 24 -14 41 -31
28 -30 229 -170 337 -235 105 -63 197 -114 205 -114 5 0 15 -7 22 -14 6 -8 28
-20 48 -27 20 -6 51 -22 69 -35 17 -13 39 -24 47 -24 9 0 38 -13 64 -30 27
-16 53 -30 58 -30 5 0 34 -12 64 -27 30 -14 62 -29 70 -33 8 -4 18 -22 22 -41
4 -19 20 -92 36 -164 42 -187 55 -269 50 -299 -3 -14 -2 -26 2 -26 21 0 50
-266 50 -456 0 -96 -25 -276 -44 -313 -7 -14 -16 -42 -20 -61 -7 -38 -47 -90
-84 -109 -32 -17 -51 -3 -230 172 -37 35 -85 74 -107 85 -22 11 -46 30 -53 41
-7 12 -18 21 -25 21 -6 1 -33 20 -59 44 -27 23 -89 67 -139 97 -50 30 -107 64
-127 77 -40 24 -133 70 -197 97 -22 9 -58 25 -80 35 -79 37 -112 49 -158 59
-25 6 -81 23 -124 37 -68 23 -127 35 -238 49 -16 2 -43 9 -60 16 -20 8 -108
14 -270 17 -341 5 -478 -13 -615 -83 -82 -42 -86 -45 -103 -95 -17 -48 -18
-53 -2 -77 14 -21 22 -24 48 -18 18 3 154 8 302 11 286 6 570 -11 651 -39 21
-8 68 -17 104 -21 36 -4 69 -11 75 -15 5 -4 44 -16 85 -26 65 -15 194 -55 310
-96 19 -7 57 -23 84 -36 28 -13 56 -23 63 -23 7 0 13 -4 13 -10 0 -5 8 -10 17
-10 9 0 24 -6 32 -14 9 -8 57 -34 106 -59 50 -25 121 -68 160 -96 38 -28 74
-51 80 -51 5 0 30 -16 55 -36 25 -20 68 -53 95 -74 28 -21 94 -81 147 -134 54
-53 104 -96 111 -96 20 0 105 29 162 55 130 60 166 73 212 80 47 6 51 5 57
-17 8 -26 22 -110 36 -218 20 -156 51 -275 97 -370 17 -36 36 -83 43 -105 7
-22 23 -51 35 -65 13 -14 35 -50 50 -80 15 -30 43 -74 61 -97 19 -23 34 -44
34 -47 0 -21 213 -252 281 -305 24 -19 53 -42 64 -53 54 -50 121 -98 137 -98
10 0 18 -7 18 -15 0 -8 5 -15 11 -15 6 0 48 -24 92 -54 45 -29 108 -64 141
-77 82 -33 82 -35 10 -112 -17 -18 -35 -39 -40 -48 -5 -8 -20 -23 -33 -31 -13
-9 -49 -41 -81 -70 -32 -29 -70 -63 -84 -75 -28 -23 -252 -135 -296 -148 -14
-4 -41 -16 -61 -26 -62 -31 -274 -73 -384 -75 -115 -2 -318 32 -424 72 -35 13
-71 24 -81 24 -22 0 -182 82 -271 138 -36 23 -69 42 -73 42 -4 0 -38 27 -75
60 -37 33 -73 60 -79 60 -7 0 -87 73 -178 163 -91 89 -171 165 -178 169 -7 4
-39 11 -72 17 -81 12 -164 -2 -247 -44 -38 -19 -80 -35 -93 -35 -37 0 -112 43
-180 103 -84 73 -110 83 -171 64 -26 -9 -63 -19 -82 -22 -32 -7 -100 -41 -111
-56 -3 -4 -21 -14 -40 -23 -19 -9 -49 -25 -66 -36 -31 -20 -131 -60 -214 -85
-25 -8 -74 -24 -110 -35 -36 -12 -83 -26 -105 -32 -22 -6 -50 -18 -63 -25 -61
-37 -303 -100 -336 -87 -24 9 -46 63 -56 140 -13 101 -35 160 -61 167 -30 8
-83 -10 -109 -38 -22 -24 -23 -28 -17 -140 7 -113 31 -198 82 -295 7 -14 23
-46 35 -73 26 -56 30 -57 182 -27 191 38 333 87 538 187 74 36 142 69 150 74
8 5 35 19 60 32 43 23 119 68 188 111 17 12 34 28 37 37 3 10 26 22 53 29 l47
12 32 -37 c18 -21 37 -52 43 -69 10 -31 52 -64 100 -78 92 -26 101 -26 155 -8
61 21 98 42 140 81 28 26 101 59 131 59 12 0 44 -42 109 -144 11 -17 41 -54
67 -81 26 -28 48 -54 48 -58 0 -11 196 -206 267 -266 64 -54 230 -169 258
-177 11 -4 32 -15 46 -25 14 -10 59 -30 100 -45 41 -14 83 -30 94 -35 47 -21
83 -31 135 -40 30 -5 80 -14 110 -19 93 -18 372 -12 470 9 200 45 321 96 485
206 33 22 69 49 81 60 11 11 36 31 55 45 69 50 153 138 266 278 126 157 119
153 198 117 81 -37 117 -47 330 -85 46 -9 231 -24 265 -22 8 1 77 1 152 2 90
0 151 5 175 14 21 7 70 24 108 37 91 30 272 138 346 207 53 49 137 161 152
204 11 31 -14 35 -123 23 -126 -14 -150 -9 -285 56 -128 63 -207 123 -216 166
-8 40 4 52 93 87 36 14 89 37 116 51 27 14 54 25 60 25 19 0 228 113 320 173
71 46 54 75 -33 57 -40 -8 -75 -8 -127 -1 -40 6 -91 13 -113 15 -74 8 -190 68
-255 131 -33 31 -60 63 -60 70 0 7 6 26 14 42 36 70 106 225 106 234 0 5 8 26
19 47 18 36 111 308 144 422 59 205 91 433 91 660 0 221 -19 352 -78 523 -29
87 -39 127 -30 127 7 0 61 -25 121 -56 116 -61 205 -129 236 -181 10 -18 25
-33 33 -33 8 0 14 -4 14 -9 0 -4 22 -41 48 -82 52 -78 68 -120 108 -264 23
-85 24 -100 18 -255 -3 -91 -12 -190 -19 -220 -7 -30 -18 -89 -25 -130 -6 -41
-18 -93 -25 -115 -7 -22 -18 -62 -25 -90 -26 -105 -54 -192 -75 -235 -12 -25
-25 -58 -29 -75 -4 -16 -25 -55 -46 -86 -21 -31 -42 -73 -45 -93 -4 -20 -15
-46 -25 -59 -24 -30 -37 -149 -18 -164 17 -14 195 1 258 21 93 30 131 47 169
73 21 16 48 35 60 43 27 19 138 160 169 214 25 46 64 127 86 181 18 42 34 44
100 10 27 -14 57 -25 65 -25 9 0 25 -6 36 -13 52 -35 366 -69 607 -66 160 2
337 33 447 79 231 95 371 223 387 352 9 73 9 73 -203 74 -249 1 -400 33 -543
113 -8 5 -35 19 -60 31 -70 36 -168 110 -175 134 -7 25 -25 258 -24 331 0 82
-30 462 -46 570 -26 181 -99 448 -141 512 -8 12 -14 29 -14 36 0 29 -129 253
-188 326 -63 78 -196 209 -232 229 -39 21 -64 77 -41 91 14 9 131 -15 145 -30
6 -5 17 -9 25 -9 17 0 173 -61 181 -70 9 -12 126 -40 163 -40 21 0 53 -6 71
-14 18 -7 53 -17 77 -21 24 -4 52 -11 61 -16 10 -5 57 -21 105 -34 229 -65
271 -76 308 -86 22 -5 83 -23 135 -39 89 -28 212 -60 305 -80 57 -11 201 -48
260 -65 28 -8 85 -21 128 -30 43 -8 86 -19 97 -25 10 -5 27 -10 38 -10 10 0
48 -8 83 -19 99 -29 145 -40 261 -66 58 -12 128 -30 155 -39 26 -8 68 -18 93
-22 54 -8 373 -88 415 -104 16 -6 61 -18 100 -25 73 -15 135 -32 318 -87 78
-24 107 -36 107 -48 0 -9 -26 -39 -57 -66 -135 -116 -136 -118 -130 -178 3
-30 16 -72 29 -95 42 -74 90 -78 213 -21 92 43 150 51 195 25 14 -8 36 -14 50
-15 14 0 39 -8 55 -18 17 -10 57 -29 90 -42 33 -13 87 -41 120 -62 33 -20 89
-54 125 -74 36 -20 79 -47 95 -59 17 -12 44 -29 62 -38 17 -9 37 -22 45 -29
34 -33 139 -91 185 -102 15 -4 37 -16 49 -27 29 -28 123 -58 197 -64 86 -8
189 17 437 106 36 13 83 39 105 59 57 51 147 102 250 143 84 32 118 44 280 96
164 52 269 101 289 133 8 13 5 28 -12 63 -27 56 -40 57 -156 10 -48 -19 -93
-35 -100 -35 -7 0 -25 -9 -39 -20 -14 -11 -31 -20 -39 -20 -8 0 -31 -9 -53
-20 -22 -11 -46 -20 -55 -20 -8 0 -28 -9 -45 -20 -42 -29 -192 -100 -210 -100
-8 0 -29 -8 -47 -18 -152 -84 -543 -132 -728 -89 -71 17 -375 158 -425 198
-61 48 -317 179 -351 179 -11 0 -47 10 -79 22 -38 13 -93 23 -150 26 -49 2
-94 8 -99 13 -16 15 25 49 78 64 63 18 68 18 238 10 126 -5 142 -4 185 15 65
29 83 47 83 86 0 37 -29 64 -67 64 -14 0 -33 14 -50 37 -15 20 -41 50 -58 66
-32 32 -207 185 -258 227 -17 14 -51 44 -75 68 -51 51 -47 62 28 81 57 15 157
3 245 -29 50 -18 171 -40 220 -40 18 0 39 14 71 49 64 69 86 76 170 56 38 -10
79 -23 91 -31 12 -8 29 -14 37 -14 9 0 41 -13 73 -29 32 -16 83 -36 114 -44
48 -12 62 -12 95 -1 22 8 65 15 96 16 46 2 64 -2 87 -20 17 -12 34 -22 38 -22
16 0 95 -58 161 -118 157 -142 194 -158 341 -148 87 6 104 11 181 50 47 24
109 60 139 80 76 52 131 61 131 21 0 -9 11 -36 25 -61 14 -25 25 -52 25 -61 0
-9 20 -57 44 -107 24 -50 47 -102 51 -115 4 -14 25 -61 47 -104 22 -44 51
-109 64 -144 52 -138 135 -248 210 -279 47 -20 66 -18 195 16 63 16 123 30
134 30 39 0 123 51 140 85 13 29 21 95 11 95 -2 0 -26 4 -54 10 -48 9 -194 -8
-222 -25 -12 -7 -100 -30 -153 -39 l-37 -7 -39 83 c-22 46 -53 115 -69 153
-85 205 -263 559 -318 636 -54 74 -74 106 -74 120 0 28 42 46 132 57 52 6 142
26 203 46 91 29 119 44 163 82 62 54 68 85 22 109 -41 21 -91 19 -153 -8 -29
-13 -84 -30 -122 -37 -79 -15 -194 -67 -245 -110 -18 -16 -50 -36 -71 -45 -21
-10 -40 -24 -44 -33 -5 -15 31 -139 47 -157 4 -5 8 -19 8 -31 0 -37 -153 -127
-260 -152 -52 -12 -71 -3 -229 104 -51 35 -95 64 -97 64 -3 0 -15 9 -27 20
-12 12 -64 42 -116 67 -130 63 -216 72 -371 38 -20 -5 -35 3 -73 40 -26 26
-74 58 -105 73 -49 23 -70 26 -155 27 l-98 0 -34 -36 c-49 -54 -75 -69 -120
-69 -45 1 -151 33 -174 54 -34 30 -131 49 -220 42 -114 -9 -193 -47 -283 -136
-38 -37 -68 -73 -68 -79 0 -6 -12 -25 -27 -42 -26 -28 -31 -30 -73 -24 -25 4
-76 15 -115 25 -38 11 -104 26 -145 34 -110 21 -341 75 -352 82 -10 6 -170 49
-243 64 -22 5 -67 16 -100 25 -33 10 -91 25 -130 35 -38 10 -95 25 -125 34
-30 10 -75 21 -100 27 -24 5 -69 18 -100 28 -30 10 -113 35 -185 56 -169 49
-249 72 -310 90 -27 8 -97 26 -154 41 -57 14 -113 29 -125 34 -11 4 -70 22
-131 40 -60 18 -153 45 -205 60 -52 16 -144 43 -205 60 -60 18 -159 47 -220
65 -60 18 -155 45 -210 60 -55 15 -111 30 -125 35 -14 4 -52 15 -85 25 -33 9
-71 21 -83 26 -13 5 -72 21 -130 35 -59 13 -118 29 -132 35 -14 5 -48 13 -75
18 -44 8 -170 43 -363 102 -34 10 -70 19 -80 19 -9 0 -49 11 -89 25 -39 13
-107 31 -150 40 -43 9 -91 22 -108 30 -16 7 -58 17 -93 21 -57 6 -65 5 -87
-16 -34 -31 -32 -58 3 -65 15 -4 47 -15 72 -25 25 -11 88 -31 140 -45 52 -15
137 -39 188 -56 51 -16 100 -29 109 -29 9 0 41 -7 72 -16 31 -9 88 -25 126
-36 80 -23 127 -37 240 -73 44 -13 142 -40 218 -59 75 -19 142 -38 149 -42 6
-4 28 -11 47 -15 53 -11 214 -56 316 -88 50 -16 117 -36 150 -45 33 -10 112
-33 175 -52 63 -19 151 -45 195 -58 44 -13 105 -32 135 -41 81 -24 212 -61
320 -91 52 -14 142 -40 200 -58 58 -18 132 -39 165 -45 64 -13 127 -30 295
-81 58 -18 157 -45 220 -60 63 -15 144 -37 180 -48 36 -11 110 -30 165 -42
115 -26 468 -117 505 -130 14 -5 43 -12 65 -16 68 -11 238 -56 260 -69 11 -6
65 -24 120 -40 226 -62 365 -124 365 -161 0 -19 -7 -18 -135 21 -49 15 -128
35 -175 45 -86 17 -213 49 -305 75 -27 8 -70 17 -95 21 -25 3 -97 20 -160 36
-131 35 -211 53 -290 69 -63 12 -249 55 -330 75 -94 25 -159 41 -320 79 -330
78 -450 107 -577 140 -72 19 -139 35 -149 35 -17 0 -103 22 -159 42 -16 5 -52
16 -80 24 -138 38 -198 54 -285 79 -52 15 -126 36 -165 47 -38 10 -101 30
-140 43 -38 13 -137 45 -220 71 -82 25 -170 54 -195 64 -106 41 -221 70 -310
79 -90 9 -238 41 -360 77 -30 9 -95 27 -145 41 -49 13 -108 30 -130 37 -22 8
-80 23 -130 35 -49 11 -130 30 -180 41 -74 18 -124 22 -282 23 -216 2 -241 -4
-190 -49 l28 -24 -24 -11 c-15 -7 -36 -7 -58 -2 -48 13 -50 46 -5 105 33 43
173 164 204 175 43 17 115 121 105 151 -6 17 -48 15 -89 -4 -20 -10 -87 -75
-157 -153 -66 -75 -149 -165 -183 -201 -77 -81 -138 -149 -245 -270 -46 -52
-105 -116 -131 -142 -27 -26 -48 -51 -48 -56 0 -8 -100 -127 -168 -199 -16
-18 -36 -33 -44 -33 -22 0 -202 186 -195 203 3 8 74 47 159 88 246 119 292
143 296 156 7 23 -28 26 -76 5 -26 -11 -67 -22 -91 -26 -24 -4 -56 -15 -70
-25 -14 -9 -65 -35 -113 -56 -78 -34 -93 -37 -145 -32 -78 8 -124 33 -212 117
-106 100 -122 95 -91 -26 10 -43 17 -89 14 -101 -15 -56 -89 4 -98 80 -3 23
-8 77 -12 120 -7 94 -32 133 -76 122 -38 -10 -51 -52 -52 -169 -1 -100 -1
-102 37 -162 20 -34 37 -68 37 -76 0 -35 193 -175 294 -213 35 -13 59 -33 88
-68 49 -63 47 -84 -14 -115 -45 -23 -51 -24 -124 -13 -65 10 -90 20 -177 73
-56 34 -114 71 -128 82 -14 12 -38 30 -54 41 -16 11 -59 49 -96 83 -145 137
-207 353 -156 542 27 99 131 300 156 300 4 0 13 -11 19 -25 7 -14 20 -25 31
-25 11 0 25 -9 32 -21 18 -35 240 -249 258 -249 9 0 26 -7 37 -15 128 -89 501
-96 694 -13 19 9 53 21 75 28 33 10 165 71 249 115 10 6 55 28 100 51 78 39
101 65 63 72 -9 2 -46 -10 -80 -27 -35 -17 -68 -31 -73 -31 -5 0 -49 -21 -99
-47 l-90 -47 -107 0 c-107 -1 -107 -1 -140 -33 -27 -26 -43 -33 -73 -33 -38 0
-171 32 -210 50 -11 6 -45 18 -75 29 -116 39 -268 160 -351 278 -45 64 -117
231 -133 309 -8 38 -16 111 -17 160 -2 76 1 98 20 136 37 77 66 74 90 -9 19
-62 80 -182 118 -227 65 -80 198 -158 312 -186 72 -17 219 -15 275 4 129 44
306 218 322 315 10 60 -13 62 -81 7 -103 -84 -173 -110 -334 -125 -92 -9 -131
-8 -210 5 -104 17 -132 27 -196 76 -55 42 -131 156 -195 294 -36 75 -48 77
-115 16 -56 -51 -149 -85 -266 -97 -46 -5 -74 -3 -90 5 -37 20 -127 98 -141
124 -7 13 -25 46 -41 75 -29 55 -58 67 -77 32 -17 -32 31 -159 82 -217 26 -29
184 -139 273 -190 15 -9 20 -23 21 -60 0 -54 15 -126 46 -224 13 -42 19 -84
16 -120 l-3 -55 -130 3 c-133 3 -252 22 -373 61 -35 11 -82 26 -105 32 -39 10
-98 33 -202 80 -22 9 -56 24 -75 33 -101 44 -446 266 -514 331 -6 6 -40 33
-76 60 -76 57 -215 174 -282 236 -25 24 -83 78 -128 119 -136 125 -174 161
-195 181 -28 26 -54 23 -95 -11 -36 -32 -71 -38 -87 -17 -5 6 -20 45 -33 85
-20 63 -22 87 -18 185 3 61 10 132 16 157 46 188 64 354 46 428 -7 31 -13 71
-14 87 0 43 -77 238 -100 255 -3 3 -26 32 -50 65 -24 33 -49 64 -57 68 -7 4
-13 15 -13 22 0 8 -5 15 -10 15 -6 0 -28 17 -49 38 -21 20 -64 55 -95 77 -32
22 -81 62 -109 88 -29 27 -75 62 -102 78 -28 15 -74 49 -104 74 -29 25 -62 45
-72 45 -11 0 -45 24 -74 54 -64 63 -95 76 -184 75 -49 0 -77 -6 -107 -23z
m7191 -5862 c39 -108 152 -225 310 -321 96 -58 236 -122 290 -133 159 -33 216
-41 269 -38 63 3 83 -10 44 -29 -45 -21 -241 -76 -338 -94 -142 -27 -570 -19
-651 12 -15 6 -53 16 -85 24 -87 19 -222 74 -299 120 -87 53 -121 58 -131 20
-8 -31 -1 -79 17 -122 11 -26 10 -39 -1 -75 -15 -46 -90 -177 -124 -217 -73
-85 -156 -146 -156 -114 0 7 85 188 111 236 5 9 13 25 18 35 16 31 71 216 82
277 16 89 33 121 72 140 19 9 43 24 53 33 22 20 101 72 109 72 3 0 61 34 130
75 68 41 148 84 177 96 29 11 57 25 63 30 15 15 29 5 40 -27z"/>
<path d="M6635 8200 c-11 -5 -34 -9 -50 -9 -17 -1 -62 -12 -100 -25 -203 -70
-269 -96 -276 -109 -5 -8 -2 -23 8 -36 14 -20 21 -22 67 -16 28 4 84 18 124
31 86 29 104 30 246 15 85 -8 123 -17 180 -43 78 -35 106 -59 125 -107 10 -22
20 -31 37 -31 39 0 46 29 28 114 -16 69 -22 80 -73 132 -86 87 -101 94 -206
93 -49 0 -99 -4 -110 -9z"/>
<path d="M6248 7761 c-65 -33 -96 -60 -118 -107 -40 -82 -11 -154 63 -154 34
0 53 9 113 55 40 31 79 66 87 78 20 32 29 90 17 121 -9 24 -14 26 -67 26 -36
-1 -72 -8 -95 -19z"/>
<path d="M5027 7362 c-52 -46 -143 -85 -184 -78 -52 10 -116 36 -150 62 -19
14 -41 23 -48 20 -37 -14 0 -107 53 -138 36 -22 144 -48 196 -48 85 0 235 99
252 168 16 61 -56 70 -119 14z"/>
<path d="M5544 7315 c-10 -24 6 -106 28 -149 11 -22 46 -65 77 -96 46 -46 84
-70 211 -133 85 -41 179 -91 209 -110 55 -35 75 -38 85 -12 5 13 -16 34 -101
103 -23 18 -54 46 -70 61 -16 15 -53 44 -83 64 -210 142 -244 171 -272 230
-23 47 -32 57 -53 57 -14 0 -28 -7 -31 -15z"/>
<path d="M1645 4325 c-21 -13 -43 -34 -47 -46 -22 -58 -58 -275 -58 -345 0
-103 24 -287 44 -344 9 -25 16 -57 16 -71 0 -14 14 -79 31 -145 17 -65 37
-145 45 -177 37 -154 97 -173 109 -34 12 150 12 174 -2 336 -19 227 -31 554
-21 621 9 63 25 133 40 173 16 41 -3 57 -66 56 -34 -1 -64 -9 -91 -24z"/>
<path d="M1114 3378 c-67 -22 -85 -46 -95 -133 -11 -98 -11 -307 1 -355 5 -19
16 -73 26 -120 9 -46 20 -91 25 -100 4 -8 15 -40 24 -70 18 -60 70 -176 90
-200 7 -8 22 -31 32 -50 77 -140 92 -168 98 -190 4 -14 14 -33 22 -42 17 -20
102 -256 110 -307 3 -19 29 -73 58 -120 l53 -86 43 3 c63 4 98 21 105 49 4 14
1 66 -5 116 -11 84 -20 107 -97 263 -46 94 -84 177 -84 183 0 6 -4 11 -8 11
-4 0 -13 17 -19 38 -6 20 -22 69 -36 107 -14 39 -30 88 -36 110 -5 22 -19 76
-31 120 -25 93 -49 220 -60 320 -4 39 -10 77 -13 85 -3 8 -8 79 -10 156 -3 79
-10 151 -17 163 -27 52 -103 73 -176 49z"/>
<path d="M2905 3093 c-100 -5 -288 -31 -330 -46 -22 -8 -62 -17 -90 -21 -65
-9 -185 -42 -260 -71 -33 -12 -98 -35 -145 -51 -47 -15 -103 -39 -124 -53 -78
-52 -153 -93 -196 -108 -52 -18 -80 -56 -80 -107 0 -87 39 -91 227 -26 143 50
329 101 443 122 221 39 295 50 445 63 399 35 701 9 1100 -94 67 -17 91 -26
193 -72 23 -10 53 -19 65 -19 12 0 31 -6 42 -13 11 -8 67 -35 125 -62 58 -26
114 -55 125 -64 11 -9 37 -26 57 -36 45 -23 68 -10 68 41 0 29 -6 38 -42 60
-24 15 -59 40 -78 56 -19 15 -39 28 -44 28 -5 0 -41 21 -80 47 -96 63 -185
113 -202 113 -8 0 -14 3 -14 8 0 15 -184 101 -350 163 -263 100 -596 155 -855
142z"/>
<path d="M9 967 c-10 -22 -7 -31 17 -68 28 -40 33 -43 124 -66 52 -13 125 -30
162 -39 37 -8 86 -21 109 -29 23 -8 51 -15 62 -15 12 0 62 -11 111 -24 121
-33 225 -54 317 -66 41 -5 109 -16 150 -24 212 -44 453 -74 834 -105 352 -29
1105 -45 1126 -24 6 6 7 13 2 16 -5 3 -126 13 -268 22 -400 24 -753 54 -905
76 -223 31 -362 49 -394 49 -19 0 -55 4 -78 10 -24 5 -101 19 -173 31 -71 12
-166 30 -210 40 -44 10 -114 23 -155 28 -41 6 -93 17 -115 25 -22 9 -53 15
-70 16 -16 0 -64 9 -105 21 -112 31 -141 37 -188 44 -23 3 -73 17 -110 31
-142 54 -168 63 -199 69 -28 6 -34 3 -44 -18z"/>
<path d="M620 314 c0 -22 11 -30 84 -65 46 -21 91 -39 100 -39 9 0 49 -9 89
-19 39 -10 104 -24 142 -30 39 -7 99 -18 135 -26 111 -25 369 -55 695 -79 116
-9 233 -18 260 -21 28 -3 205 -7 395 -10 190 -3 372 -9 405 -15 80 -13 340
-13 407 1 29 6 78 15 108 21 30 5 91 21 136 35 162 50 143 60 -94 45 -239 -15
-825 -8 -1172 12 -290 18 -496 34 -521 42 -9 2 -83 11 -165 19 -263 27 -297
32 -579 80 -44 8 -100 18 -125 23 -25 5 -76 15 -114 21 -38 7 -77 16 -87 21
-10 6 -36 10 -58 10 -37 0 -41 -2 -41 -26z"/>
</g>
</svg>
