<?xml version="1.0" standalone="no"?>
<!DOCTYPE svg PUBLIC "-//W3C//DTD SVG 20010904//EN"
 "http://www.w3.org/TR/2001/REC-SVG-20010904/DTD/svg10.dtd">
<svg version="1.0" xmlns="http://www.w3.org/2000/svg"
 width="1057.000000pt" height="910.000000pt" viewBox="0 0 1057.000000 910.000000"
 preserveAspectRatio="xMidYMid meet">
<metadata>
Created by potrace 1.14, written by Peter Selinger 2001-2017
</metadata>
<g transform="translate(0.000000,910.000000) scale(0.100000,-0.100000)"
fill="#000000" stroke="none">
<path d="M4570 9088 c-206 -17 -509 -79 -518 -106 -2 -7 4 -32 13 -55 21 -53
21 -196 0 -317 -24 -129 -47 -232 -60 -265 -22 -53 -35 -101 -35 -126 0 -14
-9 -42 -20 -64 -11 -22 -20 -58 -20 -82 0 -37 -3 -43 -25 -49 -14 -3 -51 -2
-82 4 -84 14 -256 4 -335 -19 -134 -41 -231 -109 -277 -197 -14 -26 -6 -102
15 -143 15 -30 79 -89 97 -89 7 0 25 -7 40 -15 16 -8 47 -19 68 -25 49 -14 83
-45 74 -68 -12 -29 -25 -185 -19 -230 5 -34 11 -43 31 -48 33 -9 46 8 67 85
35 133 104 285 168 375 15 21 28 44 28 50 0 17 68 84 103 102 38 20 154 15
207 -8 51 -23 122 -38 179 -38 39 0 53 -4 61 -19 16 -30 12 -49 -20 -113 -34
-67 -34 -68 -17 -92 17 -23 43 -12 63 26 8 16 32 47 53 69 30 30 46 39 72 39
37 0 141 -28 204 -55 22 -10 60 -23 85 -30 124 -35 183 -56 241 -83 46 -21 85
-31 139 -35 119 -8 210 -34 243 -68 15 -16 27 -40 27 -54 0 -49 72 -87 99 -52
6 6 21 25 34 41 36 45 57 27 110 -94 9 -19 19 -64 23 -100 3 -36 10 -72 14
-80 4 -8 13 -69 20 -135 6 -66 13 -132 15 -146 3 -29 -14 -130 -25 -142 -4 -5
-23 -2 -41 6 -33 15 -76 54 -183 170 -55 58 -86 72 -86 38 0 -55 89 -186 180
-266 25 -22 47 -43 48 -48 7 -14 71 -35 146 -48 66 -10 81 -10 120 5 83 32 88
52 68 231 -25 214 -90 429 -163 537 -39 56 -47 82 -30 92 4 3 55 8 112 10 140
6 206 15 257 38 24 10 52 18 62 18 22 0 130 100 130 120 -1 34 -15 42 -56 31
-143 -38 -587 -32 -691 10 -45 17 -25 30 43 27 l65 -3 18 45 c10 25 27 79 36
120 10 41 29 95 42 119 13 24 23 50 23 57 0 13 33 68 69 115 11 14 26 39 33
55 14 31 101 138 156 192 30 30 33 38 27 69 -3 20 -12 45 -18 56 -30 53 -162
220 -186 235 -14 9 -59 42 -98 73 -62 50 -111 80 -263 164 -96 54 -357 145
-413 145 -11 0 -48 7 -81 15 -75 19 -351 32 -466 23z m175 -199 c33 -5 83 -9
110 -9 28 -1 77 -7 110 -15 33 -8 75 -15 94 -15 18 0 65 -12 103 -27 l70 -28
-6 -60 c-4 -47 -11 -65 -30 -82 -34 -29 -42 -66 -22 -95 21 -30 20 -37 -7 -47
-23 -9 -26 -14 -68 -108 -20 -44 -28 -52 -54 -55 -23 -2 -33 -11 -44 -36 l-15
-33 -70 6 c-39 3 -116 12 -171 20 -55 8 -140 19 -189 24 -50 6 -94 15 -99 20
-12 12 -10 278 3 354 11 71 56 173 84 193 22 15 67 13 201 -7z"/>
<path d="M8580 8455 c-362 -36 -597 -79 -685 -124 -33 -17 -65 -31 -71 -31
-20 0 -104 -81 -104 -100 0 -30 26 -31 128 -4 53 14 138 32 187 40 50 8 104
18 120 23 17 5 66 14 110 21 44 6 94 13 110 16 132 23 276 35 493 41 318 8
461 -6 757 -71 100 -22 306 -88 330 -106 6 -4 30 -12 55 -18 25 -6 79 -29 119
-52 41 -22 77 -40 80 -40 12 0 114 -69 123 -82 20 -32 39 -127 40 -193 0 -88
-40 -218 -86 -278 -38 -50 -134 -130 -231 -193 -138 -91 -185 -162 -171 -261
7 -42 15 -55 70 -109 39 -37 80 -66 107 -75 24 -9 60 -21 79 -28 19 -7 53 -17
75 -21 62 -13 165 -67 165 -86 0 -9 -37 -51 -82 -93 -45 -42 -115 -108 -156
-148 l-74 -71 4 -54 c3 -29 12 -80 20 -113 26 -99 29 -123 13 -129 -8 -3 -27
6 -43 19 -15 13 -59 36 -98 51 -38 14 -78 30 -89 34 -11 5 -42 14 -70 20 -81
19 -178 52 -200 66 -11 8 -27 14 -35 14 -21 0 -60 36 -60 55 0 8 29 47 65 86
81 91 108 155 98 236 -8 76 -55 157 -102 179 -20 9 -45 24 -56 34 -11 10 -31
21 -45 25 -14 4 -50 22 -80 39 -84 49 -135 65 -255 76 -141 14 -212 25 -305
45 -41 10 -102 21 -135 25 -62 9 -231 47 -445 100 -186 46 -290 71 -335 80
-141 26 -355 72 -385 81 -53 18 -192 113 -227 157 -75 93 -44 228 83 359 44
45 53 66 33 78 -11 7 -199 -132 -199 -147 0 -6 -13 -30 -30 -55 -67 -99 -21
-249 112 -364 29 -26 101 -71 159 -101 98 -50 155 -69 304 -99 28 -6 68 -14
90 -20 22 -5 87 -18 145 -29 131 -25 204 -42 300 -68 41 -11 107 -25 145 -31
157 -23 233 -31 280 -31 47 -1 133 -12 315 -40 157 -25 359 -102 452 -173 96
-74 98 -76 98 -132 0 -44 -6 -61 -34 -102 -19 -27 -48 -65 -65 -83 -33 -36
-61 -106 -61 -151 0 -40 34 -73 118 -114 99 -49 177 -75 225 -75 22 0 70 -9
107 -20 54 -16 73 -27 95 -56 l28 -36 -11 -92 c-7 -50 -16 -122 -22 -159 -9
-58 -8 -77 6 -119 18 -54 24 -58 136 -95 l53 -18 -1 -71 c0 -54 -5 -79 -22
-108 -12 -20 -22 -42 -22 -49 0 -6 -11 -27 -24 -46 -32 -47 -45 -128 -22 -137
32 -12 160 141 202 242 9 21 24 50 34 64 27 39 62 160 54 193 -3 16 -36 59
-76 100 -38 40 -76 81 -84 93 -21 31 -20 79 5 192 19 87 20 109 10 140 -6 20
-15 41 -20 46 -16 17 -10 75 12 119 21 43 116 129 174 157 55 27 150 132 163
181 20 74 19 92 -5 104 -13 7 -31 19 -40 27 -21 18 -71 36 -198 74 -49 14 -94
30 -100 34 -5 4 -23 10 -39 14 -64 15 -129 75 -150 137 -18 53 -16 56 80 109
100 55 130 76 196 140 142 138 217 302 226 496 4 96 3 102 -23 145 -28 46 -99
116 -161 159 -20 14 -50 37 -67 51 -29 24 -129 64 -331 134 -138 47 -386 107
-546 131 -199 30 -603 39 -810 19z"/>
<path d="M1392 8387 c-29 -31 -30 -35 -25 -97 5 -64 -4 -136 -27 -215 -14 -50
-24 -96 -44 -212 -9 -50 -20 -103 -26 -118 -6 -15 -15 -88 -19 -162 -10 -144
-2 -241 26 -306 9 -20 13 -40 9 -44 -3 -4 -30 3 -59 14 -28 12 -76 28 -106 38
-30 9 -85 32 -122 51 -79 39 -132 55 -210 61 l-56 5 -16 -44 c-21 -55 -21 -80
-1 -121 19 -37 53 -77 66 -77 5 0 29 -13 53 -30 24 -16 47 -30 52 -30 30 0
185 -98 180 -114 -2 -7 -87 -17 -223 -28 -310 -23 -384 -44 -515 -143 -40 -30
-75 -55 -79 -55 -4 0 -21 -21 -39 -46 -18 -25 -51 -66 -73 -91 -22 -26 -45
-58 -51 -72 -6 -14 -24 -42 -39 -61 l-27 -35 -10 -263 c-6 -166 -7 -281 -1
-310 5 -26 16 -79 24 -119 8 -39 33 -109 54 -155 22 -46 45 -98 52 -116 7 -19
18 -39 25 -45 6 -7 29 -37 52 -67 94 -129 223 -222 331 -241 31 -5 78 -13 103
-18 59 -10 99 -38 142 -103 20 -29 48 -67 64 -84 42 -47 143 -129 183 -149 19
-10 47 -28 62 -41 15 -12 54 -30 85 -39 32 -9 68 -23 81 -31 39 -26 263 -55
432 -56 186 -2 306 14 375 50 61 32 50 23 210 180 72 70 154 145 182 166 29
21 60 50 69 64 8 15 45 50 80 77 67 52 100 104 138 219 50 149 38 338 -36 546
-26 74 -120 255 -149 286 -10 11 -19 24 -19 30 -1 5 -14 25 -30 44 -30 34 -38
60 -20 60 5 0 32 -16 60 -36 27 -20 87 -51 131 -70 45 -19 93 -41 108 -49 14
-8 69 -35 121 -60 89 -42 160 -78 220 -110 49 -27 47 -38 -13 -108 -31 -35
-57 -67 -57 -71 0 -3 -20 -40 -45 -80 -25 -41 -45 -79 -45 -84 0 -5 -13 -36
-30 -68 -16 -32 -37 -88 -46 -124 -9 -36 -22 -72 -29 -80 -7 -8 -13 -39 -13
-68 0 -29 -6 -59 -13 -68 -13 -16 -32 -137 -48 -304 -5 -47 -14 -119 -21 -160
-16 -100 -9 -164 21 -196 24 -26 24 -27 22 -232 -1 -190 -3 -208 -20 -216 -10
-5 -32 -27 -49 -50 -17 -22 -44 -48 -60 -56 -16 -8 -49 -36 -72 -62 -24 -27
-50 -48 -57 -48 -7 0 -27 -11 -43 -25 -17 -14 -34 -25 -38 -25 -5 0 -35 -17
-66 -39 -59 -40 -234 -121 -262 -121 -9 0 -42 -8 -73 -19 -86 -28 -275 -61
-350 -61 -19 0 -53 -5 -73 -11 -32 -10 -47 -8 -99 10 -75 26 -93 26 -114 3
-29 -32 -21 -83 20 -137 66 -85 177 -177 260 -214 26 -12 61 -29 76 -36 16 -8
53 -15 82 -15 89 0 111 -19 52 -44 -19 -7 -49 -28 -69 -45 -20 -17 -42 -31
-50 -31 -7 0 -21 -9 -31 -20 -9 -11 -29 -20 -43 -20 -15 0 -32 -6 -38 -14 -6
-7 -59 -35 -118 -61 -113 -49 -128 -51 -253 -40 -63 6 -72 5 -89 -14 -18 -20
-18 -21 20 -67 22 -25 44 -53 49 -63 38 -65 71 -86 180 -117 44 -12 103 -32
130 -43 52 -21 114 -39 223 -66 96 -23 383 -36 552 -25 173 12 406 44 509 71
41 10 88 19 103 19 16 0 45 7 65 15 19 8 48 15 64 15 15 0 31 5 34 10 7 12 62
13 69 2 7 -12 -20 -177 -33 -201 -8 -15 -30 -22 -95 -31 -47 -6 -89 -9 -95 -6
-15 10 -103 -13 -129 -33 -37 -28 -34 -116 8 -203 18 -37 30 -73 27 -80 -2 -7
-31 -19 -63 -26 -33 -8 -97 -27 -144 -43 -242 -82 -326 -112 -340 -123 -8 -7
-44 -25 -80 -41 -35 -15 -86 -41 -113 -57 -26 -15 -55 -28 -64 -28 -9 0 -26
-9 -38 -20 -11 -10 -39 -30 -62 -42 -101 -56 -183 -111 -183 -124 0 -8 -10
-14 -22 -14 -12 0 -38 -16 -57 -36 -20 -20 -87 -85 -148 -144 -62 -60 -113
-113 -113 -118 0 -5 -27 -38 -60 -73 -68 -73 -75 -89 -75 -179 1 -80 25 -148
79 -219 23 -29 46 -62 52 -73 21 -36 159 -158 202 -179 49 -24 106 -22 147 5
20 13 25 25 25 59 0 34 -10 58 -45 112 -25 39 -53 83 -62 99 -10 16 -37 51
-60 77 -27 31 -44 62 -48 86 -4 21 -8 43 -9 48 -2 6 15 30 38 55 23 25 52 61
66 79 14 19 30 39 37 45 6 6 49 47 95 91 45 45 101 94 123 110 22 17 51 40 65
52 14 12 42 33 63 47 21 14 43 30 50 36 90 73 222 151 332 196 17 6 53 22 80
35 69 32 198 66 340 90 66 11 124 24 129 30 14 13 9 120 -8 192 -8 34 -16 89
-18 121 -3 56 -2 60 22 66 14 4 65 3 113 -2 99 -11 112 -6 121 45 24 138 61
298 81 349 17 44 39 58 172 108 18 7 38 18 44 26 6 8 19 14 29 14 10 0 24 8
31 17 8 9 33 29 57 44 44 28 89 83 110 134 11 27 29 42 100 83 38 22 169 43
322 52 179 10 242 21 376 65 59 19 115 35 124 35 10 0 40 10 67 21 26 12 62
25 78 29 67 18 254 95 305 127 48 30 122 80 139 94 18 16 8 227 -14 309 -9 30
-22 88 -31 129 -8 41 -24 93 -33 115 -10 23 -24 61 -31 86 -7 25 -20 56 -29
70 -26 38 -61 126 -61 153 0 14 11 44 24 68 14 24 32 76 41 114 51 211 59 234
93 271 18 20 45 55 59 78 83 132 229 245 348 271 17 3 48 10 70 15 93 21 136
9 300 -83 172 -96 286 -220 297 -322 3 -26 -1 -31 -38 -45 -22 -8 -52 -23 -66
-32 -14 -9 -39 -20 -54 -23 -33 -8 -224 -199 -224 -223 0 -9 -6 -23 -13 -31
-21 -24 -47 -98 -47 -132 0 -16 -9 -48 -21 -71 -11 -22 -23 -52 -25 -65 -13
-73 -93 -114 -294 -154 -58 -11 -120 -29 -138 -40 -18 -10 -39 -19 -46 -19
-11 0 -36 -53 -36 -77 0 -19 29 -22 66 -7 20 8 57 14 82 12 l47 -3 -1 -55 c-2
-70 -32 -129 -84 -164 -22 -15 -40 -31 -40 -37 0 -21 41 -79 56 -79 8 0 14 -4
14 -10 0 -5 67 -9 168 -8 167 0 227 -8 322 -46 19 -7 62 -22 95 -32 33 -10 74
-28 91 -41 17 -13 34 -23 38 -23 14 0 96 -41 96 -48 0 -4 21 -16 48 -26 26
-11 75 -39 110 -63 35 -24 66 -43 69 -43 3 0 28 -16 55 -36 27 -19 59 -39 71
-43 12 -5 45 -27 72 -48 28 -22 62 -46 75 -53 14 -7 34 -21 45 -31 195 -178
302 -285 358 -358 23 -30 57 -68 75 -84 17 -16 32 -34 32 -41 0 -6 13 -27 29
-46 15 -19 32 -46 36 -60 4 -14 18 -39 31 -57 13 -17 24 -39 24 -47 0 -9 13
-37 29 -63 15 -27 45 -92 66 -146 21 -53 42 -97 47 -97 4 0 8 -10 8 -21 0 -12
14 -48 30 -81 17 -32 30 -67 30 -76 0 -10 4 -22 8 -28 13 -14 72 -168 72 -187
0 -9 7 -31 15 -49 8 -18 28 -80 46 -138 17 -58 40 -125 50 -150 10 -25 35 -97
54 -160 48 -157 53 -167 83 -178 46 -16 69 0 77 54 4 27 13 64 20 84 52 140
60 184 60 320 0 131 -8 177 -40 255 -7 17 -16 48 -20 70 -4 22 -10 45 -14 50
-4 6 -14 30 -21 55 -7 25 -18 51 -24 58 -5 8 -10 38 -10 67 -1 29 -4 48 -7 43
-4 -6 -11 -8 -16 -5 -10 6 -75 159 -88 207 -4 14 -13 32 -20 40 -6 8 -43 71
-80 138 -38 68 -73 129 -79 135 -6 7 -18 26 -26 42 -8 17 -39 62 -70 100 -30
39 -82 106 -114 150 -32 44 -67 89 -76 100 -24 27 -151 154 -170 169 -103 84
-178 144 -196 156 -12 8 -53 36 -91 61 -114 77 -359 209 -387 209 -4 0 -25 8
-49 19 -53 24 -153 52 -282 80 -55 13 -131 31 -170 41 -129 35 -260 69 -307
81 -44 11 -49 15 -59 52 -22 82 15 147 111 191 57 27 83 43 131 85 40 34 49
49 63 105 9 36 16 75 16 87 0 29 38 89 56 89 21 0 98 -40 107 -56 4 -8 14 -14
22 -14 8 0 31 -10 52 -22 45 -27 217 -99 323 -135 206 -70 563 -128 1132 -184
137 -13 143 -11 205 71 63 82 83 119 114 216 39 119 47 126 107 92 26 -14 66
-31 90 -37 65 -18 275 -15 357 4 39 9 87 20 108 24 21 5 46 16 56 25 9 9 20
16 24 16 4 0 50 29 104 64 98 64 204 157 237 209 21 32 41 35 55 8 6 -10 39
-46 73 -79 57 -55 94 -84 198 -155 19 -13 42 -36 49 -51 22 -39 75 -69 110
-61 46 10 81 48 81 88 0 38 19 61 43 51 27 -10 88 -91 81 -108 -3 -8 -20 -18
-37 -21 -18 -4 -55 -19 -84 -33 -60 -30 -72 -56 -52 -121 16 -52 22 -57 89
-64 60 -7 74 -1 144 60 49 44 65 108 46 190 -18 81 -45 164 -69 210 -23 46
-64 210 -57 228 2 7 41 18 92 25 48 7 102 18 118 25 48 20 116 88 116 116 0
13 3 34 6 45 8 31 -30 62 -85 70 -115 16 -234 56 -274 91 -25 23 -22 43 20
130 33 69 38 87 38 155 0 42 -3 79 -7 83 -15 15 -81 -8 -116 -40 -35 -32 -37
-37 -38 -97 -1 -68 -12 -106 -38 -127 -9 -7 -16 -17 -16 -22 0 -16 -62 -99
-81 -109 -10 -6 -19 -15 -19 -20 0 -31 -197 -187 -318 -251 -59 -31 -124 -74
-152 -101 -57 -55 -166 -129 -247 -167 -12 -5 -26 -17 -31 -26 -10 -18 -126
-74 -154 -75 -9 0 -19 -4 -23 -9 -13 -23 -122 -45 -220 -44 -101 0 -169 15
-224 50 -23 15 -24 17 -17 122 13 195 23 259 43 282 7 9 42 22 76 29 111 23
300 123 414 220 23 19 58 48 77 63 19 16 60 61 91 100 99 128 127 162 136 165
5 2 16 -14 25 -35 20 -50 26 -64 68 -155 20 -42 36 -83 36 -91 0 -25 -72 -65
-130 -73 -52 -6 -90 -26 -90 -46 0 -15 67 -38 112 -38 76 1 200 39 255 78 17
12 34 22 37 22 24 0 266 204 266 224 0 6 -27 47 -60 91 -33 44 -60 84 -60 88
0 5 -13 28 -30 52 -16 24 -30 47 -30 51 0 4 -13 29 -30 56 -16 26 -30 54 -30
62 0 17 -151 177 -198 209 -40 28 -74 35 -110 23 l-23 -8 2 -190 c2 -166 0
-192 -14 -202 -80 -54 -118 -86 -152 -129 -128 -158 -298 -320 -388 -368 -13
-8 -69 -13 -142 -13 -137 -1 -226 19 -343 78 -62 31 -162 79 -254 120 -21 9
-68 28 -105 42 -38 14 -84 34 -103 44 -70 36 -188 90 -196 90 -4 0 -60 16
-124 36 -63 20 -173 53 -245 75 -71 22 -170 52 -220 69 -49 16 -148 45 -220
65 -164 45 -334 111 -500 196 -113 57 -130 69 -133 92 -4 29 31 134 60 182 10
17 18 43 18 58 0 38 34 102 66 124 64 44 144 127 144 150 0 37 -29 41 -59 7
-28 -31 -110 -94 -123 -94 -4 0 -39 -20 -77 -45 -38 -25 -80 -45 -93 -45 -13
0 -29 -5 -35 -11 -7 -7 -51 -12 -110 -13 -98 -1 -171 14 -204 41 -8 7 -24 13
-34 13 -24 0 -145 73 -175 105 -13 14 -27 25 -32 25 -4 0 -23 -14 -41 -31 -36
-36 -113 -87 -171 -113 -22 -10 -63 -38 -93 -62 -61 -50 -94 -59 -215 -58 -66
1 -99 6 -144 25 -94 37 -224 122 -289 187 -29 28 -78 27 -83 -2 -4 -21 97
-129 163 -175 115 -80 287 -151 380 -157 42 -3 162 16 215 33 58 20 194 97
244 140 22 18 45 33 52 33 7 0 25 -16 40 -36 48 -62 142 -95 289 -99 l80 -2
-1 -44 c-1 -50 -15 -79 -96 -201 -88 -132 -131 -160 -336 -213 -126 -32 -209
-42 -289 -33 -78 8 -161 30 -198 52 -11 7 -39 18 -61 24 -23 7 -47 19 -54 27
-7 8 -19 15 -28 15 -8 0 -39 12 -68 26 -30 14 -61 24 -69 20 -15 -5 -14 -9 2
-38 10 -18 28 -45 42 -60 28 -32 23 -59 -11 -51 -35 9 -96 50 -108 73 -6 11
-17 20 -25 20 -8 0 -15 4 -15 8 0 5 -13 21 -28 38 -16 16 -47 53 -70 83 -48
60 -156 151 -181 151 -9 0 -32 10 -51 23 -19 13 -64 28 -99 35 -36 6 -69 16
-74 21 -5 5 -11 33 -13 62 -3 30 -9 70 -14 89 -8 30 -6 38 15 60 14 14 25 31
25 37 0 16 -49 53 -69 53 -39 0 -186 135 -196 181 -4 16 -24 64 -46 106 -48
94 -61 140 -53 192 18 112 111 109 232 -9 39 -38 76 -70 81 -70 16 0 29 25 36
70 6 42 4 48 -29 86 -24 28 -68 58 -134 92 -95 49 -100 50 -158 43 -95 -11
-102 -18 -144 -136 -18 -50 -21 -72 -15 -130 9 -97 31 -156 95 -255 30 -47 60
-96 67 -109 7 -13 28 -40 46 -61 72 -81 123 -156 161 -236 27 -55 25 -58 -34
-65 -46 -6 -61 -4 -90 13 -19 12 -44 32 -55 44 -18 21 -227 144 -245 144 -4 0
-27 13 -51 30 -24 16 -50 30 -57 30 -12 0 -191 81 -222 101 -8 5 -22 12 -30
15 -89 32 -330 158 -330 173 0 3 17 15 38 26 20 11 53 30 72 43 42 28 140 144
140 166 0 8 7 19 15 23 7 5 21 34 29 65 8 31 19 66 25 77 6 11 18 64 26 118 9
54 24 143 35 198 11 55 24 123 29 150 5 28 10 55 11 60 9 41 -13 45 -55 10
-95 -78 -119 -95 -137 -95 -11 0 -33 -13 -50 -30 -16 -16 -34 -30 -40 -30 -7
0 -19 -6 -27 -14 -19 -16 -129 -73 -226 -117 -38 -17 -102 -47 -141 -65 -79
-38 -102 -42 -111 -16 -32 97 -169 323 -254 422 -12 14 -38 49 -57 78 -19 28
-38 52 -41 52 -4 0 -27 27 -51 61 -25 33 -66 86 -92 117 -26 31 -59 81 -73
112 -51 109 -119 236 -141 265 -31 42 -63 42 -102 2z m147 -347 c23 -45 44
-100 47 -124 6 -39 4 -45 -23 -64 -39 -28 -55 -85 -57 -207 -1 -102 -7 -111
-46 -70 -21 22 -22 30 -16 87 18 170 26 262 32 356 4 56 10 102 14 102 4 0 26
-36 49 -80z m224 -367 c13 -21 42 -78 65 -126 l42 -89 -20 -38 c-11 -21 -24
-41 -30 -45 -17 -11 -11 -72 11 -109 25 -43 57 -53 110 -36 21 7 41 11 43 9 2
-2 7 -22 10 -44 6 -33 3 -46 -14 -68 -32 -41 -72 -37 -101 11 -13 20 -37 55
-53 77 -33 43 -46 63 -72 110 -9 17 -27 43 -40 58 -13 16 -24 33 -24 39 0 6
-6 19 -14 27 -8 9 -26 49 -40 89 l-26 74 32 26 c17 15 41 37 52 49 29 31 42
29 69 -14z m-233 -234 c0 -30 46 -140 91 -217 76 -130 38 -113 -78 36 l-64 82
11 58 c7 31 14 60 17 65 8 13 23 -3 23 -24z m1236 -154 c-9 -30 -25 -70 -36
-88 -11 -19 -27 -56 -35 -83 -8 -27 -24 -65 -36 -84 l-22 -35 -10 35 c-5 19
-13 40 -19 47 -15 18 -76 36 -103 29 -36 -9 -65 -68 -65 -132 0 -48 3 -56 23
-63 28 -11 61 2 109 40 42 33 48 35 48 14 0 -23 -87 -100 -152 -135 -31 -17
-73 -31 -94 -33 -43 -2 -51 8 -79 103 -17 55 -17 55 7 69 43 28 117 112 123
142 10 46 -5 53 -56 25 -44 -24 -135 -57 -197 -70 -52 -12 -40 17 24 55 30 19
74 46 97 61 23 15 49 28 58 28 9 0 36 9 60 20 27 12 66 20 102 20 54 0 59 -2
75 -30 22 -39 38 -44 74 -23 29 17 78 90 78 116 0 7 8 24 17 37 15 21 18 22
21 8 2 -10 -4 -43 -12 -73z m-1830 -15 c38 -17 77 -35 86 -40 42 -24 250 -114
308 -135 137 -47 177 -57 252 -62 73 -5 79 -8 101 -37 28 -37 57 -94 57 -113
0 -19 -18 -16 -85 17 -33 17 -63 30 -67 30 -4 0 -44 17 -90 39 -46 21 -123 55
-173 76 -49 20 -105 44 -124 52 -19 9 -66 29 -105 44 -38 16 -77 35 -85 43 -9
7 -39 21 -67 31 -67 23 -99 48 -91 69 8 20 2 21 83 -14z m1134 -355 c25 -13
60 -31 78 -40 37 -18 48 -41 53 -109 5 -69 -16 -72 -61 -7 -11 16 -25 21 -62
21 -40 0 -50 -4 -64 -25 -18 -28 -15 -116 4 -123 6 -2 20 -12 33 -23 20 -17
21 -22 10 -46 -11 -24 -10 -29 9 -45 12 -10 37 -18 55 -18 48 0 172 -71 159
-91 -3 -5 -18 -9 -33 -9 -16 0 -34 -7 -41 -15 -7 -8 -19 -15 -26 -15 -17 0
-122 50 -174 82 -98 60 -140 90 -140 100 0 6 13 32 28 57 27 44 44 91 57 156
9 41 9 52 0 118 l-8 57 39 0 c22 -1 59 -12 84 -25z m-678 -99 c59 -26 98 -89
63 -102 -16 -7 -144 24 -159 38 -6 4 -20 8 -31 8 -12 0 -48 9 -81 20 -33 12
-100 23 -151 27 -88 6 -94 5 -133 -21 -22 -14 -43 -26 -47 -26 -5 0 -25 -24
-45 -52 -26 -35 -38 -63 -38 -85 0 -28 6 -35 40 -53 64 -33 107 -15 179 74 72
89 102 97 149 40 17 -20 33 -51 36 -69 12 -64 53 -81 117 -48 53 26 79 29 79
9 0 -13 -78 -106 -149 -178 -81 -81 -91 -94 -91 -116 0 -27 20 -28 98 -6 149
44 273 132 368 263 5 6 86 -37 115 -60 15 -12 47 -23 75 -26 55 -6 74 -17 74
-44 0 -12 -9 -19 -27 -21 -24 -3 -29 -9 -37 -49 -7 -36 -5 -56 9 -93 10 -27
25 -50 32 -53 20 -8 89 14 135 43 41 26 54 24 84 -16 7 -8 28 -33 48 -55 79
-87 111 -137 141 -220 18 -50 26 -60 45 -60 12 0 26 7 30 15 11 22 31 117 37
177 4 47 2 57 -27 97 -31 43 -32 46 -25 115 4 39 11 74 16 77 5 3 16 -10 24
-30 8 -19 23 -40 32 -45 25 -13 89 -138 97 -188 5 -35 3 -44 -13 -52 -27 -15
-63 -81 -58 -105 18 -77 37 -129 52 -146 15 -17 20 -17 39 -5 11 7 34 15 50
17 27 3 30 0 42 -47 7 -27 14 -87 15 -132 1 -77 -1 -85 -35 -147 -33 -58 -36
-71 -31 -113 9 -70 -12 -110 -111 -208 -88 -87 -114 -101 -114 -64 0 27 -49
97 -74 105 -27 9 -96 -16 -112 -42 -11 -16 -12 -28 -4 -48 5 -15 10 -53 10
-85 l0 -58 -64 -59 c-120 -110 -133 -115 -288 -122 -138 -5 -180 1 -323 46
-98 31 -175 68 -174 85 0 6 9 26 20 42 51 80 61 131 32 158 -39 35 -183 68
-207 48 -8 -7 -17 -34 -21 -62 -4 -27 -12 -49 -18 -49 -12 0 -47 41 -177 210
-115 149 -184 223 -250 269 -48 32 -65 39 -79 31 -48 -25 -37 -94 27 -175 23
-29 29 -65 12 -65 -49 0 -142 73 -168 134 -10 22 -26 47 -35 55 -22 18 -21 42
3 89 32 61 53 192 43 265 l-8 62 -37 3 c-31 3 -40 -2 -63 -32 -15 -20 -33 -36
-39 -36 -28 0 -98 354 -100 505 0 87 3 111 29 184 29 80 42 104 92 157 28 30
38 30 64 0 12 -14 42 -29 69 -36 40 -10 53 -9 79 4 17 9 33 27 37 41 9 38 77
92 135 109 42 13 89 15 243 11 105 -3 214 -2 241 3 53 8 121 -3 187 -32z
m1009 -167 c29 -11 90 -38 137 -60 82 -40 247 -110 307 -132 46 -16 433 -207
525 -259 8 -5 29 -15 47 -23 57 -26 24 -55 -62 -55 -38 0 -52 7 -165 73 -19
11 -89 49 -155 83 -66 34 -147 76 -179 93 -33 17 -67 31 -76 31 -10 0 -28 8
-41 19 -13 10 -51 32 -84 48 -33 17 -82 42 -109 57 -27 14 -55 26 -62 26 -7 0
-14 4 -16 8 -1 5 -33 22 -70 40 -52 23 -68 36 -68 51 0 26 7 26 71 0z m6731
-947 c9 -15 26 -52 38 -82 12 -30 32 -71 44 -90 13 -19 32 -57 42 -83 11 -27
34 -66 52 -87 17 -21 32 -45 32 -53 0 -19 -27 -42 -73 -61 l-38 -15 -19 32
c-11 18 -20 37 -20 43 0 6 -9 40 -21 75 -46 142 -69 237 -69 292 0 63 8 71 32
29z m-4556 -201 c5 -5 92 -52 194 -104 102 -51 209 -108 238 -125 29 -18 55
-32 59 -32 3 0 39 -16 80 -35 41 -19 79 -35 84 -35 18 0 9 -40 -12 -51 -39
-20 -100 1 -314 108 -60 30 -119 63 -131 74 -11 10 -23 19 -27 19 -25 0 -207
157 -207 179 0 13 22 14 36 2z m650 -53 c9 -18 29 -43 45 -56 32 -26 39 -62
12 -62 -27 0 -249 78 -289 102 -43 25 -31 37 29 31 23 -3 58 0 77 5 19 6 52
11 72 11 33 1 40 -3 54 -31z m1407 -56 c80 -36 157 -95 157 -120 0 -6 16 -34
36 -63 59 -89 88 -235 68 -349 -21 -124 -95 -241 -204 -321 -66 -49 -384 -64
-450 -22 -56 37 -63 67 -22 105 38 36 59 45 127 52 201 22 249 40 290 110 20
35 25 56 25 113 0 81 -13 119 -71 203 -40 59 -133 130 -170 130 -24 0 -79 69
-79 98 0 37 25 86 51 99 58 29 120 21 242 -35z m-1943 -209 c14 -10 104 -57
201 -104 l176 -87 6 -51 c4 -35 2 -59 -8 -78 -8 -16 -15 -33 -15 -39 0 -6 -10
-33 -21 -59 -15 -33 -20 -60 -16 -86 3 -22 1 -41 -3 -44 -5 -3 -29 0 -54 6
-45 11 -100 2 -221 -36 -74 -23 -176 -38 -186 -28 -10 10 16 138 57 290 8 28
11 59 8 67 -4 9 -2 36 4 59 6 23 16 79 23 125 7 45 15 82 19 82 3 0 17 -8 30
-17z m5100 -122 c169 -49 181 -80 44 -116 -68 -18 -76 -13 -110 60 -39 83 -36
86 66 56z m-247 -229 c20 -42 37 -90 37 -105 0 -16 9 -40 20 -54 11 -14 20
-29 20 -33 0 -19 -31 -16 -63 6 -43 28 -64 30 -90 7 -18 -17 -22 -16 -82 16
-65 35 -115 74 -115 91 0 10 49 50 61 50 5 0 22 -13 39 -30 30 -29 53 -36 84
-24 12 5 14 18 9 70 -6 65 5 98 30 88 7 -2 29 -39 50 -82z"/>
<path d="M480 6463 c-60 -22 -80 -37 -95 -75 -9 -23 -24 -42 -35 -45 -24 -6
-25 -16 -6 -33 8 -6 16 -30 18 -52 4 -55 40 -84 83 -68 72 27 117 105 110 190
-6 72 -31 99 -75 83z"/>
<path d="M912 6455 c-48 -15 -82 -41 -82 -62 0 -8 16 -35 36 -59 44 -53 66
-56 139 -14 56 32 65 45 65 89 0 58 -63 76 -158 46z"/>
<path d="M1543 6290 c-82 -17 -112 -54 -99 -124 7 -39 34 -76 76 -106 37 -27
57 -17 99 46 25 38 31 58 31 100 0 45 -4 56 -26 73 -15 12 -29 21 -33 20 -3
-1 -25 -5 -48 -9z"/>
<path d="M720 6135 c-7 -8 -18 -15 -25 -15 -16 0 -62 -60 -90 -118 -18 -38
-21 -52 -13 -82 14 -49 25 -60 63 -60 27 0 40 9 71 47 51 62 61 81 69 143 6
45 4 54 -16 76 -26 28 -41 30 -59 9z"/>
<path d="M1092 6020 c-13 -6 -36 -19 -50 -31 -22 -17 -26 -27 -23 -65 3 -54
44 -128 80 -144 32 -15 66 10 98 70 29 55 32 144 5 159 -29 15 -86 21 -110 11z"/>
<path d="M1840 6000 c-8 -5 -23 -10 -32 -10 -19 0 -88 -44 -100 -63 -4 -7 -8
-40 -8 -73 0 -59 2 -63 40 -98 22 -20 44 -36 48 -36 12 0 42 34 42 48 0 7 4
12 10 12 28 0 58 162 38 206 -12 27 -16 28 -38 14z"/>
<path d="M2093 5792 c-45 -39 -65 -83 -57 -130 7 -45 43 -96 60 -84 18 12 84
113 90 138 7 27 -13 72 -41 90 -17 11 -24 9 -52 -14z"/>
<path d="M1420 5643 c-19 -8 -49 -25 -66 -38 -16 -13 -41 -25 -54 -27 -12 -1
-32 -16 -44 -31 -29 -40 -27 -95 7 -146 24 -36 32 -41 67 -41 54 0 85 16 115
61 14 22 30 39 36 39 5 0 17 16 25 35 28 67 10 158 -31 162 -11 1 -36 -5 -55
-14z"/>
<path d="M2316 5576 c-9 -19 -16 -55 -16 -80 0 -46 25 -126 40 -126 52 0 110
81 110 152 0 59 -27 88 -79 88 -34 0 -41 -4 -55 -34z"/>
<path d="M849 5560 c-35 -33 -40 -43 -35 -67 12 -48 60 -107 110 -134 51 -28
82 -28 90 0 24 85 37 157 32 176 -8 33 -65 65 -114 65 -34 0 -48 -7 -83 -40z"/>
<path d="M1790 5483 c-31 -11 -71 -58 -81 -95 -8 -32 -7 -44 8 -68 31 -53 124
-63 171 -20 28 26 38 81 20 116 -22 45 -83 79 -118 67z"/>
<path d="M1586 5016 c-25 -25 -46 -49 -46 -53 0 -15 63 -70 88 -78 15 -4 34 1
57 15 20 12 42 19 50 16 16 -6 30 10 16 18 -5 3 -9 27 -8 52 0 56 -18 74 -74
74 -30 0 -45 -8 -83 -44z"/>
<path d="M4567 7422 c-38 -40 -38 -99 2 -141 35 -37 64 -39 96 -6 35 34 35
102 -1 144 -32 39 -62 39 -97 3z"/>
<path d="M5137 7249 c-24 -14 -22 -31 12 -97 41 -82 46 -119 22 -159 -24 -39
-60 -50 -109 -35 -29 9 -40 9 -51 -2 -40 -41 39 -113 134 -123 68 -7 130 19
170 71 47 62 49 84 16 172 -48 131 -49 132 -105 150 -28 9 -56 20 -61 25 -6 4
-18 3 -28 -2z"/>
<path d="M4887 6816 c-16 -7 -67 -48 -113 -90 -46 -43 -101 -89 -121 -103 -21
-14 -50 -36 -65 -48 -18 -16 -47 -25 -88 -30 -67 -8 -87 -27 -54 -52 14 -11
38 -14 90 -10 59 3 80 10 125 38 55 34 281 266 287 294 4 18 -21 19 -61 1z"/>
<path d="M6215 4993 c-124 -13 -166 -26 -222 -66 -31 -23 -78 -63 -105 -88
-43 -42 -48 -50 -48 -91 0 -58 18 -83 54 -74 21 5 29 16 39 52 20 76 94 131
255 190 41 14 76 33 79 41 8 21 -18 39 -52 36z"/>
<path d="M9985 4708 c-9 -18 -22 -44 -30 -58 -20 -33 -19 -104 1 -124 19 -19
14 -19 51 -1 51 26 81 145 47 193 -22 32 -51 28 -69 -10z"/>
<path d="M5231 3154 c-16 -12 -21 -22 -17 -40 6 -23 -5 -110 -24 -194 -6 -25
-13 -63 -16 -85 -4 -22 -14 -53 -24 -70 -10 -16 -25 -53 -34 -81 -9 -28 -24
-59 -34 -70 -22 -24 -42 -69 -42 -93 0 -10 -7 -24 -15 -31 -9 -7 -25 -32 -35
-56 -11 -23 -31 -56 -45 -73 -15 -17 -24 -34 -21 -39 2 -4 -13 -37 -35 -72
-21 -36 -48 -85 -60 -110 -12 -25 -27 -52 -35 -60 -7 -8 -31 -51 -54 -95 -48
-95 -177 -265 -295 -390 -150 -159 -160 -169 -250 -252 -119 -108 -220 -190
-245 -198 -11 -3 -20 -10 -20 -15 0 -5 -21 -21 -47 -36 -27 -15 -61 -39 -78
-54 -16 -15 -42 -34 -57 -41 -15 -8 -51 -28 -80 -45 -29 -17 -64 -35 -78 -39
-13 -4 -47 -25 -75 -45 -27 -21 -66 -46 -85 -55 -64 -33 -205 -85 -245 -92
-22 -3 -61 -17 -88 -30 -26 -13 -75 -31 -110 -39 -34 -9 -70 -23 -79 -32 -25
-21 -39 -79 -31 -125 5 -33 14 -44 52 -69 52 -33 74 -33 211 -3 41 9 116 23
165 30 83 13 148 34 310 102 33 13 67 31 75 38 9 8 65 39 125 71 61 31 117 62
125 69 8 7 33 22 55 33 36 18 103 66 194 140 159 129 405 381 502 514 21 29
46 62 55 74 9 12 31 44 48 71 17 28 48 76 69 107 20 31 37 60 37 65 0 5 7 15
16 22 9 8 35 51 57 97 21 46 50 96 62 111 13 15 27 41 31 57 4 16 16 45 27 63
25 46 74 185 103 294 13 49 26 92 29 98 10 16 33 10 88 -21 76 -43 183 -151
241 -244 25 -39 111 -214 120 -243 4 -13 14 -23 22 -23 8 0 14 -4 14 -9 0 -5
17 -25 37 -44 40 -40 97 -57 185 -57 l50 0 -6 -63 c-13 -119 51 -202 173 -226
32 -6 63 -11 68 -10 19 5 80 -14 102 -32 27 -22 44 -113 56 -299 4 -58 13
-136 20 -175 7 -38 16 -113 20 -165 4 -52 11 -102 16 -111 4 -9 9 -61 10 -115
1 -114 12 -143 67 -178 100 -65 395 -58 540 14 l42 21 -4 54 c-9 109 -51 140
-160 117 -102 -22 -205 -32 -230 -22 -43 16 -66 47 -66 88 0 20 -6 71 -14 112
-8 41 -17 127 -20 190 -10 166 -34 350 -62 463 -21 82 -31 105 -62 139 -48 52
-121 90 -159 82 -56 -11 -67 44 -29 145 12 30 15 57 11 83 -6 32 -15 44 -63
76 -55 36 -59 37 -147 37 -49 0 -109 -3 -131 -7 -46 -9 -49 -7 -139 96 -81 92
-228 239 -270 271 -22 17 -47 37 -55 45 -21 21 -94 70 -106 70 -5 0 -20 9 -34
20 -14 11 -37 20 -52 20 -16 0 -31 7 -36 18 -10 19 7 180 32 297 20 92 20 170
0 228 -17 51 -27 56 -63 31z"/>
<path d="M8600 1003 c-36 -13 -107 -44 -158 -69 -51 -24 -101 -44 -111 -44
-10 0 -30 -9 -44 -20 -14 -11 -31 -20 -39 -20 -7 0 -36 -11 -64 -24 -28 -13
-71 -27 -95 -31 -24 -3 -75 -19 -114 -35 -38 -16 -117 -36 -175 -45 -58 -8
-127 -20 -153 -25 -63 -13 -142 -13 -228 1 -60 9 -73 8 -94 -5 -36 -24 -31
-47 18 -84 116 -91 235 -134 367 -133 92 0 282 18 311 29 13 6 49 15 79 22 84
19 263 86 376 141 55 27 104 49 108 49 14 0 103 67 143 108 54 56 66 111 32
150 -61 71 -63 71 -159 35z"/>
<path d="M2066 627 c-16 -12 -17 -17 -3 -70 16 -59 41 -107 56 -107 5 0 16
-17 24 -37 9 -22 38 -58 69 -83 55 -48 161 -120 174 -120 4 0 17 -8 28 -18 46
-39 265 -126 358 -142 35 -6 83 -15 108 -21 93 -20 227 -28 360 -19 173 12
227 22 245 46 40 55 83 151 78 176 -9 48 -20 50 -155 38 -341 -32 -716 2 -908
80 -25 11 -56 22 -70 26 -14 3 -34 14 -45 24 -11 9 -49 34 -85 55 -36 21 -98
72 -138 112 -40 40 -74 73 -75 73 -2 0 -11 -6 -21 -13z"/>
</g>
</svg>
