<?xml version="1.0" standalone="no"?>
<!DOCTYPE svg PUBLIC "-//W3C//DTD SVG 20010904//EN"
 "http://www.w3.org/TR/2001/REC-SVG-20010904/DTD/svg10.dtd">
<svg version="1.0" xmlns="http://www.w3.org/2000/svg"
 width="1017.000000pt" height="877.000000pt" viewBox="0 0 1017.000000 877.000000"
 preserveAspectRatio="xMidYMid meet">
<metadata>
Created by potrace 1.14, written by Peter Selinger 2001-2017
</metadata>
<g transform="translate(0.000000,877.000000) scale(0.100000,-0.100000)"
fill="#000000" stroke="none">
<path d="M8073 8748 c-11 -13 -40 -38 -64 -56 -24 -18 -73 -55 -108 -82 -35
-28 -69 -50 -75 -50 -7 0 -28 -16 -47 -36 -18 -19 -48 -42 -65 -50 -17 -8 -40
-23 -50 -32 -11 -9 -39 -30 -64 -47 -25 -16 -64 -44 -87 -62 -24 -17 -53 -35
-65 -38 -13 -4 -32 -15 -43 -25 -11 -9 -49 -34 -85 -55 -66 -39 -109 -65 -177
-109 -21 -13 -81 -46 -134 -74 -133 -69 -203 -115 -230 -151 -13 -17 -30 -31
-38 -31 -9 0 -54 17 -101 36 -239 101 -545 195 -825 253 -365 77 -928 88
-1235 24 -162 -33 -328 -75 -365 -93 -31 -14 -143 -50 -158 -50 -7 0 -28 -11
-47 -25 -19 -14 -45 -25 -59 -25 -14 0 -34 -9 -45 -19 -12 -11 -57 -38 -101
-60 -44 -22 -98 -54 -120 -70 -22 -17 -64 -47 -94 -67 -160 -107 -333 -261
-362 -323 -12 -25 -30 -52 -40 -59 -11 -7 -19 -19 -19 -26 0 -6 -11 -27 -24
-45 -14 -19 -28 -47 -31 -63 -4 -16 -18 -41 -32 -56 -14 -15 -32 -42 -40 -60
-17 -41 -65 -92 -86 -92 -31 0 -84 58 -96 104 -13 51 -14 169 -2 271 7 59 4
83 -15 149 -28 97 -52 124 -147 160 -65 25 -75 32 -90 67 -9 22 -17 47 -17 57
0 42 -165 337 -222 398 -21 22 -46 51 -55 65 -9 13 -23 28 -31 32 -7 5 -35 27
-62 50 -109 94 -138 115 -209 150 -278 140 -499 171 -797 112 -43 -9 -95 -22
-114 -29 -19 -8 -62 -25 -95 -37 -33 -13 -67 -28 -75 -35 -8 -6 -30 -15 -47
-19 -18 -3 -35 -11 -39 -16 -3 -5 -33 -23 -67 -39 -56 -27 -95 -52 -152 -95
-10 -8 -23 -15 -27 -15 -4 0 -41 -22 -81 -50 -41 -27 -79 -50 -85 -50 -6 0
-21 -18 -32 -39 -20 -41 -80 -97 -136 -129 -119 -66 -234 -166 -250 -214 -9
-30 14 -48 61 -48 68 0 73 -15 40 -118 -15 -48 -33 -107 -41 -131 -8 -25 -14
-56 -14 -71 0 -14 -5 -31 -11 -37 -9 -9 -28 -151 -44 -338 -10 -108 35 -478
64 -532 15 -28 41 -114 41 -137 0 -12 11 -39 25 -61 13 -22 25 -48 25 -59 0
-10 13 -45 30 -78 16 -32 30 -64 30 -70 0 -19 94 -157 106 -158 14 0 75 -74
98 -117 26 -52 21 -76 -30 -126 -46 -45 -50 -67 -14 -67 19 0 160 138 171 168
4 9 23 33 43 51 20 19 36 41 36 48 0 7 11 20 25 29 15 10 25 26 25 40 0 13 14
39 30 58 17 18 37 49 46 67 8 19 24 50 34 69 25 45 25 62 0 78 -18 11 -24 8
-53 -21 -17 -18 -45 -59 -62 -90 -35 -68 -59 -74 -93 -22 -12 19 -22 38 -22
43 0 5 -13 26 -30 48 -16 21 -30 45 -30 51 0 7 -20 56 -45 109 -25 52 -45 99
-45 103 0 5 -19 57 -41 117 -23 60 -47 134 -54 164 -7 30 -20 82 -29 115 -59
213 -27 576 68 775 57 120 69 135 101 132 17 -2 39 -9 50 -15 11 -7 46 -23 78
-36 53 -21 60 -22 74 -8 8 8 18 36 20 61 5 45 4 48 -46 97 -29 29 -51 59 -51
71 0 20 37 64 120 143 49 47 89 75 215 147 141 81 215 105 512 170 113 24 364
-2 451 -48 15 -8 32 -14 37 -14 6 0 39 -23 74 -50 36 -28 68 -50 73 -50 5 0
13 -10 19 -23 5 -12 23 -30 39 -39 29 -17 151 -192 165 -238 4 -14 16 -35 26
-48 10 -13 20 -37 24 -55 3 -18 21 -79 40 -137 61 -192 59 -181 45 -278 -14
-100 -7 -127 35 -138 37 -9 54 1 72 43 8 21 19 40 23 43 4 3 15 21 23 42 20
47 48 56 86 26 46 -36 65 -130 58 -277 -6 -124 -13 -151 -75 -276 -41 -84 -60
-159 -42 -170 17 -11 67 5 92 28 13 12 35 39 50 59 16 20 37 39 48 43 11 3 54
-5 97 -20 84 -29 125 -34 278 -38 l100 -2 -3 -90 c-2 -56 -9 -97 -18 -109 -8
-11 -14 -31 -14 -43 0 -27 -101 -238 -135 -281 -32 -40 -95 -103 -130 -128
-22 -16 -49 -37 -60 -47 -85 -74 -179 -141 -246 -174 -27 -12 -49 -28 -49 -33
0 -6 -11 -10 -24 -10 -13 0 -35 -9 -49 -20 -14 -11 -39 -23 -56 -26 -17 -4
-34 -11 -37 -15 -6 -11 -35 -11 -51 -1 -9 6 -3 28 24 82 66 140 96 245 97 342
1 144 -38 148 -89 10 -16 -44 -33 -84 -38 -88 -4 -4 -7 -14 -7 -22 0 -7 -9
-25 -20 -39 -11 -14 -20 -33 -20 -42 0 -10 -14 -38 -30 -64 -17 -26 -30 -54
-30 -61 0 -20 -106 -136 -124 -136 -7 0 -30 -18 -51 -40 -21 -22 -43 -40 -48
-40 -5 0 -23 -10 -40 -22 -37 -27 -103 -58 -122 -58 -7 0 -15 -4 -17 -8 -6
-16 -106 -51 -206 -72 -152 -33 -388 -21 -511 25 -71 26 -80 33 -87 71 -6 34
17 117 36 129 5 3 26 -2 47 -11 51 -22 153 -19 201 5 66 33 175 60 262 64 109
6 176 32 265 102 39 30 87 67 107 82 21 16 37 32 38 37 0 5 17 36 38 70 77
122 132 259 132 326 0 60 -28 101 -57 84 -10 -6 -24 -24 -32 -40 -7 -16 -20
-42 -28 -59 -8 -16 -21 -49 -29 -72 -8 -24 -25 -59 -37 -79 -29 -47 -99 -124
-112 -124 -6 0 -27 -16 -45 -35 -52 -54 -210 -121 -360 -155 -79 -17 -249 -5
-332 24 -25 9 -52 14 -60 11 -7 -3 -30 -35 -52 -70 -21 -36 -42 -65 -47 -65
-5 0 -12 -12 -15 -27 -4 -16 -15 -37 -25 -48 -11 -11 -34 -40 -51 -64 -34 -45
-39 -48 -153 -104 -96 -47 -162 -61 -280 -62 -79 0 -116 5 -174 24 -67 21 -74
22 -89 7 -14 -14 -14 -17 3 -36 21 -23 97 -60 200 -98 62 -22 89 -25 239 -29
139 -3 176 -7 205 -22 45 -23 165 -60 256 -78 84 -17 341 -18 533 -2 150 13
163 9 138 -39 -9 -17 -16 -50 -16 -72 0 -23 -5 -50 -11 -61 -33 -63 -58 -326
-66 -708 -4 -167 -2 -212 11 -252 24 -73 20 -107 -24 -194 -48 -94 -54 -164
-19 -209 l22 -27 -28 -87 c-34 -109 -44 -139 -60 -177 -7 -16 -18 -61 -25
-100 -6 -38 -23 -110 -36 -160 -13 -49 -31 -117 -40 -150 -9 -33 -17 -76 -19
-95 -3 -36 -5 -48 -56 -265 -17 -71 -32 -139 -34 -151 -3 -12 -41 -48 -90 -85
-48 -35 -101 -76 -119 -91 -19 -16 -37 -28 -41 -28 -5 0 -22 -10 -39 -23 -29
-21 -71 -47 -171 -104 -22 -13 -96 -50 -165 -84 -69 -33 -133 -64 -143 -70
-24 -13 -92 -35 -270 -84 -58 -17 -82 -41 -70 -73 6 -14 52 -16 87 -2 14 5 78
21 142 35 64 15 140 34 168 42 78 24 220 75 231 83 6 4 33 15 60 24 28 9 78
34 110 56 33 22 65 40 70 40 6 0 40 30 75 66 71 71 173 137 248 159 90 27 218
38 300 27 42 -6 124 -14 182 -17 245 -15 328 -24 336 -37 3 -5 -1 -17 -10 -27
-9 -10 -16 -22 -16 -27 0 -5 -12 -26 -26 -47 -29 -43 -58 -141 -69 -232 -11
-83 -7 -247 5 -259 5 -5 10 -32 10 -58 0 -27 7 -65 15 -85 8 -19 15 -43 15
-52 0 -9 14 -45 30 -79 41 -87 25 -106 -48 -57 -55 37 -91 89 -167 239 -39 75
-76 148 -83 161 -9 18 -21 25 -42 25 -33 0 -227 -52 -256 -69 -11 -6 -48 -20
-84 -32 -36 -11 -69 -24 -75 -29 -5 -4 -64 -29 -130 -54 -66 -26 -129 -51
-140 -56 -35 -16 -227 -59 -320 -71 -133 -18 -234 -15 -326 11 -78 22 -121 52
-103 69 5 5 54 12 109 15 177 10 273 23 351 47 17 5 39 9 50 9 20 0 119 49
167 82 15 11 27 28 27 39 0 32 -37 38 -100 16 -62 -22 -103 -33 -175 -47 -27
-5 -79 -17 -115 -25 -94 -22 -353 -55 -378 -48 -35 9 -68 -5 -80 -32 -24 -52
-16 -75 51 -138 67 -63 111 -87 252 -137 l90 -32 165 5 c170 5 256 19 495 81
110 29 237 78 273 107 13 10 37 21 55 24 18 4 46 15 62 25 17 10 49 20 71 24
45 6 54 -2 54 -48 0 -51 178 -236 290 -303 104 -63 309 -106 356 -76 23 15 64
114 64 154 0 31 -36 90 -58 96 -22 6 -103 106 -132 163 -12 25 -26 47 -30 50
-19 12 -78 221 -85 300 -16 170 -9 185 93 195 117 10 135 19 225 108 96 95
112 114 179 213 28 41 54 74 59 74 18 0 229 432 307 630 33 84 105 308 123
385 6 28 15 54 19 58 4 5 41 -3 81 -18 41 -14 85 -28 99 -32 14 -3 75 -20 135
-38 107 -32 169 -46 289 -66 32 -5 67 -14 77 -19 10 -6 29 -10 43 -10 14 0 35
-4 48 -9 13 -6 63 -22 111 -37 l89 -27 -7 -36 c-4 -20 -12 -43 -19 -51 -26
-32 -126 -285 -126 -319 0 -13 -7 -32 -15 -41 -8 -9 -19 -46 -24 -83 -5 -37
-16 -87 -24 -110 -51 -144 -54 -620 -5 -802 21 -77 27 -100 48 -164 11 -36 20
-81 20 -100 0 -20 9 -47 20 -61 11 -14 20 -30 20 -35 0 -6 11 -30 24 -55 13
-25 26 -58 30 -75 4 -16 12 -35 18 -42 5 -7 25 -43 44 -80 18 -37 45 -86 58
-108 14 -22 39 -65 55 -95 16 -30 38 -66 50 -79 12 -13 21 -27 21 -32 0 -4 29
-42 65 -86 103 -125 112 -137 119 -159 3 -12 18 -26 31 -32 14 -6 25 -16 25
-21 0 -10 40 -50 100 -101 23 -19 61 -53 84 -76 22 -22 59 -54 81 -69 22 -16
60 -48 85 -71 25 -23 61 -47 80 -54 31 -11 42 -9 97 14 34 14 68 26 75 26 20
0 236 114 315 167 15 10 45 27 66 37 20 11 37 22 37 27 0 4 15 16 33 28 146
95 175 110 200 111 33 0 138 -67 250 -160 93 -78 317 -325 317 -351 0 -5 7 -9
15 -9 8 0 25 -15 37 -34 31 -45 156 -190 244 -281 l72 -75 58 0 c107 0 147 50
124 155 -6 28 -15 68 -19 90 -4 22 -13 51 -20 64 -8 14 -19 47 -26 75 -17 67
-31 106 -70 191 -18 39 -47 104 -65 145 -18 41 -43 90 -57 108 -13 18 -33 52
-43 75 -10 23 -30 53 -44 67 -15 13 -26 29 -26 36 0 11 -78 106 -147 179 -62
66 -136 126 -150 123 -32 -6 -37 -32 -18 -111 16 -67 22 -79 60 -111 23 -20
58 -60 78 -88 41 -62 107 -207 132 -293 9 -33 23 -73 30 -90 8 -16 19 -55 25
-85 7 -30 18 -73 26 -95 8 -23 14 -46 14 -53 0 -26 -30 -10 -64 36 -65 86
-100 126 -165 187 -36 33 -80 77 -99 98 -20 21 -60 54 -90 74 -30 20 -69 51
-86 69 -17 17 -61 46 -98 63 -37 18 -72 39 -79 47 -6 8 -19 14 -29 14 -9 0
-24 8 -33 18 -14 16 -11 23 54 97 38 44 69 83 69 87 0 4 6 13 13 20 28 31 53
78 61 118 11 54 27 63 117 67 46 3 145 -3 219 -12 208 -25 352 -36 389 -31 24
4 51 22 92 63 33 32 59 61 59 64 0 3 16 23 36 44 20 21 47 57 61 79 36 59 103
158 123 181 17 20 32 49 144 278 53 108 59 125 64 202 4 65 1 92 -12 119 -24
51 -21 66 14 66 17 0 72 18 124 40 106 45 163 51 191 20 10 -11 26 -22 36 -25
11 -4 19 -14 19 -24 0 -10 30 -51 68 -90 55 -58 72 -71 98 -71 43 0 53 17 61
92 5 61 4 66 -32 123 -21 33 -42 62 -47 63 -4 2 -8 9 -8 15 0 7 -22 35 -48 64
-79 87 -144 100 -251 50 -68 -31 -184 -109 -244 -163 -69 -62 -91 -70 -127
-44 -15 11 -33 20 -38 20 -11 0 -146 62 -172 79 -8 6 -44 23 -80 39 -133 60
-161 75 -171 93 -5 10 -14 90 -19 176 -5 87 -13 174 -19 193 -16 51 -49 101
-72 107 -10 3 -19 9 -19 13 0 11 -67 28 -163 40 -51 7 -96 19 -108 29 -20 16
-19 16 10 101 16 47 39 110 51 140 50 123 123 445 140 615 17 164 8 392 -19
495 -64 240 -91 307 -162 397 -27 34 -49 66 -49 71 0 16 -204 218 -252 251
-26 17 -89 52 -141 77 -82 40 -104 46 -192 53 -88 8 -107 6 -159 -11 -76 -26
-172 -19 -294 23 -48 16 -103 33 -123 38 -50 11 -56 16 -83 70 -14 26 -32 53
-40 60 -9 8 -16 19 -16 27 0 7 -18 42 -40 76 -22 35 -40 69 -40 77 0 7 -11 34
-25 60 -35 66 -66 144 -149 381 -15 41 -33 87 -41 102 -22 38 -19 110 6 158
56 107 282 220 439 220 46 0 54 -4 104 -49 l54 -49 61 19 c184 57 411 101 586
114 258 19 891 37 937 26 21 -5 58 -21 83 -35 54 -32 162 -126 190 -165 11
-16 39 -55 61 -87 56 -80 128 -148 191 -181 l52 -28 30 29 c54 52 79 193 47
269 -7 18 -16 55 -20 82 -11 78 -46 177 -72 206 -13 14 -24 27 -24 30 0 2 -25
31 -55 63 -100 108 -90 142 102 334 206 207 325 332 358 377 16 22 32 42 35
45 3 3 25 32 49 65 25 33 48 62 52 65 15 10 101 133 152 217 90 147 99 169 91
221 -7 48 -48 102 -78 102 -21 0 -50 -40 -91 -126 -19 -41 -39 -80 -45 -87 -5
-7 -41 -50 -80 -95 -38 -46 -70 -88 -70 -92 0 -5 -31 -43 -70 -84 -38 -42 -70
-80 -70 -86 0 -5 -5 -10 -11 -10 -7 0 -27 -15 -46 -32 -46 -44 -114 -112 -135
-135 -9 -10 -46 -47 -83 -83 -37 -36 -91 -98 -122 -138 -38 -52 -66 -79 -95
-92 -74 -33 -106 -127 -73 -216 19 -51 49 -92 134 -183 28 -30 51 -61 51 -68
0 -8 6 -24 14 -36 35 -55 54 -237 25 -237 -5 0 -20 17 -33 39 -71 113 -291
240 -493 286 -137 31 -128 26 -126 71 8 140 8 381 0 392 -6 7 -11 25 -13 40
-5 52 -33 158 -63 241 -17 46 -31 89 -31 96 0 6 19 21 43 33 80 41 297 162
389 217 62 37 134 75 152 81 11 3 46 23 76 44 31 20 66 41 79 45 13 4 39 18
58 31 20 13 40 24 45 24 5 0 39 21 76 47 81 57 146 100 203 133 23 14 75 58
115 99 100 100 152 208 108 225 -24 9 -29 8 -51 -16z m-2828 -804 c38 -9 52
-20 80 -64 12 -19 35 -49 51 -66 71 -76 112 -181 155 -404 37 -186 49 -273 49
-365 0 -85 -1 -90 -27 -111 l-28 -22 18 -37 c17 -36 16 -55 -4 -55 -6 0 -16
15 -24 34 -15 35 -67 86 -89 86 -15 0 -26 83 -26 195 0 39 -6 94 -14 121 -8
27 -22 89 -31 138 -15 83 -73 243 -99 276 -7 8 -27 47 -46 85 -19 39 -56 94
-83 123 -28 29 -47 55 -44 58 21 21 93 25 162 8z m601 -63 c42 -27 94 -84 94
-103 0 -5 14 -27 30 -50 17 -22 30 -50 30 -62 0 -12 11 -39 23 -61 37 -64 52
-171 51 -355 0 -173 -7 -291 -19 -309 -7 -12 -85 -15 -85 -3 -1 57 -24 314
-36 402 -29 209 -68 346 -136 484 -28 55 -31 86 -9 86 6 0 31 -13 57 -29z
m-1231 -35 c92 -42 127 -84 213 -256 54 -109 99 -238 112 -327 5 -28 11 -57
15 -62 16 -26 33 -125 39 -223 4 -59 9 -121 12 -136 5 -27 2 -31 -38 -51 -71
-34 -73 -32 -87 67 -28 205 -75 369 -147 515 -13 27 -24 53 -24 58 0 5 -8 22
-19 37 -10 15 -40 61 -67 102 -58 91 -141 180 -212 227 -77 52 -57 68 88 71
49 1 77 -4 115 -22z m1793 -86 c56 -30 80 -54 96 -96 38 -101 68 -356 62 -518
-4 -102 -8 -123 -28 -152 -13 -19 -29 -36 -35 -39 -35 -13 -39 3 -51 228 -12
234 -27 327 -77 467 -37 104 -41 130 -21 130 9 0 33 -9 54 -20z m-2378 -158
c100 -43 120 -56 185 -119 65 -62 155 -188 155 -216 0 -9 11 -36 25 -60 24
-45 65 -177 71 -232 36 -329 41 -392 32 -424 -23 -89 -61 -154 -108 -183 -37
-22 -38 -38 -4 -77 26 -31 26 -58 1 -90 -14 -16 -25 -37 -71 -128 -20 -40 -44
-78 -54 -85 -10 -7 -36 -40 -57 -73 -65 -99 -241 -291 -325 -353 -25 -19 -54
-44 -65 -56 -18 -21 -133 -107 -224 -168 -18 -13 -42 -31 -52 -40 -10 -10 -22
-18 -25 -18 -3 0 -19 -9 -35 -21 -16 -11 -44 -25 -62 -30 -18 -5 -42 -17 -53
-27 -37 -34 -241 -151 -265 -152 -9 0 -23 -7 -30 -16 -7 -9 -33 -26 -59 -39
-25 -12 -76 -39 -115 -60 -39 -22 -98 -44 -135 -51 -36 -7 -81 -17 -101 -22
-53 -13 -219 -8 -249 8 -14 7 -46 32 -73 56 -56 50 -127 87 -159 82 -13 -2
-28 -15 -35 -29 -17 -35 -67 -43 -155 -23 -37 9 -74 14 -81 11 -6 -2 -20 0
-29 5 -14 7 -18 22 -18 73 0 35 5 67 10 70 6 4 45 -1 86 -10 48 -11 93 -14
122 -10 39 5 55 2 92 -19 64 -36 77 -42 152 -60 81 -20 199 -20 253 -1 22 8
48 15 58 15 19 0 43 11 339 154 87 42 162 76 168 76 6 0 39 22 74 50 36 27 88
64 118 82 29 17 76 51 103 73 28 23 58 46 67 51 38 20 266 238 308 295 14 18
50 63 81 99 64 75 189 262 189 282 0 8 11 36 23 64 13 27 32 74 42 104 10 30
21 64 26 75 19 51 31 95 40 160 28 184 17 336 -32 440 -16 35 -29 67 -29 72 0
5 -15 31 -32 58 -18 28 -42 67 -52 87 -19 36 -71 94 -119 134 -15 12 -61 37
-104 55 -63 27 -90 33 -140 32 -35 0 -63 3 -63 7 0 11 72 70 85 70 6 0 27 9
48 20 20 11 45 20 55 20 9 0 33 9 52 19 48 27 75 26 150 -7z m-500 -335 c73
-20 88 -31 215 -152 51 -49 52 -51 59 -122 9 -87 6 -353 -3 -353 -4 0 -13 -28
-20 -62 -16 -73 -62 -187 -96 -240 -14 -21 -25 -45 -25 -53 0 -18 -120 -204
-144 -224 -9 -8 -16 -19 -16 -25 0 -14 -203 -223 -244 -251 -16 -11 -41 -29
-57 -40 -92 -67 -147 -103 -166 -109 -11 -4 -28 -15 -38 -26 -10 -11 -24 -20
-30 -20 -7 0 -36 -16 -64 -35 -28 -19 -55 -35 -60 -35 -6 0 -49 -20 -95 -45
-47 -25 -95 -45 -107 -45 -11 0 -41 -6 -67 -14 -53 -16 -178 -36 -221 -36 -49
0 -173 36 -236 68 -88 45 -100 47 -125 20 -11 -12 -23 -34 -26 -48 -10 -45
-14 -52 -27 -47 -18 6 -14 90 6 120 9 14 45 42 79 63 73 42 126 47 220 19 135
-39 397 10 571 107 89 49 83 46 148 88 30 19 62 40 71 45 9 6 61 41 116 78 91
62 106 78 184 185 127 176 129 180 193 327 72 167 89 245 75 355 -26 218 -78
309 -198 345 -75 23 -133 12 -205 -37 -33 -22 -61 -37 -64 -34 -15 15 130 161
192 194 31 16 133 51 150 51 6 0 30 -5 55 -12z m1316 -1285 c4 -30 4 -98 0
-151 -8 -113 -36 -182 -100 -247 -97 -97 -253 -269 -276 -304 -14 -21 -35 -43
-47 -49 -13 -6 -23 -16 -23 -23 0 -26 -187 -183 -325 -274 -139 -90 -232 -144
-250 -144 -8 0 -18 -6 -21 -14 -5 -12 -135 -96 -149 -96 -2 0 -29 -16 -60 -35
-110 -71 -321 -164 -442 -196 -97 -26 -139 -32 -234 -33 -85 -1 -120 3 -133
13 -19 16 -5 41 24 41 10 0 78 29 152 64 73 35 162 76 198 91 36 15 79 38 97
51 17 13 35 24 40 24 22 0 258 124 316 167 113 82 149 108 171 120 28 16 66
44 84 63 8 8 26 20 39 27 12 7 33 19 46 26 32 17 154 106 196 143 20 17 52 42
71 55 20 13 53 41 75 61 22 20 62 56 89 80 50 44 165 171 201 222 11 16 30 40
41 55 12 14 24 36 28 48 4 11 22 41 41 65 19 23 35 48 35 55 0 6 11 33 24 60
14 26 28 62 32 78 16 68 49 45 60 -43z m325 -609 c6 -6 14 -27 19 -48 8 -34 5
-41 -37 -97 -25 -33 -51 -62 -58 -65 -7 -2 -34 -31 -59 -63 -42 -54 -214 -239
-245 -264 -7 -6 -69 -66 -137 -133 -67 -68 -129 -123 -136 -123 -8 0 -33 -22
-57 -50 -24 -27 -49 -50 -56 -50 -6 0 -20 -9 -31 -21 -22 -24 -101 -79 -114
-79 -5 0 -21 -12 -37 -28 -24 -24 -160 -111 -188 -120 -5 -2 -32 -14 -60 -27
-228 -105 -540 -182 -635 -158 -67 18 -44 47 80 101 30 13 73 32 95 42 77 36
150 67 176 73 14 4 69 31 121 61 53 30 105 57 116 61 40 12 172 91 256 152 32
24 63 43 70 43 6 0 36 23 65 50 30 28 57 50 60 50 4 0 28 21 55 45 27 25 53
45 58 45 5 0 65 56 133 125 69 68 134 129 145 135 11 6 20 15 20 21 0 9 26 41
95 116 17 18 64 75 105 128 l75 95 48 -3 c27 -2 53 -9 58 -14z m601 -125 c18
-34 18 -40 5 -65 -8 -15 -20 -39 -26 -53 -14 -31 -30 -57 -58 -93 -13 -16 -23
-35 -23 -43 0 -15 -44 -90 -67 -112 -7 -7 -13 -18 -13 -23 0 -8 -69 -99 -90
-119 -3 -3 -23 -32 -44 -64 -41 -62 -212 -236 -232 -236 -7 0 -17 -13 -22 -29
-6 -16 -27 -42 -48 -57 -20 -16 -58 -48 -83 -70 -25 -23 -59 -48 -76 -57 -16
-8 -50 -34 -74 -56 -24 -23 -47 -41 -51 -41 -4 0 -23 -10 -41 -23 -19 -13 -59
-36 -89 -52 -30 -17 -57 -32 -60 -35 -7 -7 -50 -31 -160 -87 -80 -42 -113 -52
-205 -67 -78 -13 -120 -16 -144 -9 -42 11 -50 29 -19 39 13 4 58 27 102 50 43
24 83 44 88 44 5 0 42 24 81 54 40 29 86 62 102 72 38 24 32 19 155 119 155
126 434 393 545 522 22 26 84 92 137 147 53 56 106 112 117 126 11 14 25 30
31 37 5 7 10 14 10 16 0 15 205 207 218 205 8 -2 24 -20 34 -40z m430 -155
c41 -44 78 -121 84 -179 6 -46 4 -53 -15 -63 -11 -7 -21 -19 -21 -28 0 -14
-24 -66 -70 -154 -9 -16 -26 -36 -38 -45 -12 -8 -31 -32 -41 -52 -10 -21 -35
-53 -56 -72 -20 -19 -49 -57 -65 -85 -44 -75 -319 -344 -367 -359 -13 -4 -23
-11 -23 -15 0 -13 -192 -167 -236 -189 -22 -11 -46 -28 -54 -37 -13 -16 -90
-70 -154 -110 -18 -11 -48 -30 -67 -43 -55 -36 -63 -28 -73 70 l-8 87 34 29
c18 17 57 47 85 69 206 154 713 646 713 690 0 5 15 27 33 49 55 66 182 285
219 378 10 27 28 62 39 78 23 32 36 29 81 -19z m-4099 -444 c26 -5 67 -13 92
-17 46 -9 109 -56 102 -77 -2 -5 -57 -15 -123 -21 -65 -7 -156 -17 -201 -24
-107 -17 -113 -14 -113 53 0 79 22 93 140 95 30 0 76 -3 103 -9z m4331 -429
l1 -143 -28 -36 c-16 -20 -32 -38 -36 -41 -4 -3 -14 -17 -22 -32 -24 -47 -161
-219 -196 -246 -18 -15 -33 -30 -33 -35 0 -8 -122 -127 -131 -127 -3 0 -28
-21 -57 -47 -66 -61 -111 -97 -142 -113 -13 -7 -32 -23 -42 -35 -9 -12 -35
-27 -57 -35 -23 -7 -46 -19 -52 -27 -7 -7 -35 -20 -64 -29 -30 -8 -58 -21 -64
-28 -22 -27 -284 -107 -347 -106 -29 0 -61 38 -83 99 l-19 51 30 16 c17 9 72
29 121 45 50 16 101 36 113 44 13 8 29 15 37 15 7 0 28 11 47 25 19 14 40 25
46 25 7 0 57 27 111 61 142 89 172 110 213 150 20 20 43 40 52 45 38 21 322
311 401 409 57 70 157 206 157 213 0 12 23 33 33 29 5 -1 10 -67 11 -147z
m-4023 -20 c95 -12 145 -23 239 -52 88 -27 115 -41 114 -60 -1 -10 23 -25 68
-44 58 -24 100 -57 86 -68 -2 -2 -36 6 -76 17 -45 12 -71 25 -68 32 5 15 -472
13 -564 -3 -36 -6 -110 -14 -165 -17 -117 -8 -130 -1 -141 78 -6 40 -4 47 12
53 11 3 39 14 64 25 46 20 206 46 296 48 28 1 89 -4 135 -9z m244 -547 c28 -8
85 -32 129 -52 60 -27 84 -45 102 -73 13 -20 28 -39 34 -43 12 -8 13 -52 1
-59 -4 -3 -11 -24 -14 -46 -3 -22 -11 -47 -17 -55 -14 -17 -56 -20 -65 -5 -14
22 -140 95 -199 115 -153 52 -280 55 -688 20 -114 -9 -214 -15 -222 -12 -14 5
-13 11 2 45 9 21 31 62 47 91 l30 53 70 -5 c65 -5 313 15 368 28 38 10 277 23
327 18 25 -3 68 -11 95 -20z m2119 -153 c54 -20 23 -41 -99 -67 -38 -8 -97
-17 -130 -19 -73 -4 -160 16 -160 37 0 10 21 16 85 20 47 4 101 14 120 22 40
18 146 22 184 7z m1606 -168 c0 -70 -28 -134 -88 -204 -49 -56 -82 -81 -159
-117 -13 -6 -23 -15 -23 -21 0 -6 -12 -16 -27 -22 -41 -18 -164 -97 -198 -129
-16 -15 -57 -43 -90 -61 -33 -19 -69 -40 -80 -46 -43 -25 -130 -62 -145 -62
-8 0 -25 -6 -36 -14 -20 -14 -115 -33 -141 -28 -6 2 -14 -2 -18 -8 -14 -22
-36 -8 -65 43 -30 52 -40 107 -19 107 6 0 80 34 165 75 85 41 161 75 169 75
47 0 442 234 546 324 104 89 134 112 163 127 17 8 34 14 39 12 4 -2 7 -25 7
-51z m-1490 -162 c14 -27 5 -90 -17 -112 -21 -21 -126 -45 -253 -59 -66 -7
-110 -5 -197 9 -111 16 -113 17 -113 43 0 16 13 39 31 59 l32 33 101 -7 c56
-3 124 -11 151 -17 69 -15 150 2 196 41 40 35 55 37 69 10z m1770 -65 c8 -10
12 -40 11 -83 -2 -56 -8 -75 -37 -123 -19 -31 -34 -61 -34 -67 0 -6 -9 -16
-20 -22 -11 -6 -20 -17 -20 -25 0 -33 -84 -141 -128 -164 -12 -6 -29 -27 -37
-46 -8 -20 -29 -44 -49 -56 -19 -11 -38 -29 -41 -40 -4 -11 -25 -32 -48 -47
-23 -15 -52 -39 -65 -54 -13 -15 -33 -30 -45 -34 -12 -4 -39 -20 -59 -36 -20
-15 -58 -38 -85 -49 -26 -11 -61 -27 -78 -34 -160 -74 -177 -77 -216 -47 -13
11 -46 31 -72 47 -27 15 -45 31 -40 35 4 5 62 39 128 76 66 38 126 74 133 81
7 7 17 13 22 13 15 0 154 82 181 107 14 12 30 23 37 23 14 0 139 75 159 96 8
8 21 14 29 14 8 0 14 3 14 8 0 4 52 60 115 124 85 89 122 134 144 182 17 35
31 70 31 78 0 20 29 58 44 58 8 0 19 -7 26 -15z m-4215 -71 c61 -8 140 -19
178 -26 59 -11 67 -15 67 -34 0 -13 -4 -26 -10 -29 -5 -3 -10 -15 -10 -26 0
-11 -13 -33 -28 -49 -41 -40 -119 -49 -221 -24 -42 10 -88 24 -103 31 -49 24
-256 27 -458 9 -102 -10 -210 -16 -240 -14 -50 3 -55 5 -58 28 -6 35 15 97 36
106 49 21 474 53 627 47 61 -3 160 -11 220 -19z m2549 -300 c13 -35 5 -63 -23
-83 -60 -43 -213 -94 -365 -121 -87 -16 -213 -8 -263 17 -36 17 -39 22 -46 77
-5 32 -6 61 -3 64 3 3 46 -1 95 -8 136 -19 276 -7 464 40 133 34 133 34 141
14z m1923 -195 c26 -22 15 -71 -27 -124 -22 -27 -51 -66 -64 -85 -13 -19 -38
-50 -55 -68 -17 -18 -31 -37 -31 -43 0 -11 -188 -199 -199 -199 -5 0 -20 -11
-34 -24 -14 -13 -40 -27 -57 -31 -16 -4 -30 -10 -30 -14 0 -9 -43 -25 -153
-60 -87 -27 -176 -28 -208 -2 l-24 19 34 19 c18 10 60 36 94 58 33 22 74 49
92 60 17 11 58 39 91 63 32 23 97 67 144 98 47 31 105 76 129 100 25 24 50 44
56 44 6 0 26 20 45 44 18 25 39 47 45 50 7 2 27 30 45 61 31 53 34 57 63 51
16 -3 36 -11 44 -17z m371 -191 c11 -23 10 -35 -8 -85 -12 -32 -28 -78 -35
-103 -9 -27 -39 -74 -73 -116 -33 -38 -67 -84 -76 -102 -9 -17 -21 -32 -26
-32 -5 0 -11 -8 -14 -18 -5 -16 -23 -38 -74 -97 -33 -37 -104 -91 -141 -108
-35 -15 -56 -18 -110 -12 -125 12 -128 21 -33 90 93 69 116 89 201 175 156
159 230 257 257 343 33 103 30 98 76 95 35 -2 45 -8 56 -30z m-2164 16 c17 -6
22 -60 8 -79 -14 -20 -81 -65 -96 -65 -9 0 -23 -11 -32 -25 -9 -14 -21 -25
-26 -25 -6 0 -43 -19 -82 -43 -76 -47 -184 -88 -309 -118 -149 -36 -175 -22
-168 92 2 25 57 46 141 53 72 7 264 72 330 112 14 8 50 26 80 40 30 14 73 34
95 45 46 22 39 21 59 13z m236 -374 c25 -46 -61 -154 -178 -225 -201 -122
-326 -170 -470 -181 -81 -6 -95 -5 -112 11 -11 10 -20 30 -20 44 0 24 6 28 68
44 37 10 92 29 122 42 30 13 68 27 85 30 16 4 32 10 35 13 3 4 30 19 60 33
207 99 331 166 360 195 20 20 37 18 50 -6z m244 -280 c25 -9 26 -12 20 -67 -7
-63 -40 -131 -85 -178 -16 -17 -29 -36 -29 -42 0 -6 -13 -13 -29 -16 -15 -3
-41 -17 -57 -30 -16 -13 -40 -28 -54 -32 -14 -4 -32 -13 -40 -20 -8 -7 -40
-25 -70 -40 -29 -15 -65 -36 -80 -46 -14 -10 -54 -23 -90 -29 -36 -5 -81 -14
-100 -20 -67 -19 -116 -13 -153 20 -70 61 -47 90 71 90 63 0 73 3 146 48 172
103 195 118 247 158 30 22 71 51 93 64 44 26 79 57 92 82 9 16 72 65 86 67 4
1 18 -3 32 -9z m396 -244 c0 -7 -11 -23 -25 -36 -14 -13 -25 -27 -25 -32 0 -5
-16 -30 -35 -55 -19 -25 -35 -50 -35 -55 0 -15 -163 -178 -178 -178 -7 0 -15
-7 -19 -15 -3 -9 -22 -24 -43 -35 -20 -10 -51 -30 -67 -44 -36 -30 -150 -96
-166 -96 -7 0 -34 -12 -62 -25 -27 -14 -55 -25 -61 -25 -7 0 -25 -7 -40 -15
-47 -24 -84 -18 -97 17 -7 19 9 34 78 73 28 16 52 31 55 35 3 4 30 19 60 34
101 49 130 66 130 75 0 5 15 14 33 22 17 7 36 19 40 26 4 7 14 13 21 13 7 0
23 11 36 25 13 14 28 25 33 25 27 0 182 138 279 248 41 47 49 52 67 42 12 -6
21 -17 21 -24z"/>
<path d="M8184 8553 c-16 -16 -51 -54 -79 -87 -27 -32 -95 -105 -150 -161 -55
-57 -107 -111 -116 -121 -9 -11 -36 -34 -60 -53 -55 -43 -109 -108 -109 -130
0 -10 6 -25 14 -36 13 -17 15 -17 77 7 74 28 82 34 193 140 86 81 124 115 134
120 4 2 23 23 43 48 20 25 48 57 61 71 14 15 44 61 66 103 l41 75 -30 26 c-39
32 -50 31 -85 -2z"/>
<path d="M1517 8116 c-28 -7 -66 -26 -90 -46 -23 -19 -55 -44 -72 -56 -109
-73 -175 -155 -175 -214 0 -10 -7 -23 -15 -30 -12 -10 -13 -16 -4 -26 17 -21
42 -17 75 14 16 15 41 33 54 40 14 6 48 25 75 40 28 16 68 34 90 41 22 7 77
24 122 39 79 25 85 25 163 13 64 -11 86 -11 110 -1 17 7 30 18 30 24 0 33 -97
127 -155 151 -45 18 -154 24 -208 11z"/>
<path d="M1352 7301 c-7 -4 -24 -31 -37 -59 -21 -46 -23 -60 -16 -121 8 -80
23 -102 80 -121 62 -20 87 -8 117 56 21 44 25 66 22 107 -6 66 -32 121 -64
136 -29 13 -83 14 -102 2z"/>
<path d="M454 7113 c-35 -83 -30 -162 13 -214 33 -39 64 -51 100 -38 50 18 68
55 68 137 0 73 0 73 -42 113 -35 32 -49 39 -82 39 -37 0 -42 -3 -57 -37z"/>
<path d="M872 6885 c-44 -31 -76 -80 -123 -187 -36 -83 -38 -92 -33 -160 4
-65 9 -77 37 -105 28 -30 36 -33 91 -33 84 0 169 41 222 106 21 26 50 58 62
70 38 37 26 58 -33 62 -41 2 -57 -2 -85 -22 -19 -14 -52 -34 -72 -46 -43 -23
-116 -27 -124 -6 -4 12 22 76 60 146 77 143 90 183 60 194 -22 8 -25 7 -62
-19z"/>
<path d="M9053 6713 c-59 -55 -93 -83 -153 -128 -29 -22 -75 -60 -102 -85 -27
-25 -62 -52 -78 -61 -30 -17 -170 -132 -230 -190 -19 -19 -47 -40 -61 -47 -14
-7 -67 -49 -118 -93 -51 -43 -96 -79 -101 -79 -5 0 -35 -24 -67 -53 -32 -29
-69 -60 -83 -69 -14 -8 -54 -41 -90 -72 -36 -31 -72 -62 -80 -70 -8 -7 -44
-33 -80 -59 -36 -25 -95 -74 -131 -109 -37 -35 -100 -88 -140 -118 -108 -81
-178 -157 -164 -180 14 -22 43 -9 136 63 20 15 39 27 43 27 8 0 67 41 81 56
18 21 164 124 174 124 6 0 11 5 11 10 0 6 5 10 10 10 9 0 72 45 127 90 6 5 38
31 70 57 32 25 60 49 63 52 3 4 34 29 68 56 107 84 205 165 249 206 24 21 47
39 51 39 5 0 40 29 77 65 38 36 70 65 72 65 7 0 148 123 151 132 2 4 8 8 13 8
4 0 43 34 86 75 42 41 80 75 83 75 4 0 25 17 46 38 22 20 68 61 102 91 65 56
72 70 46 95 -23 23 -35 20 -81 -21z"/>
<path d="M1248 6559 c-11 -6 -18 -22 -18 -38 0 -25 5 -29 58 -45 118 -35 326
-58 520 -57 104 1 178 20 197 51 16 26 -17 33 -172 35 -90 1 -197 9 -248 18
-84 15 -186 30 -280 41 -22 3 -48 1 -57 -5z"/>
<path d="M8880 5789 c-33 -10 -180 -61 -225 -79 -45 -18 -123 -53 -171 -76
-28 -13 -54 -24 -57 -24 -4 0 -31 -11 -61 -25 -30 -14 -58 -25 -63 -25 -5 0
-25 -11 -45 -25 -20 -14 -42 -25 -48 -25 -15 0 -53 -17 -195 -86 -60 -29 -146
-67 -190 -84 -111 -43 -140 -60 -170 -100 -23 -31 -24 -36 -10 -46 15 -11 49
-9 70 6 11 7 39 15 175 51 47 12 110 35 140 50 30 15 102 48 160 74 133 58
300 141 365 180 42 25 178 95 235 120 8 4 51 25 95 48 114 60 111 98 -5 66z"/>
<path d="M7145 5190 c-70 -11 -210 -62 -260 -95 -105 -68 -181 -158 -200 -236
-7 -27 9 -50 108 -161 23 -25 56 -63 72 -83 28 -34 104 -116 240 -257 30 -32
55 -61 55 -66 0 -5 33 -34 73 -65 40 -31 90 -73 110 -94 64 -65 110 -104 157
-134 25 -16 72 -52 105 -80 33 -28 92 -66 130 -86 39 -19 95 -50 125 -68 108
-65 351 -140 509 -157 98 -10 105 -10 118 8 22 30 27 63 12 80 -22 27 -126 92
-157 99 -16 3 -38 14 -49 24 -11 11 -49 33 -84 51 -35 17 -77 42 -94 54 -16
13 -59 38 -95 56 -36 19 -90 50 -120 70 -30 19 -67 42 -82 49 -14 7 -40 25
-57 40 -16 14 -53 42 -81 61 -29 19 -59 42 -68 50 -8 8 -38 32 -65 52 -28 21
-97 83 -154 138 -58 55 -108 100 -112 100 -5 0 -28 26 -52 58 -24 31 -54 66
-68 77 -53 41 -191 190 -202 217 -18 45 -8 53 89 67 149 22 196 13 326 -64 59
-35 206 -177 206 -198 0 -4 13 -26 30 -49 16 -24 36 -68 44 -98 7 -30 28 -79
46 -107 38 -61 50 -64 153 -37 56 14 107 49 107 73 0 16 33 21 44 7 20 -25 99
-76 118 -76 10 0 38 -10 61 -22 36 -18 60 -21 162 -22 136 -1 236 18 437 85
65 21 128 39 141 39 25 0 70 -28 158 -98 134 -105 169 -132 176 -132 9 0 25
-17 129 -132 41 -45 74 -87 74 -93 0 -6 15 -26 34 -44 43 -41 56 -99 32 -136
-9 -13 -16 -34 -16 -45 0 -12 -11 -41 -25 -66 -14 -25 -25 -52 -25 -60 0 -43
-136 -206 -234 -279 -22 -17 -64 -53 -93 -82 -29 -29 -66 -59 -82 -68 -16 -8
-38 -26 -50 -41 -39 -49 -146 -24 -236 56 -16 14 -46 38 -65 52 -19 14 -48 37
-63 52 -15 14 -41 33 -58 41 -16 9 -29 19 -29 24 0 15 -86 68 -133 81 -42 11
-49 11 -60 -3 -7 -9 -33 -25 -58 -35 -42 -18 -99 -71 -99 -93 0 -5 9 -17 21
-26 11 -10 54 -51 96 -90 41 -40 77 -73 80 -73 2 0 19 -15 37 -32 156 -158
369 -345 412 -364 14 -6 38 -22 53 -37 15 -14 44 -29 64 -32 34 -7 40 -4 92
46 158 151 268 264 289 297 14 20 43 60 65 87 39 50 151 226 151 239 0 4 14
37 32 73 17 36 35 81 39 101 4 21 14 62 23 92 9 30 16 76 16 102 0 51 17 73
34 43 17 -29 78 -84 109 -98 15 -6 27 -15 27 -18 0 -8 131 -113 160 -129 32
-17 103 -4 127 23 27 29 43 80 43 133 0 40 -3 45 -77 108 -43 36 -82 70 -88
76 -5 5 -47 41 -92 80 -46 39 -83 75 -83 81 0 5 -8 9 -18 9 -11 0 -27 10 -38
21 -10 12 -77 71 -149 133 -71 61 -132 113 -135 116 -23 27 -255 230 -285 250
-36 24 -135 118 -135 127 0 10 77 86 101 99 31 18 89 92 95 123 6 30 5 31 -27
31 -18 0 -67 -17 -108 -37 -66 -32 -102 -52 -216 -120 -11 -7 -49 -29 -85 -49
-36 -21 -67 -40 -70 -44 -3 -4 -52 -32 -110 -62 -132 -69 -218 -88 -403 -88
-185 0 -269 26 -303 92 -8 16 -19 62 -23 102 -8 68 -12 78 -60 138 -92 118
-218 210 -353 259 -71 26 -90 29 -196 28 -64 -1 -139 -5 -167 -9z"/>
<path d="M7172 4108 c-21 -21 -14 -38 38 -98 28 -32 50 -67 50 -79 0 -11 5
-21 11 -21 16 0 21 -7 153 -206 98 -147 129 -184 152 -184 22 0 -34 134 -63
153 -7 4 -13 12 -13 17 0 5 -16 34 -35 64 -19 30 -35 60 -35 65 0 6 -10 20
-23 33 -13 13 -46 57 -75 98 -71 103 -143 175 -160 158z"/>
<path d="M7685 3779 c-5 -13 0 -28 12 -42 10 -12 24 -33 32 -47 47 -81 114
-185 122 -188 5 -2 9 -7 9 -12 0 -5 19 -37 42 -72 59 -88 82 -125 113 -183 15
-27 49 -77 75 -110 26 -33 62 -87 80 -120 18 -33 43 -71 56 -86 13 -14 24 -29
24 -33 0 -16 76 -132 110 -169 25 -26 41 -36 53 -31 25 9 21 26 -14 70 -42 52
-134 194 -177 274 -19 36 -43 79 -52 95 -15 28 -50 88 -77 130 -7 11 -22 38
-34 60 -12 22 -32 54 -44 70 -13 17 -39 63 -60 102 -20 40 -40 75 -46 78 -5 4
-43 51 -84 105 -68 90 -107 130 -127 130 -3 0 -10 -9 -13 -21z"/>
<path d="M7997 2123 c-4 -3 -7 -19 -7 -35 0 -21 6 -31 24 -37 12 -5 38 -28 57
-52 18 -23 55 -65 81 -92 26 -28 48 -54 48 -58 0 -4 6 -14 13 -21 55 -58 99
-121 141 -199 15 -30 38 -67 51 -84 24 -33 68 -126 61 -132 -2 -2 5 -28 16
-56 54 -144 49 -152 -57 -87 -36 22 -69 40 -74 40 -5 0 -31 15 -57 33 -27 19
-80 49 -119 68 -68 34 -92 48 -165 95 -19 12 -45 25 -57 29 -13 3 -44 18 -70
33 -27 15 -61 32 -78 38 -16 7 -55 22 -85 34 -30 12 -64 24 -75 27 -19 5 -28
8 -88 32 -15 6 -39 11 -52 11 -39 0 -30 -29 13 -46 102 -41 302 -143 342 -174
19 -15 45 -30 57 -34 12 -4 37 -21 54 -37 18 -17 53 -41 78 -54 25 -13 57 -34
70 -47 14 -12 39 -32 57 -43 18 -11 67 -47 110 -80 72 -55 98 -75 213 -160 23
-16 73 -54 112 -82 39 -29 75 -53 79 -53 5 0 24 -13 42 -30 27 -25 41 -30 80
-30 53 0 88 24 88 60 0 23 -36 164 -49 195 -12 28 -36 99 -57 170 -9 33 -25
76 -34 95 -10 19 -34 70 -54 112 -20 42 -40 79 -45 83 -5 3 -12 18 -15 33 -5
22 -37 70 -85 128 -5 6 -12 20 -15 32 -4 12 -13 28 -21 34 -150 143 -192 180
-246 219 -36 26 -85 54 -110 62 -25 8 -67 27 -93 41 -50 27 -68 31 -79 19z"/>
</g>
</svg>
