<?xml version="1.0" standalone="no"?>
<!DOCTYPE svg PUBLIC "-//W3C//DTD SVG 20010904//EN"
 "http://www.w3.org/TR/2001/REC-SVG-20010904/DTD/svg10.dtd">
<svg version="1.0" xmlns="http://www.w3.org/2000/svg"
 width="1096.000000pt" height="757.000000pt" viewBox="0 0 1096.000000 757.000000"
 preserveAspectRatio="xMidYMid meet">
<metadata>
Created by potrace 1.14, written by Peter Selinger 2001-2017
</metadata>
<g transform="translate(0.000000,757.000000) scale(0.100000,-0.100000)"
fill="#000000" stroke="none">
<path d="M5780 7560 c-19 -4 -73 -21 -120 -38 -47 -17 -126 -45 -177 -63 l-92
-33 -23 21 c-43 39 -91 56 -166 59 -100 4 -189 -12 -234 -41 -21 -14 -42 -25
-47 -25 -5 0 -14 -7 -21 -15 -7 -8 -47 -34 -89 -56 -42 -23 -83 -48 -92 -56
-14 -12 -63 -39 -192 -105 -21 -10 -62 -35 -92 -53 -29 -19 -73 -42 -97 -51
-23 -10 -50 -23 -58 -29 -8 -7 -42 -25 -75 -40 -33 -16 -82 -42 -110 -60 -27
-17 -62 -39 -76 -48 -14 -8 -47 -33 -72 -54 -25 -21 -67 -54 -94 -73 -80 -58
-323 -317 -323 -343 0 -4 -18 -36 -40 -72 -22 -36 -44 -82 -49 -103 -5 -20
-17 -64 -26 -97 -48 -175 -50 -262 -11 -389 19 -61 36 -96 56 -115 15 -14 51
-55 78 -90 28 -34 69 -77 91 -94 68 -52 50 -61 -46 -25 -32 12 -89 47 -128 78
-38 31 -81 64 -95 73 -14 9 -45 33 -70 51 -80 61 -174 115 -223 127 -116 28
-416 -22 -496 -83 -13 -10 -27 -18 -31 -18 -5 0 -32 -16 -61 -35 -30 -19 -58
-35 -63 -35 -8 0 -60 -39 -131 -100 -16 -14 -63 -59 -105 -101 -41 -41 -87
-83 -103 -93 -15 -10 -27 -24 -27 -31 0 -13 -37 -64 -96 -132 -25 -30 -37 -36
-71 -36 -28 0 -47 7 -62 22 -41 41 -110 20 -192 -56 -28 -26 -59 -64 -69 -84
-10 -19 -34 -47 -52 -62 -93 -73 -289 -280 -317 -335 -16 -31 -39 -55 -62 -64
-9 -3 -26 -25 -38 -48 -12 -23 -33 -53 -47 -68 -14 -15 -37 -47 -51 -72 -15
-25 -43 -65 -63 -90 -20 -25 -49 -67 -64 -95 -16 -27 -34 -57 -41 -65 -7 -8
-16 -26 -20 -40 -4 -14 -20 -43 -35 -65 -15 -22 -46 -80 -70 -130 -23 -49 -48
-97 -56 -106 -15 -17 -134 -290 -154 -354 -7 -22 -16 -44 -20 -50 -4 -5 -15
-35 -24 -65 -9 -30 -21 -62 -26 -72 -5 -9 -16 -45 -25 -80 -9 -34 -30 -102
-46 -150 -16 -49 -31 -100 -33 -115 -2 -16 -18 -85 -35 -155 -17 -70 -31 -139
-31 -153 0 -41 49 -55 207 -61 91 -3 141 -9 156 -18 12 -8 72 -27 132 -42 115
-28 155 -53 155 -96 0 -19 63 -106 101 -138 10 -8 27 -36 38 -63 11 -26 24
-47 29 -47 5 0 30 -17 57 -37 47 -37 51 -38 130 -38 75 0 85 -2 102 -24 36
-44 87 -53 426 -78 51 -4 92 -1 117 7 32 11 50 10 110 -4 40 -9 98 -16 129
-16 73 0 215 27 267 51 54 25 77 24 111 -5 30 -25 50 -38 159 -100 38 -22 71
-42 74 -45 3 -4 18 -13 33 -21 16 -8 33 -22 38 -32 5 -10 18 -18 29 -18 11 0
41 -21 68 -47 54 -55 94 -83 117 -83 29 0 95 52 101 79 6 29 31 105 44 136 5
11 18 56 29 100 11 44 26 100 34 125 9 25 27 81 41 125 14 44 40 118 57 165
17 47 34 99 38 115 4 17 13 40 20 52 6 13 30 73 52 135 35 100 94 235 120 278
5 8 17 33 26 55 9 22 39 85 66 140 27 55 55 116 62 136 7 19 28 60 47 90 19
29 39 65 46 79 7 14 29 54 48 90 20 36 48 88 61 115 26 51 113 201 142 244 24
36 80 119 134 199 26 40 59 84 73 98 13 15 24 33 24 40 0 26 -35 14 -57 -19
-12 -17 -44 -56 -71 -86 -56 -60 -103 -122 -146 -190 -15 -25 -32 -48 -36 -51
-4 -3 -17 -25 -30 -50 -12 -25 -37 -67 -55 -95 -81 -124 -134 -214 -154 -260
-36 -80 -55 -115 -73 -132 -10 -9 -18 -21 -18 -27 0 -16 -71 -179 -85 -196 -7
-8 -31 -54 -54 -102 -22 -49 -58 -125 -80 -170 -21 -46 -44 -101 -51 -122 -7
-22 -26 -65 -41 -97 -16 -32 -29 -69 -29 -83 0 -14 -4 -28 -10 -31 -5 -3 -18
-34 -29 -68 -10 -34 -35 -102 -54 -152 -20 -49 -39 -103 -43 -120 -3 -16 -14
-46 -24 -65 -10 -19 -23 -60 -30 -90 -7 -30 -18 -66 -25 -80 -21 -40 -45 -109
-45 -129 0 -10 -8 -25 -18 -35 -17 -15 -23 -15 -62 -1 -41 14 -102 54 -125 81
-5 6 -37 28 -70 49 -64 39 -118 75 -150 100 -10 8 -25 15 -32 15 -8 0 -47 16
-87 35 -41 19 -79 35 -85 35 -5 0 -27 11 -48 25 -130 84 -153 117 -153 215 0
68 -5 66 95 45 95 -20 120 -19 190 11 33 15 80 33 105 42 50 17 94 53 116 94
17 33 19 129 2 146 -8 8 -46 12 -106 12 -88 0 -96 2 -140 32 -26 17 -92 71
-148 119 -56 48 -120 97 -143 108 -24 13 -41 28 -41 39 0 10 25 78 55 152 30
74 55 142 55 152 0 9 4 19 9 23 5 3 17 28 26 56 10 29 35 86 55 128 40 80 72
156 109 258 13 34 34 76 47 94 13 18 24 39 24 46 0 17 46 109 75 148 12 17 36
59 55 95 18 36 56 94 84 130 28 36 63 81 78 100 15 19 41 51 58 70 17 19 43
52 57 72 13 20 30 39 37 41 11 4 143 -20 301 -54 28 -7 66 -12 85 -14 19 -1
87 -9 150 -18 122 -18 269 -32 465 -47 66 -5 147 -14 180 -19 33 -6 105 -13
160 -16 114 -7 132 -16 94 -48 -15 -12 -30 -33 -34 -47 -10 -37 -49 -110 -58
-110 -4 0 -17 -19 -28 -42 -11 -24 -24 -50 -29 -58 -5 -8 -11 -22 -15 -30 -3
-8 -30 -53 -60 -100 -29 -47 -79 -134 -110 -195 -31 -60 -63 -117 -70 -125
-20 -23 -95 -181 -95 -201 0 -10 -11 -30 -23 -46 -13 -15 -29 -43 -35 -61 -6
-18 -32 -69 -57 -113 -25 -45 -45 -86 -45 -91 0 -5 -16 -42 -37 -81 -20 -40
-69 -138 -109 -219 -41 -80 -78 -149 -84 -153 -5 -3 -10 -15 -10 -25 0 -10
-13 -45 -29 -77 -15 -32 -36 -83 -46 -113 -15 -49 -25 -73 -56 -145 -84 -192
-165 -513 -143 -568 16 -44 33 -8 123 261 92 274 108 320 130 367 26 55 69
158 96 230 40 103 113 271 185 420 21 44 50 109 65 145 16 36 36 77 46 92 11
14 19 31 19 37 0 13 158 322 193 378 15 24 27 45 27 49 0 3 14 26 30 51 17 24
30 46 30 49 0 2 16 27 35 54 19 27 35 52 35 54 0 9 114 172 140 201 33 36 130
183 130 196 0 5 7 9 15 9 8 0 15 -5 15 -11 0 -15 -39 -78 -62 -101 -9 -9 -29
-40 -43 -68 -14 -29 -47 -84 -73 -123 -25 -40 -53 -85 -63 -102 -9 -16 -28
-52 -43 -80 -15 -27 -35 -61 -44 -75 -32 -47 -42 -65 -51 -85 -24 -54 -45 -96
-80 -160 -63 -113 -141 -276 -141 -296 0 -10 -4 -21 -10 -24 -5 -3 -22 -32
-36 -63 -15 -31 -33 -69 -40 -84 -8 -14 -14 -33 -14 -41 0 -8 -10 -34 -23 -58
-13 -24 -29 -64 -37 -89 -7 -25 -17 -49 -20 -55 -4 -5 -10 -23 -14 -39 -4 -16
-16 -41 -27 -54 -10 -14 -19 -32 -19 -41 0 -9 -11 -37 -25 -63 -14 -26 -25
-53 -25 -60 -1 -7 -9 -31 -20 -53 -11 -22 -19 -47 -20 -55 0 -18 -38 -115 -91
-230 -21 -47 -50 -119 -64 -160 -31 -90 -86 -346 -79 -365 14 -35 64 -16 64
24 0 10 5 32 11 50 9 25 14 29 25 20 18 -15 19 -119 2 -142 -13 -17 -59 -51
-168 -123 -30 -20 -73 -48 -94 -63 -62 -41 -107 -68 -158 -94 -26 -13 -53 -29
-60 -34 -12 -10 -187 -99 -253 -128 -16 -7 -55 -25 -86 -39 -31 -14 -59 -26
-63 -26 -3 0 -49 -20 -100 -45 -52 -25 -104 -45 -115 -45 -12 0 -49 -11 -83
-24 -54 -20 -141 -48 -273 -87 -69 -20 -267 -60 -365 -74 -58 -8 -143 -22
-190 -30 -137 -25 -297 -36 -592 -40 -259 -3 -315 -9 -319 -33 -7 -34 -5 -112
2 -132 9 -23 42 -49 94 -74 25 -12 309 -29 470 -29 111 0 188 8 460 49 206 30
487 97 655 156 63 22 133 45 155 50 22 6 45 14 50 19 18 13 167 89 240 121 39
17 99 49 135 72 91 58 101 63 141 85 19 11 41 27 48 35 8 9 18 16 23 16 5 0
41 26 80 57 39 32 85 69 102 83 79 63 221 203 312 308 39 45 42 54 68 187 28
140 66 284 91 340 8 17 26 68 40 115 14 47 32 101 40 120 8 19 37 103 66 185
49 143 59 169 107 275 11 25 43 102 72 170 29 69 58 136 65 150 8 14 28 62 46
108 17 45 45 103 60 127 16 25 29 49 29 54 0 17 51 119 65 131 8 7 15 17 15
22 0 16 66 144 89 174 11 15 21 33 21 40 0 7 20 42 45 78 25 37 45 71 45 77 0
6 13 28 29 48 15 20 34 47 41 61 7 14 30 48 51 76 22 28 39 55 39 60 0 15 88
94 105 94 22 0 19 -12 -15 -56 -16 -21 -30 -43 -30 -48 0 -5 -27 -62 -60 -128
-33 -65 -60 -123 -60 -130 0 -6 -13 -33 -30 -60 -16 -26 -30 -53 -30 -59 0 -6
-11 -25 -25 -43 -14 -18 -25 -40 -25 -49 0 -9 -15 -37 -32 -63 -33 -48 -80
-134 -117 -210 -11 -23 -24 -45 -30 -48 -11 -7 -61 -106 -61 -120 0 -5 -10
-21 -21 -38 -27 -37 -102 -190 -119 -243 -7 -22 -24 -56 -36 -75 -13 -19 -29
-51 -35 -70 -7 -19 -20 -46 -29 -60 -9 -14 -20 -38 -24 -55 -4 -16 -25 -66
-46 -112 -22 -45 -53 -123 -69 -172 -17 -50 -35 -98 -40 -108 -6 -10 -20 -52
-31 -93 -39 -142 -43 -155 -62 -210 -11 -30 -24 -63 -29 -72 -5 -10 -9 -26 -9
-36 0 -10 -11 -51 -25 -92 -14 -40 -30 -110 -36 -154 -10 -69 -10 -86 4 -119
18 -42 43 -48 57 -14 5 12 21 73 36 135 18 77 34 122 50 141 13 16 24 32 24
35 0 4 17 29 38 56 62 81 76 103 95 145 10 22 26 49 36 60 24 28 111 179 111
194 0 7 19 50 43 95 23 46 55 112 71 147 16 35 34 75 41 89 38 76 42 150 10
150 -13 0 -138 -200 -167 -266 -6 -16 -20 -38 -29 -49 -9 -11 -40 -66 -69
-122 -28 -57 -56 -103 -62 -103 -26 0 25 179 107 375 26 61 51 123 56 140 5
16 30 51 56 77 47 48 48 49 54 133 8 107 33 146 104 164 25 6 50 9 54 6 5 -2
64 -8 131 -11 102 -5 132 -3 182 12 56 17 62 17 91 1 18 -9 61 -21 97 -27 71
-11 167 -27 245 -41 28 -5 84 -13 125 -18 79 -9 196 -37 319 -77 40 -13 82
-24 93 -24 27 0 261 -76 343 -112 100 -44 338 -161 420 -208 106 -60 127 -70
140 -70 7 0 19 -7 26 -17 8 -9 32 -25 54 -35 53 -25 116 -64 124 -75 3 -5 28
-22 55 -37 50 -29 88 -58 115 -88 8 -10 20 -18 26 -18 5 0 33 -20 60 -45 28
-25 59 -48 70 -51 11 -4 49 -30 85 -58 36 -28 71 -55 79 -61 7 -5 30 -25 50
-44 19 -19 52 -44 73 -57 20 -13 39 -32 43 -43 3 -11 15 -23 26 -26 11 -4 40
-26 64 -49 51 -49 51 -64 0 -136 -17 -25 -44 -69 -61 -97 -16 -29 -32 -53 -36
-53 -4 0 -15 -17 -23 -37 -9 -21 -36 -67 -60 -103 -24 -36 -51 -85 -60 -110
-8 -24 -21 -51 -28 -60 -7 -8 -22 -35 -33 -60 -10 -25 -27 -53 -36 -62 -10
-10 -18 -26 -18 -37 0 -10 -7 -24 -16 -32 -21 -17 -50 -76 -58 -119 -3 -19
-19 -53 -35 -75 -27 -37 -30 -50 -33 -138 -3 -83 -7 -100 -26 -120 -12 -13
-22 -35 -22 -49 0 -30 -23 -53 -42 -42 -7 4 -40 29 -73 54 -61 47 -132 97
-163 115 -66 40 -162 109 -186 134 -16 17 -33 31 -38 31 -8 0 -64 43 -138 107
-14 12 -61 53 -105 90 -44 37 -98 85 -120 105 -22 21 -44 38 -48 38 -5 0 -29
18 -54 40 -25 22 -70 56 -100 76 -30 20 -69 48 -87 63 -27 23 -65 49 -127 86
-9 6 -41 28 -70 51 -30 22 -65 47 -78 55 -13 8 -54 35 -89 62 -74 54 -64 50
-231 72 -119 15 -191 35 -191 52 1 4 7 19 15 33 8 14 14 39 15 57 0 27 -6 36
-43 58 -24 14 -54 25 -66 25 -12 0 -32 6 -44 13 -20 13 -86 29 -225 56 -48 10
-337 30 -407 28 -16 0 -77 3 -135 7 -92 7 -108 6 -120 -9 -40 -49 86 -81 454
-115 61 -5 135 -16 165 -24 31 -8 88 -20 127 -26 94 -15 117 -38 118 -114 1
-47 5 -56 31 -77 49 -40 77 -47 231 -59 81 -7 157 -16 169 -20 12 -4 48 -31
81 -59 32 -28 64 -51 69 -51 6 0 39 -28 75 -62 36 -33 76 -68 90 -77 14 -8 77
-55 141 -103 64 -49 121 -88 126 -88 6 0 18 -10 29 -21 10 -12 35 -32 54 -45
109 -73 166 -115 228 -169 38 -33 95 -80 127 -105 32 -25 68 -55 80 -67 12
-13 47 -40 78 -61 30 -20 90 -69 132 -107 138 -124 159 -142 191 -158 45 -23
146 -126 175 -177 19 -34 38 -51 83 -75 56 -28 66 -30 175 -30 112 0 211 17
211 36 0 5 15 15 33 22 44 19 149 128 193 202 54 90 100 227 130 390 9 50 17
61 54 68 46 10 221 129 283 194 80 84 100 114 161 238 59 122 64 145 72 345 3
74 9 176 14 227 13 119 13 361 0 438 -5 33 -17 88 -26 122 l-17 62 -52 16
c-68 19 -102 19 -182 -2 -59 -16 -71 -24 -129 -86 -35 -38 -64 -75 -64 -82 0
-7 -10 -26 -23 -42 -12 -15 -33 -48 -46 -73 -14 -25 -35 -58 -48 -73 -13 -16
-23 -32 -23 -35 0 -4 -15 -24 -33 -46 -41 -47 -72 -46 -98 3 -19 36 -187 211
-202 211 -5 0 -25 17 -45 37 -20 21 -54 51 -74 66 -37 28 -47 50 -28 62 5 3
62 10 127 16 65 5 168 16 228 25 61 8 144 20 185 25 41 5 145 18 230 29 105
14 256 23 470 29 258 7 332 13 409 30 72 15 145 21 315 26 390 9 683 32 727
56 14 7 17 38 22 221 5 202 34 460 68 608 25 107 66 447 85 705 13 179 17 407
20 1035 2 443 8 920 12 1060 5 140 7 261 4 268 -2 6 -14 12 -26 12 -11 0 -53
7 -91 16 -50 11 -143 17 -325 20 -250 4 -384 16 -426 36 -16 7 -23 22 -27 60
-8 64 -42 131 -88 173 -32 29 -75 52 -267 144 -18 9 -40 24 -49 34 -20 21 -46
22 -63 2 -18 -21 -7 -40 42 -72 24 -15 49 -36 56 -45 7 -10 20 -18 27 -18 32
0 61 -111 72 -267 5 -72 5 -74 -51 -187 -49 -100 -78 -138 -93 -122 -5 5 42
132 57 156 31 47 34 61 21 96 -7 20 -21 76 -31 125 -25 123 -79 226 -152 295
-34 30 -74 58 -96 63 -96 27 -207 1 -207 -49 0 -23 4 -25 44 -26 110 -4 186
-31 196 -71 3 -14 16 -47 30 -74 29 -61 48 -165 43 -244 l-3 -60 -33 3 c-22 2
-48 -5 -78 -23 l-44 -26 -10 26 c-6 15 -9 75 -8 135 1 102 -1 112 -28 167 -33
66 -91 115 -194 164 -50 23 -73 29 -100 24 -114 -20 -102 -23 -174 47 -37 36
-86 75 -111 87 -38 19 -50 21 -83 11 -22 -5 -44 -16 -50 -23 -5 -6 -17 -77
-26 -157 -13 -114 -22 -156 -43 -197 -24 -48 -29 -53 -77 -64 -65 -16 -159
-14 -332 6 -34 4 -96 4 -138 0 -91 -8 -107 -24 -112 -108 -2 -29 -10 -124 -18
-212 -8 -88 -17 -266 -20 -395 -3 -129 -9 -278 -12 -330 -5 -90 4 -327 26
-655 23 -343 27 -476 18 -620 -10 -169 -40 -382 -59 -417 -21 -39 -23 -4 -8
141 17 163 16 720 -1 946 -13 176 -18 819 -8 1018 9 163 35 410 48 451 26 78
-27 104 -60 30 -19 -41 -22 -70 -26 -253 -6 -298 -30 -396 -116 -480 -29 -28
-37 -31 -70 -26 -72 12 -129 -33 -165 -131 -10 -27 -25 -50 -34 -52 -13 -2
-15 25 -17 191 -1 107 -7 209 -12 228 -6 19 -10 47 -10 64 0 16 -6 47 -14 70
-8 22 -22 69 -32 105 -12 43 -30 78 -53 103 l-34 38 -5 165 c-4 125 -8 169
-19 180 -14 13 -50 18 -100 14 -25 -2 -30 8 -58 104 -15 49 -17 81 -11 200 6
115 4 149 -9 185 -26 76 -127 182 -228 241 -66 38 -72 40 -150 39 -45 -1 -98
-5 -117 -9z m154 -124 c98 -21 110 -36 125 -151 13 -98 7 -192 -13 -220 -10
-14 -18 -14 -86 0 -98 21 -285 31 -435 24 -188 -9 -375 -59 -534 -142 -92 -48
-117 -46 -66 6 20 21 54 49 76 63 21 13 39 29 39 34 0 6 10 14 23 19 12 5 48
30 79 55 31 25 61 46 65 46 5 0 24 11 43 25 18 13 49 30 69 36 20 7 38 15 41
18 9 12 236 121 281 135 24 8 73 26 109 40 77 30 93 31 184 12z m-726 -56 c43
0 52 -3 52 -18 0 -9 -19 -29 -42 -45 -24 -15 -61 -41 -83 -58 -22 -16 -52 -38
-66 -47 -119 -79 -480 -418 -515 -484 -8 -15 -23 -32 -34 -38 -11 -6 -20 -15
-20 -20 0 -6 -8 -18 -17 -28 -18 -18 -77 -87 -128 -149 -30 -37 -137 -250
-155 -308 -6 -22 -21 -58 -31 -80 -11 -22 -25 -76 -31 -120 -6 -44 -14 -83
-17 -87 -3 -4 -23 -3 -44 2 -45 10 -166 -4 -224 -25 -44 -17 -78 -55 -108
-120 -11 -22 -23 -43 -28 -46 -4 -3 -12 -31 -16 -62 -4 -32 -10 -59 -13 -62
-10 -10 -66 45 -91 90 -41 73 -54 323 -22 414 8 24 15 53 15 64 0 39 104 232
171 317 77 97 248 261 317 304 26 15 65 43 87 61 22 18 67 46 100 64 32 17 67
38 75 46 9 8 20 15 23 15 4 0 31 15 60 34 28 18 79 50 112 71 144 91 183 116
225 147 24 18 51 41 59 51 9 9 20 17 26 17 7 0 22 11 35 26 14 14 45 34 70 45
47 21 150 40 185 33 11 -2 44 -4 73 -4z m2830 -386 c17 -45 17 -226 0 -257 -8
-16 -18 -19 -64 -15 -71 6 -79 15 -60 64 15 40 29 108 41 199 4 28 12 56 17
63 17 19 49 -7 66 -54z m-2157 -50 c113 -17 181 -38 270 -88 79 -44 105 -69
87 -83 -21 -16 -99 -41 -166 -54 -152 -29 -382 19 -448 92 -31 35 -135 98
-171 105 -65 12 -28 29 88 39 129 12 202 10 340 -11z m2476 -16 c59 -38 79
-62 113 -136 28 -62 22 -83 -30 -93 -18 -4 -43 -13 -56 -20 -21 -11 -27 -9
-56 19 -23 23 -41 32 -65 32 l-33 0 0 99 c0 55 3 106 6 115 10 27 65 19 121
-16z m-2988 -43 c7 -20 25 -43 39 -52 15 -9 48 -36 74 -60 26 -24 53 -43 61
-43 7 0 31 -13 53 -29 77 -57 220 -98 352 -102 150 -3 288 17 349 53 18 11 37
17 42 13 10 -6 3 -24 -56 -149 -32 -70 -32 -150 1 -171 29 -19 46 -13 68 26
10 17 22 28 28 24 11 -7 48 -87 61 -130 51 -183 76 -380 59 -480 -5 -27 -14
-90 -21 -140 -6 -49 -18 -102 -25 -117 -8 -16 -12 -28 -8 -28 3 0 -4 -15 -15
-34 -12 -18 -21 -40 -21 -47 0 -24 -53 -142 -77 -173 -13 -16 -23 -32 -23 -37
0 -4 -6 -14 -12 -21 -7 -7 -29 -33 -49 -58 -59 -73 -205 -210 -248 -234 -9 -5
-39 -24 -68 -42 -28 -19 -58 -34 -66 -34 -8 0 -31 -11 -51 -25 -20 -14 -41
-25 -46 -25 -5 0 -24 -9 -42 -20 -18 -10 -58 -24 -88 -31 -30 -6 -59 -15 -65
-19 -5 -4 -55 -10 -110 -14 -165 -10 -470 25 -549 64 -23 11 -48 20 -56 20 -7
0 -28 11 -46 25 -18 14 -36 25 -40 25 -4 0 -22 11 -40 25 -18 14 -37 25 -43
25 -6 0 -11 4 -11 9 0 5 -27 31 -61 57 -53 42 -60 51 -54 74 22 86 13 106 -53
121 -35 8 -56 5 -109 -11 -65 -20 -85 -20 -203 -3 -175 25 -334 193 -360 383
-18 125 7 256 53 278 79 38 151 36 230 -7 79 -43 86 -47 104 -63 43 -37 171
-88 224 -88 49 0 54 22 26 103 -58 167 -37 396 58 617 41 98 105 221 134 259
14 19 35 51 46 71 11 20 31 53 44 74 l24 37 23 -21 c21 -21 24 -21 51 -6 40
22 254 103 298 111 11 3 52 16 90 29 97 34 108 33 124 -9z m2015 -261 c71 -12
142 -14 370 -10 267 5 420 -2 507 -25 30 -7 38 -15 47 -48 24 -78 65 -79 92
-2 8 24 23 47 32 52 26 15 58 -6 58 -38 0 -52 23 -105 49 -115 39 -14 61 -38
61 -65 0 -45 36 -98 79 -117 66 -30 169 -19 256 27 38 21 75 37 82 37 7 0 13
4 13 9 0 5 11 16 25 25 23 15 25 15 47 -8 13 -14 36 -30 51 -35 36 -14 30 -35
-10 -39 -69 -7 -40 -64 32 -64 81 0 111 63 55 117 -33 32 -38 50 -15 59 9 3
15 18 15 37 0 22 11 46 35 75 19 23 35 47 35 53 0 20 20 22 104 11 47 -7 113
-13 148 -15 101 -4 322 -25 338 -31 8 -3 59 -9 112 -14 53 -4 102 -11 109 -15
8 -6 10 -45 5 -149 -4 -77 -11 -314 -16 -526 -6 -212 -12 -448 -15 -525 -2
-77 -7 -216 -10 -310 -3 -93 -10 -213 -16 -265 -5 -52 -14 -187 -19 -300 -16
-326 -25 -420 -75 -820 -9 -69 -20 -138 -25 -155 -5 -16 -9 -39 -9 -50 2 -28
-19 -159 -36 -230 -13 -54 -34 -176 -38 -215 -1 -8 2 -50 7 -93 6 -52 5 -81
-2 -90 -9 -10 -95 -16 -344 -26 -183 -6 -380 -16 -438 -21 -58 -5 -177 -14
-265 -20 -88 -6 -218 -18 -290 -26 -71 -8 -164 -16 -206 -19 -70 -4 -414 -44
-704 -81 -66 -9 -163 -20 -215 -25 -52 -4 -131 -13 -175 -20 -167 -24 -159
-35 -150 216 3 110 8 223 10 250 10 130 25 299 34 385 11 104 28 285 41 425
19 211 41 424 50 480 21 131 23 481 5 750 -15 217 -17 336 -11 715 3 250 8
469 10 485 2 17 7 109 11 205 4 96 12 183 17 193 11 21 29 21 142 1z m-3566
-1385 c50 -57 225 -210 266 -231 78 -40 163 -57 256 -51 l86 6 72 -62 c39 -33
75 -61 80 -61 4 0 37 -24 73 -53 35 -29 72 -56 82 -60 9 -3 17 -13 17 -21 0
-20 -99 -31 -280 -31 -141 0 -166 4 -340 47 -85 22 -177 66 -220 105 -14 13
-29 23 -33 23 -5 0 -38 28 -73 62 -55 52 -64 66 -64 97 -1 20 -5 56 -10 81
-14 76 16 180 52 180 6 0 22 -14 36 -31z m-1999 -193 c10 -11 5 -20 -26 -43
-61 -45 -62 -46 -98 -80 -19 -18 -38 -33 -43 -33 -4 0 -15 -12 -24 -27 -9 -16
-33 -46 -54 -68 -20 -22 -48 -56 -62 -75 -14 -19 -45 -54 -68 -78 -24 -23 -46
-51 -49 -62 -3 -11 -10 -20 -15 -20 -5 0 -18 -20 -28 -44 -11 -24 -35 -61 -53
-82 -42 -48 -69 -96 -69 -122 0 -10 -8 -30 -19 -43 -10 -13 -22 -35 -26 -49
-4 -14 -11 -27 -14 -30 -15 -11 -69 -128 -75 -164 -7 -35 -36 -104 -72 -166
-7 -14 -14 -32 -14 -41 0 -8 -16 -65 -36 -125 -19 -60 -39 -129 -44 -154 -9
-48 -41 -165 -58 -215 -14 -40 -32 -143 -32 -184 0 -17 -7 -45 -15 -60 -8 -16
-15 -64 -17 -108 -3 -74 -1 -82 27 -122 17 -24 37 -54 45 -67 8 -12 25 -26 38
-29 22 -5 23 -9 17 -48 -13 -81 -36 -147 -56 -157 -20 -11 -45 -6 -194 40 -33
10 -108 22 -167 25 l-108 7 0 54 c0 47 29 150 50 179 20 28 56 159 77 280 8
50 20 98 25 108 5 10 13 39 18 65 9 48 72 234 104 307 10 22 33 72 51 110 18
39 41 86 50 105 15 33 26 54 102 190 17 30 45 81 63 113 17 31 36 57 41 57 5
0 9 6 9 14 0 8 11 28 25 44 14 17 25 33 25 37 0 5 15 26 33 49 18 23 44 59 59
81 15 22 44 58 65 80 21 23 49 56 63 75 14 19 74 84 133 145 60 60 111 115
115 120 4 6 27 26 52 45 25 19 59 48 75 65 40 40 116 101 135 108 23 9 27 8
39 -7z m2701 -955 c0 -6 -4 -13 -10 -16 -5 -3 -14 -23 -20 -45 -6 -21 -22 -52
-35 -68 -14 -17 -25 -34 -25 -39 0 -4 -15 -31 -33 -58 -18 -28 -59 -102 -91
-165 -32 -63 -82 -160 -112 -215 -54 -99 -77 -146 -88 -175 -3 -8 -10 -22 -15
-30 -5 -8 -19 -37 -31 -64 -12 -26 -24 -46 -27 -43 -9 10 26 102 62 162 19 32
35 60 35 63 0 7 78 171 101 212 11 19 28 51 37 70 9 19 20 37 23 40 4 3 14 21
23 40 9 19 28 53 41 75 13 22 31 54 40 70 9 17 31 57 50 90 19 33 40 70 47 83
11 22 28 30 28 13z m2000 -282 c184 1 354 -1 378 -5 l43 -6 -6 -67 c-4 -36
-13 -94 -21 -129 -8 -35 -14 -84 -14 -110 0 -26 -5 -63 -10 -82 -6 -19 -15
-78 -21 -130 -5 -52 -15 -133 -20 -180 -6 -47 -12 -139 -15 -205 -3 -66 -7
-126 -10 -134 -7 -22 -71 -6 -173 44 -50 25 -94 45 -96 45 -3 0 -35 14 -72 31
-38 18 -93 40 -123 50 -30 9 -100 33 -155 52 -157 53 -222 66 -535 107 -162
21 -249 31 -354 40 -104 9 -111 12 -140 41 l-31 32 -85 -7 c-139 -11 -143 -11
-147 1 -2 6 13 16 34 23 49 15 112 39 138 53 124 66 158 86 205 120 30 22 69
52 86 66 17 14 44 35 59 46 41 29 66 52 198 183 l117 117 138 6 c75 4 173 4
217 2 44 -3 231 -5 415 -4z m-4277 -1033 c23 -14 70 -52 104 -84 42 -40 77
-64 110 -74 47 -15 48 -16 56 -67 5 -29 6 -55 3 -58 -3 -3 -40 -8 -81 -11 -61
-4 -87 0 -138 18 -34 12 -66 26 -72 30 -5 4 -24 11 -42 14 -34 8 -87 -13 -95
-36 -6 -17 17 -190 33 -248 6 -25 20 -54 30 -66 11 -11 19 -25 19 -31 0 -6 16
-32 35 -57 19 -26 35 -53 35 -61 0 -22 -42 -35 -110 -35 -69 0 -93 8 -139 48
-50 44 -85 48 -139 15 -79 -50 -87 -53 -123 -53 -26 0 -42 7 -60 26 -22 24
-28 26 -88 20 -88 -8 -139 6 -231 63 -44 28 -97 52 -122 56 -67 11 -91 29
-120 87 -48 94 -58 141 -58 264 0 126 4 134 56 113 97 -38 273 -59 410 -48
159 13 226 23 251 37 12 7 30 12 40 12 30 0 134 55 203 109 65 49 65 50 128
46 43 -3 76 -12 105 -29z"/>
<path d="M5120 6684 c-56 -37 -121 -110 -130 -145 -19 -69 -16 -156 6 -187 11
-15 23 -34 26 -43 4 -9 27 -26 52 -39 93 -45 180 4 225 125 21 54 22 67 13
134 -12 84 -30 115 -88 148 -47 27 -71 29 -104 7z"/>
<path d="M5601 6130 c-24 -5 -48 -13 -55 -18 -6 -5 -24 -12 -41 -16 -16 -4
-50 -16 -75 -27 -25 -11 -54 -24 -65 -29 -11 -5 -50 -22 -86 -39 -37 -17 -71
-31 -76 -31 -4 0 -20 -11 -35 -25 -15 -14 -30 -25 -33 -25 -8 0 -64 -41 -89
-65 -12 -11 -30 -27 -42 -35 -11 -8 -31 -31 -45 -50 -13 -19 -30 -39 -37 -45
-20 -16 -59 -120 -66 -173 -20 -157 -11 -247 32 -321 40 -70 94 -104 240 -153
120 -39 235 -43 347 -10 152 44 203 63 245 90 84 54 150 92 160 92 25 0 154
138 183 195 84 166 100 297 54 434 -14 40 -33 82 -44 94 -10 12 -25 34 -33 50
-7 15 -17 27 -21 27 -5 0 -16 9 -27 20 -44 48 -278 84 -391 60z m-346 -728
c20 -12 43 -22 52 -22 9 0 30 -9 47 -19 17 -10 57 -27 89 -37 57 -18 61 -18
105 0 51 19 188 45 240 46 42 0 42 -19 -1 -57 -70 -61 -133 -88 -287 -123
-173 -39 -182 -40 -224 -29 -22 6 -81 15 -131 19 -102 9 -142 26 -179 75 -33
43 -36 107 -6 133 52 45 228 53 295 14z"/>
<path d="M8107 6478 c-12 -10 -17 -30 -18 -81 -2 -82 13 -102 47 -59 l22 26
36 -32 c58 -51 86 -41 86 32 0 41 -16 56 -51 49 -25 -5 -35 1 -67 36 -32 36
-40 40 -55 29z"/>
<path d="M8390 6434 c-18 -53 -9 -153 16 -171 28 -21 68 -13 72 15 2 14 -2 22
-12 22 -26 0 -29 21 -6 45 20 21 21 27 9 41 -8 9 -18 31 -24 48 -15 45 -40 45
-55 0z"/>
<path d="M7374 6039 l-42 -19 -7 -212 c-3 -117 -5 -319 -3 -448 l3 -235 40
-19 c22 -10 82 -27 133 -37 154 -31 220 -23 241 30 12 31 18 171 8 188 -4 7
-33 11 -72 11 -55 -1 -69 2 -90 22 -20 19 -25 33 -25 70 0 58 17 75 83 84 74
11 87 30 87 126 0 91 -2 93 -85 105 -69 9 -77 15 -73 61 3 38 4 39 51 46 27 4
58 15 69 25 45 40 61 128 34 182 -14 26 -21 28 -92 34 -132 12 -215 7 -260
-14z"/>
<path d="M8211 6024 c-18 -15 -42 -48 -52 -72 -11 -25 -24 -42 -32 -40 -6 2
-23 25 -37 51 -31 58 -78 80 -164 75 -76 -4 -87 -19 -63 -86 10 -28 21 -76 24
-108 3 -33 9 -64 14 -69 14 -19 36 -99 48 -173 11 -70 10 -78 -18 -166 -17
-52 -37 -109 -45 -127 -8 -19 -27 -74 -42 -122 -37 -118 -27 -133 96 -136 43
-1 50 3 110 60 59 55 65 59 77 43 7 -10 13 -21 13 -25 0 -18 75 -61 124 -71
60 -12 121 -5 129 15 12 32 -62 310 -93 352 -4 6 -11 26 -15 45 -4 19 -15 50
-23 67 -19 39 -11 70 70 272 27 68 50 140 51 159 2 33 -2 38 -37 55 -68 32
-98 33 -135 1z"/>
<path d="M8445 5994 c-6 -7 -15 -38 -19 -70 -8 -69 7 -97 63 -120 l39 -15 11
-82 c7 -49 11 -185 9 -337 -2 -183 1 -263 9 -282 12 -28 14 -28 101 -28 55 0
94 5 104 13 18 13 19 34 34 491 3 99 9 189 14 201 4 11 29 32 55 45 28 14 51
35 57 50 11 30 -3 87 -31 122 -19 23 -22 23 -226 24 -154 0 -210 -3 -220 -12z"/>
<path d="M9087 5999 c-20 -6 -51 -24 -67 -39 l-30 -28 -1 -179 c-2 -426 3
-668 13 -680 14 -18 164 -18 175 0 4 6 10 48 13 92 4 62 8 80 20 80 11 0 17
-16 22 -54 8 -69 35 -139 58 -151 21 -11 92 -13 128 -4 28 8 28 27 -2 78 -37
64 -45 198 -18 307 11 46 26 111 32 144 6 33 16 76 21 96 14 55 11 161 -6 208
-27 76 -49 98 -108 106 -28 4 -59 11 -68 16 -27 14 -142 19 -182 8z"/>
<path d="M9654 5965 c-10 -7 -23 -32 -30 -56 -63 -222 -72 -282 -83 -580 -5
-119 -12 -225 -15 -237 -5 -14 0 -28 14 -42 18 -18 29 -20 63 -15 25 4 50 16
62 29 52 59 116 71 130 23 16 -50 44 -67 111 -67 82 0 99 15 90 79 -4 25 -11
87 -16 137 -5 50 -12 97 -15 105 -3 8 -12 75 -20 149 -49 441 -49 442 -74 464
-24 22 -191 31 -217 11z"/>
<path d="M7867 4945 c-98 -10 -116 -19 -117 -56 0 -9 8 -24 19 -33 18 -16 21
-16 56 9 21 14 47 25 59 26 12 1 79 1 150 2 125 1 129 0 149 -24 17 -21 19
-33 12 -104 -4 -44 -8 -100 -9 -125 l-1 -45 -40 1 c-25 0 -68 14 -114 38 -77
38 -113 41 -125 10 -4 -9 4 -28 18 -45 14 -16 27 -37 31 -47 3 -11 16 -24 29
-30 40 -18 44 -52 10 -79 -16 -13 -34 -23 -41 -23 -22 0 -35 -37 -22 -61 13
-25 6 -95 -15 -142 -32 -73 -40 -134 -40 -307 0 -174 0 -176 34 -275 35 -99
35 -100 77 -115 36 -12 48 -12 80 -1 96 34 237 151 181 151 -7 0 -34 -7 -61
-15 -57 -17 -75 -12 -82 24 -3 14 -10 40 -15 56 -16 51 -30 195 -30 301 0 80
5 114 24 168 27 80 64 126 99 126 35 0 89 -20 113 -41 24 -22 52 -25 60 -6 8
21 -33 107 -67 138 -17 16 -28 33 -24 39 3 6 52 10 113 11 59 0 168 4 242 8
74 4 139 5 143 1 4 -4 -27 -39 -69 -79 -71 -66 -76 -73 -61 -88 14 -15 19 -14
54 7 66 39 110 47 183 34 80 -14 94 -19 148 -57 31 -22 45 -28 53 -20 16 16
-9 108 -35 131 -19 17 -100 46 -150 54 -11 2 -21 9 -24 16 -6 20 123 15 214
-9 43 -11 102 -31 129 -43 28 -13 69 -31 93 -41 24 -10 59 -33 78 -52 20 -18
43 -33 53 -33 18 0 111 -89 111 -106 0 -15 -37 -46 -102 -84 -63 -37 -73 -52
-58 -81 13 -24 17 -24 90 1 47 16 64 18 84 9 22 -10 25 -20 31 -85 10 -101
-11 -158 -87 -236 -32 -32 -62 -58 -66 -58 -11 0 -32 -46 -32 -70 0 -21 6 -23
58 -20 27 1 32 -2 32 -20 0 -33 -46 -124 -117 -228 -34 -51 -63 -96 -63 -99 0
-3 -10 -16 -22 -28 -32 -30 -97 -106 -133 -154 -35 -47 -44 -49 -73 -18 -28
29 -32 95 -9 128 21 29 22 59 3 59 -7 0 -44 -12 -82 -26 -62 -23 -83 -26 -209
-26 -103 0 -154 5 -195 17 -30 9 -67 19 -82 22 -15 3 -33 11 -39 19 -6 8 -19
14 -29 14 -31 0 -53 36 -47 76 12 70 60 92 130 59 126 -57 207 -70 283 -42 68
25 137 64 178 101 22 20 42 36 46 36 8 0 95 120 102 141 4 9 2 22 -2 29 -7 11
-27 -4 -81 -58 -40 -40 -78 -72 -85 -72 -6 0 -31 -10 -55 -23 -55 -29 -148
-51 -185 -44 -16 2 -65 14 -109 26 -138 38 -208 29 -257 -33 -15 -19 -26 -21
-120 -20 -90 0 -115 5 -198 34 -52 18 -103 40 -112 48 -10 8 -25 11 -38 7 -17
-5 -20 -13 -18 -38 2 -24 15 -41 58 -74 30 -23 62 -48 70 -55 8 -7 37 -31 63
-52 61 -50 80 -85 71 -134 -6 -33 -72 -136 -129 -202 -12 -14 -30 -47 -40 -75
-22 -63 -58 -84 -165 -92 -65 -5 -78 -3 -83 11 -7 17 6 223 28 441 18 178 54
526 60 585 3 25 8 205 12 401 4 266 3 365 -6 392 -14 42 -28 48 -35 15 -3 -13
-10 -140 -16 -283 -13 -297 -25 -479 -33 -492 -9 -14 -38 -284 -31 -294 3 -5
-1 -31 -10 -57 -8 -26 -18 -90 -21 -142 -4 -52 -11 -113 -17 -135 -11 -42 -38
-482 -31 -502 3 -6 10 -13 16 -15 15 -6 269 16 362 30 39 6 130 16 204 22 73
6 154 15 180 20 25 5 80 12 121 14 140 10 325 25 415 35 50 6 198 15 330 21
176 8 246 15 262 26 25 16 24 13 53 254 24 195 46 332 90 555 77 389 96 768
51 1010 -21 117 -47 214 -60 226 -3 4 -130 9 -281 13 -151 4 -401 11 -555 17
-393 15 -822 17 -938 4z m1288 -305 c9 -14 -16 -17 -308 -36 -237 -15 -292
-15 -276 0 8 9 134 29 219 36 137 11 358 11 365 0z"/>
<path d="M8388 3955 c-44 -30 -53 -45 -62 -108 -5 -44 -3 -52 26 -88 31 -38
33 -39 97 -39 75 0 116 16 116 45 0 14 -12 24 -42 35 -76 28 -102 71 -68 116
19 25 19 50 -1 58 -22 8 -25 8 -66 -19z"/>
<path d="M8667 3722 c-15 -16 -12 -21 39 -75 52 -55 68 -62 119 -57 55 5 32
39 -82 120 -49 35 -55 36 -76 12z"/>
<path d="M10939 2109 c-6 -12 -8 -36 -5 -53 4 -18 7 -231 7 -473 1 -242 5
-446 10 -454 5 -8 9 192 9 494 0 279 -2 507 -5 507 -2 0 -9 -9 -16 -21z"/>
<path d="M370 2084 c-84 -8 -206 -27 -221 -35 -9 -4 -26 -41 -38 -81 -12 -40
-26 -83 -32 -96 -5 -13 -9 -32 -9 -43 0 -11 -6 -30 -14 -42 -27 -43 -58 -251
-54 -364 3 -90 6 -107 22 -119 28 -20 69 -17 93 5 21 20 23 32 43 241 11 123
35 260 59 335 l19 60 78 7 c44 3 147 11 229 17 199 15 505 41 531 47 24 4 40
32 26 46 -18 18 -590 35 -732 22z"/>
<path d="M273 1408 c-9 -11 -22 -79 -64 -323 -55 -323 -49 -664 15 -834 17
-46 41 -93 52 -105 29 -28 175 -72 304 -91 116 -16 361 -33 600 -40 85 -3 172
-8 192 -11 41 -6 100 22 112 52 11 29 6 125 -8 152 -17 32 -64 77 -129 122
-44 31 -49 32 -64 18 -22 -23 -12 -42 45 -83 38 -27 51 -43 56 -70 4 -20 4
-40 1 -45 -14 -22 -387 12 -560 52 -242 55 -342 113 -397 229 -37 80 -49 149
-59 339 -29 590 -26 557 -50 605 -24 48 -31 53 -46 33z"/>
</g>
</svg>
