<?xml version="1.0" standalone="no"?>
<!DOCTYPE svg PUBLIC "-//W3C//DTD SVG 20010904//EN"
 "http://www.w3.org/TR/2001/REC-SVG-20010904/DTD/svg10.dtd">
<svg version="1.0" xmlns="http://www.w3.org/2000/svg"
 width="1780.000000pt" height="759.000000pt" viewBox="0 0 1780.000000 759.000000"
 preserveAspectRatio="xMidYMid meet">
<metadata>
Created by potrace 1.14, written by Peter Selinger 2001-2017
</metadata>
<g transform="translate(0.000000,759.000000) scale(0.100000,-0.100000)"
fill="#000000" stroke="none">
<path d="M14860 7580 c-25 -5 -79 -20 -120 -34 -41 -14 -80 -26 -87 -26 -7 0
-27 -6 -45 -14 -18 -8 -60 -20 -93 -26 -33 -7 -76 -21 -96 -31 -20 -10 -43
-19 -50 -19 -8 0 -36 -11 -64 -25 -27 -13 -54 -25 -58 -25 -5 0 -23 -6 -40
-14 -18 -8 -61 -27 -97 -41 -71 -29 -185 -90 -267 -142 -29 -18 -56 -33 -61
-33 -5 0 -15 -7 -22 -15 -7 -8 -31 -24 -54 -35 -34 -17 -143 -87 -181 -118 -5
-4 -42 -29 -81 -55 -39 -26 -77 -54 -84 -62 -7 -8 -18 -15 -24 -15 -7 0 -29
-16 -50 -35 -21 -19 -44 -35 -52 -35 -7 0 -26 -17 -43 -37 -60 -72 -37 -159
70 -273 60 -63 89 -111 89 -147 0 -26 -112 -113 -153 -120 -26 -4 -50 3 -103
29 -113 57 -162 68 -409 95 -95 11 -309 1 -405 -17 -52 -10 -130 -23 -173 -29
-43 -6 -97 -19 -120 -30 -23 -10 -60 -24 -82 -31 -125 -39 -468 -219 -483
-253 -2 -4 -25 -22 -50 -39 -73 -49 -172 -136 -227 -197 -27 -31 -69 -74 -92
-95 -24 -22 -43 -44 -43 -49 0 -6 -11 -22 -25 -36 -61 -64 -88 -99 -107 -141
-12 -25 -35 -61 -53 -81 -18 -20 -45 -58 -61 -85 -15 -27 -31 -51 -34 -54 -12
-10 -70 -104 -70 -113 0 -5 -11 -22 -25 -39 -14 -16 -25 -37 -25 -45 0 -18
-79 -181 -91 -189 -5 -3 -9 -12 -9 -21 0 -8 -21 -54 -47 -101 -26 -48 -58
-118 -70 -157 -13 -38 -30 -83 -37 -100 -23 -48 -103 -283 -124 -365 -11 -41
-24 -86 -30 -100 -5 -14 -18 -54 -27 -90 -10 -36 -28 -97 -41 -137 -13 -39
-24 -86 -24 -104 0 -17 -14 -79 -30 -137 -17 -58 -30 -112 -28 -121 1 -9 -3
-29 -9 -46 -19 -49 -35 -161 -28 -193 4 -20 16 -34 35 -42 15 -6 37 -20 47
-29 11 -10 29 -23 40 -29 18 -10 21 -24 27 -124 19 -359 19 -383 1 -439 -25
-77 -37 -87 -90 -81 -45 5 -122 -19 -190 -60 -88 -52 -108 -60 -149 -56 -22 3
-48 8 -56 11 -9 5 -19 0 -27 -11 -11 -19 -46 -175 -59 -265 -3 -26 -10 -50
-15 -53 -5 -3 -9 -22 -9 -42 0 -20 -7 -62 -16 -92 -8 -30 -22 -80 -31 -110
-19 -69 -119 -265 -155 -305 -16 -16 -28 -34 -28 -39 0 -9 -77 -106 -140 -176
-22 -25 -49 -59 -60 -74 -10 -16 -36 -45 -57 -65 -21 -20 -61 -61 -89 -91 -46
-50 -92 -91 -239 -211 -27 -22 -66 -49 -87 -59 -20 -11 -45 -31 -56 -45 -11
-14 -26 -25 -33 -25 -8 0 -41 -14 -74 -30 -33 -16 -69 -30 -80 -30 -11 0 -40
-12 -65 -26 -62 -36 -278 -75 -445 -80 -114 -4 -134 -2 -165 14 l-35 19 -2
119 c-4 222 -52 564 -88 635 -8 15 -15 34 -15 41 0 29 -67 178 -114 253 -75
121 -153 213 -231 272 -95 73 -163 128 -205 166 -19 18 -56 48 -82 67 -27 18
-48 36 -48 39 0 11 15 27 42 44 26 16 100 109 181 226 22 31 42 58 47 61 9 6
57 100 106 210 31 69 39 99 42 163 4 81 -5 107 -37 107 -9 0 -25 -15 -36 -32
-39 -66 -108 -128 -159 -143 -93 -28 -289 -10 -336 29 -8 7 -37 26 -65 42 -42
23 -81 50 -150 101 -6 5 -33 27 -60 51 -28 24 -54 46 -60 50 -5 4 -81 67 -167
140 -86 72 -162 132 -168 132 -6 0 -13 7 -17 15 -13 36 -306 235 -373 254 -22
7 -25 12 -21 47 1 21 7 47 12 56 10 19 12 69 3 92 -9 24 -25 19 -72 -24 -40
-37 -48 -40 -100 -40 -57 0 -117 16 -176 47 -32 17 -99 33 -151 36 -41 3 -42
-20 -5 -65 34 -40 89 -62 225 -89 51 -10 76 -20 92 -39 30 -34 29 -43 -12
-111 -28 -46 -47 -63 -88 -84 -29 -15 -64 -33 -79 -41 -15 -8 -64 -17 -110
-21 -46 -3 -91 -10 -100 -15 -31 -15 -55 -80 -67 -176 -16 -125 -26 -144 -131
-226 -57 -44 -98 -68 -210 -121 -24 -11 -61 -22 -161 -44 -25 -6 -97 -10 -159
-10 -82 0 -117 -4 -129 -14 -9 -7 -32 -20 -51 -27 -37 -14 -70 -44 -70 -65 0
-22 30 -26 98 -11 97 22 237 44 312 51 103 9 189 25 265 49 39 13 103 33 143
46 68 21 75 26 124 89 29 36 55 68 58 71 11 9 67 125 80 163 6 21 17 36 23 34
14 -5 18 -132 5 -197 -4 -25 -13 -70 -18 -100 -6 -30 -19 -73 -30 -95 -10 -22
-21 -51 -24 -65 -7 -32 -104 -180 -118 -180 -6 0 -43 -16 -82 -35 -84 -41
-197 -73 -321 -91 -49 -7 -124 -18 -165 -24 -41 -6 -85 -13 -98 -14 -41 -6
-48 -23 -22 -51 l24 -26 -29 -29 c-17 -15 -69 -49 -117 -74 l-88 -46 -107 1
c-116 0 -238 17 -318 44 -72 24 -194 86 -230 116 -16 15 -56 43 -87 63 -31 19
-60 40 -63 46 -4 6 -30 28 -58 49 -59 43 -207 189 -207 203 0 5 -18 31 -40 57
-22 26 -40 51 -40 55 0 4 -11 22 -24 39 -13 18 -27 43 -31 57 -4 14 -18 48
-31 75 -83 180 -93 537 -22 780 59 200 160 350 333 490 20 17 46 38 56 47 10
10 22 18 26 18 3 0 20 10 37 23 36 27 172 107 181 107 3 0 43 18 89 41 73 35
92 40 155 41 116 1 116 -22 -2 -98 -43 -28 -74 -74 -83 -122 -9 -45 40 -139
85 -166 41 -24 48 -16 66 69 16 75 73 174 115 198 30 18 160 50 287 72 107 19
134 14 246 -42 120 -61 265 -213 293 -308 21 -75 62 -96 180 -94 123 2 133
-13 53 -82 -130 -113 -155 -149 -104 -149 13 0 34 4 47 9 109 43 138 58 173
89 53 47 72 80 81 137 8 56 -3 67 -58 58 -62 -9 -125 5 -163 38 -18 16 -70 81
-116 143 -167 231 -359 331 -664 345 -149 8 -199 4 -445 -35 -193 -30 -216
-30 -230 -3 -12 22 -39 56 -55 70 -5 5 -37 32 -70 60 -33 28 -71 59 -85 67
-14 9 -31 25 -38 35 -8 10 -37 31 -65 48 -58 34 -110 69 -147 100 -14 11 -50
37 -80 59 -63 44 -112 84 -149 121 -14 15 -45 38 -68 52 -44 28 -227 206 -281
275 -23 29 -41 42 -58 42 -30 0 -31 -21 -3 -67 11 -18 31 -51 42 -74 23 -41
66 -93 153 -182 77 -80 196 -187 219 -199 11 -6 39 -27 61 -47 23 -20 58 -47
78 -61 21 -14 54 -38 75 -55 37 -29 92 -70 171 -127 70 -51 193 -177 187 -192
-3 -8 -29 -26 -57 -40 -28 -14 -71 -39 -95 -56 -24 -16 -47 -30 -50 -30 -6 0
-138 -89 -174 -117 -9 -7 -34 -26 -55 -43 -53 -41 -74 -45 -164 -30 -42 7 -99
14 -127 15 -79 3 -232 -24 -314 -56 -42 -16 -82 -29 -89 -29 -16 0 -146 -82
-180 -113 -31 -28 -50 -11 -33 30 14 34 128 147 195 194 27 19 66 46 88 62 21
15 41 27 43 27 3 0 26 16 52 37 27 20 77 49 113 66 36 16 88 40 116 52 49 22
146 46 207 50 45 4 47 5 47 20 0 19 -25 31 -87 43 -83 15 -202 -15 -359 -89
-22 -10 -47 -19 -56 -19 -9 0 -38 21 -64 46 -27 26 -64 58 -81 71 -18 14 -48
46 -67 72 -19 25 -61 78 -93 118 -121 150 -219 299 -294 450 -33 67 -61 85
-87 60 -13 -14 -13 -21 6 -66 12 -27 22 -55 22 -62 0 -27 86 -228 119 -277 20
-30 47 -73 60 -95 14 -23 29 -44 33 -46 5 -1 20 -21 34 -43 56 -88 212 -239
282 -273 58 -27 64 -45 27 -69 -14 -9 -52 -41 -84 -71 -31 -30 -75 -68 -97
-84 -92 -68 -141 -140 -173 -254 -23 -81 -26 -123 -11 -162 15 -39 37 -42 73
-8 18 16 44 37 59 46 15 10 49 36 76 60 72 64 203 131 297 151 44 10 99 22
122 27 86 19 243 1 243 -27 0 -7 -18 -39 -40 -70 -22 -32 -40 -61 -40 -66 0
-4 -13 -37 -30 -71 -16 -35 -30 -69 -30 -76 0 -6 -4 -19 -9 -29 -32 -65 -58
-170 -81 -333 -12 -85 3 -284 25 -329 7 -14 22 -63 34 -110 19 -74 57 -169 93
-235 40 -72 126 -206 154 -240 19 -22 51 -61 73 -87 38 -45 118 -120 157 -146
10 -7 44 -28 74 -47 30 -19 60 -41 65 -48 6 -7 37 -25 70 -39 65 -29 80 -55
30 -50 -16 1 -72 2 -123 3 -82 0 -98 -3 -140 -26 l-47 -27 -95 17 c-52 10
-128 26 -168 36 -40 10 -79 19 -86 19 -8 0 -27 5 -43 11 -35 15 -38 15 -148
33 -49 8 -117 22 -150 30 -33 8 -102 18 -153 22 -89 6 -94 6 -90 -12 2 -11 36
-38 83 -65 90 -52 93 -57 57 -144 -20 -50 -62 -196 -82 -290 -17 -82 -27 -234
-22 -338 2 -58 0 -103 -5 -108 -14 -14 -140 10 -182 34 l-34 20 7 131 c11 206
50 477 81 569 8 25 12 52 9 61 -9 23 -34 20 -34 -3 0 -11 -4 -23 -10 -26 -31
-19 -87 -213 -105 -364 -8 -67 -26 -81 -101 -81 -34 0 -75 5 -90 10 -47 18
-210 25 -257 10 -97 -30 -184 -60 -219 -74 -20 -9 -81 -23 -135 -31 -54 -8
-114 -19 -133 -25 -63 -18 -311 -35 -480 -32 -135 3 -169 0 -185 -12 -20 -15
-19 -15 12 -47 29 -30 41 -34 150 -50 174 -26 357 -21 668 20 79 10 336 69
349 80 6 5 31 12 56 16 25 4 80 15 123 26 141 35 196 -3 198 -137 0 -38 6 -85
13 -104 11 -29 19 -36 52 -43 113 -23 214 -50 250 -68 36 -17 43 -26 53 -66
15 -57 70 -116 126 -133 22 -7 126 -16 230 -20 128 -5 203 -12 230 -22 66 -25
110 -38 129 -38 9 0 56 -9 104 -19 142 -32 312 -64 387 -72 39 -4 90 -12 115
-18 25 -5 106 -14 180 -20 74 -7 192 -17 262 -23 200 -18 748 11 898 48 36 8
76 17 90 19 82 11 262 47 304 60 89 27 123 21 191 -35 33 -27 74 -57 91 -65
43 -20 109 -19 180 4 124 39 344 63 511 56 110 -5 175 -13 348 -38 113 -17
221 -39 276 -57 35 -11 74 -20 86 -20 12 0 41 -8 65 -18 24 -10 84 -29 133
-41 50 -13 106 -29 125 -36 19 -8 68 -23 109 -35 62 -18 82 -29 115 -65 38
-41 46 -44 106 -50 44 -4 86 -1 130 9 36 9 91 16 123 16 32 0 68 5 79 11 11 6
87 12 177 13 238 4 369 31 595 123 119 48 175 83 249 155 47 47 126 102 178
125 36 16 78 6 123 -30 l38 -30 52 22 c104 43 117 33 233 -191 8 -15 50 -64
93 -108 43 -43 84 -88 90 -100 6 -11 16 -20 22 -20 6 0 39 -18 73 -39 61 -39
198 -91 280 -106 55 -11 413 -7 560 6 76 6 125 15 134 24 12 11 12 26 1 92 -6
43 -17 84 -22 91 -13 15 -90 16 -224 2 -195 -19 -281 -24 -400 -25 -108 0
-126 3 -175 25 -97 45 -207 141 -378 332 -31 34 -39 38 -84 38 -67 0 -99 22
-161 110 -29 41 -60 81 -69 89 -21 17 -21 35 -1 66 18 27 77 65 102 65 11 0
35 -28 62 -71 60 -96 164 -215 269 -309 34 -30 85 -76 114 -102 56 -51 95 -70
172 -86 28 -6 75 -20 105 -31 68 -25 196 -29 240 -6 35 18 46 53 31 96 -26 74
-8 133 55 189 67 59 108 70 334 96 54 6 241 64 296 92 21 10 57 25 79 32 49
15 112 53 171 103 25 20 49 37 54 37 5 0 70 60 144 133 125 123 188 201 231
287 10 19 26 41 36 48 9 6 23 29 30 50 22 67 81 183 96 189 8 3 51 -2 96 -12
96 -20 107 -21 382 -34 378 -17 402 -20 435 -48 34 -28 56 -93 66 -190 5 -47
14 -74 35 -103 34 -47 52 -57 211 -115 68 -25 142 -55 165 -65 24 -11 49 -20
56 -20 21 0 171 -75 186 -93 7 -10 19 -17 26 -17 18 0 165 -161 165 -181 0 -9
9 -24 20 -34 11 -10 20 -24 20 -30 0 -7 11 -20 24 -28 25 -17 95 -128 181
-291 54 -101 84 -153 152 -261 24 -38 49 -79 56 -90 18 -30 117 -133 160 -167
38 -31 39 -31 95 -18 31 7 82 28 112 46 80 47 230 120 263 128 33 8 61 62 51
99 -9 39 -66 97 -94 97 -22 0 -138 -52 -308 -138 l-53 -27 -29 32 c-16 18 -27
39 -24 46 5 14 73 60 194 132 137 82 321 218 408 302 32 32 94 92 137 133 43
41 95 98 115 125 21 28 47 61 59 74 47 54 18 97 -108 161 -144 73 -142 71
-250 305 -23 50 -46 97 -51 105 -9 14 -75 128 -130 224 -14 24 -63 96 -110
161 -47 64 -91 126 -99 138 -8 12 -35 47 -61 77 -25 30 -60 74 -79 98 -18 23
-39 42 -47 42 -8 0 -14 4 -14 9 0 14 -102 112 -156 150 -27 19 -51 37 -54 40
-14 16 -109 91 -115 91 -3 0 -21 11 -39 25 -18 14 -38 25 -44 25 -6 0 -12 3
-14 8 -5 12 -100 72 -114 72 -7 0 -14 4 -16 8 -4 10 -106 72 -118 72 -6 0 -33
12 -60 26 -28 14 -65 30 -83 35 -17 4 -59 18 -92 29 -33 12 -94 29 -135 37
-154 31 -231 52 -257 69 -15 9 -51 14 -105 15 -46 0 -105 4 -133 7 -81 11 -70
30 52 91 59 30 124 62 143 72 40 20 150 53 259 76 72 16 75 15 88 -3 39 -60
276 -283 331 -313 14 -7 35 -22 46 -32 11 -11 25 -19 32 -19 6 0 17 -6 23 -14
7 -8 37 -24 69 -36 31 -12 77 -31 101 -42 50 -22 147 -48 296 -79 81 -17 145
-22 337 -25 l237 -4 88 31 c48 17 104 37 123 44 19 7 69 21 110 30 107 24 203
59 321 118 121 61 126 70 102 188 -23 109 -6 128 128 146 41 5 48 3 67 -22 12
-15 27 -46 33 -69 15 -54 37 -96 51 -96 6 0 41 -15 78 -34 63 -33 70 -34 161
-32 134 3 151 15 196 141 39 112 50 124 113 132 41 5 62 14 97 45 30 26 54 38
74 38 46 0 117 37 139 72 10 17 24 62 31 101 10 55 17 70 34 77 36 14 60 53
90 146 20 65 37 98 62 123 64 64 79 120 45 176 -27 45 -34 82 -20 107 23 40
129 172 207 257 42 46 86 98 99 115 12 17 107 117 210 221 l187 190 45 105
c42 98 45 111 45 192 l0 88 -60 57 c-78 75 -139 107 -188 98 -81 -16 -218 -89
-278 -149 -14 -14 -34 -50 -43 -80 -10 -30 -25 -61 -33 -68 -21 -17 -58 -77
-68 -108 -4 -14 -29 -52 -54 -85 -26 -33 -50 -68 -54 -78 -4 -10 -36 -62 -71
-115 -35 -53 -89 -146 -120 -206 -31 -60 -67 -124 -81 -142 -14 -18 -25 -36
-25 -39 0 -13 -52 -74 -76 -89 -22 -15 -27 -15 -61 2 -72 36 -125 44 -249 39
-65 -2 -142 -11 -171 -20 -68 -20 -187 -92 -298 -179 -49 -38 -115 -86 -144
-106 -73 -47 -204 -112 -227 -112 -9 0 -33 -5 -51 -12 -31 -11 -39 -10 -85 16
-49 28 -54 29 -149 23 -53 -3 -114 -13 -134 -22 -21 -8 -61 -15 -89 -15 -28
-1 -62 -7 -76 -15 -14 -8 -45 -14 -70 -15 -36 0 -53 6 -83 31 -21 17 -46 47
-56 67 -33 65 -54 76 -148 83 -85 5 -86 6 -117 44 -31 39 -86 162 -86 194 0
23 -31 112 -60 174 -16 33 -20 51 -13 58 6 6 102 21 214 35 112 13 254 35 314
50 109 26 266 84 295 109 8 7 31 20 50 30 69 35 323 274 371 350 16 25 29 50
29 55 0 6 4 10 9 10 15 0 82 107 129 205 68 140 112 279 112 353 0 100 -38
162 -98 162 -24 0 -24 1 -20 89 5 101 15 121 63 121 69 0 177 101 190 178 6
37 3 49 -18 81 -29 43 -29 43 -202 62 -93 10 -105 14 -167 55 -124 81 -113
105 67 147 132 31 171 54 181 104 9 44 -16 57 -183 99 -177 45 -174 44 -328
96 -71 25 -157 53 -190 63 -33 10 -66 24 -73 30 -9 9 -17 60 -23 161 -16 257
-33 326 -78 323 -9 -1 -36 -5 -61 -9z m-26 -193 c16 -11 17 -28 14 -157 -4
-137 -5 -145 -24 -148 -42 -6 -48 20 -34 130 10 77 11 107 2 131 -8 22 -9 34
-1 44 14 16 21 16 43 0z m-67 -682 c3 -9 -6 -42 -21 -74 -39 -89 -30 -150 26
-164 27 -8 84 49 130 129 17 31 40 61 52 69 36 22 146 36 191 24 41 -11 103
-52 119 -77 22 -37 171 -188 194 -198 15 -7 46 -20 70 -29 23 -10 42 -24 42
-31 0 -19 -47 -52 -89 -64 -20 -5 -58 -23 -84 -40 -41 -26 -47 -34 -47 -64 0
-37 20 -56 59 -56 58 0 81 -92 41 -168 -11 -21 -65 -80 -120 -131 -75 -70
-100 -99 -98 -115 6 -43 111 -29 256 35 71 31 77 22 48 -75 -21 -67 -85 -190
-107 -206 -4 -3 -20 -30 -35 -60 -43 -81 -136 -199 -193 -245 -28 -22 -51 -43
-51 -47 0 -8 -105 -78 -117 -78 -4 0 -19 -11 -34 -26 -32 -31 -245 -120 -379
-158 -25 -8 -72 -21 -105 -31 -117 -33 -248 -65 -270 -65 -17 0 -29 12 -47 48
-14 26 -42 81 -64 122 -21 41 -45 91 -52 110 -8 19 -27 63 -43 97 -16 35 -29
66 -29 71 0 20 -121 309 -171 405 -11 21 -17 42 -14 47 3 5 22 14 43 21 82 26
84 60 9 133 -109 106 -167 228 -167 353 0 63 3 74 21 83 33 18 48 5 51 -47 l3
-48 52 -3 c48 -3 53 -1 76 30 13 18 27 52 30 76 5 38 2 48 -25 78 -16 19 -36
34 -44 34 -8 0 -22 4 -32 9 -9 5 -25 12 -34 15 -47 14 -1 74 95 125 29 15 61
32 72 38 32 19 107 49 150 62 35 11 87 31 160 62 11 5 61 11 110 14 50 3 131
9 180 13 150 15 185 14 192 -3z m-1239 -497 c7 -7 12 -24 12 -38 0 -14 16 -65
35 -114 19 -49 32 -93 29 -98 -3 -5 -23 7 -44 26 -21 18 -47 37 -59 41 -12 3
-21 10 -21 15 0 5 -10 12 -22 16 -31 9 -98 64 -98 80 0 6 18 28 40 48 31 28
48 36 78 36 21 0 43 -5 50 -12z m3980 -896 c2 -15 -19 -56 -65 -122 -37 -55
-77 -115 -88 -134 -17 -29 -53 -74 -99 -126 -7 -8 -29 -40 -48 -70 -19 -30
-53 -75 -76 -100 -23 -24 -42 -47 -42 -50 0 -3 -14 -21 -31 -40 -17 -19 -41
-52 -54 -72 -14 -20 -33 -45 -43 -55 -10 -10 -36 -44 -57 -76 -20 -32 -45 -62
-55 -67 -10 -6 -22 -20 -26 -32 -4 -13 -22 -40 -40 -61 -19 -20 -34 -41 -34
-46 0 -5 -12 -16 -26 -26 -24 -15 -28 -16 -42 -1 -14 14 -14 19 1 48 9 18 39
60 67 93 27 33 88 116 134 185 113 167 209 303 276 392 31 40 66 89 77 108 12
19 30 43 40 52 25 24 42 44 98 117 88 113 126 137 133 83z m-3586 -344 c23
-27 27 -40 24 -73 -3 -22 -5 -43 -5 -47 -2 -19 -36 -38 -69 -38 -50 0 -102 50
-102 98 0 96 89 132 152 60z m-259 -309 c15 -21 18 -35 12 -69 -10 -56 -35
-80 -85 -80 -83 0 -130 51 -110 119 14 49 36 61 104 58 51 -2 62 -6 79 -28z
m-1653 -151 c-1 -55 -23 -120 -63 -184 -20 -34 -37 -66 -37 -71 0 -6 -9 -18
-21 -29 -12 -10 -27 -31 -35 -46 -8 -15 -36 -54 -64 -87 -27 -33 -50 -64 -50
-69 0 -10 -88 -125 -123 -162 -14 -14 -33 -41 -42 -60 -10 -19 -26 -44 -36
-55 -10 -11 -33 -56 -52 -100 -19 -44 -43 -95 -53 -113 -18 -32 -18 -34 -1
-46 26 -20 81 -28 108 -16 75 32 210 144 305 252 241 274 224 258 264 258 61
0 78 -38 40 -95 -11 -16 -20 -37 -20 -45 0 -8 -6 -24 -13 -36 -34 -59 -67
-125 -67 -134 0 -6 -10 -26 -23 -43 -12 -18 -27 -39 -32 -48 -44 -71 -92 -135
-148 -199 -138 -154 -162 -183 -171 -199 -5 -9 -65 -70 -132 -137 l-123 -120
6 -130 c5 -112 3 -137 -15 -189 -11 -33 -22 -76 -26 -96 -9 -49 -50 -103 -86
-110 -42 -9 -52 8 -45 78 10 88 -27 279 -70 370 -34 71 -37 103 -8 103 25 0
91 74 118 133 18 39 30 87 36 154 14 130 29 187 109 403 17 47 38 104 46 127
21 61 142 315 159 333 7 8 34 56 60 105 57 110 122 221 153 259 12 16 22 34
22 40 0 24 25 36 77 36 l53 0 0 -32z m1326 -134 c21 -9 44 -23 51 -33 18 -23
6 -110 -18 -136 -25 -25 -90 -25 -138 -1 -32 17 -33 19 -28 69 4 42 10 56 41
84 41 38 41 38 92 17z m3156 -120 c5 -3 2 -14 -8 -25 -15 -17 -16 -21 -3 -33
23 -22 107 -44 219 -56 57 -6 112 -16 122 -21 9 -5 30 -9 47 -9 44 0 39 -21
-11 -49 -40 -23 -50 -24 -223 -23 -172 1 -222 6 -326 33 -74 19 -89 10 -129
-77 -26 -56 -47 -86 -80 -113 -54 -44 -181 -121 -200 -121 -7 0 -21 -6 -29
-14 -19 -15 -118 -36 -138 -29 -8 3 -27 32 -44 65 -24 47 -29 70 -27 111 3 48
5 52 48 79 25 15 56 32 70 38 14 6 34 19 45 29 11 10 56 38 100 63 44 24 89
50 100 56 67 39 159 74 214 82 35 5 65 10 66 12 6 6 177 8 187 2z m-3520 -260
c30 -15 30 -17 25 -71 -7 -72 -27 -93 -84 -93 -61 0 -103 40 -103 98 0 72 84
106 162 66z m3493 -130 c23 -7 90 -15 150 -18 112 -5 145 -11 145 -27 0 -20
-42 -48 -96 -64 -77 -23 -172 -10 -210 28 -14 14 -40 33 -59 42 -21 9 -35 23
-35 34 0 34 14 35 105 5z m-910 -8 c15 -10 17 -17 8 -27 -33 -42 -21 -174 22
-259 29 -56 40 -116 24 -126 -21 -13 -66 57 -113 179 -40 100 -47 127 -44 175
3 54 4 57 33 63 47 10 50 10 70 -5z m-2931 -102 c22 -9 21 -88 -3 -140 -23
-50 -57 -63 -101 -37 -37 21 -54 63 -47 109 9 55 32 74 88 74 26 0 54 -3 63
-6z m3721 -25 c22 -6 58 -26 80 -44 25 -20 57 -35 85 -40 67 -11 110 -31 110
-52 0 -28 -87 -63 -159 -64 -63 -1 -93 11 -173 73 -73 57 -124 18 -77 -58 29
-47 58 -74 92 -86 18 -7 27 -16 25 -27 -4 -22 -74 -28 -96 -7 -10 8 -30 18
-47 22 -16 4 -43 18 -59 31 -23 19 -36 23 -60 18 -135 -29 -198 -15 -256 57
-22 28 -39 56 -37 62 2 7 38 11 89 12 48 1 95 7 109 15 45 24 274 99 304 99
17 0 48 -5 70 -11z m-4014 -316 c37 -7 52 -44 39 -93 -9 -33 -16 -41 -47 -49
-41 -12 -99 7 -109 34 -9 22 14 96 35 112 9 7 25 10 36 7 11 -3 32 -8 46 -11z
m-1496 -469 c99 -4 185 -11 191 -16 7 -5 17 -30 24 -56 6 -26 17 -53 23 -61 8
-10 12 -77 12 -220 0 -219 3 -199 -58 -376 -26 -75 -85 -182 -105 -190 -23 -9
-34 6 -29 39 26 157 29 189 18 212 -16 36 -38 20 -55 -40 -22 -74 -59 -137
-119 -200 -52 -54 -90 -76 -102 -57 -3 6 6 50 20 98 32 112 41 183 26 212 -7
12 -17 21 -24 18 -13 -4 -47 -59 -84 -137 -59 -123 -243 -255 -243 -174 0 26
68 152 103 191 12 13 22 41 24 65 9 113 9 113 -12 116 -15 2 -34 -19 -80 -88
-55 -84 -93 -123 -187 -193 -37 -27 -68 -35 -68 -18 0 26 44 102 87 151 53 60
88 111 123 179 22 43 22 47 10 191 -17 222 -16 314 5 346 l17 27 152 -7 c83
-3 232 -9 331 -12z m-5230 -266 c38 -12 77 -27 85 -33 8 -7 29 -17 45 -22 17
-5 30 -16 30 -24 0 -11 -23 -16 -98 -20 -54 -4 -139 -15 -187 -24 -131 -25
-140 -17 -94 86 l27 59 61 0 c34 0 91 -10 131 -22z m4420 -508 c3 -11 3 -24 0
-30 -4 -6 -8 -33 -11 -61 -7 -77 -19 -93 -137 -183 -65 -50 -79 -43 -71 31 9
92 34 142 72 143 25 0 79 44 101 82 24 43 37 47 46 18z"/>
<path d="M14023 6500 c-27 -11 -42 -37 -36 -61 4 -15 16 -19 52 -21 125 -4
209 14 217 49 3 12 3 27 -1 32 -8 13 -200 14 -232 1z"/>
<path d="M2000 5159 c0 -12 25 -67 56 -123 93 -167 137 -214 165 -180 9 11 8
22 -5 48 -9 19 -16 38 -16 43 0 14 -76 123 -125 179 -51 57 -75 68 -75 33z"/>
<path d="M9210 4319 c-130 -11 -273 -39 -330 -63 -30 -13 -95 -38 -145 -56
-49 -17 -117 -46 -150 -63 -33 -17 -99 -52 -148 -77 -48 -25 -99 -57 -115 -71
-15 -14 -56 -43 -92 -64 -36 -22 -76 -50 -90 -62 -14 -12 -61 -52 -105 -90
-172 -148 -453 -469 -526 -602 -8 -16 -23 -41 -32 -55 -9 -14 -17 -30 -17 -37
0 -6 -9 -22 -20 -36 -23 -30 -27 -73 -6 -73 8 0 27 16 43 36 15 20 39 50 55
66 15 16 42 47 60 70 38 46 126 138 132 138 3 0 24 19 48 43 93 90 236 218
278 248 25 18 56 43 70 57 14 13 43 36 65 50 22 15 42 29 45 32 13 15 193 131
254 164 89 49 288 146 298 146 4 0 36 13 70 29 35 15 79 33 98 39 19 5 58 17
85 25 28 9 82 21 120 27 39 6 86 16 105 21 121 34 549 41 746 13 102 -15 134
-12 134 11 0 31 -48 53 -190 86 -166 39 -551 64 -740 48z"/>
<path d="M4435 4146 c-9 -13 -18 -40 -22 -59 -4 -30 0 -40 32 -76 43 -47 71
-52 103 -18 36 38 29 84 -19 135 -47 48 -72 53 -94 18z"/>
<path d="M9420 3774 c-74 -7 -153 -18 -175 -24 -22 -6 -64 -15 -93 -20 -55 -9
-199 -57 -216 -72 -6 -4 -16 -8 -24 -8 -21 0 -224 -103 -287 -145 -17 -11 -37
-24 -46 -30 -64 -40 -105 -71 -142 -107 -23 -23 -60 -54 -82 -70 -56 -41 -185
-166 -220 -213 -16 -22 -48 -62 -70 -90 -55 -67 -124 -168 -175 -255 -57 -97
-198 -304 -297 -435 -55 -73 -75 -97 -144 -170 -23 -25 -25 -53 -4 -61 34 -13
215 85 215 117 0 4 30 49 68 98 37 50 78 109 92 132 14 23 42 64 63 90 20 27
37 53 37 59 0 5 3 10 8 10 4 0 41 42 82 92 112 137 403 424 469 463 9 6 43 30
75 55 32 25 82 61 111 80 29 19 80 54 113 77 34 23 71 45 84 49 13 3 34 16 49
28 14 11 54 35 90 51 35 17 66 33 69 36 3 3 19 11 35 17 17 6 55 20 85 32 75
29 157 57 205 69 22 6 67 17 100 26 118 31 360 65 475 66 103 1 126 7 108 30
-29 36 -395 48 -658 23z"/>
<path d="M4793 3588 c-6 -7 -14 -24 -18 -38 -4 -14 -51 -115 -104 -225 -127
-260 -141 -290 -141 -300 0 -4 -11 -23 -25 -41 -14 -18 -25 -42 -25 -53 0 -11
-6 -26 -13 -33 -14 -14 -47 -76 -47 -89 0 -19 41 -30 73 -19 26 9 38 23 65 83
33 71 46 98 102 207 58 113 120 248 120 262 0 7 7 23 15 35 14 20 37 83 49
133 12 57 -24 112 -51 78z"/>
<path d="M3129 3277 c-69 -27 -89 -43 -89 -72 0 -43 22 -48 84 -21 83 37 116
63 116 92 0 20 -5 24 -27 23 -16 0 -53 -10 -84 -22z"/>
<path d="M3225 3079 c-27 -11 -56 -27 -62 -36 -17 -22 -17 -94 0 -117 13 -18
16 -18 78 3 75 26 89 35 113 77 16 27 17 34 5 60 -18 37 -62 41 -134 13z"/>
<path d="M3449 2854 c-20 -7 -49 -24 -64 -38 -15 -14 -31 -26 -34 -26 -4 0
-20 -26 -36 -57 -24 -46 -30 -71 -30 -123 0 -56 4 -70 28 -101 15 -20 27 -41
27 -46 0 -13 121 -123 134 -123 5 0 19 -9 30 -19 12 -11 58 -29 102 -41 78
-20 85 -20 159 -5 111 23 120 28 145 81 39 80 3 100 -117 65 -132 -39 -235
-24 -333 49 -82 61 -109 103 -110 172 0 72 30 113 90 122 22 3 58 9 80 12 79
12 87 63 12 84 -20 5 -39 9 -42 9 -3 -1 -21 -7 -41 -15z"/>
<path d="M1519 2826 c-69 -34 -164 -118 -191 -169 -65 -121 -72 -142 -73 -212
0 -38 8 -113 18 -165 10 -52 20 -113 22 -135 11 -149 42 -246 102 -314 28 -32
49 -48 58 -44 23 8 18 49 -8 75 -21 21 -24 37 -30 133 -4 61 -11 126 -17 146
-5 19 -11 102 -12 185 -3 128 0 157 17 204 25 68 104 153 138 148 27 -4 35
-39 12 -58 -8 -7 -15 -27 -15 -44 0 -17 -4 -45 -8 -61 -14 -49 5 -191 33 -252
33 -72 123 -173 179 -201 81 -41 251 -57 263 -26 10 27 -11 48 -63 63 -128 36
-291 188 -320 298 -28 105 -6 279 48 390 26 53 16 70 -46 70 -30 1 -63 -9
-107 -31z"/>
<path d="M1020 2129 c-163 -9 -407 -34 -475 -49 -158 -35 -257 -64 -282 -83
-7 -5 -13 -20 -13 -33 0 -27 41 -44 63 -26 32 26 218 52 452 62 419 19 452 25
476 87 12 33 -4 54 -40 52 -14 -1 -96 -6 -181 -10z"/>
<path d="M17 1749 c-26 -15 -21 -28 30 -76 69 -64 99 -86 178 -126 84 -42 158
-65 234 -73 31 -3 71 -10 89 -16 43 -13 289 8 320 28 22 15 29 48 13 72 -12
20 -76 31 -178 32 -212 0 -459 61 -635 156 -31 16 -28 16 -51 3z"/>
<path d="M15868 1417 c-15 -7 -66 -59 -113 -117 -48 -58 -122 -141 -164 -185
-42 -44 -99 -107 -128 -140 -72 -83 -80 -92 -163 -165 -40 -36 -83 -75 -96
-87 -13 -12 -43 -35 -66 -51 -24 -16 -54 -41 -68 -54 -14 -14 -39 -32 -55 -41
-17 -8 -39 -25 -49 -36 -32 -35 -10 -44 91 -39 77 4 95 9 141 36 29 18 55 32
58 32 5 0 133 84 304 200 41 28 101 74 135 103 33 29 78 66 100 82 22 16 53
45 70 65 16 19 39 44 50 56 78 82 125 164 125 218 0 32 -7 45 -38 75 -34 33
-82 62 -100 61 -4 -1 -19 -6 -34 -13z"/>
</g>
</svg>
