<?xml version="1.0" standalone="no"?>
<!DOCTYPE svg PUBLIC "-//W3C//DTD SVG 20010904//EN"
 "http://www.w3.org/TR/2001/REC-SVG-20010904/DTD/svg10.dtd">
<svg version="1.0" xmlns="http://www.w3.org/2000/svg"
 width="1983.000000pt" height="936.000000pt" viewBox="0 0 1983.000000 936.000000"
 preserveAspectRatio="xMidYMid meet">
<metadata>
Created by potrace 1.14, written by Peter Selinger 2001-2017
</metadata>
<g transform="translate(0.000000,936.000000) scale(0.100000,-0.100000)"
fill="#000000" stroke="none">
<path d="M17487 9342 c-40 -24 -68 -81 -58 -118 10 -41 62 -66 126 -61 41 4
54 10 77 38 49 59 29 116 -51 144 -54 19 -59 19 -94 -3z"/>
<path d="M18104 9315 c-49 -34 -56 -131 -11 -159 40 -25 93 -27 122 -5 41 33
33 127 -15 166 -21 17 -71 16 -96 -2z"/>
<path d="M17500 8895 l-23 -25 18 -60 c22 -72 42 -93 87 -88 27 2 36 10 52 41
17 36 17 41 2 82 -29 74 -92 97 -136 50z"/>
<path d="M17213 8832 c-21 -22 -34 -51 -38 -85 -1 -18 -6 -70 -10 -117 -6 -73
-11 -89 -34 -113 -27 -30 -60 -47 -126 -68 -22 -6 -51 -20 -65 -29 -14 -10
-70 -32 -125 -50 -55 -18 -124 -44 -152 -57 -44 -21 -53 -30 -59 -58 -6 -34 5
-80 37 -150 10 -22 21 -52 24 -68 4 -15 11 -30 16 -33 5 -3 9 -12 9 -20 0 -24
79 -177 100 -196 11 -9 48 -19 82 -23 35 -4 87 -18 115 -31 64 -30 88 -25 139
26 73 72 66 161 64 -791 0 -41 -4 -58 -15 -62 -31 -12 -202 65 -376 169 -31
19 -61 34 -65 34 -5 0 -26 11 -45 24 -34 23 -188 103 -269 140 -19 8 -42 20
-50 25 -8 6 -98 55 -200 109 -102 55 -222 122 -267 150 -45 28 -92 53 -105 58
-13 4 -43 22 -67 40 -35 27 -53 34 -90 34 -61 0 -91 -21 -91 -63 0 -18 4 -38
9 -46 11 -17 77 -57 186 -110 44 -22 103 -52 130 -67 28 -15 61 -33 75 -41 45
-24 223 -111 312 -151 47 -22 104 -52 127 -66 22 -14 46 -26 52 -26 5 0 45
-21 87 -47 42 -25 100 -56 128 -69 28 -12 80 -40 115 -61 35 -22 91 -53 124
-69 32 -16 66 -33 75 -37 8 -5 51 -23 94 -40 104 -42 122 -65 119 -155 -1 -37
2 -82 6 -100 8 -27 6 -34 -10 -43 -11 -6 -35 -27 -54 -48 -18 -20 -46 -43 -62
-51 -15 -8 -43 -32 -62 -53 -18 -20 -47 -45 -65 -54 -33 -17 -157 -116 -216
-172 -19 -19 -64 -54 -100 -78 -132 -87 -149 -110 -130 -168 8 -23 22 -37 51
-50 39 -18 41 -18 72 0 34 20 189 134 197 145 3 4 44 37 92 73 95 71 172 134
226 185 19 17 43 32 53 32 16 0 17 -15 12 -207 -2 -115 -6 -219 -9 -232 -3
-13 -34 -51 -69 -86 -89 -87 -99 -145 -31 -177 28 -14 40 -15 65 -5 47 17 54
3 53 -105 0 -51 -1 -99 -1 -105 -1 -18 -36 -16 -51 2 -7 8 -20 15 -29 15 -9 0
-21 4 -27 9 -5 5 -25 18 -44 29 -108 61 -191 109 -330 194 -85 52 -164 99
-175 105 -11 6 -91 51 -178 100 -86 48 -170 95 -185 103 -15 8 -49 29 -77 46
-27 17 -70 43 -95 56 -58 33 -211 126 -230 142 -8 6 -28 18 -45 26 -48 22
-214 119 -278 162 -32 21 -61 38 -65 38 -4 0 -34 18 -67 40 -33 22 -63 40 -67
40 -5 0 -45 25 -89 56 -44 30 -88 58 -97 61 -10 4 -73 40 -140 80 -68 40 -125
73 -127 73 -6 0 -142 84 -171 107 -38 29 -86 30 -130 2 -65 -40 -66 -84 -2
-109 18 -8 70 -35 116 -62 45 -26 84 -48 86 -48 7 0 181 -103 186 -110 3 -4
41 -26 85 -50 44 -23 85 -47 92 -52 19 -15 125 -78 131 -78 2 0 25 -15 51 -33
25 -18 78 -50 116 -72 39 -21 84 -49 101 -62 17 -12 35 -23 41 -23 6 0 22 -9
36 -20 14 -11 56 -36 94 -57 120 -64 256 -145 326 -195 37 -26 70 -48 73 -48
3 0 50 -27 105 -60 54 -33 102 -60 106 -60 10 0 265 -130 283 -145 8 -6 47
-29 85 -50 81 -44 323 -196 375 -235 19 -14 51 -33 70 -42 19 -9 59 -38 88
-64 49 -43 53 -50 47 -78 -4 -17 -7 -56 -6 -86 6 -234 11 -319 20 -342 22 -59
137 -91 174 -50 14 15 22 108 27 327 1 11 -2 37 -6 58 -5 33 -4 37 14 37 12 0
42 -15 67 -32 26 -18 54 -37 63 -43 10 -5 37 -23 62 -40 55 -37 67 -44 155
-95 86 -51 136 -82 223 -141 88 -60 229 -149 237 -149 3 0 49 -28 103 -63 114
-75 232 -146 270 -165 15 -8 52 -30 82 -50 30 -19 71 -45 90 -57 64 -39 125
-78 150 -95 14 -9 41 -25 60 -35 19 -10 47 -28 62 -40 15 -12 46 -32 70 -44
24 -11 79 -45 123 -75 67 -45 138 -89 293 -181 9 -5 37 -24 62 -41 47 -33 126
-64 161 -64 51 0 89 58 68 103 -11 23 -81 77 -102 78 -6 0 -32 16 -57 35 -25
19 -56 40 -70 46 -14 7 -113 65 -220 128 -107 64 -217 127 -245 140 -27 12
-76 40 -107 62 -32 21 -58 35 -58 31 0 -3 -10 3 -22 14 -37 32 -138 97 -218
139 -41 22 -102 58 -134 79 -70 47 -68 46 -126 75 -25 13 -54 31 -66 41 -11
11 -26 19 -34 19 -7 0 -46 23 -86 50 -40 28 -75 50 -78 50 -2 0 -42 25 -88 57
-45 31 -107 69 -138 85 -30 16 -105 63 -165 103 -61 40 -129 81 -153 90 -23
10 -42 20 -42 24 0 4 -40 32 -90 61 -49 29 -98 62 -107 72 -15 17 -18 47 -21
229 -3 115 -1 235 3 267 7 56 8 58 107 154 55 53 138 127 184 165 87 71 108
102 102 149 -2 24 -10 32 -45 43 -40 14 -43 14 -80 -12 -21 -15 -83 -70 -136
-122 -94 -92 -118 -107 -133 -84 -4 6 -9 150 -11 320 l-5 309 21 0 c25 0 98
-35 177 -86 31 -20 70 -42 87 -50 18 -8 46 -23 62 -34 38 -24 177 -104 190
-109 6 -2 24 -14 40 -26 17 -13 57 -37 90 -55 33 -17 80 -43 105 -56 25 -14
70 -39 100 -55 30 -17 64 -35 74 -42 11 -7 44 -27 72 -44 29 -18 57 -33 63
-33 5 0 16 -6 23 -13 7 -8 51 -33 98 -56 47 -24 91 -48 97 -53 7 -6 45 -27 85
-47 59 -30 257 -138 378 -207 14 -8 36 -19 50 -25 14 -5 57 -27 95 -49 39 -21
99 -53 135 -72 36 -18 67 -36 71 -40 5 -7 66 -41 164 -91 67 -34 125 -22 125
27 0 41 -80 126 -119 126 -8 0 -32 9 -55 19 -107 51 -197 91 -202 91 -3 0 -20
11 -37 23 -32 23 -56 36 -232 125 -49 25 -142 76 -205 113 -63 37 -126 70
-140 74 -14 4 -32 13 -40 20 -8 7 -33 21 -55 30 -46 21 -206 113 -280 160 -27
18 -90 54 -140 81 -49 26 -92 51 -95 54 -3 4 -32 20 -65 37 -33 17 -110 62
-170 102 -61 39 -137 84 -170 101 -82 40 -178 94 -214 119 -16 12 -32 21 -35
21 -13 0 -141 83 -158 102 -16 17 -17 57 -18 421 0 221 3 483 6 582 l7 180
111 114 c155 160 207 214 237 247 14 16 47 49 72 73 48 44 61 74 73 162 5 41
3 47 -35 87 -64 68 -161 86 -220 41 -13 -11 -29 -19 -37 -19 -7 0 -25 -6 -41
-14 -41 -21 -144 -49 -151 -41 -3 3 -7 41 -8 84 -1 105 -21 134 -89 136 -28 0
-54 -5 -62 -13z m485 -248 c44 -30 19 -84 -89 -190 -43 -43 -79 -84 -79 -90 0
-15 -76 -93 -141 -143 -65 -51 -74 -60 -216 -201 -73 -74 -117 -111 -129 -108
-17 3 -57 67 -74 118 -57 172 -57 203 -2 216 15 4 37 12 49 20 12 7 52 30 90
50 103 56 107 58 123 70 8 7 65 29 125 49 61 20 128 47 150 60 22 12 62 30 88
40 45 17 74 45 60 59 -15 15 -70 3 -133 -28 -38 -19 -86 -38 -107 -42 -21 -4
-42 -10 -48 -14 -5 -5 -48 -22 -95 -38 -47 -16 -101 -36 -120 -45 -19 -8 -102
-43 -183 -78 -186 -78 -200 -88 -194 -143 3 -23 19 -79 37 -126 47 -127 53
-151 41 -163 -12 -12 -41 8 -41 29 0 7 -25 84 -56 170 -46 129 -53 159 -42
169 7 6 85 40 173 74 88 35 183 73 210 86 28 12 88 37 134 55 46 19 99 44 118
57 19 13 49 23 69 23 19 0 56 9 82 19 62 26 154 59 167 60 6 1 21 -6 33 -15z"/>
<path d="M17775 8330 c-14 -45 27 -137 72 -161 19 -10 26 -9 44 7 25 22 22 70
-7 131 -17 34 -24 38 -61 41 -34 3 -42 0 -48 -18z"/>
<path d="M15555 7322 c-59 -33 -181 -116 -219 -149 -22 -18 -46 -33 -55 -33
-8 0 -37 -24 -65 -54 -28 -29 -76 -71 -107 -93 -32 -21 -72 -52 -90 -67 -19
-15 -50 -37 -69 -50 -27 -16 -36 -30 -38 -54 -5 -47 9 -58 79 -66 56 -5 94 3
109 24 4 6 150 131 185 159 6 4 24 16 40 27 34 21 225 179 298 245 60 55 72
99 32 117 -35 16 -64 14 -100 -6z"/>
<path d="M16079 7002 c-26 -15 -72 -50 -103 -77 -62 -56 -114 -97 -130 -105
-28 -13 -183 -120 -195 -134 -7 -9 -17 -16 -22 -16 -13 0 -141 -99 -171 -132
-33 -36 -35 -49 -9 -72 28 -26 69 -33 131 -24 50 8 60 14 115 71 33 34 70 69
81 78 11 9 50 38 85 66 35 27 71 54 80 59 9 5 51 41 94 79 42 39 84 74 93 79
30 17 112 105 112 120 0 43 -94 47 -161 8z"/>
<path d="M16604 6749 c-81 -43 -107 -63 -174 -130 -56 -56 -164 -134 -239
-172 -20 -11 -49 -31 -66 -46 -16 -15 -46 -39 -65 -53 -63 -46 -80 -68 -80
-98 0 -36 27 -56 90 -65 42 -6 50 -4 110 39 36 25 89 61 118 81 28 20 52 40
52 45 0 4 21 20 48 36 26 15 65 43 87 63 42 37 89 72 199 149 66 46 116 94
116 112 0 15 -90 70 -116 70 -11 0 -48 -14 -80 -31z"/>
<path d="M14636 6535 c-46 -46 73 -156 172 -159 32 -1 37 2 40 24 9 82 -159
188 -212 135z"/>
<path d="M15165 6200 c-16 -18 -16 -22 -2 -42 65 -98 176 -139 215 -80 14 22
13 25 -39 73 -73 67 -140 86 -174 49z"/>
<path d="M2854 6156 c-55 -7 -141 -27 -190 -44 -119 -41 -177 -58 -249 -72
-99 -20 -223 -91 -312 -179 -51 -50 -81 -101 -188 -321 l-41 -85 0 -150 c1
-138 3 -157 29 -232 22 -64 37 -90 68 -117 72 -66 108 -40 65 47 -60 122 -69
169 -63 317 5 121 9 144 37 214 29 73 105 185 155 229 21 19 263 139 305 151
22 7 62 24 150 65 14 7 39 19 55 28 30 17 92 34 220 59 122 24 324 -8 485 -76
60 -25 157 -57 285 -95 218 -64 250 -79 307 -146 59 -70 83 -113 97 -178 27
-126 0 -326 -61 -444 -24 -48 -70 -177 -79 -222 -30 -161 -30 -284 2 -347 5
-10 9 -24 9 -32 0 -21 85 -104 114 -112 56 -14 72 16 35 67 -39 55 -46 119
-13 119 8 0 74 -20 147 -46 73 -25 152 -49 177 -54 51 -11 139 -28 188 -36 52
-8 43 -38 -15 -54 -27 -7 -70 -18 -98 -26 -27 -7 -104 -24 -170 -38 -66 -13
-138 -29 -160 -35 -51 -14 -141 -14 -165 -1 -28 15 -70 1 -80 -25 -10 -26 -49
-31 -320 -41 -255 -10 -295 -15 -295 -39 0 -18 9 -21 95 -28 108 -9 371 -10
413 -1 41 8 44 -18 11 -84 -36 -72 -113 -155 -176 -189 -26 -14 -48 -30 -48
-34 0 -5 -18 -21 -41 -36 l-41 -27 -239 -1 c-194 0 -241 3 -248 14 -5 8 -9 41
-10 74 -1 58 2 63 54 132 90 120 98 139 126 283 11 56 10 65 -5 80 -16 16 -19
15 -52 -21 -26 -27 -44 -37 -65 -37 -17 0 -50 -12 -75 -26 -62 -36 -85 -28
-118 41 -19 41 -61 91 -159 188 -132 132 -205 187 -249 187 -13 0 -42 9 -64
19 -43 20 -62 58 -44 91 4 8 13 62 19 119 12 115 4 153 -36 159 -17 3 -30 -9
-59 -55 -45 -72 -155 -180 -190 -189 -33 -8 -244 33 -265 52 -8 7 -19 14 -23
14 -4 0 -40 19 -79 42 -40 24 -85 49 -100 57 -38 19 -113 94 -164 164 l-43 57
-61 0 c-53 0 -74 -6 -162 -50 -55 -27 -106 -50 -112 -50 -7 0 -50 -30 -96 -67
-257 -207 -403 -437 -460 -723 -6 -30 -18 -71 -25 -90 -18 -47 -26 -260 -12
-333 9 -48 17 -63 49 -90 35 -31 47 -34 166 -50 93 -12 134 -22 155 -37 15
-11 31 -20 36 -20 5 0 27 -13 49 -29 50 -36 77 -45 90 -29 6 7 20 51 33 98 12
47 35 110 50 140 15 30 33 73 40 95 19 59 76 168 121 232 21 31 39 63 39 70 0
20 -50 61 -82 68 -15 4 -30 11 -34 16 -7 12 59 120 103 167 19 20 44 50 55 65
18 25 88 77 103 77 4 0 31 -24 61 -52 l56 -52 40 23 c22 13 77 36 122 52 53
19 93 42 116 64 36 35 73 45 86 24 8 -14 -48 -63 -106 -93 -109 -55 -135 -74
-305 -212 -38 -31 -77 -69 -86 -83 -9 -14 -31 -37 -48 -51 -17 -14 -31 -30
-31 -36 0 -7 -18 -36 -40 -65 -74 -99 -213 -410 -228 -514 -16 -103 -17 -261
-2 -335 18 -87 66 -186 104 -214 42 -31 109 -56 149 -56 18 0 41 -6 50 -12 16
-12 15 -17 -16 -63 -19 -27 -38 -61 -42 -75 -4 -14 -16 -36 -26 -49 -11 -13
-19 -30 -19 -38 0 -7 -8 -30 -19 -51 -38 -74 -103 -287 -115 -373 -4 -29 -15
-54 -30 -68 -26 -24 -220 -91 -268 -92 -18 0 -66 -6 -107 -13 -58 -11 -108
-11 -233 -3 -168 11 -208 5 -208 -30 0 -10 13 -28 28 -40 42 -33 137 -106 167
-128 41 -30 142 -71 220 -91 117 -29 180 -52 180 -66 0 -18 -59 -36 -190 -57
-241 -41 -277 -44 -406 -38 -121 6 -129 5 -139 -13 -14 -26 0 -51 47 -87 21
-15 50 -39 66 -53 26 -22 61 -46 130 -85 103 -59 547 -59 812 -1 101 23 96 27
88 -59 -8 -99 17 -209 65 -285 38 -59 195 -218 233 -236 13 -6 44 -21 69 -32
69 -32 186 -61 272 -68 122 -11 125 -18 42 -100 -70 -70 -164 -144 -181 -144
-6 0 -37 -17 -69 -38 -115 -72 -254 -132 -364 -157 -41 -9 -104 -24 -140 -32
-245 -60 -371 -55 -627 27 -84 27 -106 30 -118 20 -8 -7 -15 -19 -15 -27 0
-19 75 -90 115 -109 17 -8 37 -18 45 -23 27 -17 153 -51 240 -65 167 -28 490
-17 545 19 11 7 41 16 65 20 25 4 80 25 123 46 42 22 103 49 135 61 69 25 206
102 247 138 17 14 53 41 81 59 47 32 82 74 127 156 9 18 43 59 75 92 l57 61
85 5 c47 3 105 13 130 21 88 29 167 48 186 44 12 -2 21 -15 25 -38 15 -82 33
-113 78 -137 24 -13 53 -23 63 -23 10 0 46 -9 79 -20 97 -33 147 -104 168
-239 7 -41 28 -111 47 -155 19 -45 37 -100 41 -123 5 -40 7 -42 67 -64 125
-48 341 -15 354 53 10 50 -78 75 -198 58 -86 -12 -99 -6 -80 39 8 20 11 64 8
128 -3 89 -7 105 -41 174 -21 43 -56 93 -80 116 -62 59 -219 139 -289 147 -73
9 -84 22 -68 81 17 60 8 88 -40 123 -36 26 -50 30 -143 36 -76 5 -121 2 -168
-8 -57 -13 -129 -20 -304 -30 -68 -4 -286 18 -312 32 -11 6 -23 9 -27 5 -3 -3
-23 1 -43 9 -21 8 -71 26 -112 39 -77 25 -128 62 -212 154 -53 59 -139 221
-139 264 0 32 3 33 115 61 28 7 88 30 134 52 46 21 111 48 145 59 33 11 77 30
96 42 91 56 150 77 220 77 67 0 149 -24 164 -49 11 -17 -43 -57 -95 -70 -43
-11 -79 -39 -79 -62 0 -20 55 -15 145 12 55 18 134 42 175 55 41 13 116 31
165 40 50 9 120 22 158 30 162 34 351 24 517 -28 90 -28 228 -95 268 -129 18
-16 39 -29 46 -29 25 0 217 -216 272 -305 61 -98 153 -285 174 -354 31 -98
129 -291 148 -292 50 -4 79 20 94 77 20 80 20 151 -2 265 -25 126 -41 178 -68
217 -11 15 -36 59 -56 97 -48 92 -210 261 -301 315 -22 13 -70 47 -107 74
-122 92 -272 173 -353 191 -17 4 -46 12 -65 20 -89 33 -126 38 -283 39 -160 0
-229 -9 -411 -55 -28 -7 -51 -8 -56 -3 -5 5 -3 50 6 104 8 52 16 115 18 139 4
50 18 62 61 53 16 -4 95 -7 175 -7 151 0 145 -1 335 60 39 12 95 30 125 39 30
10 74 26 97 37 24 10 49 19 56 19 38 0 411 337 490 441 18 24 30 55 34 87 5
49 4 52 -53 128 -61 81 -119 144 -133 144 -13 0 -159 148 -191 195 -17 25 -35
45 -39 45 -5 0 -24 11 -43 24 -47 31 -99 40 -140 23 -18 -8 -92 -73 -164 -145
-147 -148 -146 -147 -247 -112 -62 22 -108 25 -137 10 -29 -16 -106 -16 -124
-1 -24 20 -6 43 71 94 77 51 88 65 163 197 30 52 55 97 57 99 2 3 63 3 136 1
170 -4 161 -4 238 5 72 8 99 -5 99 -49 0 -28 40 -67 107 -103 29 -15 72 -43
95 -61 106 -81 148 -109 223 -147 45 -23 92 -49 105 -58 57 -40 84 4 35 57
-33 35 -32 51 6 78 17 13 37 38 45 57 8 19 24 42 37 50 36 26 178 86 237 100
105 26 207 84 294 169 45 44 90 82 101 85 11 3 52 15 90 26 180 50 345 160
345 230 0 22 -9 42 -27 61 -44 45 -83 97 -83 109 0 7 -13 29 -29 49 -16 20
-39 59 -52 85 -41 90 -100 121 -309 167 -47 11 -112 27 -145 36 -33 9 -74 20
-91 24 -17 4 -71 19 -120 34 -127 39 -144 44 -192 51 -24 4 -55 17 -70 30
l-26 23 17 55 c9 30 39 99 65 153 73 149 121 386 108 532 -12 142 -51 241
-126 320 -25 26 -53 60 -63 75 -26 40 -77 63 -282 125 -38 11 -110 33 -160 48
-49 15 -92 30 -95 34 -8 11 -82 48 -140 71 -48 19 -78 22 -230 25 -100 1 -218
-3 -276 -10z m-1713 -1244 c41 -21 88 -44 104 -50 114 -44 141 -90 80 -136
-43 -33 -88 -78 -130 -130 -58 -72 -129 -151 -142 -159 -19 -11 -51 9 -106 65
-41 42 -50 47 -67 38 -25 -13 -40 -5 -40 20 0 12 -11 22 -33 29 -36 12 -67 43
-67 67 0 17 38 76 109 169 35 47 59 67 111 92 36 18 74 32 86 33 11 0 54 -17
95 -38z m1180 -238 c25 -12 30 -20 24 -37 -17 -55 -18 -77 -1 -77 9 0 28 8 42
17 24 16 28 15 59 -1 35 -19 130 -114 185 -184 25 -33 30 -46 20 -52 -15 -9
-61 2 -92 24 -38 27 -128 13 -128 -20 0 -17 32 -34 62 -34 34 0 57 -20 63 -55
5 -25 -1 -37 -30 -69 -19 -22 -35 -47 -35 -55 0 -25 -23 -82 -56 -141 -51 -93
-83 -164 -86 -195 -3 -26 1 -30 23 -33 21 -2 31 4 48 33 11 20 24 48 27 63 4
15 22 55 41 90 18 35 33 74 33 86 0 33 26 64 62 71 18 4 51 16 74 25 36 16 42
23 48 58 7 50 17 57 59 43 18 -6 66 -12 107 -12 68 -2 82 2 143 34 55 28 69
33 74 21 12 -31 -28 -100 -96 -167 -69 -68 -71 -69 -158 -88 -48 -11 -92 -24
-98 -30 -12 -12 -35 -87 -35 -115 0 -11 -9 -29 -20 -39 -11 -10 -20 -25 -20
-33 0 -9 -30 -45 -67 -81 -53 -51 -80 -70 -123 -83 -108 -34 -129 -37 -191
-26 -56 10 -60 9 -90 -16 -34 -29 -36 -29 -160 -45 -133 -17 -224 -52 -359
-137 -85 -53 -158 -42 -218 34 -26 32 -32 49 -32 87 0 39 5 50 32 76 l33 29
-19 34 c-32 61 -4 208 77 396 77 180 211 348 327 410 61 33 69 39 115 96 37
47 122 98 174 105 82 11 131 9 162 -7z m2572 -369 c5 -16 24 -61 43 -100 57
-117 51 -130 -91 -180 -44 -16 -84 -32 -90 -36 -5 -4 -23 -9 -40 -12 -16 -3
-82 -17 -145 -32 -63 -15 -137 -31 -165 -35 -27 -4 -68 -12 -90 -18 -22 -6
-93 -14 -157 -18 l-118 -7 0 25 c0 13 7 47 15 74 8 27 16 91 18 142 2 67 7 96
17 102 8 5 44 12 80 15 36 4 108 15 162 26 53 10 111 19 130 19 18 0 62 9 96
20 35 11 85 20 112 20 26 0 63 7 81 15 19 8 56 14 84 12 46 -2 50 -4 58 -32z
m-912 -167 c6 -70 -15 -138 -65 -210 -23 -35 -61 -91 -84 -124 -43 -62 -52
-100 -30 -122 15 -15 87 -16 125 -1 24 10 240 22 412 23 87 1 76 -18 -46 -75
-59 -27 -123 -58 -142 -67 -18 -9 -76 -56 -128 -104 -52 -48 -100 -88 -107
-88 -7 0 -24 9 -38 19 -13 11 -70 42 -126 70 -135 66 -156 82 -170 129 -24 79
-17 109 36 157 266 248 250 229 312 348 29 54 49 72 51 45z m-1128 -273 c-5
-129 -41 -217 -130 -322 -43 -50 -160 -144 -193 -155 -18 -6 -81 24 -100 47
-8 9 -35 28 -62 41 -70 35 -62 72 11 52 24 -7 53 -5 105 7 79 19 97 28 152 79
22 20 42 36 46 36 3 0 27 28 52 62 40 53 55 87 82 186 2 8 12 12 21 10 14 -3
18 -12 16 -43z m-368 -1585 c15 -16 16 -26 7 -67 -6 -26 -14 -95 -18 -153 -3
-58 -11 -111 -16 -117 -12 -15 -89 -17 -139 -3 -19 6 -45 21 -58 34 l-22 23
28 34 c15 19 33 37 40 42 14 9 88 141 98 177 16 53 48 65 80 30z"/>
<path d="M1935 4424 c-90 -60 -128 -113 -139 -194 -11 -77 54 -167 103 -141
19 10 20 17 15 70 -4 32 -4 75 0 95 12 62 76 120 150 135 16 4 34 14 40 24 16
25 -7 37 -74 37 -43 0 -64 -6 -95 -26z"/>
<path d="M15636 5937 c-30 -22 -13 -61 41 -97 63 -43 90 -52 114 -40 29 16 24
54 -12 84 -61 52 -117 72 -143 53z"/>
<path d="M18204 5922 c-21 -16 -55 -44 -74 -62 -19 -18 -64 -58 -100 -88 -36
-30 -83 -73 -105 -96 -23 -22 -59 -56 -80 -75 -22 -18 -65 -56 -95 -85 -31
-28 -73 -67 -95 -87 -53 -48 -75 -76 -75 -94 0 -37 102 -87 141 -68 29 14 142
117 362 333 116 113 219 213 229 223 25 23 24 81 -2 107 -28 28 -60 25 -106
-8z"/>
<path d="M2610 5831 c-81 -10 -185 -55 -287 -124 -109 -74 -168 -143 -211
-249 -30 -72 -32 -84 -32 -198 0 -78 5 -132 13 -153 15 -35 54 -61 83 -55 18
3 19 13 15 149 -5 204 3 228 116 345 97 99 143 124 235 124 49 0 138 -25 214
-60 56 -26 179 -50 288 -56 68 -4 118 0 201 15 166 31 188 36 212 49 11 7 59
15 106 18 75 6 93 4 165 -20 77 -26 147 -69 166 -103 11 -20 -10 -145 -29
-170 -8 -10 -15 -26 -15 -36 0 -10 -16 -50 -35 -90 -19 -39 -35 -78 -35 -85 0
-7 -9 -30 -20 -52 -19 -37 -50 -215 -50 -286 0 -39 -21 -54 -65 -49 -17 2 -73
8 -125 14 -182 20 -715 10 -748 -15 -27 -20 -1 -37 60 -40 29 -1 127 -5 218
-8 237 -10 568 -36 637 -51 16 -4 32 -24 52 -63 33 -66 62 -95 88 -90 26 5 28
43 3 78 -30 42 -45 191 -31 297 13 96 30 158 56 203 21 37 45 89 91 204 26 63
29 82 29 185 0 109 -2 119 -28 163 -22 38 -43 56 -109 93 -46 26 -103 50 -128
55 -25 5 -61 16 -81 24 -49 21 -109 21 -209 2 -47 -9 -107 -17 -135 -18 -75
-3 -314 13 -360 24 -37 8 -117 20 -220 32 -22 2 -65 1 -95 -3z"/>
<path d="M18734 5693 c-68 -45 -646 -619 -669 -664 -14 -26 -14 -30 5 -49 14
-14 33 -20 68 -20 45 0 50 3 133 83 48 45 111 104 140 131 30 27 83 77 119
111 36 34 101 92 145 129 206 174 209 178 162 247 -17 26 -31 35 -57 37 -19 1
-40 -1 -46 -5z"/>
<path d="M16166 5614 c-9 -8 -16 -22 -16 -29 0 -25 51 -75 98 -95 25 -12 53
-27 62 -34 28 -25 89 -39 105 -26 27 22 17 56 -24 89 -36 29 -186 111 -203
111 -3 0 -14 -7 -22 -16z"/>
<path d="M19203 5400 c-12 -5 -26 -17 -32 -27 -5 -10 -107 -115 -227 -233
-422 -417 -408 -402 -400 -448 7 -48 32 -72 75 -72 32 0 51 17 271 238 129
130 286 284 348 342 96 90 112 110 112 136 0 26 -6 33 -45 52 -49 24 -67 26
-102 12z"/>
<path d="M16720 5291 c-29 -8 -39 -44 -18 -68 17 -21 127 -73 154 -73 24 0 44
18 44 41 0 21 -62 77 -106 95 -36 15 -37 15 -74 5z"/>
<path d="M19538 4869 c-38 -22 -68 -43 -68 -47 0 -4 -12 -20 -28 -37 -15 -16
-40 -48 -56 -70 -16 -22 -70 -81 -121 -131 -126 -123 -159 -190 -115 -234 25
-25 73 -26 114 -1 28 18 221 211 352 351 27 30 71 73 97 96 52 45 57 64 25 94
-16 15 -35 20 -77 20 -48 0 -66 -6 -123 -41z"/>
<path d="M17662 4738 c-7 -7 -12 -25 -12 -40 0 -21 9 -34 38 -53 75 -49 132
-43 132 16 0 24 -8 33 -52 59 -57 32 -87 37 -106 18z"/>
<path d="M18789 4040 c-20 -5 -24 -12 -24 -40 0 -31 5 -37 59 -67 61 -35 94
-41 114 -21 37 37 -21 123 -87 130 -21 2 -49 1 -62 -2z"/>
<path d="M1060 1339 c-83 -19 -111 -19 -262 -3 -47 5 -65 2 -110 -19 -71 -33
-164 -45 -396 -51 -133 -4 -199 -9 -209 -17 -43 -36 -76 -183 -75 -334 1 -105
10 -125 68 -157 47 -25 50 -26 70 -10 30 25 34 48 48 239 8 107 18 178 26 188
18 22 71 19 201 -11 182 -42 355 -25 406 39 29 36 36 38 108 17 62 -18 75 -18
144 -6 128 22 226 89 191 131 -17 20 -100 18 -210 -6z"/>
<path d="M248 823 c-16 -20 -75 -199 -109 -332 -43 -169 -4 -272 160 -421 49
-45 141 -70 257 -70 109 0 137 15 148 79 11 72 -8 86 -139 100 -91 11 -138 30
-201 85 -68 58 -76 116 -60 398 7 115 6 151 -4 163 -16 20 -33 19 -52 -2z"/>
<path d="M4465 644 c-38 -26 -90 -53 -114 -60 -24 -8 -49 -18 -55 -23 -6 -4
-48 -23 -94 -40 -93 -36 -234 -52 -332 -39 -105 15 -260 -15 -281 -53 -14 -27
9 -36 111 -43 54 -4 117 -15 145 -26 120 -46 161 -53 263 -46 53 4 115 11 137
17 45 11 213 88 233 106 6 6 20 14 30 18 20 6 74 82 92 129 22 59 3 106 -43
106 -12 0 -53 -21 -92 -46z"/>
</g>
</svg>
