<?xml version="1.0" standalone="no"?>
<!DOCTYPE svg PUBLIC "-//W3C//DTD SVG 20010904//EN"
 "http://www.w3.org/TR/2001/REC-SVG-20010904/DTD/svg10.dtd">
<svg version="1.0" xmlns="http://www.w3.org/2000/svg"
 width="1289.000000pt" height="878.000000pt" viewBox="0 0 1289.000000 878.000000"
 preserveAspectRatio="xMidYMid meet">
<metadata>
Created by potrace 1.14, written by Peter Selinger 2001-2017
</metadata>
<g transform="translate(0.000000,878.000000) scale(0.100000,-0.100000)"
fill="#000000" stroke="none">
<path d="M11416 8773 c-35 -9 -131 -72 -168 -110 -39 -40 -157 -206 -185 -260
-19 -37 -43 -44 -43 -12 0 23 20 98 57 207 29 89 28 136 -4 140 -32 5 -66 -36
-112 -132 -149 -312 -187 -404 -224 -546 -73 -284 -95 -446 -104 -766 l-6
-211 36 -27 c48 -37 202 -86 280 -89 58 -2 62 -1 65 22 7 50 -6 71 -64 96 -31
14 -64 25 -74 25 -29 0 -53 36 -46 67 10 39 150 409 181 478 7 17 26 59 41 95
15 36 31 70 35 76 5 5 23 39 42 75 31 60 66 120 126 214 14 22 46 66 71 97 25
31 61 78 80 104 80 108 282 294 319 294 10 0 57 -25 106 -56 85 -53 259 -149
433 -237 45 -23 82 -45 82 -49 0 -3 -35 -31 -78 -61 -118 -84 -305 -286 -396
-431 -21 -33 -42 -63 -46 -66 -4 -3 -24 -34 -45 -70 -20 -36 -49 -83 -64 -105
-25 -36 -71 -115 -108 -187 -14 -27 -36 -41 -47 -31 -3 4 -6 18 -6 32 0 52
-22 103 -67 154 -56 64 -113 96 -171 97 -55 0 -84 -29 -135 -132 -83 -170
-116 -368 -97 -581 5 -59 12 -112 15 -117 10 -16 91 -12 105 5 11 14 26 111
50 334 11 99 26 146 63 196 15 20 16 20 41 -4 37 -35 44 -73 52 -261 10 -234
37 -300 124 -300 20 0 43 -6 52 -12 22 -18 101 -298 117 -418 4 -30 16 -104
26 -164 12 -71 15 -113 9 -123 -16 -26 -117 -72 -164 -75 l-44 -3 -8 49 c-28
195 -193 416 -425 570 l-102 68 -45 116 c-25 64 -56 131 -68 149 -40 57 -170
110 -203 83 -8 -6 -19 -36 -26 -66 -14 -64 -1 -176 27 -234 29 -60 104 -148
163 -192 31 -23 65 -51 76 -61 11 -10 47 -38 80 -61 33 -23 71 -51 85 -63 14
-12 54 -46 90 -76 101 -85 160 -202 160 -317 -1 -52 -13 -71 -56 -89 -42 -17
-44 -37 -23 -208 19 -147 27 -192 60 -343 30 -137 34 -153 67 -280 52 -202 84
-346 80 -366 -2 -13 -13 -20 -33 -22 -60 -6 -239 -54 -312 -83 -59 -24 -77
-28 -89 -18 -8 6 -14 16 -14 21 0 6 -9 22 -19 36 -10 15 -56 99 -102 187 -45
88 -91 176 -101 195 -52 99 -226 300 -286 331 -15 7 -47 31 -72 51 -65 54
-227 123 -345 148 -55 12 -116 26 -135 30 -115 29 -235 34 -450 17 -20 -2 -26
3 -28 23 -2 13 -12 35 -22 47 -39 50 -312 171 -415 183 -33 5 -89 13 -125 20
-84 16 -261 6 -394 -21 -195 -40 -418 -126 -591 -229 -33 -19 -73 -42 -90 -50
-16 -8 -51 -30 -76 -47 -26 -18 -50 -33 -54 -33 -5 0 -23 -11 -41 -25 -18 -14
-42 -25 -53 -25 -12 0 -65 20 -118 44 -135 60 -321 114 -457 132 -43 6 -76 27
-59 37 4 3 44 19 88 37 44 17 87 37 95 45 8 7 69 40 135 73 139 69 244 148
368 276 86 90 98 105 171 218 47 73 138 267 160 338 67 228 87 334 106 566 9
112 8 128 -14 215 -28 112 -29 114 -97 253 -76 159 -186 269 -358 362 -25 14
-60 34 -78 45 -56 35 -194 79 -303 95 -111 17 -319 14 -430 -6 -172 -31 -218
-46 -409 -129 -148 -64 -175 -84 -349 -258 -92 -92 -174 -166 -189 -169 -25
-7 -41 -3 -143 34 -109 40 -432 55 -555 27 -80 -19 -223 -84 -249 -114 -26
-28 -26 -103 -1 -131 29 -32 77 -40 137 -24 166 44 462 22 713 -53 83 -25 202
-60 265 -78 63 -18 134 -40 156 -48 31 -11 45 -12 53 -4 16 16 14 93 -4 126
-18 36 -82 87 -121 97 -58 14 -154 85 -154 113 0 9 28 33 63 54 299 183 400
240 447 255 59 19 291 33 447 26 273 -11 437 -48 612 -136 89 -46 114 -65 187
-141 93 -97 116 -136 163 -275 28 -80 33 -111 38 -230 5 -116 3 -147 -12 -193
-31 -96 -96 -206 -271 -454 -65 -93 -215 -235 -342 -323 -75 -52 -211 -118
-287 -140 -38 -11 -77 -23 -86 -26 -9 -4 -20 -1 -26 6 -29 37 -45 452 -23 596
6 37 17 174 25 304 9 147 20 250 28 270 8 18 17 55 21 81 7 45 6 49 -27 82
-21 21 -45 35 -59 35 -13 0 -28 4 -33 9 -6 5 -46 20 -90 34 -131 43 -285 35
-321 -17 -17 -25 -18 -82 -1 -116 12 -24 17 -25 139 -32 148 -7 218 -30 218
-70 0 -13 -20 -90 -45 -171 -24 -81 -47 -164 -51 -185 -3 -20 -14 -80 -25
-132 -10 -52 -21 -142 -24 -200 -3 -58 -8 -130 -10 -160 -2 -30 4 -127 13
-216 8 -88 13 -167 10 -176 -8 -20 -139 -63 -233 -77 -101 -15 -290 -22 -616
-24 l-286 -1 -40 26 -40 26 -13 103 c-34 252 -1 841 56 1024 60 193 76 291 49
301 -14 6 -137 -112 -196 -187 -74 -95 -160 -313 -189 -479 -16 -87 -21 -419
-9 -500 5 -36 12 -92 14 -125 3 -33 7 -68 9 -78 3 -11 -5 -24 -19 -33 -46 -30
-308 -71 -333 -51 -29 23 -53 105 -63 212 -5 61 -14 135 -19 166 -6 30 -10 86
-10 123 0 73 -29 203 -61 270 -18 39 -24 43 -141 88 -194 75 -232 82 -403 82
-181 0 -210 -9 -255 -80 -33 -53 -39 -106 -15 -141 13 -19 27 -21 177 -27 181
-7 324 -19 351 -31 21 -9 19 20 21 -290 2 -192 7 -281 19 -340 17 -85 42 -190
50 -215 3 -8 15 -49 28 -90 12 -41 25 -79 29 -85 4 -5 13 -28 20 -50 23 -76
114 -261 177 -359 25 -38 48 -79 53 -90 5 -12 15 -30 24 -41 45 -56 77 -116
72 -133 -6 -18 -54 -57 -139 -113 -50 -33 -202 -190 -222 -229 -9 -17 -19 -30
-23 -30 -9 0 -136 -164 -194 -250 -21 -30 -55 -80 -77 -110 -23 -30 -61 -84
-85 -120 -25 -36 -53 -75 -63 -86 -21 -25 -74 -37 -106 -24 -29 12 -171 149
-228 220 -24 30 -52 64 -62 75 -10 11 -25 33 -33 48 -8 15 -34 58 -58 95 -56
88 -89 160 -142 317 -45 132 -73 237 -94 355 -6 36 -16 83 -21 105 -8 35 -31
235 -45 395 -2 30 -7 223 -11 428 -6 397 -8 408 -53 367 -30 -27 -86 -153
-114 -255 -14 -52 -38 -133 -52 -180 -24 -75 -28 -109 -34 -285 -9 -241 -18
-270 -103 -334 -29 -23 -57 -41 -60 -41 -23 0 -238 -186 -340 -294 -59 -62
-156 -182 -179 -222 -9 -16 -39 -67 -67 -114 -72 -119 -143 -269 -179 -375
-75 -224 -86 -268 -133 -545 -24 -140 -37 -563 -21 -650 6 -32 7 -59 2 -64
-26 -26 -200 147 -291 289 -46 72 -105 213 -145 350 -45 153 -70 250 -79 309
-5 29 -20 54 -59 95 -29 31 -59 67 -66 80 -20 39 -68 186 -80 248 -45 229 -79
310 -162 389 -63 60 -88 74 -182 103 -78 24 -206 28 -364 10 -157 -17 -182
-37 -251 -199 -57 -136 -61 -158 -62 -351 0 -161 14 -293 35 -328 10 -16 88
-14 112 3 18 14 19 27 15 280 l-3 266 38 57 c61 92 72 100 187 138 175 58 312
23 370 -97 74 -152 81 -188 46 -245 -20 -33 -21 -34 -3 -76 10 -24 22 -95 29
-169 12 -127 29 -178 59 -178 7 0 37 25 67 55 29 30 60 55 69 55 9 0 30 -19
48 -42 36 -47 44 -106 16 -129 -13 -11 -111 -14 -483 -16 -725 -5 -740 -5
-762 -32 -17 -21 -18 -84 -14 -1376 l3 -1354 22 -36 c42 -68 17 -65 518 -65
509 0 488 3 542 -75 17 -25 43 -51 58 -59 45 -23 174 -39 274 -33 143 8 340
42 354 62 27 37 36 149 25 327 -9 161 -3 310 15 339 6 11 37 8 164 -17 41 -8
111 -21 155 -30 208 -40 503 -114 570 -143 11 -4 49 -17 85 -29 74 -23 271
-101 283 -111 4 -4 -15 -50 -41 -102 -27 -51 -54 -114 -61 -139 -7 -25 -17
-56 -22 -70 -21 -59 -30 -144 -30 -278 0 -126 2 -149 21 -185 26 -52 126 -137
209 -176 71 -33 113 -33 196 1 69 28 115 67 174 146 47 64 51 73 61 158 17
129 -7 306 -60 442 -34 89 -35 87 107 182 179 119 442 247 658 322 17 5 39 14
50 18 11 5 85 27 165 49 110 30 181 43 295 53 208 18 566 16 735 -5 268 -34
600 -159 600 -226 0 -9 15 -39 34 -66 30 -44 42 -53 107 -77 41 -15 103 -35
139 -44 36 -10 83 -26 104 -37 35 -17 52 -18 160 -12 205 11 458 64 581 120
28 13 72 28 98 35 26 7 52 20 56 29 10 18 -2 279 -19 416 -20 164 -38 368 -44
479 -5 97 -8 113 -32 147 -37 53 -28 89 38 156 50 50 51 52 45 99 -4 41 -11
54 -49 87 -79 70 -88 81 -104 130 -34 101 -3 191 104 305 67 70 102 89 102 56
0 -19 -59 -95 -107 -137 -77 -68 -72 -204 11 -305 86 -105 109 -195 60 -229
-87 -59 -101 -96 -59 -153 44 -60 71 -191 80 -385 4 -87 10 -136 20 -151 8
-13 47 -35 91 -52 96 -37 114 -52 114 -97 0 -41 10 -62 74 -160 25 -38 46 -75
46 -82 0 -7 4 -13 9 -13 4 0 27 -37 50 -82 23 -45 55 -101 72 -125 16 -24 29
-46 29 -48 0 -14 81 -117 115 -147 143 -125 327 -263 409 -307 33 -17 64 -35
70 -40 6 -5 25 -13 41 -16 17 -4 39 -13 50 -20 18 -11 61 -24 245 -75 36 -10
94 -21 130 -25 68 -6 214 -38 265 -57 17 -6 68 -32 115 -58 92 -52 145 -69
285 -96 115 -21 521 -25 670 -5 243 31 238 31 262 9 20 -19 26 -19 90 -8 91
15 193 61 274 122 64 48 184 178 204 221 6 12 24 43 42 70 17 26 36 62 43 80
7 17 20 50 30 72 45 97 78 286 79 449 1 176 -37 371 -101 514 -15 35 -18 55
-12 100 7 60 49 282 84 442 32 147 41 292 25 397 -14 99 -36 160 -60 169 -24
10 -64 -34 -71 -78 -4 -21 -12 -46 -20 -55 -12 -17 -14 -17 -29 5 -10 14 -27
22 -44 22 -54 0 -58 -15 -65 -250 -6 -233 -14 -301 -34 -308 -7 -2 -43 26 -80
63 -81 81 -134 107 -148 71 -4 -11 71 -152 136 -256 35 -56 90 -174 90 -194 0
-13 -7 -43 -16 -67 -27 -76 -17 -104 99 -292 21 -34 28 -60 30 -103 1 -31 -2
-58 -8 -60 -5 -2 -30 36 -55 84 -151 297 -279 458 -410 520 -74 34 -183 58
-332 72 -290 28 -312 31 -350 56 -66 42 -72 61 -78 219 l-5 140 -63 7 c-145
16 -202 17 -216 3 -14 -15 -13 -24 29 -184 17 -61 17 -65 -4 -135 -53 -180 -7
-390 135 -603 19 -28 34 -54 34 -58 0 -10 105 -138 146 -177 50 -47 165 -108
203 -108 16 0 32 -4 35 -9 13 -20 176 -50 316 -56 63 -3 189 -11 280 -17 248
-18 244 -18 248 14 7 64 -132 156 -318 211 -113 34 -179 45 -335 58 -139 12
-240 41 -240 69 0 16 9 16 70 1 22 -6 117 -13 210 -16 265 -9 332 -23 420 -90
17 -12 58 -37 92 -54 51 -27 74 -33 128 -33 l67 0 -5 -32 c-29 -170 -117 -388
-205 -508 -73 -98 -218 -225 -341 -297 -152 -90 -397 -151 -602 -151 -129 0
-182 7 -176 23 3 11 137 43 299 72 121 22 255 67 296 100 58 46 142 125 155
145 8 14 50 63 92 110 90 99 156 182 177 225 45 88 32 102 -90 104 -87 1 -89
1 -123 -31 -40 -38 -143 -130 -191 -171 -34 -29 -194 -127 -207 -127 -4 0 -27
-13 -52 -28 -54 -35 -251 -110 -339 -129 -36 -8 -103 -23 -150 -34 -47 -10
-137 -22 -200 -25 -116 -7 -116 -7 -132 18 -9 14 -23 31 -30 39 -47 50 -80
106 -204 348 -44 85 -96 171 -118 195 -21 22 -71 82 -111 131 -82 102 -141
165 -155 165 -6 0 -10 7 -10 15 0 13 23 15 148 15 139 0 180 4 322 32 87 16
198 55 289 101 112 56 131 75 131 130 0 91 -21 90 -305 -16 -114 -43 -190 -57
-390 -72 -193 -15 -350 -13 -440 6 -27 5 -60 12 -72 15 -27 5 -30 32 -5 40 40
13 99 40 132 60 97 59 179 115 215 145 73 63 241 235 275 282 18 26 37 47 40
47 4 0 20 19 36 42 16 23 82 107 147 187 144 178 145 179 263 120 73 -36 93
-41 220 -55 94 -11 189 -14 292 -11 139 4 156 7 190 28 56 36 183 96 219 104
52 10 52 10 -16 -167 -12 -31 -30 -67 -40 -80 -10 -13 -31 -48 -46 -78 -16
-30 -42 -75 -58 -98 -25 -38 -27 -46 -15 -58 12 -12 26 -10 98 15 104 35 176
74 254 138 72 58 256 246 356 363 105 123 136 155 220 223 76 62 87 67 250
103 36 8 76 18 90 23 14 5 66 22 115 36 341 102 497 162 681 262 127 69 154
86 239 150 113 86 181 174 255 329 91 192 102 476 30 775 -37 151 -133 395
-290 734 -18 39 -44 99 -57 135 -14 36 -31 79 -38 95 -7 17 -25 71 -40 120
-53 182 -86 251 -153 326 -55 62 -109 83 -197 77 l-66 -4 -37 45 c-20 25 -47
68 -60 95 -25 52 -69 227 -76 300 -30 315 -44 406 -77 514 -24 80 -24 102 5
192 59 186 196 447 323 615 89 119 264 294 348 348 73 48 130 89 137 101 13
20 8 101 -7 123 -9 12 -39 28 -69 37 -67 20 -169 65 -244 109 -123 71 -311
142 -501 189 -62 15 -135 -10 -207 -68 -60 -49 -78 -52 -47 -7 29 42 33 58 22
97 -9 32 -13 36 -42 35 -18 -1 -40 -3 -51 -6z m-3909 -919 c82 -42 162 -86
178 -97 39 -26 95 -79 95 -89 0 -12 -57 14 -120 54 -30 20 -114 65 -186 101
-120 60 -153 85 -137 101 11 11 22 7 170 -70z m66 -1795 c-26 -46 -135 -133
-228 -184 -97 -52 -295 -131 -350 -140 -35 -5 -29 0 45 36 266 131 321 161
423 235 62 45 116 82 120 83 5 1 0 -13 -10 -30z m-1093 -448 c0 -13 -21 -19
-110 -31 -41 -6 -111 -17 -154 -25 -96 -18 -717 -21 -916 -4 -69 6 -192 14
-274 17 -99 5 -151 11 -153 19 -7 20 47 23 197 13 80 -5 222 -14 315 -21 243
-16 753 -5 905 20 131 22 190 25 190 12z m2755 -129 c65 -9 65 -28 -1 -52
-131 -46 -372 -249 -456 -385 -57 -91 -121 -221 -151 -307 -34 -96 -77 -284
-77 -336 0 -60 -15 -67 -144 -67 -221 0 -356 19 -521 74 -225 73 -407 104
-628 104 l-177 1 39 40 c21 23 52 60 68 82 264 382 262 379 393 457 25 15 60
40 79 57 33 29 56 39 49 21 -1 -5 -21 -24 -43 -43 -107 -89 -255 -242 -317
-326 -72 -97 -137 -216 -125 -229 24 -23 291 -30 342 -9 39 17 41 26 20 85 -8
22 -19 68 -25 101 -10 57 -10 63 12 90 13 16 31 40 41 54 14 21 26 26 59 26
39 0 47 -5 154 -114 62 -63 130 -136 150 -163 20 -26 43 -55 50 -63 8 -8 24
-27 35 -42 29 -39 47 -35 69 18 41 94 14 198 -89 344 -37 52 -84 124 -105 158
-38 63 -38 64 -19 83 21 21 171 109 186 109 5 0 26 10 46 22 124 77 465 184
661 208 81 9 357 11 425 2z m-2635 -38 c0 -4 -5 -24 -11 -45 -10 -32 -9 -42 5
-64 34 -52 87 -65 298 -74 186 -8 196 -9 268 -40 177 -77 186 -85 128 -121
-44 -27 -88 -19 -198 33 l-84 40 -166 -1 c-202 -3 -685 -20 -760 -28 -182 -18
-387 -47 -423 -58 -62 -21 -127 -30 -127 -17 0 5 5 13 10 16 15 10 12 121 -6
193 -9 35 -12 68 -8 72 15 14 187 29 409 35 116 3 226 8 245 11 19 4 73 10
120 15 47 5 121 15 165 23 91 16 135 19 135 10z m-1403 -60 c18 -2 46 -16 62
-30 24 -20 31 -35 37 -82 6 -53 12 -62 72 -125 36 -37 76 -70 89 -73 29 -8 29
-22 1 -33 -13 -5 -48 -19 -78 -31 -30 -11 -64 -25 -75 -29 -11 -5 -40 -17 -65
-27 -25 -10 -77 -39 -117 -66 -40 -26 -77 -48 -83 -48 -7 0 -8 22 -4 65 8 72
7 75 -81 285 -53 125 -71 183 -62 197 5 9 250 6 304 -3z m4623 -74 c102 -16
281 -94 447 -193 122 -73 122 -74 -4 -75 -95 0 -115 -3 -165 -27 -74 -34 -130
-98 -157 -178 -28 -81 -27 -113 1 -121 27 -7 91 22 145 66 61 49 152 88 206
88 54 0 144 -29 196 -63 20 -13 60 -32 89 -41 49 -17 55 -22 92 -89 22 -40 47
-92 56 -117 9 -25 24 -61 33 -80 16 -32 33 -97 76 -300 10 -48 17 -143 19
-258 4 -178 4 -183 -17 -195 -16 -9 -98 -11 -316 -10 -231 2 -306 0 -350 -12
-30 -8 -57 -12 -60 -10 -2 3 -5 31 -6 62 -2 82 -61 194 -120 228 -23 14 -49
25 -58 25 -28 0 -31 -46 -7 -110 20 -54 21 -65 10 -106 -15 -52 -32 -64 -93
-64 -33 0 -54 7 -85 29 -22 16 -43 34 -46 40 -4 5 -27 24 -53 41 -32 22 -49
28 -56 21 -15 -15 -9 -88 10 -125 28 -54 129 -161 176 -184 99 -49 245 -13
294 74 26 45 39 49 56 15 7 -14 26 -33 43 -43 29 -17 62 -19 413 -19 209 0
383 -4 385 -8 3 -5 -3 -16 -14 -26 -26 -23 -26 -57 0 -73 28 -17 25 -30 -7
-38 -16 -4 -32 -10 -38 -14 -5 -4 -50 -19 -100 -34 -49 -15 -127 -38 -173 -52
-140 -44 -194 -53 -297 -54 -122 0 -242 27 -324 72 -103 57 -124 12 -36 -77
88 -88 185 -129 355 -149 71 -8 138 -11 175 -6 33 4 64 5 68 3 10 -6 -24 -61
-66 -109 -57 -65 -185 -163 -258 -199 -39 -19 -77 -39 -83 -43 -6 -5 -56 -24
-110 -42 -98 -32 -100 -33 -229 -26 -266 15 -430 67 -611 194 -65 45 -60 54
25 50 41 -3 118 -1 172 4 86 7 108 13 169 45 96 50 239 191 275 270 36 79 42
142 14 167 -20 19 -21 18 -93 -56 -90 -92 -134 -126 -218 -165 -101 -47 -183
-64 -332 -67 -107 -3 -148 1 -208 16 -41 11 -83 24 -92 29 -10 5 -25 9 -34 9
-27 0 -187 71 -214 95 -14 12 -33 25 -43 29 -37 12 -10 31 54 37 79 8 99 16
99 40 0 39 -23 69 -67 85 -43 17 -55 42 -17 36 63 -9 355 0 404 12 30 8 89 20
130 26 41 7 114 28 162 46 158 60 172 73 121 114 -26 20 -36 22 -118 17 -49
-3 -160 -19 -245 -36 -210 -40 -272 -45 -366 -31 -182 28 -236 88 -256 289
-12 118 -5 147 39 157 84 18 79 10 86 167 4 78 13 167 20 197 63 250 138 396
279 540 53 55 126 120 134 120 4 0 22 11 39 25 34 26 61 37 215 91 160 56 324
75 460 54z m-3085 -415 c66 -8 170 -27 230 -43 110 -28 110 -28 113 -60 2 -20
-7 -55 -23 -90 -50 -106 -56 -132 -44 -169 6 -19 9 -37 6 -40 -3 -3 -34 -11
-69 -19 -70 -14 -226 -83 -247 -108 -7 -9 -19 -16 -25 -16 -17 0 -207 -184
-248 -240 -102 -138 -160 -226 -202 -308 -25 -51 -50 -100 -55 -110 -27 -54
-91 -211 -103 -254 -6 -20 -18 -44 -27 -52 -18 -16 -119 -33 -446 -71 -104
-13 -483 -6 -585 10 -277 43 -503 118 -650 215 -25 17 -53 33 -62 36 -30 11
-30 40 3 135 34 100 132 324 153 349 7 8 25 38 41 65 60 106 174 252 285 366
63 66 123 119 132 119 9 0 43 -8 75 -17 71 -21 144 -23 167 -4 10 8 16 28 16
52 0 21 5 41 11 44 6 4 61 18 122 31 62 13 141 30 177 38 221 51 336 75 420
90 52 9 115 21 140 26 25 5 97 14 160 20 63 7 122 13 130 15 46 9 302 3 405
-10z m-3570 -581 c17 -49 37 -101 45 -115 9 -13 29 -55 45 -94 15 -38 34 -77
40 -85 7 -8 27 -42 46 -75 18 -33 53 -89 78 -125 25 -36 51 -75 58 -88 17 -33
88 -116 170 -203 47 -49 73 -85 73 -99 0 -42 -212 -273 -315 -342 -33 -23 -69
-49 -80 -58 -11 -10 -42 -30 -70 -45 -27 -15 -60 -36 -74 -46 -13 -10 -30 -19
-37 -19 -8 0 -14 -4 -14 -10 0 -5 -8 -10 -17 -10 -10 0 -40 -11 -68 -25 -27
-13 -55 -25 -62 -25 -7 0 -27 -6 -45 -14 -30 -12 -97 -32 -226 -66 -61 -16
-211 -40 -251 -40 -37 0 -71 23 -71 48 0 13 -98 226 -132 286 -13 24 -60 295
-78 449 -8 66 -11 152 -7 224 6 110 8 119 48 197 67 132 137 224 262 348 102
100 124 117 155 121 20 2 141 3 267 3 l230 -1 30 -91z m-2375 -759 c338 -11
387 -16 409 -39 19 -20 21 -40 27 -413 3 -216 3 -404 0 -418 -6 -22 -12 -25
-50 -25 -27 0 -52 -7 -65 -17 -21 -17 -22 -31 -36 -393 -8 -206 -17 -501 -19
-655 -7 -372 -16 -548 -30 -557 -6 -4 -27 -5 -46 -3 -19 3 -193 7 -386 9 -225
2 -358 7 -371 14 -17 9 -21 26 -28 104 -4 51 -7 102 -7 113 0 11 -4 85 -9 165
-6 80 -14 537 -19 1015 -5 479 -12 916 -16 972 l-7 101 39 11 c21 5 77 14 124
19 81 9 135 9 490 -3z m1290 -360 c6 -38 22 -110 36 -160 14 -49 31 -110 38
-135 7 -25 18 -54 24 -65 23 -41 42 -99 35 -106 -5 -5 -28 -3 -51 3 -48 12
-71 38 -78 90 -3 18 -12 60 -22 93 -16 61 -28 298 -17 344 9 37 23 13 35 -64z
m-615 -33 c47 -124 141 -297 189 -344 32 -32 45 -53 39 -59 -6 -6 -37 -14 -69
-18 -32 -5 -89 -19 -126 -32 -37 -13 -69 -21 -72 -19 -2 3 -7 82 -11 175 -3
94 -8 213 -10 265 -2 51 -1 98 2 103 9 15 40 -23 58 -71z m2635 4 c317 -122
468 -152 793 -162 140 -4 248 -3 317 5 132 15 323 39 373 47 20 3 37 4 37 0 0
-14 -265 -269 -355 -342 -55 -45 -109 -91 -120 -104 -11 -12 -49 -41 -85 -64
-36 -24 -87 -59 -113 -79 -27 -20 -53 -37 -59 -37 -5 0 -40 -18 -76 -39 -72
-42 -254 -116 -367 -149 -99 -30 -369 -78 -655 -118 -180 -25 -512 -25 -640 0
-181 35 -317 100 -433 206 -68 63 -127 154 -110 171 5 5 62 13 128 18 168 14
444 48 480 60 17 5 63 25 102 45 40 19 84 38 98 42 14 3 25 10 25 15 0 5 4 9
8 9 10 0 186 114 227 148 60 48 220 199 288 270 38 39 77 72 86 72 9 -1 32 -7
51 -14z m1820 -8 c0 -72 -270 -390 -410 -484 -19 -13 -62 -44 -95 -68 -33 -25
-70 -50 -83 -56 -13 -5 -38 -21 -56 -35 -18 -14 -38 -25 -44 -25 -6 0 -12 -5
-14 -11 -2 -7 -10 -10 -17 -8 -9 3 5 19 35 42 283 214 434 358 583 560 66 88
101 118 101 85z m-9 -430 c2 -275 46 -673 100 -915 5 -23 9 -54 9 -70 0 -28
30 -152 45 -185 6 -15 2 -18 -18 -18 -14 0 -28 4 -32 9 -6 11 -95 53 -151 71
-21 7 -48 19 -59 26 -11 6 -60 24 -110 38 -49 15 -126 37 -170 50 -165 50
-288 69 -560 87 -398 26 -831 -55 -1215 -228 -179 -81 -287 -152 -315 -208
-31 -63 -86 -125 -124 -141 -18 -8 -65 -14 -103 -14 -67 0 -74 2 -233 85 -91
46 -198 93 -238 104 -149 41 -376 91 -477 106 -58 9 -127 20 -155 25 -27 5
-95 15 -150 21 -58 7 -107 18 -117 26 -24 21 -31 82 -18 151 10 49 21 69 57
109 76 83 120 145 159 228 57 120 58 224 2 333 -21 42 -24 92 -5 92 15 0 34
-21 108 -124 84 -118 202 -235 284 -283 137 -79 283 -142 485 -209 113 -37
210 -71 216 -75 18 -14 618 -22 763 -10 308 25 592 89 767 172 34 16 66 29 71
29 24 0 194 98 208 120 3 5 13 10 21 10 9 0 30 11 47 24 18 13 82 50 142 81
112 59 316 193 370 243 17 15 55 47 85 72 30 25 106 96 169 158 63 61 121 112
128 112 10 0 13 -25 14 -102z m-3548 -230 c33 -21 40 -29 133 -160 47 -66 70
-88 157 -145 56 -38 123 -79 150 -93 49 -26 59 -40 30 -40 -25 0 -158 51 -218
83 -27 15 -55 27 -61 27 -15 0 -105 62 -167 114 -61 52 -145 164 -153 204 -6
28 -4 31 22 35 41 6 71 -1 107 -25z m-512 -35 c12 -27 28 -82 37 -124 13 -64
14 -84 3 -130 -18 -78 -42 -124 -66 -124 -19 0 -20 6 -17 166 3 140 1 172 -13
199 -13 24 -14 35 -4 46 21 25 39 15 60 -33z m2762 -824 c-6 -6 -73 -23 -149
-39 -128 -26 -234 -59 -389 -123 -111 -45 -290 -128 -335 -154 -90 -53 -293
-153 -299 -147 -18 18 180 169 324 249 207 114 575 213 825 224 24 1 31 -2 23
-10z m3256 -69 c10 -5 30 -32 45 -59 39 -76 120 -193 174 -253 27 -29 69 -78
93 -108 25 -30 79 -91 121 -135 41 -44 88 -96 104 -115 16 -19 43 -50 61 -69
17 -19 29 -39 27 -43 -9 -14 -139 60 -201 115 -75 65 -205 200 -246 255 -18
24 -47 62 -65 85 -19 22 -50 73 -69 112 -19 38 -46 84 -59 102 -29 39 -34 123
-7 123 3 0 12 -4 22 -10z m282 -41 l69 -12 102 -126 c56 -69 120 -146 142
-171 23 -25 57 -65 76 -89 66 -84 150 -177 269 -300 78 -80 93 -101 71 -101
-15 0 -88 38 -137 71 -23 16 -46 29 -50 29 -14 0 -169 128 -249 206 -140 135
-414 464 -414 496 0 11 40 10 121 -3z m387 -71 c14 -7 37 -32 50 -56 13 -23
45 -66 71 -95 63 -68 263 -333 285 -374 16 -33 16 -33 -6 -33 -27 0 -225 200
-346 350 -42 52 -100 121 -129 152 -29 32 -53 63 -53 69 0 15 89 5 128 -13z
m-5178 -634 c14 -37 12 -104 -6 -192 -22 -110 -21 -109 -69 -142 -38 -26 -53
-30 -109 -30 -55 0 -67 3 -76 20 -30 56 35 185 154 308 66 67 91 76 106 36z
m7154 -36 c-59 -99 -183 -178 -404 -256 -104 -37 -238 -72 -276 -72 -39 0 -4
20 84 49 163 53 408 169 522 246 68 45 86 54 74 33z"/>
<path d="M9230 4986 c-89 -22 -175 -107 -208 -205 -17 -50 -15 -100 4 -108 24
-9 46 8 73 58 31 56 76 96 121 109 66 19 199 12 275 -15 60 -20 72 -22 84 -9
11 10 13 20 5 40 -7 20 -35 39 -114 79 -114 58 -167 69 -240 51z"/>
<path d="M9220 4283 c-36 -14 -50 -37 -50 -80 0 -61 40 -103 99 -103 34 0 44
5 65 33 35 45 34 86 -2 121 -29 26 -83 41 -112 29z"/>
<path d="M10316 4247 c-46 -39 -53 -75 -25 -129 38 -75 101 -82 147 -14 33 48
30 114 -6 149 -37 36 -70 34 -116 -6z"/>
<path d="M3225 6584 c-11 -3 -81 -16 -155 -30 -74 -14 -153 -34 -175 -43 -70
-30 -119 -50 -145 -57 -14 -3 -50 -25 -82 -48 -31 -22 -79 -57 -107 -76 -28
-19 -70 -50 -92 -67 -23 -18 -45 -33 -49 -33 -21 0 -123 -121 -149 -176 -44
-92 -52 -130 -42 -215 12 -107 41 -154 118 -193 75 -38 257 -9 396 64 43 22
85 40 93 40 28 0 131 59 147 84 22 33 22 92 1 100 -8 3 -32 -1 -52 -10 -20 -8
-86 -27 -146 -41 -114 -27 -219 -28 -265 -3 -42 22 -17 105 61 200 90 109 217
185 382 228 95 25 114 27 336 26 141 0 266 -5 313 -13 61 -10 81 -10 93 -1 17
15 19 92 3 123 -17 33 -61 77 -76 77 -8 0 -28 7 -46 17 -68 35 -284 63 -362
47z"/>
<path d="M562 4268 c-32 -41 -46 -87 -46 -158 -1 -103 15 -135 69 -135 l40 0
14 55 c27 112 -31 294 -77 238z"/>
<path d="M585 3875 c-33 -8 -78 -14 -101 -14 -22 -1 -49 -7 -59 -15 -18 -13
-18 -17 -5 -40 20 -39 73 -49 266 -50 166 -1 171 0 207 24 20 14 37 30 37 36
0 17 -42 50 -79 63 -45 15 -191 13 -266 -4z"/>
<path d="M6346 1044 c-9 -8 -30 -36 -48 -62 -80 -116 -136 -183 -261 -310 -74
-76 -156 -153 -182 -172 -26 -19 -82 -64 -124 -100 -43 -36 -123 -94 -179
-130 -108 -68 -123 -89 -106 -138 5 -15 27 -39 50 -55 38 -26 48 -28 164 -33
103 -4 129 -8 158 -26 32 -20 43 -20 180 -15 205 8 358 47 552 140 150 71 341
202 474 324 67 62 69 63 126 63 32 0 77 -7 101 -16 24 -8 88 -22 142 -30 88
-14 107 -13 173 0 76 16 193 71 248 117 99 84 91 71 91 146 0 145 -66 181
-383 213 -111 11 -189 37 -234 78 -29 26 -48 23 -48 -9 0 -49 65 -131 133
-166 18 -9 82 -33 142 -53 155 -53 154 -64 -13 -120 -161 -54 -279 -43 -355
32 -28 28 -42 22 -85 -36 -55 -73 -122 -128 -276 -229 -10 -7 -36 -24 -57 -39
-21 -16 -42 -28 -45 -28 -3 0 -18 -8 -32 -19 -48 -33 -126 -73 -179 -92 -29
-11 -78 -28 -108 -39 -76 -26 -170 -44 -192 -35 -14 5 -6 12 36 31 29 13 70
39 91 57 132 115 261 216 298 234 37 17 58 52 49 77 -9 24 -28 20 -97 -19 -34
-19 -63 -35 -65 -35 -5 0 -138 -97 -236 -171 -41 -30 -99 -69 -129 -86 -67
-38 -194 -72 -301 -80 -68 -5 -79 -4 -79 10 0 8 15 25 33 36 17 11 44 31 58
44 14 14 40 32 58 42 18 9 65 44 105 77 39 33 86 70 104 81 18 11 66 62 105
114 183 240 197 264 197 350 0 54 -12 93 -30 93 -5 0 -16 -7 -24 -16z"/>
</g>
</svg>
