<?xml version="1.0" standalone="no"?>
<!DOCTYPE svg PUBLIC "-//W3C//DTD SVG 20010904//EN"
 "http://www.w3.org/TR/2001/REC-SVG-20010904/DTD/svg10.dtd">
<svg version="1.0" xmlns="http://www.w3.org/2000/svg"
 width="1149.000000pt" height="1009.000000pt" viewBox="0 0 1149.000000 1009.000000"
 preserveAspectRatio="xMidYMid meet">
<metadata>
Created by potrace 1.14, written by Peter Selinger 2001-2017
</metadata>
<g transform="translate(0.000000,1009.000000) scale(0.100000,-0.100000)"
fill="#000000" stroke="none">
<path d="M6845 10063 c-39 -3 -83 -8 -357 -38 -171 -20 -312 -48 -558 -112
-139 -37 -157 -42 -240 -74 -41 -16 -106 -38 -145 -50 -38 -12 -122 -48 -187
-80 -64 -33 -121 -59 -126 -59 -6 0 -18 -7 -27 -16 -13 -14 -15 -29 -9 -83 7
-74 22 -116 57 -163 20 -28 27 -57 41 -183 9 -82 30 -265 46 -405 17 -140 37
-324 46 -409 8 -84 19 -164 24 -176 8 -21 17 -23 113 -30 76 -5 133 -2 216 10
109 16 286 69 339 102 80 49 132 85 138 94 3 6 -4 21 -16 34 -35 37 -25 57 43
84 23 9 27 16 27 52 0 38 -3 42 -40 57 -23 10 -40 24 -40 33 0 21 58 46 140
59 36 6 146 32 245 57 200 51 288 61 363 43 53 -12 107 -56 143 -114 26 -42
24 -68 -6 -96 -29 -27 -30 -33 -12 -52 11 -10 41 -12 143 -6 155 9 277 41 367
97 46 28 97 95 97 126 0 51 23 47 108 -15 70 -51 83 -57 91 -43 6 11 4 31 -6
57 -8 23 -25 102 -39 176 -14 74 -34 160 -45 190 -29 77 -48 230 -49 395 -2
265 -29 475 -64 500 -27 20 -662 49 -821 38z m89 -168 c14 -14 23 -40 40 -116
3 -14 17 -43 32 -65 26 -37 26 -41 15 -99 -22 -117 -25 -245 -7 -313 9 -35 23
-73 31 -85 20 -29 19 -57 -5 -87 -25 -32 -25 -33 7 -70 l26 -32 -30 -30 c-32
-32 -79 -44 -328 -83 -55 -9 -154 -24 -220 -35 -269 -43 -274 -43 -301 -26
-30 20 -32 65 -5 115 21 40 19 52 -29 156 -23 50 -32 83 -31 115 1 25 1 63 1
85 0 22 0 64 1 93 0 30 -7 87 -16 128 -16 69 -16 77 0 128 17 54 17 55 -5 90
l-21 36 23 10 c35 15 234 60 264 60 15 0 54 5 88 10 65 12 264 26 383 29 53 1
76 -3 87 -14z m628 -14 c4 -3 10 -78 13 -166 5 -125 25 -493 38 -694 1 -13 -6
-28 -16 -35 -16 -9 -23 -6 -46 22 -16 18 -34 52 -40 75 -7 23 -22 52 -33 64
-16 17 -19 29 -14 55 13 63 18 158 12 202 -4 25 -23 70 -45 103 -21 32 -40 72
-44 88 -3 18 6 75 24 143 16 64 26 124 23 138 -6 24 -6 24 57 18 35 -4 67 -9
71 -13z"/>
<path d="M8159 8720 c-20 -5 -70 -22 -110 -38 -111 -44 -263 -89 -363 -107
-48 -9 -105 -22 -125 -30 -43 -17 -151 -47 -446 -125 -121 -31 -274 -72 -340
-89 -66 -18 -156 -41 -200 -51 -137 -31 -248 -60 -290 -75 -61 -22 -404 -75
-550 -85 -209 -14 -499 -3 -640 25 -192 38 -209 39 -228 20 -22 -22 -21 -43 2
-80 33 -51 54 -72 101 -97 54 -30 99 -42 253 -68 64 -10 121 -21 126 -24 8 -5
-1 -48 -33 -161 -15 -54 -37 -271 -34 -345 6 -216 67 -516 135 -668 78 -175
85 -185 138 -195 38 -7 115 22 180 68 28 19 73 51 102 70 28 20 54 42 57 50 3
8 12 15 20 15 17 0 136 129 136 147 0 38 -49 12 -175 -90 -61 -50 -152 -100
-167 -91 -17 11 -81 117 -99 166 -11 29 -31 98 -46 153 -24 92 -26 120 -30
345 -4 245 13 540 33 560 17 17 209 53 306 57 97 5 141 -6 200 -49 14 -10 20
-10 30 0 9 9 7 18 -11 43 -13 17 -19 34 -15 38 8 6 73 29 194 66 25 7 100 26
167 41 l123 27 33 -38 33 -38 64 57 c36 32 75 62 88 67 58 23 143 4 266 -58
67 -34 159 -39 164 -8 3 20 -55 77 -106 104 -19 10 -21 15 -11 27 6 8 20 14
31 14 10 0 78 20 151 44 186 61 427 119 544 131 l62 6 27 -41 c27 -41 66 -174
78 -265 l6 -50 -89 -88 c-50 -49 -100 -109 -115 -138 -30 -59 -31 -65 -11 -73
24 -9 61 10 128 65 173 144 238 93 241 -189 1 -108 -1 -122 -26 -175 -15 -32
-41 -75 -57 -95 -37 -48 -153 -219 -169 -253 -8 -14 -12 -41 -10 -60 3 -33 5
-34 41 -32 34 2 37 0 37 -25 0 -15 -7 -49 -16 -77 -24 -76 -43 -233 -49 -405
-3 -85 -10 -195 -16 -245 -8 -70 -7 -120 5 -228 20 -175 20 -249 -2 -312 -15
-44 -21 -50 -47 -52 -18 -2 -59 12 -105 35 -82 41 -84 45 -66 134 7 33 5 40
-20 64 -16 14 -69 46 -118 70 -100 50 -146 80 -146 96 0 6 35 49 78 95 119
130 171 207 204 301 18 52 17 72 -4 72 -6 0 -83 -73 -172 -162 -183 -184 -309
-292 -358 -307 -18 -5 -64 -21 -103 -36 -180 -67 -363 -88 -536 -61 -107 17
-235 59 -287 94 -15 11 -39 27 -54 36 -24 14 -28 23 -28 60 0 54 7 60 144 129
l109 55 46 -23 c172 -84 420 -65 656 50 132 65 158 87 263 224 98 127 130 186
118 216 -8 23 -17 19 -71 -31 -91 -85 -170 -150 -205 -172 -208 -127 -367
-176 -525 -163 -92 8 -143 26 -167 59 -34 49 -108 55 -186 16 -28 -14 -62 -38
-75 -53 -13 -16 -36 -37 -52 -47 -16 -10 -40 -29 -52 -40 -27 -25 -173 -81
-253 -96 -85 -17 -152 2 -338 93 -157 77 -202 90 -202 56 0 -7 43 -46 96 -87
53 -41 108 -85 123 -98 14 -12 47 -37 73 -55 27 -17 48 -35 48 -40 0 -11 -45
-26 -66 -21 -11 2 -109 13 -218 24 -110 11 -229 27 -265 35 -296 68 -255 74
-353 -49 -94 -118 -198 -311 -224 -414 -8 -35 -21 -77 -29 -95 -16 -39 -65
-271 -65 -309 0 -48 -21 -128 -38 -145 -16 -16 -17 -13 -24 33 -22 154 -26
211 -16 250 l10 42 -64 64 c-82 81 -97 125 -80 233 11 71 18 93 67 200 26 55
213 247 259 265 29 11 82 3 110 -16 21 -14 46 -8 46 11 0 18 -76 84 -116 101
-18 8 -52 14 -74 14 -23 0 -47 6 -54 13 -98 96 -268 236 -356 294 -36 23 -78
52 -95 63 -83 57 -117 76 -224 123 l-116 51 -250 0 c-245 1 -271 -1 -487 -40
-303 -54 -622 -248 -773 -471 -20 -29 -40 -55 -45 -58 -6 -4 -17 -20 -25 -36
-12 -22 -13 -34 -5 -50 15 -28 27 -23 101 43 111 98 168 144 196 158 16 8 42
24 58 35 68 49 166 95 265 125 58 17 119 36 135 41 61 18 313 49 402 49 112 0
294 -29 473 -76 145 -38 344 -127 451 -200 155 -107 198 -140 199 -150 0 -6
-41 -57 -90 -114 -50 -57 -103 -130 -118 -161 -15 -32 -33 -60 -39 -63 -7 -3
-32 13 -55 35 -80 74 -246 139 -438 169 -316 51 -563 148 -610 240 -22 42 -26
75 -11 85 6 3 47 -4 93 -14 282 -68 538 -93 602 -59 19 10 19 11 1 24 -10 8
-33 14 -49 14 -17 0 -47 5 -66 10 -19 5 -62 14 -95 19 -179 27 -298 56 -413
99 -51 18 -57 19 -113 4 -46 -13 -66 -14 -88 -5 -45 17 -54 3 -66 -99 l-10
-93 -90 -6 c-56 -4 -118 -15 -165 -31 -61 -21 -328 -130 -415 -170 -11 -5 -38
-41 -59 -81 -22 -40 -58 -103 -81 -142 -43 -72 -155 -296 -155 -310 0 -5 -6
-16 -13 -24 -20 -23 -53 -123 -77 -228 -21 -97 -25 -225 -11 -338 9 -68 7 -74
-58 -160 -74 -97 -80 -108 -110 -207 -16 -55 -18 -80 -12 -150 10 -102 30
-144 108 -221 171 -169 246 -205 406 -193 50 3 114 13 142 22 87 28 130 10
203 -83 36 -46 39 -80 7 -75 -62 11 -197 13 -263 3 -104 -16 -236 -59 -357
-117 -92 -44 -109 -56 -217 -166 -65 -66 -118 -124 -118 -129 0 -6 -19 -38
-43 -72 -48 -69 -110 -192 -155 -307 -35 -91 -44 -119 -73 -238 -27 -114 -32
-118 -193 -163 -86 -23 -128 -40 -151 -61 -31 -27 -33 -32 -45 -145 -11 -94
-11 -166 -1 -358 6 -132 16 -271 21 -310 5 -38 14 -169 20 -290 5 -121 12
-230 15 -242 6 -25 46 -40 138 -50 113 -12 115 -49 5 -133 -67 -52 -224 -213
-257 -265 -9 -13 -52 -75 -97 -137 -44 -62 -88 -124 -97 -138 -9 -14 -30 -45
-48 -69 -22 -32 -32 -59 -36 -100 -3 -31 -12 -67 -20 -80 l-15 -24 -173 6
c-159 6 -177 5 -219 -13 l-46 -19 0 -54 c0 -40 6 -61 21 -81 40 -51 71 -59
240 -64 151 -4 264 4 582 43 124 16 267 58 267 80 0 43 -94 75 -250 86 -221
15 -250 19 -250 39 0 14 57 114 149 261 38 62 73 111 89 127 9 10 46 54 81 97
57 71 174 198 224 244 15 14 43 15 200 13 206 -4 200 -3 283 -44 79 -39 163
-47 235 -24 68 23 97 43 214 153 54 51 125 106 158 124 54 29 71 32 155 35 63
1 99 7 108 16 8 7 19 40 25 73 16 88 30 105 86 105 41 0 50 -4 83 -41 37 -39
39 -40 100 -37 91 4 101 20 109 180 8 133 18 164 57 174 48 12 173 -7 271 -42
243 -87 508 -290 686 -524 155 -205 299 -575 322 -831 2 -21 15 -55 29 -77 20
-33 33 -41 65 -47 48 -8 95 1 112 21 15 19 4 213 -17 299 -9 33 -20 79 -25
103 -36 173 -159 448 -255 572 -82 106 -128 163 -172 211 -66 72 -262 218
-363 271 -47 25 -99 55 -115 67 -35 25 -107 46 -196 56 -104 11 -160 45 -173
106 -6 25 2 39 53 101 33 40 79 93 102 118 123 130 250 298 250 330 0 6 4 10
10 10 8 0 71 -49 95 -76 32 -35 138 -96 255 -147 147 -64 450 -116 702 -120
145 -2 161 4 198 79 46 94 66 114 113 114 35 -1 51 -8 102 -50 106 -88 195
-148 279 -189 114 -55 169 -72 258 -78 103 -8 188 11 259 56 31 20 75 47 97
61 312 187 447 321 482 475 14 63 5 73 -52 56 -58 -18 -198 -16 -283 3 -38 9
-137 30 -220 47 -128 26 -153 34 -174 56 -20 23 -22 33 -17 76 4 28 16 67 26
87 60 118 71 187 46 292 -14 60 -77 152 -100 145 -9 -2 -55 -78 -83 -137 -13
-29 -120 -128 -174 -163 -30 -19 -94 -56 -144 -82 -49 -27 -108 -60 -130 -73
-22 -14 -74 -42 -116 -63 -75 -37 -76 -37 -155 -28 -114 12 -204 35 -239 59
-5 4 -34 15 -62 24 -29 10 -56 22 -59 28 -4 5 -21 16 -38 24 -17 8 -49 25 -71
39 -22 14 -47 28 -55 32 -8 4 -47 29 -86 55 -39 26 -75 48 -81 48 -19 0 -53
46 -59 80 -17 88 -77 162 -206 253 -29 21 -69 51 -88 68 l-35 30 28 23 c15 12
58 37 95 56 199 100 272 149 314 210 10 14 31 44 48 67 28 40 101 188 129 263
56 151 95 309 118 488 6 48 13 50 71 22 22 -11 46 -20 52 -20 7 0 24 -7 38
-15 24 -13 111 -32 247 -56 115 -19 264 -31 340 -26 192 12 695 15 695 5 0 -6
-36 -48 -80 -95 -138 -146 -192 -238 -192 -333 -1 -57 69 -285 113 -372 24
-46 120 -148 141 -148 7 0 26 -7 42 -15 24 -13 39 -13 89 -5 92 17 161 69 229
173 17 26 34 47 38 47 3 0 28 -21 56 -46 27 -26 58 -51 69 -56 41 -20 81 -44
118 -72 110 -84 325 -69 500 33 90 53 128 60 156 30 12 -13 26 -41 32 -64 20
-73 42 -130 57 -147 18 -21 57 -24 69 -5 15 25 66 57 106 68 22 6 89 19 148
29 59 10 125 28 147 39 23 12 48 18 57 15 33 -13 9 -49 -75 -116 -84 -67 -293
-269 -338 -324 -12 -16 -39 -54 -59 -84 -20 -30 -45 -64 -54 -75 -9 -11 -43
-67 -75 -125 -31 -58 -69 -123 -84 -145 -15 -22 -31 -51 -35 -65 -4 -14 -26
-74 -49 -135 -49 -127 -86 -237 -86 -256 -1 -8 -9 -32 -20 -54 -11 -22 -19
-47 -20 -55 0 -8 -11 -59 -24 -115 -64 -265 -71 -344 -71 -805 0 -346 3 -418
18 -496 27 -141 50 -199 120 -307 34 -52 40 -57 73 -57 29 0 44 8 77 40 l40
40 -7 63 c-4 34 -12 100 -17 147 -5 47 -12 236 -15 420 -6 302 -4 354 15 530
23 205 79 524 111 625 10 33 32 110 50 170 17 61 39 128 49 150 10 22 29 67
42 100 31 83 65 148 121 234 26 41 48 76 48 78 0 3 34 62 75 132 45 77 97 150
134 187 65 67 91 110 100 164 l6 35 166 19 c246 28 256 24 275 -145 7 -63 18
-186 23 -274 20 -318 32 -468 36 -476 3 -4 6 -38 6 -76 1 -61 -4 -80 -35 -144
-61 -127 -141 -351 -156 -439 -4 -25 -15 -79 -25 -120 -9 -41 -21 -104 -25
-140 -5 -36 -14 -94 -19 -130 -6 -36 -15 -162 -20 -280 -10 -225 -4 -392 25
-659 14 -128 20 -156 60 -253 24 -60 44 -119 44 -133 0 -26 -20 -50 -50 -60
-27 -9 -26 -41 3 -49 74 -20 199 8 262 58 l28 23 -21 204 c-37 346 -53 548
-56 735 -4 263 27 587 60 623 18 20 20 5 39 -239 8 -113 20 -241 25 -285 5
-44 14 -129 20 -190 6 -60 19 -202 30 -315 11 -113 31 -277 45 -365 15 -88 28
-174 31 -191 5 -37 78 -110 119 -120 49 -12 155 12 187 43 52 50 63 110 50
280 -18 231 -42 488 -68 733 -14 124 -27 252 -30 285 -3 33 -14 139 -24 235
-10 96 -26 249 -35 340 -9 91 -20 194 -25 230 -5 36 -12 110 -15 165 -4 55
-12 195 -20 310 l-13 210 25 65 c14 36 44 99 66 140 60 111 77 147 77 165 0 9
6 28 14 43 7 15 16 59 20 98 10 107 -6 129 -57 76 -30 -32 -92 -131 -103 -165
-3 -12 -15 -39 -26 -60 -25 -49 -42 -37 -54 36 -11 73 -8 244 5 292 12 44 15
46 216 106 90 26 211 73 300 115 77 37 135 52 135 36 0 -12 149 -213 194 -262
18 -19 44 -51 59 -72 51 -69 468 -495 558 -569 24 -20 69 -49 99 -66 30 -17
89 -49 131 -72 100 -54 169 -115 169 -148 0 -13 -15 -43 -34 -66 -59 -73 -282
-444 -375 -622 -23 -45 -20 -214 5 -256 20 -34 32 -43 75 -58 l26 -9 -38 -164
c-21 -90 -43 -197 -49 -238 -6 -41 -17 -118 -25 -170 -18 -119 -42 -313 -54
-450 -6 -58 -19 -177 -30 -265 -11 -88 -22 -185 -26 -217 -4 -35 -12 -58 -21
-62 -7 -3 -84 -11 -169 -17 l-154 -12 -38 26 c-63 42 -129 60 -228 60 -82 0
-97 -4 -169 -37 -43 -20 -95 -40 -115 -45 -20 -5 -73 -19 -118 -30 -87 -23
-305 -49 -468 -57 -55 -3 -156 -11 -225 -19 -69 -8 -159 -14 -200 -14 -41 0
-87 -4 -103 -10 -24 -9 -27 -16 -27 -55 0 -28 7 -52 19 -67 19 -24 22 -24 298
-32 495 -15 678 11 948 135 157 72 242 104 251 95 3 -2 9 -30 14 -62 5 -31 14
-63 21 -71 6 -7 36 -23 67 -36 52 -20 72 -22 215 -19 183 2 263 21 324 74 69
60 78 103 88 409 3 87 7 163 10 170 2 7 14 99 25 203 12 105 25 208 30 230 5
22 21 114 35 205 14 91 32 206 40 255 22 134 35 343 25 395 -6 34 -18 54 -49
81 -23 20 -41 43 -41 52 0 14 67 164 111 250 10 21 19 44 19 51 0 7 11 30 25
50 14 20 25 41 25 46 0 5 32 55 71 112 39 57 87 128 107 160 21 31 44 58 52
61 9 2 40 0 70 -4 30 -4 81 -8 112 -8 49 -1 62 3 88 27 l31 27 1 285 c1 157 7
391 13 520 20 416 8 817 -30 1015 -8 39 -21 138 -30 220 -36 323 -80 526 -173
800 -71 207 -191 474 -268 595 -22 36 -54 90 -70 120 -16 30 -39 69 -51 86
-13 17 -23 34 -23 38 0 6 -75 104 -109 141 -10 11 -33 40 -52 65 -160 211
-437 474 -660 625 -287 195 -467 288 -740 381 -130 44 -139 45 -309 55 -99 5
-194 16 -219 24 -109 36 -191 140 -191 242 0 81 48 134 152 171 92 32 169 83
208 137 31 44 35 57 38 125 6 136 -39 168 -243 175 -60 3 -126 0 -146 -5z
m-5209 -2463 c92 -88 192 -144 355 -200 l120 -41 180 -1 c150 0 186 -3 215
-18 43 -21 106 -93 149 -169 18 -31 39 -62 46 -68 30 -25 15 -39 -69 -64 -101
-31 -178 -84 -207 -143 -16 -32 -27 -43 -52 -48 -31 -6 -158 -52 -224 -81 -38
-17 -113 -18 -150 -2 -15 7 -48 27 -72 45 -44 33 -44 33 -160 33 -103 0 -126
-4 -200 -30 -97 -34 -129 -56 -231 -160 -68 -69 -81 -78 -139 -94 -36 -9 -92
-19 -125 -22 -34 -2 -122 -9 -197 -14 -86 -7 -158 -18 -194 -30 -32 -11 -62
-20 -66 -20 -13 0 -31 109 -24 153 12 75 64 164 140 236 61 58 237 172 370
241 17 8 65 40 108 70 113 79 103 99 -40 74 -83 -14 -273 -71 -320 -96 -13 -6
-25 -9 -28 -6 -12 11 7 35 43 53 20 10 44 24 52 31 8 6 67 33 130 59 366 153
430 184 430 211 0 26 -45 34 -132 23 -46 -6 -101 -14 -123 -19 -57 -13 -87
-12 -83 3 5 16 66 49 244 134 30 14 105 30 154 32 18 1 45 -19 100 -72z m4337
-376 c-2 -124 6 -143 71 -158 36 -9 37 -10 45 -72 5 -34 7 -64 4 -67 -2 -2
-31 -8 -63 -12 -49 -6 -59 -10 -62 -28 -2 -16 8 -25 48 -44 28 -13 55 -29 61
-36 14 -17 167 -66 181 -58 5 4 14 1 18 -6 8 -12 265 -79 308 -80 38 0 72 43
72 90 0 53 20 49 40 -8 11 -31 12 -47 4 -60 -13 -21 -94 -49 -195 -67 -42 -7
-93 -21 -112 -30 -39 -18 -110 -13 -159 11 -15 8 -38 14 -52 14 -14 0 -28 5
-31 10 -4 6 -25 20 -48 31 -44 23 -199 149 -221 180 -7 10 -40 48 -74 83 -34
36 -71 84 -82 107 -12 23 -30 51 -40 62 -11 11 -24 33 -29 49 -9 26 -8 30 17
41 15 6 51 29 81 50 52 38 184 106 208 107 8 0 11 -30 10 -109z m1578 -241
c96 -31 99 -33 185 -118 72 -73 94 -103 133 -182 59 -119 86 -236 94 -405 7
-150 5 -155 -76 -163 -40 -3 -54 0 -79 18 -43 32 -50 56 -78 264 -5 38 -19 65
-64 125 -82 108 -119 145 -203 200 -85 57 -127 76 -185 86 -51 8 -146 -10
-191 -38 -19 -11 -54 -24 -78 -27 -42 -7 -43 -6 -43 21 0 15 15 55 33 90 82
159 299 210 552 129z m-4741 -120 c55 -33 80 -92 84 -196 4 -76 1 -101 -18
-152 -21 -57 -24 -61 -61 -67 -95 -16 -198 32 -242 114 -49 89 -29 231 41 292
29 26 40 29 99 29 48 0 74 -5 97 -20z m-972 -215 c43 -22 96 -72 115 -109 9
-17 16 -56 16 -90 0 -103 -49 -189 -135 -232 -42 -21 -59 -24 -98 -19 -62 8
-148 61 -183 112 -27 37 -29 48 -30 135 -1 137 31 197 118 219 45 12 159 2
197 -16z m606 -118 c20 -16 10 -60 -32 -146 -50 -102 -48 -161 5 -161 5 0 21
14 36 30 34 39 87 41 141 5 47 -31 89 -33 207 -13 50 9 93 13 97 10 3 -4 3
-60 -2 -124 -8 -110 -19 -164 -70 -320 -37 -114 -132 -247 -230 -320 -48 -35
-246 -138 -268 -138 -9 0 -61 -16 -116 -35 -163 -57 -310 -66 -459 -28 -60 15
-120 46 -197 102 -52 37 -55 38 -75 7 -15 -23 -15 -27 5 -65 11 -23 24 -41 29
-41 4 0 19 -15 32 -34 59 -83 209 -177 333 -210 44 -12 81 -26 83 -32 6 -19
-108 -55 -189 -61 -65 -5 -88 -2 -140 17 -35 12 -72 30 -83 40 -30 25 -52 31
-65 14 -19 -22 11 -60 118 -152 45 -39 19 -122 -43 -138 -39 -10 -52 1 -87 68
-29 58 -32 71 -35 176 -4 173 -52 309 -156 452 -54 74 -222 235 -266 257 -29
13 -78 18 -236 23 -232 7 -257 14 -311 93 -61 88 -72 246 -24 342 20 40 35 55
73 74 44 22 54 23 100 14 29 -6 90 -24 136 -42 107 -40 160 -41 201 -3 45 41
44 71 -5 97 -55 29 -52 48 10 58 28 4 79 17 114 28 120 36 197 17 221 -56 22
-67 76 -137 156 -202 115 -95 125 -98 273 -97 114 0 133 3 201 29 58 22 87 40
125 80 52 53 56 63 117 265 24 80 59 137 92 151 27 11 167 0 184 -14z m3878
-142 c-9 -38 -21 -152 -28 -274 -11 -207 -9 -268 22 -491 9 -66 52 -196 90
-269 11 -22 20 -44 20 -50 0 -13 -67 -51 -120 -68 -43 -13 -186 -43 -223 -46
-13 -2 -27 20 -56 84 -21 47 -41 101 -44 120 -62 345 -71 449 -64 730 3 162 9
235 18 254 19 37 72 53 229 66 69 6 132 15 140 19 28 16 33 -8 16 -75z m-529
19 c20 -5 21 -11 17 -57 -3 -29 -10 -77 -16 -107 -13 -72 -19 -451 -8 -560 4
-47 14 -118 21 -158 15 -85 16 -84 -76 -130 -99 -50 -146 -62 -238 -63 -75 -1
-91 2 -129 23 -35 21 -60 26 -140 30 -98 5 -140 20 -118 42 17 17 11 62 -17
131 -25 62 -28 65 -60 65 -19 0 -66 -13 -105 -30 -38 -16 -76 -30 -84 -30 -27
0 -14 42 29 93 50 60 67 96 67 138 0 39 -19 45 -88 31 -74 -15 -109 -42 -171
-126 -56 -77 -125 -141 -141 -131 -6 3 -10 35 -10 70 0 53 6 74 36 132 19 38
45 81 57 95 12 14 47 64 77 110 57 89 84 112 255 226 104 70 264 147 346 167
35 9 82 21 104 26 100 25 314 32 392 13z m-1036 -1021 c38 -19 49 -29 49 -48
0 -35 -34 -49 -114 -48 -77 1 -115 21 -127 65 -9 33 0 47 37 57 42 12 99 3
155 -26z m2452 -258 c-3 -23 11 -274 28 -510 12 -172 37 -406 69 -655 26 -192
62 -495 95 -787 14 -122 29 -253 35 -291 5 -39 12 -103 15 -143 17 -226 39
-585 49 -811 5 -108 4 -128 -8 -128 -8 0 -17 4 -20 8 -2 4 -9 68 -15 142 -6
74 -17 191 -25 260 -9 69 -20 175 -26 235 -6 61 -15 146 -21 190 -9 78 -56
483 -85 740 -8 72 -21 202 -29 290 -9 88 -22 221 -30 295 -8 74 -22 216 -30
315 -8 99 -19 218 -25 265 -5 47 -14 139 -20 205 -6 66 -16 158 -21 205 -13
119 -12 187 4 194 6 2 23 4 37 3 19 -2 24 -7 23 -22z m-5107 -208 c-3 -13 -8
-49 -12 -80 -4 -32 -12 -61 -18 -65 -6 -3 -38 -5 -72 -3 -57 2 -63 1 -112 -38
-29 -23 -52 -45 -52 -50 0 -16 -59 -33 -87 -26 -77 18 -94 65 -44 116 27 26
35 29 99 29 l70 0 38 46 c40 50 117 92 168 93 24 1 27 -2 22 -22z m2221 -254
c-22 -72 -54 -132 -118 -221 -113 -158 -140 -208 -146 -273 -6 -62 10 -124 34
-133 33 -13 113 101 113 161 0 17 9 38 20 48 25 23 40 16 124 -56 32 -27 62
-49 67 -49 5 0 37 -14 71 -31 88 -42 276 -89 360 -89 48 0 68 -4 68 -12 0 -11
-99 -88 -113 -88 -3 0 -34 -13 -69 -29 -35 -16 -85 -38 -112 -50 -27 -12 -78
-39 -112 -61 -96 -60 -173 -83 -266 -78 -70 4 -88 10 -188 61 -61 31 -123 68
-138 82 -15 14 -31 25 -35 25 -5 0 -28 14 -52 30 -71 49 -172 90 -220 90 -67
0 -75 6 -75 57 0 46 22 99 49 120 9 7 72 40 141 75 68 34 140 76 160 94 20 18
63 43 96 55 32 12 80 37 105 55 41 30 181 182 202 220 12 21 41 18 34 -3z
m-3287 -573 c-6 -118 -3 -469 8 -825 5 -148 7 -276 4 -282 -9 -26 -92 -15
-170 23 -69 34 -199 141 -222 183 -21 41 -42 213 -41 351 1 150 28 354 58 435
8 22 22 67 32 100 l17 60 80 27 c63 22 95 27 159 25 l80 -2 -5 -95z m322 78
c19 -16 52 -103 72 -193 18 -83 39 -345 31 -401 -2 -21 -10 -136 -15 -254 -6
-118 -14 -218 -18 -221 -11 -10 -191 7 -205 20 -10 8 -16 61 -21 208 -4 109
-11 263 -16 343 -5 80 -12 215 -16 300 l-6 155 33 19 c58 34 134 45 161 24z
m-1549 -160 c-10 -79 -6 -277 12 -513 18 -243 12 -324 -36 -467 -16 -48 -29
-104 -29 -123 0 -36 -17 -56 -30 -34 -5 7 -7 16 -4 20 2 4 -1 29 -6 55 -7 37
-35 427 -43 609 0 11 0 104 1 206 l2 186 29 39 c49 65 60 74 86 74 25 0 26 -1
18 -52z m750 -955 c21 -37 75 -72 207 -133 52 -24 100 -48 107 -53 32 -23 -21
-53 -114 -64 -35 -4 -57 2 -129 36 -48 23 -93 40 -99 37 -16 -6 -25 -64 -25
-168 0 -48 -3 -89 -7 -91 -8 -4 -204 16 -333 34 -41 6 -93 19 -116 28 -97 43
-150 148 -126 252 7 28 12 72 12 98 0 26 2 50 4 52 2 2 138 4 302 4 l298 0 19
-32z"/>
<path d="M2035 4678 c-52 -18 -57 -27 -50 -82 8 -56 33 -85 73 -86 36 0 60 17
82 60 27 53 26 88 -2 99 -45 16 -74 19 -103 9z"/>
<path d="M3720 4652 c-182 -92 -270 -181 -270 -274 0 -35 39 -18 87 39 70 82
112 110 158 105 l37 -4 -7 -47 c-4 -25 -8 -59 -9 -76 -1 -28 1 -30 33 -28 39
2 80 38 130 119 51 79 36 170 -30 193 -44 15 -44 15 -129 -27z"/>
<path d="M7446 4203 c-15 -15 -36 -75 -36 -102 0 -56 57 -69 109 -25 39 33 43
86 9 108 -30 19 -72 29 -82 19z"/>
<path d="M7755 8219 c-35 -20 -75 -62 -75 -80 0 -9 11 -24 24 -33 13 -8 27
-29 31 -46 4 -17 13 -34 21 -37 19 -7 73 27 91 58 15 24 15 31 -3 85 -16 50
-23 59 -44 61 -14 2 -34 -2 -45 -8z"/>
<path d="M6726 7789 c-21 -17 -26 -28 -25 -62 1 -62 12 -90 40 -106 78 -44
124 59 72 162 -17 33 -49 36 -87 6z"/>
<path d="M5781 7651 c-21 -21 -41 -80 -41 -122 0 -36 36 -79 66 -79 66 0 122
152 74 200 -25 25 -74 26 -99 1z"/>
<path d="M6156 7333 c-39 -59 -47 -79 -52 -134 -5 -54 -3 -73 16 -117 13 -29
36 -62 52 -74 42 -29 119 -29 179 0 56 28 129 98 129 125 0 19 -6 19 -110 15
-61 -2 -113 -1 -116 3 -2 4 -9 56 -15 116 -14 147 -24 155 -83 66z"/>
<path d="M6600 7027 c0 -16 60 -73 120 -113 93 -63 234 -102 246 -69 8 19 -20
52 -50 61 -21 6 -117 63 -126 75 -3 3 -27 18 -55 33 -54 28 -135 36 -135 13z"/>
<path d="M5835 3715 c-73 -38 -102 -145 -75 -278 28 -135 173 -250 334 -263
80 -7 119 14 163 87 27 44 33 64 33 111 0 50 -6 67 -42 129 -62 104 -108 151
-182 188 -79 41 -181 52 -231 26z m212 -105 c43 -33 93 -136 93 -190 0 -59 -9
-70 -57 -77 -32 -4 -49 0 -84 22 -24 16 -46 32 -47 37 -2 5 -15 22 -28 37 -20
24 -24 40 -24 95 0 54 4 70 21 87 27 27 85 22 126 -11z"/>
<path d="M2453 1329 c-40 -12 -41 -29 -7 -74 l25 -34 -23 -14 c-13 -8 -34 -18
-48 -22 -28 -9 -102 -60 -240 -169 -52 -42 -122 -94 -155 -117 -59 -41 -89
-64 -163 -124 -20 -17 -48 -38 -62 -47 -14 -9 -77 -64 -140 -122 -100 -93
-245 -206 -265 -206 -3 0 -34 -13 -68 -29 -34 -15 -75 -31 -92 -35 -46 -11
-55 -24 -55 -75 0 -67 38 -103 114 -109 123 -10 182 21 257 133 31 47 108 143
154 190 11 12 58 55 105 96 47 41 87 76 90 79 3 3 19 14 35 24 17 11 37 25 45
32 23 21 110 84 115 84 2 0 62 37 132 82 71 44 144 91 163 103 152 96 240 156
240 164 0 5 10 12 23 16 76 23 91 23 152 4 53 -16 71 -28 130 -91 38 -40 124
-130 191 -199 218 -226 238 -276 219 -549 -8 -115 -8 -115 18 -146 36 -43 88
-54 250 -54 146 0 153 3 176 63 14 36 0 72 -37 91 -40 21 -148 56 -171 56 -30
0 -48 37 -54 110 -12 140 -39 306 -54 330 -9 14 -32 40 -52 58 -94 86 -152
149 -157 172 -3 14 -7 30 -9 37 -4 12 -58 55 -156 126 -89 64 -246 137 -329
154 -95 19 -255 25 -297 12z"/>
<path d="M6535 502 c-46 -3 -53 -7 -81 -45 -18 -23 -35 -53 -39 -65 -11 -36 3
-89 31 -117 l24 -25 438 3 437 3 114 27 c130 32 219 69 308 130 64 43 75 64
47 88 -13 10 -45 10 -182 -5 -235 -24 -430 -23 -1002 7 -25 1 -67 1 -95 -1z"/>
<path d="M3794 285 c-11 -29 8 -47 82 -78 209 -88 337 -115 581 -126 104 -4
213 -5 243 -2 52 6 56 8 78 48 27 49 23 102 -11 136 -17 17 -27 18 -81 12 -89
-10 -556 -6 -656 5 -204 24 -229 24 -236 5z"/>
</g>
</svg>
