<?xml version="1.0" standalone="no"?>
<!DOCTYPE svg PUBLIC "-//W3C//DTD SVG 20010904//EN"
 "http://www.w3.org/TR/2001/REC-SVG-20010904/DTD/svg10.dtd">
<svg version="1.0" xmlns="http://www.w3.org/2000/svg"
 width="826.000000pt" height="889.000000pt" viewBox="0 0 826.000000 889.000000"
 preserveAspectRatio="xMidYMid meet">
<metadata>
Created by potrace 1.14, written by Peter Selinger 2001-2017
</metadata>
<g transform="translate(0.000000,889.000000) scale(0.100000,-0.100000)"
fill="#000000" stroke="none">
<path d="M2320 8879 c-63 -4 -223 -16 -355 -28 -132 -11 -319 -27 -415 -35
-96 -9 -229 -22 -295 -30 -66 -9 -167 -20 -225 -26 -58 -6 -141 -15 -185 -21
-44 -5 -136 -16 -205 -25 -69 -8 -175 -21 -237 -28 -61 -8 -117 -17 -124 -21
-31 -20 47 -960 105 -1258 16 -81 43 -131 76 -142 17 -6 47 1 190 42 30 8 89
23 130 33 41 10 104 27 140 38 36 12 112 34 170 51 58 16 159 46 225 66 265
79 755 205 799 205 6 0 24 -16 40 -36 28 -36 29 -38 14 -68 -161 -322 -204
-460 -227 -740 -7 -80 -17 -138 -26 -152 -20 -30 -61 -37 -171 -29 -86 6 -93
5 -103 -14 -10 -17 -4 -25 49 -66 56 -43 63 -46 128 -48 59 -2 76 2 135 31 58
29 78 46 143 127 41 51 82 96 92 101 9 4 59 21 110 39 109 38 140 59 148 102
9 46 -13 54 -111 41 -131 -18 -205 -12 -205 15 0 6 38 51 84 98 88 91 119 147
96 174 -7 8 -18 15 -26 15 -21 0 -26 36 -10 75 33 77 104 145 154 145 33 0 52
32 52 90 l0 53 -95 94 c-112 110 -68 105 -385 42 -124 -25 -531 -139 -675
-190 -16 -6 -50 -16 -75 -24 -25 -7 -83 -25 -130 -39 -47 -15 -128 -38 -180
-51 -52 -12 -141 -39 -197 -59 -84 -31 -114 -36 -165 -34 l-63 3 -7 55 c-3 30
-11 118 -17 195 -6 77 -24 280 -40 450 -49 507 -48 479 -18 509 15 14 36 26
49 26 45 1 227 20 533 55 171 20 355 40 410 45 55 5 174 16 265 24 180 17 667
23 681 9 5 -5 13 -56 18 -113 6 -58 12 -116 15 -130 2 -14 7 -47 10 -75 13
-102 81 -394 96 -409 7 -7 15 -7 28 0 37 24 22 292 -33 574 -8 41 -19 115 -25
164 -8 80 -22 119 -39 114 -3 -1 -58 -5 -121 -9z"/>
<path d="M1983 8546 c-43 -20 -93 -98 -93 -145 0 -39 29 -109 51 -127 8 -6 46
-28 84 -49 90 -47 113 -69 99 -93 -15 -23 -54 -26 -109 -8 -124 43 -152 -11
-54 -104 55 -52 92 -64 155 -50 61 14 150 96 160 147 14 77 -39 184 -109 219
-18 9 -47 27 -65 41 -42 31 -29 53 32 53 79 0 111 53 61 100 -21 19 -38 24
-102 27 -54 2 -88 -1 -110 -11z"/>
<path d="M1560 8510 c-15 -36 -16 -77 -6 -187 6 -67 5 -83 -6 -83 -15 0 -100
92 -129 138 -16 27 -66 70 -121 105 -33 20 -96 23 -104 4 -3 -8 0 -69 5 -138
6 -68 16 -198 21 -289 6 -91 16 -177 21 -192 14 -36 62 -55 94 -38 36 19 43
54 34 165 -12 145 -11 155 8 162 12 5 33 -12 77 -59 34 -36 91 -91 129 -122
79 -66 124 -75 153 -31 15 24 15 40 -5 248 -12 122 -24 241 -28 265 -7 57 -35
82 -89 82 -37 0 -43 -3 -54 -30z"/>
<path d="M818 8438 c-17 -32 -14 -229 6 -348 9 -52 16 -150 16 -218 0 -123 0
-124 29 -153 16 -16 34 -29 39 -29 5 0 30 16 55 36 60 47 60 31 6 419 -5 39
-14 115 -20 169 -15 139 -18 146 -73 146 -37 0 -48 -4 -58 -22z"/>
<path d="M6160 8294 c-182 -21 -342 -50 -408 -75 -13 -5 -32 -9 -42 -9 -11 0
-52 -11 -92 -24 -40 -13 -102 -31 -138 -41 -36 -9 -78 -23 -95 -30 -16 -8 -70
-30 -120 -50 -179 -72 -245 -114 -307 -194 -51 -65 -113 -165 -148 -236 -14
-27 -33 -58 -42 -69 -10 -11 -18 -25 -18 -31 0 -20 -79 -134 -106 -152 -15
-10 -43 -34 -63 -55 -47 -47 -110 -58 -158 -28 -19 11 -35 31 -39 47 -29 127
-134 349 -206 436 -86 104 -230 227 -319 273 -310 156 -770 173 -1079 38 -173
-75 -350 -196 -350 -239 0 -30 35 -115 51 -126 8 -5 32 -9 55 -9 41 0 55 8
213 117 64 44 115 51 179 23 69 -30 87 -53 109 -139 24 -96 40 -107 88 -61 34
33 35 37 35 104 0 53 -6 84 -24 121 -26 56 -39 69 -78 79 -16 3 -28 11 -28 16
0 12 14 15 203 36 253 27 380 12 507 -63 145 -85 235 -181 323 -345 75 -140
116 -329 76 -354 -24 -15 -59 -106 -59 -154 0 -91 51 -78 164 42 62 66 79 79
101 76 21 -2 30 -12 42 -43 22 -59 19 -195 -7 -270 -30 -88 -173 -374 -187
-375 -7 0 -20 11 -29 25 -17 26 -17 26 -1 300 2 33 -1 40 -16 40 -23 0 -52
-78 -65 -174 -13 -93 2 -302 34 -446 52 -241 56 -275 49 -380 -3 -55 -10 -129
-16 -165 -14 -93 -82 -305 -142 -445 -57 -133 -192 -401 -213 -426 -8 -8 -14
-23 -14 -32 0 -9 -4 -19 -10 -22 -13 -8 -80 -148 -80 -167 0 -8 -11 -50 -24
-94 -34 -113 -51 -273 -50 -466 1 -183 11 -317 64 -868 5 -47 9 -161 9 -255 1
-233 -1 -236 -195 -386 -92 -71 -103 -84 -132 -146 -54 -119 -66 -181 -58
-328 3 -71 11 -150 16 -175 16 -78 23 -310 11 -374 -19 -102 -77 -189 -173
-259 -127 -93 -127 -428 -1 -697 41 -87 96 -143 166 -171 60 -24 210 -26 262
-5 47 20 44 5 -11 -48 -89 -85 -208 -83 -358 5 -39 23 -89 56 -111 74 -22 18
-71 56 -110 85 -96 73 -238 220 -254 264 -2 6 -24 42 -48 79 -24 37 -50 84
-57 105 -8 20 -28 74 -45 120 -75 200 -108 487 -126 1097 -13 407 -53 654
-146 894 -16 40 -29 80 -29 87 0 16 -78 203 -91 220 -5 6 -26 42 -47 80 -21
38 -63 112 -94 164 -116 200 -147 272 -173 403 -12 61 -15 108 -11 155 18 189
18 198 1 252 -18 60 -60 320 -75 470 -12 108 -15 409 -5 497 21 195 46 314
100 478 83 248 130 320 208 319 23 0 65 -11 92 -23 78 -37 128 -39 169 -7 19
14 40 26 45 26 6 0 33 -15 59 -34 126 -88 309 -94 562 -18 314 95 379 117 370
126 -15 15 -367 20 -475 7 -49 -5 -121 -15 -160 -22 -54 -9 -83 -9 -127 0 -79
17 -174 77 -223 141 -36 48 -42 52 -72 47 -19 -3 -59 -21 -91 -40 -233 -140
-335 -148 -582 -44 -39 16 -60 13 -60 -9 0 -27 74 -96 152 -141 43 -24 78 -51
78 -60 0 -21 -46 -133 -95 -233 -22 -47 -56 -123 -74 -170 -18 -47 -36 -92
-40 -100 -6 -11 -32 -17 -92 -21 -46 -3 -111 -14 -144 -24 -81 -24 -184 -16
-439 36 -179 36 -212 40 -306 36 -130 -5 -154 -16 -176 -76 -10 -25 -31 -61
-48 -80 -54 -58 -229 -206 -278 -234 -27 -16 -48 -31 -48 -35 0 -4 -11 -19
-25 -35 -35 -37 -65 -111 -65 -159 0 -52 57 -148 105 -178 l35 -22 -19 -26
c-10 -15 -28 -36 -40 -46 -25 -22 -28 -56 -5 -56 8 0 54 28 102 62 102 72 289
164 363 178 28 6 85 10 125 10 86 0 154 22 154 51 0 10 -9 23 -19 29 -34 17
-34 45 -2 119 34 76 39 116 16 125 -10 4 -22 -9 -39 -42 -52 -99 -143 -163
-326 -227 -41 -14 -101 -40 -132 -56 -82 -43 -107 -30 -108 57 0 36 61 120
110 151 16 10 56 44 90 76 47 45 70 79 111 162 66 136 98 165 177 165 31 0 91
-9 132 -20 87 -23 330 -78 410 -92 30 -6 60 -15 66 -22 8 -8 8 -37 -2 -111 -7
-55 -16 -158 -18 -228 -3 -70 -8 -132 -11 -137 -4 -6 -20 -10 -37 -10 -22 0
-40 -10 -62 -32 -17 -18 -47 -45 -66 -59 -96 -71 -148 -81 -465 -84 -287 -2
-275 0 -460 -79 -44 -19 -96 -37 -116 -41 -21 -3 -42 -12 -49 -20 -25 -30 29
-105 76 -105 9 0 38 13 64 29 26 16 67 32 92 36 41 6 45 5 78 -32 20 -21 56
-81 82 -134 52 -110 105 -174 163 -200 l40 -18 11 -123 c7 -68 17 -197 23
-288 7 -91 18 -196 26 -235 8 -38 16 -119 20 -180 3 -60 12 -164 21 -230 8
-66 19 -160 24 -210 5 -49 16 -144 25 -210 23 -187 64 -536 80 -690 8 -77 21
-200 30 -274 27 -233 36 -323 45 -461 5 -74 14 -186 20 -248 16 -177 39 -601
41 -772 2 -85 6 -169 10 -185 5 -17 30 -54 57 -83 58 -62 89 -68 131 -23 14
15 36 31 49 35 35 11 40 34 32 136 -31 355 -83 1123 -100 1465 -9 184 -25 464
-50 885 -13 214 -27 407 -45 600 -8 85 -19 214 -25 285 -6 72 -18 189 -26 260
-9 72 -24 207 -35 300 -30 256 -46 380 -63 485 -9 52 -16 109 -16 127 0 58 59
67 113 17 30 -27 30 -28 31 -219 1 -117 2 -121 34 -177 38 -66 72 -93 131
-107 136 -30 219 89 200 289 -23 242 -23 250 -5 250 9 0 16 -3 16 -7 0 -5 19
-28 41 -52 l40 -43 78 6 c102 9 103 8 95 -125 -4 -72 0 -140 11 -219 31 -215
78 -338 294 -768 105 -209 144 -300 190 -447 47 -147 57 -273 55 -670 -3 -479
16 -695 82 -975 14 -58 29 -121 33 -140 29 -122 175 -420 265 -540 71 -95 212
-243 266 -280 19 -13 37 -27 40 -30 10 -10 69 -50 75 -50 4 0 30 -16 59 -35
29 -19 68 -38 87 -41 19 -4 54 -19 79 -34 52 -33 149 -60 211 -60 42 0 100 26
124 55 5 7 51 46 100 88 50 41 107 93 127 115 20 22 46 45 57 51 28 16 138 13
222 -4 76 -16 109 -13 109 10 0 18 -60 64 -102 79 -18 7 -57 24 -86 39 -106
55 -187 44 -317 -43 -84 -56 -147 -80 -215 -80 -45 0 -54 4 -87 38 -42 41 -73
105 -127 257 -38 110 -49 165 -48 239 2 119 34 186 160 336 42 49 89 121 114
170 40 81 42 90 46 195 4 116 -1 155 -41 300 -35 128 -40 167 -28 227 19 91
78 158 267 303 162 124 201 182 213 320 11 118 -20 582 -44 665 -2 8 -14 89
-27 180 -18 136 -22 208 -22 410 1 225 3 254 27 360 28 128 51 190 70 190 6 0
30 -14 51 -30 22 -17 43 -30 48 -30 4 0 30 -15 56 -34 191 -134 423 -242 625
-291 75 -18 237 -47 252 -45 6 0 57 5 115 9 58 4 128 14 157 20 28 7 67 11 85
9 28 -3 33 -7 36 -31 7 -62 -35 -132 -137 -228 -53 -50 -112 -113 -131 -139
-19 -26 -62 -82 -95 -124 -128 -165 -233 -353 -305 -546 -17 -47 -35 -94 -40
-105 -20 -45 -72 -276 -83 -365 -14 -111 -13 -472 2 -580 14 -112 49 -262 78
-338 13 -37 31 -87 39 -111 8 -24 18 -49 22 -55 5 -6 26 -54 46 -106 58 -146
118 -241 208 -325 56 -53 94 -80 133 -94 71 -27 90 -26 109 1 32 45 16 98 -65
221 -22 32 -39 64 -39 71 0 7 -14 40 -31 72 -18 32 -44 88 -59 124 -15 36 -44
103 -64 150 -69 161 -121 340 -146 505 -22 147 -29 372 -15 509 19 188 96 495
151 604 13 26 24 51 24 56 0 5 20 42 45 83 25 40 45 76 45 79 0 2 23 37 52 77
70 97 189 224 268 288 36 28 67 55 70 58 9 13 150 106 233 154 121 70 217 114
307 141 l55 17 38 -43 c21 -24 52 -65 70 -93 17 -27 36 -55 42 -61 5 -6 28
-32 49 -58 64 -76 171 -141 314 -192 167 -60 165 -59 252 -78 201 -44 315 -57
490 -57 154 0 217 4 436 28 31 3 54 1 58 -5 12 -20 -65 -220 -98 -256 -6 -6
-28 -36 -48 -66 -61 -90 -147 -173 -280 -272 -20 -16 -39 -28 -42 -28 -3 0
-25 -13 -48 -30 -126 -88 -337 -230 -395 -267 -37 -23 -76 -51 -85 -63 -24
-29 -23 -77 2 -118 40 -66 29 -82 -111 -160 -103 -57 -169 -131 -169 -189 0
-10 10 -29 23 -43 140 -155 308 -515 366 -785 36 -169 41 -196 56 -309 21
-152 20 -239 -2 -258 -34 -29 -61 -37 -152 -44 -78 -6 -98 -11 -122 -31 -16
-14 -29 -31 -29 -39 0 -38 29 -100 62 -136 33 -35 42 -40 70 -35 18 4 83 11
143 17 205 19 265 40 307 108 22 36 23 45 23 252 0 203 -2 221 -28 320 -36
133 -64 205 -139 355 -88 175 -160 279 -362 519 -21 25 -36 52 -33 60 3 7 27
24 54 36 70 34 196 111 211 129 33 42 54 98 56 148 2 62 4 64 96 94 36 12 83
31 105 42 55 29 208 130 231 153 11 11 33 30 49 44 36 30 120 127 155 176 133
190 217 348 320 599 18 44 39 87 47 97 9 10 38 19 76 23 68 8 135 33 157 60
32 38 1 183 -63 295 -58 103 -114 215 -127 255 -18 56 -24 62 -76 68 -25 2
-51 10 -57 16 -6 6 -14 55 -18 108 -4 54 -12 125 -19 158 -6 33 -15 78 -19
100 -10 54 -59 175 -81 200 -9 11 -29 41 -44 67 -33 58 -216 234 -319 308 -43
30 -100 72 -129 93 -53 38 -88 47 -88 24 0 -7 49 -62 109 -122 60 -59 121
-129 134 -154 29 -52 49 -202 34 -242 -34 -89 -40 -99 -63 -99 -29 0 -51 32
-104 152 -23 54 -56 115 -74 137 -35 44 -163 149 -244 200 -72 46 -157 143
-173 198 -14 51 -7 157 13 180 7 9 18 26 23 39 15 35 81 82 141 101 51 16 60
15 216 -6 90 -13 199 -25 243 -28 115 -8 164 -44 165 -121 0 -19 19 -47 66
-97 80 -86 126 -151 182 -258 39 -73 57 -116 107 -248 39 -102 79 -407 71
-544 -7 -122 20 -135 88 -44 32 42 54 88 73 147 26 81 28 99 27 242 -2 185
-17 266 -73 385 -62 132 -142 228 -286 344 -125 100 -145 122 -145 153 0 24 5
28 38 33 267 46 401 86 423 127 17 32 24 601 10 765 -32 360 -131 664 -280
858 -52 68 -166 182 -229 228 -24 18 -67 50 -95 73 -103 81 -164 118 -282 175
-96 45 -156 65 -295 99 -321 77 -576 96 -860 64z m454 -1580 c9 -3 21 -25 26
-48 6 -22 16 -54 22 -69 16 -40 93 -97 132 -97 17 0 42 -7 55 -16 20 -14 22
-22 17 -58 -4 -22 -9 -95 -12 -161 -3 -66 -7 -126 -9 -133 -4 -10 -17 -6 -54
14 -66 35 -109 77 -167 159 -25 35 -134 244 -134 256 0 5 -12 34 -26 65 -14
31 -22 60 -17 64 19 19 137 35 167 24z m-2264 -1206 c39 -109 151 -299 238
-407 98 -121 276 -309 316 -335 51 -32 92 -73 83 -82 -12 -13 -198 57 -321
120 -68 35 -151 85 -184 112 -34 27 -83 65 -109 85 -75 57 -193 169 -193 184
0 20 111 358 123 373 17 21 24 14 47 -50z m-3113 -770 c16 -20 32 -159 38
-335 6 -153 5 -163 -12 -163 -36 0 -44 17 -57 126 -8 60 -22 163 -32 230 -10
66 -15 128 -11 137 8 20 60 23 74 5z m-466 -158 c4 -30 12 -95 18 -145 29
-222 42 -332 56 -500 8 -99 20 -216 25 -260 5 -44 21 -240 34 -435 14 -195 30
-413 36 -485 5 -71 15 -224 20 -340 6 -115 15 -244 20 -285 6 -41 15 -155 20
-254 16 -285 12 -360 -10 -205 -13 87 -12 79 -45 464 -14 165 -39 451 -56 635
-16 184 -34 391 -39 460 -13 151 -85 751 -105 870 -26 148 -29 198 -15 255 9
39 10 78 4 146 -11 115 -8 141 14 137 13 -2 19 -18 23 -58z"/>
<path d="M3800 7219 c-102 -61 -135 -122 -196 -368 -33 -136 -44 -161 -94
-215 -60 -65 -41 -82 53 -50 82 28 122 108 152 304 17 112 47 210 77 250 11
14 35 36 55 50 20 14 38 31 41 38 6 20 -49 14 -88 -9z"/>
<path d="M2925 7165 c-64 -46 -128 -49 -181 -8 -48 36 -60 21 -33 -44 27 -66
58 -81 133 -64 70 16 156 74 156 105 0 45 -22 48 -75 11z"/>
<path d="M2759 6717 c-15 -33 35 -130 97 -188 26 -24 54 -51 63 -59 86 -81
251 -116 422 -90 168 25 229 49 216 84 -8 19 -57 21 -160 5 -174 -27 -392 57
-556 214 -33 32 -62 57 -65 57 -4 0 -11 -11 -17 -23z"/>
<path d="M1487 6693 c-18 -17 -5 -70 24 -106 51 -62 149 -101 149 -59 -1 17
-142 172 -158 172 -5 0 -12 -3 -15 -7z"/>
<path d="M2092 5979 c-90 -108 -166 -297 -178 -443 -7 -77 -7 -78 16 -74 21 3
31 22 77 143 29 77 76 197 103 267 28 70 50 132 50 138 0 23 -37 7 -68 -31z"/>
<path d="M2424 5943 c-8 -16 -47 -84 -86 -153 -39 -69 -77 -136 -84 -150 -7
-15 -16 -84 -20 -170 -6 -136 -5 -152 21 -260 14 -63 33 -137 41 -165 8 -27
24 -81 35 -120 72 -243 77 -264 85 -356 6 -66 3 -88 -18 -155 -73 -230 -77
-433 -11 -506 30 -33 35 -10 28 119 -7 110 -5 133 15 206 12 45 26 90 31 99
17 32 22 210 9 303 -12 91 -59 318 -85 410 -41 149 -56 404 -32 550 11 66 22
94 64 161 57 89 90 172 80 197 -11 28 -56 21 -73 -10z"/>
<path d="M5935 4063 c-61 -42 -115 -93 -115 -108 0 -13 -48 -58 -101 -98 -63
-45 -239 -227 -239 -245 0 -7 -4 -12 -10 -12 -5 0 -24 -21 -41 -47 -18 -27
-35 -50 -39 -53 -3 -3 -23 -34 -45 -70 -58 -93 -61 -98 -98 -170 -19 -36 -44
-81 -56 -100 -35 -59 -66 -134 -106 -260 -15 -47 -32 -94 -38 -105 -6 -11 -11
-33 -13 -50 -1 -16 -10 -77 -20 -135 -22 -129 -25 -413 -6 -578 15 -135 79
-382 123 -479 10 -24 19 -45 19 -48 0 -18 108 -225 164 -315 71 -113 85 -131
191 -243 62 -64 78 -76 124 -87 54 -13 138 -8 173 11 23 12 23 44 -1 77 -10
15 -28 47 -39 72 -12 25 -26 52 -31 60 -5 8 -25 42 -44 75 -19 33 -56 96 -82
140 -78 129 -175 324 -200 400 -45 134 -83 483 -80 740 2 242 52 528 121 698
13 33 24 65 24 70 0 13 30 78 108 237 64 130 142 256 204 330 96 116 152 181
197 230 86 93 58 134 -44 63z"/>
<path d="M4830 968 c-146 -5 -275 -13 -287 -18 -21 -9 -23 -16 -23 -95 0 -112
11 -125 108 -125 324 0 640 45 777 111 43 20 50 29 53 56 3 26 -3 36 -31 57
-33 26 -37 26 -183 24 -82 -1 -268 -5 -414 -10z"/>
<path d="M6365 763 c-22 -2 -130 -17 -240 -34 -110 -17 -245 -37 -300 -46 -55
-8 -186 -16 -290 -17 -169 -3 -195 -6 -231 -24 -54 -28 -65 -42 -66 -94 -1
-49 22 -102 51 -117 26 -14 342 -15 481 -2 161 16 315 51 585 132 168 50 202
70 191 113 -8 31 -91 97 -120 94 -12 -1 -39 -3 -61 -5z"/>
</g>
</svg>
