<?xml version="1.0" standalone="no"?>
<!DOCTYPE svg PUBLIC "-//W3C//DTD SVG 20010904//EN"
 "http://www.w3.org/TR/2001/REC-SVG-20010904/DTD/svg10.dtd">
<svg version="1.0" xmlns="http://www.w3.org/2000/svg"
 width="844.000000pt" height="957.000000pt" viewBox="0 0 844.000000 957.000000"
 preserveAspectRatio="xMidYMid meet">
<metadata>
Created by potrace 1.14, written by Peter Selinger 2001-2017
</metadata>
<g transform="translate(0.000000,957.000000) scale(0.100000,-0.100000)"
fill="#000000" stroke="none">
<path d="M4380 9564 c-84 -15 -91 -25 -27 -43 23 -7 80 -33 127 -58 47 -25
117 -62 155 -81 62 -31 111 -65 245 -169 55 -43 313 -303 351 -354 19 -25 60
-78 91 -116 160 -197 368 -560 443 -773 43 -121 102 -301 115 -350 7 -25 16
-55 21 -68 28 -72 77 -373 104 -647 17 -164 19 -655 3 -671 -14 -13 -21 5 -25
64 -10 152 -37 390 -59 502 -52 274 -63 317 -124 495 -73 209 -86 241 -119
282 -47 59 -94 77 -175 68 -67 -7 -116 -31 -285 -144 -35 -22 -83 -46 -108
-53 -43 -10 -47 -10 -64 11 -28 34 -42 94 -28 124 6 13 50 48 102 80 51 31
126 86 167 122 41 36 93 77 115 92 64 43 75 61 75 128 0 128 -22 196 -141 435
-62 124 -115 227 -118 230 -6 5 -17 23 -60 100 -51 91 -175 252 -265 342 -103
105 -188 168 -293 222 -129 64 -135 46 -23 -66 44 -44 80 -85 80 -92 0 -8 10
-20 23 -29 12 -8 36 -34 52 -58 16 -24 36 -51 45 -60 23 -25 50 -59 50 -63 0
-3 24 -40 54 -83 92 -134 230 -403 287 -558 63 -172 91 -262 96 -311 7 -68 -9
-85 -182 -180 -129 -71 -148 -85 -245 -184 -220 -224 -229 -230 -810 -567
-281 -162 -410 -256 -410 -299 0 -41 39 -24 292 127 54 33 101 59 104 59 3 0
40 24 82 52 91 63 107 72 149 92 18 8 48 26 66 40 19 15 36 26 39 26 7 0 223
130 308 185 74 48 204 119 237 129 33 10 63 -24 63 -73 0 -33 -6 -45 -39 -73
-22 -18 -65 -48 -98 -67 -32 -19 -101 -64 -153 -101 -114 -79 -241 -162 -330
-215 -36 -21 -74 -46 -85 -55 -11 -9 -54 -38 -95 -64 -41 -26 -93 -60 -114
-75 -22 -16 -56 -37 -75 -47 -20 -11 -55 -34 -79 -51 -24 -18 -52 -33 -61 -33
-10 0 -47 -9 -81 -20 -75 -24 -150 -26 -192 -4 -28 14 -30 19 -25 56 3 22 12
47 21 57 20 22 84 228 96 310 29 200 -6 362 -101 467 -13 13 -22 47 -29 100
-13 99 -22 130 -73 228 -47 91 -115 165 -204 225 -34 22 -64 45 -67 50 -3 4
12 33 32 62 55 78 65 108 60 189 -4 81 -21 110 -85 146 -82 46 -290 60 -412
28 -93 -24 -112 -20 -156 31 -57 68 -82 103 -128 180 -39 67 -117 219 -117
229 0 3 -17 42 -39 88 -21 46 -41 93 -45 106 -9 28 -28 38 -91 47 -156 23
-482 -31 -556 -92 -8 -7 -24 -13 -34 -13 -17 0 -181 -79 -255 -123 -78 -46
-232 -161 -280 -209 -74 -73 -122 -153 -128 -210 -6 -58 -22 -62 -51 -13 -11
19 -26 35 -32 35 -26 0 -207 -241 -257 -342 -56 -111 -57 -108 59 -227 92 -95
259 -293 259 -307 0 -3 16 -25 35 -48 19 -24 35 -46 35 -49 0 -8 71 -129 88
-149 8 -10 23 -18 34 -18 10 0 18 -6 18 -14 0 -19 -128 -65 -214 -76 -39 -5
-111 -15 -159 -21 -97 -12 -111 -24 -86 -67 8 -14 39 -39 69 -56 50 -28 64
-31 162 -34 59 -3 137 1 174 7 37 7 71 8 75 4 5 -5 1 -35 -7 -68 -9 -33 -20
-80 -25 -105 -4 -25 -14 -71 -20 -103 -10 -48 -10 -80 5 -190 24 -182 33 -227
73 -342 52 -148 122 -288 155 -309 28 -17 203 9 268 41 60 30 100 65 100 89 0
24 -24 26 -71 5 -24 -12 -59 -21 -77 -21 -28 0 -34 5 -51 43 -82 181 -161 486
-182 702 -17 175 -9 271 27 341 24 47 36 60 69 71 83 30 183 4 319 -84 56 -36
59 -37 72 -18 37 51 2 104 -96 144 -72 30 -120 60 -120 75 0 14 63 75 135 132
27 21 59 47 70 58 11 10 45 37 75 59 30 23 89 68 130 102 106 86 215 166 285
207 105 63 283 145 351 164 64 17 69 17 117 0 50 -18 180 -79 227 -106 147
-87 340 -296 340 -369 0 -10 7 -35 15 -54 35 -84 20 -125 -88 -246 -44 -50
-48 -57 -45 -100 2 -36 8 -48 26 -57 34 -17 59 -7 84 35 65 107 100 125 138
71 21 -30 22 -38 15 -178 -14 -320 -42 -403 -150 -453 -65 -30 -29 -126 56
-149 61 -17 62 -1 -21 -270 -81 -265 -96 -315 -151 -510 -22 -80 -49 -174 -59
-210 -10 -36 -24 -85 -30 -110 -7 -25 -16 -50 -21 -57 -15 -17 -101 -26 -145
-14 -22 6 -56 13 -77 16 -48 8 -54 24 -32 81 36 95 95 131 129 79 24 -37 91
-68 116 -55 32 17 24 45 -24 84 -77 63 -68 107 40 194 63 50 92 96 74 118 -15
17 -30 9 -100 -50 -73 -62 -233 -167 -305 -200 -33 -15 -78 -37 -100 -48 -26
-14 -81 -26 -160 -35 -272 -31 -510 20 -627 135 -56 54 -63 88 -20 98 15 3 34
8 43 10 9 2 44 29 79 59 38 33 80 60 104 66 55 15 158 6 231 -20 97 -35 210
-61 263 -61 56 0 185 54 280 118 30 20 67 45 81 54 34 23 181 168 181 179 0 5
14 24 31 44 22 25 29 39 22 46 -8 8 -46 -9 -124 -54 -393 -222 -613 -272 -803
-181 l-70 34 -40 -24 c-103 -60 -139 -77 -178 -85 -24 -5 -77 -19 -118 -31
-67 -20 -91 -21 -225 -17 -196 7 -285 35 -365 117 -8 9 -35 30 -59 48 -79 56
-181 39 -181 -31 1 -55 29 -74 135 -92 86 -15 198 -81 300 -178 54 -51 116
-115 139 -143 37 -45 98 -103 162 -154 39 -31 131 -71 203 -89 41 -9 76 -22
79 -29 2 -6 -10 -18 -25 -26 -16 -8 -54 -38 -84 -66 -30 -28 -74 -63 -99 -77
-25 -14 -76 -49 -115 -77 -38 -29 -106 -70 -150 -91 -44 -22 -108 -59 -143
-83 -117 -82 -188 -96 -315 -66 -84 21 -86 39 -6 66 31 10 82 40 115 66 32 26
95 72 139 102 139 94 233 176 284 248 56 79 2 68 -185 -40 -79 -45 -124 -79
-206 -153 -98 -89 -134 -108 -185 -100 -58 10 -105 25 -143 45 -54 28 -120 35
-165 15 -56 -23 -73 -41 -107 -115 -17 -36 -42 -89 -56 -119 -24 -51 -25 -57
-13 -115 20 -100 88 -223 171 -307 28 -28 50 -59 50 -68 0 -25 -32 -51 -71
-57 -32 -5 -36 -2 -81 59 -97 132 -138 246 -138 384 0 94 -11 109 -59 80 -19
-11 -33 -35 -49 -84 -22 -66 -22 -70 -6 -137 37 -159 89 -280 142 -332 83 -82
131 -96 212 -64 100 40 111 42 153 20 21 -11 42 -18 46 -15 5 2 14 49 21 102
6 54 18 126 26 161 8 35 12 67 9 71 -2 5 -37 17 -77 27 -99 24 -128 37 -165
76 -21 22 -37 53 -48 97 -18 72 -11 92 26 68 43 -27 241 -75 379 -91 158 -19
208 -34 235 -71 26 -34 24 -98 -4 -219 l-22 -89 31 -38 c27 -34 30 -45 30
-106 0 -117 -53 -271 -130 -378 -20 -27 -39 -57 -43 -65 -4 -8 -27 -46 -52
-85 -78 -123 -82 -132 -63 -163 9 -15 50 -50 92 -78 42 -28 89 -62 104 -77 15
-14 41 -29 57 -33 17 -4 48 -19 69 -33 l40 -26 240 0 c232 1 246 2 387 32 301
65 548 168 786 327 37 25 73 46 80 46 31 0 26 -85 -7 -115 -11 -10 -24 -32
-30 -50 -7 -20 -35 -53 -73 -85 -93 -79 -145 -129 -222 -215 -38 -42 -81 -89
-95 -104 -85 -85 -247 -368 -317 -552 -60 -156 -64 -168 -78 -244 -7 -38 -20
-98 -29 -132 -9 -34 -23 -135 -32 -224 -20 -212 -13 -386 21 -542 96 -441 194
-663 375 -845 63 -63 179 -152 198 -152 27 0 42 33 42 91 0 53 -6 73 -54 167
-138 269 -218 512 -275 832 -45 257 -64 444 -52 520 6 36 11 84 11 108 0 37
54 342 78 442 31 124 125 359 167 414 14 18 25 37 25 42 0 28 146 213 219 279
76 68 241 173 301 190 14 4 30 11 35 16 6 4 46 17 90 29 109 29 168 22 233
-29 60 -49 73 -64 114 -133 128 -220 221 -315 380 -393 37 -18 80 -41 95 -52
37 -25 165 -83 184 -83 8 0 19 -4 24 -9 6 -4 57 -26 115 -49 246 -95 306 -107
543 -107 103 0 187 -3 187 -7 0 -5 -8 -16 -17 -26 -10 -9 -27 -29 -38 -43 -11
-15 -56 -73 -100 -130 -44 -57 -95 -126 -114 -154 -87 -127 -130 -194 -149
-232 -12 -23 -25 -43 -29 -45 -24 -10 -66 -93 -71 -138 -6 -64 8 -85 97 -145
l70 -47 4 -76 c6 -107 33 -487 47 -667 6 -82 18 -202 26 -266 8 -63 14 -143
14 -177 0 -60 -1 -62 -37 -86 -25 -16 -65 -28 -113 -35 -41 -6 -106 -15 -144
-20 -38 -6 -77 -17 -87 -27 -40 -36 -55 -187 -21 -216 24 -21 121 -38 221 -38
163 0 366 77 382 145 4 17 15 58 23 92 11 44 16 108 16 210 -1 147 -3 164 -60
473 -57 306 -65 486 -30 620 11 41 20 84 20 96 0 25 -30 54 -90 85 -66 35
-100 64 -100 87 0 18 16 47 100 182 19 31 40 64 47 75 7 11 71 115 144 230 72
116 145 231 160 256 47 75 59 82 102 64 38 -16 87 -11 122 11 33 21 91 27 255
28 136 1 159 3 189 21 43 25 71 63 74 99 2 32 0 34 -105 76 -88 36 -168 104
-278 235 -216 259 -342 575 -389 975 -12 101 -17 267 -8 276 3 3 34 -1 69 -9
144 -36 521 -74 590 -60 23 4 29 0 46 -34 27 -53 61 -84 125 -117 58 -29 143
-43 199 -32 71 13 134 106 172 252 23 88 57 164 73 164 8 0 22 -18 31 -40 22
-51 47 -60 78 -27 26 28 47 27 113 -7 30 -16 35 -16 57 -1 30 19 30 31 0 92
-22 42 -26 68 -34 218 -8 148 -13 177 -35 225 -59 132 -165 231 -258 245 -56
8 -74 -8 -66 -60 7 -41 -7 -58 -59 -75 -53 -18 -61 -5 -46 78 22 129 115 268
213 317 56 29 81 31 100 9 38 -47 148 -59 252 -29 67 19 76 15 108 -46 22 -44
77 -89 107 -89 12 0 41 5 66 12 53 14 96 0 122 -41 10 -14 41 -51 71 -82 63
-67 73 -103 73 -276 0 -117 -17 -196 -60 -283 -22 -43 -142 -115 -210 -125
-56 -9 -80 -29 -80 -68 0 -28 -17 -130 -41 -242 -17 -83 -60 -325 -70 -395 -5
-36 -13 -85 -19 -110 -6 -25 -14 -74 -19 -110 -5 -36 -18 -114 -29 -175 -20
-108 -63 -366 -82 -495 -36 -233 -53 -337 -80 -506 -17 -106 -35 -220 -39
-255 -9 -65 -26 -172 -81 -514 -17 -104 -37 -230 -45 -280 -8 -49 -22 -133
-30 -185 -9 -52 -22 -133 -30 -180 -38 -235 -46 -262 -79 -268 -16 -3 -18 1
-12 30 3 18 12 107 21 198 21 225 63 505 119 795 81 419 143 796 166 1005 6
58 16 130 21 160 5 30 18 118 29 195 10 77 33 221 50 320 70 407 115 787 108
925 -3 57 -5 65 -23 65 -30 0 -35 -20 -85 -355 -11 -74 -24 -157 -30 -185 -5
-27 -14 -81 -20 -120 -38 -248 -65 -408 -100 -610 -69 -403 -91 -526 -114
-650 -14 -71 -41 -218 -60 -325 -20 -107 -45 -240 -56 -295 -11 -55 -29 -149
-40 -210 -12 -60 -25 -130 -30 -155 -5 -25 -18 -99 -30 -165 -25 -138 -43
-236 -60 -315 -6 -30 -22 -120 -36 -200 -13 -80 -29 -161 -34 -180 -16 -59
-24 -329 -11 -380 23 -86 31 -99 71 -111 31 -9 47 -8 89 6 88 29 82 18 172
290 80 238 187 709 268 1175 11 63 27 156 36 205 9 50 23 128 30 175 14 96 68
398 90 505 8 39 21 144 30 235 17 182 34 311 70 530 13 80 31 192 40 250 9 58
28 161 41 230 32 166 39 206 69 395 15 88 31 174 37 190 16 40 50 86 123 166
113 125 185 240 185 299 0 14 9 59 21 100 39 138 13 242 -88 354 -119 132
-183 196 -195 196 -7 0 -46 5 -87 10 -75 10 -114 30 -169 88 -21 22 -29 24
-70 18 -128 -18 -137 -18 -237 8 -138 36 -141 36 -203 -28 -135 -139 -296
-170 -652 -127 -91 11 -199 23 -240 26 -142 12 -138 10 -200 136 -30 61 -65
119 -78 130 -13 10 -48 23 -79 29 -96 20 -136 43 -203 118 -70 79 -83 99 -187
302 -88 173 -145 259 -214 321 -66 60 -62 75 34 118 197 91 480 246 537 296 8
7 40 25 70 40 30 15 62 33 70 40 29 25 192 104 205 99 7 -3 24 -38 38 -77 43
-127 75 -231 82 -267 4 -19 11 -39 15 -45 13 -16 88 -399 105 -530 8 -66 21
-201 29 -300 13 -170 23 -220 52 -255 7 -8 23 -35 37 -60 16 -28 32 -45 44
-45 38 0 138 243 165 403 8 48 13 157 12 287 -1 233 -12 323 -89 695 -15 73
-51 293 -58 357 -6 50 -5 51 116 123 106 63 212 105 288 114 51 6 57 5 85 -21
58 -57 83 -100 104 -184 20 -79 21 -95 5 -160 -5 -18 1 -44 19 -83 14 -31 26
-70 26 -85 0 -16 3 -37 6 -46 10 -25 79 -55 127 -55 56 0 301 45 347 64 19 8
79 28 132 45 145 46 277 109 433 206 412 257 670 653 726 1114 19 152 -20 225
-179 338 -72 52 -235 141 -302 165 -86 32 -273 60 -433 67 -195 8 -309 0 -524
-34 -170 -27 -188 -30 -303 -61 -285 -76 -373 -103 -446 -138 -39 -19 -132
-55 -208 -80 -136 -45 -178 -65 -244 -115 -31 -24 -72 -87 -72 -110 0 -6 30
-19 68 -30 91 -28 223 -112 281 -181 25 -30 54 -63 64 -74 9 -11 17 -28 17
-37 0 -33 44 -72 80 -72 48 0 62 25 54 93 -15 119 -123 214 -336 295 -44 16
-80 34 -80 39 2 23 517 187 802 256 119 28 422 71 570 81 174 11 311 5 549
-25 261 -34 359 -87 400 -219 45 -148 3 -420 -94 -603 -57 -108 -178 -266
-256 -334 -35 -30 -72 -64 -84 -76 -11 -11 -38 -31 -60 -44 -22 -13 -49 -31
-60 -41 -23 -19 -182 -102 -265 -137 -30 -13 -91 -34 -135 -47 -44 -13 -121
-44 -171 -69 -86 -43 -96 -46 -170 -46 -43 0 -85 4 -93 9 -9 6 -15 35 -18 87
-8 151 -78 299 -182 382 -23 18 -41 41 -41 50 0 9 15 32 32 51 32 36 141 85
215 97 22 3 69 21 104 39 52 26 69 41 90 78 28 52 69 99 120 137 104 79 113
119 34 159 -65 34 -186 40 -295 16 -119 -27 -151 -33 -215 -45 -114 -20 -231
-77 -241 -118 -12 -44 8 -47 123 -19 59 14 134 31 166 36 31 6 81 16 110 21
156 30 242 39 255 26 22 -21 -113 -119 -275 -200 -76 -39 -163 -87 -194 -108
-31 -21 -91 -49 -133 -63 -42 -14 -118 -46 -169 -72 -164 -83 -191 -95 -231
-109 -76 -27 -77 -27 -125 109 -129 365 -261 659 -380 847 -22 36 -50 82 -61
103 -11 20 -24 37 -29 37 -4 0 -13 10 -18 23 -12 23 -39 57 -117 146 -92 105
-129 141 -185 179 -85 57 -420 287 -471 324 -114 80 -108 78 -235 92 -16 2
-41 2 -55 0z m-2356 -569 c3 -8 3 -29 0 -45 -11 -55 33 -245 76 -330 36 -70
27 -87 -75 -147 -142 -82 -156 -90 -235 -143 -101 -66 -128 -66 -190 -2 -45
47 -62 82 -120 244 -24 67 -53 124 -93 181 -10 15 -8 21 18 42 71 57 243 128
460 188 106 30 150 33 159 12z m262 -587 c68 -31 104 -54 104 -68 0 -4 -53
-39 -117 -78 -65 -39 -134 -85 -153 -101 -19 -17 -39 -31 -43 -31 -4 0 -18
-10 -30 -23 -12 -13 -67 -59 -122 -103 -55 -43 -104 -85 -108 -91 -4 -7 -22
-20 -40 -29 -18 -10 -52 -35 -77 -56 -70 -62 -63 -22 11 64 34 40 66 74 70 76
5 2 13 21 19 42 11 41 -4 99 -29 114 -49 30 61 119 284 231 50 24 106 54 125
65 19 11 35 20 36 20 1 0 33 -14 70 -32z m3212 -1010 c-3 -7 -43 -29 -89 -48
-118 -49 -153 -69 -330 -186 -359 -236 -484 -311 -493 -295 -7 11 14 28 119
96 50 31 97 62 107 69 70 48 194 128 245 159 34 21 91 56 125 78 139 88 328
164 316 127z m-2480 -2073 c24 -2 45 -5 47 -7 2 -2 -5 -35 -16 -73 -11 -39
-24 -124 -31 -190 -6 -66 -15 -126 -21 -132 -5 -8 -33 -13 -66 -13 -50 0 -61
4 -83 28 -34 36 -122 218 -115 236 12 31 54 29 125 -4 74 -34 105 -36 110 -7
6 32 -94 114 -143 117 -60 4 -75 -1 -102 -30 -15 -17 -36 -30 -50 -30 -36 0
-32 53 8 92 l30 31 132 -8 c73 -4 151 -9 175 -10z m3556 -175 c11 -11 18 -21
15 -23 -76 -55 -165 -151 -199 -217 -7 -14 -21 -34 -31 -45 -25 -28 -95 -204
-115 -289 -28 -122 -27 -121 -65 -124 -61 -5 -74 14 -78 118 -3 98 8 156 55
280 47 125 71 154 221 272 7 6 38 21 70 34 63 26 96 24 127 -6z m-4664 -197
c12 -64 59 -279 91 -415 12 -48 19 -92 17 -97 -1 -6 -43 13 -92 42 -82 48 -90
56 -108 102 -42 105 -98 277 -98 299 0 17 19 36 72 74 93 68 104 67 118 -5z"/>
<path d="M2460 7660 c-20 -5 -45 -22 -60 -39 -14 -17 -51 -61 -82 -97 -76 -87
-93 -166 -36 -172 19 -2 31 4 47 26 12 17 21 40 21 52 0 12 13 35 29 51 25 24
38 29 80 29 27 0 53 -4 56 -10 3 -5 12 -10 20 -10 8 0 31 -12 52 -26 57 -38
103 -58 113 -48 14 14 15 116 2 141 -18 32 -95 92 -133 103 -39 11 -60 11
-109 0z"/>
<path d="M2394 7143 c-27 -28 -44 -79 -44 -135 0 -67 7 -77 59 -89 34 -8 48
-6 72 8 43 25 69 74 76 136 5 50 3 55 -22 75 -35 28 -115 30 -141 5z"/>
<path d="M1560 7007 c-46 -16 -84 -71 -76 -112 15 -74 84 -134 125 -108 29 18
53 72 58 133 9 91 -22 116 -107 87z"/>
<path d="M1924 6818 c-42 -46 -84 -105 -84 -118 0 -6 -9 -28 -20 -50 -14 -28
-20 -59 -20 -110 0 -66 2 -72 36 -110 48 -53 81 -53 185 1 86 45 129 87 129
125 0 35 -26 41 -62 14 -43 -32 -112 -38 -139 -14 -25 22 -22 47 17 176 22 72
25 90 14 103 -17 21 -22 19 -56 -17z"/>
<path d="M2320 6565 c0 -60 40 -111 140 -178 14 -9 35 -24 47 -33 58 -42 316
-71 343 -39 17 21 6 30 -54 44 -59 14 -191 80 -234 116 -38 31 -200 115 -224
115 -13 0 -18 -8 -18 -25z"/>
<path d="M6843 5384 c-3 -8 -1 -32 6 -52 29 -93 35 -150 36 -347 2 -115 5
-211 9 -213 20 -10 51 44 77 136 45 158 8 396 -73 472 -26 24 -46 26 -55 4z"/>
<path d="M7157 5283 c-4 -3 -7 -76 -7 -162 -1 -86 -5 -174 -9 -196 -5 -22 -12
-55 -16 -72 -6 -28 -5 -33 11 -33 42 1 88 117 104 260 11 99 5 140 -25 186
-15 23 -44 32 -58 17z"/>
<path d="M285 4688 c-27 -15 -35 -28 -35 -59 0 -37 -35 -113 -84 -183 -23 -32
-46 -67 -52 -77 -6 -10 -19 -28 -29 -39 -18 -20 -22 -27 -59 -91 -28 -48 -27
-150 2 -205 26 -52 93 -110 134 -118 54 -11 130 -6 253 14 66 11 147 20 181
20 53 0 65 -4 94 -30 49 -44 156 -91 234 -102 64 -9 70 -8 105 15 92 62 172
170 216 291 50 140 34 268 -22 169 -12 -21 -26 -57 -32 -79 -15 -54 -132 -208
-171 -224 -50 -21 -123 -8 -164 28 -41 36 -57 39 -224 46 -109 5 -127 9 -163
31 -22 15 -39 31 -36 38 2 7 35 14 85 17 44 3 84 9 88 12 15 16 -8 38 -76 74
-100 52 -151 112 -168 195 -7 35 -17 83 -23 106 -5 23 -9 62 -9 86 0 56 -17
81 -45 65z"/>
<path d="M3532 3207 c-147 -149 -313 -456 -407 -752 -86 -270 -120 -527 -111
-825 3 -102 8 -210 11 -239 12 -108 71 -374 91 -413 8 -14 14 -34 14 -43 0
-19 90 -211 119 -255 101 -150 123 -175 173 -201 50 -26 124 -26 138 0 27 51
-3 168 -88 344 -47 98 -66 152 -95 277 -35 147 -42 188 -67 375 -18 133 -25
577 -11 691 20 158 40 293 57 374 41 191 119 412 208 586 31 61 56 116 56 122
0 27 -39 9 -88 -41z"/>
<path d="M4200 450 c-49 -8 -309 -97 -325 -110 -13 -11 -84 -36 -155 -56 -65
-19 -138 -29 -321 -48 -154 -15 -183 -27 -193 -81 -9 -49 7 -73 69 -100 177
-79 446 -69 610 22 22 12 67 36 100 52 85 42 164 89 205 120 19 15 74 53 121
84 48 31 89 63 92 71 8 20 -19 46 -47 46 -13 0 -43 2 -67 4 -24 2 -64 1 -89
-4z"/>
<path d="M2925 420 c-55 -10 -165 -33 -245 -53 -242 -59 -354 -73 -490 -59
-63 6 -141 17 -173 24 -70 15 -87 3 -94 -66 -7 -60 9 -78 88 -100 33 -10 83
-29 112 -44 44 -22 68 -26 162 -30 122 -5 192 8 293 53 31 15 71 32 87 39 17
7 53 23 80 36 111 50 210 80 293 90 69 7 91 14 105 31 19 24 22 51 7 80 -14
24 -83 24 -225 -1z"/>
</g>
</svg>
