<?xml version="1.0" standalone="no"?>
<!DOCTYPE svg PUBLIC "-//W3C//DTD SVG 20010904//EN"
 "http://www.w3.org/TR/2001/REC-SVG-20010904/DTD/svg10.dtd">
<svg version="1.0" xmlns="http://www.w3.org/2000/svg"
 width="771.000000pt" height="983.000000pt" viewBox="0 0 771.000000 983.000000"
 preserveAspectRatio="xMidYMid meet">
<metadata>
Created by potrace 1.14, written by Peter Selinger 2001-2017
</metadata>
<g transform="translate(0.000000,983.000000) scale(0.100000,-0.100000)"
fill="#000000" stroke="none">
<path d="M3865 9820 c-161 -11 -182 -24 -205 -125 -24 -108 -65 -215 -126
-330 -86 -164 -120 -222 -199 -343 -27 -43 -72 -117 -101 -167 -28 -49 -63
-112 -79 -138 -20 -35 -24 -52 -17 -59 17 -17 236 -46 402 -54 l148 -7 49 46
c27 26 58 62 68 81 36 66 203 113 358 102 166 -11 300 -57 434 -148 61 -41 72
-52 62 -64 -6 -8 -17 -14 -25 -14 -25 0 -44 -31 -44 -74 0 -27 -6 -48 -15 -56
-21 -17 -19 -31 10 -70 14 -19 22 -36 17 -38 -5 -1 -35 9 -66 23 -164 75 -386
118 -806 155 -398 35 -480 48 -670 104 -207 60 -269 92 -372 192 -101 98 -167
140 -190 121 -26 -20 -38 -75 -38 -168 0 -138 34 -215 155 -354 130 -149 131
-153 47 -258 -32 -39 -74 -99 -94 -132 -20 -33 -56 -95 -82 -138 -25 -43 -46
-81 -46 -86 0 -5 -16 -44 -36 -87 -38 -81 -45 -103 -69 -214 -21 -90 -19 -132
6 -163 23 -30 80 -50 124 -45 36 4 42 16 91 173 40 129 97 280 145 381 16 35
29 65 29 68 0 14 109 178 159 239 63 76 184 170 284 218 l82 40 180 -7 c99 -3
218 -13 265 -21 47 -8 113 -18 147 -24 96 -14 384 -115 523 -182 117 -57 132
-68 225 -162 123 -124 176 -197 248 -345 69 -142 107 -280 114 -417 l6 -101
-29 -15 c-43 -22 -86 -72 -82 -94 3 -16 13 -18 111 -15 126 3 147 -4 147 -53
0 -57 -18 -66 -134 -63 l-101 3 -44 -35 c-67 -53 -111 -101 -133 -143 -10 -21
-35 -62 -54 -92 -18 -30 -34 -56 -34 -59 0 -18 -54 -62 -107 -87 -80 -38 -254
-192 -303 -267 -41 -65 -70 -145 -70 -195 0 -19 -6 -38 -12 -41 -7 -4 -31 -17
-53 -31 -22 -13 -62 -35 -90 -49 -27 -14 -68 -36 -90 -49 -22 -13 -74 -42
-115 -64 -41 -23 -103 -57 -137 -77 -35 -20 -89 -51 -121 -70 -81 -46 -121
-52 -169 -27 -21 12 -50 38 -66 58 -15 21 -52 71 -82 112 -30 41 -51 79 -48
84 3 5 20 6 39 3 49 -10 132 4 157 25 l22 19 -22 19 c-14 11 -47 22 -83 26
-111 13 -340 152 -468 284 -107 109 -178 240 -184 339 -3 52 -7 50 72 33 77
-17 220 -13 256 7 98 54 184 126 184 154 0 23 -34 24 -83 3 -56 -23 -226 -21
-307 3 -132 40 -222 108 -348 262 -59 73 -96 117 -142 173 -30 35 -70 50 -70
26 0 -9 25 -78 85 -234 26 -68 44 -123 70 -210 10 -33 25 -82 35 -110 10 -27
26 -90 35 -138 15 -72 26 -101 63 -155 25 -37 51 -81 58 -99 17 -38 18 -83 3
-83 -17 0 -104 51 -234 136 -120 80 -354 114 -540 79 -169 -31 -275 -67 -395
-133 -41 -23 -88 -48 -105 -56 -16 -7 -73 -44 -125 -81 -52 -38 -111 -79 -130
-92 -19 -13 -66 -53 -105 -87 -38 -35 -86 -76 -105 -92 -38 -31 -307 -274
-377 -339 -23 -22 -77 -71 -120 -109 -113 -101 -211 -204 -238 -251 -33 -58
-48 -136 -40 -203 17 -135 81 -403 151 -632 20 -63 40 -131 46 -150 6 -19 23
-69 39 -110 15 -41 34 -97 42 -125 9 -27 29 -86 45 -130 17 -44 51 -138 77
-210 63 -175 72 -192 108 -204 50 -18 96 -13 216 24 62 19 131 35 151 35 33 0
41 -5 61 -37 19 -30 23 -52 23 -108 0 -38 -3 -86 -7 -107 -14 -71 34 -84 188
-48 47 11 99 20 115 20 30 0 30 0 30 -60 0 -48 -4 -63 -22 -80 -12 -11 -27
-20 -34 -20 -16 0 -306 -90 -319 -99 -5 -4 -32 -16 -60 -26 -27 -9 -78 -30
-113 -46 -35 -16 -67 -29 -72 -29 -5 0 -24 -6 -42 -14 -122 -52 -164 -69 -248
-96 -52 -18 -135 -39 -185 -49 -85 -15 -90 -18 -90 -41 0 -25 1 -25 120 -31
66 -4 140 -12 165 -19 97 -25 316 -103 385 -136 49 -23 146 -54 171 -54 57 0
68 -22 32 -62 -38 -41 -104 -131 -127 -173 -32 -61 -60 -106 -126 -200 -33
-47 -71 -103 -85 -124 -14 -21 -58 -70 -98 -109 -75 -73 -85 -92 -53 -92 49 0
362 95 541 163 56 22 336 140 467 198 24 11 47 19 53 19 6 0 18 4 28 9 9 5 46
19 82 30 36 11 87 27 114 36 31 9 53 12 59 6 6 -6 -11 -43 -45 -98 -71 -113
-78 -127 -78 -156 0 -14 -9 -31 -20 -38 -20 -14 -105 -212 -142 -329 -11 -36
-26 -81 -33 -100 -69 -192 -119 -698 -93 -940 20 -194 17 -185 67 -188 60 -4
77 14 85 91 4 34 11 78 16 97 5 19 18 103 30 185 20 144 32 210 80 465 39 203
123 492 180 615 104 227 235 425 349 531 33 30 41 32 136 38 142 10 467 81
543 120 15 7 45 19 67 26 22 7 76 30 120 50 44 21 108 50 143 66 34 15 62 31
62 35 0 4 12 10 28 14 15 3 91 38 170 77 132 65 192 102 281 175 19 15 50 39
70 52 152 104 399 331 446 410 27 45 35 51 81 62 42 10 60 9 110 -6 82 -23
273 -141 274 -168 1 -7 1 -78 0 -159 -1 -132 1 -152 21 -190 24 -49 48 -72
104 -98 65 -31 146 -26 270 16 58 20 111 34 119 31 8 -3 26 -32 42 -64 15 -32
39 -73 53 -91 13 -18 35 -54 47 -80 13 -26 28 -54 33 -62 12 -18 111 -228 111
-235 0 -2 10 -28 23 -57 52 -118 76 -190 161 -483 51 -177 107 -437 166 -769
22 -126 76 -279 111 -321 42 -48 122 -41 132 12 3 15 12 48 22 72 14 38 14 57
5 137 -6 52 -16 108 -21 126 -5 18 -9 47 -9 65 0 18 -4 52 -10 75 -5 24 -17
86 -26 138 -9 52 -30 147 -46 210 -16 63 -35 140 -42 170 -8 30 -32 116 -56
190 -23 74 -47 150 -52 169 -5 19 -19 51 -29 70 -10 20 -19 40 -19 46 0 21
-73 183 -138 305 -36 69 -71 135 -76 147 -6 13 -14 23 -18 23 -5 0 -8 4 -8 10
0 5 -10 25 -22 44 -13 19 -36 58 -53 86 -16 29 -39 64 -51 78 -12 15 -47 65
-79 112 -32 47 -64 91 -72 98 -13 13 -18 50 -15 102 3 58 10 65 84 94 76 29
205 118 235 162 10 14 35 46 56 72 20 26 46 64 57 84 10 20 25 46 32 57 29 47
133 11 232 -78 69 -63 122 -72 238 -42 136 35 226 95 254 167 34 89 68 99 227
69 147 -28 176 -22 295 62 64 46 122 121 162 211 19 43 21 59 15 172 -7 140
-20 213 -41 231 -8 6 -31 12 -52 13 -43 1 -45 -9 -17 -84 12 -31 17 -72 16
-130 -2 -151 -50 -239 -174 -323 -37 -25 -49 -28 -93 -24 -53 5 -82 18 -144
63 -30 22 -42 25 -82 20 -61 -7 -86 -24 -139 -96 -24 -33 -44 -60 -44 -60 0 0
-25 -9 -55 -21 -98 -37 -144 -49 -186 -49 -37 0 -44 4 -70 41 l-28 41 -63 -7
c-83 -9 -121 5 -175 64 -23 26 -62 69 -86 95 -24 27 -50 46 -59 44 -22 -4 -44
-69 -54 -163 -23 -214 -38 -260 -110 -339 -62 -68 -94 -84 -219 -113 -84 -19
-246 -12 -298 14 -64 32 -85 79 -69 149 7 26 3 35 -33 71 -60 61 -51 101 11
49 34 -29 136 -69 156 -62 18 7 56 93 49 111 -3 8 -18 17 -33 21 -98 22 -109
27 -153 75 -48 52 -60 58 -80 34 -35 -42 -40 7 -9 98 21 66 93 230 160 367 54
112 76 244 44 270 -28 23 -48 7 -65 -54 -20 -71 -39 -87 -78 -66 -43 24 -63
78 -73 196 -4 58 -11 114 -14 124 -9 30 -35 24 -46 -10 -25 -69 -62 -14 -75
108 -5 58 -10 72 -22 70 -19 -4 -40 -61 -41 -114 -1 -55 25 -125 99 -268 41
-79 58 -122 52 -128 -14 -14 -119 -38 -169 -38 -84 0 -138 38 -148 104 -11 72
-25 94 -73 118 -26 14 -56 39 -71 62 -23 35 -26 49 -26 130 0 82 3 96 29 144
17 29 38 58 48 63 26 14 81 98 74 115 -4 11 -27 14 -98 14 -91 0 -186 18 -212
39 -7 6 -25 36 -41 67 -47 93 -45 154 12 383 25 100 73 143 245 215 20 9 39
16 42 16 4 0 31 18 61 40 62 46 70 75 33 110 -43 40 -81 53 -168 58 -47 2 -93
9 -102 14 -27 13 -24 88 6 146 29 56 45 72 113 106 29 14 74 39 100 56 34 22
59 30 91 30 55 0 75 -11 102 -55 39 -62 90 -35 90 49 0 40 -5 52 -40 90 l-40
43 15 44 c23 63 60 123 96 153 38 32 153 86 183 86 11 0 55 -25 96 -56 87 -63
113 -73 149 -53 21 12 26 23 28 59 4 105 12 128 65 185 27 30 61 58 74 61 13
3 28 12 34 20 16 18 103 42 194 54 40 5 78 10 82 11 5 1 30 -1 55 -5 58 -10
69 -28 79 -133 7 -76 11 -88 37 -115 39 -38 61 -32 92 26 34 64 147 177 216
215 99 54 282 72 350 34 31 -18 73 -85 79 -127 4 -24 14 -50 21 -56 8 -7 15
-18 15 -25 0 -23 47 -35 101 -25 172 33 298 -13 356 -130 24 -47 28 -70 31
-160 4 -110 -7 -171 -38 -205 -9 -11 -34 -44 -54 -74 -29 -42 -36 -63 -36
-100 0 -26 5 -52 12 -59 19 -19 70 -14 120 13 56 30 128 33 206 10 46 -14 57
-23 90 -72 34 -51 37 -64 41 -136 4 -105 -12 -142 -80 -180 -64 -36 -80 -70
-70 -153 8 -67 34 -112 78 -134 57 -29 102 -71 114 -107 7 -21 10 -67 7 -112
-6 -97 -34 -154 -99 -196 -75 -48 -102 -142 -56 -196 12 -15 48 -43 79 -63 87
-55 106 -109 71 -198 -22 -57 -43 -83 -106 -132 -107 -83 -137 -122 -137 -177
0 -52 17 -62 77 -48 173 41 286 171 300 345 7 76 -20 205 -51 254 -42 64 -41
69 23 161 71 102 85 147 76 249 -7 90 -35 164 -91 245 -23 33 -44 72 -48 86
-6 27 8 79 43 154 35 76 43 116 37 167 -18 134 -175 350 -293 402 -23 10 -44
24 -46 30 -3 6 -1 37 4 69 7 45 5 76 -12 154 -12 54 -26 104 -32 111 -6 7 -25
41 -43 75 -45 86 -131 193 -170 212 -18 8 -81 20 -141 25 -195 18 -173 8 -284
132 -71 79 -131 102 -249 95 -82 -5 -99 -10 -222 -66 -26 -11 -53 -21 -60 -21
-7 0 -35 -12 -63 -25 -63 -31 -86 -31 -133 0 -20 13 -80 35 -132 49 -144 37
-145 38 -163 93 -8 26 -18 64 -22 83 -18 92 -131 315 -216 426 -22 28 -39 58
-39 66 0 8 9 40 21 69 83 214 116 260 402 563 44 47 47 54 43 92 -3 23 -11 61
-19 85 -8 24 -20 69 -27 99 -17 73 -89 226 -142 302 -24 33 -53 75 -64 92 -35
52 -160 180 -232 239 -156 127 -306 218 -452 274 -182 69 -198 74 -452 118
-99 17 -400 26 -543 15z m565 -200 c153 -12 268 -31 361 -61 67 -21 186 -76
194 -89 3 -5 -11 -28 -31 -52 -50 -59 -97 -160 -125 -265 -25 -99 -31 -111
-62 -115 -18 -2 -22 -10 -23 -44 -1 -63 -75 -166 -117 -166 -23 0 -28 2 -224
51 -159 40 -248 53 -360 50 -51 -2 -95 0 -98 3 -4 3 4 28 18 55 13 26 32 80
42 118 34 134 55 188 94 239 50 66 56 79 71 151 16 72 50 122 88 128 15 2 29
5 32 5 3 1 66 -3 140 -8z m930 -2105 c15 -33 44 -111 63 -173 31 -99 34 -114
20 -127 -22 -23 -52 -19 -57 8 -3 12 -7 51 -9 87 -5 61 -54 240 -79 285 l-11
20 23 -20 c13 -11 35 -47 50 -80z m-2373 -1637 c33 -32 137 -170 163 -217 8
-16 8 -26 1 -35 -10 -12 -91 -26 -171 -30 l-35 -1 -7 115 c-4 63 -9 134 -12
158 -7 53 11 56 61 10z m1054 -58 c-17 -28 -31 -55 -31 -60 0 -6 -11 -43 -25
-83 -31 -86 -53 -242 -57 -391 -4 -142 -7 -144 -119 -88 -46 23 -115 62 -154
87 -206 133 -336 139 -459 22 -104 -101 -195 -177 -210 -177 -11 0 -16 10 -16
33 0 54 -29 148 -61 200 -31 51 -32 83 -1 75 9 -3 64 3 122 13 150 26 360 35
446 19 75 -13 168 -55 226 -101 45 -35 66 -37 74 -5 12 50 1 69 -76 123 -41
30 -90 63 -107 74 -18 12 -33 25 -33 30 0 6 15 17 33 25 17 8 39 18 47 23 40
25 145 69 151 65 5 -3 7 -53 6 -113 -2 -113 7 -141 43 -141 27 0 36 17 60 114
21 86 22 111 4 202 -5 25 -2 32 18 42 28 14 61 35 68 42 13 15 75 38 78 30 2
-6 -10 -33 -27 -60z m-478 -620 c117 -57 177 -101 177 -130 0 -9 -16 -40 -35
-70 -19 -30 -35 -59 -35 -63 0 -5 -11 -23 -24 -40 -13 -18 -38 -59 -56 -92
-18 -33 -51 -84 -74 -114 -22 -30 -57 -75 -76 -101 -55 -73 -86 -102 -105 -98
-30 5 -137 194 -191 337 -32 83 -55 191 -44 211 4 8 45 49 89 90 91 85 123 97
239 99 61 1 82 -4 135 -29z m639 -255 c-1 -11 -5 -67 -8 -125 -6 -98 -4 -109
20 -162 25 -55 40 -70 121 -115 18 -9 20 -20 18 -89 l-2 -79 82 -87 c91 -96
114 -108 187 -89 25 7 64 9 87 5 28 -4 60 -1 97 11 31 10 59 16 61 13 3 -3 -2
-22 -11 -44 -16 -39 -33 -56 -85 -84 -16 -8 -66 -72 -116 -146 -82 -122 -175
-249 -233 -319 -59 -71 -321 -332 -385 -383 -38 -31 -92 -78 -120 -105 -27
-26 -63 -55 -78 -63 -16 -9 -67 -43 -113 -77 -182 -133 -346 -228 -635 -367
-70 -33 -146 -66 -170 -74 -24 -8 -82 -28 -129 -46 -172 -64 -430 -101 -472
-67 -10 8 -18 35 -21 77 -3 36 -17 102 -32 147 -31 100 -36 166 -13 190 10 10
39 18 73 21 52 4 58 8 79 41 30 46 46 60 126 104 36 19 76 47 90 62 24 26 25
32 26 168 1 78 2 148 3 155 2 17 61 52 90 52 13 0 54 20 92 45 38 25 71 45 74
45 9 0 122 79 194 135 64 50 110 89 231 193 104 90 289 280 365 376 39 48 84
105 101 125 47 56 119 161 144 211 13 25 33 59 45 75 27 37 140 243 149 273 6
19 14 23 39 20 25 -2 31 -7 29 -23z m-2436 -85 c12 -44 64 -145 155 -300 24
-41 60 -109 79 -150 30 -66 34 -85 34 -160 1 -52 -5 -99 -13 -120 -21 -50 -70
-110 -90 -110 -23 0 -191 194 -279 322 -13 18 -51 72 -86 119 -78 107 -146
237 -146 279 0 45 44 96 105 118 117 44 142 51 185 49 44 -2 45 -3 56 -47z
m608 -559 c24 -25 28 -40 37 -127 11 -105 7 -217 -9 -237 -36 -46 -84 -154
-89 -202 -6 -53 -4 -57 39 -113 111 -144 142 -212 152 -339 9 -106 -12 -119
-150 -90 -60 13 -104 8 -104 -12 0 -5 7 -40 16 -77 8 -37 11 -70 7 -75 -4 -4
-55 -13 -113 -19 -81 -8 -118 -17 -160 -39 l-56 -29 -179 7 c-174 7 -181 8
-221 34 -34 23 -44 38 -62 95 -12 37 -22 76 -22 87 0 12 -9 46 -19 76 -17 48
-18 61 -8 102 10 40 20 52 72 88 149 104 305 301 305 385 0 27 -28 14 -63 -28
-69 -85 -186 -197 -267 -256 -59 -43 -167 -112 -176 -112 -4 0 -26 -9 -48 -19
-77 -36 -116 -50 -129 -45 -16 7 -76 131 -87 179 -11 47 -5 61 28 74 32 13
203 123 256 166 121 96 228 190 279 244 32 33 61 61 64 61 3 0 49 -37 102 -82
135 -114 187 -134 282 -108 79 22 116 79 208 320 28 72 57 120 74 120 7 0 26
-13 41 -29z m2396 -496 c0 -12 9 -48 19 -81 11 -32 22 -83 26 -111 6 -48 5
-53 -12 -53 -37 0 -67 74 -71 177 -3 51 -1 100 3 110 6 17 7 17 21 -1 8 -11
14 -29 14 -41z m230 -528 c70 -42 133 -67 190 -76 l45 -7 -3 -39 c-5 -55 -23
-85 -94 -154 -78 -74 -132 -111 -163 -111 -28 0 -42 17 -26 33 19 19 12 54
-16 88 -27 32 -28 36 -27 154 0 67 4 127 8 133 11 18 27 15 86 -21z m-3622
-390 c59 -55 112 -87 143 -87 13 0 46 -7 73 -15 66 -20 115 -19 233 5 127 26
218 26 259 1 35 -21 56 -83 73 -222 18 -140 19 -137 -36 -144 -103 -14 -268
-62 -430 -126 -90 -35 -386 -179 -518 -252 -49 -27 -107 -58 -127 -68 -20 -10
-39 -23 -42 -28 -9 -14 -113 -44 -130 -38 -16 6 -13 29 8 57 7 8 18 33 25 55
36 110 212 350 338 462 140 124 139 124 101 144 -29 16 -89 13 -134 -6 -19 -8
-56 -17 -82 -20 -87 -11 -480 63 -489 92 -2 6 13 17 34 24 21 6 55 23 75 36
21 12 42 23 47 23 5 0 31 15 57 33 104 70 249 115 377 116 l98 1 47 -43z"/>
<path d="M4285 4290 c-11 -13 -15 -27 -11 -43 8 -34 78 -126 113 -148 34 -23
101 -25 109 -5 8 20 -71 140 -119 181 -46 40 -66 43 -92 15z"/>
<path d="M4145 4161 c-78 -42 -74 -62 33 -186 19 -22 84 -73 116 -92 27 -15
56 0 56 29 0 12 -12 34 -26 49 -19 20 -29 46 -40 109 -22 126 -45 141 -139 91z"/>
<path d="M3880 4077 c-66 -26 -130 -86 -130 -123 0 -16 24 -58 63 -110 34 -47
76 -104 93 -127 17 -23 50 -57 73 -74 75 -58 145 -34 85 28 -40 42 -40 103 -1
178 57 107 43 197 -36 234 -46 22 -80 21 -147 -6z"/>
<path d="M3351 3604 c-26 -19 -25 -38 8 -124 26 -68 26 -100 1 -150 -11 -22
-20 -51 -20 -65 0 -69 70 -129 149 -128 52 0 164 49 169 74 2 13 -27 81 -95
214 -45 89 -138 195 -170 195 -10 0 -29 -7 -42 -16z"/>
<path d="M3161 3215 c-29 -19 -59 -35 -66 -35 -24 0 -37 -28 -30 -62 10 -47
61 -133 90 -152 56 -37 99 0 76 65 -21 60 -9 65 50 17 34 -27 43 -30 67 -22
15 5 28 18 30 29 1 11 -20 58 -46 105 -46 79 -52 85 -84 88 -26 2 -47 -6 -87
-33z"/>
<path d="M2783 3204 c-49 -24 -68 -51 -68 -95 0 -30 7 -46 31 -70 27 -27 34
-30 53 -19 19 10 22 19 20 66 -3 60 4 73 29 57 15 -9 17 -30 14 -185 -4 -209
-3 -211 81 -185 99 31 186 102 158 130 -7 7 -24 6 -55 -3 -24 -7 -50 -9 -56
-5 -8 5 -10 43 -9 119 3 103 1 115 -20 144 -21 29 -40 38 -121 56 -14 4 -39
-1 -57 -10z"/>
<path d="M3276 8381 c-13 -20 8 -39 85 -75 l81 -37 33 -73 c18 -40 34 -81 36
-91 7 -34 28 -27 58 22 36 56 38 90 11 141 -32 61 -52 80 -108 101 -55 22
-186 30 -196 12z"/>
<path d="M4142 8152 c-91 -33 -95 -55 -12 -66 78 -10 152 -51 261 -143 27 -24
53 -43 58 -43 22 0 29 28 22 88 -8 70 -26 100 -88 144 -36 26 -53 32 -115 35
-54 3 -87 -1 -126 -15z"/>
<path d="M2898 7979 c-10 -6 -18 -19 -18 -30 0 -25 32 -89 57 -111 29 -26 105
-58 140 -58 53 0 143 38 156 67 20 45 1 57 -104 64 -96 7 -158 25 -194 59 -15
14 -24 16 -37 9z"/>
<path d="M3838 7663 c-42 -47 -6 -189 61 -246 26 -21 43 -27 81 -27 88 0 145
18 194 62 51 44 53 49 29 74 -14 14 -32 16 -117 12 l-101 -5 -30 31 c-16 18
-46 51 -65 75 -34 42 -35 43 -52 24z"/>
<path d="M3222 7552 c-56 -35 -84 -92 -84 -171 0 -63 16 -102 56 -140 24 -22
34 -25 102 -22 41 1 85 6 98 10 36 14 86 61 86 82 0 21 -15 26 -110 33 -54 4
-68 9 -87 31 -29 33 -29 78 -3 128 42 77 19 97 -58 49z"/>
<path d="M2910 7316 c-103 -39 -180 -57 -280 -65 -57 -5 -75 -10 -75 -21 0
-48 163 -59 270 -19 123 46 223 109 209 131 -9 13 -36 8 -124 -26z"/>
<path d="M3622 7133 c7 -53 105 -217 160 -269 104 -98 138 -109 216 -74 49 22
57 50 13 50 -113 0 -228 94 -338 277 -12 20 -29 41 -39 46 -15 9 -16 5 -12
-30z"/>
<path d="M3200 6810 c-19 -36 25 -137 88 -207 35 -37 165 -118 242 -150 128
-53 382 -6 563 104 96 58 207 149 207 170 0 23 -28 14 -177 -59 l-148 -73
-120 2 c-97 1 -138 6 -215 28 -52 15 -106 33 -120 41 -14 7 -57 28 -96 47 -39
19 -95 53 -125 76 -60 46 -83 51 -99 21z"/>
<path d="M5469 6743 c-25 -6 -69 -102 -69 -149 0 -75 72 -146 99 -96 5 10 15
67 21 126 14 125 9 135 -51 119z"/>
<path d="M6270 6649 c-25 -4 -72 -8 -105 -9 -33 0 -87 -7 -120 -15 -104 -24
-137 -84 -165 -297 -5 -43 -19 -94 -30 -115 -11 -21 -20 -51 -19 -68 2 -78 97
-230 179 -286 33 -23 42 -24 178 -21 109 2 151 -1 178 -13 54 -22 122 -19 165
8 50 31 131 127 147 173 70 215 68 283 -12 372 -20 22 -36 42 -36 46 0 3 11
24 25 46 46 74 30 121 -60 169 -35 18 -55 21 -160 20 -66 -1 -140 -5 -165 -10z
m224 -62 c16 -12 17 -16 3 -49 -22 -52 -30 -114 -18 -136 6 -11 34 -36 62 -57
46 -33 50 -39 44 -63 -4 -15 -7 -39 -6 -55 2 -34 -20 -77 -58 -114 -43 -41
-48 -68 -16 -89 70 -46 -27 -64 -107 -19 -26 15 -69 27 -104 31 l-59 6 -20
-37 c-28 -53 -70 -69 -140 -55 -51 11 -54 13 -75 62 -28 64 -21 132 21 221 34
73 37 128 9 164 -33 43 -24 85 27 118 19 13 51 19 113 21 56 3 107 11 145 25
33 12 80 25 105 29 25 4 48 8 51 9 3 0 13 -5 23 -12z"/>
<path d="M4815 5921 c-30 -13 -76 -69 -86 -105 -5 -17 -15 -75 -24 -130 -17
-107 -38 -158 -79 -193 -26 -23 -30 -34 -26 -88 5 -76 66 -155 175 -224 52
-33 70 -39 136 -45 41 -3 104 -15 140 -26 77 -24 137 -25 187 -4 70 29 129
103 143 180 6 32 18 53 43 74 18 17 41 46 51 66 22 46 12 72 -67 168 -63 77
-72 112 -46 181 9 28 8 36 -8 58 -10 14 -34 35 -52 47 -31 22 -38 23 -172 16
-125 -6 -146 -4 -197 14 -61 21 -86 24 -118 11z m396 -91 c20 -11 26 -45 9
-55 -16 -10 -10 -96 9 -139 15 -34 24 -41 71 -55 47 -14 55 -20 58 -43 2 -20
-4 -31 -23 -44 -24 -15 -34 -16 -84 -6 -32 7 -73 12 -92 12 -28 0 -38 5 -47
25 -15 32 -55 34 -76 3 -18 -26 -21 -86 -5 -121 13 -29 105 -78 174 -92 69
-14 72 -40 9 -77 -25 -16 -53 -28 -62 -28 -9 0 -35 17 -57 38 -76 70 -96 82
-137 82 -27 0 -50 -8 -72 -25 -40 -31 -91 -33 -106 -6 -27 52 -3 151 37 151
20 0 116 31 131 43 6 5 12 23 12 39 0 30 -19 53 -103 125 -25 21 -37 40 -37
57 0 24 4 26 33 25 46 -1 110 12 127 26 18 15 98 57 125 66 32 11 85 10 106
-1z"/>
<path d="M7079 5517 c-45 -30 -46 -48 -9 -102 34 -49 59 -57 97 -30 26 18 53
70 53 101 0 52 -82 71 -141 31z"/>
<path d="M5573 5079 c-24 -12 -43 -25 -43 -30 0 -4 -8 -13 -19 -18 -15 -8 -26
-3 -57 24 -22 19 -43 34 -49 32 -5 -2 -14 -20 -19 -41 -7 -32 -5 -43 14 -68
24 -32 24 -58 0 -175 -11 -50 -11 -67 0 -92 7 -17 16 -31 19 -31 4 0 32 -18
61 -40 61 -45 105 -51 180 -25 23 8 68 15 99 15 35 0 65 6 77 15 10 8 24 15
31 15 6 0 54 26 105 58 l93 58 -1 55 c0 36 -9 72 -26 109 -15 30 -30 68 -33
83 -4 15 -12 30 -18 34 -17 10 -248 42 -312 43 -42 0 -73 -6 -102 -21z m301
-110 c37 -41 46 -58 46 -88 0 -32 -7 -42 -47 -76 l-48 -40 -93 3 c-81 2 -99 0
-128 -19 -29 -18 -35 -19 -40 -5 -10 26 15 81 52 115 34 30 36 34 30 76 l-7
45 64 0 c51 0 67 4 82 20 27 29 38 25 89 -31z"/>
<path d="M6302 4853 c-30 -14 -132 -125 -132 -142 0 -5 -26 -26 -58 -49 -84
-58 -116 -126 -116 -242 -1 -73 3 -92 26 -136 55 -104 114 -136 318 -169 52
-9 113 -24 135 -34 22 -10 48 -21 57 -24 24 -8 100 16 138 43 39 28 100 110
138 186 16 32 36 73 45 89 26 50 13 94 -49 161 -56 62 -68 100 -43 146 28 51
-36 123 -134 150 -107 29 -147 -5 -57 -48 66 -31 74 -44 59 -92 -22 -74 13
-145 81 -167 11 -3 23 -17 26 -31 8 -31 -17 -61 -60 -72 -22 -6 -36 -19 -50
-47 -19 -38 -19 -38 2 -79 27 -51 27 -58 0 -84 -52 -48 -105 -46 -133 7 -20
40 -66 52 -202 50 -152 -1 -183 17 -166 103 7 40 58 108 81 108 10 0 28 9 42
20 23 18 25 26 28 122 2 57 9 109 14 116 7 8 38 12 88 12 84 0 104 11 98 52
-2 16 -17 30 -48 46 -52 26 -83 27 -128 5z"/>
<path d="M6396 4549 c-45 -36 -32 -110 29 -161 31 -26 70 -22 108 12 46 40 64
83 48 116 -23 52 -136 72 -185 33z"/>
<path d="M5177 4453 c-4 -4 -4 -28 -1 -54 4 -32 -1 -79 -16 -149 -22 -102 -22
-166 1 -181 6 -3 23 -3 38 1 17 5 42 1 74 -11 56 -22 94 -24 162 -5 80 21 115
43 115 71 0 30 -10 33 -157 38 -127 4 -145 12 -136 60 8 43 19 48 83 41 36 -4
76 0 116 10 34 9 97 16 141 16 48 0 84 5 91 12 7 7 12 36 12 65 l0 52 -117 -3
c-78 -2 -133 -9 -163 -19 -25 -9 -69 -17 -99 -17 -50 0 -57 3 -91 40 -39 42
-42 44 -53 33z"/>
<path d="M5000 3927 c0 -8 3 -23 6 -32 17 -44 185 -85 213 -51 22 26 6 43 -61
64 -93 31 -158 38 -158 19z"/>
<path d="M3735 2022 c-22 -9 -51 -24 -65 -33 -14 -9 -57 -37 -97 -62 -62 -40
-80 -58 -130 -134 -115 -177 -213 -382 -290 -603 -76 -218 -102 -317 -158
-610 -25 -135 -50 -256 -53 -269 -10 -36 -66 -50 -233 -60 -165 -10 -202 -21
-207 -63 -5 -39 33 -70 110 -94 121 -37 356 -17 410 35 18 18 72 224 83 316 4
33 14 103 22 155 7 52 18 124 24 159 30 201 76 361 104 361 18 0 69 -95 101
-189 37 -104 118 -272 143 -295 35 -32 69 -11 110 70 86 168 177 264 251 264
24 0 165 -116 253 -209 33 -33 62 -61 65 -61 20 0 116 170 158 278 26 68 52
121 57 119 6 -2 18 -30 27 -63 10 -33 23 -70 29 -82 6 -11 18 -51 26 -89 36
-159 74 -352 80 -408 18 -165 40 -226 90 -259 22 -14 49 -15 224 -7 197 9 200
9 243 38 40 26 43 32 46 77 4 59 -18 90 -57 81 -34 -7 -285 -27 -336 -26 -48
0 -72 27 -80 91 -25 208 -51 350 -85 465 -10 33 -26 87 -35 120 -20 67 -65
187 -97 255 -11 25 -31 68 -43 95 -46 102 -218 343 -316 444 -9 9 -62 60 -117
114 l-100 97 -59 -1 c-32 0 -76 -8 -98 -17z"/>
<path d="M6530 515 c-114 -17 -213 -40 -280 -64 -33 -11 -107 -23 -185 -30
-71 -6 -194 -16 -271 -22 l-141 -12 -113 38 c-84 28 -130 38 -183 39 -92 1
-96 -13 -25 -85 82 -82 185 -130 342 -158 113 -21 584 -7 711 20 94 20 238 81
273 115 27 27 32 40 32 77 0 49 -29 98 -58 96 -9 -1 -55 -7 -102 -14z"/>
<path d="M2305 340 c-372 -112 -737 -150 -1095 -115 l-183 18 -29 -32 c-49
-54 -34 -161 25 -180 71 -23 184 -33 287 -27 58 4 177 11 265 16 129 6 174 13
230 33 39 13 117 38 175 56 175 53 360 125 433 168 40 24 63 62 54 87 -8 21
-12 21 -162 -24z"/>
</g>
</svg>
