<?xml version="1.0" standalone="no"?>
<!DOCTYPE svg PUBLIC "-//W3C//DTD SVG 20010904//EN"
 "http://www.w3.org/TR/2001/REC-SVG-20010904/DTD/svg10.dtd">
<svg version="1.0" xmlns="http://www.w3.org/2000/svg"
 width="881.000000pt" height="941.000000pt" viewBox="0 0 881.000000 941.000000"
 preserveAspectRatio="xMidYMid meet">
<metadata>
Created by potrace 1.14, written by Peter Selinger 2001-2017
</metadata>
<g transform="translate(0.000000,941.000000) scale(0.100000,-0.100000)"
fill="#000000" stroke="none">
<path d="M5088 9393 c-41 -7 -55 -29 -33 -53 36 -40 91 -49 375 -65 312 -16
686 -23 1880 -31 960 -6 1091 -11 1142 -42 46 -28 56 -54 52 -132 -2 -36 0
-121 6 -190 5 -69 12 -388 15 -710 7 -702 7 -3195 0 -3680 -3 -190 -7 -500
-10 -690 -3 -190 -7 -448 -10 -575 -3 -126 -11 -522 -18 -880 -16 -811 -15
-776 -22 -783 -16 -17 -322 -22 -880 -15 -960 11 -1143 8 -1449 -24 -166 -17
-186 -25 -217 -85 -32 -62 -24 -82 36 -90 231 -31 878 -58 1379 -58 517 0
1363 47 1396 77 28 26 39 429 45 1663 3 646 11 1360 17 1585 7 226 13 682 12
1015 0 333 -1 1210 -1 1950 0 740 -1 1386 -1 1435 -2 159 -54 253 -172 308
l-65 31 -425 7 c-234 4 -778 10 -1210 13 -432 4 -843 9 -915 11 -214 7 -898
13 -927 8z"/>
<path d="M3655 9325 c-194 -15 -324 -30 -375 -45 -19 -5 -61 -15 -93 -21 -78
-14 -305 -89 -397 -132 -286 -132 -314 -150 -346 -226 -12 -29 -12 -40 2 -88
9 -30 27 -79 39 -108 13 -29 31 -88 40 -131 8 -44 22 -95 30 -115 7 -20 17
-67 20 -105 4 -38 11 -98 16 -134 5 -36 9 -133 9 -217 0 -184 -2 -181 110
-152 41 11 110 29 153 41 45 12 87 30 98 41 24 26 25 81 4 171 l-15 66 32 43
c53 70 116 115 223 156 124 49 190 62 301 63 97 0 104 -4 104 -64 0 -74 44
-138 94 -138 17 0 67 10 111 21 107 29 145 34 145 20 0 -6 -6 -13 -12 -15 -7
-2 -29 -9 -48 -16 -19 -6 -78 -27 -130 -45 -52 -18 -134 -51 -181 -73 -47 -22
-97 -43 -110 -47 -13 -4 -48 -18 -76 -31 -29 -13 -77 -35 -105 -47 -29 -13
-71 -32 -93 -42 -65 -29 -272 -94 -384 -121 -121 -29 -224 -42 -371 -46 -90
-2 -118 2 -195 25 -106 32 -154 34 -186 8 l-23 -18 26 -54 c14 -30 35 -63 47
-73 11 -11 21 -23 21 -27 0 -15 132 -168 149 -173 9 -3 43 -10 75 -15 122 -22
146 -95 105 -311 -27 -144 -31 -214 -17 -270 8 -30 12 -63 10 -73 -4 -20 -19
-20 -126 -1 -39 7 -59 -6 -50 -31 9 -22 99 -82 165 -109 56 -24 81 -28 171
-29 111 -2 138 7 138 44 0 11 -16 29 -35 41 -48 31 -55 62 -62 264 -5 156 -4
180 17 265 24 101 70 206 116 263 25 31 35 36 70 36 49 0 95 -15 146 -47 21
-13 44 -23 53 -23 25 0 17 39 -18 83 -19 23 -37 50 -40 60 -8 21 8 57 24 57 6
0 25 6 42 14 18 8 57 21 87 29 30 8 80 23 110 32 60 18 88 25 200 50 172 39
716 36 876 -4 91 -23 222 -79 243 -105 14 -17 10 -17 -75 -11 -94 8 -134 -1
-134 -29 0 -8 16 -47 35 -87 80 -170 109 -427 86 -763 -8 -126 -8 -131 16
-185 34 -75 34 -166 0 -231 -131 -250 -154 -282 -228 -327 -108 -66 -155 -116
-142 -150 8 -21 30 -15 75 17 45 33 91 37 95 10 5 -26 -12 -41 -66 -55 -82
-21 -108 -55 -80 -107 9 -16 7 -24 -10 -42 -30 -32 -14 -50 38 -41 40 7 41 6
41 -22 0 -15 -4 -44 -10 -63 -13 -47 -35 -209 -65 -475 -55 -494 -78 -717 -77
-758 1 -11 -12 -26 -29 -35 -17 -9 -72 -43 -122 -74 -78 -49 -99 -58 -139 -58
-38 0 -52 5 -76 29 -16 16 -37 45 -46 65 -35 73 -88 91 -179 60 -63 -21 -76
-15 -72 33 2 21 9 139 15 263 6 124 15 277 20 340 6 63 11 153 11 200 1 47 6
99 10 116 10 37 100 124 128 124 21 0 79 -54 141 -130 64 -79 133 -104 147
-52 8 28 10 203 4 335 -4 99 -13 109 -90 103 -31 -3 -144 -10 -251 -17 -107
-6 -200 -15 -205 -19 -6 -5 -17 -26 -24 -47 -17 -47 -39 -73 -62 -73 -14 0
-19 12 -24 65 -13 113 -83 184 -189 188 l-41 2 -27 -80 c-22 -68 -69 -358 -70
-440 -1 -94 -25 -108 -160 -94 -243 24 -448 67 -448 93 0 8 18 38 41 66 104
132 114 258 39 510 -39 130 -43 171 -25 275 8 50 15 115 15 146 0 53 -2 59
-40 93 -59 53 -83 49 -180 -33 -32 -28 -63 -67 -81 -103 -25 -49 -29 -69 -29
-137 0 -95 11 -128 46 -142 38 -14 47 -1 60 91 12 80 50 165 80 177 25 9 27
-5 5 -40 -24 -39 -29 -144 -10 -194 29 -76 59 -199 59 -245 0 -37 -7 -63 -26
-95 -29 -51 -44 -48 -44 8 0 156 -93 268 -286 345 -60 24 -121 46 -137 49 -28
7 -36 32 -17 51 6 6 13 33 16 60 11 97 -53 167 -164 181 -43 5 -57 2 -96 -21
-25 -15 -50 -35 -56 -46 -17 -33 -11 -102 17 -178 32 -90 26 -136 -22 -164
-43 -24 -86 -10 -150 48 -27 26 -66 54 -85 63 -19 9 -47 25 -62 35 -35 23
-109 18 -228 -14 l-84 -23 -65 22 c-59 20 -66 20 -87 6 -21 -13 -23 -21 -19
-58 12 -89 16 -100 44 -133 76 -85 188 -279 259 -446 23 -53 61 -129 84 -170
24 -40 49 -85 55 -101 7 -15 34 -42 60 -60 127 -86 183 -165 204 -281 17 -102
1 -226 -72 -541 -33 -144 -35 -189 -10 -214 28 -28 50 -27 100 7 40 27 87 87
130 163 11 19 27 41 35 48 20 17 46 7 46 -16 1 -26 38 -104 62 -130 12 -13 30
-23 40 -23 10 0 20 9 22 23 3 12 10 45 16 72 16 78 37 210 51 325 18 151 19
154 75 145 26 -3 52 -9 59 -11 7 -3 26 7 44 21 44 37 43 83 -2 117 -46 35
-134 82 -202 107 -170 64 -224 84 -265 98 -25 9 -64 31 -88 49 -24 18 -47 34
-51 36 -31 12 -241 320 -241 353 0 3 -23 56 -51 117 -57 126 -106 208 -163
276 -36 43 -38 47 -18 50 37 6 102 -38 195 -132 51 -50 116 -111 144 -135 34
-28 53 -51 53 -65 0 -33 47 -194 64 -221 24 -36 60 -51 213 -91 401 -103 390
-103 478 -22 50 46 105 45 105 -2 0 -9 10 -30 22 -46 28 -35 30 -122 5 -169
-9 -16 -17 -33 -17 -38 0 -4 -18 -45 -40 -92 -22 -46 -47 -104 -56 -127 -74
-202 -95 -292 -76 -333 10 -21 18 -26 44 -23 29 3 34 10 83 118 52 113 120
301 186 510 18 58 37 111 42 118 15 19 53 14 85 -13 27 -23 28 -27 22 -77 -4
-29 -13 -71 -19 -93 -5 -22 -20 -83 -31 -135 -26 -122 -68 -301 -85 -365 -49
-185 -51 -196 -33 -209 9 -6 60 -22 115 -35 54 -13 116 -29 138 -35 22 -7 82
-21 134 -32 51 -10 96 -25 98 -31 3 -7 -5 -50 -17 -96 -21 -78 -47 -185 -56
-236 -3 -13 -40 -60 -82 -105 -112 -118 -186 -205 -195 -229 -4 -12 -11 -24
-15 -27 -18 -13 -181 -241 -237 -331 -12 -19 -56 -87 -96 -147 -16 -24 -29
-47 -29 -52 0 -5 -17 -36 -37 -67 -40 -63 -93 -163 -93 -177 0 -5 -13 -36 -29
-70 -70 -148 -196 -473 -205 -531 -4 -22 -15 -62 -26 -90 -10 -27 -26 -90 -35
-140 -10 -49 -23 -112 -31 -140 -17 -62 -33 -199 -44 -375 -9 -153 -13 -145
77 -185 69 -31 181 -56 403 -90 167 -25 246 -44 264 -64 13 -15 16 -42 13
-174 -2 -181 -6 -175 103 -200 36 -8 108 -26 160 -40 280 -72 738 -104 1060
-72 139 13 163 20 212 64 39 34 52 61 104 214 29 85 50 126 94 185 31 43 101
144 156 225 54 82 123 183 152 225 29 42 73 108 97 145 25 38 61 85 79 105 19
20 58 65 87 99 93 107 288 273 321 273 19 0 35 -38 44 -105 4 -27 13 -67 20
-89 8 -21 14 -53 14 -70 0 -18 6 -41 14 -51 26 -35 47 -3 122 185 19 47 37
100 40 118 4 18 10 34 14 37 5 3 14 22 20 43 21 68 104 235 119 240 12 4 34
-46 45 -98 10 -54 34 -246 41 -340 10 -125 31 -240 48 -257 12 -12 15 -11 25
14 6 15 18 64 27 108 9 44 23 107 31 140 7 33 16 80 20 105 3 25 12 70 19 100
7 30 20 96 29 145 9 50 25 137 36 195 11 58 24 137 29 175 6 39 15 97 21 130
6 33 17 110 24 170 14 111 47 355 67 497 11 74 10 79 -16 135 -91 193 -109
279 -109 498 0 124 5 184 22 265 21 101 80 315 103 372 11 27 132 138 150 138
4 0 32 11 61 23 85 38 103 44 298 97 102 28 230 68 285 89 55 21 141 51 190
66 95 29 233 94 325 153 120 76 308 265 375 376 48 80 60 135 59 271 0 101 -4
130 -24 180 -34 88 -145 220 -237 281 -28 18 -53 38 -55 42 -6 15 -91 68 -177
111 -150 75 -329 121 -591 152 -116 13 -499 6 -530 -11 -15 -8 -18 -30 -24
-137 -8 -174 -19 -250 -50 -370 -14 -57 -28 -121 -31 -142 -2 -22 -9 -59 -15
-83 -5 -24 -10 -64 -10 -90 0 -38 -5 -52 -27 -73 -47 -43 -74 -46 -273 -30
-30 2 -65 4 -76 4 -21 1 -21 4 -18 154 7 280 10 298 48 410 41 120 62 245 43
263 -7 6 -67 16 -134 21 -87 8 -133 16 -160 30 l-38 20 5 54 c8 91 6 218 -8
349 -12 116 -16 131 -57 214 -54 106 -64 155 -41 192 18 27 17 32 -26 76 -25
25 -22 69 10 168 30 94 36 221 14 295 -28 95 -163 228 -273 271 -85 33 -126
77 -151 158 -38 131 -50 244 -52 501 -2 313 -1 309 -96 343 -99 36 -327 75
-500 87 -47 3 -105 7 -130 9 -25 2 -121 -2 -215 -9z m-151 -174 c3 -5 13 -55
21 -112 31 -213 37 -245 51 -289 7 -25 14 -69 15 -98 3 -88 -39 -111 -198
-112 -57 0 -86 -4 -96 -14 -15 -16 -124 -53 -244 -85 -70 -18 -73 -18 -89 0
-14 16 -16 29 -8 91 14 119 9 195 -21 278 -36 104 -37 162 -1 199 48 50 142
80 351 111 77 11 154 24 170 29 40 12 43 12 49 2z m1076 -986 c116 -30 250
-119 287 -190 12 -23 27 -165 18 -165 -3 0 -31 16 -61 35 -116 74 -204 111
-369 154 -79 20 -314 34 -476 28 -180 -7 -192 -2 -98 45 55 28 107 45 214 69
33 7 80 21 105 31 38 16 66 18 180 14 81 -2 161 -11 200 -21z m110 -707 c18
-13 72 -75 119 -138 47 -63 93 -115 101 -115 17 0 19 40 5 88 -6 25 -5 28 10
25 31 -6 81 -143 100 -276 20 -137 16 -298 -10 -334 -21 -30 -19 -67 5 -106
45 -73 98 -99 251 -125 72 -12 74 -13 77 -42 2 -17 -9 -56 -23 -88 -14 -32
-25 -64 -25 -71 0 -33 -25 -37 -122 -21 -51 9 -122 20 -158 26 -125 20 -215
59 -257 112 -10 13 -26 49 -36 78 -43 139 -49 192 -58 484 -7 259 -18 376 -45
498 -5 22 -3 27 13 27 11 0 35 -10 53 -22z m-3515 -1537 c83 -39 170 -98 173
-119 4 -23 -24 -72 -40 -72 -11 0 -211 186 -216 201 -6 15 41 9 83 -10z m801
-24 c33 -17 81 -83 110 -152 11 -26 17 -68 18 -121 0 -74 -3 -85 -32 -131 -60
-94 -93 -119 -180 -134 -42 -8 -131 -14 -197 -14 -149 0 -181 13 -240 98 -37
54 -40 65 -43 137 -4 71 -1 84 24 131 32 59 134 165 173 181 76 32 310 34 367
5z m1777 -307 l58 0 -3 -71 c-2 -56 -7 -74 -21 -83 -15 -9 -26 -3 -68 41 -99
104 -122 107 -204 28 -32 -30 -64 -55 -71 -55 -19 0 -28 65 -14 99 16 40 57
51 170 46 52 -3 121 -5 153 -5z m-2108 -832 c22 -5 55 -19 73 -30 33 -20 34
-22 30 -77 -3 -31 -14 -99 -26 -151 -11 -52 -22 -106 -24 -119 -5 -37 -23 -36
-48 4 -12 19 -33 38 -46 41 -35 9 -74 -3 -74 -24 -1 -20 -27 -58 -35 -50 -11
10 8 159 21 172 7 7 36 16 65 20 94 13 137 49 124 107 -9 42 -37 54 -91 39
-59 -17 -74 -9 -74 38 0 57 -2 57 105 30z"/>
<path d="M1883 5799 c-15 -28 -39 -64 -51 -80 -30 -36 -53 -32 -135 23 -63 43
-100 47 -105 12 -6 -40 224 -232 262 -218 8 3 18 23 21 45 4 22 29 80 57 130
57 104 59 132 11 137 -30 3 -35 -1 -60 -49z"/>
<path d="M5021 9106 c-6 -7 -18 -44 -27 -82 -20 -88 -37 -722 -21 -799 11 -56
45 -96 75 -89 17 5 20 31 36 326 21 355 17 534 -12 605 -19 47 -35 59 -51 39z"/>
<path d="M7173 8613 c-37 -3 -66 -9 -73 -18 -29 -35 -62 -340 -50 -465 10
-100 28 -190 45 -217 8 -12 28 -24 44 -28 41 -9 74 17 101 78 11 26 23 47 26
47 16 0 63 -33 92 -64 30 -33 37 -36 90 -36 36 0 66 6 80 16 34 24 32 35 -33
135 -33 52 -46 83 -51 123 -6 40 -4 46 26 72 63 55 75 127 40 230 -43 124 -88
141 -337 127z"/>
<path d="M5391 8594 c-74 -38 -150 -168 -159 -269 -11 -145 42 -292 139 -386
104 -100 163 -99 320 6 94 63 96 66 113 122 27 88 33 259 11 325 -29 91 -63
136 -134 175 -58 33 -71 36 -160 40 -77 3 -103 0 -130 -13z m162 -179 c18 -8
43 -32 57 -52 35 -51 36 -157 1 -226 -28 -58 -57 -68 -100 -38 -49 35 -73 85
-79 162 -5 76 8 123 42 151 26 22 39 22 79 3z"/>
<path d="M6020 8590 c-57 -12 -88 -28 -101 -51 -8 -15 -12 -100 -13 -263 -1
-215 1 -245 17 -281 38 -80 69 -97 136 -74 31 11 34 18 31 75 -3 67 26 110
115 169 76 51 86 61 114 120 36 76 42 155 14 195 -62 92 -189 137 -313 110z"/>
<path d="M7832 8582 c-10 -10 -27 -50 -36 -88 -33 -131 -38 -149 -53 -189 -21
-56 -43 -184 -50 -287 -4 -76 -3 -89 12 -94 11 -4 27 4 49 25 47 46 93 43 203
-14 93 -48 150 -58 174 -29 11 13 10 29 -3 93 -10 42 -24 108 -32 146 -14 66
-26 110 -63 245 -8 30 -31 89 -51 130 l-37 75 -47 3 c-36 2 -52 -2 -66 -16z"/>
<path d="M6507 8576 c-26 -27 -41 -115 -43 -265 -2 -151 10 -331 26 -368 19
-45 62 -56 193 -49 65 4 124 9 131 12 7 3 23 25 35 49 34 68 16 91 -89 115
-75 18 -90 29 -90 66 0 36 13 49 84 84 48 24 51 27 51 64 0 39 -2 40 -52 61
-65 26 -77 37 -68 64 5 17 14 21 46 21 52 0 89 35 89 83 0 61 -23 72 -170 75
-105 3 -130 1 -143 -12z"/>
<path d="M3725 7750 c-41 -3 -92 -15 -122 -29 -56 -25 -123 -90 -123 -119 0
-9 -7 -38 -17 -64 -13 -38 -14 -52 -5 -73 16 -36 43 -30 74 15 52 76 255 180
350 180 44 0 80 18 76 38 -8 40 -105 62 -233 52z"/>
<path d="M7896 7578 c-47 -73 -57 -171 -43 -443 10 -197 10 -197 198 -208 131
-8 143 -2 141 69 -3 63 -24 84 -88 90 -61 6 -74 17 -74 63 0 48 14 61 66 61
61 0 89 26 80 72 -5 29 -15 42 -49 62 -24 13 -56 28 -71 32 -62 15 -39 64 30
64 78 0 107 60 55 113 -23 23 -112 47 -178 47 -44 0 -55 -4 -67 -22z"/>
<path d="M5363 7575 c-31 -13 -33 -17 -33 -63 0 -59 21 -90 71 -106 25 -8 40
-22 57 -56 25 -48 25 -51 2 -215 -16 -121 -10 -188 21 -221 36 -38 54 -46 83
-33 47 22 79 152 91 363 6 120 15 156 39 156 7 0 23 11 35 24 31 33 26 92 -9
118 -53 39 -293 61 -357 33z"/>
<path d="M6837 7572 c-25 -27 -37 -69 -37 -125 -1 -139 -39 -132 -116 22 -30
58 -77 91 -131 91 -48 0 -58 -10 -73 -75 -16 -70 -17 -504 -1 -534 14 -26 49
-41 96 -41 54 0 65 26 65 146 0 80 3 103 15 107 15 6 55 -40 55 -63 0 -20 90
-129 128 -155 43 -29 92 -32 115 -7 15 16 16 50 13 308 l-4 289 -33 28 c-38
31 -69 35 -92 9z"/>
<path d="M7164 7579 c-24 -39 -44 -190 -50 -380 l-7 -207 26 -26 c20 -20 36
-26 71 -26 26 0 51 6 59 15 23 22 41 199 33 328 -11 171 -24 278 -37 293 -14
17 -85 19 -95 3z"/>
<path d="M6015 7566 c-120 -41 -191 -100 -218 -181 -22 -62 -22 -194 -1 -283
30 -132 142 -233 259 -234 62 -1 146 35 193 82 44 43 92 154 99 224 13 141
-71 337 -163 385 -36 18 -125 22 -169 7z m110 -194 c29 -45 30 -52 30 -155 0
-104 -1 -109 -25 -127 -37 -29 -100 -26 -134 5 -24 22 -26 30 -26 107 0 88 19
170 47 200 9 10 30 18 47 18 26 0 36 -8 61 -48z"/>
<path d="M7451 7573 c-43 -8 -71 -33 -71 -63 0 -26 40 -91 73 -119 9 -7 17
-19 17 -25 0 -7 6 -18 13 -25 9 -9 12 -60 12 -184 0 -214 6 -231 80 -235 93
-5 93 -3 81 290 l-8 186 28 15 c50 26 68 53 68 105 l1 46 -40 8 c-43 7 -215 8
-254 1z"/>
<path d="M3623 7278 c-40 -43 -51 -156 -20 -195 30 -39 107 12 126 85 27 99
-46 174 -106 110z"/>
<path d="M2888 7250 c-32 -34 -38 -48 -38 -84 0 -42 23 -104 44 -118 13 -9 72
46 92 85 27 51 -5 157 -48 157 -6 0 -28 -18 -50 -40z"/>
<path d="M3150 7053 c-14 -9 -44 -29 -67 -45 -23 -15 -48 -28 -55 -28 -8 0
-24 -11 -35 -24 -11 -13 -25 -25 -30 -27 -4 -2 -23 -26 -41 -53 -42 -64 -42
-104 -1 -145 36 -36 86 -41 140 -14 46 24 152 24 199 1 19 -10 76 -47 125 -83
117 -84 176 -115 234 -122 35 -4 50 -1 60 10 11 14 9 20 -14 41 -31 29 -129
84 -195 110 -74 29 -126 68 -150 113 -28 53 -56 63 -171 63 -65 0 -89 3 -89
13 0 6 32 44 70 82 84 83 98 104 79 116 -19 12 -30 10 -59 -8z"/>
<path d="M2288 6644 c-7 -7 5 -52 23 -85 31 -60 121 -141 294 -268 44 -32 109
-89 145 -126 194 -203 253 -251 413 -339 163 -89 464 -122 651 -71 104 29 255
175 383 369 36 55 76 131 89 170 29 84 29 86 5 86 -19 0 -29 -10 -76 -76 -20
-27 -50 -66 -108 -139 -46 -57 -229 -245 -239 -245 -5 0 -21 -9 -36 -20 -43
-32 -131 -60 -207 -66 -141 -12 -339 52 -485 159 -94 68 -237 225 -227 250 7
19 167 97 197 97 15 0 43 -17 69 -40 25 -22 49 -40 54 -40 5 0 21 -8 35 -19
34 -23 116 -41 191 -41 80 0 233 41 279 75 20 15 51 36 67 47 50 35 180 211
169 229 -10 17 -35 9 -92 -30 -82 -56 -246 -135 -328 -160 -79 -23 -165 -27
-246 -10 -46 9 -60 19 -104 68 l-51 56 -64 0 c-63 0 -106 -10 -199 -43 -52
-19 -229 -23 -251 -6 -8 6 -36 19 -64 29 -54 19 -117 64 -205 145 -52 48 -70
57 -82 44z"/>
<path d="M4044 5822 c-36 -24 -57 -127 -48 -243 4 -47 13 -94 21 -104 40 -56
77 71 66 232 -6 93 -18 129 -39 115z"/>
<path d="M6252 4874 l-42 -25 2 -77 c2 -42 -1 -115 -6 -162 -11 -116 1 -159
54 -189 24 -14 58 -23 88 -23 44 -1 53 3 90 38 39 37 42 42 42 94 0 31 -9 89
-21 130 -15 56 -19 89 -14 132 6 52 5 59 -19 83 -35 35 -114 35 -174 -1z"/>
<path d="M6864 4881 c-32 -14 -34 -19 -47 -142 -20 -176 2 -278 62 -287 17 -3
21 2 21 25 0 55 13 73 95 133 102 74 117 104 87 174 -26 57 -85 98 -150 102
-26 2 -57 0 -68 -5z"/>
<path d="M7252 4853 c-7 -3 -25 -30 -39 -62 -23 -49 -27 -69 -27 -161 -1 -74
4 -114 14 -135 21 -41 43 -43 61 -4 7 18 22 37 32 43 14 9 22 6 40 -18 21 -26
28 -28 64 -24 36 5 45 2 69 -24 20 -20 36 -28 54 -26 l25 3 -3 110 c-3 103
-33 280 -51 298 -14 14 -37 -3 -76 -54 -36 -47 -39 -49 -56 -33 -11 9 -19 22
-19 29 0 17 -46 65 -62 64 -7 0 -19 -3 -26 -6z"/>
<path d="M7449 4268 c-10 -8 -26 -53 -38 -111 -34 -157 -25 -257 26 -297 24
-18 28 -19 43 -5 10 9 20 36 23 60 3 33 15 57 43 91 107 125 123 167 83 211
-32 34 -65 50 -119 58 -31 4 -50 2 -61 -7z"/>
<path d="M7183 4240 c-12 -5 -30 -24 -40 -42 -25 -47 -25 -214 0 -281 25 -64
48 -76 81 -40 l25 26 26 -31 c58 -69 81 -25 59 109 -9 56 -12 115 -8 149 5 50
4 59 -17 83 -26 29 -87 42 -126 27z"/>
<path d="M6240 4218 c-46 -29 -50 -35 -50 -89 0 -39 6 -54 41 -98 50 -62 48
-84 -6 -91 l-40 -5 0 -54 c1 -69 19 -85 91 -77 28 3 67 12 86 20 32 14 36 20
42 64 7 51 -3 88 -43 169 -28 56 -27 68 9 93 38 27 38 43 1 69 -37 27 -87 26
-131 -1z"/>
<path d="M6918 4223 c-83 -94 -119 -351 -53 -377 16 -6 26 2 59 46 33 44 49
41 77 -13 15 -29 26 -39 44 -39 32 0 40 30 31 124 -11 121 -41 227 -71 253
-31 27 -66 30 -87 6z"/>
<path d="M6515 4207 c-22 -34 -22 -236 0 -302 22 -63 31 -75 62 -75 19 0 28 8
40 40 17 42 35 48 42 14 4 -27 31 -54 52 -54 21 0 24 8 40 132 10 79 10 108 0
155 -18 80 -27 93 -60 93 -31 0 -41 -14 -41 -61 0 -37 -17 -38 -32 -1 -35 80
-74 103 -103 59z"/>
<path d="M6440 3481 c-123 -33 -270 -122 -411 -246 -78 -69 -199 -263 -199
-319 0 -47 52 -98 125 -122 28 -9 56 -19 63 -22 7 -2 64 47 131 114 65 66 135
132 156 148 50 40 123 76 152 76 54 0 41 -54 -58 -253 -38 -77 -69 -145 -69
-152 0 -8 -6 -18 -14 -22 -13 -8 -78 -113 -116 -188 -11 -22 -33 -58 -50 -80
-16 -22 -38 -58 -49 -80 -10 -22 -52 -85 -92 -140 -41 -55 -82 -111 -92 -125
-36 -52 -92 -136 -102 -152 -36 -60 -438 -606 -477 -648 -8 -8 -22 -26 -31
-40 -62 -92 -138 -193 -230 -304 -17 -22 -39 -52 -47 -67 -8 -15 -40 -60 -71
-101 -31 -40 -68 -91 -82 -113 -14 -22 -52 -76 -84 -120 -32 -44 -80 -114
-106 -155 -27 -41 -60 -91 -74 -110 -22 -31 -24 -41 -19 -99 5 -60 33 -118 70
-143 20 -14 160 -9 182 6 12 8 86 102 167 208 80 106 155 203 166 215 11 12
47 61 80 110 33 48 89 129 125 178 36 50 90 126 121 170 31 44 85 121 120 170
36 50 100 143 142 208 114 174 142 216 158 235 25 30 129 174 186 257 31 44
81 116 112 160 31 44 67 95 79 113 13 18 28 39 33 45 6 7 33 45 60 85 27 41
86 117 130 171 85 100 224 314 281 431 60 123 85 222 91 360 l6 125 -33 53
c-52 84 -170 155 -288 172 -80 11 -63 13 -142 -9z m172 -144 c95 -53 128 -92
135 -159 4 -39 1 -65 -10 -89 -9 -19 -32 -77 -50 -129 -34 -93 -84 -185 -180
-329 -26 -40 -56 -88 -66 -107 -10 -19 -30 -46 -45 -61 -14 -14 -26 -31 -26
-38 0 -7 -33 -61 -73 -121 -40 -60 -90 -134 -110 -164 -20 -30 -50 -73 -67
-96 -16 -23 -30 -44 -30 -48 0 -4 -26 -39 -57 -78 -115 -141 -190 -243 -229
-310 -6 -10 -20 -29 -31 -41 -10 -12 -31 -40 -46 -62 -15 -22 -48 -65 -72 -95
-25 -30 -67 -86 -94 -125 -27 -38 -68 -95 -92 -125 -55 -69 -89 -118 -89 -129
0 -5 -17 -28 -38 -52 -21 -24 -55 -69 -76 -99 -114 -167 -160 -232 -181 -254
-24 -25 -230 -338 -279 -422 -58 -101 -95 -92 -56 13 12 32 57 110 101 173 43
63 103 151 133 195 30 44 78 109 106 145 83 107 243 323 440 596 102 141 200
277 218 301 19 25 41 58 50 73 61 101 95 153 157 238 91 126 172 250 290 442
32 52 68 111 80 130 12 19 39 66 60 104 21 38 50 88 66 112 16 23 37 60 45 81
9 21 20 40 24 43 5 3 29 45 54 93 49 94 58 149 36 229 -13 45 -75 103 -129
119 -49 15 -144 -1 -175 -29 -12 -11 -37 -28 -56 -40 -37 -22 -170 -156 -170
-171 0 -9 -61 -51 -74 -51 -10 0 3 59 22 95 33 65 164 168 317 250 65 35 75
37 137 32 52 -3 80 -12 130 -40z"/>
<path d="M1827 3374 c-1 -1 -190 -5 -421 -9 -230 -3 -425 -9 -432 -12 -22 -8
-37 -72 -32 -142 5 -73 23 -111 51 -111 20 0 57 55 57 86 0 45 18 52 160 64
74 6 273 12 441 14 360 5 509 22 509 57 0 6 -24 21 -53 34 -47 22 -65 24 -165
22 -63 -1 -114 -2 -115 -3z"/>
<path d="M552 3040 c-12 -5 -25 -17 -29 -26 -7 -19 14 -264 28 -316 11 -44 40
-64 68 -49 23 13 31 51 31 145 0 39 5 78 10 86 7 11 38 17 127 21 421 23 542
30 743 39 368 16 400 19 400 41 0 10 -12 27 -27 36 -24 16 -67 19 -408 25
-544 9 -916 8 -943 -2z"/>
<path d="M559 2583 c-242 -3 -279 -5 -290 -20 -22 -26 -18 -237 5 -286 21 -43
50 -64 63 -45 4 7 15 58 25 113 23 138 17 135 227 135 466 1 1030 13 1064 21
31 8 38 14 35 32 -3 19 -12 23 -83 33 -92 13 -641 22 -1046 17z"/>
<path d="M219 2059 c-25 -25 -24 -64 1 -82 31 -21 922 -15 1105 8 148 18 177
25 182 42 10 30 -42 33 -619 39 -321 2 -598 7 -616 9 -23 3 -39 -2 -53 -16z"/>
<path d="M200 1450 c-6 -12 -10 -33 -8 -48 l3 -26 387 -2 c212 -1 391 -5 396
-8 15 -9 351 13 372 24 21 11 26 35 11 44 -23 14 -269 24 -763 31 -384 5 -387
5 -398 -15z"/>
<path d="M4653 1456 c-38 -17 -42 -31 -12 -47 30 -16 231 -8 253 10 16 13 16
16 1 30 -22 22 -197 27 -242 7z"/>
<path d="M1182 1033 c-15 -29 -23 -73 -17 -93 8 -25 146 -78 355 -137 103 -28
148 -36 256 -40 172 -7 218 6 263 76 57 89 41 111 -79 111 -125 0 -291 16
-421 39 -63 12 -154 28 -204 37 -49 8 -102 17 -117 20 -19 4 -29 0 -36 -13z"/>
<path d="M98 784 c-51 -16 -91 -56 -86 -88 3 -20 9 -21 146 -19 131 1 202 12
202 32 0 18 -35 53 -70 71 -46 24 -123 25 -192 4z"/>
<path d="M1995 496 c-15 -11 -19 -27 -20 -72 l0 -59 95 -52 c106 -59 176 -83
243 -83 25 0 103 -12 174 -26 108 -22 146 -25 248 -21 201 8 338 40 397 94 23
21 23 55 0 84 -18 22 -21 22 -93 11 -223 -34 -412 -17 -734 65 -33 8 -71 18
-85 20 -14 3 -60 16 -103 29 -91 28 -97 29 -122 10z"/>
<path d="M3304 335 c-22 -22 -25 -33 -21 -62 4 -19 14 -41 24 -48 29 -22 169
-37 301 -34 l124 4 29 33 c32 36 38 82 14 102 -11 9 -69 13 -203 15 -103 1
-199 5 -214 10 -22 6 -32 2 -54 -20z"/>
</g>
</svg>
