<?xml version="1.0" standalone="no"?>
<!DOCTYPE svg PUBLIC "-//W3C//DTD SVG 20010904//EN"
 "http://www.w3.org/TR/2001/REC-SVG-20010904/DTD/svg10.dtd">
<svg version="1.0" xmlns="http://www.w3.org/2000/svg"
 width="925.000000pt" height="999.000000pt" viewBox="0 0 925.000000 999.000000"
 preserveAspectRatio="xMidYMid meet">
<metadata>
Created by potrace 1.14, written by Peter Selinger 2001-2017
</metadata>
<g transform="translate(0.000000,999.000000) scale(0.100000,-0.100000)"
fill="#000000" stroke="none">
<path d="M7140 9961 c-52 -10 -111 -22 -130 -29 -19 -6 -62 -20 -95 -31 -83
-27 -189 -76 -242 -111 -24 -17 -47 -30 -50 -30 -12 0 -143 -91 -143 -99 0 -4
-10 -12 -23 -18 -13 -6 -66 -51 -119 -101 l-96 -90 -45 10 c-36 7 -52 6 -76
-7 -17 -8 -31 -17 -32 -18 0 -1 -4 -68 -8 -150 -9 -181 -14 -192 -89 -163 -84
33 -245 74 -357 92 -106 16 -299 20 -375 8 -122 -19 -292 -72 -340 -105 -14
-9 -41 -23 -61 -32 -19 -8 -51 -29 -71 -46 -20 -17 -40 -31 -44 -31 -12 -1
-160 -145 -206 -200 -20 -25 -46 -56 -57 -70 -12 -14 -43 -52 -68 -85 -26 -33
-50 -62 -54 -65 -4 -3 -41 -47 -82 -98 -80 -97 -90 -122 -83 -202 2 -25 -7
-105 -20 -179 -13 -74 -24 -165 -24 -203 0 -71 -11 -108 -33 -108 -7 0 -34 20
-61 45 -32 28 -111 75 -220 131 -135 68 -181 96 -218 135 -66 68 -63 101 18
207 38 50 51 96 34 117 -18 22 -31 19 -107 -25 -46 -26 -98 -71 -161 -137
-121 -128 -129 -136 -192 -216 -30 -37 -59 -66 -64 -64 -23 7 -11 197 12 197
4 0 16 15 27 32 11 18 27 42 35 54 8 12 32 49 53 83 21 34 43 61 48 61 13 0
11 37 -2 45 -5 4 -31 1 -57 -6 -40 -11 -66 -32 -178 -145 -120 -121 -136 -134
-188 -149 -79 -23 -86 -18 -86 57 0 110 23 167 102 252 38 42 74 76 80 76 6 0
27 13 47 28 60 48 152 91 225 106 88 18 157 5 328 -62 119 -47 121 -48 207
-136 130 -134 152 -155 197 -176 48 -24 107 -26 124 -5 13 16 6 25 -134 173
-28 29 -54 59 -59 67 -11 21 -182 156 -238 188 -79 46 -132 57 -284 57 -126 0
-149 -3 -230 -29 -108 -34 -260 -116 -348 -189 -62 -52 -106 -117 -107 -158
-1 -20 -30 -81 -125 -259 -57 -107 -58 -112 -60 -195 -1 -48 -7 -96 -15 -110
-16 -30 -71 -101 -116 -150 -43 -46 -59 -64 -124 -140 -30 -35 -65 -75 -76
-87 -42 -46 -123 -174 -145 -230 -19 -48 -23 -77 -23 -168 1 -93 5 -127 33
-225 18 -63 37 -133 42 -155 6 -21 16 -53 24 -70 7 -16 23 -61 35 -100 12 -38
38 -98 56 -132 19 -34 34 -70 34 -82 0 -32 -37 -58 -119 -86 -81 -27 -152 -63
-158 -80 -2 -6 3 -19 10 -30 13 -17 19 -17 73 -6 32 7 77 11 99 9 45 -3 44 0
70 -143 44 -250 97 -432 168 -584 l39 -84 56 7 c40 5 85 22 159 61 57 30 108
55 114 55 13 0 8 -44 -26 -215 -13 -66 -26 -145 -30 -175 -4 -30 -15 -99 -26
-152 -10 -54 -23 -171 -29 -260 -5 -90 -14 -194 -20 -231 -12 -82 -67 -302
-82 -330 -6 -11 -24 -68 -40 -126 -94 -338 -118 -472 -118 -660 0 -85 -4 -113
-20 -145 -21 -43 -89 -96 -149 -117 -60 -21 -166 -76 -181 -94 -8 -10 -32 -45
-52 -78 -195 -318 -596 -607 -1028 -743 -30 -9 -61 -21 -67 -27 -18 -13 -16
-46 3 -54 28 -10 434 42 529 68 140 39 273 119 375 225 110 115 147 176 260
430 38 85 76 116 220 174 58 23 92 38 150 63 43 19 83 55 110 99 18 30 20 50
20 223 0 280 32 486 114 736 25 76 61 169 80 208 20 39 36 75 36 81 0 12 179
309 203 335 10 11 42 52 72 92 50 67 87 112 125 153 8 9 30 34 49 55 51 59
308 291 370 333 101 69 100 69 111 52 6 -9 5 -20 -4 -30 -21 -25 -82 -160
-109 -240 -57 -170 -61 -193 -60 -400 1 -199 11 -284 62 -510 44 -197 140
-400 280 -590 66 -89 330 -355 389 -390 23 -14 44 -33 47 -42 3 -9 27 -31 53
-47 26 -17 74 -51 107 -76 33 -24 71 -50 85 -57 14 -7 41 -26 61 -43 20 -16
70 -50 110 -75 40 -25 109 -69 152 -97 43 -29 97 -63 120 -74 70 -35 177 -110
177 -123 0 -45 -189 -134 -256 -121 -23 4 -34 12 -38 30 -9 35 -31 31 -74 -12
-20 -21 -66 -63 -102 -93 -36 -30 -94 -84 -130 -120 -36 -36 -103 -99 -148
-140 -46 -41 -129 -119 -185 -174 -427 -413 -537 -518 -617 -584 -14 -12 -70
-60 -125 -108 -55 -48 -116 -97 -135 -110 -43 -28 -146 -106 -180 -136 -28
-25 -179 -122 -225 -145 -16 -8 -39 -23 -50 -33 -22 -20 -123 -80 -195 -115
-85 -42 -175 -83 -200 -90 -29 -9 -192 -98 -235 -130 -49 -36 -214 -124 -264
-141 -25 -8 -66 -18 -91 -21 -44 -5 -47 -4 -100 50 -30 30 -84 88 -120 128
-81 91 -132 139 -146 139 -6 0 -19 -9 -28 -19 -10 -11 -31 -23 -48 -26 -16 -4
-32 -13 -34 -19 -7 -18 51 -160 93 -231 66 -109 131 -194 225 -296 22 -25 34
-29 76 -29 42 0 64 8 129 47 111 66 594 313 611 313 5 0 42 16 83 37 133 66
289 122 407 148 65 14 149 34 187 44 39 11 122 33 185 49 236 61 715 211 966
303 44 16 85 29 92 29 7 0 20 4 30 10 9 5 71 28 137 50 66 22 149 52 185 65
36 13 106 38 155 55 50 18 126 44 170 60 44 16 127 45 185 65 130 46 220 84
243 103 23 20 22 52 -2 52 -54 0 -262 -66 -411 -130 -99 -43 -372 -135 -665
-225 -158 -48 -298 -96 -310 -107 -5 -4 -15 -8 -23 -8 -7 0 -34 -10 -60 -21
-26 -12 -94 -38 -152 -59 -58 -20 -114 -41 -126 -48 -12 -6 -52 -20 -90 -31
-341 -101 -474 -134 -487 -122 -4 4 31 34 78 67 47 32 116 82 153 109 37 28
80 59 96 70 35 25 194 146 271 205 32 25 79 63 105 85 25 22 73 62 106 90 79
66 381 370 422 426 45 61 83 117 211 309 21 33 50 62 71 72 64 31 124 57 190
80 52 18 79 36 142 97 43 41 93 81 111 89 50 21 133 33 232 32 126 0 231 10
252 25 14 11 15 17 6 36 -76 156 -106 270 -124 479 -20 231 -21 271 -9 354 30
213 101 379 234 551 121 156 433 452 581 551 28 18 79 56 115 84 95 74 175
128 195 132 20 4 43 -47 56 -127 23 -139 38 -248 44 -320 8 -92 28 -161 56
-191 24 -25 52 -103 90 -250 48 -186 47 -185 159 -182 50 1 75 -3 85 -13 9
-10 15 -55 20 -154 3 -77 13 -194 21 -260 31 -267 28 -391 -13 -559 l-17 -68
27 -24 c40 -34 95 -32 163 6 117 67 194 196 245 408 7 30 15 42 27 42 20 0
183 -78 242 -115 22 -14 40 -35 44 -50 4 -15 27 -70 52 -123 25 -54 49 -106
54 -117 5 -11 68 -153 139 -316 72 -163 131 -302 131 -310 0 -8 12 -32 26 -53
21 -30 28 -55 31 -105 2 -36 0 -71 -4 -77 -4 -6 -45 -38 -90 -73 -132 -100
-160 -144 -129 -207 19 -42 51 -55 101 -44 34 8 52 20 112 77 37 36 89 73 101
73 20 0 118 68 147 102 26 31 27 36 23 115 -4 78 -8 91 -67 210 -71 141 -101
221 -101 267 0 27 -29 97 -59 146 -131 210 -192 346 -163 364 6 3 66 -8 134
-25 102 -25 150 -32 279 -36 150 -5 157 -5 205 19 27 14 74 33 104 43 101 33
163 77 175 126 6 23 0 31 -47 64 -32 24 -82 47 -128 60 -81 23 -156 60 -198
98 -10 10 -22 17 -26 17 -4 0 -37 21 -74 48 -36 26 -74 52 -83 57 -80 47 -254
187 -329 264 -101 104 -210 248 -210 279 0 5 20 23 45 42 93 70 34 108 -91 59
-77 -30 -270 -69 -439 -89 -55 -7 -161 -23 -235 -37 -74 -14 -160 -27 -191
-30 l-55 -5 -16 39 c-9 21 -20 79 -23 129 l-6 90 38 26 c23 16 60 28 92 32 30
4 73 15 95 25 23 11 75 22 116 26 41 4 121 18 177 31 57 13 130 24 164 24 50
0 66 4 89 24 16 13 64 38 107 56 148 60 181 78 199 105 17 26 17 30 -14 149
-18 66 -41 153 -52 191 -35 123 -51 221 -48 292 2 55 6 67 18 63 8 -2 43 -5
78 -6 126 -4 322 68 437 161 22 17 47 36 57 41 51 28 266 256 294 312 10 20
36 63 57 94 76 115 176 395 207 578 22 132 40 318 40 423 0 134 -16 349 -31
427 -28 142 -61 284 -68 299 -5 9 -23 58 -40 110 -32 96 -103 213 -196 326
-22 28 -61 76 -85 108 -112 149 -251 233 -416 251 -83 9 -140 -5 -262 -66 -85
-41 -109 -49 -138 -45 -46 8 -61 21 -74 66 -9 33 -8 38 17 59 16 13 46 32 68
44 65 33 178 158 219 241 74 149 83 228 39 323 l-28 59 0 295 0 295 -53 105
c-30 58 -59 112 -66 120 -6 8 -18 28 -26 44 -21 42 -143 161 -204 201 -115 73
-234 120 -370 144 -87 16 -277 12 -386 -8z m287 -145 c166 -36 196 -50 285
-139 134 -133 173 -184 216 -287 23 -52 46 -116 51 -141 6 -26 15 -58 20 -71
16 -42 22 -218 11 -278 -23 -117 -36 -142 -101 -195 -67 -55 -119 -126 -119
-161 0 -43 62 -79 96 -56 6 4 19 22 28 39 9 18 27 40 40 48 42 28 150 65 159
56 5 -5 9 -36 10 -70 0 -86 -18 -112 -196 -263 -36 -31 -65 -68 -83 -104 -22
-46 -35 -59 -78 -81 -80 -41 -110 -66 -291 -249 -175 -176 -234 -224 -307
-250 -66 -23 -131 -101 -108 -129 17 -21 19 -20 94 30 37 25 71 45 75 45 3 0
6 -47 6 -104 0 -90 3 -107 20 -126 27 -29 50 -41 69 -34 18 7 117 128 146 178
126 224 166 283 225 342 69 69 110 98 123 90 6 -3 20 -36 33 -72 23 -64 66
-114 98 -114 7 0 47 18 89 39 135 69 202 86 327 86 168 -1 186 -7 249 -79 29
-33 61 -77 71 -96 10 -19 28 -48 41 -63 13 -16 24 -34 24 -42 0 -13 40 -110
65 -156 8 -14 18 -43 24 -65 5 -21 19 -75 32 -119 28 -102 37 -179 45 -395 12
-307 -42 -597 -182 -990 -28 -81 -155 -229 -270 -318 -45 -34 -148 -101 -157
-102 -4 0 -40 -20 -80 -44 -120 -73 -227 -127 -237 -121 -6 3 -10 16 -10 28 0
12 -16 92 -35 177 -38 166 -82 360 -96 425 -4 22 -15 65 -23 96 -8 30 -18 78
-22 106 l-6 50 56 32 c57 32 116 99 116 132 0 26 21 28 52 6 39 -29 71 -17 98
38 19 38 21 59 19 142 -2 54 2 168 8 253 21 283 13 634 -17 689 -10 20 -12 20
-50 -21 -22 -24 -54 -72 -72 -107 l-33 -65 0 -319 c0 -304 -1 -319 -19 -333
-11 -8 -30 -14 -43 -14 -33 0 -76 -24 -106 -59 -21 -25 -26 -44 -32 -128 -4
-54 -9 -101 -11 -105 -10 -16 -34 6 -40 38 -7 38 -59 193 -68 201 -3 4 -6 12
-6 20 0 7 -8 32 -19 56 -10 23 -31 74 -46 112 -38 93 -155 329 -166 333 -5 2
-9 9 -9 15 -1 19 -64 114 -108 162 -46 51 -151 118 -212 136 -30 9 -51 25 -71
52 -16 22 -29 43 -29 47 0 4 -35 72 -77 151 l-77 144 -1 115 c-1 103 -4 121
-28 174 -28 61 -122 230 -142 256 -14 18 -31 85 -40 155 -8 57 -44 126 -139
265 -42 61 -61 98 -55 105 14 15 137 -21 183 -53 100 -70 123 -138 87 -260
-17 -55 -19 -77 -11 -92 6 -11 15 -20 20 -20 21 0 111 96 135 143 30 60 32
121 9 193 -23 68 -118 211 -146 219 -13 4 -43 17 -68 28 -63 29 -205 28 -254
-2 -46 -29 -67 -27 -148 16 -69 36 -96 68 -84 100 6 16 40 17 66 3 26 -14 68
-2 81 21 12 23 -10 75 -47 110 -13 12 -24 33 -24 47 0 20 4 23 23 19 171 -42
189 -45 225 -35 48 13 62 25 62 52 0 29 -38 64 -78 72 -46 9 -56 26 -39 66 21
48 75 94 127 106 25 6 106 20 180 32 74 12 157 30 184 42 46 18 56 19 125 8
41 -7 101 -20 132 -30 158 -51 153 66 -6 151 -106 55 -80 75 102 78 50 0 122
-5 160 -13z m-1719 -752 c89 -16 215 -71 310 -136 90 -62 236 -222 307 -337 6
-9 22 -34 36 -56 43 -68 115 -217 138 -288 27 -79 22 -134 -15 -183 -13 -17
-24 -34 -24 -37 0 -3 -15 -32 -34 -64 -33 -55 -41 -86 -38 -145 2 -26 25 -58
42 -58 16 0 52 44 72 89 48 105 105 171 148 171 29 0 2 -255 -50 -474 -18 -79
-19 -91 -6 -104 24 -24 73 13 116 87 71 120 100 108 100 -42 l0 -84 -77 0
c-89 -1 -178 -15 -274 -43 l-65 -20 -13 -52 c-12 -47 -26 -96 -63 -218 -15
-52 -66 -151 -91 -181 -59 -66 -196 -99 -429 -100 -139 -1 -180 3 -278 24
-111 25 -177 47 -250 86 -72 39 -73 38 -152 -42 -89 -90 -210 -161 -360 -210
-142 -47 -214 -53 -298 -24 -36 12 -65 27 -64 32 1 6 16 13 35 16 19 4 50 13
69 20 46 18 160 89 160 100 0 5 6 9 14 9 8 0 25 15 37 33 13 17 44 57 70 87
55 65 133 205 125 226 -3 8 -16 14 -29 14 -26 0 -69 -45 -129 -134 -36 -54
-80 -92 -96 -82 -6 3 -24 41 -42 84 -17 42 -42 100 -55 127 -14 28 -46 131
-72 230 l-48 180 0 210 c0 204 4 237 41 373 6 20 31 14 87 -22 124 -79 174
-80 164 -2 -8 54 -46 131 -92 186 -63 75 -66 104 -17 190 80 141 213 293 326
374 225 160 522 234 764 190z m-2162 -1123 c46 -97 93 -193 105 -214 22 -42
71 -157 95 -225 19 -55 27 -42 -156 -262 -30 -36 -64 -79 -76 -95 -11 -17 -43
-61 -69 -100 -27 -38 -54 -75 -59 -82 -26 -29 -144 -195 -331 -462 -153 -219
-409 -551 -426 -551 -16 0 -59 47 -59 65 0 3 -13 25 -28 48 -72 107 -179 334
-222 472 -12 39 -33 102 -46 141 -24 72 -76 290 -89 372 -7 45 5 109 31 169 8
17 14 36 14 42 0 6 5 11 10 11 6 0 10 5 10 12 0 41 151 234 341 432 53 56 113
121 134 145 44 49 210 191 223 191 5 0 11 -42 14 -92 5 -100 33 -178 83 -232
61 -65 149 -9 192 123 38 115 70 167 139 224 37 31 71 54 77 50 5 -3 47 -85
93 -182z m328 -208 c42 -27 76 -55 76 -64 0 -23 -65 -89 -88 -89 -17 0 -24 10
-32 43 -6 23 -15 51 -19 62 -48 115 -46 117 63 48z m280 -95 c3 -13 7 -54 11
-93 3 -38 11 -96 17 -128 15 -79 3 -89 -52 -40 -84 75 -140 138 -140 158 0 23
34 59 94 99 48 32 64 33 70 4z m-196 -280 c56 -43 102 -96 102 -115 0 -22 -6
-27 -95 -80 -11 -6 -78 -46 -148 -90 -229 -139 -272 -160 -253 -121 17 35 88
138 184 265 17 24 32 46 32 50 0 3 11 21 25 39 14 18 25 37 25 43 0 5 9 16 21
24 23 16 77 9 107 -15z m1327 -639 c22 -22 53 -47 68 -55 89 -47 381 -60 528
-23 46 11 110 34 142 50 32 16 60 29 62 29 14 0 1 -24 -31 -60 -46 -51 -101
-81 -221 -120 -54 -18 -111 -39 -128 -47 -166 -83 -376 -70 -601 37 -23 11
-46 20 -53 20 -6 0 -11 15 -11 35 0 28 11 47 63 104 57 65 65 71 102 71 35 0
47 -6 80 -41z m-610 -231 c84 -11 125 -34 125 -70 0 -18 -18 -28 -215 -116
-128 -58 -252 -126 -298 -165 -26 -22 -50 -37 -53 -34 -9 8 23 122 47 169 12
24 51 87 86 141 l65 99 81 -7 c45 -3 118 -11 162 -17z m1470 -400 c22 -28 66
-85 98 -127 32 -42 64 -83 70 -91 51 -65 197 -319 197 -343 0 -4 13 -36 29
-70 15 -34 36 -87 45 -117 9 -30 21 -62 26 -71 5 -9 16 -52 25 -94 9 -43 21
-87 26 -98 6 -11 12 -49 13 -86 l1 -66 -45 -3 c-32 -2 -52 -10 -68 -27 -26
-29 -17 -26 -237 -59 -219 -33 -348 -45 -359 -35 -5 5 -4 14 3 22 9 11 8 17
-3 27 -25 20 -87 23 -168 6 -42 -9 -108 -16 -145 -15 -60 0 -76 5 -132 37 -35
20 -64 42 -63 47 1 6 65 12 154 16 158 6 258 21 293 43 11 8 34 16 50 20 37 8
64 44 43 58 -16 11 -104 1 -132 -15 -26 -14 -159 -14 -366 0 -201 14 -249 33
-290 114 -10 20 -20 49 -22 64 l-3 29 155 27 c200 34 291 58 459 121 147 54
368 160 389 186 19 25 -4 112 -53 203 -57 105 -86 351 -41 348 6 0 29 -23 51
-51z m1859 -2472 c57 -105 191 -284 284 -380 119 -123 276 -238 427 -313 68
-34 102 -46 183 -69 21 -6 13 -23 -13 -30 -14 -4 -96 -4 -183 -1 -167 6 -233
19 -389 76 -93 34 -388 177 -508 246 -44 25 -99 56 -122 67 l-43 22 -26 -25
c-44 -41 -54 -74 -79 -269 -11 -81 -15 -91 -32 -88 -12 2 -21 26 -34 88 -9 47
-33 164 -53 260 -42 206 -62 358 -50 369 5 5 56 18 114 31 58 12 134 28 170
37 98 22 283 61 297 62 6 1 32 -37 57 -83z"/>
<path d="M6733 9478 c-5 -7 -13 -20 -16 -28 -4 -8 -23 -37 -42 -64 -45 -62
-52 -89 -31 -122 24 -35 54 -44 154 -44 75 0 94 4 137 26 86 45 127 93 104
121 -11 12 -34 15 -133 12 l-120 -4 -11 54 c-10 56 -24 72 -42 49z"/>
<path d="M7770 7538 c-39 -64 -45 -98 -45 -263 0 -209 23 -327 67 -341 11 -3
24 -2 28 3 20 21 27 134 19 292 -5 91 -10 204 -11 251 -3 71 -6 85 -20 88 -11
2 -25 -9 -38 -30z"/>
<path d="M5375 8534 c-33 -14 -69 -29 -80 -34 -43 -18 -96 -91 -145 -198 -24
-52 -24 -62 -6 -87 12 -17 19 -12 101 73 122 127 144 135 365 130 159 -3 165
-2 168 17 2 15 -11 28 -53 53 -30 18 -55 37 -55 42 0 17 -65 30 -149 30 -69 0
-98 -5 -146 -26z"/>
<path d="M5586 7849 c-98 -51 -137 -60 -188 -46 -52 14 -77 -46 -38 -95 31
-40 87 -44 168 -12 97 38 145 71 182 125 27 40 31 51 20 64 -19 23 -37 19
-144 -36z"/>
<path d="M4755 7705 c-22 -8 -74 -19 -115 -25 -80 -11 -100 -25 -100 -69 0
-46 13 -54 86 -54 80 -1 161 23 199 59 21 19 26 32 23 62 -3 31 -7 37 -28 39
-14 2 -43 -4 -65 -12z"/>
<path d="M4976 7420 c-42 -27 -66 -74 -66 -129 0 -63 25 -95 86 -110 43 -11
49 -10 85 14 49 32 50 57 4 84 -42 24 -67 77 -59 119 8 37 -13 47 -50 22z"/>
<path d="M5361 7278 c-10 -28 1 -46 67 -103 95 -80 281 -165 362 -165 60 0 32
39 -59 85 -45 22 -117 68 -261 165 -21 14 -84 40 -97 40 -2 0 -7 -10 -12 -22z"/>
<path d="M2853 7812 c-6 -4 -21 -28 -32 -52 -12 -25 -26 -52 -32 -61 -9 -13
-9 -20 -1 -30 7 -8 21 -26 32 -40 27 -36 57 -42 82 -17 18 18 20 29 15 84 -6
60 -29 124 -45 124 -4 0 -12 -4 -19 -8z"/>
<path d="M3366 7738 c-2 -7 -11 -38 -20 -68 -14 -45 -15 -64 -7 -103 6 -26 16
-55 21 -65 6 -9 14 -29 20 -44 16 -47 64 -28 99 39 15 30 14 114 -3 155 -30
70 -100 125 -110 86z"/>
<path d="M2691 7624 c-21 -81 -22 -90 -12 -117 14 -37 37 -34 90 12 38 34 42
42 37 67 -10 44 -30 64 -69 71 -34 5 -36 4 -46 -33z"/>
<path d="M2574 7520 c-17 -11 -37 -32 -45 -46 -13 -24 -12 -28 6 -38 10 -6 34
-26 53 -43 38 -36 54 -40 71 -20 10 13 2 62 -25 150 -7 22 -22 21 -60 -3z"/>
<path d="M3246 7523 c-3 -3 -6 -21 -6 -39 0 -34 -3 -36 -65 -46 -18 -3 -20
-10 -17 -60 1 -31 6 -68 12 -82 17 -45 50 -28 50 25 0 20 24 26 35 9 10 -16
42 -12 49 6 19 50 -31 213 -58 187z"/>
<path d="M3086 7250 c-3 -25 -7 -67 -9 -95 -1 -27 -6 -50 -12 -49 -5 0 -22 26
-38 58 -17 35 -32 54 -38 50 -14 -9 -6 -88 14 -135 8 -19 20 -46 26 -61 14
-38 47 -36 83 4 25 28 28 39 28 97 0 72 -12 126 -34 156 -13 18 -15 16 -20
-25z"/>
<path d="M2871 7169 c-21 -20 -23 -29 -19 -98 4 -83 40 -176 68 -176 19 0 26
95 9 126 -6 12 -13 51 -15 87 -2 36 -7 69 -12 74 -4 4 -18 -2 -31 -13z"/>
<path d="M2699 6983 c-19 -49 -5 -151 31 -228 18 -38 36 -75 42 -81 16 -21 50
-2 65 34 14 33 13 37 -3 49 -10 7 -26 13 -36 13 -27 0 -38 32 -38 114 0 83
-12 126 -35 126 -9 0 -20 -12 -26 -27z"/>
<path d="M2529 6840 c-31 -16 -37 -25 -42 -64 -4 -25 -4 -60 -1 -78 10 -55 45
-158 69 -199 18 -33 24 -37 34 -25 9 11 7 35 -14 112 -38 147 -32 186 15 97
27 -51 57 -83 77 -83 20 0 16 24 -9 55 -17 22 -23 44 -25 96 -4 110 -27 130
-104 89z"/>
<path d="M5855 5249 c-95 -31 -361 -69 -493 -69 -68 0 -102 -12 -102 -35 0 -8
10 -17 23 -19 12 -3 35 -7 50 -11 15 -3 103 -6 195 -6 198 0 316 21 415 73
126 67 61 117 -88 67z"/>
<path d="M1775 6063 c-19 -5 -156 -46 -325 -98 -102 -31 -354 -124 -475 -175
-55 -23 -138 -57 -185 -75 -74 -29 -303 -128 -382 -165 -30 -14 -40 -32 -32
-55 8 -21 13 -20 122 26 53 23 113 47 132 55 19 7 60 22 90 34 53 21 169 63
276 100 28 10 60 23 70 29 20 11 275 105 334 123 35 11 138 48 255 93 33 12
93 35 133 50 55 20 72 31 72 46 0 15 -7 19 -32 18 -18 -1 -42 -3 -53 -6z"/>
<path d="M1922 6008 c-18 -18 -15 -37 18 -88 40 -63 48 -126 24 -196 -15 -44
-32 -68 -85 -117 -65 -61 -139 -119 -208 -165 -50 -32 -119 -112 -126 -144 -7
-31 -31 -44 -39 -21 -11 27 4 85 44 173 43 95 54 138 41 159 -8 12 -16 12 -55
1 -50 -14 -67 -12 -171 20 -125 37 -315 11 -550 -75 -49 -18 -135 -45 -190
-60 -55 -15 -154 -45 -219 -66 -66 -22 -125 -39 -131 -39 -6 0 -53 -20 -103
-45 -78 -37 -92 -48 -92 -68 0 -44 33 -61 132 -68 58 -4 93 -11 98 -20 5 -7 0
-29 -11 -52 -27 -52 -18 -114 17 -127 67 -26 280 58 414 163 84 66 127 103
226 197 l82 77 93 13 c193 25 282 21 295 -14 3 -8 -2 -30 -10 -48 -21 -43 -46
-187 -46 -261 0 -118 45 -207 104 -207 28 0 60 40 73 90 18 69 136 219 286
362 89 84 133 109 169 95 7 -2 35 -43 62 -91 l48 -87 56 3 c43 2 58 8 69 25
14 21 12 25 -35 75 -64 68 -130 208 -173 366 -17 64 -38 142 -46 172 -21 76
-36 93 -61 68z"/>
<path d="M3423 4128 c-6 -7 -20 -47 -32 -88 -12 -41 -30 -97 -40 -125 -42
-114 -84 -243 -96 -295 -8 -30 -19 -69 -26 -85 -26 -66 -102 -285 -125 -360
-13 -44 -38 -99 -54 -123 -17 -23 -30 -46 -30 -50 0 -12 -141 -153 -193 -193
-133 -102 -252 -215 -316 -296 -64 -83 -88 -151 -97 -278 -7 -98 -33 -164 -93
-239 -17 -21 -31 -42 -31 -47 0 -8 -126 -112 -165 -136 -91 -58 -272 -130
-395 -159 -64 -15 -259 -58 -345 -77 -101 -21 -77 -67 49 -94 144 -30 381 -10
501 42 62 27 177 83 205 99 14 9 74 38 133 66 192 91 268 189 358 461 28 85
67 185 87 223 43 82 140 184 203 213 26 12 49 28 52 36 3 8 26 41 50 73 132
174 208 340 311 684 50 164 126 608 126 732 0 30 -20 38 -37 16z"/>
<path d="M6144 3898 c-35 -37 -82 -134 -114 -232 -48 -149 -97 -354 -111 -460
-21 -176 8 -443 61 -546 11 -22 20 -45 20 -52 0 -36 168 -338 210 -378 3 -3
31 -39 63 -80 80 -105 232 -260 358 -365 122 -101 174 -150 174 -163 0 -10
-12 -19 -30 -22 -55 -12 -109 -48 -200 -132 -49 -46 -112 -99 -139 -117 -57
-39 -54 -39 -429 -49 -287 -9 -277 -6 -277 -79 0 -72 32 -90 169 -98 60 -4
117 -13 139 -23 27 -12 67 -16 147 -16 96 0 119 4 179 27 108 42 251 141 396
272 56 51 152 105 175 99 21 -6 46 -36 119 -144 64 -95 91 -121 118 -115 13 3
53 9 90 15 78 12 235 70 293 109 22 15 88 56 148 90 76 45 107 69 107 82 0 31
-44 23 -200 -36 -80 -31 -176 -60 -214 -66 l-68 -11 -51 49 c-28 26 -80 77
-117 113 -36 36 -118 112 -181 169 -198 180 -407 389 -514 515 -28 32 -60 69
-72 82 -12 13 -35 46 -50 72 -15 26 -37 60 -50 75 -13 16 -23 33 -23 38 0 5
-12 27 -26 48 -34 52 -109 235 -128 313 -46 186 -50 223 -50 403 0 211 20 337
83 524 12 35 21 75 19 88 l-3 25 -21 -24z"/>
<path d="M55 2427 l-40 -23 3 -90 c2 -49 12 -122 23 -162 20 -76 99 -254 117
-266 6 -3 20 -26 32 -50 23 -49 238 -269 353 -364 39 -31 82 -67 95 -79 25
-24 47 -29 56 -15 7 12 -123 254 -145 267 -4 3 -17 26 -28 50 -11 24 -33 64
-50 88 -16 24 -46 84 -66 133 -21 49 -41 94 -45 99 -4 6 -30 80 -58 165 -52
161 -91 243 -122 260 -31 17 -83 11 -125 -13z"/>
<path d="M5782 2248 c-32 -32 1 -173 61 -263 45 -67 177 -223 194 -228 10 -4
36 -17 58 -31 77 -49 155 -86 179 -86 37 0 56 10 56 30 0 23 -84 116 -124 137
-39 20 -194 177 -237 240 -18 27 -45 61 -61 78 -16 16 -45 53 -65 82 -39 57
-43 59 -61 41z"/>
<path d="M809 1683 c-19 -5 -54 -66 -63 -109 -5 -23 -1 -39 20 -70 15 -21 63
-93 108 -159 44 -66 115 -162 158 -212 69 -82 96 -110 182 -187 49 -44 215
-162 264 -189 60 -31 134 -35 140 -7 4 24 -86 135 -222 273 -103 105 -145 157
-226 280 -54 84 -115 173 -134 199 -20 25 -36 50 -36 55 0 5 -26 37 -59 71
-59 62 -77 70 -132 55z"/>
<path d="M8015 1473 c-95 -51 -149 -130 -215 -318 -15 -44 -31 -93 -34 -110
-14 -63 -128 -153 -225 -177 -20 -5 -106 -15 -191 -23 -85 -8 -195 -19 -245
-25 -66 -8 -97 -7 -118 1 -43 18 -32 49 28 79 56 28 71 63 39 87 -39 28 -92
13 -208 -62 -87 -55 -124 -162 -72 -208 33 -29 188 -66 326 -77 136 -11 372
-11 450 -1 148 21 258 45 288 63 72 44 118 145 152 333 21 118 35 176 87 343
14 45 22 89 19 97 -7 19 -43 18 -81 -2z"/>
<path d="M789 1211 c-23 -18 -23 -19 -6 -67 45 -136 71 -201 92 -232 31 -46
93 -89 143 -100 38 -9 46 -7 79 17 21 15 45 36 53 45 13 17 11 21 -15 43 -78
65 -103 96 -137 166 -21 41 -51 91 -69 111 -27 31 -37 36 -74 36 -27 0 -51 -7
-66 -19z"/>
<path d="M5005 1054 c-44 -14 -96 -29 -115 -33 -19 -5 -73 -21 -120 -35 -108
-33 -126 -39 -230 -66 -47 -12 -119 -32 -160 -45 -41 -12 -95 -28 -120 -35
-87 -25 -316 -102 -370 -125 -30 -12 -99 -39 -152 -60 -114 -43 -138 -58 -122
-75 23 -23 161 15 444 123 80 31 179 62 220 71 41 9 118 29 170 45 52 16 129
39 170 51 341 100 543 188 474 206 -5 2 -45 -8 -89 -22z"/>
<path d="M5755 980 c-125 -22 -332 -74 -405 -100 -14 -5 -99 -32 -190 -60 -91
-28 -196 -62 -235 -74 -114 -38 -272 -82 -397 -111 -84 -19 -118 -31 -118 -41
0 -8 6 -17 14 -20 25 -9 280 26 305 42 13 9 55 25 95 36 126 35 209 57 296 79
94 23 223 59 315 89 33 10 105 33 159 50 55 16 104 34 110 38 6 5 37 19 69 32
81 32 70 56 -18 40z"/>
</g>
</svg>
