<?xml version="1.0" standalone="no"?>
<!DOCTYPE svg PUBLIC "-//W3C//DTD SVG 20010904//EN"
 "http://www.w3.org/TR/2001/REC-SVG-20010904/DTD/svg10.dtd">
<svg version="1.0" xmlns="http://www.w3.org/2000/svg"
 width="1120.000000pt" height="898.000000pt" viewBox="0 0 1120.000000 898.000000"
 preserveAspectRatio="xMidYMid meet">
<metadata>
Created by potrace 1.14, written by Peter Selinger 2001-2017
</metadata>
<g transform="translate(0.000000,898.000000) scale(0.100000,-0.100000)"
fill="#000000" stroke="none">
<path d="M6070 8968 c-157 -10 -270 -26 -295 -42 -12 -8 -50 -18 -83 -22 -34
-3 -67 -13 -73 -20 -6 -8 -30 -14 -53 -14 -30 0 -44 -5 -54 -20 -7 -11 -19
-20 -27 -20 -8 0 -34 -13 -57 -30 -22 -16 -47 -30 -54 -30 -7 0 -25 -13 -41
-29 -26 -26 -42 -37 -121 -81 -15 -8 -37 -24 -48 -35 -21 -19 -57 -50 -154
-130 -25 -20 -51 -49 -59 -63 -8 -14 -31 -49 -52 -77 -67 -88 -75 -99 -122
-167 -26 -37 -47 -70 -47 -75 0 -4 -9 -19 -20 -33 -11 -14 -20 -32 -20 -40 0
-9 -9 -23 -20 -33 -11 -9 -20 -24 -20 -32 0 -9 -9 -33 -20 -55 -11 -22 -20
-48 -20 -59 0 -11 -7 -32 -14 -48 -24 -46 -66 -196 -80 -282 -7 -44 -19 -87
-25 -95 -7 -8 -10 -20 -6 -26 3 -5 3 -42 -1 -81 -4 -45 -10 -66 -15 -57 -6 9
-9 4 -9 -15 0 -18 4 -26 11 -21 8 5 10 -8 5 -42 -17 -143 -18 -167 -9 -161 7
4 13 -37 17 -110 4 -64 12 -128 17 -142 6 -14 16 -70 23 -124 l13 -99 -26 -16
c-14 -9 -31 -23 -37 -31 -7 -8 -18 -11 -28 -8 -13 5 -19 1 -23 -13 -3 -11 -8
-20 -12 -20 -4 0 -23 -15 -43 -33 -19 -17 -46 -37 -59 -43 -13 -6 -45 -21 -70
-33 -25 -12 -70 -24 -100 -27 -50 -5 -56 -3 -87 25 -18 17 -44 31 -58 31 -13
0 -24 5 -24 10 0 6 -11 8 -25 4 -14 -3 -32 -1 -40 6 -8 6 -18 9 -24 6 -5 -3
-23 2 -40 11 -40 23 -44 63 -5 63 20 0 24 -4 19 -19 -4 -12 0 -21 11 -25 13
-5 15 -2 10 16 -3 13 -6 36 -6 52 0 27 -1 28 -13 12 -20 -27 -47 -10 -47 31 0
29 -4 36 -30 44 -16 6 -28 15 -25 19 3 5 0 12 -6 16 -6 3 -15 0 -20 -7 -7 -12
-14 -11 -41 3 -33 16 -85 35 -168 59 -25 7 -51 19 -58 26 -7 7 -23 13 -34 13
-29 0 -184 75 -229 111 -20 16 -43 29 -51 29 -18 0 -78 61 -78 80 0 13 14 62
30 105 4 11 13 39 19 61 6 23 18 47 26 54 8 7 15 18 15 24 0 6 14 38 30 69 17
32 30 63 30 68 0 17 77 164 101 194 42 51 95 105 102 105 5 0 16 7 24 16 16
16 20 16 143 -2 25 -3 48 -11 52 -17 7 -12 92 -12 160 -1 25 4 38 12 42 26 4
18 7 19 20 8 13 -10 16 -10 16 3 0 8 5 17 12 19 6 2 16 24 23 49 7 24 15 51
19 60 9 20 -29 69 -54 69 -10 0 -26 -10 -35 -22 -15 -22 -21 -23 -133 -21 -82
1 -130 6 -156 17 -21 9 -56 16 -78 16 -35 0 -39 2 -28 15 9 10 9 15 1 15 -17
0 -26 -4 -24 -11 1 -4 -33 -27 -75 -52 -43 -25 -88 -58 -102 -72 -47 -50 -53
-25 -13 61 40 90 53 106 69 93 11 -9 14 -8 14 5 0 9 -7 16 -15 16 -8 0 -15 7
-15 15 0 9 -8 18 -17 22 -26 9 -73 55 -67 65 3 4 -3 7 -13 6 -42 -3 -54 2 -48
21 5 15 1 18 -20 13 -20 -3 -27 0 -32 16 -9 35 -93 33 -93 -3 0 -37 23 -83 48
-95 29 -15 102 -87 102 -101 0 -5 -5 -9 -11 -9 -6 0 -9 -9 -6 -20 3 -11 -3
-30 -12 -42 -10 -13 -30 -45 -45 -72 -25 -46 -26 -49 -9 -62 10 -7 26 -14 36
-14 10 0 25 -7 33 -15 13 -13 12 -22 -13 -75 -15 -33 -32 -59 -39 -56 -7 3 -9
-4 -6 -19 2 -12 -1 -26 -7 -29 -6 -4 -11 -14 -11 -22 0 -8 -9 -33 -19 -57 -10
-23 -29 -68 -42 -99 -12 -32 -26 -58 -30 -58 -13 0 -17 39 -4 50 7 5 10 20 8
33 -2 12 1 36 8 52 7 17 14 35 14 40 1 6 5 18 8 28 4 9 10 25 13 35 4 11 8 13
11 5 3 -7 9 -13 15 -13 6 0 5 6 -2 15 -7 9 -13 29 -12 45 0 20 -7 35 -21 45
-20 14 -23 13 -39 -7 -10 -13 -18 -29 -18 -35 0 -7 -4 -13 -10 -13 -5 0 -10
-5 -10 -12 0 -13 -48 -117 -63 -136 -8 -11 -12 -11 -19 0 -5 8 -6 -1 -3 -22 5
-27 1 -42 -14 -62 -12 -14 -21 -33 -21 -41 0 -8 -9 -25 -19 -39 -11 -13 -23
-37 -27 -52 -3 -15 -13 -30 -21 -33 -8 -3 -12 -11 -9 -18 2 -6 -5 -32 -16 -56
-17 -39 -21 -42 -30 -26 -5 11 -7 33 -4 50 4 21 3 27 -3 18 -7 -11 -21 -1 -63
41 -46 48 -52 57 -39 67 12 8 7 9 -23 5 -29 -5 -37 -4 -32 5 6 8 0 10 -18 5
-19 -4 -26 -2 -26 8 0 8 -17 23 -37 34 -87 46 -83 36 -51 111 13 29 28 53 34
53 6 0 16 19 23 43 20 66 37 87 72 87 17 0 28 4 24 10 -3 5 -12 7 -20 3 -9 -3
-15 1 -15 8 1 21 57 82 68 75 5 -3 13 5 16 19 4 17 11 22 22 18 12 -4 14 0 9
19 -4 17 0 29 14 42 12 11 21 25 21 33 0 7 7 16 15 20 9 3 22 18 30 34 8 15
26 39 40 53 14 14 25 30 25 37 0 20 41 68 54 63 10 -4 13 6 13 37 0 24 5 45
12 47 6 2 11 12 11 22 0 10 7 40 16 68 24 73 13 129 -37 189 -21 26 -39 52
-39 58 0 5 7 2 14 -7 17 -23 26 -23 26 1 0 18 -30 34 -60 32 -16 -1 -60 60
-60 84 0 8 6 15 14 15 7 0 19 7 26 15 10 12 7 13 -20 5 -29 -8 -31 -7 -28 13
2 18 8 21 33 18 35 -4 65 -18 65 -30 0 -5 -11 -19 -25 -32 -13 -13 -25 -27
-25 -31 0 -15 17 -8 44 17 22 20 28 22 32 10 4 -8 12 -15 19 -15 7 0 30 -17
51 -38 41 -40 154 -138 238 -207 65 -53 116 -103 116 -115 0 -5 6 -7 13 -4 8
3 28 -10 46 -28 18 -18 37 -33 44 -33 17 -1 103 -43 158 -76 25 -16 53 -29 62
-29 9 0 22 -6 29 -14 8 -7 24 -17 36 -20 12 -4 22 -16 22 -26 0 -25 18 -36 26
-16 4 10 18 16 38 16 28 -1 29 -2 14 -14 -24 -18 -22 -26 6 -26 18 0 26 6 28
22 3 21 4 21 21 4 9 -10 17 -13 17 -7 0 6 14 11 30 11 17 0 30 5 30 10 0 6 -4
10 -10 10 -5 0 -12 11 -16 25 -3 13 -15 27 -25 30 -10 4 -19 11 -19 16 0 5 -9
9 -20 9 -11 0 -20 4 -20 10 0 5 -21 19 -47 30 -163 72 -241 115 -250 141 -9
22 -19 28 -59 34 -57 8 -100 40 -82 62 6 7 8 17 4 20 -4 4 -11 1 -16 -7 -7
-11 -11 -11 -24 -1 -15 12 -15 15 1 27 17 12 17 13 -4 14 -12 0 -23 3 -26 8
-2 4 -2 1 -1 -5 6 -25 -23 -12 -64 29 -23 22 -42 45 -42 50 0 4 -6 8 -14 8 -8
0 -30 18 -49 40 -19 22 -38 40 -44 40 -6 0 -31 19 -56 43 -25 23 -54 47 -64
53 -64 38 -116 64 -131 64 -10 0 -22 4 -27 9 -6 5 -35 16 -65 25 l-55 16 -47
-51 c-39 -41 -48 -57 -48 -86 0 -52 22 -163 32 -163 5 0 8 -10 7 -22 -3 -31
10 -58 28 -58 11 0 14 -7 9 -27 -4 -18 -3 -23 2 -15 7 11 12 10 26 -4 33 -32
51 -67 39 -71 -9 -3 -9 -9 -1 -22 16 -25 -19 -149 -44 -157 -12 -3 -18 -15
-18 -33 0 -16 -6 -34 -14 -40 -8 -7 -17 -23 -20 -37 -4 -14 -22 -48 -41 -76
-19 -28 -35 -56 -35 -64 0 -7 -7 -17 -15 -22 -9 -4 -23 -24 -33 -43 -19 -38
-48 -50 -56 -22 -3 10 -3 -1 0 -25 5 -35 2 -46 -15 -61 -12 -10 -21 -23 -21
-28 0 -5 -14 -25 -31 -44 -17 -19 -36 -46 -41 -61 -6 -16 -14 -28 -19 -28 -6
0 -15 -13 -20 -30 -6 -16 -17 -30 -24 -30 -14 0 -108 67 -113 82 -6 14 -75 45
-116 51 -37 6 -66 -7 -66 -30 0 -5 -11 -19 -25 -31 -26 -22 -33 -42 -15 -42 6
0 10 -7 10 -15 0 -8 -4 -15 -10 -15 -5 0 -10 -22 -10 -50 0 -36 4 -50 14 -50
8 0 16 -16 19 -42 7 -48 -12 -87 -44 -95 -11 -3 -22 -17 -24 -32 -3 -14 -10
-41 -16 -59 -8 -24 -7 -47 1 -83 7 -27 9 -65 6 -83 -4 -19 -2 -37 3 -40 15
-10 62 -116 56 -126 -3 -5 0 -18 7 -29 9 -15 9 -25 0 -45 -16 -35 -30 -33 -46
7 -29 70 -38 113 -41 198 -2 91 -17 129 -52 129 -23 0 -83 -53 -83 -73 0 -10
-4 -26 -10 -36 -18 -34 -13 -130 12 -213 11 -37 5 -88 -11 -88 -5 0 -14 14
-21 30 -7 17 -21 35 -31 40 -14 8 -21 3 -39 -35 -36 -74 -28 -200 13 -227 7
-4 6 -13 -3 -25 -8 -10 -10 -15 -5 -10 13 11 55 -33 55 -59 0 -12 -7 -24 -15
-28 -17 -6 -21 -46 -5 -46 22 0 8 -20 -28 -40 -27 -15 -43 -33 -52 -58 -12
-35 -41 -99 -59 -132 -24 -44 -31 -61 -31 -75 0 -9 -7 -18 -15 -21 -8 -4 -15
-15 -15 -25 0 -19 -63 -150 -86 -179 -7 -8 -19 -35 -27 -60 -9 -25 -25 -64
-36 -87 -12 -23 -21 -47 -21 -53 0 -5 -4 -10 -8 -10 -4 0 -23 -36 -41 -80 -18
-44 -39 -87 -47 -94 -8 -8 -14 -19 -14 -24 0 -5 -9 -17 -20 -27 -11 -10 -20
-27 -20 -38 0 -10 -8 -36 -19 -56 -10 -20 -25 -49 -32 -66 -8 -16 -22 -39 -32
-49 -9 -11 -17 -28 -17 -38 0 -23 -56 -144 -70 -153 -5 -3 -10 -13 -10 -22 0
-21 -61 -143 -71 -143 -5 0 -9 -8 -9 -17 0 -25 -23 -83 -33 -83 -4 0 -15 -17
-23 -37 -11 -25 -18 -33 -24 -23 -4 7 -13 9 -20 5 -10 -6 -9 -11 4 -21 13 -9
15 -17 8 -31 -26 -49 -92 -195 -92 -204 0 -5 -5 -9 -11 -9 -5 0 -17 -17 -25
-37 -37 -91 -57 -124 -70 -119 -10 4 -14 -3 -14 -25 0 -17 -13 -56 -30 -86
-16 -30 -30 -59 -30 -65 0 -6 -6 -19 -14 -27 -14 -17 -47 -75 -103 -181 -19
-36 -38 -69 -44 -74 -5 -6 -9 -20 -9 -33 0 -13 -5 -23 -10 -23 -6 0 -16 -12
-23 -27 -6 -16 -17 -32 -24 -36 -7 -4 -13 -15 -13 -23 0 -8 -12 -33 -27 -57
-15 -23 -40 -67 -54 -98 -15 -30 -35 -61 -44 -69 -9 -7 -25 -34 -37 -59 -11
-25 -27 -53 -35 -62 -8 -9 -27 -43 -43 -75 l-28 -58 21 -23 c12 -12 27 -23 33
-23 6 0 17 -7 24 -15 22 -26 121 -68 171 -73 72 -7 103 12 141 85 17 34 36 61
41 60 5 -1 14 14 20 33 7 19 21 39 33 45 11 6 19 16 16 24 -4 13 21 64 65 131
44 66 56 80 64 74 5 -3 9 4 9 16 0 12 5 31 11 42 17 32 102 142 116 151 7 4
13 15 13 23 0 19 18 50 60 103 40 49 66 87 79 116 5 11 25 36 45 54 20 19 36
39 36 43 0 21 73 116 85 112 9 -4 15 5 17 28 3 30 6 33 31 30 27 -3 28 -2 22
32 -6 30 -3 39 22 63 15 16 38 42 51 59 16 19 21 22 16 9 -15 -44 -16 -65 -4
-65 7 0 10 8 7 19 -3 12 1 22 9 25 8 3 14 19 14 37 0 37 25 70 46 62 10 -4 14
3 14 26 0 17 4 31 8 31 5 0 14 10 20 23 6 12 11 16 11 10 1 -7 6 -13 12 -13 6
0 9 9 6 20 -6 25 8 54 45 93 27 29 48 29 48 1 0 -8 5 -14 10 -14 7 0 7 6 0 20
-8 15 -6 28 10 57 11 21 20 41 20 46 0 12 69 101 86 110 8 4 20 23 28 41 17
41 67 90 77 75 10 -16 43 -6 47 14 2 12 -1 15 -12 11 -9 -3 -16 -1 -16 6 0 21
20 50 35 50 9 0 16 10 16 23 1 16 2 18 6 5 9 -35 32 -19 39 28 3 25 16 56 28
69 34 38 46 54 46 63 0 5 9 17 20 27 11 10 20 24 20 31 0 7 7 17 16 22 8 5 21
18 27 29 24 41 89 123 98 123 5 0 9 8 9 18 0 10 10 29 23 42 38 41 116 144
133 176 9 16 29 39 45 50 16 10 29 25 29 32 0 8 8 10 23 7 16 -4 29 0 42 14
21 24 13 40 -10 21 -12 -10 -15 -10 -15 3 0 14 26 50 70 98 8 9 23 31 34 50
10 19 21 29 23 22 2 -7 0 -21 -6 -32 -15 -27 -13 -62 3 -83 7 -10 16 -18 19
-18 14 0 87 -75 83 -86 -3 -7 7 -14 22 -17 16 -3 34 -18 45 -36 10 -17 24 -31
31 -31 8 0 21 -11 29 -24 27 -41 64 -76 79 -76 8 0 29 -16 47 -35 17 -19 38
-35 45 -35 8 0 16 -7 20 -15 3 -8 12 -15 20 -15 9 0 19 -12 22 -26 4 -15 12
-23 20 -20 7 3 16 1 20 -5 3 -6 17 -15 31 -20 17 -6 23 -14 19 -25 -4 -12 -1
-14 14 -9 13 4 23 0 32 -14 7 -12 20 -21 30 -21 9 0 23 -6 30 -13 7 -7 26 -22
41 -32 17 -11 26 -24 22 -33 -4 -11 2 -13 27 -10 25 4 41 -2 76 -28 24 -19 49
-34 57 -34 7 0 18 -7 25 -15 7 -8 21 -15 32 -15 14 0 18 -5 14 -15 -3 -8 -1
-15 4 -15 6 0 10 4 10 9 0 14 73 -18 83 -35 4 -8 22 -14 40 -14 35 0 114 -25
135 -42 11 -9 11 -13 0 -20 -8 -5 10 -6 42 -2 40 4 51 3 40 -5 -12 -9 -9 -11
15 -12 17 -1 39 -3 50 -4 11 -2 52 -6 90 -10 39 -3 79 -11 91 -17 33 -16 338
3 358 23 14 12 100 11 112 -1 8 -8 15 -6 24 5 19 23 39 19 84 -18 23 -19 48
-36 57 -39 11 -4 19 -24 23 -56 3 -27 15 -60 26 -72 24 -28 25 -34 3 -51 -10
-8 -14 -9 -10 -2 11 18 -9 25 -24 7 -12 -15 -26 -14 -83 3 -11 3 -16 1 -12 -5
7 -11 -63 -22 -143 -22 -32 0 -61 -4 -67 -8 -5 -5 -27 -13 -49 -19 -75 -20
-140 -36 -170 -41 -16 -2 -37 -10 -45 -16 -22 -18 -68 -36 -90 -36 -10 0 -23
-6 -27 -12 -4 -7 -35 -26 -68 -42 -33 -16 -67 -33 -75 -38 -8 -4 -25 -12 -37
-18 -13 -5 -23 -16 -23 -24 0 -19 -87 -81 -142 -102 -10 -3 -18 -12 -18 -19 0
-6 -25 -32 -55 -56 -30 -24 -55 -48 -55 -53 0 -5 -17 -32 -38 -60 -44 -59
-122 -226 -122 -261 0 -13 -4 -27 -10 -30 -5 -3 -14 -24 -21 -47 -8 -30 -13
-38 -19 -27 -6 8 -9 -22 -8 -76 1 -106 -8 -155 -28 -155 -8 0 -14 -7 -14 -15
0 -8 5 -15 11 -15 18 0 -3 -244 -22 -256 -15 -9 -10 -51 7 -58 9 -3 14 -12 11
-19 -3 -7 0 -23 7 -35 8 -14 10 -46 6 -90 -11 -136 2 -555 19 -576 7 -9 17
-60 26 -131 1 -11 7 -33 14 -48 6 -16 11 -40 11 -55 0 -15 7 -46 15 -70 9 -24
13 -47 10 -52 -3 -5 5 -28 17 -51 15 -30 18 -44 10 -47 -7 -2 -12 -11 -12 -20
0 -14 2 -14 9 -3 14 22 28 5 46 -57 9 -31 21 -66 25 -77 5 -11 11 -38 14 -59
6 -47 -24 -106 -55 -106 -10 0 -19 -5 -19 -10 0 -6 -10 -15 -22 -21 -13 -5
-34 -16 -48 -24 -14 -8 -34 -15 -46 -15 -11 0 -29 -9 -39 -20 -10 -11 -23 -20
-30 -20 -7 0 -20 -9 -31 -21 -16 -17 -26 -20 -61 -15 -42 5 -42 5 -32 -18 10
-21 4 -33 -56 -112 -37 -49 -74 -93 -81 -97 -8 -4 -14 -12 -14 -17 0 -5 -29
-51 -65 -102 -69 -99 -125 -202 -125 -231 0 -10 -7 -34 -16 -55 -15 -37 -35
-114 -36 -142 -1 -35 25 -177 37 -195 6 -11 18 -38 25 -60 7 -22 16 -44 21
-49 5 -6 9 -20 9 -33 0 -13 7 -26 15 -29 8 -4 15 -15 15 -25 0 -10 6 -19 14
-19 8 0 38 -29 66 -65 28 -36 58 -65 65 -65 8 0 22 -11 33 -25 23 -29 95 -64
132 -65 18 0 21 -3 12 -9 -15 -9 57 -31 101 -31 13 0 32 -7 43 -15 10 -8 40
-15 66 -15 29 0 53 -6 62 -16 9 -8 21 -12 28 -8 7 4 100 9 208 10 188 1 240 7
287 32 12 7 35 12 50 12 16 0 45 8 65 19 21 10 61 26 90 35 70 22 148 57 148
67 0 5 16 11 35 15 19 3 39 12 46 20 6 8 19 14 28 14 9 0 32 16 51 35 19 19
42 35 50 35 8 0 24 7 34 15 11 8 32 15 48 15 15 0 28 4 28 10 0 26 130 140
160 140 6 0 15 9 22 20 7 11 16 20 19 20 4 0 22 15 41 32 18 18 44 40 56 48
12 8 22 17 22 21 0 16 134 143 138 131 2 -7 8 -9 13 -6 6 4 6 11 -2 20 -9 11
3 28 57 83 82 83 90 93 127 150 18 26 34 41 42 37 9 -3 12 0 8 9 -3 8 7 30 21
47 51 63 97 130 108 156 16 41 38 175 49 297 17 193 -6 388 -68 574 -30 90
-51 114 -80 95 -14 -9 -18 -24 -16 -73 1 -34 6 -68 12 -75 22 -26 15 -120 -13
-182 -27 -59 -134 -174 -161 -174 -7 0 -18 -7 -25 -15 -7 -8 -24 -15 -39 -15
-15 0 -31 -4 -36 -9 -13 -11 -174 -69 -245 -88 -30 -8 -68 -18 -85 -23 -38
-12 -227 -37 -325 -44 -82 -6 -206 8 -227 26 -8 6 -31 8 -58 5 -29 -4 -59 -2
-83 7 -20 8 -57 19 -81 26 -31 8 -40 14 -31 20 8 5 26 6 42 3 15 -3 51 2 80
12 78 25 109 33 153 41 22 3 51 12 65 19 65 32 118 55 130 55 7 0 27 9 45 20
19 11 37 20 42 18 17 -4 79 15 105 34 15 10 51 30 80 44 29 14 69 34 88 45 19
10 40 16 47 14 7 -2 15 4 18 14 3 11 13 22 23 25 9 4 35 18 57 31 22 14 48 28
58 31 9 4 17 11 17 16 0 5 6 8 13 6 6 -2 34 18 60 45 27 26 56 47 65 47 9 0
27 15 40 33 l23 32 -22 18 c-30 24 -46 22 -86 -13 -18 -16 -40 -30 -48 -30 -8
0 -15 -4 -15 -9 0 -4 -28 -23 -62 -41 -35 -18 -70 -39 -78 -46 -8 -7 -37 -20
-65 -29 -27 -9 -59 -25 -70 -35 -21 -18 -184 -100 -199 -100 -5 0 -41 -15 -80
-34 -120 -57 -160 -73 -196 -81 -19 -4 -44 -14 -55 -21 -11 -7 -39 -16 -63
-20 -23 -4 -45 -10 -47 -15 -3 -4 -27 -11 -53 -14 -26 -3 -69 -12 -97 -20 -27
-8 -61 -17 -75 -20 -148 -30 -140 -26 -140 -70 0 -43 -17 -55 -25 -18 -4 15
-10 36 -16 45 -5 10 -9 25 -9 34 0 8 -7 22 -15 30 -10 10 -13 24 -9 41 4 16 3
24 -3 20 -6 -4 -21 23 -35 61 -34 92 -106 319 -114 362 -3 19 -10 40 -15 45
-4 6 -10 33 -13 61 -3 27 -16 84 -29 125 -29 88 -47 212 -53 359 -3 57 -9 109
-14 114 -6 6 -10 24 -9 41 1 29 1 29 8 5 l7 -25 7 27 c4 14 4 34 1 42 -4 11
-1 16 10 16 10 0 16 -9 16 -24 0 -14 10 -30 25 -40 28 -18 65 -21 65 -5 0 16
69 2 100 -20 14 -10 45 -20 68 -24 24 -3 54 -15 66 -26 24 -22 42 -27 48 -12
2 6 18 6 43 0 22 -5 61 -11 88 -15 33 -3 47 -10 47 -20 0 -13 15 -15 83 -13
45 2 136 -1 202 -5 66 -4 147 -8 180 -7 52 0 56 -1 33 -10 -16 -6 -28 -14 -28
-19 0 -10 61 6 69 18 3 5 29 12 56 15 34 5 45 4 35 -3 -8 -5 -21 -10 -28 -10
-8 0 -25 -9 -39 -20 -14 -11 -34 -20 -44 -20 -11 0 -27 -4 -37 -9 -33 -18
-208 -65 -267 -73 -210 -28 -282 -31 -390 -19 -107 12 -180 34 -211 66 -67 67
-110 -121 -45 -199 7 -9 41 -30 75 -47 33 -17 67 -36 74 -42 8 -6 23 -12 34
-12 12 -1 26 -8 32 -16 6 -8 31 -15 55 -16 25 -2 47 -7 50 -12 8 -12 232 -35
281 -28 25 3 41 1 44 -7 3 -7 5 -7 5 2 1 7 16 12 40 12 22 0 42 4 45 9 3 5 18
12 33 16 32 7 73 42 73 61 0 19 -39 24 -115 14 -120 -16 -238 -12 -287 9 -33
14 -47 16 -61 7 -14 -9 -21 -7 -32 7 -7 10 -16 14 -19 9 -11 -18 -96 -1 -96
19 0 5 10 9 23 10 22 0 22 0 -2 12 -19 9 -25 9 -29 -1 -2 -6 -7 -12 -12 -12
-12 0 -70 50 -70 61 0 14 17 11 34 -6 18 -19 119 -22 334 -10 99 6 145 12 153
21 6 8 29 14 50 14 21 0 63 7 94 14 99 26 330 107 346 122 8 8 19 14 24 14 7
0 133 62 208 102 44 24 49 23 75 -16 16 -24 22 -42 17 -56 -5 -16 -2 -23 12
-26 18 -5 51 -80 60 -139 2 -16 8 -39 13 -50 25 -55 60 -153 60 -166 1 -8 12
-27 25 -44 20 -25 28 -28 42 -19 42 26 47 95 21 254 -22 135 -30 170 -39 170
-5 0 -9 7 -9 16 0 9 -6 30 -14 47 -18 42 -34 102 -41 154 l-5 43 34 0 c19 0
36 5 38 11 2 5 39 13 83 16 44 3 83 11 87 17 4 6 28 9 53 8 35 -1 47 2 52 16
9 23 34 41 56 42 10 0 39 9 64 21 39 18 49 19 70 8 19 -10 28 -11 44 -1 11 7
25 10 30 6 7 -4 9 1 5 14 -8 23 4 28 107 38 50 5 67 4 67 -5 0 -9 11 -11 40
-6 33 6 40 4 40 -10 0 -13 7 -15 34 -10 20 4 36 2 40 -4 4 -6 15 -11 24 -11 9
0 35 -14 56 -30 22 -17 47 -30 57 -30 9 0 22 -6 28 -14 6 -8 26 -19 44 -26 18
-7 44 -27 60 -44 15 -17 24 -23 21 -13 -8 22 -8 22 50 -8 27 -14 56 -25 63
-25 8 0 26 -8 41 -18 102 -68 123 -82 129 -82 17 0 94 -44 106 -59 6 -10 24
-21 38 -24 39 -10 94 -51 91 -69 -4 -22 16 -32 33 -18 12 10 25 4 66 -29 28
-23 55 -41 60 -41 5 0 8 -10 6 -21 -1 -17 7 -25 38 -36 65 -22 81 -40 84 -90
1 -7 8 -13 16 -13 23 0 75 -41 75 -60 0 -27 20 -39 56 -33 35 6 82 -21 96 -55
5 -14 7 -12 7 6 1 28 25 29 45 0 18 -25 22 -128 6 -128 -5 0 -10 -7 -10 -15 0
-8 5 -15 10 -15 6 0 10 -31 10 -73 0 -53 5 -82 20 -109 13 -25 18 -47 14 -68
-4 -19 -2 -30 5 -30 6 0 11 5 11 10 0 14 13 13 34 -3 25 -18 11 -45 -20 -39
-25 5 -30 -3 -15 -27 5 -7 14 -10 20 -7 19 12 12 -29 -9 -56 -10 -14 -22 -45
-26 -69 -4 -24 -13 -53 -20 -64 -8 -11 -14 -28 -14 -38 0 -11 -9 -21 -20 -24
-15 -4 -19 -11 -14 -26 8 -25 -15 -137 -32 -158 -8 -8 -14 -23 -14 -32 0 -9
-4 -19 -10 -22 -6 -3 -10 -25 -10 -49 0 -47 -17 -106 -30 -106 -5 0 -9 -21 -9
-48 1 -72 -38 -243 -58 -257 -15 -11 -15 -17 -5 -39 7 -17 10 -53 7 -94 -2
-37 -7 -117 -10 -179 l-5 -112 57 -37 c56 -36 73 -42 173 -66 25 -6 47 -14 50
-18 3 -4 39 -10 81 -13 48 -3 92 -13 117 -26 23 -12 59 -21 81 -21 34 0 42 5
60 34 12 18 21 43 21 55 0 11 5 21 10 21 6 0 10 9 10 19 0 11 8 22 18 24 16 4
16 5 0 6 -19 1 -22 15 -19 70 2 22 -1 31 -8 27 -7 -4 -9 -1 -5 8 4 10 -4 16
-27 21 -27 6 -29 9 -16 17 9 5 17 13 17 18 0 16 -52 11 -72 -7 -17 -15 -23
-16 -61 -2 -35 12 -42 19 -39 38 1 13 -5 29 -15 37 -17 12 -16 13 5 14 16 0
26 -7 29 -20 5 -20 33 -29 33 -10 0 6 5 10 10 10 6 0 10 -7 10 -15 0 -15 29
-10 41 7 3 4 26 5 52 2 37 -5 47 -11 47 -25 0 -12 7 -19 20 -19 29 0 45 -35
22 -52 -25 -18 -27 -77 -3 -105 13 -16 34 -24 72 -28 56 -7 79 -18 79 -41 0
-20 17 -26 38 -13 17 10 26 6 69 -35 36 -34 49 -53 46 -67 -3 -10 0 -19 6 -19
6 0 11 6 11 13 1 7 6 5 14 -5 7 -10 17 -18 22 -18 5 0 29 -18 53 -40 24 -22
53 -40 64 -40 11 0 55 -10 99 -22 69 -19 86 -20 124 -10 24 7 56 12 70 12 14
0 39 8 55 17 24 14 33 15 49 5 24 -15 30 -15 30 -2 0 6 -7 10 -16 10 -25 0 -7
17 24 23 28 6 109 42 162 73 14 8 36 12 48 9 32 -8 70 4 51 15 -9 6 -6 10 12
15 14 3 29 5 35 4 5 -1 18 -1 29 0 20 2 20 2 1 16 -20 15 -20 15 0 15 10 0 32
7 48 15 15 8 36 15 46 15 10 0 20 4 22 8 6 16 78 51 93 46 7 -3 23 3 35 14 11
10 33 25 48 32 58 30 123 83 138 115 8 18 16 53 17 77 3 65 -28 98 -138 151
-42 21 -42 21 -137 -18 -13 -5 -18 -2 -18 10 0 9 -6 15 -12 12 -7 -2 -13 -17
-13 -33 0 -19 -5 -28 -14 -26 -7 1 -18 -3 -25 -11 -6 -8 -33 -26 -61 -41 l-50
-27 30 25 c37 32 30 40 -15 19 -46 -22 -47 -23 -30 -33 12 -8 10 -14 -15 -35
-33 -27 -57 -33 -49 -12 6 16 -23 43 -34 32 -4 -4 -1 -10 6 -12 29 -11 8 -23
-39 -23 -57 0 -57 12 -1 36 26 11 33 17 23 23 -16 10 -7 47 19 76 10 11 22 30
28 41 9 16 18 20 38 16 20 -4 25 -1 22 9 -3 8 -12 13 -22 11 -20 -4 -21 8 -1
34 8 10 15 27 15 37 0 19 20 24 20 5 0 -6 6 -3 14 8 8 10 12 29 9 41 -3 13 -2
30 1 39 5 13 9 14 22 3 13 -11 14 -7 8 38 -4 34 -2 58 7 74 7 13 12 27 11 31
-1 4 4 20 10 35 6 15 13 43 13 61 1 18 9 40 17 50 14 15 22 54 33 160 1 18 7
38 13 45 5 6 12 59 16 116 4 58 11 112 15 120 9 17 4 647 -5 662 -11 19 -14
140 -4 159 9 16 8 22 -5 26 -17 7 -21 34 -5 34 6 0 10 5 10 11 0 5 -4 8 -9 4
-11 -6 -31 55 -31 95 0 14 -9 43 -19 65 -10 22 -21 60 -25 85 -4 25 -13 55
-21 67 -8 12 -18 41 -21 65 -4 24 -15 54 -26 67 -10 13 -18 32 -18 42 0 11 -4
19 -8 19 -12 0 -72 116 -72 139 0 14 5 18 20 14 11 -3 20 0 20 6 0 6 -13 11
-29 11 -39 0 -81 34 -63 51 19 21 15 42 -8 36 -14 -4 -26 4 -42 26 -12 18 -30
39 -40 48 -10 9 -18 20 -18 25 0 5 -23 34 -50 64 -27 30 -64 72 -82 94 -18 21
-45 50 -59 65 -14 14 -29 36 -33 49 -4 12 -16 27 -27 32 -25 14 -26 68 -1 76
9 4 49 22 87 42 39 19 77 39 85 43 8 4 22 10 30 14 56 22 120 76 137 115 9 19
18 38 20 42 12 24 -90 66 -113 47 -8 -6 -23 -7 -36 -3 -13 4 -40 6 -61 5 -22
-2 -48 4 -63 13 -13 9 -24 12 -24 6 0 -12 -57 -13 -64 -1 -3 5 -22 12 -41 15
-25 5 -39 14 -45 31 -11 30 -28 40 -66 40 -24 0 -30 -4 -26 -17 6 -23 0 -22
-45 2 -21 11 -42 20 -48 20 -6 0 -25 14 -44 30 -18 17 -36 28 -41 25 -5 -3
-30 13 -57 36 -86 74 -93 79 -101 79 -4 0 -34 25 -67 56 -33 30 -72 62 -87 71
-16 10 -28 24 -28 33 0 8 -9 21 -20 28 -11 7 -32 37 -46 67 -22 46 -25 64 -21
122 2 37 7 77 11 88 6 16 6 17 -3 5 -9 -12 -11 -9 -11 15 0 23 3 27 10 15 7
-11 10 -5 10 23 0 54 24 107 49 107 11 0 24 8 30 18 8 15 24 17 127 14 87 -2
126 1 148 12 100 47 129 57 138 44 6 -10 10 -11 16 0 10 15 81 52 99 52 7 0
13 -4 13 -10 0 -5 21 2 46 15 31 17 51 22 58 16 8 -7 16 -4 24 10 7 10 19 19
27 19 30 0 92 36 132 77 47 48 61 52 86 23 17 -21 47 -27 47 -11 0 13 39 25
75 23 25 -2 27 -1 13 8 -16 10 -16 12 2 30 11 11 26 20 33 20 7 0 17 4 23 10
5 5 23 12 39 14 58 9 161 34 222 55 35 12 88 21 120 21 41 0 54 3 43 10 -12 8
-10 10 11 10 14 0 30 -5 36 -11 8 -8 14 -6 21 8 6 10 36 27 69 37 32 11 65 25
73 31 8 7 27 15 43 19 15 4 35 14 45 24 10 10 33 24 52 32 19 8 37 17 41 22 3
4 2 33 -1 64 -5 43 -3 57 8 61 19 8 6 83 -18 103 -24 21 -31 69 -14 102 8 15
11 34 8 42 -9 25 10 19 21 -6 15 -33 37 -36 29 -4 -4 16 -2 26 5 26 6 0 11
-18 11 -44 0 -40 -2 -44 -22 -38 -20 5 -21 2 -15 -33 3 -20 8 -40 11 -42 9
-10 26 9 26 28 0 11 5 17 10 14 6 -3 10 -15 10 -26 0 -11 4 -18 8 -15 4 2 18
-40 31 -94 19 -81 21 -105 12 -131 -14 -40 -14 -69 -1 -69 6 0 10 11 10 25 0
14 4 25 10 25 11 0 17 -24 24 -104 3 -32 10 -64 15 -69 6 -6 11 -33 11 -60 0
-26 4 -46 9 -43 4 3 13 -12 20 -33 14 -47 14 -74 1 -66 -19 12 -10 -24 11 -44
14 -13 26 -43 34 -88 15 -82 53 -229 65 -251 14 -29 50 -166 50 -194 0 -15 4
-29 9 -33 10 -6 27 -110 22 -134 -1 -8 3 -17 9 -21 14 -9 50 -150 50 -198 0
-18 9 -51 20 -72 11 -22 24 -66 29 -97 9 -55 29 -148 68 -308 9 -38 18 -96 19
-128 2 -32 8 -66 14 -77 12 -23 13 -53 1 -46 -4 3 -6 -6 -3 -20 2 -14 11 -28
18 -31 8 -3 14 -18 14 -33 0 -15 7 -47 15 -70 8 -23 15 -54 15 -69 1 -14 8
-44 17 -66 12 -32 16 -93 17 -315 3 -291 8 -327 52 -382 12 -15 24 -31 26 -36
12 -33 135 -87 188 -83 59 3 166 75 183 122 6 17 -28 55 -103 115 -45 36 -69
68 -70 91 0 7 7 10 15 7 8 -4 15 -1 15 5 0 6 -9 11 -20 11 -11 0 -20 7 -20 15
0 10 10 15 33 15 44 0 67 18 69 55 1 17 -3 91 -8 165 -5 74 -8 159 -7 188 1
33 -3 50 -9 46 -7 -4 -9 28 -7 92 2 87 -4 203 -17 314 -16 145 -24 266 -19
291 4 16 2 35 -3 42 -14 18 -25 107 -14 120 5 7 12 25 16 41 6 23 4 27 -8 23
-24 -9 -30 26 -30 193 0 85 -3 144 -6 130 -5 -20 -8 -15 -11 23 -3 35 0 51 10
57 11 6 12 17 4 58 -7 37 -7 50 1 49 6 -1 9 5 8 13 -7 27 -3 183 8 315 6 72
13 191 15 266 3 75 9 147 13 160 10 26 7 173 -3 189 -9 15 -1 439 8 433 4 -2
4 49 1 114 -3 65 -8 206 -10 313 -6 267 -13 406 -24 461 -5 25 -7 55 -4 66 3
11 -1 71 -10 133 -11 79 -13 117 -6 126 8 8 8 13 0 16 -6 2 -13 41 -16 88 -4
62 -3 81 5 70 8 -12 11 -7 11 23 0 42 -7 47 -20 15 -7 -19 -9 -15 -9 22 -1 25
-6 62 -12 84 -6 21 -12 57 -14 80 -2 22 -12 91 -22 153 -19 127 -13 158 34
169 15 4 43 18 61 31 17 13 32 19 32 14 0 -6 5 -11 10 -11 6 0 10 4 10 10 0 5
21 29 46 52 59 54 72 80 80 162 5 53 3 74 -11 107 -15 31 -16 42 -6 48 9 6 8
11 -4 21 -12 10 -15 10 -15 -3 0 -19 -17 -23 -210 -52 -14 -2 -34 -5 -45 -7
-12 -2 -19 2 -18 10 2 6 -4 12 -12 12 -8 0 -14 -5 -12 -12 1 -8 -18 -15 -53
-19 -30 -4 -56 -12 -58 -18 -2 -6 -8 -9 -12 -6 -5 3 -26 -1 -47 -8 -21 -7 -60
-14 -88 -16 -27 -1 -52 -6 -55 -11 -3 -4 -18 -10 -35 -13 -16 -2 -64 -12 -105
-20 -164 -34 -431 -42 -624 -19 -100 12 -154 5 -186 -25 -13 -12 -28 -23 -32
-23 -5 0 -8 -6 -8 -14 0 -7 -7 -19 -15 -26 -8 -7 -12 -16 -9 -21 2 -5 -2 -34
-10 -66 -10 -37 -12 -61 -6 -67 6 -6 10 -18 10 -27 0 -9 18 -36 40 -60 22 -24
36 -45 30 -47 -5 -2 -10 -8 -10 -14 0 -6 6 -6 15 2 14 12 55 5 55 -9 0 -5 22
-11 48 -15 27 -3 52 -9 56 -13 9 -10 78 -33 98 -33 21 0 32 -48 18 -84 -5 -15
-10 -57 -10 -94 0 -47 -3 -63 -10 -52 -7 11 -10 4 -10 -26 0 -27 8 -51 25 -74
28 -38 32 -56 40 -193 4 -66 2 -96 -5 -92 -13 8 -13 -18 0 -31 7 -7 1 -28 -18
-64 -30 -56 -63 -85 -41 -36 7 14 9 29 5 33 -12 13 -27 -21 -22 -49 11 -58
-16 -74 -62 -38 -18 15 -34 19 -54 15 -20 -5 -28 -3 -28 7 0 10 -3 9 -10 -2
-7 -11 -32 -16 -97 -18 -48 -2 -98 -8 -110 -14 -12 -6 -33 -8 -47 -4 -13 3
-27 2 -30 -3 -3 -4 -25 -11 -48 -14 -63 -9 -157 -61 -173 -95 -12 -27 -83 -58
-155 -67 -49 -6 -110 -28 -193 -71 -37 -18 -68 -18 -61 0 8 20 -22 28 -37 10
-10 -13 -10 -17 0 -24 11 -6 9 -10 -7 -19 -11 -6 -27 -11 -36 -11 -8 0 -16 -3
-18 -7 -1 -5 -20 -16 -40 -25 -32 -15 -38 -15 -48 -2 -7 7 -17 14 -22 14 -6 0
-6 -6 1 -14 21 -26 -7 -29 -47 -6 -78 47 -197 23 -279 -55 -15 -15 -46 -39
-68 -53 -37 -25 -70 -55 -77 -70 -16 -35 -134 -75 -149 -50 -7 11 -11 11 -18
-1 -11 -17 -107 -7 -131 13 -15 13 -60 22 -170 32 -60 6 -277 -19 -307 -35
-19 -11 -162 -59 -203 -68 -34 -8 -129 -71 -161 -108 -15 -16 -46 -55 -69 -85
-40 -51 -77 -93 -108 -123 -7 -6 -23 -22 -34 -34 -12 -13 -28 -23 -35 -23 -8
0 -19 -13 -24 -30 -6 -16 -15 -30 -21 -30 -5 0 -21 -13 -34 -30 -33 -38 -114
-94 -136 -92 -10 0 -18 -5 -18 -12 0 -8 -32 -35 -71 -62 -65 -43 -73 -47 -100
-37 -17 7 -31 7 -35 2 -3 -5 2 -12 10 -15 27 -11 17 -24 -17 -24 -19 0 -49 -8
-68 -17 -18 -9 -51 -16 -72 -14 -22 1 -36 -2 -33 -7 8 -13 -205 -21 -262 -10
-26 5 -69 13 -97 18 -81 14 -148 31 -180 45 -16 7 -55 24 -85 38 -75 33 -180
137 -180 178 0 20 81 89 129 110 58 26 127 23 123 -4 -3 -15 1 -17 17 -12 12
4 30 0 43 -9 12 -9 30 -16 40 -16 10 0 18 -3 18 -7 0 -5 14 -16 30 -25 17 -9
30 -23 30 -30 0 -8 12 -15 28 -16 15 -1 38 -10 52 -20 50 -37 145 -48 328 -37
89 5 122 10 122 20 0 7 15 18 33 25 17 6 44 18 59 26 14 8 33 14 42 14 9 0 16
6 16 14 0 7 15 25 34 40 25 19 39 40 50 80 18 61 42 89 56 65 7 -11 12 -11 21
-2 9 9 9 15 0 27 -11 12 -4 23 40 65 29 28 65 53 80 56 17 4 26 11 23 19 -4
12 35 48 118 109 21 15 40 27 43 27 8 0 67 69 88 102 20 33 22 59 5 76 -21 21
-46 13 -75 -24 -24 -32 -52 -54 -128 -101 -51 -31 -143 -61 -240 -78 -49 -9
-108 -19 -130 -23 -22 -4 -119 -2 -215 6 -96 7 -213 14 -260 14 -61 0 -76 2
-55 8 21 5 24 8 10 9 -28 1 -91 -32 -120 -63 -13 -14 -33 -26 -45 -26 -11 0
-20 -4 -20 -9 0 -4 -43 -30 -95 -56 -56 -28 -97 -54 -100 -66 -4 -10 -15 -20
-26 -20 -35 -3 -40 -4 -47 -15 -13 -20 -56 -44 -78 -44 -12 0 -24 -5 -26 -11
-4 -13 -144 -41 -196 -40 -19 1 -42 6 -52 11 -10 6 -30 10 -45 10 -27 0 -74
25 -88 48 -5 7 -17 10 -27 7 -18 -6 -90 32 -90 48 0 11 14 9 28 -5 8 -8 15 -8
27 2 13 11 15 9 16 -11 0 -23 1 -23 9 -3 11 28 98 54 111 33 7 -11 9 -9 9 7 0
14 12 27 37 40 58 30 180 143 273 252 25 29 53 55 64 58 10 4 14 9 8 13 -5 3
-11 15 -13 26 -5 25 -48 33 -64 12 -21 -30 -318 -162 -337 -151 -5 3 -16 0
-24 -7 -22 -18 -26 -11 -51 114 -3 15 -9 27 -14 27 -18 0 -52 173 -54 272 0
42 -4 80 -8 84 -4 4 -7 66 -7 138 0 72 4 126 8 120 4 -7 7 19 8 56 0 38 6 93
12 122 6 29 16 78 22 109 6 31 20 66 30 77 13 13 20 35 20 59 0 39 25 117 45
143 18 22 60 110 75 155 7 22 24 54 37 71 12 17 23 36 23 42 0 6 6 15 14 19 7
4 18 18 25 31 14 26 28 28 34 5 3 -10 5 -3 6 15 1 21 15 51 44 88 42 55 184
204 194 204 3 0 27 19 53 43 25 23 60 52 76 64 16 13 55 43 88 68 58 45 90 57
80 31 -3 -8 -1 -17 5 -21 6 -3 11 1 11 9 0 9 7 16 15 16 9 0 18 7 22 15 3 9
22 24 42 34 20 10 50 26 66 35 34 18 65 21 65 6 0 -5 7 -10 15 -10 8 0 15 6
15 14 0 17 31 26 92 26 26 0 50 5 54 11 8 14 159 4 319 -22 152 -24 195 -36
195 -54 0 -8 6 -15 14 -15 51 0 268 -147 265 -179 -1 -9 -1 -23 0 -31 1 -13 3
-13 10 -1 8 12 13 12 34 -2 24 -15 74 -77 63 -77 -3 0 14 -20 38 -44 25 -26
62 -84 89 -138 89 -181 112 -251 123 -368 3 -30 9 -64 14 -75 5 -11 11 -45 14
-75 3 -30 10 -89 16 -130 15 -106 -2 -190 -38 -190 -8 0 -12 -6 -9 -14 3 -7
-5 -35 -19 -62 -16 -33 -24 -64 -24 -101 l0 -54 37 3 c32 3 39 8 58 46 25 50
97 128 126 137 36 12 44 -10 44 -118 0 -117 -7 -179 -29 -257 -9 -30 -16 -66
-16 -80 0 -17 -15 -40 -44 -69 -25 -24 -61 -68 -81 -97 -31 -45 -35 -57 -30
-88 4 -19 14 -41 21 -47 20 -17 59 5 84 48 10 18 24 33 29 33 5 0 13 9 16 20
3 11 13 20 21 20 7 0 20 15 27 33 8 18 21 39 28 47 21 21 59 89 59 104 0 7 9
22 21 35 14 14 19 30 15 44 -3 11 -1 26 3 31 16 21 31 118 31 206 0 81 -2 91
-25 116 -14 15 -25 30 -25 34 0 4 -9 17 -20 30 -11 13 -20 30 -20 39 0 9 -6
25 -14 36 -22 32 -64 184 -76 275 -6 47 -14 94 -19 105 -5 11 -14 52 -21 90
-7 39 -16 75 -20 80 -4 6 -10 25 -14 43 -3 19 -12 48 -20 65 -7 18 -19 48 -26
67 -7 19 -23 58 -36 85 -12 28 -24 57 -26 65 -2 8 -9 20 -17 26 -8 6 -12 17
-9 24 2 7 -5 23 -16 36 -12 12 -34 36 -49 53 -16 17 -25 35 -22 41 3 5 -3 10
-13 10 -11 0 -37 18 -58 40 -22 22 -45 40 -51 40 -7 0 -13 4 -13 8 0 13 -109
82 -129 82 -10 0 -25 7 -32 16 -7 9 -47 33 -89 53 -41 21 -84 42 -95 48 -66
34 -83 41 -112 47 -17 4 -34 14 -37 22 -3 8 -19 14 -36 14 -17 0 -39 5 -49 12
-11 6 -26 8 -37 3 -23 -10 -52 -8 -119 8 -33 8 -86 10 -155 5z m4920 -570 c0
-19 -42 -58 -62 -58 -10 0 -18 5 -18 10 0 6 -8 10 -17 10 -17 -1 -17 -1 0 -14
25 -19 21 -29 -24 -56 -22 -14 -45 -36 -50 -49 -8 -20 -12 -21 -25 -10 -13 11
-14 9 -9 -14 5 -17 3 -27 -4 -27 -6 0 -18 -14 -27 -32 -14 -27 -15 -40 -5 -82
6 -28 13 -82 16 -120 3 -38 8 -73 11 -77 3 -5 7 -57 10 -116 2 -60 7 -120 9
-135 3 -16 0 -28 -5 -28 -13 0 -13 -37 0 -45 6 -3 10 -17 10 -30 0 -13 5 -27
10 -30 6 -3 10 -22 10 -41 0 -19 -4 -34 -10 -34 -15 0 -12 -40 5 -56 15 -16
18 -74 20 -474 1 -80 5 -178 9 -218 7 -59 5 -79 -8 -107 -14 -30 -16 -50 -9
-125 5 -49 6 -96 2 -103 -4 -7 -3 -35 2 -62 5 -28 10 -77 10 -110 -1 -33 0
-71 1 -85 0 -14 -3 -128 -7 -255 -11 -313 -13 -384 -18 -650 -2 -126 -6 -276
-8 -332 -2 -57 -2 -103 1 -103 3 0 3 -91 0 -202 -4 -112 -2 -212 3 -224 5 -13
5 -36 -2 -59 -7 -28 -7 -42 0 -52 6 -7 8 -21 4 -30 -5 -10 -7 -23 -6 -29 0 -6
-6 -17 -14 -24 -21 -17 -19 -30 4 -30 26 0 34 -42 26 -133 -5 -54 0 -116 20
-251 27 -186 33 -324 7 -176 -24 139 -53 325 -57 370 -2 25 -8 57 -14 73 -12
32 -15 115 -6 172 5 34 4 37 -6 20 -7 -11 -14 -22 -16 -25 -8 -9 -23 25 -23
53 0 31 27 48 41 26 7 -11 9 -10 9 5 0 15 -5 17 -30 13 -33 -7 -31 -12 -49
104 -6 36 -11 83 -12 105 0 30 -2 34 -9 19 -7 -18 -8 -18 -14 8 -3 15 -9 39
-12 55 -4 15 -8 41 -10 57 -1 17 -12 64 -23 105 -11 41 -21 96 -21 121 0 30
-6 51 -16 60 -11 9 -14 22 -9 46 3 18 2 33 -2 33 -10 0 -29 88 -39 175 -3 33
-10 62 -15 66 -9 5 11 69 22 69 3 0 9 -23 13 -50 4 -28 10 -49 15 -46 4 3 13
-11 20 -31 16 -45 57 -109 94 -148 40 -43 59 -27 63 53 4 57 -6 80 -20 50 -3
-7 -3 2 0 20 4 22 1 39 -8 50 -8 9 -19 35 -26 57 -6 22 -18 63 -27 90 -29 90
-43 139 -56 185 -6 25 -18 59 -24 75 -11 26 -34 100 -65 210 -5 17 -12 52 -16
79 -6 44 -5 48 10 43 13 -5 16 -2 14 11 -2 9 -9 16 -16 15 -12 -3 -32 56 -32
95 0 12 6 25 14 28 8 3 22 21 31 40 9 19 19 34 23 34 10 0 102 116 102 129 0
6 4 11 9 11 5 0 12 8 15 18 7 19 50 42 80 42 18 -1 17 -3 -6 -16 -16 -8 -28
-19 -28 -23 0 -9 24 -21 39 -21 21 0 58 361 42 403 -6 16 -11 40 -11 54 0 14
-6 37 -14 51 -7 15 -21 44 -29 64 -15 34 -15 37 1 41 13 4 12 5 -4 6 -12 0
-24 8 -28 16 -3 8 -15 15 -27 15 -17 0 -20 4 -16 21 3 12 2 32 -3 45 -11 28
-4 31 23 7 18 -17 19 -17 33 1 11 16 12 49 7 168 -4 109 -3 148 5 148 7 0 12
14 12 31 0 16 -4 28 -9 24 -11 -6 -26 115 -18 144 9 36 -23 415 -38 449 -8 18
-15 42 -15 53 0 30 -38 79 -61 79 -12 0 -23 -10 -30 -27 -11 -30 -3 -109 16
-138 21 -35 25 -94 40 -545 2 -80 6 -165 9 -190 2 -25 2 -37 -1 -27 -2 9 -9
15 -14 12 -13 -9 -11 -21 6 -38 19 -19 32 -97 16 -97 -6 0 -11 8 -11 18 0 19
-22 52 -52 80 -10 9 -18 24 -18 34 0 11 -7 18 -18 18 -10 0 -25 9 -35 20 -9
11 -23 20 -31 20 -14 0 -43 57 -38 77 1 6 -2 14 -8 18 -17 11 -11 43 10 50 11
3 20 11 20 17 0 6 16 30 35 53 l34 42 -19 39 c-11 21 -20 46 -20 56 0 9 -9 22
-20 28 -11 6 -18 15 -15 21 4 5 -17 9 -50 9 -35 0 -54 -4 -50 -10 3 -5 -1 -10
-10 -10 -9 0 -27 -12 -41 -27 -13 -14 -27 -23 -31 -19 -20 20 -9 156 13 156
10 0 14 11 13 38 0 31 -2 34 -10 17 -6 -13 -7 8 -4 65 4 49 11 87 18 92 23 14
121 22 125 9 2 -6 11 -11 19 -11 8 0 13 6 10 13 -3 7 8 22 25 33 39 25 47 43
36 82 -17 63 -121 94 -191 57 -15 -8 -43 -17 -62 -21 -33 -6 -78 -43 -74 -60
5 -22 -24 -104 -37 -104 -8 0 -14 -6 -14 -14 0 -8 -3 -22 -7 -32 -4 -12 -3
-15 6 -10 9 6 10 0 5 -21 -4 -15 -11 -29 -16 -31 -4 -2 -8 -22 -8 -45 0 -23
-4 -56 -8 -72 -5 -17 -5 -43 -1 -60 5 -25 7 -21 8 23 2 84 17 60 19 -30 1 -57
-2 -78 -8 -68 -7 11 -10 5 -10 -22 0 -27 -4 -38 -15 -38 -8 0 -15 -5 -15 -11
0 -5 -5 -7 -11 -3 -13 7 -5 175 9 213 10 29 2 123 -9 96 -5 -13 -8 0 -8 42 -1
37 -6 67 -14 75 -8 7 -19 29 -26 48 -6 19 -20 44 -29 55 -23 26 -78 65 -92 65
-5 0 -9 6 -7 12 1 8 -14 13 -48 14 -54 1 -125 20 -125 34 0 4 -14 10 -30 14
-37 7 -60 47 -40 71 13 15 61 21 59 8 -3 -18 2 -27 9 -16 7 11 273 26 489 27
57 1 101 5 100 10 -2 12 72 26 79 14 10 -15 51 -8 79 14 19 14 60 27 134 39
58 10 132 25 164 33 32 9 77 16 100 16 23 0 53 7 67 14 32 18 40 19 40 4z
m-736 -1083 c17 -13 16 -16 -20 -57 -50 -56 -137 -138 -146 -138 -3 0 -26 -27
-50 -60 -26 -36 -51 -60 -63 -61 -15 -1 -16 -2 -4 -6 14 -3 15 -9 7 -36 -6
-18 -17 -44 -24 -59 -8 -14 -14 -34 -14 -44 0 -19 -10 -14 -14 8 -1 7 -6 23
-10 36 -5 14 -3 29 4 37 7 8 9 26 6 39 -4 16 0 30 9 40 17 16 20 46 6 46 -5 0
-14 -12 -20 -27 -10 -26 -11 -25 -6 11 7 60 20 66 55 26 16 -19 29 -29 30 -21
0 7 -9 21 -19 30 -26 23 -30 61 -8 75 13 8 20 8 26 -3 6 -10 10 -10 16 -1 4 6
2 17 -3 22 -13 13 16 55 51 73 53 28 87 34 113 23 34 -16 62 9 45 41 -14 25 3
29 33 6z m-7971 -165 c14 -11 33 -20 42 -20 12 0 15 -5 10 -20 -7 -21 9 -50
26 -50 5 0 9 7 9 15 0 8 2 15 5 15 17 0 155 -137 174 -174 16 -29 6 -52 -10
-23 -6 9 -14 15 -18 12 -5 -2 -14 8 -21 24 -13 31 -55 73 -64 64 -3 -4 -14 0
-23 8 -10 8 -39 25 -66 39 -26 14 -50 33 -53 42 -3 10 -12 18 -20 18 -8 0 -14
8 -14 17 0 9 -7 25 -17 35 -14 15 -14 18 -1 18 8 0 27 -9 41 -20z m8087 6 c0
-8 -6 -16 -12 -19 -10 -3 -9 -8 3 -18 22 -19 32 -65 19 -89 -13 -25 -48 -26
-66 -2 -9 13 -16 14 -24 6 -9 -9 -4 -16 18 -30 25 -14 29 -21 21 -36 -13 -24
-43 -24 -35 0 5 15 4 14 -9 -2 -8 -10 -12 -23 -9 -28 3 -5 -15 -27 -40 -49
-25 -23 -46 -46 -46 -52 0 -7 -9 -18 -20 -25 -19 -11 -20 -10 -20 23 0 38 35
114 56 122 8 3 14 13 14 23 0 9 16 33 35 53 19 20 35 39 35 42 0 4 12 26 26
51 25 43 54 59 54 30z m-7479 -136 c-2 -8 -8 -22 -15 -30 -7 -8 -20 -31 -29
-50 -9 -19 -25 -41 -36 -48 -14 -8 -21 -23 -22 -45 -1 -52 -23 -102 -45 -102
-11 0 -20 -8 -22 -20 -2 -16 -1 -17 7 -5 17 25 22 5 7 -30 -7 -18 -15 -27 -17
-21 -3 7 -12 9 -23 5 -18 -7 -18 -8 0 -21 15 -11 17 -17 6 -33 -6 -11 -12 -26
-12 -34 0 -8 -13 -20 -30 -28 -16 -7 -30 -17 -30 -21 0 -5 5 -5 10 -2 21 13 9
-40 -18 -84 -16 -25 -41 -67 -56 -93 -27 -49 -41 -58 -49 -35 -2 6 -7 -11 -11
-39 -5 -33 -20 -71 -42 -104 -19 -28 -34 -56 -34 -62 0 -6 -11 -23 -25 -40
l-25 -30 0 26 c0 19 -4 24 -16 19 -13 -5 -15 -15 -11 -48 6 -44 3 -51 -65
-146 -57 -79 -75 -99 -93 -99 -11 0 -15 -5 -11 -16 7 -18 -14 -61 -41 -86 -10
-9 -34 -39 -53 -68 -29 -42 -39 -50 -59 -45 -19 5 -22 3 -17 -11 9 -25 -33
-88 -119 -179 -90 -94 -87 -85 10 45 40 52 75 105 79 116 4 12 15 29 26 39 11
10 20 22 20 28 0 5 14 26 30 47 17 21 30 40 30 44 0 3 24 40 52 83 35 51 54
71 56 60 2 -9 8 -17 13 -17 12 0 11 6 -3 29 -9 15 -6 24 15 53 15 19 27 39 27
44 1 13 57 86 65 84 4 -1 16 17 25 38 21 46 37 59 53 43 15 -15 27 -14 27 4 0
9 -7 18 -15 21 -22 9 -18 27 10 52 14 12 25 29 25 37 0 16 54 123 71 140 13
13 29 -13 21 -34 -5 -14 -4 -14 11 1 9 9 17 26 17 38 0 17 -4 20 -20 15 -27
-9 -25 5 8 51 16 21 31 46 35 54 4 8 21 38 37 65 16 28 38 69 49 91 10 23 24
45 30 48 6 4 11 15 11 25 0 10 11 30 25 45 14 15 25 38 25 51 0 28 20 75 32
75 4 0 8 9 8 19 0 22 38 91 50 91 4 0 11 15 15 33 l7 32 10 -25 c6 -14 10 -32
9 -40z m-358 -141 c12 -7 25 -16 28 -21 6 -9 4 -94 -1 -108 -1 -3 -2 -9 -1
-13 1 -4 -6 -10 -14 -13 -8 -4 -15 -11 -15 -17 0 -19 -90 -197 -100 -197 -5 0
-19 21 -31 48 -18 37 -22 63 -20 125 2 61 -2 81 -15 94 -15 16 -15 18 6 35 12
10 33 18 46 18 13 0 38 13 56 30 39 35 34 33 61 19z m7396 -65 c8 -18 8 -30 1
-39 -7 -8 -6 -24 4 -53 8 -22 13 -42 11 -44 -2 -1 -5 -32 -8 -67 -3 -35 -10
-68 -16 -74 -14 -14 -14 -67 -1 -67 6 0 10 5 10 10 0 6 7 10 15 10 16 0 20
-12 8 -24 -4 -4 -6 -27 -4 -52 2 -31 -1 -44 -8 -40 -6 4 -11 16 -11 26 0 10
-4 22 -10 25 -6 4 -10 -7 -10 -25 0 -18 6 -33 15 -36 15 -6 11 -24 -4 -24 -15
0 -51 114 -54 170 -1 36 -8 60 -19 71 -13 11 -15 25 -11 57 3 24 11 42 18 42
15 0 24 73 12 96 -10 18 16 64 37 64 7 0 18 -12 25 -26z m690 -31 c-4 -21 -15
-43 -23 -49 -9 -6 -16 -19 -16 -28 0 -9 -11 -29 -25 -44 -14 -15 -25 -33 -25
-40 0 -7 -8 -16 -17 -19 -10 -4 -36 -19 -57 -35 l-39 -28 -22 23 c-25 26 -20
36 32 63 58 30 173 135 173 158 0 10 19 36 26 36 1 0 -2 -17 -7 -37z m-7763
-357 c-3 -40 -12 -76 -25 -97 -12 -19 -21 -41 -21 -50 0 -9 -9 -24 -20 -34
-11 -10 -20 -24 -20 -31 0 -7 -8 -19 -18 -26 -11 -7 -24 -23 -31 -35 -6 -13
-21 -23 -32 -23 -14 0 -19 -5 -16 -14 3 -7 -8 -26 -24 -42 -27 -26 -29 -26
-29 -7 0 11 7 23 15 27 8 3 15 13 15 23 0 26 22 84 43 113 9 13 17 31 17 40 0
13 1 13 10 0 8 -12 10 -9 10 12 0 38 33 109 64 137 14 14 26 30 26 36 0 13 20
35 32 35 5 0 6 -29 4 -64z m-1122 -382 c6 -10 17 -23 24 -27 17 -11 15 -30 -3
-23 -10 4 -15 -1 -15 -15 0 -15 5 -19 15 -15 21 8 19 -6 -7 -56 -23 -44 -31
-56 -59 -87 -9 -10 -19 -29 -22 -43 -6 -22 -30 -68 -70 -133 -39 -62 -64 -105
-86 -148 -75 -138 -116 -207 -123 -207 -4 0 -8 -9 -8 -20 0 -10 -9 -24 -20
-30 -15 -8 -19 -17 -15 -31 4 -11 -4 -38 -18 -66 -59 -116 -69 -143 -62 -173
4 -17 13 -30 22 -30 12 0 14 -7 9 -32 -13 -62 -12 -92 4 -95 16 -3 98 70 126
112 18 28 34 33 34 10 0 -8 5 -15 11 -15 6 0 9 9 6 19 -5 21 38 75 54 66 20
-13 13 -23 -89 -133 -24 -26 -50 -60 -57 -77 -7 -16 -25 -41 -39 -54 -14 -14
-26 -28 -26 -33 0 -10 -60 -68 -70 -68 -4 0 -10 -10 -14 -22 -3 -13 -28 -48
-57 -78 -28 -30 -62 -71 -75 -90 -85 -126 -129 -175 -146 -164 -4 3 -8 0 -8
-5 0 -6 7 -11 15 -11 9 0 -1 -14 -24 -35 -21 -19 -41 -47 -44 -63 -3 -15 -21
-43 -39 -62 -19 -19 -46 -52 -62 -73 -15 -21 -29 -37 -31 -35 -2 2 -5 29 -9
60 -3 38 -1 65 9 85 7 15 18 40 24 56 12 31 28 35 34 10 4 -17 4 -17 12 1 5
12 3 21 -6 27 -11 7 -12 12 -1 29 6 11 12 26 12 33 0 8 9 22 20 32 11 10 20
24 20 31 0 15 67 143 86 165 8 8 14 26 14 39 0 13 6 31 13 39 7 9 19 34 26 56
7 22 16 49 21 60 5 11 18 43 30 70 31 72 43 99 90 200 51 109 51 110 77 160
12 22 34 67 49 100 14 33 30 62 33 65 4 3 13 21 20 40 19 49 61 142 72 160 5
8 12 23 16 34 3 10 17 39 30 63 12 24 23 51 23 59 0 7 6 14 14 14 7 0 16 14
20 32 3 17 17 46 31 64 14 18 25 40 25 48 0 9 5 16 10 16 6 0 10 5 10 11 0 17
68 154 91 183 23 30 37 30 53 0z m264 -129 l53 -25 -18 -25 c-10 -13 -23 -23
-30 -20 -7 2 -10 -2 -7 -10 6 -15 -27 -85 -62 -132 -13 -17 -24 -34 -24 -38 0
-5 -39 -64 -50 -75 -3 -3 -18 -23 -34 -45 -16 -22 -37 -47 -45 -56 -9 -9 -29
-34 -46 -55 -16 -21 -64 -73 -105 -115 -42 -43 -82 -90 -90 -106 -8 -15 -32
-48 -52 -72 -21 -24 -38 -50 -38 -57 0 -7 -9 -16 -20 -19 -11 -3 -20 -13 -20
-20 0 -18 -49 -74 -50 -57 0 6 -5 12 -11 12 -6 0 -8 -11 -4 -29 4 -20 2 -30
-8 -34 -11 -4 -14 2 -13 26 1 38 23 67 44 59 12 -4 14 0 8 21 -8 33 49 141 70
133 9 -3 14 6 16 27 2 18 8 32 13 32 6 0 18 22 27 49 10 27 29 66 43 86 14 20
25 40 25 45 0 4 10 22 23 39 12 17 38 61 56 98 18 37 44 77 57 89 13 12 24 28
24 35 0 6 18 41 39 75 22 35 57 92 77 127 33 55 41 62 69 62 17 0 55 -11 83
-25z m4477 -174 c3 -5 -6 -22 -20 -36 -19 -22 -22 -31 -14 -46 5 -11 14 -19
18 -19 5 0 12 -50 16 -110 5 -81 12 -116 24 -133 24 -30 46 -135 50 -242 1
-20 4 -26 10 -17 5 9 13 -2 26 -35 10 -26 28 -70 41 -98 12 -27 26 -67 29 -87
4 -21 11 -38 15 -38 5 0 16 -26 25 -57 9 -32 23 -65 30 -73 7 -8 27 -44 44
-79 24 -48 29 -67 20 -77 -6 -7 -8 -18 -5 -23 6 -10 -14 -15 -99 -25 -77 -10
-115 -18 -121 -27 -3 -5 -18 -9 -33 -9 -15 0 -31 -4 -37 -9 -5 -5 -36 -16 -69
-26 -33 -10 -67 -24 -76 -32 -8 -7 -25 -13 -36 -13 -12 0 -23 -3 -25 -7 -5
-12 -85 -53 -102 -53 -9 0 -16 -4 -16 -10 0 -16 -22 -12 -36 8 -12 16 -13 15
-14 -6 0 -17 -5 -23 -17 -20 -10 2 -18 9 -18 16 0 7 -10 21 -22 30 -11 9 -29
31 -40 48 -10 17 -34 50 -53 74 -59 72 -180 247 -180 260 0 5 -9 14 -21 20
-30 17 -49 -4 -49 -54 0 -70 -9 -85 -61 -107 -41 -18 -102 -73 -159 -146 -23
-29 -202 10 -312 68 -10 5 -27 9 -37 9 -11 0 -23 5 -26 10 -6 10 20 14 58 11
9 -1 17 4 17 13 0 9 -7 16 -15 16 -18 0 -18 2 -3 37 24 55 40 75 49 61 6 -9 9
-4 9 15 0 16 6 43 14 60 22 53 44 111 51 136 4 12 17 38 29 56 15 22 25 56 30
102 7 70 33 180 37 153 1 -8 5 5 9 30 4 26 3 50 -2 57 -6 7 -5 19 1 32 6 11
11 51 11 90 0 107 31 155 55 85 5 -16 16 -34 24 -40 11 -9 11 -14 0 -32 -7
-12 -9 -25 -5 -29 5 -4 11 -2 13 5 11 29 46 -1 62 -53 11 -37 85 -155 97 -155
7 0 20 -21 30 -46 18 -46 18 -47 -8 -93 -36 -64 -43 -103 -24 -139 19 -36 38
-45 63 -27 17 12 21 10 43 -26 14 -21 31 -39 39 -39 25 0 78 48 83 75 8 38
-25 75 -67 75 -27 0 -36 -5 -47 -30 -14 -34 -28 -39 -28 -12 0 22 50 166 72
207 9 17 55 71 103 120 48 50 102 108 120 130 41 49 212 225 219 225 2 0 18
14 34 30 17 17 37 30 46 30 8 0 19 7 23 15 5 8 26 16 47 19 21 3 41 7 44 10 7
8 10 8 17 -3z m-474 -248 c-17 -39 -69 -79 -84 -64 -15 15 -27 14 -27 -4 0 -8
5 -15 12 -15 6 0 3 -8 -8 -19 -10 -10 -23 -17 -29 -15 -5 2 -19 -11 -31 -29
-27 -42 -59 -39 -101 11 -28 33 -68 121 -58 130 10 10 24 -12 30 -47 4 -25 15
-45 28 -54 21 -13 24 -12 55 29 22 28 44 45 65 49 18 4 42 14 55 22 13 8 36
15 52 15 16 1 32 8 35 16 3 8 8 12 12 9 3 -4 0 -19 -6 -34z m-5251 -1482 c0
-32 -34 -95 -64 -121 -15 -12 -19 -12 -26 0 -5 8 -12 11 -16 7 -4 -4 0 -13 9
-20 15 -11 12 -18 -24 -72 -42 -65 -47 -69 -67 -56 -11 6 -10 15 5 42 11 19
28 38 39 43 14 6 20 19 20 44 0 19 7 39 15 46 18 13 42 55 64 109 13 35 16 37
30 24 8 -9 15 -29 15 -46z m4596 -2333 c-2 -23 -9 -44 -15 -46 -6 -2 -11 -28
-11 -60 -1 -31 -7 -68 -15 -82 -8 -14 -15 -36 -15 -50 0 -14 -11 -45 -25 -69
-14 -23 -25 -54 -25 -67 0 -13 -4 -24 -8 -24 -5 0 -14 -10 -19 -23 -15 -31
-101 -147 -160 -212 -26 -30 -66 -77 -87 -104 -22 -28 -47 -51 -57 -51 -11 0
-16 -5 -13 -13 6 -17 -105 -122 -154 -144 -28 -12 -64 -16 -147 -15 -124 1
-198 21 -250 69 -16 15 -42 28 -57 29 -26 2 -88 44 -144 99 -62 60 -84 75
-111 75 -16 0 -34 5 -40 11 -19 19 -73 -42 -73 -81 0 -32 47 -89 103 -125 22
-14 25 -20 16 -32 -16 -18 -5 -27 17 -15 22 12 54 -2 54 -22 0 -8 11 -17 24
-20 14 -3 37 -16 53 -29 15 -12 46 -29 68 -36 22 -7 61 -24 86 -36 26 -13 53
-23 60 -22 25 1 99 -15 99 -23 0 -3 -11 -13 -25 -20 -14 -7 -25 -17 -25 -22 0
-4 -7 -8 -15 -8 -8 0 -23 -9 -32 -20 -10 -11 -23 -20 -30 -20 -7 0 -13 -5 -13
-11 0 -5 -20 -19 -45 -30 -25 -11 -45 -24 -45 -29 0 -6 -5 -10 -12 -10 -6 0
-32 -10 -56 -22 -59 -28 -147 -45 -197 -38 -50 7 -125 51 -180 105 -23 22 -58
49 -78 59 -20 11 -37 23 -37 28 0 4 -6 8 -13 8 -18 0 -72 84 -99 156 -12 32
-28 65 -35 72 -16 16 -17 29 -3 37 14 8 8 54 -7 60 -37 14 -52 130 -43 330 5
114 11 157 23 176 14 21 15 30 5 57 -7 18 -17 32 -23 32 -14 0 -67 -75 -85
-120 -7 -19 -18 -42 -25 -50 -18 -24 -45 -89 -45 -109 0 -9 -7 -38 -16 -63
-14 -43 -14 -55 7 -179 12 -73 28 -148 37 -168 9 -20 15 -39 14 -43 -1 -4 9
-28 23 -53 13 -25 21 -53 18 -61 -3 -7 0 -14 6 -14 6 0 11 -13 11 -30 0 -23 5
-30 19 -30 24 0 37 -35 21 -55 -7 -9 -8 -15 0 -20 5 -3 10 -1 10 5 0 18 48
-23 60 -50 5 -14 23 -43 40 -65 16 -22 29 -48 30 -57 0 -10 5 -18 12 -18 9 0
9 -3 1 -11 -6 -6 -9 -18 -6 -25 4 -10 -3 -14 -23 -14 -25 1 -26 2 -11 11 23
14 22 29 -4 29 -12 0 -23 -8 -26 -19 -4 -16 -10 -18 -33 -11 -36 10 -69 28
-94 51 -11 11 -24 19 -29 19 -4 0 -6 9 -2 20 5 14 2 18 -7 15 -17 -7 -44 21
-50 50 -2 11 -10 19 -16 17 -15 -3 -72 112 -75 150 -1 16 -4 28 -7 28 -3 0
-11 9 -18 20 -9 16 -10 30 -2 60 9 33 7 44 -10 72 -21 35 -27 103 -9 113 7 5
8 34 3 86 -4 48 -3 84 3 91 6 7 13 36 16 65 5 41 2 55 -13 73 -10 12 -20 26
-22 31 -2 4 -14 10 -28 11 -22 3 -29 -7 -67 -80 -23 -46 -45 -97 -48 -114 -5
-23 -9 -27 -16 -17 -7 11 -9 11 -9 -2 0 -27 -27 -72 -35 -59 -4 6 -2 16 4 23
5 7 15 35 21 62 14 63 60 155 77 155 7 0 13 8 13 18 0 29 93 137 117 137 12 0
25 4 29 8 4 4 0 7 -9 7 -24 0 -21 6 16 43 61 61 124 107 182 133 47 22 62 25
77 15 10 -6 23 -9 28 -6 6 4 10 -1 10 -9 0 -9 9 -25 20 -36 11 -11 20 -26 20
-34 0 -8 5 -18 10 -21 6 -3 10 -16 10 -29 0 -12 7 -31 15 -42 8 -10 15 -29 15
-41 0 -12 4 -24 10 -28 5 -3 23 -34 40 -68 47 -92 123 -187 151 -187 5 0 9 -4
9 -10 0 -17 20 -11 46 15 28 28 27 49 -12 133 -13 29 -24 57 -24 62 0 6 -4 10
-9 10 -5 0 -12 15 -15 34 -4 19 -18 55 -32 81 -17 30 -25 56 -22 76 4 25 2 28
-14 23 -11 -3 -18 0 -18 8 0 8 -9 30 -19 51 -15 29 -16 37 -5 37 8 0 14 -7 14
-15 0 -9 10 -19 23 -24 52 -21 263 -71 297 -71 36 0 130 -23 130 -32 0 -5 9
-8 20 -8 11 0 20 4 20 8 0 10 216 27 294 23 26 -1 54 3 62 10 8 6 33 12 57 13
23 1 49 6 56 10 7 5 40 9 72 10 32 1 64 7 71 14 15 15 38 16 38 0 0 -6 3 -8 8
-4 4 4 7 12 7 18 0 6 23 18 50 26 28 9 56 22 63 29 7 7 21 13 30 13 9 0 26 7
36 15 11 8 30 15 42 15 12 0 27 7 34 15 7 8 17 15 23 15 6 0 19 8 29 17 17 15
21 15 29 3 9 -13 11 -13 16 0 6 14 61 70 69 70 2 0 2 -19 0 -42z m3664 -1068
c0 -5 23 -10 50 -10 28 0 50 -4 50 -10 0 -13 -63 -29 -74 -19 -14 12 -40 11
-73 -3 l-28 -12 40 -6 c33 -5 37 -8 20 -15 -11 -4 -28 -16 -38 -26 -19 -20
-88 -42 -108 -34 -8 3 -21 0 -29 -5 -13 -9 -13 -11 0 -20 50 -34 -128 -57
-201 -26 -19 8 -44 26 -56 40 -24 28 -43 32 -60 15 -11 -11 -63 -2 -63 12 0 5
-10 14 -22 19 -21 8 -22 9 -3 10 l20 1 -20 9 c-30 13 -35 12 -35 -10 0 -24 0
-24 -42 -6 -18 8 -55 20 -82 27 -28 7 -43 15 -35 17 7 3 17 10 21 16 5 7 49
10 125 10 65 -1 172 -2 238 -3 82 -1 115 -4 105 -11 -11 -7 -4 -10 25 -10 28
0 36 3 26 9 -23 15 29 24 102 19 34 -3 71 0 82 5 11 6 27 14 35 18 21 11 30
11 30 -1z"/>
<path d="M5200 8096 c-14 -8 -32 -18 -40 -22 -24 -11 -50 -47 -50 -71 0 -28
45 -53 97 -53 28 0 34 -3 23 -10 -12 -8 -11 -10 6 -10 11 0 25 5 30 10 8 8 20
7 39 0 16 -6 35 -8 43 -5 8 3 16 -3 19 -15 3 -11 14 -20 24 -20 12 0 23 -10
29 -25 5 -14 14 -25 19 -25 5 0 19 -16 31 -35 26 -42 42 -95 29 -95 -5 0 -9
-7 -9 -16 0 -11 6 -14 20 -9 11 4 20 2 20 -4 0 -6 9 -15 21 -21 16 -9 26 -8
45 4 40 27 52 57 59 151 l7 91 -34 36 c-18 19 -57 48 -86 63 -48 25 -51 29
-35 41 16 12 12 13 -28 8 -35 -5 -55 -1 -88 15 -55 29 -157 37 -191 17z"/>
<path d="M6080 8098 c0 -4 -7 -8 -17 -8 -9 0 -41 -8 -71 -17 -60 -20 -137 -86
-166 -144 -28 -55 -57 -159 -62 -227 -5 -53 -3 -66 12 -77 10 -7 23 -11 30 -8
10 4 68 100 69 114 0 4 15 30 34 59 32 49 101 110 126 110 6 0 26 11 45 25 31
23 43 25 131 25 54 0 108 -4 122 -9 34 -13 47 -1 39 36 -7 33 -67 83 -98 83
-9 0 -28 6 -42 14 -32 17 -152 36 -152 24z"/>
<path d="M2715 7651 c-3 -5 0 -13 6 -16 15 -10 -51 -77 -69 -70 -8 3 -12 0 -9
-7 4 -14 -78 -137 -100 -151 -7 -4 -13 -14 -13 -21 0 -7 -9 -21 -20 -31 -30
-28 -24 -79 10 -82 30 -3 49 11 78 58 13 21 33 40 48 43 18 5 24 12 20 22 -7
17 27 89 48 101 23 13 66 84 66 109 0 25 -54 62 -65 45z"/>
<path d="M6175 7503 c-31 -8 -79 -53 -87 -82 -11 -38 1 -95 26 -124 55 -68
119 -32 131 74 6 49 4 69 -11 100 -19 39 -22 41 -59 32z"/>
<path d="M5108 7470 c-28 -22 -55 -121 -44 -163 7 -28 48 -47 91 -43 36 5 43
14 55 75 15 79 13 99 -15 126 -29 30 -54 32 -87 5z"/>
<path d="M5498 7189 c-20 -23 -39 -52 -42 -65 -4 -13 -13 -24 -21 -24 -8 0
-15 -5 -15 -10 0 -6 -9 -24 -21 -39 -32 -43 -38 -145 -11 -197 31 -60 59 -80
134 -94 60 -11 74 -10 120 6 72 25 198 121 198 151 0 22 -43 42 -80 38 -143
-17 -163 -16 -187 7 -30 28 -31 93 -3 145 33 62 23 123 -19 123 -9 0 -32 -19
-53 -41z"/>
<path d="M5946 6941 c-10 -11 -15 -25 -11 -30 3 -6 8 -21 10 -32 7 -34 34 -69
53 -69 10 0 29 -11 42 -25 13 -14 34 -25 48 -25 13 0 36 -6 50 -14 15 -8 56
-22 92 -32 36 -9 78 -24 93 -31 37 -19 179 -13 267 10 113 30 144 40 165 54
11 7 29 13 40 13 31 0 90 53 82 73 -3 9 -16 17 -27 17 -22 0 -130 -33 -188
-57 -41 -17 -209 -20 -225 -4 -6 6 -40 11 -76 11 -49 0 -82 7 -128 26 -34 15
-60 31 -57 35 3 5 -8 9 -23 9 -17 0 -60 19 -102 45 -40 25 -76 45 -80 45 -5 0
-16 -9 -25 -19z"/>
</g>
</svg>
