<?xml version="1.0" standalone="no"?>
<!DOCTYPE svg PUBLIC "-//W3C//DTD SVG 20010904//EN"
 "http://www.w3.org/TR/2001/REC-SVG-20010904/DTD/svg10.dtd">
<svg version="1.0" xmlns="http://www.w3.org/2000/svg"
 width="1180.000000pt" height="886.000000pt" viewBox="0 0 1180.000000 886.000000"
 preserveAspectRatio="xMidYMid meet">
<metadata>
Created by potrace 1.14, written by Peter Selinger 2001-2017
</metadata>
<g transform="translate(0.000000,886.000000) scale(0.100000,-0.100000)"
fill="#000000" stroke="none">
<path d="M7685 8849 c-207 -26 -300 -43 -481 -88 -109 -27 -255 -68 -324 -91
-69 -24 -145 -50 -170 -58 -80 -27 -91 -51 -38 -78 30 -16 31 -18 14 -28 -46
-27 -187 -187 -253 -286 -68 -102 -147 -275 -174 -379 -23 -87 -41 -264 -41
-399 0 -88 14 -152 33 -152 5 0 9 -6 9 -13 0 -13 70 -87 82 -87 4 0 29 -14 57
-31 l51 -32 117 6 c65 3 145 13 178 22 139 36 289 140 331 228 29 63 49 73
176 92 104 16 138 35 151 86 8 30 6 36 -18 56 -17 15 -39 23 -64 23 -81 0
-112 62 -84 169 7 30 11 61 9 68 -11 27 -56 14 -96 -27 -22 -22 -44 -40 -49
-40 -18 0 -51 -78 -51 -120 0 -22 9 -72 20 -111 l19 -70 -35 -39 c-44 -49
-157 -124 -244 -162 -36 -16 -80 -36 -98 -44 -17 -8 -54 -18 -80 -21 l-49 -5
-17 48 c-65 185 -67 340 -7 548 45 155 162 381 269 519 86 111 81 107 123 107
44 0 70 -16 151 -92 96 -88 118 -87 125 4 4 47 1 59 -28 101 -17 27 -42 55
-55 64 -43 28 -30 48 59 91 161 79 261 101 497 112 131 6 207 4 300 -6 149
-17 214 -36 299 -86 34 -21 65 -38 68 -38 10 0 89 -66 123 -104 85 -94 144
-178 185 -264 25 -51 45 -95 45 -98 0 -3 9 -25 20 -50 87 -190 112 -449 59
-598 -27 -74 -22 -96 21 -96 26 0 43 12 92 63 l60 62 18 -35 c23 -43 25 -108
5 -174 -18 -60 -93 -161 -211 -284 -124 -130 -127 -138 -77 -239 l26 -53 -64
-127 c-35 -71 -80 -153 -101 -184 -21 -31 -38 -60 -38 -63 0 -4 -13 -27 -30
-51 -16 -24 -30 -46 -30 -50 0 -3 -17 -32 -39 -63 -21 -31 -69 -104 -107 -162
-38 -58 -77 -114 -86 -124 -10 -11 -18 -23 -18 -28 0 -4 -12 -20 -27 -36 -16
-15 -42 -45 -59 -67 l-31 -39 -28 20 c-15 10 -40 28 -55 39 -143 103 -190 135
-202 135 -7 0 -56 -42 -107 -94 -87 -87 -96 -94 -116 -83 -33 18 -310 286
-303 293 4 3 32 0 63 -7 46 -10 69 -10 123 1 57 11 309 89 394 121 32 13 44
38 25 56 -12 12 -26 10 -92 -12 -73 -24 -83 -25 -164 -15 -47 6 -102 15 -121
20 -19 5 -75 19 -125 31 -77 19 -141 44 -265 102 -80 37 -255 172 -324 249
-62 70 -74 104 -30 88 14 -6 53 -10 86 -10 59 0 91 9 348 95 92 31 103 31 143
1 40 -31 137 -48 220 -39 45 5 68 13 91 33 31 27 100 64 299 161 132 64 181
108 243 219 26 47 67 114 89 150 99 154 138 259 110 296 -7 10 -17 14 -23 10
-6 -3 -34 -54 -62 -112 -104 -215 -190 -318 -310 -371 -137 -62 -135 -61 -310
-73 -172 -12 -219 -9 -255 16 -11 8 -44 14 -75 14 -49 0 -72 -9 -210 -78 -179
-91 -242 -108 -358 -98 -85 7 -108 13 -197 50 -119 50 -207 117 -251 192 -30
51 -88 80 -129 64 -33 -12 -32 -27 6 -78 17 -24 35 -57 40 -75 5 -18 17 -63
27 -102 10 -38 35 -104 55 -146 49 -100 48 -115 -5 -139 -93 -42 -91 -44 -187
220 -45 122 -76 178 -125 232 -55 59 -152 138 -169 138 -7 0 -17 4 -23 8 -26
24 -112 44 -265 62 -144 17 -175 24 -202 43 -107 79 -211 53 -279 -69 -33 -59
-36 -99 -9 -114 28 -15 47 -4 76 46 44 74 90 84 143 30 47 -49 84 -60 116 -35
13 10 35 19 48 19 31 0 214 -70 277 -107 66 -38 163 -131 159 -152 -4 -18 -5
-18 -103 5 -132 30 -317 5 -519 -71 -94 -35 -103 -41 -170 -104 -98 -93 -149
-170 -194 -291 -19 -51 -25 -92 -29 -190 l-5 -125 42 -65 c66 -101 164 -196
244 -236 62 -30 79 -34 150 -34 207 0 379 76 425 188 12 29 12 35 -3 50 -16
16 -19 16 -49 -2 -86 -50 -107 -61 -172 -88 -75 -32 -176 -46 -240 -34 -54 10
-137 96 -152 156 -38 154 -38 154 -10 243 25 76 50 122 118 223 31 46 175 183
246 235 43 32 60 37 147 48 128 16 207 8 248 -28 24 -20 43 -26 77 -26 40 0
48 -4 68 -34 31 -45 70 -181 78 -266 12 -132 -36 -335 -110 -470 -16 -27 -41
-76 -57 -107 -86 -175 -173 -265 -353 -368 -88 -50 -290 -106 -467 -129 -362
-48 -590 -3 -639 126 -19 50 4 72 76 73 34 1 65 20 65 41 -1 25 -34 76 -80
126 -67 72 -136 155 -150 183 -8 14 -17 43 -22 65 -45 219 -48 298 -17 448 22
106 80 257 130 340 16 26 29 50 29 53 0 10 71 104 149 197 46 54 90 89 126 98
119 33 150 46 165 72 13 23 13 28 0 41 -12 11 -36 13 -123 7 -107 -7 -109 -8
-134 -39 -14 -18 -42 -41 -63 -52 -26 -13 -44 -33 -59 -65 -16 -35 -26 -45
-45 -45 -17 0 -55 -30 -129 -102 -191 -186 -247 -322 -250 -597 -3 -289 57
-469 211 -630 36 -38 42 -50 37 -71 -15 -52 -17 -172 -4 -203 20 -49 60 -95
112 -128 26 -17 47 -38 47 -48 0 -9 -18 -29 -40 -45 -56 -41 -105 -104 -143
-181 -19 -37 -56 -222 -64 -313 -13 -159 56 -420 147 -555 16 -25 30 -48 30
-52 0 -4 15 -26 32 -49 18 -22 37 -47 43 -55 5 -7 51 -54 100 -105 82 -82 111
-108 168 -149 27 -19 13 -38 -61 -81 -171 -100 -261 -165 -351 -253 -32 -31
-39 -29 -57 13 l-15 35 -82 -6 c-45 -3 -113 -10 -152 -15 -40 -5 -117 -5 -180
0 -121 10 -147 3 -107 -30 37 -30 129 -52 246 -59 70 -4 111 -10 113 -18 6
-16 -73 -49 -150 -64 -34 -7 -71 -16 -82 -22 -10 -5 -68 -10 -127 -9 -97 1
-128 5 -240 38 -40 12 -95 150 -113 286 -12 95 -65 82 -65 -16 0 -28 14 -108
32 -178 25 -103 30 -135 22 -165 -5 -20 -14 -38 -19 -40 -6 -2 -27 31 -47 73
-110 223 -238 357 -368 388 -41 10 -50 20 -51 62 -3 79 26 150 97 233 35 41
39 42 78 37 23 -3 86 -10 141 -15 55 -5 114 -15 130 -22 49 -23 146 -91 179
-127 26 -27 174 -161 212 -192 7 -5 40 -21 74 -35 54 -23 79 -26 223 -32 226
-8 265 6 282 99 5 26 2 39 -10 51 -20 21 -42 21 -169 1 -145 -23 -209 -16
-328 39 -54 25 -140 76 -193 114 -53 37 -110 78 -128 90 -18 12 -50 36 -73 53
-30 22 -52 30 -81 30 -23 0 -87 9 -144 21 -162 32 -224 26 -282 -29 -41 -39
-84 -111 -107 -177 -21 -61 -44 -95 -65 -95 -7 0 -23 8 -36 19 -14 10 -41 23
-62 29 -52 15 -127 60 -127 77 0 50 90 155 158 185 40 18 80 27 202 48 36 6
46 12 48 29 3 17 -6 26 -35 41 -49 25 -186 73 -288 102 -84 24 -186 68 -219
94 -30 24 -11 62 54 112 30 24 83 66 118 94 71 58 82 59 147 15 77 -53 158
-84 250 -96 85 -11 95 -11 160 11 101 33 131 51 216 127 110 97 149 150 199
262 29 66 31 80 26 135 -9 86 10 139 84 235 34 44 65 81 68 83 16 7 71 86 87
123 33 79 30 294 -5 355 -54 93 -72 119 -99 143 -17 15 -31 34 -31 42 0 13 19
62 40 106 58 117 109 213 135 254 18 28 45 72 60 100 15 27 38 63 52 80 90
111 113 152 113 201 0 27 -4 54 -8 60 -7 10 -231 45 -412 64 -206 21 -578 12
-645 -15 -57 -23 -265 -212 -265 -241 0 -7 -6 -17 -12 -21 -37 -23 -101 -120
-175 -261 -30 -59 -59 -108 -64 -110 -5 -2 -9 -8 -9 -14 0 -6 -14 -34 -32 -62
-88 -141 -108 -177 -108 -190 0 -8 -7 -17 -16 -20 -21 -8 -84 22 -84 41 0 8
27 45 60 84 33 38 60 76 60 83 0 7 8 24 18 37 17 21 47 101 80 209 6 19 16 76
22 125 6 50 18 135 25 190 25 179 30 320 12 363 -8 20 -29 83 -46 138 -49 160
-155 355 -253 469 -141 163 -277 240 -512 290 -98 21 -181 41 -301 75 -117 33
-269 122 -363 213 -51 50 -53 51 -120 54 -75 4 -98 -6 -223 -99 -113 -84 -119
-89 -119 -112 0 -13 -12 -34 -27 -48 -55 -49 -193 -224 -193 -242 0 -3 -13
-24 -29 -48 -30 -46 -79 -151 -106 -232 -39 -115 -46 -163 -48 -310 -1 -171
-4 -176 -73 -127 -52 36 -69 39 -84 10 -16 -29 -3 -77 36 -132 45 -63 44 -87
-7 -128 -46 -36 -69 -81 -69 -132 0 -39 24 -64 87 -92 52 -22 57 -35 39 -102
-20 -76 -6 -144 48 -223 38 -57 59 -82 120 -144 81 -83 106 -124 106 -178 0
-110 60 -253 128 -307 75 -58 143 -59 257 -1 96 48 157 96 226 179 56 68 75
81 113 81 54 0 39 -18 -146 -181 -98 -87 -108 -115 -108 -295 1 -213 19 -327
80 -494 18 -47 37 -101 43 -120 6 -19 21 -46 33 -60 12 -14 37 -52 55 -85 18
-33 37 -67 43 -76 62 -90 350 -387 456 -469 205 -157 533 -335 765 -414 50
-17 93 -40 115 -60 75 -70 103 -79 317 -101 99 -10 168 -22 198 -35 51 -22
153 -123 182 -180 10 -19 23 -42 29 -50 6 -8 23 -49 37 -90 28 -84 48 -133 79
-200 11 -25 26 -56 32 -70 25 -54 112 -27 160 48 13 21 32 67 41 103 22 80 28
86 59 66 44 -29 166 -57 248 -57 155 0 291 51 399 149 33 29 62 52 64 50 2 -2
-3 -22 -11 -44 -35 -93 -60 -231 -72 -380 -9 -130 20 -348 58 -425 9 -19 28
-57 41 -84 27 -55 140 -182 171 -192 43 -13 86 -11 173 8 50 10 100 21 112 24
49 10 41 -6 -100 -196 -33 -44 -160 -297 -199 -395 -11 -27 -25 -63 -33 -80
-109 -251 -151 -571 -106 -816 18 -95 69 -245 94 -278 18 -22 56 -32 77 -21
30 16 38 38 50 150 6 58 18 170 26 250 38 362 152 755 312 1077 107 216 145
262 375 457 148 125 255 185 336 186 14 1 49 13 77 28 153 82 204 106 316 150
68 26 148 56 178 65 241 72 295 88 370 107 47 12 101 26 120 30 43 9 241 70
335 104 148 52 360 145 375 165 3 3 32 24 65 46 82 54 199 156 260 226 69 81
100 80 162 -4 76 -103 121 -139 253 -197 25 -11 59 -27 75 -35 17 -8 71 -30
120 -49 286 -110 616 -150 909 -111 l134 18 29 -22 c113 -87 205 -138 343
-191 47 -18 119 -46 160 -63 41 -16 149 -55 240 -87 175 -61 273 -99 330 -129
19 -11 71 -38 115 -61 44 -24 108 -58 143 -76 126 -67 204 -28 158 79 -43 102
-176 171 -626 324 -180 60 -343 119 -375 133 -281 126 -397 199 -526 331 -69
70 -147 185 -172 254 -42 113 -74 273 -59 286 4 4 39 3 77 -2 130 -15 293 7
464 64 63 20 64 20 77 1 36 -52 52 -55 114 -24 43 22 52 35 82 118 44 127 61
328 37 471 -18 111 -72 265 -116 333 -39 58 -59 28 -29 -43 38 -92 62 -390 40
-505 -16 -88 -165 -159 -459 -220 -162 -33 -196 -37 -340 -38 l-160 -1 -46 32
c-52 36 -106 58 -164 68 -105 17 -304 201 -281 260 5 13 12 12 58 -6 96 -38
141 -49 197 -49 95 0 180 34 181 72 0 18 -5 20 -145 38 -116 16 -197 37 -248
66 -56 31 -63 40 -72 86 -7 34 -5 39 20 48 14 5 74 10 133 10 172 0 430 34
455 59 60 60 -233 93 -393 45 -30 -9 -94 -23 -141 -32 -81 -15 -88 -15 -113 1
-34 23 -33 41 4 73 91 81 271 155 460 189 161 28 221 34 335 35 106 0 115 -2
250 -49 77 -27 171 -60 210 -75 38 -14 76 -26 82 -26 30 0 9 42 -51 101 -65
65 -125 100 -386 223 -90 42 -178 105 -208 147 -13 20 -52 27 -52 9 0 -22 28
-69 71 -120 51 -61 69 -90 69 -116 0 -14 -8 -16 -61 -11 -117 10 -153 81 -164
316 -5 130 -13 154 -43 135 -42 -27 -71 -230 -46 -332 19 -81 17 -97 -12 -117
-34 -22 -123 -40 -158 -31 l-28 7 7 97 c20 281 90 503 232 738 53 88 110 160
190 237 30 28 57 65 64 86 30 94 94 140 178 128 40 -5 61 6 61 31 0 8 -16 47
-35 88 -21 43 -35 89 -35 111 0 21 -7 65 -15 98 -20 84 -19 182 3 225 22 45
58 58 111 40 49 -16 101 -8 142 21 17 12 64 63 105 114 40 52 87 103 104 115
78 56 388 159 541 180 103 15 249 6 333 -20 98 -31 252 -147 346 -260 63 -76
143 -224 164 -303 8 -28 24 -86 36 -127 12 -41 22 -103 22 -137 1 -52 -2 -65
-25 -93 -28 -33 -35 -64 -16 -76 8 -5 10 -40 7 -113 -4 -84 -12 -123 -35 -186
-60 -167 -196 -348 -363 -486 -82 -67 -246 -114 -450 -129 -181 -13 -274 13
-469 131 -125 75 -317 311 -391 478 -16 38 -30 72 -30 75 0 17 -52 86 -65 86
-42 0 -37 -42 41 -310 48 -166 116 -264 269 -383 33 -26 67 -53 75 -60 24 -21
108 -62 200 -97 47 -17 92 -35 100 -40 9 -4 30 -11 48 -15 18 -3 32 -10 32
-14 0 -9 -110 -60 -185 -86 -116 -40 -175 -80 -175 -119 0 -43 27 -54 150 -61
63 -4 124 -12 135 -17 59 -30 154 -179 188 -293 50 -168 49 -407 -2 -605 -16
-63 -36 -133 -45 -155 -40 -104 -16 -123 133 -107 88 9 107 15 149 43 26 18
67 46 92 62 25 17 50 35 55 41 19 22 59 46 77 46 17 0 47 -56 62 -115 11 -43
99 -220 143 -287 57 -86 173 -199 240 -233 32 -16 72 -39 89 -52 17 -13 34
-23 37 -23 4 0 53 -22 109 -49 122 -58 178 -78 247 -87 60 -8 69 3 46 59 -23
56 -121 132 -203 156 -37 12 -83 30 -102 42 -19 12 -55 33 -80 47 -101 56
-284 233 -369 357 -60 88 -151 256 -151 280 0 17 22 51 81 125 19 25 48 74 63
109 16 35 37 79 48 97 45 76 79 244 79 385 -1 210 -29 282 -158 418 -45 47
-83 91 -83 98 0 6 26 28 58 49 31 21 59 40 62 43 3 4 22 19 42 34 122 91 271
257 333 372 21 39 41 75 46 80 13 17 57 144 76 220 13 55 17 112 16 260 0 196
-1 204 -53 366 -66 205 -221 417 -404 548 -134 97 -241 141 -396 162 -219 29
-551 -42 -810 -173 -109 -55 -115 -60 -189 -148 -30 -36 -65 -75 -79 -87 -31
-28 -99 -39 -145 -23 -47 18 -78 7 -130 -44 -41 -41 -61 -81 -107 -203 -7 -18
-15 -33 -19 -34 -10 -2 -54 -2 -98 0 -30 1 -43 5 -43 16 0 8 27 59 60 113 33
55 60 103 60 108 0 4 6 15 13 23 8 9 29 54 48 101 29 73 33 96 32 161 -2 108
-23 144 -114 192 l-44 24 -6 144 c-3 86 -13 169 -23 207 -27 102 -84 250 -118
311 -52 91 -165 246 -213 290 -91 84 -274 191 -410 239 -65 23 -86 25 -280 28
-115 1 -241 -2 -280 -7z m-6677 -608 c17 -26 58 -78 91 -114 35 -36 57 -68 52
-72 -6 -3 -38 -15 -71 -26 -33 -11 -84 -33 -112 -50 -88 -52 -236 -201 -306
-309 -20 -30 -43 -63 -51 -73 -37 -45 -127 -307 -142 -412 -11 -81 -39 -149
-71 -169 -9 -6 -20 -7 -24 -3 -14 13 -4 189 17 317 23 138 36 195 68 285 43
124 50 143 77 191 15 27 37 67 48 89 56 107 155 222 297 344 32 27 70 48 91
50 3 1 20 -21 36 -48z m636 -316 c91 -16 175 -42 194 -60 11 -10 6 -26 -27
-90 -35 -67 -41 -88 -41 -140 0 -54 4 -68 39 -122 22 -33 48 -64 58 -68 10 -4
62 -10 116 -13 l99 -5 -6 -31 c-4 -17 -9 -59 -13 -94 -6 -70 10 -102 51 -102
41 0 64 28 92 113 34 104 29 157 -19 209 -37 40 -86 58 -163 58 -28 0 -65 5
-83 11 -27 9 -31 16 -31 45 0 41 37 84 71 84 58 0 129 -47 184 -121 39 -52 55
-79 55 -93 0 -9 4 -16 8 -16 17 0 84 -126 103 -195 51 -183 67 -486 34 -630
-56 -242 -154 -421 -243 -444 -62 -17 -260 -30 -295 -20 -18 5 -50 9 -72 9
-22 1 -67 7 -100 15 -33 8 -73 12 -90 9 -28 -5 -32 -1 -57 48 -15 29 -30 62
-33 73 -9 35 -75 94 -116 105 -22 6 -80 11 -130 11 -108 1 -113 7 -75 84 43
89 60 171 47 228 -6 27 -18 55 -26 63 -8 8 -20 23 -27 32 -23 31 -91 79 -183
127 -111 59 -131 71 -175 109 -115 97 -122 203 -27 415 93 208 226 328 417
377 123 32 342 41 464 19z m1811 -1030 c72 -9 180 -22 240 -30 61 -8 154 -20
208 -27 56 -6 97 -16 97 -22 0 -6 -25 -40 -56 -76 -157 -185 -245 -318 -306
-468 -22 -51 -22 -69 -3 -102 95 -168 127 -366 86 -545 -23 -101 -41 -137
-134 -261 -72 -95 -105 -162 -138 -278 -14 -49 -47 -84 -56 -59 -2 7 -36 52
-75 100 -39 48 -75 99 -80 113 -6 15 -7 67 -3 125 l6 100 -35 70 c-20 39 -36
74 -36 78 0 4 -8 24 -17 45 -9 20 -24 57 -32 82 -24 68 -37 87 -51 73 -9 -8
-10 -37 -1 -115 5 -56 13 -155 17 -219 l6 -116 -34 -7 c-18 -3 -139 -10 -268
-16 -129 -6 -275 -12 -323 -15 -72 -4 -89 -2 -93 10 -4 8 10 57 29 107 19 51
49 140 67 198 19 58 37 110 40 115 4 6 17 44 29 85 12 41 37 116 56 165 18 50
37 101 41 115 11 41 124 290 143 319 10 14 36 58 59 96 54 94 130 191 228 292
l81 83 89 0 c49 0 148 -7 219 -15z m2904 -470 c40 -41 81 -77 92 -80 10 -4 19
-10 19 -15 0 -5 36 -35 80 -67 215 -155 320 -235 380 -288 82 -72 182 -179
228 -245 26 -36 49 -67 53 -70 35 -27 137 -311 159 -445 6 -38 16 -95 21 -125
37 -201 6 -648 -55 -805 -8 -22 -15 -49 -16 -60 -1 -61 -154 -391 -221 -477
-106 -137 -367 -386 -429 -410 -14 -5 -34 -17 -45 -27 -11 -10 -32 -25 -47
-32 -14 -8 -50 -31 -80 -51 -103 -71 -391 -206 -578 -272 -148 -52 -467 -138
-598 -161 -106 -18 -134 -27 -170 -56 -25 -19 -27 -19 -39 -3 -7 10 -13 43
-13 74 0 31 -6 78 -14 104 -12 41 -13 53 -1 80 7 17 41 117 75 221 41 126 73
207 95 240 40 59 46 112 15 140 -11 10 -20 23 -20 30 0 7 55 18 149 29 82 10
154 22 161 26 17 11 3 48 -21 55 -34 11 -118 107 -158 180 -36 67 -77 185
-100 288 -16 71 -14 352 3 417 22 82 65 152 150 245 76 83 94 123 64 142 -7 4
-44 6 -81 4 -58 -2 -78 2 -123 24 -84 41 -146 108 -163 175 -7 30 -18 61 -23
67 -15 19 23 29 137 36 93 6 164 24 291 71 88 32 249 139 358 236 80 71 95 80
97 58 2 -20 5 -67 7 -126 2 -49 4 -53 25 -50 17 2 34 26 74 108 74 150 96 240
128 540 39 361 38 350 53 350 5 0 41 -34 81 -75z m-4214 -443 c10 -7 20 -21
53 -75 9 -16 32 -52 50 -80 42 -67 43 -108 2 -137 -40 -29 -147 -70 -181 -70
-54 0 -109 95 -109 189 0 54 3 60 47 110 26 29 56 57 67 61 27 11 58 12 71 2z
m-505 -164 c18 -24 56 -59 83 -78 28 -19 59 -44 71 -56 12 -11 41 -34 66 -51
52 -35 117 -105 142 -152 l18 -33 72 5 c40 3 86 8 102 12 52 14 55 -21 10
-124 -13 -29 -24 -68 -24 -85 1 -69 42 -82 185 -59 76 13 326 9 349 -4 28 -18
-25 -172 -99 -289 -26 -41 -110 -114 -130 -114 -15 0 -118 -75 -131 -95 -9
-14 -24 -25 -34 -25 -29 0 -113 49 -158 93 -76 73 -89 109 -167 472 -25 113
-81 215 -163 296 -37 36 -86 89 -110 117 -25 30 -52 52 -63 52 -38 0 -28 -29
110 -295 83 -160 139 -321 152 -433 12 -106 18 -122 60 -167 15 -16 37 -41 48
-55 28 -34 71 -83 135 -157 30 -34 61 -74 69 -90 23 -44 63 -72 151 -108 44
-18 125 -54 179 -79 55 -25 102 -46 107 -46 4 0 13 -7 20 -15 10 -12 3 -23
-38 -62 -90 -86 -127 -122 -154 -153 -45 -50 -68 -44 -333 92 -44 23 -99 54
-123 70 -24 15 -45 28 -47 28 -20 0 -216 147 -301 225 -151 137 -243 243 -348
399 -130 192 -188 337 -236 596 -22 115 34 269 124 347 41 35 65 40 250 53 56
4 106 8 112 9 7 0 26 -18 44 -41z m6350 -112 c31 -38 -25 -185 -64 -170 -7 3
-19 33 -25 67 -7 34 -14 72 -17 84 -3 14 4 31 16 43 19 19 23 19 48 6 16 -8
34 -22 42 -30z m-4880 -503 c0 -34 8 -73 18 -94 26 -55 95 -136 120 -143 41
-11 25 -38 -55 -94 -18 -12 -56 -28 -85 -36 -29 -8 -66 -19 -82 -25 -40 -16
-111 -4 -146 25 l-28 24 5 172 c6 210 7 212 114 206 44 -3 76 0 91 8 42 24 48
18 48 -43z"/>
<path d="M1180 7804 c-88 -44 -182 -128 -178 -158 5 -32 77 -25 134 13 62 41
157 49 299 26 98 -16 145 -14 145 5 0 17 -107 103 -158 126 -81 37 -150 33
-242 -12z"/>
<path d="M1511 7536 c-7 -8 -15 -31 -18 -50 -3 -20 -13 -41 -23 -46 -9 -5 -55
-12 -101 -15 -88 -6 -152 -29 -157 -56 -4 -20 35 -62 78 -85 26 -14 56 -19
115 -19 73 0 85 3 138 34 31 18 62 41 67 51 20 37 10 84 -28 139 -42 61 -54
68 -71 47z"/>
<path d="M2182 7096 c-65 -46 -122 -143 -122 -206 0 -102 92 -191 161 -156 26
12 26 15 44 233 9 100 -3 153 -34 153 -9 -1 -31 -12 -49 -24z"/>
<path d="M3312 6123 c-12 -22 -5 -39 36 -94 18 -24 52 -75 77 -112 48 -76 70
-96 101 -97 26 0 34 17 34 74 0 58 -65 146 -150 204 -70 46 -85 50 -98 25z"/>
<path d="M3170 5997 c0 -24 46 -164 59 -182 5 -5 27 -52 51 -103 37 -83 43
-106 52 -205 9 -116 17 -137 50 -137 57 0 108 67 108 141 0 86 -138 384 -214
462 -34 36 -53 47 -76 47 -25 0 -30 -4 -30 -23z"/>
<path d="M6300 6338 c1 -18 7 -62 15 -98 65 -291 81 -429 67 -565 -13 -126 4
-137 64 -42 57 89 65 113 71 197 11 154 -41 333 -138 475 -50 73 -79 85 -79
33z"/>
<path d="M5957 5271 c-54 -16 -114 -35 -135 -43 -82 -34 -219 -60 -294 -57
-67 4 -73 2 -76 -16 -2 -13 12 -37 36 -63 l39 -42 82 0 c102 0 201 35 318 114
44 30 99 64 122 76 29 14 41 27 39 38 -5 25 -23 24 -131 -7z"/>
<path d="M6680 5236 c-46 -44 -237 -165 -347 -220 -111 -56 -182 -83 -393
-151 -25 -8 -97 -21 -160 -30 -63 -8 -131 -20 -151 -25 -89 -25 -137 -86 -185
-238 -25 -77 -26 -93 -21 -190 21 -351 196 -620 501 -767 108 -52 257 -69 418
-49 172 21 296 82 157 77 -94 -3 -241 18 -334 49 -104 35 -145 55 -238 121
-37 26 -70 47 -73 47 -3 0 -19 10 -34 23 -16 12 -53 40 -84 62 -101 74 -163
245 -173 481 l-6 132 35 58 c20 33 45 78 57 102 l22 43 127 -2 c122 -1 201 8
307 36 72 19 76 21 230 95 133 65 184 94 283 162 53 37 76 32 67 -14 -22 -105
-60 -176 -110 -202 -16 -9 -57 -32 -90 -51 -33 -19 -71 -39 -85 -45 -86 -38
-134 -155 -100 -244 30 -81 184 -180 325 -211 67 -15 258 -23 370 -16 137 9
185 26 185 65 0 32 -11 35 -100 29 -89 -6 -263 11 -370 36 -114 28 -250 75
-250 87 0 6 21 32 47 58 61 62 163 188 163 201 0 5 6 22 14 37 8 14 26 64 42
110 23 70 28 100 28 193 1 90 -2 116 -17 138 -20 30 -36 34 -57 13z"/>
<path d="M7075 4204 c-22 -8 -58 -19 -80 -24 -22 -5 -85 -21 -140 -36 -64 -17
-127 -27 -175 -27 -92 -1 -220 27 -278 60 -80 47 -100 -1 -26 -65 54 -48 172
-100 262 -115 63 -10 65 -10 136 26 39 20 127 62 195 92 134 59 171 80 171 95
0 13 -17 12 -65 -6z"/>
<path d="M7665 8548 c-22 -11 -42 -24 -45 -27 -3 -3 -27 -17 -53 -30 -36 -19
-47 -30 -45 -44 6 -39 32 -43 109 -17 49 16 91 24 131 23 53 -2 65 -6 105 -40
86 -72 112 -86 142 -74 25 11 61 72 61 106 0 61 -67 107 -169 117 -136 12
-193 9 -236 -14z"/>
<path d="M7624 8096 c-37 -36 -44 -50 -44 -83 0 -46 15 -68 51 -77 20 -4 37 2
73 30 44 33 46 37 46 84 0 37 -5 55 -20 70 -31 31 -58 24 -106 -24z"/>
<path d="M6746 7952 c-14 -21 -29 -58 -32 -82 -5 -38 -3 -48 15 -64 19 -17 26
-18 62 -7 33 10 44 20 60 54 23 51 23 69 4 107 -13 24 -22 30 -49 30 -27 0
-38 -7 -60 -38z"/>
<path d="M7487 7503 c-25 -24 41 -101 117 -137 85 -40 358 -46 476 -11 95 29
200 104 200 143 0 11 -9 13 -37 9 -34 -5 -71 -14 -253 -59 -25 -6 -96 -13
-158 -16 -126 -5 -210 11 -291 54 -50 27 -46 26 -54 17z"/>
<path d="M4795 7028 c-34 -18 -75 -61 -75 -77 0 -9 -11 -33 -24 -54 -19 -30
-22 -47 -18 -90 2 -28 10 -58 17 -66 19 -19 43 -7 51 26 4 15 31 76 60 135 30
59 54 114 54 123 0 18 -36 20 -65 3z"/>
<path d="M10408 6946 c-81 -29 -109 -66 -72 -96 42 -36 233 -29 304 11 40 22
57 47 43 59 -43 38 -201 52 -275 26z"/>
<path d="M10992 6837 c-9 -10 -8 -23 5 -55 23 -60 7 -93 -65 -129 -65 -32 -73
-54 -30 -86 32 -24 120 -34 160 -18 106 41 81 268 -33 296 -16 4 -30 1 -37 -8z"/>
<path d="M10544 6474 c-186 -44 -287 -117 -441 -319 -52 -66 -53 -70 -53 -134
0 -82 21 -151 65 -218 62 -93 138 -131 284 -140 61 -4 105 -2 137 7 70 20 146
59 141 73 -4 14 -107 15 -233 2 -99 -10 -144 3 -180 51 -58 76 -50 162 28 281
93 142 116 165 199 190 183 56 342 69 458 37 69 -20 91 -14 91 21 0 60 -50
107 -135 129 -50 13 -327 28 -361 20z"/>
<path d="M9206 6368 c-8 -13 -25 -57 -37 -98 -33 -107 -33 -333 1 -465 38
-152 131 -277 195 -261 30 8 32 25 4 60 -34 43 -66 136 -89 256 -19 100 -22
141 -19 320 4 204 4 205 -18 208 -14 2 -27 -5 -37 -20z"/>
<path d="M687 4933 c-11 -10 -8 -86 4 -143 13 -62 4 -139 -18 -147 -22 -9 -69
19 -138 82 -75 68 -147 109 -176 100 -18 -6 -20 -13 -16 -43 6 -46 39 -200 66
-312 32 -130 30 -143 -26 -185 -27 -19 -79 -50 -118 -70 -130 -66 -160 -86
-202 -130 -42 -46 -69 -104 -59 -130 11 -31 78 -47 191 -49 l110 -1 3 -26 c2
-15 -4 -44 -12 -64 -23 -55 -20 -100 10 -145 43 -65 84 -52 169 52 18 22 41
39 55 40 28 3 28 8 4 -102 -18 -86 -13 -220 11 -310 9 -30 20 -77 25 -103 5
-26 30 -98 54 -160 24 -62 52 -139 61 -172 9 -33 24 -76 33 -95 22 -46 21
-235 -2 -485 -42 -455 -57 -704 -63 -1006 l-6 -326 24 -42 c32 -57 104 -100
304 -180 17 -7 46 -25 65 -42 l34 -29 -76 -78 c-99 -100 -112 -127 -113 -222
0 -68 3 -79 32 -121 47 -67 84 -82 201 -77 86 3 104 7 161 35 35 18 68 33 72
33 4 0 34 -15 66 -34 134 -80 347 -130 440 -104 21 6 76 11 123 12 75 2 94 6
155 37 57 28 71 39 73 60 5 44 -40 72 -103 65 -143 -16 -267 -17 -380 -2 -139
17 -289 46 -392 75 -101 29 -121 28 -125 -6 -3 -26 -7 -28 -49 -31 -33 -2 -52
2 -69 16 -32 26 -22 69 40 167 28 44 50 91 50 105 0 42 14 53 53 46 55 -10
236 -8 333 4 98 12 282 48 297 57 5 3 44 14 86 23 42 10 117 29 166 43 219 62
391 93 564 101 130 7 146 15 156 77 10 59 -1 90 -71 196 -36 54 -88 145 -115
203 -28 58 -59 121 -69 140 -19 36 -61 147 -123 325 -35 100 -72 252 -122 500
-14 72 -37 177 -50 235 -13 58 -29 134 -34 170 -6 36 -20 110 -31 165 -52 256
-95 507 -110 635 -6 47 -14 114 -20 150 -5 36 -10 71 -10 78 0 6 -6 12 -14 12
-9 0 -17 -15 -21 -39 -7 -40 2 -520 10 -581 3 -19 12 -111 20 -205 16 -186 33
-309 72 -515 28 -153 107 -477 127 -524 7 -17 31 -89 54 -161 33 -106 85 -227
161 -375 4 -8 24 -49 45 -90 21 -41 63 -116 93 -167 30 -51 52 -96 49 -101 -3
-5 -67 -12 -143 -15 -177 -9 -412 -52 -728 -134 -183 -47 -263 -61 -418 -73
-188 -14 -293 2 -388 61 l-46 29 -11 147 c-35 435 1 903 99 1301 28 112 31
136 25 212 -13 153 -28 200 -158 468 -108 225 -117 245 -139 337 -46 194 -10
384 101 531 65 87 351 370 413 408 31 20 57 41 57 45 0 20 -54 111 -66 111 -7
0 -28 -19 -48 -42 -19 -24 -63 -65 -98 -91 -104 -78 -202 -147 -211 -147 -5 0
-34 -20 -65 -44 -32 -24 -71 -51 -89 -60 -17 -8 -41 -28 -52 -43 -11 -16 -33
-40 -47 -54 -30 -30 -154 -99 -177 -99 -8 0 -17 13 -20 29 -9 42 -60 95 -106
111 -23 7 -41 17 -41 21 0 12 56 49 73 49 9 0 17 4 19 9 2 4 42 27 91 49 52
25 87 48 87 57 0 8 -18 68 -41 132 -62 181 -87 287 -69 298 8 5 75 -40 173
-115 31 -25 34 -55 16 -188 -17 -129 14 -230 68 -220 13 2 23 22 36 73 15 55
19 122 23 320 3 138 7 256 9 263 10 27 43 8 119 -71 45 -45 92 -96 106 -112
31 -37 79 -75 94 -75 6 0 17 9 24 21 12 18 10 25 -15 57 -15 20 -53 68 -83
107 -76 98 -201 212 -248 225 -42 11 -105 13 -115 3z"/>
<path d="M11704 3213 c-21 -89 -61 -109 -288 -144 l-149 -23 -68 -67 c-78 -77
-93 -104 -161 -288 -28 -75 -56 -153 -64 -173 -25 -67 -93 -157 -140 -184 -49
-28 -120 -37 -185 -25 -145 29 -280 88 -418 182 -35 24 -71 49 -79 54 -9 6
-23 18 -32 27 -8 9 -39 35 -69 57 -29 22 -98 83 -152 136 -98 95 -130 112
-137 72 -3 -14 42 -85 68 -107 3 -3 17 -23 30 -45 14 -22 41 -62 62 -90 21
-27 38 -53 38 -58 0 -4 20 -42 45 -85 58 -100 169 -372 199 -487 14 -50 33
-119 45 -155 11 -36 28 -114 36 -173 9 -60 20 -120 25 -133 28 -73 48 -537 37
-854 l-9 -244 22 -18 c26 -21 89 -24 113 -6 49 38 123 287 148 503 24 201 -7
641 -56 810 -8 27 -29 108 -46 180 -36 151 -45 175 -93 246 -20 30 -36 64 -36
78 0 22 3 23 39 17 21 -3 79 -22 129 -41 116 -44 194 -52 284 -26 85 24 149
62 194 114 37 43 105 170 123 229 64 212 153 353 253 400 29 14 71 31 93 38
173 55 295 142 295 212 0 77 -80 136 -96 71z"/>
<path d="M7462 2485 l3 -47 -80 -42 c-44 -24 -138 -64 -210 -91 -71 -26 -134
-52 -139 -56 -6 -5 -16 -9 -24 -9 -27 0 -244 -100 -313 -145 -38 -25 -91 -56
-117 -71 -98 -53 -133 -77 -177 -121 -67 -66 -89 -115 -87 -191 2 -75 12 -96
52 -114 38 -16 38 -31 0 -55 -55 -35 -214 -189 -267 -259 -112 -147 -154 -219
-217 -377 -54 -135 -78 -245 -91 -424 -6 -79 -10 -94 -29 -106 -11 -8 -78 -21
-148 -30 -99 -11 -134 -20 -158 -37 -26 -19 -30 -27 -25 -49 9 -40 38 -74 86
-101 38 -21 60 -25 161 -28 81 -3 127 -1 148 8 59 24 108 125 125 255 4 28 13
73 20 100 8 28 17 88 20 135 18 238 109 392 376 640 62 58 138 129 168 158 30
28 57 52 61 52 11 0 50 58 50 75 0 28 -29 85 -66 130 -19 24 -33 48 -30 54 3
5 41 30 84 55 42 26 102 62 132 82 30 19 66 39 78 44 13 6 103 63 200 126 98
64 200 131 227 149 47 32 149 84 225 118 66 29 134 48 195 54 66 6 89 -3 215
-80 178 -110 228 -146 335 -246 52 -48 205 -225 205 -237 0 -3 16 -33 35 -64
50 -82 87 -190 110 -320 16 -89 24 -111 63 -176 43 -70 77 -160 117 -309 9
-33 20 -76 26 -95 10 -38 63 -399 79 -550 13 -114 25 -135 105 -175 59 -30 62
-30 220 -30 176 0 247 8 270 31 19 19 21 117 3 131 -31 24 -99 35 -231 37 -91
2 -151 7 -169 15 -28 14 -32 31 -58 266 -27 241 -95 484 -158 564 -21 26 -44
61 -50 77 -15 38 -47 170 -62 259 -16 87 -38 154 -61 180 -9 11 -42 59 -73
107 -31 48 -62 96 -70 105 -121 152 -280 315 -372 381 -164 119 -326 211 -400
228 -16 3 -60 16 -99 29 -38 13 -103 27 -143 31 l-72 7 2 -48z"/>
<path d="M3960 393 c-52 -82 -32 -156 54 -200 75 -38 224 -78 365 -98 107 -16
141 -16 242 -7 200 20 365 69 480 143 64 42 112 57 176 58 23 0 51 5 62 11 23
12 28 52 9 67 -15 11 -322 -7 -518 -31 -171 -21 -423 -15 -550 13 -124 27
-145 33 -207 65 -29 14 -59 26 -68 26 -8 0 -29 -21 -45 -47z"/>
<path d="M10900 340 c-269 -60 -375 -78 -559 -95 -256 -25 -304 -21 -531 50
-106 33 -249 45 -268 23 -21 -26 -4 -42 81 -77 100 -41 174 -78 206 -102 13
-11 28 -19 34 -19 5 0 40 -17 77 -38 65 -38 68 -39 201 -45 74 -4 205 -15 293
-24 132 -14 173 -15 240 -5 112 17 211 65 287 141 67 68 73 93 38 161 -22 42
-31 45 -99 30z"/>
</g>
</svg>
