<?xml version="1.0" standalone="no"?>
<!DOCTYPE svg PUBLIC "-//W3C//DTD SVG 20010904//EN"
 "http://www.w3.org/TR/2001/REC-SVG-20010904/DTD/svg10.dtd">
<svg version="1.0" xmlns="http://www.w3.org/2000/svg"
 width="1191.000000pt" height="744.000000pt" viewBox="0 0 1191.000000 744.000000"
 preserveAspectRatio="xMidYMid meet">
<metadata>
Created by potrace 1.14, written by Peter Selinger 2001-2017
</metadata>
<g transform="translate(0.000000,744.000000) scale(0.100000,-0.100000)"
fill="#000000" stroke="none">
<path d="M3563 7428 c-33 -53 -85 -180 -108 -263 -37 -133 -45 -305 -20 -430
9 -48 15 -88 13 -91 -3 -2 -24 2 -49 10 -24 8 -73 23 -109 34 -78 25 -225 44
-375 48 -172 5 -384 -47 -472 -115 -15 -13 -62 -47 -103 -78 -159 -118 -246
-196 -337 -305 -82 -99 -158 -250 -182 -364 -13 -59 -26 -93 -47 -119 -83
-104 -93 -154 -42 -204 31 -31 32 -33 39 -154 6 -91 17 -155 44 -252 58 -212
95 -359 95 -376 0 -20 -116 -126 -298 -273 -45 -37 -82 -70 -82 -74 0 -4 -21
-24 -48 -45 -26 -20 -73 -61 -104 -90 l-58 -54 0 -69 c0 -71 10 -120 36 -189
43 -110 63 -147 121 -227 35 -48 63 -91 63 -96 0 -10 135 -145 150 -150 37
-13 -35 -72 -88 -72 -24 0 -45 14 -103 72 -68 68 -100 110 -177 231 -46 73
-82 197 -82 283 0 45 -5 77 -14 90 -14 19 -16 18 -71 -9 -64 -31 -74 -29 -125
30 -29 34 -52 52 -148 120 -27 19 -140 61 -197 73 -65 14 -155 11 -230 -9 -76
-19 -110 -36 -137 -65 -22 -23 -23 -40 -3 -56 12 -10 23 -7 60 15 61 35 151
49 224 34 50 -10 142 -46 181 -70 114 -71 119 -74 259 -184 l90 -69 11 -66 c6
-36 17 -72 24 -80 6 -8 25 -44 41 -80 16 -36 35 -72 41 -80 19 -24 45 -93 40
-105 -7 -18 -120 -26 -199 -14 -96 15 -225 49 -377 100 -172 57 -170 56 -164
74 10 26 66 34 136 19 86 -18 118 -18 118 2 0 26 -110 151 -164 187 -106 69
-359 134 -486 125 -60 -4 -134 -42 -147 -74 -15 -41 62 -74 217 -93 159 -20
170 -22 200 -48 43 -36 42 -39 -35 -141 -5 -7 -18 -21 -27 -30 -25 -23 -22
-51 5 -61 12 -5 67 -20 122 -34 116 -29 192 -53 440 -137 l180 -61 103 32 c97
30 110 32 207 26 86 -5 114 -11 166 -35 l63 -30 51 29 c27 15 67 42 88 60 41
33 44 34 167 13 30 -5 40 -1 68 25 17 17 35 31 39 31 5 0 29 20 54 44 26 24
82 71 125 105 44 33 108 86 144 116 36 30 92 76 125 102 33 26 76 60 96 77 20
17 47 40 60 50 13 11 39 32 58 48 l34 30 126 -7 c141 -8 247 6 406 51 110 32
270 117 328 176 10 10 25 18 34 18 26 0 11 -109 -32 -235 -46 -133 -51 -216
-18 -280 12 -22 31 -46 42 -53 16 -9 21 -22 21 -52 0 -49 -27 -70 -88 -70 -79
0 -138 29 -211 101 -63 64 -69 68 -145 84 -124 28 -267 18 -371 -26 -44 -18
-90 -44 -102 -58 -13 -14 -39 -44 -59 -66 -62 -69 -160 -227 -182 -294 -27
-79 -29 -187 -5 -257 21 -63 112 -202 160 -244 67 -60 146 -76 218 -46 86 36
104 95 59 201 -54 129 -66 176 -61 228 3 41 10 55 35 76 122 104 121 104 164
104 32 0 46 -6 61 -24 16 -21 18 -34 12 -128 -7 -115 -11 -97 62 -261 23 -49
144 -209 196 -259 78 -74 198 -141 256 -141 14 0 33 -6 41 -13 17 -13 85 -105
91 -123 4 -11 76 -127 170 -272 59 -93 181 -289 214 -346 11 -19 39 -67 62
-108 107 -183 123 -210 233 -383 30 -48 67 -108 81 -133 50 -90 67 -118 151
-252 46 -74 98 -160 115 -190 96 -173 84 -159 171 -189 59 -20 65 -20 95 -6
48 24 65 39 77 70 23 60 -12 90 -95 80 l-53 -7 -43 71 c-24 40 -56 91 -71 114
-14 23 -49 80 -78 127 -63 104 -84 138 -181 282 -42 62 -100 151 -128 198 -29
47 -71 113 -94 147 -72 105 -137 212 -184 302 -25 47 -54 98 -64 113 -11 14
-19 29 -19 33 0 3 -33 66 -74 138 -40 73 -77 143 -81 157 -9 30 -45 98 -63
120 -109 127 -192 265 -192 317 0 32 1 33 39 33 36 0 41 -4 72 -52 18 -29 56
-89 84 -133 29 -44 67 -107 85 -140 18 -33 48 -84 66 -113 19 -29 34 -54 34
-57 0 -2 13 -24 29 -47 38 -57 92 -150 127 -218 16 -30 46 -81 67 -112 21 -32
41 -66 45 -75 4 -10 28 -51 55 -91 26 -40 47 -76 47 -81 0 -4 12 -26 28 -47
15 -21 40 -64 56 -94 16 -30 34 -62 41 -70 6 -8 33 -51 60 -95 41 -68 76 -125
142 -230 7 -11 20 -33 29 -50 41 -76 136 -223 154 -240 19 -18 20 -18 20 5 0
42 -326 662 -384 729 -7 9 -16 23 -20 31 -4 8 -12 24 -19 35 -7 11 -34 58 -61
105 -27 47 -77 128 -112 180 -34 52 -70 113 -80 135 -11 22 -27 49 -38 60 -10
11 -28 40 -39 65 -11 25 -33 64 -48 87 -16 23 -29 44 -29 46 0 6 -99 179 -148
260 -23 37 -42 71 -42 75 0 4 -20 42 -45 86 -25 43 -45 82 -45 87 0 5 20 18
45 30 25 12 54 31 64 43 11 11 32 35 48 53 15 17 56 67 90 110 84 107 101 121
171 141 62 17 142 72 142 97 0 7 7 18 15 25 8 7 20 30 25 51 8 27 22 46 51 66
48 34 99 113 132 208 46 129 43 125 80 125 35 0 108 -34 164 -76 l32 -24 -6
-138 c-9 -239 21 -377 133 -611 66 -138 184 -268 272 -301 47 -18 168 -91 182
-110 6 -8 72 -60 206 -160 111 -84 163 -113 235 -134 148 -43 395 -61 435 -32
24 18 16 26 -56 55 -178 73 -372 172 -445 226 -155 115 -297 293 -408 513 -74
145 -118 282 -147 452 -32 190 -24 404 22 595 18 78 20 93 9 99 -6 4 -19 2
-29 -3 -24 -13 -42 3 -42 36 0 23 41 112 85 183 12 19 27 51 34 71 14 42 35
63 114 110 56 33 136 100 259 220 32 31 58 59 58 63 0 4 11 19 24 33 13 14 30
37 37 52 7 14 30 51 50 81 70 104 166 275 187 333 12 32 28 68 36 80 8 12 24
65 36 117 12 52 33 140 47 195 34 128 39 295 10 338 -29 45 -44 44 -96 -7 -45
-44 -73 -56 -86 -36 -9 15 34 73 77 104 56 40 82 81 116 177 25 70 74 161 102
189 3 3 11 16 19 30 8 14 39 65 69 114 81 131 111 223 80 242 -6 4 -17 -1 -25
-12 -171 -239 -307 -379 -440 -452 -13 -8 -27 -20 -30 -28 -3 -8 -12 -14 -20
-14 -28 0 -163 -62 -163 -75 0 -34 98 -20 258 38 88 32 92 33 92 7 0 -34 -136
-160 -199 -184 -71 -28 -80 -43 -57 -95 18 -38 18 -42 2 -67 -17 -26 -65 -51
-159 -84 -26 -9 -61 -29 -78 -44 -29 -26 -30 -30 -23 -82 6 -52 5 -57 -22 -85
-52 -54 -201 -108 -346 -124 -64 -7 -78 -18 -54 -44 24 -27 20 -50 -11 -58
-44 -12 -283 -8 -328 6 -102 32 -174 64 -194 85 l-23 24 36 73 c27 55 40 101
51 176 38 252 58 336 95 398 44 72 130 125 280 174 226 73 312 102 415 140 61
23 136 51 168 62 32 11 86 33 120 48 34 16 100 43 146 60 45 18 100 43 122 57
21 13 58 32 81 41 201 79 437 288 413 364 -4 10 -12 19 -19 19 -12 0 -104 -55
-293 -174 -144 -91 -323 -164 -593 -241 -47 -14 -105 -31 -130 -39 -25 -8 -97
-31 -160 -51 -208 -66 -382 -142 -441 -193 -120 -104 -151 -137 -190 -197 -66
-104 -88 -185 -95 -340 -7 -163 -27 -257 -63 -292 -24 -22 -32 -24 -91 -20
-40 3 -113 21 -190 47 -123 42 -155 46 -270 37 -24 -2 -25 1 -31 63 -10 119
-68 194 -205 266 l-78 41 -52 104 c-133 268 -149 309 -196 479 -19 74 -23 109
-23 265 0 175 1 182 27 238 23 49 31 58 50 55 27 -4 122 -130 168 -223 29 -58
108 -284 165 -470 29 -94 60 -163 103 -227 34 -53 63 -49 77 9 12 49 23 63 35
43 8 -13 12 -42 25 -195 3 -31 12 -56 24 -69 17 -17 23 -18 51 -6 19 8 39 28
50 50 16 31 37 50 54 50 2 0 16 -18 31 -40 30 -43 30 -49 9 -235 -2 -22 1 -52
7 -68 13 -31 52 -45 73 -27 28 22 46 101 46 199 0 181 -26 220 -176 260 -52
14 -78 50 -80 112 0 35 -11 63 -46 120 -47 79 -94 119 -139 119 -23 0 -29 6
-42 43 -49 136 -72 192 -114 277 -74 150 -141 235 -286 361 -67 59 -107 73
-124 47z m-496 -853 c109 -8 232 -44 276 -81 32 -27 136 -154 155 -190 14 -26
8 -52 -34 -141 -37 -77 -40 -94 -24 -124 17 -31 42 -22 85 31 22 27 48 49 58
50 21 0 21 -7 1 -56 -31 -73 -34 -93 -16 -110 14 -15 18 -14 42 16 35 43 43
29 34 -63 -5 -61 -4 -76 10 -90 9 -9 22 -14 29 -11 7 2 33 38 58 78 53 84 77
103 140 112 41 6 46 4 68 -26 26 -36 30 -92 16 -212 -5 -47 -4 -82 5 -115 14
-46 13 -47 -15 -67 -66 -47 -124 -110 -153 -164 -45 -86 -78 -250 -93 -467
-15 -217 -26 -297 -50 -374 -20 -63 -32 -84 -80 -133 -61 -62 -92 -79 -204
-110 -38 -11 -83 -28 -100 -38 -121 -75 -400 -79 -625 -9 -138 43 -150 49
-150 75 0 20 12 30 75 61 l74 37 109 -12 c257 -29 367 -5 476 103 33 32 60 71
74 107 13 31 50 105 83 165 63 115 71 143 40 143 -38 0 -107 -87 -172 -219
-21 -42 -46 -86 -56 -98 -31 -37 -146 -73 -238 -73 -75 0 -202 33 -230 60 -13
12 -35 20 -56 20 -35 0 -62 -15 -141 -82 -60 -50 -164 -88 -265 -95 -70 -5
-90 -3 -137 16 -58 24 -92 53 -81 70 3 6 14 11 23 11 32 0 135 41 178 71 80
55 148 165 122 196 -13 16 -31 7 -93 -47 -25 -22 -56 -40 -67 -40 -25 0 -58
27 -58 47 0 7 -11 35 -23 61 -37 73 -83 214 -116 352 -33 142 -56 319 -43 332
6 6 35 5 70 -2 79 -14 106 -1 99 47 -7 39 -38 76 -104 120 -61 41 -62 42 -32
165 50 207 175 387 375 543 49 38 193 111 264 134 58 19 269 43 310 35 8 -1
57 -5 107 -9z m2151 -2248 c-71 -223 -81 -267 -73 -328 7 -57 -13 -79 -81 -89
-81 -13 -229 24 -277 69 -28 26 -29 27 -23 121 3 52 9 124 13 160 l8 65 45 2
c138 8 267 26 323 46 34 13 67 22 73 20 8 -3 5 -23 -8 -66z m-12 -579 c4 -18
6 -114 6 -213 -1 -161 1 -190 24 -275 13 -52 31 -120 39 -150 8 -33 10 -59 5
-64 -6 -5 -11 -8 -13 -5 -20 25 -86 140 -92 159 -4 14 -11 30 -15 35 -14 17
-47 116 -64 190 -9 39 -21 88 -26 110 -16 72 -21 192 -7 203 12 9 100 39 124
41 6 1 15 -14 19 -31z m-1974 -138 c77 -39 112 -89 74 -103 -21 -8 -136 10
-179 28 -43 18 -79 19 -110 3 -146 -75 -219 -127 -242 -172 -45 -87 -43 -205
5 -336 36 -99 37 -108 5 -116 -50 -13 -125 71 -151 171 -27 100 -10 250 35
314 37 51 173 172 224 197 67 34 117 44 214 40 61 -3 94 -10 125 -26z m658
-40 c41 -11 111 -25 155 -30 93 -10 296 -37 343 -45 26 -5 32 -11 32 -30 0
-31 -21 -42 -124 -67 -89 -21 -132 -19 -257 11 -161 39 -305 141 -262 185 4 4
14 5 23 2 8 -3 49 -14 90 -26z m-248 -101 c51 -11 124 -44 180 -81 57 -39 204
-110 252 -122 27 -7 52 -19 54 -25 6 -17 -84 -102 -131 -124 -21 -10 -63 -25
-95 -34 -207 -58 -216 -61 -284 -104 -58 -37 -79 -69 -93 -139 -9 -45 -16 -56
-33 -58 -12 -2 -24 3 -26 10 -2 7 -12 43 -22 81 -16 65 -18 67 -55 77 -27 8
-39 16 -39 29 0 10 -21 59 -46 110 -75 150 -69 242 18 287 18 9 54 32 81 51
73 54 133 64 239 42z"/>
<path d="M2715 6095 c-62 -29 -123 -107 -155 -197 -42 -119 -24 -128 83 -46
110 86 222 149 274 156 83 9 74 39 -24 80 -59 25 -134 28 -178 7z"/>
<path d="M2796 5544 c-3 -9 -9 -39 -12 -67 -5 -46 -3 -55 19 -79 29 -31 62
-36 71 -12 12 32 6 125 -10 149 -18 28 -59 33 -68 9z"/>
<path d="M2096 5304 c-3 -9 -6 -37 -6 -62 0 -79 51 -137 88 -100 19 19 15 109
-8 146 -22 35 -63 44 -74 16z"/>
<path d="M2423 5208 c-27 -34 -55 -106 -60 -153 -9 -88 39 -145 135 -161 47
-7 102 8 128 37 14 15 16 25 8 46 -8 23 -18 29 -67 39 -59 12 -85 32 -88 69
-1 11 -2 45 -3 75 -1 48 -4 55 -22 58 -11 2 -25 -3 -31 -10z"/>
<path d="M2770 4987 c0 -25 91 -106 153 -136 34 -17 80 -31 102 -32 108 -3
111 10 9 55 -71 32 -148 74 -196 107 -32 22 -68 25 -68 6z"/>
<path d="M8945 6951 c-98 -56 -150 -101 -255 -217 -72 -80 -123 -120 -165
-129 -17 -4 -46 -20 -65 -35 -19 -15 -46 -33 -60 -40 -74 -39 -127 -103 -149
-181 -16 -59 -18 -61 -97 -112 -158 -102 -337 -243 -387 -305 -15 -20 -36 -42
-47 -49 -10 -7 -54 -55 -97 -106 -43 -50 -86 -100 -95 -109 -28 -28 -209 -307
-225 -347 -8 -20 -26 -61 -40 -91 -15 -30 -30 -64 -34 -75 -26 -70 -53 -145
-65 -175 -7 -19 -25 -91 -40 -160 -36 -169 -45 -514 -20 -750 18 -162 79 -568
96 -631 12 -44 32 -54 56 -28 25 28 22 203 -7 345 -30 146 -30 311 0 379 23
52 49 88 84 115 25 20 25 20 163 -16 77 -20 157 -40 179 -45 137 -29 268 -50
390 -63 349 -39 416 -46 474 -51 32 -4 49 -11 40 -19 -7 -6 -148 -90 -178
-107 -16 -8 -43 -27 -61 -42 -17 -15 -36 -27 -41 -27 -6 0 -37 -18 -69 -40
-32 -22 -63 -40 -68 -40 -6 0 -36 -19 -68 -43 -223 -164 -635 -371 -945 -475
-161 -54 -150 -43 -138 -137 5 -44 14 -118 19 -165 5 -47 14 -128 20 -180 7
-52 15 -133 20 -180 4 -47 16 -148 28 -225 11 -77 25 -192 31 -255 7 -63 16
-141 22 -172 7 -32 9 -64 5 -73 -3 -9 -26 -25 -52 -36 -54 -24 -74 -62 -74
-138 0 -61 26 -199 40 -216 6 -7 34 -16 63 -20 95 -12 97 -15 117 -150 5 -38
17 -117 25 -175 9 -58 18 -125 21 -150 23 -205 85 -603 109 -705 8 -33 17 -80
20 -104 8 -49 38 -86 63 -76 9 4 55 13 102 21 47 8 145 29 219 46 152 36 146
37 323 -31 117 -44 353 -103 508 -126 345 -51 818 -44 1304 20 65 9 122 18
126 20 4 2 42 11 86 20 166 32 328 70 519 120 432 114 798 305 1015 530 57 59
140 165 140 178 0 5 14 26 30 47 71 89 53 247 -44 393 -19 28 -43 61 -53 72
-10 12 -32 39 -49 60 -90 118 -131 171 -139 184 -15 26 -60 279 -70 391 -3 41
-10 104 -15 140 -15 106 -29 430 -35 815 -14 985 -25 1215 -75 1545 -21 142
-55 318 -70 360 -5 14 -23 75 -40 135 -39 135 -46 154 -123 330 -33 77 -70
151 -82 165 -28 33 -55 74 -97 153 -53 95 -297 362 -398 434 -241 171 -252
178 -385 249 -54 29 -72 34 -216 63 -109 22 -158 43 -211 94 -31 29 -47 36
-100 42 -88 10 -153 48 -231 135 -104 116 -206 206 -253 223 -65 23 -188 22
-229 -2z m235 -112 c49 -21 105 -77 183 -185 86 -120 178 -176 295 -182 39 -2
72 -8 72 -14 0 -42 -96 -132 -194 -182 -82 -41 -271 -92 -473 -127 -96 -17
-167 -23 -288 -23 -158 0 -161 1 -235 32 -41 18 -96 46 -122 63 -46 30 -48 33
-48 78 0 26 5 58 12 73 13 27 108 89 199 130 40 18 77 47 125 99 124 131 183
185 246 222 53 31 72 37 121 37 37 0 76 -8 107 -21z m720 -481 c0 -34 10 -44
75 -78 115 -59 279 -204 398 -350 76 -94 189 -269 181 -282 -5 -7 -31 -9 -78
-5 -102 9 -132 34 -220 182 -51 86 -96 146 -161 214 -134 141 -166 171 -201
187 -18 9 -35 21 -37 29 -5 11 6 79 18 113 7 20 25 13 25 -10z m-34 -245 c29
-32 65 -74 81 -93 52 -62 129 -183 153 -243 21 -50 22 -60 10 -67 -17 -11
-216 -12 -300 -2 l-54 7 -49 120 c-26 66 -50 125 -52 130 -10 25 -25 92 -25
113 0 14 8 26 23 31 12 5 46 25 76 45 64 41 66 41 137 -41z m-1610 33 c20 -31
15 -38 -65 -112 -69 -63 -134 -140 -191 -223 -19 -29 -45 -64 -57 -79 -33 -43
-148 -274 -200 -402 -25 -63 -53 -123 -61 -132 -8 -10 -63 -50 -123 -90 -105
-71 -138 -105 -125 -127 10 -16 34 -14 110 10 39 12 71 18 76 13 5 -5 5 -35 0
-69 -13 -88 -39 -249 -55 -335 -7 -41 -19 -108 -26 -147 -13 -80 -23 -87 -78
-59 -27 14 -91 118 -91 148 0 8 -18 41 -40 72 l-41 58 17 86 c16 89 41 169 56
187 4 5 8 19 8 31 0 13 5 26 10 29 6 3 10 15 10 25 0 39 198 427 270 529 22
31 45 64 52 75 66 97 218 276 335 393 153 154 177 167 209 119z m159 -130 c19
-8 35 -19 35 -24 0 -12 -58 -208 -76 -255 -8 -20 -14 -49 -14 -63 0 -14 -6
-38 -14 -52 -30 -58 -66 -163 -66 -192 0 -9 -10 -22 -22 -29 -38 -20 -332 -90
-341 -82 -5 5 -4 18 1 28 6 11 21 48 33 84 42 123 121 271 207 389 43 60 193
210 210 210 7 0 28 -7 47 -14z m1077 -35 c19 -38 26 -56 69 -176 16 -44 29
-85 29 -92 0 -7 -24 -19 -52 -28 -72 -20 -251 -46 -258 -37 -4 4 -14 66 -24
137 -9 72 -19 142 -22 157 -5 25 -2 28 53 44 32 9 69 20 83 25 14 4 43 7 65 6
35 -2 42 -7 57 -36z m-803 -37 c8 -8 1 -328 -9 -363 -13 -48 -41 -78 -87 -90
-48 -14 -130 -14 -138 -1 -16 26 90 423 121 455 11 10 28 13 62 9 26 -3 49 -7
51 -10z m326 -2 l60 -2 12 -57 c7 -32 19 -89 27 -128 22 -96 21 -122 -6 -139
-28 -17 -249 -51 -273 -42 -15 5 -16 18 -10 108 4 57 11 119 16 138 5 19 9 49
9 67 0 43 20 60 67 59 21 -1 65 -3 98 -4z m1123 -375 l84 -12 37 -70 c20 -38
47 -95 60 -125 13 -30 43 -98 67 -150 58 -129 179 -558 162 -576 -8 -7 -180
-68 -282 -100 -83 -25 -170 -32 -182 -12 -4 6 -22 83 -40 172 -18 89 -43 193
-54 231 -12 39 -25 88 -29 110 -5 22 -25 103 -46 180 -20 77 -43 167 -50 200
-7 33 -18 73 -24 88 -22 56 -16 66 42 70 103 7 173 5 255 -6z m-501 -29 c14
-18 80 -204 99 -275 8 -32 26 -98 39 -148 37 -142 72 -319 90 -455 8 -69 18
-142 22 -162 6 -44 3 -46 -122 -73 -44 -10 -122 -28 -173 -41 -52 -13 -107
-24 -122 -24 -33 0 -33 0 -51 170 -5 58 -19 188 -30 290 -10 102 -24 241 -30
310 -5 69 -16 175 -22 235 -17 146 -14 156 48 171 70 16 240 18 252 2z m968
-17 c55 -20 64 -28 114 -99 79 -112 152 -262 211 -432 18 -52 37 -99 42 -104
34 -39 -24 -114 -127 -164 -121 -59 -136 -56 -155 31 -7 34 -20 80 -27 102 -8
22 -26 85 -39 139 -14 55 -35 125 -48 155 -13 31 -31 81 -41 111 -10 30 -40
102 -67 160 -27 57 -46 110 -43 118 7 20 104 10 180 -17z m-1458 -116 c56
-371 88 -673 99 -930 l7 -150 -34 -13 c-49 -18 -338 -45 -356 -33 -14 8 -41
285 -48 491 -8 216 18 629 41 647 33 24 207 72 254 69 23 -1 26 -6 37 -81z
m-480 -91 c1 -38 4 -288 7 -556 5 -474 4 -488 -14 -498 -12 -6 -81 -9 -172 -8
l-153 3 -3 260 c-3 288 12 489 52 685 22 113 23 115 58 133 36 18 195 57 213
53 6 -2 11 -34 12 -72z m-437 -115 c-34 -228 -75 -716 -71 -860 1 -43 -1 -79
-6 -82 -13 -7 -72 2 -380 64 -52 10 -53 11 -53 45 0 18 7 69 15 111 17 93 75
483 84 568 8 72 12 81 48 90 15 3 68 26 118 49 135 65 233 98 248 86 4 -3 3
-35 -3 -71z m2987 -607 c10 -88 26 -259 53 -567 9 -99 21 -385 35 -845 9 -266
24 -541 43 -750 18 -202 22 -405 9 -452 -4 -16 -13 -28 -21 -28 -10 0 -14 49
-20 228 -10 329 -35 773 -76 1342 -11 157 -27 393 -35 525 -7 132 -19 328 -26
437 -6 108 -9 204 -5 214 14 35 31 -7 43 -104z m-182 -2 c3 -5 8 -69 10 -141
4 -125 20 -459 30 -652 14 -262 43 -832 65 -1302 5 -115 14 -302 20 -415 13
-249 9 -273 -56 -319 -25 -17 -51 -31 -60 -31 -8 0 -29 -7 -45 -16 -17 -8 -36
-13 -43 -11 -13 5 -29 83 -46 222 -9 68 -15 232 -23 560 l-2 70 50 1 c75 1 82
3 89 20 10 25 -9 40 -69 54 -30 7 -60 19 -65 25 -13 16 -26 121 -39 320 -6 88
-16 196 -21 240 -5 44 -14 139 -20 210 -6 72 -18 198 -25 280 -8 83 -22 229
-30 325 -9 96 -20 220 -25 275 -17 180 -28 157 113 224 146 70 180 81 192 61z
m-451 -273 c6 -81 37 -449 57 -682 5 -66 14 -176 19 -245 5 -69 13 -188 20
-265 39 -495 63 -1082 58 -1389 l-3 -149 -40 -12 c-22 -7 -78 -32 -125 -56
-62 -32 -100 -44 -141 -47 -72 -5 -74 -1 -83 138 -3 58 -15 200 -26 315 -11
116 -27 287 -35 380 -8 94 -18 190 -20 215 -8 77 -3 79 178 87 163 6 186 13
158 47 -18 21 -74 28 -204 27 l-118 -1 -30 29 c-27 27 -29 35 -29 103 0 40 -4
111 -10 158 -12 112 -36 371 -55 595 -8 99 -24 284 -35 410 -12 127 -20 248
-18 269 3 38 4 39 58 53 61 15 165 50 194 65 35 19 201 55 212 46 6 -4 14 -45
18 -91z m-645 -71 c6 -7 16 -58 21 -112 9 -98 29 -274 49 -449 18 -151 60
-601 71 -765 6 -85 13 -162 15 -170 2 -8 7 -53 10 -100 3 -47 14 -206 24 -355
25 -353 40 -571 48 -727 l6 -128 -45 -20 c-25 -11 -80 -28 -124 -39 -81 -20
-276 -53 -281 -47 -6 6 -23 140 -47 371 -14 127 -29 268 -35 315 -6 47 -20
175 -31 285 -11 110 -22 209 -24 220 -3 11 -12 108 -21 215 -9 107 -18 202
-20 210 -3 8 -9 65 -15 125 -5 61 -16 175 -25 255 -28 274 -64 615 -75 709 -6
52 -7 98 -3 101 16 13 193 61 328 89 169 35 160 34 174 17z m-622 -121 c1 -11
10 -108 18 -215 8 -107 19 -235 25 -285 5 -49 12 -130 15 -180 4 -49 13 -151
20 -225 8 -74 24 -227 35 -340 11 -113 25 -245 30 -295 5 -49 12 -137 15 -195
3 -58 10 -139 15 -180 5 -41 14 -131 20 -200 6 -69 15 -168 20 -220 5 -52 14
-156 20 -230 6 -74 13 -154 16 -176 9 -76 -29 -87 -218 -63 -97 13 -95 11
-124 95 -32 93 -35 121 -43 466 -8 343 -8 347 -33 390 -49 86 -71 171 -107
413 -6 39 -13 106 -15 150 -3 44 -13 133 -22 197 -16 108 -16 120 0 158 23 58
21 167 -5 238 -11 31 -26 74 -31 95 -14 50 -32 56 -66 24 -20 -20 -43 -28 -86
-33 -69 -8 -77 -21 -47 -74 11 -21 21 -49 21 -63 0 -14 5 -29 10 -32 13 -8 13
-76 -1 -149 -9 -50 -7 -67 15 -144 24 -83 56 -323 71 -527 4 -49 13 -108 21
-130 7 -22 14 -52 14 -66 0 -36 34 -130 70 -197 16 -30 30 -61 30 -69 0 -7
-13 -19 -30 -28 -21 -11 -30 -23 -30 -40 0 -13 23 -113 51 -222 69 -271 69
-343 -4 -455 -27 -41 -90 -90 -100 -78 -23 29 -52 137 -67 245 -10 71 -25 182
-34 245 -31 222 -36 256 -50 380 -9 69 -22 188 -31 265 -9 77 -20 174 -25 215
-5 41 -14 120 -20 175 -6 55 -15 127 -20 160 -5 33 -14 107 -20 165 -7 58 -18
150 -25 205 -8 55 -19 143 -25 195 -6 52 -13 113 -16 135 -4 37 -1 44 41 88
63 64 79 62 95 -10 20 -95 34 -120 73 -132 53 -18 82 -2 96 53 13 51 14 89 4
100 -4 4 -8 35 -9 69 -1 34 -8 105 -17 157 -8 52 -13 98 -11 101 7 12 414 99
448 96 11 -1 21 -11 23 -22z m-957 -427 c-19 -16 -53 -39 -75 -50 -22 -11 -56
-34 -76 -49 -20 -16 -40 -29 -43 -29 -4 0 -25 -12 -49 -27 -52 -33 -81 -49
-227 -125 -155 -80 -267 -129 -640 -279 -42 -17 -70 -13 -56 9 3 5 59 29 123
52 65 23 147 55 183 72 36 17 106 48 155 69 97 40 313 150 357 180 14 11 28
19 31 19 9 0 130 72 150 89 27 22 191 109 197 104 3 -3 -11 -18 -30 -35z m77
-219 c6 -46 17 -120 23 -164 6 -44 20 -129 31 -190 11 -60 27 -166 35 -235 8
-69 17 -132 20 -140 5 -14 23 -155 59 -455 47 -395 96 -968 83 -980 -6 -6 -73
-9 -127 -7 -46 3 -95 55 -110 119 -6 26 -15 120 -21 208 -7 106 -17 180 -30
220 -19 58 -42 188 -61 345 -5 41 -16 118 -24 170 -27 170 -88 579 -104 705
-28 206 -40 317 -35 329 7 18 70 68 112 90 18 9 51 30 75 46 23 16 46 28 52
26 5 -1 15 -41 22 -87z m-408 -191 c10 -24 21 -74 24 -113 4 -38 11 -110 17
-160 6 -49 17 -152 24 -227 8 -75 22 -185 31 -245 8 -59 27 -189 41 -288 46
-324 64 -446 79 -519 7 -39 19 -109 24 -156 6 -47 15 -114 21 -150 6 -36 21
-148 34 -250 13 -102 27 -193 31 -204 8 -17 4 -18 -76 -11 -57 5 -102 15 -139
33 -94 43 -108 57 -115 110 -3 26 -12 81 -20 122 -7 41 -20 113 -29 160 -8 47
-24 135 -35 195 -21 110 -45 248 -82 465 -10 63 -23 138 -28 165 -5 28 -21
127 -36 220 -14 94 -30 195 -35 225 -5 30 -14 98 -20 150 -6 52 -15 124 -20
160 -18 131 -21 208 -8 217 40 27 266 142 281 142 12 1 24 -13 36 -41z m-466
-300 c10 -139 51 -433 97 -683 10 -60 33 -186 50 -280 57 -315 78 -440 85
-510 4 -38 16 -113 26 -165 23 -118 25 -190 4 -190 -8 0 -18 8 -24 18 -11 21
-82 340 -111 502 -4 25 -15 72 -24 106 -8 33 -27 118 -41 190 -37 187 -131
572 -179 734 -13 47 -34 121 -46 165 -43 159 -43 156 -5 168 11 3 38 13 60 21
22 8 54 15 71 16 l31 0 6 -92z m-299 6 c9 -3 16 -17 16 -30 0 -12 7 -49 16
-81 8 -32 19 -78 23 -103 8 -40 44 -215 70 -340 6 -25 19 -94 30 -155 11 -60
28 -148 37 -195 9 -47 18 -98 21 -115 5 -39 41 -237 53 -295 5 -25 21 -106 34
-180 14 -74 30 -160 36 -190 33 -163 33 -168 17 -202 -8 -18 -27 -58 -41 -89
-14 -31 -26 -63 -26 -72 0 -18 -18 -32 -28 -23 -3 4 -16 70 -28 149 -12 78
-30 183 -39 232 -39 215 -89 516 -115 690 -6 39 -15 99 -21 135 -27 176 -51
354 -60 435 -5 50 -13 110 -18 135 -6 25 -12 81 -16 125 -3 44 -8 101 -11 128
-4 42 -2 47 15 47 11 0 26 -3 35 -6z m3901 -1393 c11 -19 37 -250 31 -277 -4
-15 -24 -44 -44 -64 -31 -31 -46 -38 -95 -44 -32 -3 -62 -4 -67 -1 -18 11 -30
81 -30 174 l0 93 40 39 c38 37 122 88 147 89 6 0 14 -4 18 -9z m-387 -193 c13
-13 17 -265 4 -284 -28 -43 -348 -128 -372 -99 -5 6 -12 69 -16 141 -6 108 -4
131 8 142 8 6 64 31 124 53 145 56 228 71 252 47z m-586 -179 c19 -38 42 -178
36 -224 -3 -27 -9 -30 -108 -57 -91 -24 -304 -68 -336 -68 -14 0 -25 70 -30
187 -3 86 -1 95 21 122 24 27 30 29 130 36 58 4 138 15 178 25 39 10 77 17 82
16 6 -1 18 -18 27 -37z m-1553 -13 c46 -14 87 -30 92 -37 8 -14 2 -63 -12 -89
-4 -8 -20 -25 -36 -38 -15 -12 -48 -38 -71 -57 -47 -38 -61 -42 -66 -22 -2 6
-12 38 -21 69 -15 52 -19 90 -16 171 1 34 17 35 130 3z m831 -39 c70 -15 119
-36 138 -60 9 -10 10 -47 4 -132 l-7 -118 -40 -15 c-30 -11 -105 -15 -297 -19
-254 -4 -258 -4 -258 16 0 11 24 46 53 78 28 31 59 64 67 73 25 27 80 98 80
104 0 2 9 26 20 52 l21 47 77 -6 c42 -4 106 -13 142 -20z m-390 -12 c0 -17
-109 -145 -149 -176 -25 -19 -86 -66 -136 -104 -49 -38 -103 -81 -120 -96 -55
-49 -356 -239 -380 -239 -3 0 -56 -25 -120 -55 -63 -30 -117 -55 -121 -55 -3
0 -20 -7 -37 -14 -94 -43 -278 -92 -367 -98 -41 -3 -45 -1 -48 22 -3 25 -3 25
85 26 79 1 100 5 208 46 216 82 460 224 668 390 131 105 259 200 347 258 52
35 103 71 113 81 16 17 57 27 57 14z"/>
<path d="M9807 2634 c-119 -28 -124 -50 -12 -55 139 -6 198 0 235 23 l35 21
-30 13 c-39 17 -155 16 -228 -2z"/>
<path d="M5595 6035 c-16 -7 -50 -21 -75 -30 -74 -27 -95 -40 -98 -57 -6 -33
41 -31 139 7 85 32 129 62 129 86 0 13 -61 10 -95 -6z"/>
<path d="M6175 5051 c-3 -6 11 -76 30 -158 63 -261 73 -306 90 -408 9 -55 20
-208 26 -340 10 -247 28 -381 55 -401 9 -7 32 -10 54 -7 28 4 41 2 45 -8 3 -8
7 -68 8 -134 2 -66 7 -128 11 -137 11 -24 89 -74 155 -98 75 -29 221 -58 306
-62 65 -3 70 -2 73 19 4 30 -101 286 -151 363 -47 75 -137 170 -160 170 -9 0
-19 -9 -22 -21 -15 -48 18 -132 101 -251 29 -43 55 -130 42 -144 -10 -9 -112
17 -131 34 -30 26 -53 87 -71 184 -24 127 -71 215 -123 232 -12 4 -26 12 -31
19 -6 7 -13 95 -16 197 -4 168 -10 227 -36 400 -10 73 -56 234 -74 263 -7 12
-16 37 -20 56 -3 19 -10 39 -15 45 -5 6 -28 47 -51 91 -23 44 -47 86 -52 93
-12 14 -34 16 -43 3z"/>
<path d="M6549 4207 c-20 -18 -39 -40 -42 -50 -11 -30 10 -65 55 -93 24 -15
79 -60 122 -101 62 -59 84 -73 105 -71 22 2 27 10 35 44 7 37 5 49 -20 95 -30
55 -112 140 -177 184 -21 14 -39 25 -40 25 -1 -1 -18 -15 -38 -33z"/>
<path d="M7489 4108 c-4 -60 5 -225 13 -244 14 -30 46 -41 65 -22 8 8 17 39
20 69 5 48 1 63 -31 132 -21 44 -43 77 -51 77 -8 0 -15 -6 -16 -12z"/>
<path d="M287 4089 c-21 -5 -47 -14 -58 -19 -21 -12 -26 -50 -6 -51 74 -3 217
5 245 14 46 15 54 43 15 51 -60 11 -160 14 -196 5z"/>
<path d="M6886 2779 c-47 -41 -126 -147 -126 -168 0 -9 -15 -41 -34 -70 -19
-29 -51 -92 -71 -139 -71 -166 -120 -256 -171 -310 -13 -15 -27 -35 -30 -44
-2 -9 -47 -37 -99 -62 -51 -24 -99 -54 -105 -65 -17 -33 -2 -90 27 -104 34
-15 141 14 215 59 65 40 187 166 225 234 14 25 34 58 45 73 11 16 26 63 34
105 14 69 46 181 120 412 38 118 32 134 -30 79z"/>
</g>
</svg>
