<?xml version="1.0" standalone="no"?>
<!DOCTYPE svg PUBLIC "-//W3C//DTD SVG 20010904//EN"
 "http://www.w3.org/TR/2001/REC-SVG-20010904/DTD/svg10.dtd">
<svg version="1.0" xmlns="http://www.w3.org/2000/svg"
 width="1064.000000pt" height="906.000000pt" viewBox="0 0 1064.000000 906.000000"
 preserveAspectRatio="xMidYMid meet">
<metadata>
Created by potrace 1.14, written by Peter Selinger 2001-2017
</metadata>
<g transform="translate(0.000000,906.000000) scale(0.100000,-0.100000)"
fill="#000000" stroke="none">
<path d="M6775 9044 c-87 -18 -178 -64 -227 -114 -70 -72 -73 -178 -8 -278 33
-51 45 -61 126 -101 49 -24 101 -50 115 -57 57 -29 202 -75 330 -103 115 -26
174 -36 329 -57 130 -17 655 -53 801 -54 24 0 27 -4 32 -54 10 -98 70 -181
187 -258 79 -52 138 -116 160 -176 23 -60 22 -61 -63 -79 -84 -17 -88 -22 -86
-112 5 -211 -38 -406 -107 -494 -29 -36 -43 -35 -168 10 -35 12 -42 12 -80 -7
-51 -24 -106 -26 -148 -4 -17 9 -63 42 -102 74 -109 89 -119 92 -262 91 -235
-3 -388 -36 -487 -107 -26 -19 -52 -34 -57 -34 -18 0 -28 41 -40 155 -12 119
-57 311 -97 415 -14 36 -30 78 -36 95 -37 95 -140 265 -241 400 -84 111 -215
232 -346 319 -119 80 -303 176 -335 176 -24 0 -57 -45 -88 -118 -16 -37 -31
-76 -34 -87 -8 -30 -44 -65 -65 -65 -10 0 -41 11 -68 25 -103 52 -254 69 -372
41 -123 -30 -279 -140 -320 -227 -17 -34 -44 -146 -55 -224 -3 -22 -14 -57
-24 -77 -24 -46 -77 -108 -94 -108 -15 0 -165 -163 -189 -205 -39 -70 -59
-101 -80 -125 -24 -27 -116 -219 -116 -242 0 -8 -3 -18 -7 -22 -11 -11 -42
-112 -64 -206 -26 -112 -36 -341 -20 -451 7 -46 26 -128 43 -182 21 -66 28
-101 21 -108 -10 -10 -64 3 -145 33 -40 15 -53 35 -77 128 -12 46 -28 91 -35
100 -8 8 -21 32 -29 52 -23 56 -102 134 -182 181 -38 23 -81 52 -94 64 -30 27
-104 44 -157 36 -22 -3 -77 -17 -124 -30 -70 -21 -97 -25 -157 -19 l-73 6 -40
-36 c-33 -30 -40 -43 -40 -73 0 -30 -9 -46 -44 -85 -43 -46 -57 -76 -87 -189
l-12 -49 -36 7 c-20 4 -40 10 -45 15 -18 18 -6 66 33 144 61 120 56 137 -37
111 -85 -23 -131 -46 -137 -66 -3 -10 -20 -30 -36 -44 -41 -34 -111 -34 -221
1 -178 57 -286 68 -419 44 -30 -5 -83 -14 -119 -20 -88 -16 -167 -44 -274 -97
-163 -82 -234 -140 -418 -340 -30 -34 -75 -66 -127 -93 -118 -62 -162 -123
-106 -148 36 -17 32 -46 -19 -149 -43 -86 -96 -227 -96 -256 0 -7 -9 -40 -20
-73 -22 -64 -58 -312 -62 -422 -1 -37 2 -135 6 -217 8 -141 7 -152 -12 -175
-11 -13 -34 -29 -53 -35 -84 -29 -29 -55 131 -62 118 -6 225 9 295 41 184 84
268 132 350 203 l89 76 105 8 c111 9 176 22 201 42 77 62 61 87 -59 87 -47 0
-91 4 -97 8 -24 15 -34 54 -34 125 0 116 -32 125 -106 29 l-36 -47 4 -100 3
-99 -40 -28 c-22 -15 -65 -42 -95 -59 -30 -18 -66 -42 -80 -54 -14 -13 -43
-28 -64 -35 -22 -7 -54 -21 -72 -32 -22 -13 -54 -19 -106 -21 l-73 -2 -8 110
c-14 201 9 565 43 680 49 163 88 267 124 330 54 94 79 97 168 20 76 -64 110
-80 140 -64 50 27 -10 161 -111 248 -28 24 -51 48 -51 54 0 26 154 185 270
278 93 74 130 96 196 114 33 9 82 23 109 31 28 8 113 21 190 29 238 26 414
-12 570 -122 158 -112 248 -233 318 -428 65 -180 88 -281 102 -445 6 -70 5
-73 -55 -156 -28 -40 -34 -58 -35 -98 0 -34 5 -52 16 -59 32 -20 67 2 124 78
60 79 78 91 117 76 51 -19 58 -35 58 -140 0 -161 -31 -244 -129 -346 -82 -85
-100 -139 -62 -186 18 -22 19 -23 62 -6 25 9 50 17 56 17 14 0 5 -39 -32 -138
-14 -41 -33 -95 -40 -120 -18 -65 -41 -124 -75 -198 -17 -35 -30 -69 -30 -76
0 -18 -37 -115 -65 -168 -13 -25 -38 -76 -55 -115 -17 -38 -36 -79 -42 -90 -6
-11 -16 -29 -21 -40 -19 -37 -26 -50 -75 -135 -27 -47 -53 -95 -57 -107 -9
-32 -36 -28 -73 9 -36 38 -62 95 -62 137 0 36 49 80 107 97 27 8 38 16 38 30
0 15 -15 24 -65 41 -36 12 -75 22 -88 22 -38 2 -102 39 -102 60 0 18 63 85
140 147 46 38 59 55 60 77 0 36 -30 27 -112 -36 -191 -143 -434 -223 -678
-220 -213 2 -344 47 -523 177 -44 32 -97 92 -97 110 0 2 30 7 68 11 85 8 152
28 221 65 72 40 93 38 149 -13 93 -84 160 -96 290 -48 55 21 108 32 169 36
148 10 228 32 353 93 92 46 130 72 196 134 45 42 101 86 125 98 71 36 113 101
75 116 -14 5 -146 -73 -274 -162 -35 -24 -65 -44 -66 -44 -2 0 -33 -17 -67
-38 -103 -62 -194 -94 -280 -100 -95 -6 -125 4 -254 81 -160 96 -197 110 -266
104 -46 -4 -67 -12 -98 -37 -80 -63 -310 -120 -486 -120 -119 0 -211 31 -293
97 -44 36 -72 38 -72 4 0 -39 -14 -53 -87 -87 -41 -19 -76 -34 -78 -34 -2 0
-44 -29 -92 -63 -100 -73 -229 -196 -270 -259 -15 -24 -30 -45 -34 -48 -18
-16 -91 -124 -114 -170 -15 -30 -33 -62 -39 -70 -11 -14 -20 -35 -80 -190 -35
-92 -83 -281 -95 -375 -9 -73 -23 -422 -25 -621 l-1 -80 43 -51 c23 -28 42
-56 42 -63 0 -7 -13 -36 -29 -64 -38 -67 -81 -199 -122 -369 l-32 -139 12
-126 c18 -169 71 -304 116 -289 6 3 9 48 7 128 -4 123 7 248 29 344 77 330
119 445 188 522 68 75 90 124 94 208 l2 60 128 63 c152 75 248 102 364 102 78
0 88 -2 130 -31 38 -27 44 -35 40 -58 -3 -14 -7 -34 -9 -43 -5 -31 64 -112
157 -185 100 -78 166 -115 259 -143 63 -20 253 -50 313 -50 53 0 39 -22 -35
-57 -58 -27 -88 -34 -198 -44 -111 -10 -150 -9 -271 5 l-142 17 -74 -31 c-219
-91 -455 -289 -591 -495 -91 -138 -103 -157 -122 -200 -10 -22 -34 -74 -53
-115 -45 -97 -48 -154 -9 -178 51 -31 76 -11 139 117 60 119 138 235 226 338
29 33 53 66 53 72 0 5 6 14 13 18 7 4 41 43 76 86 145 180 234 212 621 227
289 11 405 40 498 124 59 52 91 163 62 215 -11 21 -16 22 -53 15 -80 -17 -237
-9 -387 18 -163 30 -178 36 -237 95 -53 53 -71 108 -44 138 49 56 73 120 96
259 23 137 23 137 92 204 l66 62 -6 50 -6 51 72 46 c40 25 96 57 125 70 72 34
101 26 166 -46 104 -114 283 -281 303 -281 5 0 18 -9 29 -21 10 -12 48 -36 84
-55 83 -43 100 -57 100 -82 0 -20 -51 -213 -89 -336 -38 -122 -61 -259 -62
-367 -1 -165 8 -224 51 -313 41 -84 81 -121 142 -133 18 -3 35 -10 39 -14 3
-5 6 -57 7 -116 6 -254 82 -470 243 -698 119 -167 247 -286 448 -419 92 -61
138 -85 296 -156 172 -77 479 -121 680 -96 80 10 95 15 95 31 0 17 -14 22
-111 35 -338 46 -757 204 -978 368 -261 193 -444 533 -522 972 -23 125 -49
307 -49 340 0 52 -10 78 -31 83 -22 6 -25 40 -6 77 7 14 23 54 36 90 28 79
172 365 221 439 19 29 43 65 52 79 9 14 43 56 75 93 62 72 87 82 148 59 26
-10 39 -13 235 -50 176 -33 434 -22 488 21 29 22 62 25 62 5 0 -8 -4 -17 -9
-20 -14 -9 -72 -135 -87 -191 -8 -27 -14 -91 -14 -141 0 -88 1 -93 29 -123 17
-18 39 -31 53 -31 24 0 25 1 36 146 12 143 13 147 52 213 22 37 40 71 40 75 0
5 9 18 19 30 11 11 47 53 80 92 77 91 224 218 314 273 40 24 45 46 15 65 -27
17 -104 -9 -178 -59 -75 -52 -106 -56 -189 -24 -84 31 -109 47 -152 92 -43 46
-43 46 -30 66 7 11 20 10 72 -8 47 -17 97 -24 192 -28 147 -7 255 8 427 60 84
25 123 32 195 32 82 0 96 -3 154 -33 74 -38 101 -58 216 -166 47 -44 101 -91
121 -105 l36 -26 -7 -65 c-4 -36 -15 -76 -24 -90 -9 -14 -23 -38 -31 -55 -14
-28 -126 -156 -143 -164 -4 -1 -25 -18 -45 -37 -20 -18 -50 -39 -67 -45 -114
-43 -202 -82 -355 -158 -214 -107 -396 -201 -432 -225 -15 -9 -51 -29 -80 -44
-42 -22 -54 -33 -56 -55 -4 -36 45 -87 85 -88 51 -2 63 2 126 44 175 117 617
320 642 295 8 -8 -16 -169 -36 -243 -32 -112 -50 -281 -40 -370 10 -88 27
-113 79 -117 45 -4 77 -46 87 -116 3 -26 14 -72 24 -102 19 -61 -7 -42 266
-190 33 -18 71 -40 85 -50 14 -9 66 -35 116 -58 142 -63 270 -80 332 -42 40
25 98 26 133 2 14 -9 62 -50 105 -91 84 -79 124 -101 177 -101 62 0 75 44 32
109 -23 34 -26 71 -6 71 29 0 182 23 207 31 17 5 41 21 54 34 22 24 24 35 31
217 9 219 32 461 53 551 8 34 22 98 31 142 74 353 251 640 517 838 71 53 101
68 170 87 114 32 247 32 338 1 166 -57 312 -164 434 -317 30 -38 61 -76 68
-84 7 -9 23 -36 36 -60 12 -25 29 -56 37 -70 30 -54 84 -177 90 -205 4 -16 19
-64 33 -105 14 -41 29 -95 33 -120 4 -25 16 -79 27 -120 42 -156 52 -226 57
-423 8 -311 37 -397 143 -427 52 -14 87 -13 294 11 160 18 186 23 206 43 28
27 38 84 18 109 -21 28 -115 56 -223 67 -135 14 -202 30 -213 50 -5 9 -12 70
-16 136 -5 109 -14 176 -44 339 -23 122 -112 380 -180 520 -108 224 -193 349
-349 515 -129 137 -203 189 -331 237 -115 42 -173 53 -290 53 -177 0 -306 -45
-431 -150 -71 -59 -216 -207 -243 -246 -11 -18 -33 -47 -48 -65 -78 -98 -181
-326 -228 -507 -17 -64 -38 -139 -46 -167 -24 -85 -53 -280 -65 -427 -5 -77
-14 -161 -18 -185 -14 -72 -25 -78 -154 -79 -90 -2 -121 -6 -157 -22 -42 -19
-49 -20 -85 -7 -22 8 -55 14 -73 15 -39 0 -138 -48 -171 -84 -29 -31 -36 -31
-142 -10 -72 15 -134 42 -274 118 -35 19 -119 78 -166 117 -46 38 -46 39 -41
89 6 61 -10 102 -52 135 -17 14 -36 29 -42 34 -6 5 -24 16 -41 24 -42 22 -93
83 -93 111 0 12 7 45 15 72 8 27 20 105 25 174 19 248 39 328 94 388 27 30 84
60 122 64 36 4 36 -4 1 -127 -65 -232 -80 -398 -53 -578 9 -60 21 -117 26
-127 14 -25 49 -35 65 -19 16 19 42 198 56 389 11 170 34 389 44 435 12 55 36
130 62 193 29 69 50 78 66 27 18 -54 65 -105 98 -105 38 0 59 34 101 164 42
132 59 151 134 151 l59 0 36 70 c46 87 82 191 153 440 13 44 31 96 41 115 29
55 34 141 18 306 -17 180 -11 224 38 244 43 18 159 -9 277 -65 51 -25 94 -45
97 -45 2 0 40 -18 84 -39 45 -22 109 -49 143 -61 34 -12 69 -25 78 -30 22 -12
157 -49 245 -67 187 -38 327 -36 575 11 69 13 184 34 255 46 72 12 164 33 205
46 41 12 120 37 175 54 153 47 325 124 435 195 102 65 179 118 214 145 21 16
46 30 55 30 9 0 45 -27 81 -60 36 -33 67 -60 70 -60 18 -1 241 -273 307 -375
129 -196 243 -454 308 -700 66 -249 70 -268 104 -545 22 -178 46 -620 37 -683
-3 -23 -7 -131 -7 -240 -2 -181 0 -199 17 -218 22 -25 66 -49 88 -49 27 0 64
71 76 145 6 39 18 99 26 135 29 131 13 628 -30 940 -59 429 -166 770 -338
1075 -164 291 -285 440 -528 650 -60 52 -97 92 -93 99 4 6 95 100 202 208 194
196 225 237 209 280 -9 22 -281 106 -468 143 -56 12 -208 58 -255 78 -27 12
-80 41 -117 65 l-68 43 0 67 c0 37 -4 83 -10 102 -5 19 -12 68 -16 110 -4 61
-2 82 13 110 17 32 22 35 75 41 31 3 74 15 95 26 21 12 67 36 103 55 205 109
456 326 590 510 33 46 66 90 74 98 7 8 39 66 70 129 71 144 121 306 130 426 4
50 14 128 22 174 17 100 19 307 4 392 -14 77 -42 147 -82 208 -45 70 -53 73
-150 56 -119 -20 -408 -37 -583 -33 l-149 3 -7 41 c-17 98 -78 174 -227 284
-34 25 -64 55 -68 68 -18 63 21 130 137 239 41 38 53 58 68 112 11 36 22 95
26 131 10 99 38 117 88 56 25 -33 27 -41 27 -129 0 -51 -3 -97 -7 -101 -5 -4
-15 -28 -24 -54 -12 -37 -23 -51 -52 -65 -27 -12 -37 -23 -37 -41 0 -37 31
-57 101 -62 152 -12 253 -110 235 -227 -14 -87 63 -125 149 -72 58 36 107 34
137 -6 63 -84 75 -92 133 -87 43 4 64 12 94 36 22 18 42 32 46 32 3 0 28 16
56 35 54 37 59 37 147 9 93 -30 185 -14 238 43 15 15 47 69 71 118 40 82 44
96 41 150 -3 52 -9 67 -45 115 -88 116 -181 170 -295 170 -85 0 -121 15 -177
74 -41 44 -91 68 -118 58 -23 -8 -14 -26 44 -96 l57 -69 1 -121 c0 -91 -4
-133 -18 -169 -35 -97 -42 -104 -98 -112 -28 -4 -55 -3 -60 2 -10 10 8 73 21
73 14 0 48 82 55 130 8 58 -6 119 -55 234 -22 51 -40 101 -40 110 0 8 11 18
25 22 44 11 50 30 18 60 -46 43 -105 73 -189 95 -204 54 -265 59 -397 34 -105
-20 -201 -19 -260 2 -59 21 -67 14 -67 -69 0 -31 -4 -59 -10 -63 -5 -3 -91 22
-191 55 -100 34 -268 83 -373 110 -105 27 -234 60 -286 74 -92 24 -128 30
-365 61 -146 19 -337 35 -405 34 -30 0 -86 -7 -125 -15z m420 -143 c44 -4 118
-20 165 -34 47 -14 171 -51 275 -81 105 -30 222 -64 260 -76 78 -24 137 -40
275 -76 52 -13 120 -33 150 -44 89 -31 127 -35 155 -16 25 17 45 14 45 -5 0
-5 -19 -30 -42 -55 -41 -45 -44 -46 -88 -40 -187 26 -393 50 -615 72 -335 32
-433 45 -680 90 -44 9 -136 34 -205 57 l-125 43 -24 47 c-25 51 -21 65 22 89
60 32 264 45 432 29z m1839 -176 c15 -14 31 -25 36 -25 5 0 40 -16 77 -36 146
-79 203 -153 203 -265 0 -84 -14 -132 -52 -174 -30 -35 -32 -52 -13 -98 7 -16
2 -18 -46 -15 -66 4 -71 16 -37 96 19 48 23 75 23 163 l0 107 -40 58 c-56 83
-123 153 -168 175 -21 11 -35 24 -32 29 9 15 20 12 49 -15z m-1 -152 c40 -45
67 -120 67 -187 0 -62 -2 -67 -25 -76 -33 -13 -83 -2 -95 21 -6 10 -10 72 -10
138 0 120 0 121 23 121 13 0 31 -8 40 -17z m-3005 -302 c98 -34 159 -68 207
-118 40 -41 52 -64 82 -153 28 -86 34 -115 29 -159 -6 -61 -18 -81 -42 -66
-16 10 -82 110 -123 185 -18 33 -187 247 -224 284 -16 16 -13 46 4 46 5 0 35
-9 67 -19z m-513 -32 c38 -11 87 -32 109 -47 52 -33 219 -200 316 -317 41 -49
81 -96 89 -104 16 -17 112 -164 132 -202 118 -224 202 -441 229 -594 6 -38 14
-80 17 -91 3 -15 -5 -32 -27 -54 -60 -61 -33 -86 97 -89 41 -1 67 -6 77 -17
23 -22 20 -108 -5 -190 -16 -55 -31 -80 -70 -120 -72 -73 -136 -102 -252 -113
-52 -5 -104 -14 -116 -20 -26 -14 -51 -50 -51 -74 0 -23 58 -77 83 -77 10 0
32 -7 49 -16 42 -22 103 -14 152 20 21 14 47 26 56 26 10 0 24 7 31 16 7 9 34
31 60 48 56 38 140 129 200 216 l44 65 0 125 0 125 35 1 c19 1 58 13 87 27 41
21 61 41 103 104 125 187 118 183 371 203 126 10 220 2 284 -22 107 -40 230
-109 300 -165 22 -18 63 -51 90 -73 57 -47 85 -56 114 -40 25 13 28 59 7 93
-8 12 -17 37 -21 55 -10 47 14 51 110 18 44 -16 85 -32 90 -36 22 -17 264
-119 329 -139 100 -31 135 -28 175 13 26 27 32 40 29 67 -3 32 -6 35 -53 46
-27 7 -82 17 -120 23 -104 16 -100 10 -85 132 20 167 28 328 18 403 -8 65 -7
71 14 88 19 16 40 18 202 15 113 -2 233 3 321 12 178 19 399 20 417 2 10 -10
13 -67 12 -245 0 -205 -3 -242 -22 -319 -58 -227 -153 -449 -236 -551 -25 -31
-46 -61 -46 -67 0 -18 -143 -161 -205 -205 -175 -124 -450 -255 -538 -255 -31
0 -66 40 -107 123 -18 38 -52 86 -74 108 -36 37 -41 39 -52 24 -22 -30 -26
-91 -10 -148 8 -29 17 -89 18 -133 3 -65 -1 -87 -19 -125 -34 -68 -32 -78 39
-131 27 -20 49 -149 42 -237 -9 -96 -54 -225 -94 -266 -36 -38 -38 -58 -5 -90
31 -32 50 -31 121 5 74 38 98 38 119 2 9 -15 33 -39 53 -52 21 -14 39 -28 42
-31 13 -16 121 -65 180 -81 72 -20 312 -58 364 -58 19 0 36 -6 39 -13 3 -7
-10 -39 -28 -71 -23 -41 -50 -70 -91 -99 -33 -23 -104 -78 -159 -122 -104 -84
-141 -110 -315 -217 -189 -116 -415 -212 -635 -269 -99 -26 -275 -50 -293 -40
-7 4 -35 45 -62 92 -57 96 -65 147 -29 173 13 9 19 21 16 30 -5 13 -25 16
-102 16 -86 0 -96 2 -93 17 3 16 12 22 80 53 35 16 43 38 22 61 -26 28 -76 23
-146 -15 -44 -23 -68 -43 -80 -67 -29 -56 -23 -79 32 -134 39 -38 58 -50 92
-54 l43 -6 -2 -73 c-2 -77 -23 -137 -55 -156 -11 -7 -58 -6 -150 2 -169 15
-322 43 -518 94 -144 37 -178 48 -300 98 -25 11 -56 22 -70 26 -65 17 -66 54
-5 116 33 34 81 64 183 113 266 128 267 129 270 154 l4 23 -105 -3 c-58 -2
-109 0 -114 4 -13 14 20 27 72 27 177 2 305 78 213 126 -23 12 -69 20 -148 25
-101 6 -133 13 -268 57 -84 28 -164 60 -178 71 -15 12 -32 21 -39 21 -21 0
-166 100 -280 194 -102 84 -146 127 -286 280 -30 33 -72 78 -94 100 -51 52
-139 155 -143 167 -4 11 -39 12 -46 1 -14 -23 81 -262 126 -318 13 -16 35 -46
47 -67 13 -21 37 -53 52 -70 16 -17 29 -35 29 -39 0 -20 -34 -2 -135 75 -61
45 -132 95 -160 111 -27 16 -74 44 -104 64 -30 19 -99 52 -155 74 -94 36 -117
40 -336 63 -129 14 -254 25 -277 25 -48 0 -62 14 -40 38 20 24 52 89 67 137
32 109 30 318 -4 383 -11 22 -13 33 -5 38 10 6 77 -55 182 -164 68 -71 147
-119 349 -211 115 -52 331 -73 483 -48 104 17 117 22 205 78 80 50 157 115
233 194 59 62 68 81 42 91 -18 7 -18 7 -115 -51 -445 -266 -723 -258 -985 27
-149 163 -228 345 -242 559 -6 85 7 180 53 403 33 160 122 366 204 468 38 50
49 57 70 52 48 -11 81 -7 146 21 54 23 65 31 62 49 -3 19 -10 21 -75 24 -42 2
-73 7 -73 13 0 19 92 130 122 149 41 25 96 34 114 19 24 -20 17 -102 -15 -173
-41 -91 -66 -124 -181 -242 -106 -108 -173 -203 -164 -229 13 -34 150 -46 239
-21 67 18 216 83 234 101 12 11 12 17 1 29 -16 21 -76 20 -136 0 -25 -8 -49
-13 -52 -10 -3 4 14 27 39 53 47 50 48 50 115 135 48 60 94 178 94 241 0 51
-19 106 -40 117 -11 6 -30 20 -42 33 -13 12 -34 29 -48 39 -34 22 -24 31 101
78 79 30 112 48 137 75 l34 37 -22 23 c-14 15 -40 27 -66 31 -51 7 -160 -11
-221 -37 -22 -10 -43 -15 -46 -13 -2 3 -16 -1 -31 -7 -17 -8 -30 -9 -36 -3
-13 13 41 96 75 114 14 7 25 17 25 22 0 33 177 38 275 7z m-1707 -1501 c82
-20 138 -78 203 -208 44 -90 57 -122 79 -190 11 -36 35 -92 53 -125 33 -58 35
-60 91 -71 80 -16 99 -38 104 -116 3 -49 -3 -86 -27 -169 -17 -59 -34 -137
-38 -174 -11 -94 -25 -101 -92 -45 -28 24 -51 51 -51 61 0 11 14 26 32 35 33
17 88 70 88 84 0 22 -40 32 -152 39 -68 4 -135 14 -148 21 -35 18 -70 51 -70
67 0 14 1 14 71 18 98 5 117 48 34 77 -28 10 -63 25 -80 33 -48 24 -184 55
-241 55 -49 0 -54 2 -60 25 -8 32 1 55 21 55 9 0 33 9 54 20 125 63 222 74
292 31 77 -47 82 -2 7 62 -67 56 -127 87 -171 87 -43 0 -53 12 -62 75 -8 56
-19 75 -44 75 -21 0 -38 -45 -47 -124 -8 -66 -41 -116 -79 -116 -32 0 -44 19
-55 86 -7 42 -5 82 6 152 17 110 23 123 64 152 56 40 132 50 218 28z m-338
-17 c0 -10 -10 -40 -22 -67 -32 -73 -41 -127 -42 -251 -1 -101 1 -114 22 -142
31 -43 29 -61 -8 -61 -34 0 -55 19 -124 109 l-41 55 1 95 c1 67 7 105 18 126
9 17 16 36 16 42 0 18 70 93 95 103 11 5 35 9 53 9 25 1 32 -3 32 -18z m67
-671 c57 -29 100 -80 107 -127 17 -104 24 -277 15 -378 -9 -111 -17 -165 -25
-165 -13 0 -111 49 -121 61 -33 40 -51 118 -57 244 -11 219 -26 297 -67 356
-10 14 -15 30 -11 34 13 13 117 -2 159 -25z m2356 -1182 c29 -12 94 -50 145
-85 51 -35 96 -63 99 -63 4 0 23 -11 43 -25 19 -14 59 -29 89 -35 69 -13 71
-14 71 -63 0 -64 -37 -108 -128 -153 -42 -20 -94 -48 -115 -61 -21 -13 -42
-21 -46 -18 -5 2 -12 24 -15 48 -4 24 -24 77 -46 118 -122 230 -178 359 -156
359 4 0 31 -10 59 -22z m-1208 -869 c0 -56 4 -71 30 -108 58 -82 66 -103 60
-146 -4 -26 -17 -50 -37 -70 -17 -16 -37 -44 -44 -60 -7 -17 -21 -38 -31 -47
-24 -21 -109 -32 -189 -23 l-64 7 0 39 c0 22 4 47 10 57 5 9 25 60 45 112 20
52 48 122 64 155 16 33 37 82 46 108 l18 48 46 -3 45 -3 1 -66z m-2145 -256
c0 -44 21 -81 79 -141 25 -26 41 -52 41 -67 0 -35 -17 -75 -36 -82 -18 -7
-176 22 -202 37 -9 6 -33 16 -52 23 -42 14 -222 114 -248 136 -10 9 -26 21
-36 26 -38 22 -13 30 111 37 132 8 247 28 292 53 42 23 51 19 51 -22z m2600
-194 c48 -6 95 -17 109 -27 13 -9 32 -22 43 -28 40 -23 134 -129 204 -230 53
-75 126 -246 111 -260 -3 -3 -16 1 -28 10 -16 11 -27 12 -41 5 -23 -13 -23
-36 2 -99 21 -54 19 -80 -6 -59 -8 6 -14 18 -14 26 0 28 -61 154 -108 220 -95
136 -248 268 -400 345 -127 63 -140 82 -70 98 48 12 103 11 198 -1z m-4105
-548 c23 -5 38 -20 68 -69 21 -35 35 -67 32 -71 -3 -5 -29 0 -57 11 -29 11
-106 29 -170 39 l-118 19 -66 -22 c-123 -40 -289 -152 -418 -281 -43 -43 -82
-75 -86 -70 -12 12 9 111 34 161 11 24 41 61 66 83 25 22 52 46 60 53 46 41
230 115 340 137 85 17 258 22 315 10z"/>
<path d="M5584 7585 c-33 -51 3 -191 65 -249 38 -36 106 -68 156 -73 38 -5 45
-2 60 21 16 23 16 28 2 49 -13 20 -103 121 -164 185 -10 10 -31 35 -48 55 -35
44 -49 46 -71 12z"/>
<path d="M5265 6955 c-148 -13 -343 -52 -364 -71 -11 -10 -12 -18 -2 -41 l11
-28 293 0 c259 0 296 -2 324 -17 18 -10 39 -18 48 -18 31 0 122 -52 174 -100
43 -40 52 -53 49 -77 -2 -22 -12 -32 -43 -46 -101 -45 -110 -51 -110 -77 0
-20 5 -26 30 -28 55 -5 197 108 208 168 9 42 -9 137 -32 169 -103 144 -283
195 -586 166z"/>
<path d="M7255 6539 c-5 -15 -20 -68 -64 -232 -28 -105 -57 -148 -116 -173
-17 -7 -95 -16 -173 -20 -146 -7 -194 -19 -216 -56 -25 -41 93 -141 192 -163
34 -7 115 -48 144 -72 29 -25 30 -75 3 -184 -34 -138 -33 -179 5 -222 43 -50
83 -64 115 -43 14 10 30 29 36 44 6 15 18 34 28 42 32 28 76 57 99 64 12 4 39
24 58 44 34 35 39 37 96 35 47 -1 71 -8 107 -30 89 -55 194 -95 242 -91 l44 3
-2 60 c-2 61 -28 145 -83 260 -32 68 -70 162 -70 174 0 5 32 39 72 77 141 136
168 164 168 177 0 7 -13 29 -30 48 -38 47 -89 55 -231 35 -57 -8 -124 -13
-148 -11 -49 3 -72 24 -116 112 -38 73 -84 122 -122 129 -23 5 -34 2 -38 -7z
m93 -220 c15 -28 42 -71 60 -95 l33 -44 129 0 c76 0 130 -4 130 -10 0 -5 -18
-35 -40 -66 -66 -94 -65 -191 4 -336 38 -80 41 -93 27 -102 -9 -6 -83 22 -186
69 -44 21 -76 28 -121 28 -69 1 -93 -13 -155 -91 -30 -38 -64 -60 -74 -50 -2
2 1 23 6 47 20 91 -35 224 -118 281 -32 22 -45 60 -21 60 6 0 58 16 115 36
l103 37 14 51 c8 28 20 83 26 121 19 111 20 115 30 115 6 0 22 -23 38 -51z"/>
<path d="M5755 5810 c-39 -40 -41 -102 -6 -131 32 -26 111 -25 170 2 92 44
134 109 71 109 -17 0 -41 -7 -54 -15 -12 -8 -40 -16 -62 -18 -38 -2 -39 -1
-48 41 -11 51 -30 55 -71 12z"/>
<path d="M6037 5640 c-47 -41 -70 -91 -57 -124 11 -31 43 -40 128 -39 68 1 94
18 89 58 -2 17 -9 20 -57 20 -48 0 -55 2 -55 20 0 13 14 27 40 41 55 28 52 48
-7 52 -40 3 -51 -1 -81 -28z"/>
<path d="M6275 5467 c-22 -13 -52 -43 -69 -70 l-30 -48 32 -32 c28 -28 39 -32
99 -35 84 -5 157 20 181 60 15 26 15 29 0 44 -14 15 -26 15 -90 6 -46 -7 -76
-8 -82 -2 -13 13 6 32 47 46 21 7 32 17 32 30 0 29 -69 30 -120 1z"/>
<path d="M6675 5281 c-52 -9 -76 -23 -112 -65 -54 -60 -20 -117 80 -138 45
-10 67 -9 105 1 60 16 106 42 110 64 3 15 -8 17 -92 17 -52 0 -97 4 -101 9 -9
16 24 40 63 46 46 8 82 22 82 33 0 12 -56 42 -77 41 -10 -1 -36 -5 -58 -8z"/>
<path d="M6995 5043 c-52 -13 -89 -74 -75 -124 19 -66 53 -89 132 -89 47 0 67
6 108 31 78 48 65 74 -30 57 -66 -12 -100 -4 -100 22 0 13 14 27 41 40 31 16
40 26 37 43 -3 19 -10 22 -48 24 -25 0 -54 -1 -65 -4z"/>
<path d="M7289 4797 c-50 -14 -104 -49 -119 -77 -17 -32 -12 -115 8 -132 58
-50 162 -63 220 -28 66 40 50 75 -30 64 -41 -5 -48 -3 -58 16 -10 19 -9 27 7
49 24 32 78 39 123 16 36 -19 50 -13 50 21 0 34 -45 74 -84 74 -17 0 -40 2
-51 5 -11 2 -41 -2 -66 -8z"/>
<path d="M2500 6196 c-33 -14 -98 -64 -128 -96 -25 -29 -46 -85 -37 -100 11
-18 51 -10 75 15 21 22 32 25 94 25 52 0 90 -7 141 -26 122 -45 134 -49 147
-36 15 15 1 61 -25 83 -12 10 -46 38 -74 63 -29 25 -63 51 -75 57 -36 20 -91
26 -118 15z"/>
<path d="M2495 5492 c-38 -33 -65 -75 -65 -103 0 -66 43 -103 98 -83 38 13 62
53 69 113 6 49 4 55 -18 72 -30 23 -58 23 -84 1z"/>
<path d="M1593 5480 c-51 -30 -73 -149 -35 -183 59 -54 160 25 164 128 3 69
-62 96 -129 55z"/>
<path d="M2226 4934 c-9 -8 -16 -20 -16 -25 0 -23 166 -165 272 -232 112 -72
325 -111 410 -74 34 14 58 50 43 65 -3 3 -52 7 -108 8 -153 1 -194 20 -524
246 -48 32 -56 34 -77 12z"/>
<path d="M4259 2884 c-137 -114 -214 -198 -255 -280 -45 -89 -45 -135 1 -145
17 -4 38 -10 47 -14 13 -5 24 9 53 67 20 40 61 109 90 153 29 44 75 113 101
153 68 102 78 122 66 134 -6 6 -42 -18 -103 -68z"/>
<path d="M3524 2354 c-9 -21 -20 -63 -26 -93 -5 -31 -14 -72 -20 -91 -24 -91
-24 -352 1 -525 13 -89 50 -262 70 -330 10 -33 24 -80 31 -105 28 -103 45
-148 74 -210 49 -100 97 -181 112 -187 8 -3 14 -11 14 -18 0 -18 162 -180 238
-238 129 -98 210 -143 497 -277 126 -59 366 -114 575 -131 184 -16 681 -18
1025 -6 231 8 410 0 632 -30 166 -22 196 -8 101 45 -89 50 -194 80 -298 86
-52 4 -214 13 -360 22 -483 27 -777 59 -1128 119 -245 43 -611 148 -727 209
-16 9 -38 16 -47 16 -9 0 -29 10 -45 23 -15 12 -47 35 -70 51 -52 35 -167 145
-219 211 -82 103 -173 265 -224 401 -51 134 -105 347 -120 474 -6 52 -13 110
-16 129 -7 45 -14 152 -22 335 -8 161 -19 190 -48 120z"/>
<path d="M412 1983 c-104 -102 -152 -176 -166 -258 -3 -16 -15 -61 -26 -100
-26 -92 -29 -289 -4 -299 26 -10 32 0 39 66 10 95 31 161 97 298 49 103 71
137 125 191 53 54 65 73 70 107 6 46 -8 72 -37 72 -10 0 -54 -35 -98 -77z"/>
<path d="M9350 1186 c0 -34 49 -81 130 -123 76 -40 90 -44 133 -39 28 3 63 0
85 -8 49 -18 237 -11 313 10 55 16 60 16 120 -5 79 -26 103 -26 145 0 39 23
77 21 173 -12 30 -11 78 -19 107 -19 71 0 90 24 79 106 -6 47 -10 57 -33 66
-34 13 -326 4 -517 -17 -255 -27 -478 -16 -622 31 -84 27 -113 30 -113 10z"/>
<path d="M6266 793 c-4 -9 5 -38 20 -67 51 -98 65 -110 194 -169 31 -14 118
-41 215 -67 66 -17 158 -50 220 -80 97 -46 236 -178 317 -300 24 -35 58 -75
77 -87 43 -29 103 -30 142 -2 24 17 28 25 23 47 -4 15 -14 36 -23 47 -9 11
-25 38 -36 60 -22 45 -176 202 -248 254 -156 112 -257 159 -685 320 -171 64
-206 71 -216 44z"/>
</g>
</svg>
