<?xml version="1.0" standalone="no"?>
<!DOCTYPE svg PUBLIC "-//W3C//DTD SVG 20010904//EN"
 "http://www.w3.org/TR/2001/REC-SVG-20010904/DTD/svg10.dtd">
<svg version="1.0" xmlns="http://www.w3.org/2000/svg"
 width="1142.000000pt" height="945.000000pt" viewBox="0 0 1142.000000 945.000000"
 preserveAspectRatio="xMidYMid meet">
<metadata>
Created by potrace 1.14, written by Peter Selinger 2001-2017
</metadata>
<g transform="translate(0.000000,945.000000) scale(0.100000,-0.100000)"
fill="#000000" stroke="none">
<path d="M5341 9443 c-13 -3 -40 -14 -60 -25 -61 -35 -90 -40 -261 -48 -162
-7 -239 -20 -271 -47 -8 -7 -20 -13 -26 -13 -5 0 -30 -21 -54 -48 -24 -26 -53
-54 -65 -62 -11 -8 -33 -37 -49 -65 -42 -75 -74 -105 -109 -105 -25 0 -53 -24
-185 -157 -86 -87 -170 -176 -186 -198 -17 -22 -47 -59 -69 -82 -21 -23 -46
-53 -54 -65 -9 -13 -39 -51 -66 -85 -28 -34 -73 -91 -101 -128 -27 -37 -68
-88 -89 -114 -49 -57 -212 -272 -271 -357 -11 -16 -68 -93 -127 -172 -98 -132
-122 -180 -81 -165 17 7 280 266 323 318 14 17 38 48 54 70 16 22 55 69 86
105 31 36 64 74 73 85 8 11 57 70 108 130 99 118 182 220 240 294 103 133 169
222 205 275 21 33 47 70 56 84 17 26 54 51 75 52 9 0 10 -14 6 -50 -4 -36 -2
-50 6 -50 17 0 32 16 79 90 49 76 66 101 107 150 17 20 44 57 61 82 39 55 141
109 220 116 63 5 73 -11 43 -70 -36 -71 -7 -112 48 -68 31 24 53 26 53 5 0
-16 -54 -123 -71 -139 -15 -16 -11 -63 6 -70 9 -3 36 4 61 16 65 30 90 76 120
216 13 64 29 127 35 139 36 69 213 62 271 -11 29 -35 21 -58 -38 -116 -83 -82
-94 -132 -33 -145 26 -6 30 -11 26 -32 -3 -16 2 -32 14 -44 15 -15 23 -17 51
-7 49 16 65 34 105 117 19 42 41 79 47 83 19 13 90 9 137 -7 28 -10 55 -29 73
-52 25 -30 30 -47 34 -109 6 -88 -11 -124 -57 -124 -40 0 -56 -22 -43 -57 6
-16 14 -45 18 -66 12 -72 40 -79 116 -31 46 29 60 30 84 3 28 -31 23 -151 -10
-216 -43 -85 -46 -84 -100 20 -38 73 -62 105 -118 157 -39 36 -91 73 -116 83
-61 24 -194 26 -312 5 -144 -27 -170 -28 -232 -16 -82 17 -123 1 -209 -78 -76
-69 -104 -78 -148 -48 -37 26 -49 4 -60 -121 -25 -268 -41 -418 -55 -525 -8
-63 -17 -144 -20 -180 -4 -36 -13 -139 -21 -230 -22 -239 -35 -451 -36 -560 0
-79 2 -96 17 -107 15 -11 19 -11 25 -1 22 41 72 303 89 472 6 61 13 113 15
117 3 3 11 141 19 305 25 488 27 522 39 536 38 45 92 72 146 73 45 2 77 12
161 54 88 44 111 51 140 46 43 -8 99 -8 165 0 48 6 52 5 95 -35 25 -23 68 -53
96 -66 44 -21 56 -33 79 -79 34 -71 44 -154 20 -178 -9 -9 -28 -17 -41 -17
-43 0 -94 -27 -94 -50 0 -29 40 -41 105 -34 62 8 79 -8 51 -48 -22 -31 -20
-82 5 -153 25 -72 22 -135 -14 -240 -36 -105 -66 -154 -127 -215 -74 -72 -77
-74 -167 -119 -140 -70 -300 -76 -379 -16 -34 26 -64 28 -64 5 0 -19 72 -99
113 -126 92 -61 326 -62 439 -3 13 6 51 42 86 78 48 50 76 92 116 176 68 139
80 195 82 378 2 140 13 207 35 207 5 0 20 17 34 38 29 43 25 71 -14 106 -51
46 -15 100 105 160 76 38 108 65 137 112 9 16 33 53 52 83 43 68 55 143 31
204 -9 23 -39 69 -68 102 -94 110 -101 126 -106 228 -5 113 -23 151 -95 208
-71 57 -122 79 -185 79 -38 0 -61 6 -79 20 -14 11 -31 20 -38 20 -6 0 -28 17
-47 38 -77 81 -151 117 -217 105z"/>
<path d="M4431 8483 c-21 -42 -70 -247 -90 -373 -4 -25 -12 -55 -19 -66 -18
-33 -89 -274 -122 -414 -64 -271 -79 -363 -87 -537 -5 -115 -4 -133 9 -133 20
0 46 76 88 255 18 77 43 172 56 210 12 39 27 88 32 110 6 22 21 83 35 135 41
160 94 390 111 485 23 127 44 320 38 350 -7 38 -26 30 -51 -22z"/>
<path d="M4169 8333 c-14 -16 -41 -53 -60 -83 -20 -30 -66 -102 -104 -160 -37
-58 -76 -117 -86 -132 -11 -15 -19 -30 -19 -34 0 -3 -16 -28 -35 -54 -19 -26
-35 -53 -35 -59 0 -6 -4 -11 -8 -11 -5 0 -19 -19 -32 -42 -19 -36 -69 -109
-210 -314 -106 -153 -145 -223 -155 -277 -11 -57 18 -48 62 21 21 31 67 95
104 142 122 159 171 233 410 615 20 33 70 125 111 205 102 199 118 250 57 183z"/>
<path d="M8970 8270 c-78 -10 -198 -41 -264 -70 -26 -11 -53 -20 -59 -20 -20
0 -218 -103 -292 -152 -73 -48 -99 -71 -200 -179 -70 -75 -167 -151 -210 -165
-29 -10 -30 -12 -27 -62 3 -43 -2 -62 -26 -105 -44 -80 -98 -211 -130 -322
-62 -212 -85 -405 -84 -702 1 -254 7 -240 -87 -206 -50 17 -78 14 -87 -12 -15
-37 115 -116 221 -136 67 -12 303 2 435 27 66 13 79 19 110 53 43 48 68 61
115 61 53 0 95 -23 190 -106 46 -41 110 -87 142 -103 53 -27 67 -30 173 -31
179 -3 224 11 318 95 43 39 50 50 40 62 -7 9 -20 12 -32 8 -132 -39 -193 -43
-377 -25 -112 11 -122 14 -246 71 -88 41 -113 69 -113 129 0 18 -6 33 -15 36
-18 7 -106 -33 -174 -80 -65 -44 -107 -48 -121 -10 -21 53 -9 95 50 184 73
110 86 160 41 160 -22 0 -141 -106 -192 -171 -23 -30 -33 -58 -46 -129 -14
-79 -20 -93 -40 -101 -28 -10 -68 3 -77 26 -10 27 -7 331 5 445 10 98 26 171
84 375 30 106 131 312 157 321 11 3 33 0 49 -6 44 -19 59 -8 59 43 0 24 -7 52
-15 63 -8 10 -15 34 -15 53 0 33 6 42 130 184 34 40 206 188 244 211 74 45
144 80 210 104 66 25 82 27 221 26 133 -1 164 -5 280 -33 167 -42 292 -102
400 -193 172 -144 266 -285 325 -488 40 -139 51 -228 51 -417 0 -140 -4 -189
-25 -295 -53 -263 -45 -246 -170 -372 -134 -136 -156 -160 -188 -212 -14 -21
-33 -46 -42 -53 -10 -8 -24 -28 -32 -45 -23 -47 -45 -85 -89 -151 -57 -85
-110 -187 -298 -573 -28 -56 -56 -107 -62 -112 -22 -18 -75 53 -75 99 0 41 36
101 85 139 42 34 85 93 85 119 0 38 -26 39 -70 2 -68 -59 -92 -74 -210 -132
-162 -80 -247 -101 -379 -94 -90 5 -112 10 -164 37 -225 115 -377 277 -400
426 -9 53 8 69 60 59 27 -5 52 -21 88 -58 65 -67 87 -84 154 -117 90 -45 127
-52 246 -47 142 5 250 43 395 140 48 33 182 163 243 238 64 79 43 107 -32 43
-23 -20 -60 -46 -81 -58 -21 -12 -65 -38 -97 -59 -213 -138 -327 -183 -514
-202 -108 -11 -132 3 -245 153 -61 80 -103 112 -149 112 -17 0 -86 -12 -155
-26 -150 -31 -221 -28 -313 13 -81 35 -118 60 -183 123 -52 50 -84 60 -84 27
0 -27 55 -115 102 -165 69 -73 85 -82 149 -82 40 0 70 -7 105 -25 27 -14 54
-25 60 -25 16 0 133 -130 154 -170 10 -20 26 -42 35 -50 9 -7 37 -45 62 -84
47 -75 127 -158 203 -211 l45 -32 -1 -64 c0 -35 -8 -200 -17 -366 -17 -298
-42 -497 -72 -579 -11 -30 -65 -91 -198 -225 -330 -332 -362 -358 -632 -502
-128 -68 -337 -109 -535 -105 -132 3 -135 3 -138 -19 -5 -37 34 -98 101 -157
35 -31 69 -56 75 -56 5 0 12 -7 16 -15 3 -8 10 -15 17 -15 15 0 69 -39 69 -50
0 -34 -541 -246 -607 -238 -36 4 -39 17 -58 277 -9 119 -20 263 -25 321 -5 58
-14 173 -20 255 -5 83 -14 197 -19 255 -6 58 -15 173 -21 255 -10 133 -21 277
-35 445 -3 30 -12 145 -21 255 l-16 200 43 35 c79 65 260 254 306 320 90 128
168 334 179 470 2 36 9 108 15 160 13 112 4 187 -39 340 -42 147 -69 219 -97
260 -13 19 -29 47 -36 63 -7 15 -16 27 -21 27 -5 0 -12 10 -17 23 -15 38 -175
208 -256 272 -27 21 -54 44 -60 50 -5 6 -28 19 -50 29 -22 10 -47 24 -55 31
-24 20 -190 74 -250 81 -45 5 -58 3 -69 -10 -21 -25 9 -60 76 -86 71 -28 140
-79 251 -185 164 -157 225 -281 294 -600 42 -195 50 -442 19 -590 -25 -122
-87 -279 -129 -331 -18 -21 -32 -44 -32 -50 0 -22 -133 -134 -259 -216 -54
-36 -268 -126 -326 -136 -33 -7 -92 -15 -132 -18 -70 -7 -103 -17 -91 -29 3
-3 44 -13 89 -21 93 -17 154 -13 257 17 92 26 243 37 259 18 22 -27 82 -593
113 -1069 5 -80 19 -278 30 -440 11 -162 25 -360 30 -440 6 -80 15 -194 22
-253 12 -108 12 -109 47 -135 20 -15 41 -31 47 -37 13 -11 162 -107 289 -186
97 -60 237 -105 350 -113 84 -6 245 12 370 40 64 15 293 115 305 133 3 4 16
14 30 21 14 7 63 38 110 69 89 58 94 61 175 105 57 32 157 66 190 66 12 0 28
7 36 16 11 14 0 28 -83 107 -95 92 -172 159 -214 187 -42 28 -209 159 -246
192 -20 18 -48 41 -63 51 -17 12 -25 26 -23 40 6 39 121 97 155 79 8 -5 69
-62 136 -128 176 -173 345 -317 470 -403 27 -18 51 -39 53 -46 3 -7 -15 -64
-39 -127 -150 -380 -268 -797 -313 -1103 -31 -212 -64 -560 -64 -672 0 -44 -5
-76 -15 -89 -36 -53 -41 -186 -8 -220 11 -11 32 -14 71 -12 54 3 57 5 78 41
18 33 22 60 27 190 4 106 10 166 22 197 22 59 31 107 50 270 22 186 43 332 60
415 8 39 28 138 44 220 45 225 124 497 178 614 14 31 48 112 75 181 28 69 54
130 58 135 8 11 59 102 93 170 11 22 30 53 41 70 12 16 26 37 31 47 6 10 29
45 53 78 23 33 42 63 42 65 0 29 261 327 275 313 3 -3 8 -28 10 -54 13 -144
19 -178 51 -289 8 -27 23 -81 33 -120 55 -205 166 -415 290 -550 102 -111 234
-226 316 -275 22 -13 52 -33 66 -45 71 -58 335 -160 482 -185 48 -9 67 -17 67
-27 0 -21 -23 -97 -31 -103 -12 -10 -49 -156 -59 -240 -6 -47 -19 -110 -30
-139 -53 -147 -51 -234 22 -886 13 -110 23 -236 23 -280 l0 -80 -73 -7 c-88
-9 -110 -20 -128 -63 -28 -68 -22 -80 54 -104 89 -28 210 -37 284 -22 47 10
62 19 86 49 16 20 31 44 34 53 3 8 -3 64 -13 125 -29 170 -66 468 -73 589 -12
199 -7 506 10 710 18 226 18 225 37 225 14 0 30 -31 63 -123 20 -56 65 -102
148 -152 49 -29 68 -35 117 -35 75 0 105 12 154 63 94 97 140 178 191 332 28
88 29 95 29 300 0 202 -5 258 -40 440 -19 99 -30 122 -67 141 -27 14 -41 15
-97 6 -68 -11 -457 -27 -666 -27 l-120 0 -3 33 c-2 22 7 55 27 97 l31 63 117
6 c65 4 188 11 273 17 85 5 246 13 358 18 264 10 243 -8 281 241 6 36 18 169
27 295 24 317 12 598 -51 1175 -8 80 -20 170 -25 200 -5 30 -19 120 -30 200
-10 80 -40 266 -65 414 l-45 269 -62 111 c-103 185 -180 278 -308 373 -140
102 -239 136 -405 137 -102 1 -114 -1 -160 -26 -27 -16 -62 -28 -77 -28 -25 0
-28 4 -28 34 0 33 25 134 69 281 12 40 21 97 21 135 0 104 -27 328 -50 415
-12 44 -25 96 -30 115 -14 56 -66 175 -94 217 -14 20 -26 41 -26 45 0 7 -65
106 -100 153 -65 86 -278 244 -380 281 -36 13 -73 29 -83 35 -10 5 -66 19
-125 29 -110 21 -259 24 -382 10z m112 -3122 c19 -36 23 -58 23 -138 0 -104
-25 -207 -52 -217 -30 -12 -66 11 -91 57 -19 36 -23 55 -19 97 3 28 12 67 21
85 8 18 22 51 31 73 20 50 43 85 55 85 5 0 20 -19 32 -42z m-1585 -1830 c56
-20 105 -63 137 -118 33 -59 88 -115 150 -155 58 -37 146 -127 146 -149 0 -16
-31 -41 -95 -75 -22 -12 -60 -35 -85 -51 -127 -82 -175 -103 -290 -127 -153
-32 -169 -28 -97 20 54 35 69 58 47 72 -6 4 -61 -1 -123 -9 -116 -17 -311 -36
-359 -36 -65 0 -5 36 110 66 66 18 149 59 185 92 30 29 36 67 11 76 -19 7 -91
-11 -118 -30 -11 -8 -30 -14 -41 -14 -11 0 -58 -14 -105 -31 -47 -17 -103 -34
-125 -39 -22 -4 -82 -18 -134 -29 -114 -26 -149 -19 -76 15 28 12 56 23 64 23
17 1 293 136 346 170 22 14 47 32 55 42 23 26 55 29 154 14 85 -13 155 -9 184
9 40 24 -44 132 -113 146 -22 5 -58 13 -80 18 -22 6 -76 18 -120 27 -106 23
-155 43 -135 55 8 5 42 10 75 10 33 1 98 7 145 15 101 17 229 14 287 -7z
m3625 -520 c34 -26 48 -296 27 -500 -13 -131 -18 -153 -29 -142 -5 5 -5 62 2
139 19 234 -4 355 -67 355 -21 0 -27 -8 -40 -52 -27 -91 -44 -198 -60 -362
-13 -150 -24 -193 -39 -167 -4 6 -11 60 -16 121 -14 158 -37 300 -55 343 -17
41 -51 50 -76 20 -16 -19 -19 -204 -6 -396 14 -209 -30 -123 -92 179 -9 48
-53 375 -55 419 -1 23 34 27 324 43 85 5 158 10 161 11 3 0 12 -5 21 -11z"/>
<path d="M5184 8250 c-30 -12 -45 -64 -35 -118 5 -24 13 -48 19 -54 30 -30 92
42 92 106 0 68 -23 88 -76 66z"/>
<path d="M1620 7933 c-53 -4 -223 -40 -262 -55 -15 -5 -30 -18 -32 -27 -3 -9
-12 -95 -21 -191 -33 -358 -63 -535 -134 -790 -7 -26 -38 -45 -121 -76 -108
-41 -168 -70 -210 -103 -79 -62 -136 -126 -165 -185 -25 -52 -27 -63 -23 -153
3 -85 8 -107 36 -165 31 -66 98 -144 172 -200 l34 -27 -13 -48 c-21 -72 -24
-116 -12 -173 15 -69 58 -132 194 -283 115 -127 151 -186 157 -257 4 -44 1
-50 -30 -50 -135 0 -485 -73 -555 -116 -11 -6 -31 -15 -45 -19 -46 -14 -102
-69 -189 -185 -111 -148 -120 -163 -187 -300 -56 -114 -65 -141 -104 -333 -39
-193 -29 -489 26 -722 84 -355 289 -784 484 -1015 93 -110 150 -190 150 -210
0 -12 -25 -59 -56 -106 -30 -47 -58 -93 -62 -102 -4 -10 -19 -38 -35 -63 -42
-70 -114 -252 -132 -332 -8 -40 -24 -106 -35 -147 -26 -99 -43 -301 -35 -425
3 -55 18 -161 32 -235 21 -107 35 -149 65 -205 46 -83 86 -170 94 -202 8 -32
-1 -30 -141 23 -66 25 -140 52 -164 60 -24 8 -49 18 -55 23 -15 12 -126 51
-146 51 -18 0 -71 -53 -90 -89 -7 -13 -9 -37 -6 -56 6 -28 18 -40 79 -78 210
-129 356 -174 592 -184 97 -3 181 0 274 11 146 17 181 33 222 100 58 95 -15
129 -244 113 -157 -11 -225 -3 -232 26 -12 57 -25 339 -25 558 0 316 8 413 61
689 27 139 116 344 216 494 29 44 54 85 57 90 2 8 7 8 15 0 9 -8 8 -21 -4 -53
-22 -65 -37 -166 -36 -258 0 -67 5 -91 25 -130 52 -104 137 -104 295 1 126 84
161 101 251 119 238 49 239 50 361 115 199 108 337 254 420 446 32 74 41 75
143 12 78 -49 114 -61 149 -52 27 6 78 78 150 211 15 28 39 68 52 90 14 22 32
55 40 74 8 19 31 56 50 82 19 27 35 52 35 57 0 17 53 62 73 62 13 0 50 -20 83
-45 32 -25 84 -62 114 -84 53 -37 167 -141 307 -281 36 -36 100 -108 141 -160
42 -52 80 -99 86 -105 22 -20 74 -91 101 -140 16 -27 46 -72 67 -99 21 -27 38
-53 38 -57 0 -5 18 -38 39 -74 22 -36 43 -75 47 -87 3 -13 28 -68 54 -123 26
-55 67 -156 90 -225 23 -69 45 -129 50 -135 7 -9 56 -200 80 -315 27 -125 48
-320 41 -386 -1 -11 -56 -20 -295 -49 -141 -17 -162 -24 -176 -61 -18 -46 5
-64 110 -84 75 -15 315 -3 415 20 44 10 131 30 194 44 77 18 125 34 147 51 18
14 38 25 44 25 19 0 104 47 123 68 28 30 26 86 -3 117 -32 34 -100 35 -161 0
-24 -13 -60 -32 -79 -41 -19 -10 -42 -23 -50 -30 -9 -7 -36 -14 -60 -16 l-45
-3 -7 55 c-3 30 -6 89 -7 130 -2 161 -63 453 -146 705 -47 141 -110 277 -209
450 -77 136 -201 300 -316 419 -104 108 -155 145 -273 201 -93 44 -142 84
-157 131 -12 36 -12 36 25 614 8 124 19 299 25 390 5 91 12 183 16 205 3 22 9
103 14 180 5 77 16 208 25 290 23 210 17 298 -28 409 -54 131 -132 230 -219
276 -31 17 -236 50 -305 50 -25 0 -24 47 4 126 27 76 28 86 27 259 0 143 -5
204 -23 295 -12 63 -26 140 -31 170 -5 30 -16 91 -24 135 -29 159 -30 181 -8
203 12 12 41 23 69 27 150 20 298 84 266 116 -14 14 -117 7 -215 -14 -71 -15
-144 -9 -158 13 -19 30 -18 228 1 379 10 84 21 156 23 160 10 15 37 245 39
325 l2 90 -85 53 c-76 47 -262 143 -393 203 -65 30 -229 76 -372 105 -99 21
-146 24 -270 23 -82 -1 -170 -3 -195 -5z m560 -220 c8 -2 60 -13 115 -23 106
-20 274 -81 365 -132 30 -17 80 -45 110 -61 30 -17 59 -35 63 -41 11 -16 0
-78 -32 -186 -16 -52 -35 -121 -42 -152 -8 -32 -17 -58 -20 -58 -17 0 -17 42
2 197 l21 167 -27 24 c-15 13 -37 22 -49 20 -31 -5 -41 -28 -101 -253 -13 -49
-29 -106 -35 -125 -5 -19 -15 -73 -20 -120 -13 -104 6 -237 42 -302 19 -36 29
-44 57 -46 46 -5 69 20 77 80 10 72 26 44 22 -38 l-3 -69 -50 -7 c-99 -15
-391 -1 -560 26 -275 45 -365 73 -291 92 14 3 32 14 41 24 16 18 16 20 -15 38
l-32 20 28 14 c42 20 41 41 -3 62 -37 18 -37 19 -15 29 32 14 27 41 -12 74
-33 26 -35 31 -29 74 5 41 9 48 40 60 19 7 52 33 74 57 32 34 40 49 37 75 -3
30 -1 32 44 42 58 13 66 20 44 43 -9 11 -26 57 -38 103 -11 46 -30 94 -41 107
l-20 22 20 23 c44 48 32 112 -24 119 -42 5 -39 26 4 31 44 5 231 -2 253 -10z
m-250 -1223 c359 -55 493 -70 643 -73 114 -2 161 -7 166 -16 5 -7 17 -67 27
-134 15 -98 19 -174 18 -382 0 -242 -2 -268 -27 -385 -65 -304 -183 -566 -298
-657 -83 -66 -272 -112 -403 -98 -44 5 -91 19 -138 42 -100 47 -155 31 -93
-27 82 -77 -59 -28 -164 57 -57 47 -191 213 -191 237 0 7 -12 31 -26 52 -38
56 -63 134 -80 248 -18 130 -36 155 -136 186 -62 20 -81 32 -129 82 -67 68
-89 111 -89 168 0 61 14 80 59 80 27 0 55 -11 101 -41 91 -59 102 -54 117 51
7 47 17 141 23 210 5 69 14 141 20 160 37 138 47 156 114 229 l41 43 155 -6
c85 -3 216 -15 290 -26z m461 -1870 c-26 -109 -37 -135 -58 -138 -47 -7 -92
73 -65 115 24 37 132 57 123 23z m-343 -162 c7 -7 12 -39 12 -73 0 -47 -6 -74
-28 -115 -15 -30 -34 -55 -42 -55 -42 0 -60 145 -25 200 34 52 60 66 83 43z
m-826 -664 c18 -22 44 -56 58 -74 23 -31 78 -98 90 -110 16 -15 90 -122 113
-162 34 -59 34 -72 -2 -95 -15 -10 -68 -44 -116 -77 -83 -56 -90 -58 -139 -54
-28 3 -76 16 -106 31 -30 14 -68 30 -85 35 -38 11 -41 30 -16 83 28 58 35 100
19 121 -7 9 -41 31 -75 48 -35 17 -63 35 -63 40 0 5 32 31 71 57 72 48 168
139 169 158 0 19 32 57 40 48 5 -4 23 -26 42 -49z m755 -998 c4 -8 58 -39 118
-69 129 -64 150 -83 149 -138 -3 -84 -163 -265 -294 -332 -113 -57 -129 -62
-383 -119 -78 -18 -78 2 0 60 85 63 106 85 101 109 -8 38 -171 1 -245 -56 -32
-25 -133 -91 -139 -91 -2 0 -4 5 -4 11 0 14 44 71 163 211 55 64 66 82 56 94
-26 32 -105 0 -193 -78 -102 -90 -89 -40 19 77 35 39 70 84 77 100 17 41 33
51 103 65 33 6 76 15 96 21 20 5 45 9 56 9 39 0 147 51 200 95 57 47 104 59
120 31z m-682 -196 c3 -5 -12 -20 -34 -34 -21 -14 -41 -29 -42 -33 -2 -5 -31
-28 -63 -51 -78 -55 -117 -56 -204 -5 -34 20 -61 42 -59 47 2 6 23 10 47 8 39
-3 158 19 205 38 11 4 40 13 65 20 25 7 50 14 55 15 18 6 24 5 30 -5z"/>
<path d="M1968 6317 c-78 -60 -128 -164 -128 -268 0 -70 15 -112 60 -162 44
-50 110 -51 110 -1 0 17 -10 29 -38 43 -59 30 -65 43 -60 116 4 44 14 78 31
107 38 65 58 81 123 101 78 25 88 31 93 52 5 29 -27 45 -90 45 -50 0 -63 -5
-101 -33z"/>
<path d="M2465 6066 c-57 -26 -74 -43 -77 -77 -3 -20 4 -26 40 -38 25 -9 42
-22 42 -31 0 -8 -27 -31 -60 -50 -34 -20 -70 -50 -82 -69 -21 -33 -21 -34 -3
-47 10 -8 24 -14 31 -14 7 0 66 27 131 60 95 49 125 69 155 107 36 45 60 124
44 141 -15 15 -103 42 -136 42 -19 0 -57 -11 -85 -24z"/>
<path d="M2239 5476 c-119 -42 -178 -78 -242 -146 -33 -36 -68 -83 -78 -105
-23 -50 -25 -137 -3 -156 24 -20 110 -12 209 21 50 16 101 31 115 34 80 16
192 145 150 171 -6 4 -45 -11 -88 -33 -123 -64 -222 -85 -222 -49 0 6 36 45
80 88 61 59 99 87 160 116 44 21 80 43 80 49 0 13 -51 34 -79 34 -9 0 -46 -11
-82 -24z"/>
<path d="M8855 7686 c-93 -46 -235 -160 -275 -221 -24 -36 -27 -131 -6 -160
12 -17 17 -17 46 -5 55 23 125 85 183 162 60 79 98 103 202 127 63 15 99 41
103 74 5 37 -46 67 -113 67 -39 0 -70 -10 -140 -44z"/>
<path d="M5344 7643 c-44 -28 -124 -137 -124 -170 0 -35 32 -64 76 -70 37 -5
46 -2 80 30 37 33 39 39 37 89 -1 43 3 59 24 86 13 18 22 40 19 47 -8 23 -66
17 -112 -12z"/>
<path d="M8007 6972 c-12 -13 -17 -37 -17 -84 0 -72 5 -78 65 -78 74 0 89 96
24 161 -24 24 -51 24 -72 1z"/>
<path d="M8671 6964 c-31 -40 -29 -118 3 -139 46 -30 106 25 106 97 0 66 -69
92 -109 42z"/>
<path d="M9744 6953 c-99 -74 -139 -132 -111 -160 13 -13 19 -12 53 10 119 75
162 35 151 -141 -4 -70 -11 -95 -44 -165 -22 -45 -54 -97 -72 -116 -34 -36
-37 -64 -8 -69 41 -8 231 227 259 321 7 23 13 87 13 143 0 95 -1 102 -29 138
-30 41 -94 75 -137 76 -15 0 -47 -16 -75 -37z"/>
<path d="M4463 6768 c-34 -7 -47 -18 -79 -63 -54 -79 -91 -84 -217 -26 -159
72 -169 70 -352 -68 -25 -19 -64 -61 -86 -95 -36 -54 -40 -65 -35 -103 20
-145 22 -130 -22 -171 -21 -20 -58 -53 -81 -72 -37 -30 -45 -45 -63 -110 -45
-169 -21 -279 88 -401 24 -27 44 -54 44 -60 0 -6 -11 -25 -24 -42 -37 -49 -56
-129 -56 -231 0 -111 11 -154 55 -215 38 -52 73 -78 158 -116 55 -26 61 -26
120 -15 98 19 129 6 224 -93 104 -110 127 -124 230 -147 153 -34 300 -22 379
32 21 14 44 44 60 78 15 30 33 63 42 73 27 30 125 93 167 107 67 21 181 81
209 109 26 26 79 95 104 135 13 21 13 29 -4 217 -6 71 -4 80 20 121 51 88 29
209 -54 285 l-41 38 41 35 c27 23 44 47 49 70 13 59 -3 93 -71 152 -122 104
-140 139 -121 223 11 50 -5 107 -39 135 -33 27 -101 38 -199 33 -103 -6 -131
7 -160 74 -16 37 -27 47 -87 76 -77 38 -137 49 -199 35z m141 -204 c11 -11 16
-35 16 -77 0 -136 15 -141 208 -73 81 29 118 32 156 14 42 -18 41 -41 -3 -116
-43 -72 -51 -111 -26 -132 9 -7 53 -13 112 -15 108 -2 150 -16 159 -52 12 -47
-4 -71 -79 -120 -39 -25 -80 -56 -89 -67 -37 -45 -13 -86 49 -86 45 0 136 -37
161 -65 32 -37 30 -88 -5 -115 -16 -12 -36 -19 -48 -16 -11 2 -41 8 -66 11
-45 7 -47 6 -68 -29 -32 -52 -22 -88 37 -128 109 -73 124 -107 75 -169 -38
-49 -136 -131 -180 -151 -65 -30 -85 -24 -129 34 -69 92 -180 147 -213 106
-61 -75 -63 -79 -59 -116 3 -20 18 -62 33 -92 14 -30 29 -80 32 -110 4 -49 2
-58 -18 -77 -13 -12 -53 -31 -89 -43 -53 -18 -77 -21 -135 -15 -105 10 -245
81 -245 125 0 10 20 49 45 87 49 75 50 78 33 137 -15 55 -22 62 -73 79 -62 22
-125 7 -165 -39 -35 -40 -39 -70 -9 -79 27 -9 20 -27 -22 -47 -48 -25 -106
-22 -167 8 -153 76 -150 174 12 417 43 65 76 126 76 139 0 34 -34 48 -143 59
-93 9 -140 27 -157 58 -14 26 -13 130 2 172 6 19 28 61 48 94 40 67 48 69 132
42 l48 -16 14 26 c7 15 28 31 47 37 26 8 35 17 37 38 3 22 -8 39 -52 83 -49
48 -56 60 -56 94 0 32 6 44 35 69 49 44 120 73 195 79 l65 5 38 -41 c21 -22
50 -44 64 -47 37 -10 102 10 155 45 84 56 148 87 185 90 6 1 19 -6 27 -15z"/>
<path d="M4853 6333 c-7 -2 -15 -19 -18 -36 -13 -64 -43 -79 -135 -64 -93 15
-150 -32 -150 -125 0 -51 28 -121 53 -131 8 -3 47 19 87 49 40 30 77 54 81 54
13 0 94 72 110 99 44 69 24 175 -28 154z"/>
<path d="M4099 6187 c-68 -63 -83 -89 -75 -132 8 -39 66 -95 99 -95 31 0 74
31 103 73 18 27 24 49 24 87 0 46 -4 56 -34 86 -19 19 -40 34 -47 34 -8 0 -39
-24 -70 -53z"/>
<path d="M4474 5855 c-48 -21 -81 -87 -76 -152 2 -33 11 -59 24 -72 17 -19 26
-21 81 -15 70 7 91 21 108 71 15 47 7 101 -22 146 -27 41 -58 47 -115 22z"/>
<path d="M4811 5652 c-68 -46 -85 -87 -76 -181 3 -34 10 -72 16 -83 14 -26 68
-48 120 -48 36 0 48 6 84 43 27 27 48 61 59 95 16 50 16 57 1 103 -20 59 -75
109 -120 109 -18 0 -52 -16 -84 -38z"/>
<path d="M4198 5631 c-6 -2 -26 -19 -45 -37 -29 -30 -33 -39 -33 -88 0 -47 4
-57 26 -75 14 -11 45 -23 69 -26 77 -12 115 27 118 123 2 76 -15 99 -79 104
-24 2 -49 1 -56 -1z"/>
<path d="M4401 5429 c-23 -9 -24 -12 -17 -77 3 -37 6 -81 6 -99 0 -50 22 -64
93 -59 34 2 63 5 64 5 1 1 7 18 12 39 17 60 13 133 -9 170 -18 30 -23 32 -72
31 -29 0 -64 -5 -77 -10z"/>
<path d="M5477 6732 c-21 -23 -22 -103 -3 -140 8 -15 47 -58 86 -97 138 -134
148 -159 110 -290 -32 -113 -23 -193 29 -239 24 -21 85 -26 168 -13 46 8 54 6
60 -8 4 -11 0 -21 -9 -26 -45 -25 -113 -92 -128 -127 -10 -21 -25 -42 -35 -45
-9 -4 -59 -7 -111 -7 -111 0 -156 -15 -179 -59 -23 -46 -7 -71 48 -71 62 0
368 20 396 26 20 4 22 9 16 32 -26 107 -16 132 63 156 64 20 147 69 156 92 3
9 6 33 6 54 0 54 -57 115 -115 124 -22 4 -73 14 -113 22 -72 16 -74 17 -67 43
14 56 17 150 5 185 -17 53 -80 141 -174 241 -46 50 -98 107 -116 128 -36 41
-67 48 -93 19z"/>
<path d="M3895 4860 c-18 -20 -44 -121 -45 -173 0 -30 -29 -163 -65 -302 -69
-264 -108 -466 -92 -482 11 -10 28 11 37 48 5 19 20 70 34 114 27 85 91 298
130 430 26 88 42 174 52 276 9 102 -10 135 -51 89z"/>
<path d="M5023 4808 c-6 -7 -13 -116 -16 -243 -3 -126 -11 -279 -17 -340 -11
-108 -15 -146 -44 -395 -49 -407 -66 -631 -66 -862 0 -159 2 -188 15 -188 26
0 35 36 35 137 0 111 15 333 30 438 5 39 23 176 40 305 17 129 37 280 45 335
23 167 30 289 30 553 0 214 -2 254 -15 262 -20 13 -26 12 -37 -2z"/>
<path d="M4352 4568 c-7 -18 -20 -69 -28 -113 -9 -44 -22 -114 -30 -155 -8
-41 -23 -133 -34 -205 -11 -71 -27 -168 -35 -215 -21 -125 -53 -364 -60 -450
-4 -41 -15 -145 -25 -230 -30 -252 -33 -310 -14 -317 36 -13 53 37 99 292 8
44 22 112 30 150 9 39 20 97 25 130 5 33 18 119 29 190 25 165 38 296 51 515
6 97 20 218 31 271 15 69 18 106 12 130 -12 45 -35 48 -51 7z"/>
<path d="M5793 4275 c-11 -26 -10 -917 0 -1200 5 -121 12 -366 16 -545 4 -179
10 -331 15 -338 22 -36 58 5 50 59 -18 120 -32 561 -33 1024 -1 532 -15 976
-31 1005 -7 13 -10 12 -17 -5z"/>
<path d="M5996 3074 c-3 -9 -6 -172 -6 -362 0 -346 10 -610 29 -752 23 -172
31 -267 25 -284 -6 -17 -14 -18 -88 -10 -234 25 -401 -6 -806 -153 -149 -54
-274 -82 -415 -94 -93 -7 -135 -15 -147 -26 -17 -15 -17 -17 -2 -35 10 -10 41
-29 70 -43 46 -22 66 -25 162 -25 119 0 158 9 405 91 181 60 263 73 360 59 82
-12 167 -42 167 -59 0 -22 -60 -24 -193 -7 -109 14 -145 15 -172 6 -39 -13
-58 -39 -48 -65 8 -23 109 -67 214 -95 105 -28 322 -39 372 -20 65 26 107 82
107 143 0 41 -52 123 -92 146 -33 18 -33 45 -1 49 13 2 52 -6 87 -19 69 -23
103 -21 132 8 14 15 16 30 10 113 -3 52 -13 145 -21 205 -8 61 -18 162 -22
226 -6 114 -5 116 18 132 17 13 46 17 111 17 52 0 90 4 94 11 3 6 8 56 11 112
4 111 -11 193 -40 211 -25 16 -35 -1 -41 -74 -19 -212 -18 -210 -104 -192 -31
6 -60 16 -66 22 -10 10 -22 96 -31 230 -12 165 -43 496 -50 528 -6 26 -20 29
-29 6z"/>
<path d="M9192 2944 c-15 -7 -107 -197 -152 -314 -18 -47 -44 -112 -57 -145
-47 -114 -110 -380 -138 -580 -37 -273 -38 -373 -6 -590 10 -63 23 -161 42
-310 15 -121 51 -267 83 -339 34 -76 98 -171 148 -218 41 -39 53 -45 62 -29 6
9 -21 287 -29 300 -2 4 -5 25 -6 47 -1 53 -17 212 -29 304 -6 41 -17 191 -25
334 -24 423 1 739 86 1071 16 61 35 135 44 165 28 100 44 194 42 250 -2 51 -4
55 -27 57 -14 1 -31 -1 -38 -3z"/>
<path d="M2413 2049 c-23 -4 -52 -13 -65 -20 -41 -22 -221 -185 -299 -271 -73
-81 -199 -250 -199 -267 0 -5 -6 -14 -14 -20 -8 -7 -17 -24 -21 -38 -3 -15
-14 -38 -24 -52 -28 -41 -82 -179 -102 -261 -10 -41 -25 -165 -34 -275 -12
-163 -43 -390 -61 -453 -2 -7 -20 -12 -41 -12 -154 -1 -213 -7 -233 -25 -39
-35 -19 -90 47 -124 29 -15 163 -27 249 -23 71 4 72 4 101 45 16 23 41 70 56
104 30 67 78 291 97 448 27 225 70 387 103 393 24 5 50 -57 92 -223 39 -153
52 -185 97 -239 34 -41 50 -44 97 -15 69 42 121 121 157 239 32 103 86 240 96
240 11 0 89 -92 120 -142 16 -27 33 -48 38 -48 4 0 18 -19 30 -42 28 -54 65
-88 108 -100 43 -12 62 3 62 50 0 20 18 88 39 151 66 192 80 314 46 394 -36
86 -84 19 -116 -164 -11 -62 -27 -125 -37 -141 -29 -49 -42 -42 -155 87 -19
22 -67 62 -105 88 -99 68 -102 65 -183 -137 -48 -119 -86 -186 -105 -186 -14
0 -74 84 -74 104 0 5 -6 17 -14 25 -19 22 -116 242 -116 264 0 21 90 154 225
332 33 44 68 92 78 107 54 86 101 90 219 16 219 -137 402 -325 548 -563 45
-73 90 -159 90 -173 0 -4 8 -23 18 -42 54 -101 130 -400 137 -536 5 -94 16
-128 44 -144 23 -12 274 4 316 20 38 15 65 58 65 106 0 38 -4 45 -30 59 -19
10 -57 15 -108 15 -94 0 -92 -3 -92 113 0 168 -60 417 -129 536 -15 25 -38 68
-51 94 -14 26 -32 56 -40 65 -9 9 -35 43 -58 74 -103 140 -392 384 -600 507
-91 53 -191 76 -269 60z"/>
<path d="M7602 660 c-27 -22 -57 -89 -45 -101 20 -20 129 -70 195 -89 68 -21
103 -23 513 -29 501 -9 475 -13 475 70 0 40 -4 51 -22 61 -18 10 -108 13 -383
13 l-360 0 -80 29 c-44 16 -93 38 -110 48 -42 25 -151 25 -183 -2z"/>
<path d="M9730 428 c-25 -5 -81 -18 -125 -29 -209 -53 -280 -61 -555 -66 -146
-2 -272 -3 -281 -3 -23 0 -30 -24 -23 -71 8 -51 29 -65 136 -91 133 -32 335
-21 628 36 205 39 263 48 360 52 58 3 115 7 128 10 28 6 55 62 50 107 -2 25
-10 33 -43 45 -48 17 -213 24 -275 10z"/>
</g>
</svg>
